G04 Layer_Color=128*
%FSLAX25Y25*%
%MOIN*%
G70*
G01*
G75*
%ADD26C,0.01000*%
%ADD30C,0.00500*%
%ADD31C,0.00800*%
%ADD32R,0.02000X0.01000*%
%ADD33R,0.01000X0.01000*%
%ADD34R,0.01000X0.01500*%
%ADD35R,0.05000X0.05000*%
G36*
X204586Y428232D02*
X206797Y424902D01*
X205243D01*
X203818Y427066D01*
X202403Y424902D01*
X200849D01*
X203050Y428232D01*
X201043Y431303D01*
X202551D01*
X203818Y429388D01*
X205086Y431303D01*
X206593D01*
X204586Y428232D01*
D02*
G37*
G36*
X146580Y430417D02*
X144684D01*
Y425098D01*
X143389D01*
Y430417D01*
X141502D01*
Y431499D01*
X146580D01*
Y430417D01*
D02*
G37*
G36*
X155118Y425098D02*
X153823D01*
Y431499D01*
X155118D01*
Y425098D01*
D02*
G37*
G36*
X212106Y424902D02*
X207241D01*
Y425984D01*
X210811D01*
Y427723D01*
X207601D01*
Y428805D01*
X210811D01*
Y430220D01*
X207361D01*
Y431303D01*
X212106D01*
Y424902D01*
D02*
G37*
G36*
X134860Y432579D02*
X133463D01*
X131187Y438980D01*
X132565D01*
X134129Y434244D01*
X135757Y438980D01*
X137153D01*
X134860Y432579D01*
D02*
G37*
G36*
X141584Y435557D02*
X140594Y435419D01*
X140511Y435502D01*
X140428Y435576D01*
X140345Y435640D01*
X140261Y435696D01*
X140104Y435779D01*
X139956Y435835D01*
X139827Y435862D01*
X139734Y435881D01*
X139697Y435890D01*
X139642D01*
X139494Y435881D01*
X139355Y435844D01*
X139235Y435798D01*
X139133Y435742D01*
X139059Y435677D01*
X138994Y435631D01*
X138957Y435594D01*
X138948Y435585D01*
X138856Y435465D01*
X138791Y435326D01*
X138744Y435178D01*
X138717Y435030D01*
X138689Y434901D01*
X138680Y434799D01*
Y434753D01*
Y434725D01*
Y434706D01*
Y434697D01*
X138689Y434475D01*
X138717Y434281D01*
X138763Y434124D01*
X138809Y433994D01*
X138865Y433883D01*
X138902Y433809D01*
X138939Y433772D01*
X138948Y433753D01*
X139050Y433652D01*
X139161Y433568D01*
X139272Y433513D01*
X139374Y433476D01*
X139466Y433458D01*
X139540Y433448D01*
X139586Y433439D01*
X139605D01*
X139725Y433448D01*
X139845Y433476D01*
X139947Y433513D01*
X140030Y433559D01*
X140104Y433605D01*
X140160Y433642D01*
X140197Y433670D01*
X140206Y433679D01*
X140289Y433781D01*
X140363Y433883D01*
X140419Y433994D01*
X140456Y434096D01*
X140483Y434188D01*
X140502Y434271D01*
X140511Y434318D01*
Y434336D01*
X141732Y434207D01*
X141704Y434059D01*
X141677Y433920D01*
X141584Y433670D01*
X141482Y433448D01*
X141427Y433356D01*
X141362Y433263D01*
X141307Y433189D01*
X141261Y433124D01*
X141205Y433069D01*
X141168Y433013D01*
X141131Y432976D01*
X141103Y432949D01*
X141085Y432939D01*
X141076Y432930D01*
X140964Y432847D01*
X140854Y432773D01*
X140733Y432708D01*
X140613Y432662D01*
X140363Y432570D01*
X140141Y432514D01*
X140030Y432495D01*
X139938Y432486D01*
X139845Y432477D01*
X139771Y432468D01*
X139707Y432458D01*
X139623D01*
X139420Y432468D01*
X139225Y432495D01*
X139050Y432533D01*
X138883Y432588D01*
X138726Y432653D01*
X138587Y432727D01*
X138458Y432801D01*
X138338Y432884D01*
X138236Y432958D01*
X138143Y433032D01*
X138060Y433106D01*
X137995Y433171D01*
X137949Y433226D01*
X137912Y433263D01*
X137893Y433291D01*
X137884Y433300D01*
X137801Y433421D01*
X137727Y433541D01*
X137671Y433661D01*
X137616Y433790D01*
X137533Y434031D01*
X137477Y434253D01*
X137459Y434345D01*
X137450Y434438D01*
X137431Y434521D01*
Y434595D01*
X137422Y434651D01*
Y434688D01*
Y434716D01*
Y434725D01*
X137431Y434901D01*
X137450Y435067D01*
X137477Y435224D01*
X137514Y435372D01*
X137551Y435502D01*
X137607Y435631D01*
X137653Y435751D01*
X137708Y435853D01*
X137764Y435946D01*
X137810Y436029D01*
X137866Y436103D01*
X137903Y436159D01*
X137940Y436205D01*
X137968Y436242D01*
X137986Y436260D01*
X137995Y436270D01*
X138106Y436371D01*
X138217Y436464D01*
X138338Y436547D01*
X138458Y436621D01*
X138569Y436677D01*
X138689Y436723D01*
X138902Y436797D01*
X139004Y436825D01*
X139096Y436843D01*
X139179Y436852D01*
X139244Y436862D01*
X139299Y436871D01*
X139383D01*
X139540Y436862D01*
X139697Y436834D01*
X139836Y436806D01*
X139965Y436769D01*
X140067Y436723D01*
X140150Y436695D01*
X140206Y436667D01*
X140215Y436658D01*
X140225D01*
X140030Y437749D01*
X137708D01*
Y438897D01*
X140955D01*
X141584Y435557D01*
D02*
G37*
G36*
X200627Y430220D02*
X198731D01*
Y424902D01*
X197436D01*
Y430220D01*
X195549D01*
Y431303D01*
X200627D01*
Y430220D01*
D02*
G37*
G36*
X152584Y425098D02*
X151390D01*
Y429316D01*
X148791Y425098D01*
X147496D01*
Y431499D01*
X148689D01*
Y427189D01*
X151335Y431499D01*
X152584D01*
Y425098D01*
D02*
G37*
G36*
X696210Y435262D02*
X695221Y435123D01*
X695137Y435207D01*
X695054Y435281D01*
X694971Y435345D01*
X694887Y435401D01*
X694730Y435484D01*
X694582Y435539D01*
X694453Y435567D01*
X694360Y435586D01*
X694323Y435595D01*
X694268D01*
X694120Y435586D01*
X693981Y435549D01*
X693861Y435502D01*
X693759Y435447D01*
X693685Y435382D01*
X693620Y435336D01*
X693583Y435299D01*
X693574Y435290D01*
X693481Y435170D01*
X693417Y435031D01*
X693370Y434883D01*
X693343Y434735D01*
X693315Y434605D01*
X693306Y434504D01*
Y434457D01*
Y434430D01*
Y434411D01*
Y434402D01*
X693315Y434180D01*
X693343Y433986D01*
X693389Y433828D01*
X693435Y433699D01*
X693491Y433588D01*
X693528Y433514D01*
X693565Y433477D01*
X693574Y433458D01*
X693676Y433357D01*
X693787Y433273D01*
X693898Y433218D01*
X693999Y433181D01*
X694092Y433162D01*
X694166Y433153D01*
X694212Y433144D01*
X694231D01*
X694351Y433153D01*
X694471Y433181D01*
X694573Y433218D01*
X694656Y433264D01*
X694730Y433310D01*
X694786Y433347D01*
X694823Y433375D01*
X694832Y433384D01*
X694915Y433486D01*
X694989Y433588D01*
X695045Y433699D01*
X695082Y433801D01*
X695110Y433893D01*
X695128Y433976D01*
X695137Y434023D01*
Y434041D01*
X696358Y433912D01*
X696330Y433764D01*
X696303Y433625D01*
X696210Y433375D01*
X696108Y433153D01*
X696053Y433061D01*
X695988Y432968D01*
X695933Y432894D01*
X695887Y432829D01*
X695831Y432774D01*
X695794Y432718D01*
X695757Y432681D01*
X695729Y432654D01*
X695711Y432644D01*
X695702Y432635D01*
X695590Y432552D01*
X695479Y432478D01*
X695359Y432413D01*
X695239Y432367D01*
X694989Y432274D01*
X694767Y432219D01*
X694656Y432200D01*
X694564Y432191D01*
X694471Y432182D01*
X694397Y432172D01*
X694333Y432163D01*
X694249D01*
X694046Y432172D01*
X693852Y432200D01*
X693676Y432237D01*
X693509Y432293D01*
X693352Y432358D01*
X693213Y432432D01*
X693084Y432506D01*
X692964Y432589D01*
X692862Y432663D01*
X692769Y432737D01*
X692686Y432811D01*
X692621Y432875D01*
X692575Y432931D01*
X692538Y432968D01*
X692520Y432996D01*
X692510Y433005D01*
X692427Y433125D01*
X692353Y433246D01*
X692298Y433366D01*
X692242Y433495D01*
X692159Y433736D01*
X692103Y433958D01*
X692085Y434050D01*
X692075Y434143D01*
X692057Y434226D01*
Y434300D01*
X692048Y434355D01*
Y434392D01*
Y434420D01*
Y434430D01*
X692057Y434605D01*
X692075Y434772D01*
X692103Y434929D01*
X692140Y435077D01*
X692177Y435207D01*
X692233Y435336D01*
X692279Y435456D01*
X692335Y435558D01*
X692390Y435650D01*
X692436Y435734D01*
X692492Y435808D01*
X692529Y435863D01*
X692566Y435910D01*
X692593Y435947D01*
X692612Y435965D01*
X692621Y435974D01*
X692732Y436076D01*
X692843Y436168D01*
X692964Y436252D01*
X693084Y436326D01*
X693195Y436381D01*
X693315Y436427D01*
X693528Y436502D01*
X693630Y436529D01*
X693722Y436548D01*
X693805Y436557D01*
X693870Y436566D01*
X693926Y436576D01*
X694009D01*
X694166Y436566D01*
X694323Y436539D01*
X694462Y436511D01*
X694592Y436474D01*
X694693Y436427D01*
X694776Y436400D01*
X694832Y436372D01*
X694841Y436363D01*
X694850D01*
X694656Y437454D01*
X692335D01*
Y438601D01*
X695581D01*
X696210Y435262D01*
D02*
G37*
G36*
X618737Y430516D02*
X616841D01*
Y425197D01*
X615546D01*
Y430516D01*
X613659D01*
Y431598D01*
X618737D01*
Y430516D01*
D02*
G37*
G36*
X630217Y425197D02*
X625351D01*
Y426279D01*
X628922D01*
Y428018D01*
X625712D01*
Y429100D01*
X628922D01*
Y430516D01*
X625471D01*
Y431598D01*
X630217D01*
Y425197D01*
D02*
G37*
G36*
X689486Y432283D02*
X688089D01*
X685813Y438685D01*
X687191D01*
X688755Y433949D01*
X690383Y438685D01*
X691780D01*
X689486Y432283D01*
D02*
G37*
G36*
X123673Y419021D02*
X123793Y418826D01*
X123923Y418641D01*
X124052Y418493D01*
X124163Y418373D01*
X124265Y418281D01*
X124302Y418244D01*
X124330Y418216D01*
X124348Y418207D01*
X124358Y418197D01*
X124561Y418049D01*
X124755Y417920D01*
X124931Y417818D01*
X125088Y417744D01*
X125218Y417689D01*
X125310Y417642D01*
X125347Y417633D01*
X125375Y417624D01*
X125384Y417615D01*
X125394D01*
Y416504D01*
X125061Y416634D01*
X124765Y416773D01*
X124626Y416847D01*
X124496Y416930D01*
X124376Y417004D01*
X124265Y417078D01*
X124163Y417152D01*
X124071Y417217D01*
X123997Y417272D01*
X123932Y417328D01*
X123877Y417374D01*
X123840Y417402D01*
X123821Y417420D01*
X123812Y417429D01*
Y412795D01*
X122582D01*
Y419233D01*
X123581D01*
X123673Y419021D01*
D02*
G37*
G36*
X133816Y419421D02*
X133964Y419412D01*
X134251Y419365D01*
X134492Y419291D01*
X134602Y419254D01*
X134704Y419208D01*
X134797Y419171D01*
X134871Y419125D01*
X134945Y419088D01*
X135000Y419060D01*
X135047Y419023D01*
X135074Y419005D01*
X135093Y418995D01*
X135102Y418986D01*
X135204Y418894D01*
X135296Y418801D01*
X135379Y418690D01*
X135453Y418570D01*
X135564Y418329D01*
X135657Y418098D01*
X135685Y417978D01*
X135712Y417876D01*
X135740Y417784D01*
X135749Y417700D01*
X135768Y417626D01*
Y417580D01*
X135777Y417543D01*
Y417534D01*
X134556Y417414D01*
X134538Y417599D01*
X134501Y417756D01*
X134464Y417895D01*
X134417Y417996D01*
X134380Y418080D01*
X134344Y418135D01*
X134316Y418172D01*
X134306Y418181D01*
X134214Y418255D01*
X134112Y418311D01*
X134010Y418357D01*
X133909Y418385D01*
X133826Y418403D01*
X133751Y418413D01*
X133687D01*
X133548Y418403D01*
X133428Y418376D01*
X133326Y418339D01*
X133233Y418302D01*
X133169Y418265D01*
X133113Y418228D01*
X133085Y418200D01*
X133076Y418191D01*
X133002Y418098D01*
X132947Y417996D01*
X132910Y417895D01*
X132882Y417793D01*
X132863Y417700D01*
X132854Y417617D01*
Y417571D01*
Y417562D01*
Y417552D01*
X132863Y417414D01*
X132891Y417284D01*
X132937Y417155D01*
X132984Y417044D01*
X133030Y416942D01*
X133076Y416868D01*
X133104Y416822D01*
X133113Y416803D01*
X133150Y416748D01*
X133206Y416683D01*
X133280Y416600D01*
X133354Y416526D01*
X133520Y416350D01*
X133687Y416174D01*
X133853Y416008D01*
X133927Y415934D01*
X134001Y415878D01*
X134057Y415823D01*
X134094Y415786D01*
X134122Y415758D01*
X134131Y415749D01*
X134316Y415573D01*
X134482Y415406D01*
X134640Y415249D01*
X134778Y415110D01*
X134908Y414972D01*
X135019Y414842D01*
X135120Y414731D01*
X135204Y414620D01*
X135278Y414528D01*
X135343Y414444D01*
X135398Y414380D01*
X135435Y414315D01*
X135472Y414278D01*
X135491Y414241D01*
X135509Y414222D01*
Y414213D01*
X135629Y414000D01*
X135722Y413778D01*
X135796Y413575D01*
X135851Y413390D01*
X135888Y413223D01*
X135898Y413159D01*
X135907Y413103D01*
X135916Y413057D01*
X135925Y413020D01*
Y413001D01*
Y412992D01*
X131624D01*
Y414130D01*
X134066D01*
X133992Y414250D01*
X133909Y414352D01*
X133872Y414398D01*
X133844Y414435D01*
X133826Y414454D01*
X133816Y414463D01*
X133779Y414500D01*
X133742Y414546D01*
X133631Y414648D01*
X133511Y414768D01*
X133391Y414888D01*
X133271Y414999D01*
X133169Y415092D01*
X133132Y415129D01*
X133104Y415157D01*
X133085Y415166D01*
X133076Y415175D01*
X132873Y415369D01*
X132706Y415527D01*
X132568Y415675D01*
X132456Y415786D01*
X132373Y415878D01*
X132318Y415943D01*
X132281Y415989D01*
X132272Y415998D01*
X132151Y416156D01*
X132050Y416304D01*
X131966Y416442D01*
X131901Y416563D01*
X131846Y416664D01*
X131809Y416748D01*
X131790Y416794D01*
X131781Y416812D01*
X131726Y416960D01*
X131689Y417108D01*
X131661Y417247D01*
X131642Y417377D01*
X131633Y417478D01*
X131624Y417562D01*
Y417617D01*
Y417636D01*
X131633Y417774D01*
X131652Y417913D01*
X131670Y418043D01*
X131707Y418163D01*
X131800Y418376D01*
X131892Y418561D01*
X131948Y418644D01*
X131994Y418709D01*
X132040Y418773D01*
X132086Y418820D01*
X132123Y418857D01*
X132142Y418894D01*
X132160Y418903D01*
X132170Y418912D01*
X132272Y419005D01*
X132392Y419088D01*
X132503Y419153D01*
X132632Y419208D01*
X132873Y419301D01*
X133113Y419365D01*
X133224Y419384D01*
X133326Y419402D01*
X133419Y419412D01*
X133502Y419421D01*
X133566Y419430D01*
X133659D01*
X133816Y419421D01*
D02*
G37*
G36*
X143555Y419217D02*
X143675Y419023D01*
X143805Y418838D01*
X143934Y418690D01*
X144045Y418570D01*
X144147Y418477D01*
X144184Y418440D01*
X144212Y418413D01*
X144230Y418403D01*
X144240Y418394D01*
X144443Y418246D01*
X144637Y418117D01*
X144813Y418015D01*
X144970Y417941D01*
X145100Y417885D01*
X145192Y417839D01*
X145229Y417830D01*
X145257Y417821D01*
X145266Y417811D01*
X145276D01*
Y416701D01*
X144943Y416831D01*
X144647Y416970D01*
X144508Y417044D01*
X144378Y417127D01*
X144258Y417201D01*
X144147Y417275D01*
X144045Y417349D01*
X143953Y417414D01*
X143879Y417469D01*
X143814Y417525D01*
X143759Y417571D01*
X143722Y417599D01*
X143703Y417617D01*
X143694Y417626D01*
Y412992D01*
X142464D01*
Y419430D01*
X143463D01*
X143555Y419217D01*
D02*
G37*
G36*
X640618Y174364D02*
X640816Y174340D01*
X641003Y174305D01*
X641166Y174270D01*
X641317Y174224D01*
X641457Y174177D01*
X641586Y174131D01*
X641691Y174072D01*
X641784Y174026D01*
X641865Y173979D01*
X641924Y173944D01*
X641982Y173909D01*
X642017Y173886D01*
X642029Y173874D01*
X642040Y173862D01*
X642145Y173769D01*
X642239Y173664D01*
X642320Y173559D01*
X642379Y173443D01*
X642495Y173233D01*
X642565Y173035D01*
X642600Y172860D01*
X642612Y172778D01*
X642623Y172720D01*
X642635Y172661D01*
Y172626D01*
Y172603D01*
Y172591D01*
X642623Y172440D01*
X642600Y172300D01*
X642577Y172160D01*
X642530Y172032D01*
X642414Y171810D01*
X642285Y171624D01*
X642169Y171472D01*
X642052Y171367D01*
X642005Y171320D01*
X641982Y171297D01*
X641959Y171285D01*
X641947Y171274D01*
X641842Y171216D01*
X641702Y171146D01*
X641539Y171076D01*
X641364Y171017D01*
X641178Y170947D01*
X640979Y170889D01*
X640571Y170773D01*
X640373Y170714D01*
X640186Y170668D01*
X640023Y170621D01*
X639872Y170586D01*
X639743Y170563D01*
X639650Y170539D01*
X639592Y170516D01*
X639568D01*
X639429Y170481D01*
X639324Y170446D01*
X639230Y170411D01*
X639160Y170388D01*
X639114Y170353D01*
X639079Y170341D01*
X639055Y170318D01*
X638985Y170224D01*
X638950Y170131D01*
X638939Y170061D01*
Y170038D01*
Y170026D01*
X638950Y169933D01*
X638974Y169851D01*
X639009Y169781D01*
X639044Y169723D01*
X639079Y169676D01*
X639114Y169641D01*
X639137Y169618D01*
X639149Y169606D01*
X639277Y169536D01*
X639417Y169490D01*
X639568Y169443D01*
X639708Y169420D01*
X639837Y169408D01*
X639953Y169397D01*
X640047D01*
X640245Y169408D01*
X640408Y169432D01*
X640559Y169467D01*
X640676Y169513D01*
X640769Y169548D01*
X640839Y169583D01*
X640886Y169606D01*
X640898Y169618D01*
X641003Y169711D01*
X641084Y169828D01*
X641154Y169933D01*
X641213Y170050D01*
X641248Y170155D01*
X641271Y170236D01*
X641294Y170283D01*
Y170306D01*
X642845Y170073D01*
X642740Y169781D01*
X642612Y169513D01*
X642472Y169292D01*
X642320Y169105D01*
X642180Y168954D01*
X642052Y168849D01*
X642017Y168802D01*
X641982Y168779D01*
X641959Y168767D01*
X641947Y168755D01*
X641807Y168674D01*
X641667Y168592D01*
X641352Y168475D01*
X641038Y168394D01*
X640734Y168335D01*
X640594Y168312D01*
X640466Y168301D01*
X640350Y168289D01*
X640245D01*
X640163Y168277D01*
X640047D01*
X639813Y168289D01*
X639592Y168301D01*
X639382Y168335D01*
X639184Y168370D01*
X639009Y168405D01*
X638845Y168464D01*
X638694Y168510D01*
X638566Y168569D01*
X638449Y168615D01*
X638344Y168674D01*
X638263Y168720D01*
X638193Y168755D01*
X638134Y168802D01*
X638099Y168825D01*
X638076Y168837D01*
X638064Y168849D01*
X637948Y168965D01*
X637843Y169082D01*
X637749Y169198D01*
X637668Y169315D01*
X637610Y169432D01*
X637551Y169548D01*
X637470Y169758D01*
X637423Y169956D01*
X637411Y170038D01*
X637400Y170096D01*
X637388Y170155D01*
Y170201D01*
Y170224D01*
Y170236D01*
X637411Y170493D01*
X637470Y170726D01*
X637540Y170924D01*
X637633Y171087D01*
X637726Y171216D01*
X637796Y171309D01*
X637854Y171355D01*
X637878Y171379D01*
X637983Y171449D01*
X638088Y171530D01*
X638216Y171589D01*
X638356Y171659D01*
X638636Y171775D01*
X638927Y171880D01*
X639184Y171962D01*
X639300Y171985D01*
X639405Y172020D01*
X639487Y172043D01*
X639545Y172055D01*
X639592Y172067D01*
X639603D01*
X639825Y172125D01*
X640023Y172172D01*
X640198Y172218D01*
X640350Y172265D01*
X640490Y172300D01*
X640606Y172335D01*
X640699Y172370D01*
X640793Y172393D01*
X640863Y172428D01*
X640921Y172451D01*
X640968Y172463D01*
X640991Y172486D01*
X641038Y172498D01*
X641049Y172510D01*
X641096Y172556D01*
X641131Y172603D01*
X641178Y172696D01*
X641201Y172766D01*
Y172778D01*
Y172790D01*
X641189Y172860D01*
X641178Y172918D01*
X641108Y173023D01*
X641049Y173081D01*
X641038Y173105D01*
X641026D01*
X640909Y173163D01*
X640781Y173209D01*
X640641Y173233D01*
X640490Y173256D01*
X640361Y173268D01*
X640256Y173279D01*
X640151D01*
X639977Y173268D01*
X639825Y173256D01*
X639697Y173221D01*
X639592Y173186D01*
X639510Y173151D01*
X639452Y173128D01*
X639417Y173105D01*
X639405Y173093D01*
X639312Y173023D01*
X639242Y172941D01*
X639172Y172860D01*
X639125Y172766D01*
X639090Y172696D01*
X639067Y172638D01*
X639044Y172591D01*
Y172580D01*
X637586Y172848D01*
X637679Y173116D01*
X637808Y173349D01*
X637936Y173548D01*
X638076Y173699D01*
X638193Y173827D01*
X638298Y173921D01*
X638368Y173967D01*
X638379Y173991D01*
X638391D01*
X638507Y174061D01*
X638636Y174119D01*
X638915Y174224D01*
X639207Y174294D01*
X639499Y174340D01*
X639638Y174352D01*
X639767Y174364D01*
X639883Y174375D01*
X639977Y174387D01*
X640408D01*
X640618Y174364D01*
D02*
G37*
G36*
X646856Y174375D02*
X647147Y174329D01*
X647416Y174270D01*
X647649Y174200D01*
X647742Y174154D01*
X647835Y174119D01*
X647917Y174096D01*
X647975Y174061D01*
X648034Y174037D01*
X648069Y174014D01*
X648092Y174002D01*
X648104D01*
X648348Y173839D01*
X648558Y173664D01*
X648745Y173478D01*
X648896Y173303D01*
X649013Y173140D01*
X649106Y173011D01*
X649141Y172965D01*
X649153Y172930D01*
X649176Y172906D01*
Y172895D01*
X649304Y172626D01*
X649386Y172358D01*
X649456Y172113D01*
X649503Y171892D01*
X649526Y171694D01*
X649538Y171612D01*
Y171542D01*
X649549Y171495D01*
Y171449D01*
Y171425D01*
Y171414D01*
X649538Y171052D01*
X649491Y170714D01*
X649433Y170423D01*
X649398Y170294D01*
X649363Y170178D01*
X649328Y170073D01*
X649293Y169980D01*
X649258Y169898D01*
X649235Y169828D01*
X649211Y169770D01*
X649188Y169735D01*
X649176Y169711D01*
Y169700D01*
X649013Y169455D01*
X648838Y169245D01*
X648652Y169059D01*
X648477Y168907D01*
X648313Y168790D01*
X648185Y168709D01*
X648139Y168674D01*
X648104Y168650D01*
X648080Y168639D01*
X648069D01*
X647789Y168522D01*
X647521Y168429D01*
X647264Y168370D01*
X647019Y168324D01*
X646821Y168301D01*
X646739Y168289D01*
X646669D01*
X646611Y168277D01*
X646529D01*
X646285Y168289D01*
X646063Y168312D01*
X645842Y168359D01*
X645643Y168417D01*
X645445Y168475D01*
X645270Y168545D01*
X645107Y168627D01*
X644955Y168709D01*
X644827Y168790D01*
X644710Y168872D01*
X644606Y168942D01*
X644524Y169000D01*
X644454Y169059D01*
X644407Y169105D01*
X644384Y169128D01*
X644372Y169140D01*
X644221Y169315D01*
X644093Y169490D01*
X643976Y169665D01*
X643871Y169851D01*
X643789Y170038D01*
X643719Y170224D01*
X643661Y170399D01*
X643614Y170574D01*
X643579Y170726D01*
X643556Y170877D01*
X643533Y171006D01*
X643521Y171122D01*
X643509Y171216D01*
Y171285D01*
Y171332D01*
Y171344D01*
X643521Y171589D01*
X643544Y171822D01*
X643591Y172032D01*
X643638Y172242D01*
X643708Y172428D01*
X643778Y172615D01*
X643859Y172778D01*
X643929Y172930D01*
X644011Y173058D01*
X644093Y173186D01*
X644163Y173279D01*
X644232Y173373D01*
X644279Y173431D01*
X644326Y173489D01*
X644349Y173513D01*
X644361Y173524D01*
X644524Y173676D01*
X644699Y173804D01*
X644874Y173921D01*
X645060Y174026D01*
X645247Y174107D01*
X645422Y174177D01*
X645597Y174235D01*
X645772Y174282D01*
X645923Y174317D01*
X646075Y174340D01*
X646203Y174364D01*
X646320Y174375D01*
X646413Y174387D01*
X646541D01*
X646856Y174375D01*
D02*
G37*
G36*
X704491D02*
X704783Y174329D01*
X705051Y174270D01*
X705284Y174200D01*
X705377Y174154D01*
X705471Y174119D01*
X705552Y174096D01*
X705611Y174061D01*
X705669Y174037D01*
X705704Y174014D01*
X705727Y174002D01*
X705739D01*
X705984Y173839D01*
X706194Y173664D01*
X706380Y173478D01*
X706532Y173303D01*
X706648Y173140D01*
X706742Y173011D01*
X706777Y172965D01*
X706788Y172930D01*
X706812Y172906D01*
Y172895D01*
X706940Y172626D01*
X707022Y172358D01*
X707092Y172113D01*
X707138Y171892D01*
X707162Y171694D01*
X707173Y171612D01*
Y171542D01*
X707185Y171495D01*
Y171449D01*
Y171425D01*
Y171414D01*
X707173Y171052D01*
X707127Y170714D01*
X707068Y170423D01*
X707033Y170294D01*
X706998Y170178D01*
X706963Y170073D01*
X706928Y169980D01*
X706893Y169898D01*
X706870Y169828D01*
X706847Y169770D01*
X706823Y169735D01*
X706812Y169711D01*
Y169700D01*
X706648Y169455D01*
X706473Y169245D01*
X706287Y169059D01*
X706112Y168907D01*
X705949Y168790D01*
X705821Y168709D01*
X705774Y168674D01*
X705739Y168650D01*
X705716Y168639D01*
X705704D01*
X705424Y168522D01*
X705156Y168429D01*
X704899Y168370D01*
X704655Y168324D01*
X704456Y168301D01*
X704375Y168289D01*
X704305D01*
X704247Y168277D01*
X704165D01*
X703920Y168289D01*
X703698Y168312D01*
X703477Y168359D01*
X703279Y168417D01*
X703081Y168475D01*
X702906Y168545D01*
X702742Y168627D01*
X702591Y168709D01*
X702462Y168790D01*
X702346Y168872D01*
X702241Y168942D01*
X702159Y169000D01*
X702089Y169059D01*
X702043Y169105D01*
X702019Y169128D01*
X702008Y169140D01*
X701856Y169315D01*
X701728Y169490D01*
X701611Y169665D01*
X701506Y169851D01*
X701425Y170038D01*
X701355Y170224D01*
X701297Y170399D01*
X701250Y170574D01*
X701215Y170726D01*
X701192Y170877D01*
X701168Y171006D01*
X701157Y171122D01*
X701145Y171216D01*
Y171285D01*
Y171332D01*
Y171344D01*
X701157Y171589D01*
X701180Y171822D01*
X701227Y172032D01*
X701273Y172242D01*
X701343Y172428D01*
X701413Y172615D01*
X701495Y172778D01*
X701565Y172930D01*
X701646Y173058D01*
X701728Y173186D01*
X701798Y173279D01*
X701868Y173373D01*
X701915Y173431D01*
X701961Y173489D01*
X701984Y173513D01*
X701996Y173524D01*
X702159Y173676D01*
X702334Y173804D01*
X702509Y173921D01*
X702696Y174026D01*
X702882Y174107D01*
X703057Y174177D01*
X703232Y174235D01*
X703407Y174282D01*
X703558Y174317D01*
X703710Y174340D01*
X703838Y174364D01*
X703955Y174375D01*
X704048Y174387D01*
X704177D01*
X704491Y174375D01*
D02*
G37*
G36*
X634345Y174364D02*
X634543Y174340D01*
X634729Y174305D01*
X634893Y174270D01*
X635044Y174224D01*
X635184Y174177D01*
X635313Y174131D01*
X635418Y174072D01*
X635511Y174026D01*
X635592Y173979D01*
X635651Y173944D01*
X635709Y173909D01*
X635744Y173886D01*
X635756Y173874D01*
X635767Y173862D01*
X635872Y173769D01*
X635965Y173664D01*
X636047Y173559D01*
X636105Y173443D01*
X636222Y173233D01*
X636292Y173035D01*
X636327Y172860D01*
X636339Y172778D01*
X636350Y172720D01*
X636362Y172661D01*
Y172626D01*
Y172603D01*
Y172591D01*
X636350Y172440D01*
X636327Y172300D01*
X636304Y172160D01*
X636257Y172032D01*
X636140Y171810D01*
X636012Y171624D01*
X635895Y171472D01*
X635779Y171367D01*
X635732Y171320D01*
X635709Y171297D01*
X635686Y171285D01*
X635674Y171274D01*
X635569Y171216D01*
X635429Y171146D01*
X635266Y171076D01*
X635091Y171017D01*
X634904Y170947D01*
X634706Y170889D01*
X634298Y170773D01*
X634100Y170714D01*
X633913Y170668D01*
X633750Y170621D01*
X633599Y170586D01*
X633470Y170563D01*
X633377Y170539D01*
X633319Y170516D01*
X633295D01*
X633155Y170481D01*
X633050Y170446D01*
X632957Y170411D01*
X632887Y170388D01*
X632841Y170353D01*
X632806Y170341D01*
X632782Y170318D01*
X632712Y170224D01*
X632677Y170131D01*
X632666Y170061D01*
Y170038D01*
Y170026D01*
X632677Y169933D01*
X632701Y169851D01*
X632736Y169781D01*
X632771Y169723D01*
X632806Y169676D01*
X632841Y169641D01*
X632864Y169618D01*
X632876Y169606D01*
X633004Y169536D01*
X633144Y169490D01*
X633295Y169443D01*
X633435Y169420D01*
X633564Y169408D01*
X633680Y169397D01*
X633773D01*
X633972Y169408D01*
X634135Y169432D01*
X634286Y169467D01*
X634403Y169513D01*
X634496Y169548D01*
X634566Y169583D01*
X634613Y169606D01*
X634625Y169618D01*
X634729Y169711D01*
X634811Y169828D01*
X634881Y169933D01*
X634939Y170050D01*
X634974Y170155D01*
X634998Y170236D01*
X635021Y170283D01*
Y170306D01*
X636572Y170073D01*
X636467Y169781D01*
X636339Y169513D01*
X636199Y169292D01*
X636047Y169105D01*
X635907Y168954D01*
X635779Y168849D01*
X635744Y168802D01*
X635709Y168779D01*
X635686Y168767D01*
X635674Y168755D01*
X635534Y168674D01*
X635394Y168592D01*
X635079Y168475D01*
X634764Y168394D01*
X634461Y168335D01*
X634321Y168312D01*
X634193Y168301D01*
X634077Y168289D01*
X633972D01*
X633890Y168277D01*
X633773D01*
X633540Y168289D01*
X633319Y168301D01*
X633109Y168335D01*
X632911Y168370D01*
X632736Y168405D01*
X632572Y168464D01*
X632421Y168510D01*
X632293Y168569D01*
X632176Y168615D01*
X632071Y168674D01*
X631989Y168720D01*
X631919Y168755D01*
X631861Y168802D01*
X631826Y168825D01*
X631803Y168837D01*
X631791Y168849D01*
X631675Y168965D01*
X631570Y169082D01*
X631476Y169198D01*
X631395Y169315D01*
X631336Y169432D01*
X631278Y169548D01*
X631197Y169758D01*
X631150Y169956D01*
X631138Y170038D01*
X631127Y170096D01*
X631115Y170155D01*
Y170201D01*
Y170224D01*
Y170236D01*
X631138Y170493D01*
X631197Y170726D01*
X631266Y170924D01*
X631360Y171087D01*
X631453Y171216D01*
X631523Y171309D01*
X631581Y171355D01*
X631605Y171379D01*
X631710Y171449D01*
X631814Y171530D01*
X631943Y171589D01*
X632083Y171659D01*
X632363Y171775D01*
X632654Y171880D01*
X632911Y171962D01*
X633027Y171985D01*
X633132Y172020D01*
X633214Y172043D01*
X633272Y172055D01*
X633319Y172067D01*
X633330D01*
X633552Y172125D01*
X633750Y172172D01*
X633925Y172218D01*
X634077Y172265D01*
X634216Y172300D01*
X634333Y172335D01*
X634426Y172370D01*
X634520Y172393D01*
X634590Y172428D01*
X634648Y172451D01*
X634695Y172463D01*
X634718Y172486D01*
X634764Y172498D01*
X634776Y172510D01*
X634823Y172556D01*
X634858Y172603D01*
X634904Y172696D01*
X634928Y172766D01*
Y172778D01*
Y172790D01*
X634916Y172860D01*
X634904Y172918D01*
X634834Y173023D01*
X634776Y173081D01*
X634764Y173105D01*
X634753D01*
X634636Y173163D01*
X634508Y173209D01*
X634368Y173233D01*
X634216Y173256D01*
X634088Y173268D01*
X633983Y173279D01*
X633878D01*
X633704Y173268D01*
X633552Y173256D01*
X633424Y173221D01*
X633319Y173186D01*
X633237Y173151D01*
X633179Y173128D01*
X633144Y173105D01*
X633132Y173093D01*
X633039Y173023D01*
X632969Y172941D01*
X632899Y172860D01*
X632852Y172766D01*
X632817Y172696D01*
X632794Y172638D01*
X632771Y172591D01*
Y172580D01*
X631313Y172848D01*
X631406Y173116D01*
X631535Y173349D01*
X631663Y173548D01*
X631803Y173699D01*
X631919Y173827D01*
X632024Y173921D01*
X632094Y173967D01*
X632106Y173991D01*
X632118D01*
X632234Y174061D01*
X632363Y174119D01*
X632642Y174224D01*
X632934Y174294D01*
X633225Y174340D01*
X633365Y174352D01*
X633494Y174364D01*
X633610Y174375D01*
X633704Y174387D01*
X634135D01*
X634345Y174364D01*
D02*
G37*
G36*
X134645Y442802D02*
X136319D01*
Y441656D01*
X134645D01*
Y440000D01*
X133525D01*
Y441656D01*
X131842D01*
Y442802D01*
X133525D01*
Y444458D01*
X134645D01*
Y442802D01*
D02*
G37*
G36*
X694192Y443295D02*
X695866D01*
Y442148D01*
X694192D01*
Y440492D01*
X693073D01*
Y442148D01*
X691389D01*
Y443295D01*
X693073D01*
Y444950D01*
X694192D01*
Y443295D01*
D02*
G37*
G36*
X711860Y176614D02*
X712164Y176579D01*
X712432Y176532D01*
X712665Y176486D01*
X712770Y176451D01*
X712863Y176428D01*
X712933Y176404D01*
X713003Y176381D01*
X713050Y176358D01*
X713085Y176346D01*
X713108Y176334D01*
X713120D01*
X713353Y176218D01*
X713551Y176090D01*
X713726Y175950D01*
X713866Y175821D01*
X713983Y175705D01*
X714052Y175611D01*
X714111Y175541D01*
X714122Y175530D01*
Y175518D01*
X714239Y175320D01*
X714321Y175110D01*
X714379Y174912D01*
X714414Y174737D01*
X714437Y174585D01*
X714461Y174469D01*
Y174422D01*
Y174387D01*
Y174375D01*
Y174364D01*
X714449Y174189D01*
X714426Y174014D01*
X714391Y173862D01*
X714344Y173711D01*
X714227Y173431D01*
X714087Y173186D01*
X714029Y173081D01*
X713959Y173000D01*
X713901Y172918D01*
X713843Y172848D01*
X713796Y172801D01*
X713761Y172766D01*
X713738Y172743D01*
X713726Y172731D01*
X713621Y172650D01*
X713493Y172568D01*
X713365Y172486D01*
X713213Y172417D01*
X712921Y172277D01*
X712618Y172160D01*
X712467Y172113D01*
X712338Y172067D01*
X712210Y172032D01*
X712105Y171997D01*
X712024Y171974D01*
X711954Y171950D01*
X711907Y171939D01*
X711895D01*
X711709Y171892D01*
X711546Y171845D01*
X711394Y171810D01*
X711254Y171775D01*
X711137Y171740D01*
X711033Y171717D01*
X710939Y171682D01*
X710858Y171659D01*
X710788Y171647D01*
X710729Y171624D01*
X710648Y171600D01*
X710601Y171577D01*
X710590D01*
X710438Y171519D01*
X710321Y171460D01*
X710216Y171402D01*
X710135Y171344D01*
X710077Y171297D01*
X710042Y171262D01*
X710018Y171239D01*
X710007Y171227D01*
X709948Y171146D01*
X709902Y171064D01*
X709878Y170982D01*
X709855Y170912D01*
X709843Y170843D01*
X709832Y170784D01*
Y170749D01*
Y170738D01*
X709843Y170574D01*
X709890Y170434D01*
X709960Y170294D01*
X710030Y170178D01*
X710111Y170085D01*
X710170Y170015D01*
X710216Y169968D01*
X710240Y169956D01*
X710403Y169851D01*
X710590Y169770D01*
X710788Y169711D01*
X710974Y169676D01*
X711149Y169653D01*
X711289Y169630D01*
X711417D01*
X711686Y169641D01*
X711919Y169688D01*
X712117Y169746D01*
X712292Y169816D01*
X712432Y169886D01*
X712525Y169945D01*
X712583Y169991D01*
X712607Y170003D01*
X712758Y170166D01*
X712875Y170341D01*
X712980Y170539D01*
X713050Y170738D01*
X713108Y170912D01*
X713155Y171052D01*
X713166Y171099D01*
Y171146D01*
X713178Y171169D01*
Y171181D01*
X714764Y171029D01*
X714729Y170784D01*
X714682Y170551D01*
X714612Y170329D01*
X714554Y170131D01*
X714472Y169945D01*
X714391Y169770D01*
X714309Y169618D01*
X714227Y169478D01*
X714146Y169362D01*
X714064Y169257D01*
X713994Y169163D01*
X713924Y169082D01*
X713878Y169024D01*
X713831Y168989D01*
X713808Y168965D01*
X713796Y168954D01*
X713633Y168825D01*
X713458Y168720D01*
X713271Y168627D01*
X713073Y168545D01*
X712886Y168487D01*
X712688Y168429D01*
X712303Y168347D01*
X712129Y168312D01*
X711965Y168289D01*
X711826Y168277D01*
X711697Y168266D01*
X711592Y168254D01*
X711441D01*
X711068Y168266D01*
X710729Y168301D01*
X710426Y168347D01*
X710298Y168370D01*
X710170Y168405D01*
X710065Y168429D01*
X709972Y168452D01*
X709890Y168475D01*
X709820Y168499D01*
X709762Y168522D01*
X709727Y168534D01*
X709703Y168545D01*
X709692D01*
X709435Y168674D01*
X709225Y168814D01*
X709027Y168954D01*
X708876Y169105D01*
X708759Y169233D01*
X708666Y169350D01*
X708619Y169420D01*
X708596Y169432D01*
Y169443D01*
X708467Y169676D01*
X708362Y169898D01*
X708292Y170120D01*
X708246Y170329D01*
X708222Y170493D01*
X708211Y170574D01*
X708199Y170633D01*
Y170679D01*
Y170714D01*
Y170738D01*
Y170749D01*
X708211Y171029D01*
X708246Y171274D01*
X708304Y171495D01*
X708362Y171682D01*
X708421Y171834D01*
X708479Y171939D01*
X708514Y172008D01*
X708526Y172032D01*
X708654Y172218D01*
X708806Y172382D01*
X708957Y172521D01*
X709097Y172638D01*
X709225Y172731D01*
X709330Y172801D01*
X709400Y172848D01*
X709412Y172860D01*
X709423D01*
X709540Y172918D01*
X709657Y172976D01*
X709937Y173081D01*
X710228Y173175D01*
X710508Y173268D01*
X710636Y173303D01*
X710764Y173338D01*
X710881Y173373D01*
X710974Y173396D01*
X711056Y173419D01*
X711114Y173431D01*
X711161Y173443D01*
X711172D01*
X711382Y173501D01*
X711569Y173548D01*
X711744Y173594D01*
X711907Y173641D01*
X712035Y173688D01*
X712164Y173734D01*
X712268Y173781D01*
X712362Y173816D01*
X712443Y173851D01*
X712502Y173886D01*
X712560Y173909D01*
X712595Y173932D01*
X712653Y173967D01*
X712665Y173979D01*
X712747Y174061D01*
X712805Y174142D01*
X712840Y174224D01*
X712863Y174305D01*
X712886Y174364D01*
X712898Y174422D01*
Y174457D01*
Y174469D01*
X712886Y174585D01*
X712863Y174679D01*
X712817Y174772D01*
X712770Y174842D01*
X712723Y174900D01*
X712677Y174935D01*
X712653Y174958D01*
X712642Y174970D01*
X712478Y175075D01*
X712303Y175145D01*
X712117Y175203D01*
X711942Y175238D01*
X711791Y175262D01*
X711662Y175273D01*
X711546D01*
X711301Y175262D01*
X711091Y175227D01*
X710916Y175180D01*
X710776Y175133D01*
X710660Y175087D01*
X710578Y175040D01*
X710531Y175005D01*
X710520Y174993D01*
X710403Y174877D01*
X710298Y174737D01*
X710216Y174597D01*
X710158Y174445D01*
X710111Y174317D01*
X710088Y174212D01*
X710065Y174131D01*
Y174119D01*
Y174107D01*
X708432Y174166D01*
X708444Y174375D01*
X708479Y174562D01*
X708526Y174749D01*
X708584Y174912D01*
X708642Y175075D01*
X708712Y175227D01*
X708782Y175355D01*
X708852Y175483D01*
X708934Y175588D01*
X709004Y175681D01*
X709074Y175763D01*
X709132Y175833D01*
X709179Y175880D01*
X709214Y175915D01*
X709237Y175938D01*
X709249Y175950D01*
X709400Y176066D01*
X709563Y176171D01*
X709738Y176264D01*
X709925Y176346D01*
X710111Y176404D01*
X710298Y176463D01*
X710671Y176544D01*
X710846Y176567D01*
X710998Y176591D01*
X711149Y176602D01*
X711277Y176614D01*
X711382Y176626D01*
X711522D01*
X711860Y176614D01*
D02*
G37*
G36*
X651030Y174375D02*
X651147Y174364D01*
X651263Y174329D01*
X651357Y174294D01*
X651438Y174259D01*
X651508Y174235D01*
X651543Y174212D01*
X651555Y174200D01*
X651672Y174119D01*
X651777Y174002D01*
X651893Y173874D01*
X651986Y173746D01*
X652080Y173617D01*
X652150Y173513D01*
X652196Y173443D01*
X652208Y173431D01*
Y174259D01*
X653642D01*
Y168405D01*
X652091D01*
Y170201D01*
Y170469D01*
Y170714D01*
X652080Y170936D01*
X652068Y171134D01*
Y171320D01*
X652056Y171472D01*
X652045Y171624D01*
X652033Y171740D01*
X652021Y171845D01*
X652010Y171939D01*
X651998Y172008D01*
Y172067D01*
X651986Y172102D01*
X651975Y172137D01*
Y172160D01*
X651928Y172323D01*
X651870Y172463D01*
X651811Y172580D01*
X651753Y172661D01*
X651707Y172731D01*
X651660Y172778D01*
X651637Y172801D01*
X651625Y172813D01*
X651532Y172871D01*
X651438Y172918D01*
X651345Y172953D01*
X651263Y172976D01*
X651194Y172988D01*
X651124Y173000D01*
X651077D01*
X650949Y172988D01*
X650820Y172965D01*
X650704Y172918D01*
X650587Y172871D01*
X650494Y172825D01*
X650424Y172778D01*
X650366Y172755D01*
X650354Y172743D01*
X649864Y174084D01*
X650051Y174189D01*
X650226Y174259D01*
X650401Y174317D01*
X650564Y174352D01*
X650692Y174375D01*
X650797Y174387D01*
X650890D01*
X651030Y174375D01*
D02*
G37*
G36*
X692971Y175425D02*
Y174259D01*
X693682D01*
Y173023D01*
X692971D01*
Y170469D01*
Y170318D01*
Y170189D01*
Y170061D01*
X692960Y169956D01*
Y169770D01*
X692948Y169618D01*
X692936Y169501D01*
Y169432D01*
X692925Y169385D01*
Y169373D01*
X692901Y169245D01*
X692866Y169128D01*
X692831Y169024D01*
X692796Y168942D01*
X692761Y168872D01*
X692738Y168825D01*
X692726Y168790D01*
X692715Y168779D01*
X692645Y168697D01*
X692563Y168627D01*
X692400Y168510D01*
X692330Y168475D01*
X692272Y168440D01*
X692225Y168429D01*
X692213Y168417D01*
X692085Y168370D01*
X691957Y168335D01*
X691829Y168312D01*
X691712Y168301D01*
X691607Y168289D01*
X691525Y168277D01*
X691455D01*
X691211Y168289D01*
X690977Y168312D01*
X690767Y168347D01*
X690593Y168394D01*
X690441Y168429D01*
X690324Y168464D01*
X690254Y168487D01*
X690243Y168499D01*
X690231D01*
X690371Y169700D01*
X690511Y169653D01*
X690639Y169618D01*
X690744Y169595D01*
X690837Y169583D01*
X690907Y169571D01*
X690954Y169560D01*
X691001D01*
X691106Y169571D01*
X691187Y169595D01*
X691234Y169618D01*
X691257Y169630D01*
X691327Y169700D01*
X691362Y169758D01*
X691386Y169805D01*
X691397Y169828D01*
Y169851D01*
X691409Y169898D01*
Y170003D01*
Y170143D01*
X691421Y170283D01*
Y170423D01*
Y170539D01*
Y170586D01*
Y170621D01*
Y170644D01*
Y170656D01*
Y173023D01*
X690359D01*
Y174259D01*
X691421D01*
Y176334D01*
X692971Y175425D01*
D02*
G37*
G36*
X658528Y176614D02*
X658831Y176579D01*
X659099Y176521D01*
X659367Y176451D01*
X659600Y176369D01*
X659833Y176276D01*
X660032Y176171D01*
X660218Y176066D01*
X660393Y175961D01*
X660533Y175856D01*
X660661Y175763D01*
X660766Y175681D01*
X660848Y175611D01*
X660906Y175553D01*
X660941Y175518D01*
X660953Y175506D01*
X661139Y175285D01*
X661291Y175052D01*
X661431Y174807D01*
X661548Y174550D01*
X661653Y174282D01*
X661734Y174026D01*
X661804Y173769D01*
X661862Y173524D01*
X661909Y173279D01*
X661932Y173070D01*
X661956Y172871D01*
X661979Y172708D01*
Y172568D01*
X661991Y172463D01*
Y172393D01*
Y172382D01*
Y172370D01*
X661979Y172020D01*
X661944Y171694D01*
X661897Y171379D01*
X661827Y171099D01*
X661757Y170831D01*
X661664Y170574D01*
X661571Y170353D01*
X661478Y170155D01*
X661384Y169968D01*
X661291Y169805D01*
X661198Y169676D01*
X661128Y169560D01*
X661058Y169478D01*
X661011Y169408D01*
X660976Y169373D01*
X660964Y169362D01*
X660766Y169163D01*
X660556Y169000D01*
X660335Y168849D01*
X660113Y168732D01*
X659892Y168627D01*
X659670Y168534D01*
X659460Y168464D01*
X659262Y168405D01*
X659064Y168359D01*
X658889Y168324D01*
X658726Y168301D01*
X658598Y168289D01*
X658481Y168277D01*
X658399Y168266D01*
X658329D01*
X658084Y168277D01*
X657863Y168289D01*
X657641Y168324D01*
X657443Y168370D01*
X657257Y168417D01*
X657082Y168464D01*
X656918Y168522D01*
X656767Y168592D01*
X656639Y168650D01*
X656522Y168709D01*
X656417Y168755D01*
X656335Y168802D01*
X656266Y168849D01*
X656219Y168884D01*
X656196Y168895D01*
X656184Y168907D01*
X656032Y169035D01*
X655892Y169175D01*
X655636Y169490D01*
X655426Y169816D01*
X655263Y170131D01*
X655193Y170283D01*
X655134Y170423D01*
X655088Y170551D01*
X655041Y170656D01*
X655006Y170749D01*
X654983Y170819D01*
X654971Y170866D01*
Y170877D01*
X656557Y171367D01*
X656650Y171052D01*
X656755Y170784D01*
X656860Y170563D01*
X656977Y170376D01*
X657070Y170236D01*
X657152Y170143D01*
X657210Y170085D01*
X657233Y170061D01*
X657420Y169921D01*
X657607Y169828D01*
X657793Y169758D01*
X657956Y169700D01*
X658108Y169676D01*
X658236Y169665D01*
X658283Y169653D01*
X658341D01*
X658504Y169665D01*
X658656Y169676D01*
X658936Y169758D01*
X659181Y169851D01*
X659379Y169980D01*
X659542Y170096D01*
X659659Y170189D01*
X659705Y170236D01*
X659740Y170271D01*
X659752Y170283D01*
X659764Y170294D01*
X659857Y170423D01*
X659938Y170574D01*
X660020Y170738D01*
X660078Y170912D01*
X660172Y171274D01*
X660242Y171635D01*
X660265Y171810D01*
X660277Y171962D01*
X660300Y172113D01*
Y172242D01*
X660312Y172335D01*
Y172417D01*
Y172475D01*
Y172486D01*
X660300Y172755D01*
X660288Y173000D01*
X660265Y173221D01*
X660230Y173431D01*
X660183Y173617D01*
X660137Y173792D01*
X660090Y173944D01*
X660032Y174084D01*
X659985Y174200D01*
X659938Y174305D01*
X659892Y174387D01*
X659845Y174457D01*
X659810Y174515D01*
X659787Y174550D01*
X659764Y174574D01*
Y174585D01*
X659659Y174702D01*
X659542Y174807D01*
X659425Y174889D01*
X659297Y174958D01*
X659052Y175075D01*
X658819Y175157D01*
X658621Y175203D01*
X658528Y175215D01*
X658458Y175227D01*
X658388Y175238D01*
X658306D01*
X658073Y175227D01*
X657863Y175180D01*
X657676Y175122D01*
X657513Y175052D01*
X657385Y174982D01*
X657292Y174924D01*
X657233Y174877D01*
X657210Y174865D01*
X657058Y174725D01*
X656918Y174562D01*
X656814Y174399D01*
X656732Y174235D01*
X656674Y174096D01*
X656639Y173991D01*
X656615Y173944D01*
Y173909D01*
X656604Y173897D01*
Y173886D01*
X654995Y174270D01*
X655111Y174609D01*
X655239Y174900D01*
X655379Y175157D01*
X655508Y175366D01*
X655636Y175530D01*
X655683Y175600D01*
X655729Y175658D01*
X655764Y175693D01*
X655799Y175728D01*
X655811Y175751D01*
X655823D01*
X655997Y175903D01*
X656196Y176043D01*
X656382Y176159D01*
X656580Y176253D01*
X656790Y176346D01*
X656988Y176416D01*
X657187Y176474D01*
X657373Y176521D01*
X657548Y176556D01*
X657711Y176579D01*
X657851Y176602D01*
X657980Y176614D01*
X658084Y176626D01*
X658224D01*
X658528Y176614D01*
D02*
G37*
G36*
X689310Y168405D02*
X687759D01*
Y171332D01*
X687748Y171589D01*
X687736Y171810D01*
X687713Y172008D01*
X687689Y172160D01*
X687666Y172288D01*
X687643Y172370D01*
X687619Y172428D01*
Y172440D01*
X687561Y172568D01*
X687491Y172685D01*
X687421Y172778D01*
X687339Y172860D01*
X687281Y172918D01*
X687223Y172965D01*
X687188Y172988D01*
X687176Y173000D01*
X687060Y173070D01*
X686943Y173116D01*
X686826Y173151D01*
X686722Y173175D01*
X686628Y173186D01*
X686558Y173198D01*
X686488D01*
X686372Y173186D01*
X686255Y173175D01*
X686162Y173151D01*
X686080Y173128D01*
X686022Y173093D01*
X685964Y173070D01*
X685940Y173058D01*
X685929Y173046D01*
X685847Y172988D01*
X685789Y172918D01*
X685684Y172790D01*
X685660Y172731D01*
X685637Y172696D01*
X685614Y172661D01*
Y172650D01*
X685602Y172591D01*
X685579Y172533D01*
X685556Y172370D01*
X685544Y172172D01*
X685532Y171974D01*
X685521Y171787D01*
Y171705D01*
Y171635D01*
Y171565D01*
Y171519D01*
Y171495D01*
Y171484D01*
Y168405D01*
X683970D01*
Y171834D01*
Y172113D01*
X683981Y172347D01*
X683993Y172545D01*
X684005Y172708D01*
X684028Y172825D01*
X684040Y172918D01*
X684051Y172976D01*
Y172988D01*
X684086Y173128D01*
X684133Y173256D01*
X684180Y173373D01*
X684238Y173478D01*
X684284Y173559D01*
X684319Y173617D01*
X684343Y173664D01*
X684354Y173676D01*
X684448Y173781D01*
X684553Y173886D01*
X684658Y173967D01*
X684763Y174037D01*
X684856Y174096D01*
X684937Y174142D01*
X684984Y174166D01*
X685007Y174177D01*
X685171Y174247D01*
X685346Y174294D01*
X685497Y174340D01*
X685649Y174364D01*
X685777Y174375D01*
X685882Y174387D01*
X685975D01*
X686162Y174375D01*
X686348Y174352D01*
X686523Y174305D01*
X686687Y174247D01*
X686990Y174107D01*
X687130Y174026D01*
X687258Y173944D01*
X687363Y173851D01*
X687468Y173769D01*
X687549Y173699D01*
X687631Y173629D01*
X687678Y173571D01*
X687724Y173524D01*
X687748Y173501D01*
X687759Y173489D01*
Y176474D01*
X689310D01*
Y168405D01*
D02*
G37*
G36*
X699967Y170551D02*
X699956Y170259D01*
X699932Y170003D01*
X699897Y169781D01*
X699862Y169595D01*
X699827Y169443D01*
X699792Y169338D01*
X699769Y169280D01*
X699757Y169257D01*
X699664Y169094D01*
X699559Y168942D01*
X699454Y168825D01*
X699338Y168720D01*
X699244Y168639D01*
X699151Y168580D01*
X699104Y168545D01*
X699081Y168534D01*
X698906Y168452D01*
X698720Y168382D01*
X698545Y168335D01*
X698370Y168312D01*
X698230Y168289D01*
X698125Y168277D01*
X698020D01*
X697810Y168289D01*
X697612Y168312D01*
X697425Y168359D01*
X697262Y168405D01*
X697122Y168452D01*
X697017Y168499D01*
X696947Y168522D01*
X696924Y168534D01*
X696737Y168639D01*
X696574Y168767D01*
X696423Y168884D01*
X696306Y169012D01*
X696201Y169117D01*
X696131Y169198D01*
X696084Y169257D01*
X696073Y169280D01*
Y168405D01*
X694639D01*
Y174259D01*
X696189D01*
Y171787D01*
Y171565D01*
Y171367D01*
X696201Y171181D01*
X696213Y171017D01*
Y170866D01*
X696224Y170738D01*
X696236Y170633D01*
X696248Y170528D01*
X696259Y170446D01*
X696271Y170388D01*
X696283Y170329D01*
Y170283D01*
X696306Y170224D01*
Y170213D01*
X696353Y170096D01*
X696423Y169991D01*
X696493Y169910D01*
X696562Y169828D01*
X696632Y169758D01*
X696691Y169711D01*
X696726Y169688D01*
X696737Y169676D01*
X696854Y169606D01*
X696982Y169560D01*
X697099Y169513D01*
X697216Y169490D01*
X697309Y169478D01*
X697379Y169467D01*
X697449D01*
X697577Y169478D01*
X697682Y169490D01*
X697787Y169513D01*
X697868Y169548D01*
X697938Y169571D01*
X697985Y169595D01*
X698020Y169606D01*
X698032Y169618D01*
X698113Y169688D01*
X698172Y169758D01*
X698230Y169828D01*
X698265Y169898D01*
X698300Y169968D01*
X698323Y170015D01*
X698335Y170050D01*
Y170061D01*
X698347Y170120D01*
X698358Y170201D01*
X698370Y170306D01*
X698382Y170411D01*
X698393Y170656D01*
X698405Y170924D01*
X698417Y171169D01*
Y171274D01*
Y171367D01*
Y171449D01*
Y171507D01*
Y171554D01*
Y171565D01*
Y174259D01*
X699967D01*
Y170551D01*
D02*
G37*
G36*
X668613Y174375D02*
X668823Y174340D01*
X669010Y174294D01*
X669197Y174235D01*
X669371Y174154D01*
X669523Y174072D01*
X669675Y173979D01*
X669803Y173897D01*
X669919Y173804D01*
X670024Y173711D01*
X670118Y173629D01*
X670188Y173548D01*
X670246Y173489D01*
X670293Y173443D01*
X670316Y173408D01*
X670328Y173396D01*
Y174259D01*
X671762D01*
Y168405D01*
X670211D01*
Y171041D01*
Y171216D01*
Y171379D01*
X670199Y171530D01*
X670188Y171659D01*
Y171787D01*
X670176Y171892D01*
X670164Y171997D01*
X670153Y172078D01*
X670129Y172218D01*
X670118Y172312D01*
X670094Y172370D01*
Y172382D01*
X670048Y172510D01*
X669978Y172638D01*
X669908Y172731D01*
X669838Y172825D01*
X669768Y172883D01*
X669709Y172941D01*
X669675Y172965D01*
X669663Y172976D01*
X669535Y173046D01*
X669406Y173105D01*
X669290Y173140D01*
X669173Y173175D01*
X669080Y173186D01*
X669010Y173198D01*
X668940D01*
X668823Y173186D01*
X668718Y173175D01*
X668637Y173151D01*
X668555Y173116D01*
X668485Y173081D01*
X668439Y173058D01*
X668415Y173046D01*
X668404Y173035D01*
X668322Y172976D01*
X668264Y172906D01*
X668159Y172766D01*
X668124Y172696D01*
X668101Y172650D01*
X668077Y172615D01*
Y172603D01*
X668054Y172545D01*
X668042Y172475D01*
X668019Y172300D01*
X667996Y172090D01*
X667984Y171892D01*
X667972Y171694D01*
Y171612D01*
Y171530D01*
Y171472D01*
Y171425D01*
Y171390D01*
Y171379D01*
Y168405D01*
X666421D01*
Y172032D01*
Y172277D01*
X666433Y172475D01*
X666445Y172661D01*
X666468Y172801D01*
X666480Y172918D01*
X666503Y173000D01*
X666515Y173058D01*
Y173070D01*
X666550Y173209D01*
X666596Y173326D01*
X666643Y173443D01*
X666701Y173536D01*
X666748Y173617D01*
X666783Y173676D01*
X666806Y173711D01*
X666818Y173723D01*
X666911Y173827D01*
X667016Y173921D01*
X667121Y174002D01*
X667226Y174072D01*
X667319Y174131D01*
X667401Y174166D01*
X667448Y174189D01*
X667471Y174200D01*
X667634Y174259D01*
X667797Y174305D01*
X667949Y174340D01*
X668089Y174364D01*
X668217Y174375D01*
X668322Y174387D01*
X668404D01*
X668613Y174375D01*
D02*
G37*
G36*
X673581D02*
X673697Y174364D01*
X673814Y174329D01*
X673907Y174294D01*
X673989Y174259D01*
X674059Y174235D01*
X674094Y174212D01*
X674105Y174200D01*
X674222Y174119D01*
X674327Y174002D01*
X674443Y173874D01*
X674537Y173746D01*
X674630Y173617D01*
X674700Y173513D01*
X674747Y173443D01*
X674758Y173431D01*
Y174259D01*
X676193D01*
Y168405D01*
X674642D01*
Y170201D01*
Y170469D01*
Y170714D01*
X674630Y170936D01*
X674618Y171134D01*
Y171320D01*
X674607Y171472D01*
X674595Y171624D01*
X674583Y171740D01*
X674572Y171845D01*
X674560Y171939D01*
X674548Y172008D01*
Y172067D01*
X674537Y172102D01*
X674525Y172137D01*
Y172160D01*
X674478Y172323D01*
X674420Y172463D01*
X674362Y172580D01*
X674304Y172661D01*
X674257Y172731D01*
X674210Y172778D01*
X674187Y172801D01*
X674175Y172813D01*
X674082Y172871D01*
X673989Y172918D01*
X673896Y172953D01*
X673814Y172976D01*
X673744Y172988D01*
X673674Y173000D01*
X673627D01*
X673499Y172988D01*
X673371Y172965D01*
X673254Y172918D01*
X673138Y172871D01*
X673044Y172825D01*
X672974Y172778D01*
X672916Y172755D01*
X672904Y172743D01*
X672415Y174084D01*
X672601Y174189D01*
X672776Y174259D01*
X672951Y174317D01*
X673114Y174352D01*
X673243Y174375D01*
X673348Y174387D01*
X673441D01*
X673581Y174375D01*
D02*
G37*
G36*
X680390D02*
X680588Y174352D01*
X680787Y174305D01*
X680961Y174259D01*
X681136Y174200D01*
X681288Y174131D01*
X681439Y174049D01*
X681568Y173979D01*
X681684Y173897D01*
X681789Y173816D01*
X681883Y173746D01*
X681952Y173688D01*
X682011Y173641D01*
X682058Y173594D01*
X682081Y173571D01*
X682093Y173559D01*
X682221Y173396D01*
X682337Y173221D01*
X682442Y173046D01*
X682536Y172860D01*
X682606Y172661D01*
X682664Y172475D01*
X682757Y172113D01*
X682792Y171939D01*
X682815Y171787D01*
X682827Y171647D01*
X682839Y171530D01*
X682850Y171425D01*
Y171344D01*
Y171297D01*
Y171285D01*
X682839Y171064D01*
X682827Y170843D01*
X682792Y170644D01*
X682757Y170458D01*
X682722Y170271D01*
X682664Y170108D01*
X682617Y169956D01*
X682559Y169816D01*
X682512Y169688D01*
X682454Y169583D01*
X682407Y169490D01*
X682372Y169408D01*
X682326Y169350D01*
X682302Y169303D01*
X682291Y169280D01*
X682279Y169268D01*
X682127Y169094D01*
X681976Y168942D01*
X681801Y168814D01*
X681614Y168697D01*
X681428Y168604D01*
X681241Y168522D01*
X681055Y168452D01*
X680868Y168405D01*
X680705Y168359D01*
X680542Y168335D01*
X680390Y168312D01*
X680262Y168289D01*
X680157D01*
X680087Y168277D01*
X680017D01*
X679679Y168301D01*
X679364Y168347D01*
X679096Y168417D01*
X678863Y168499D01*
X678758Y168545D01*
X678676Y168580D01*
X678594Y168615D01*
X678536Y168650D01*
X678489Y168685D01*
X678443Y168697D01*
X678431Y168720D01*
X678420D01*
X678198Y168907D01*
X678000Y169105D01*
X677837Y169327D01*
X677708Y169536D01*
X677603Y169723D01*
X677568Y169805D01*
X677533Y169875D01*
X677510Y169933D01*
X677487Y169980D01*
X677475Y170003D01*
Y170015D01*
X679014Y170271D01*
X679073Y170120D01*
X679131Y169980D01*
X679189Y169875D01*
X679259Y169781D01*
X679306Y169711D01*
X679352Y169665D01*
X679387Y169641D01*
X679399Y169630D01*
X679492Y169560D01*
X679597Y169513D01*
X679702Y169478D01*
X679795Y169455D01*
X679877Y169443D01*
X679947Y169432D01*
X680005D01*
X680192Y169443D01*
X680367Y169490D01*
X680530Y169548D01*
X680658Y169618D01*
X680763Y169688D01*
X680833Y169746D01*
X680892Y169793D01*
X680903Y169805D01*
X681020Y169956D01*
X681101Y170131D01*
X681171Y170318D01*
X681218Y170481D01*
X681241Y170644D01*
X681253Y170761D01*
X681265Y170808D01*
Y170843D01*
Y170866D01*
Y170877D01*
X677393D01*
Y171204D01*
X677417Y171495D01*
X677452Y171775D01*
X677498Y172032D01*
X677557Y172277D01*
X677615Y172486D01*
X677685Y172685D01*
X677755Y172860D01*
X677825Y173011D01*
X677895Y173151D01*
X677953Y173256D01*
X678012Y173349D01*
X678058Y173419D01*
X678093Y173478D01*
X678116Y173501D01*
X678128Y173513D01*
X678268Y173664D01*
X678431Y173804D01*
X678594Y173921D01*
X678758Y174014D01*
X678933Y174107D01*
X679108Y174177D01*
X679271Y174235D01*
X679434Y174282D01*
X679586Y174317D01*
X679726Y174340D01*
X679854Y174364D01*
X679959Y174375D01*
X680052Y174387D01*
X680180D01*
X680390Y174375D01*
D02*
G37*
G36*
X674597Y161357D02*
X672183D01*
Y162587D01*
X674597D01*
Y161357D01*
D02*
G37*
G36*
X639090Y151181D02*
X637897D01*
Y156213D01*
X636639Y151181D01*
X635391D01*
X634132Y156213D01*
X634123Y151181D01*
X632930D01*
Y157582D01*
X634872D01*
X636010Y153207D01*
X637157Y157582D01*
X639090D01*
Y151181D01*
D02*
G37*
G36*
X642490Y159646D02*
X641093D01*
X638818Y166047D01*
X640196D01*
X641759Y161311D01*
X643388Y166047D01*
X644784D01*
X642490Y159646D01*
D02*
G37*
G36*
X671461D02*
X668686D01*
X668529Y159655D01*
X668252D01*
X668141Y159664D01*
X667965D01*
X667900Y159673D01*
X667807D01*
X667770Y159683D01*
X667733D01*
X667549Y159710D01*
X667382Y159757D01*
X667234Y159803D01*
X667104Y159858D01*
X667003Y159905D01*
X666929Y159951D01*
X666883Y159979D01*
X666864Y159988D01*
X666735Y160090D01*
X666633Y160201D01*
X666531Y160302D01*
X666457Y160413D01*
X666392Y160506D01*
X666346Y160580D01*
X666318Y160626D01*
X666309Y160645D01*
X666244Y160802D01*
X666189Y160950D01*
X666152Y161098D01*
X666133Y161227D01*
X666115Y161338D01*
X666106Y161422D01*
Y161477D01*
Y161486D01*
Y161496D01*
X666115Y161699D01*
X666152Y161884D01*
X666207Y162041D01*
X666263Y162189D01*
X666318Y162300D01*
X666374Y162384D01*
X666411Y162439D01*
X666420Y162458D01*
X666549Y162606D01*
X666688Y162726D01*
X666846Y162828D01*
X666984Y162902D01*
X667114Y162966D01*
X667225Y163013D01*
X667262Y163022D01*
X667289Y163031D01*
X667308Y163040D01*
X667317D01*
X667169Y163124D01*
X667040Y163207D01*
X666929Y163309D01*
X666836Y163392D01*
X666772Y163475D01*
X666716Y163540D01*
X666679Y163586D01*
X666670Y163605D01*
X666586Y163753D01*
X666522Y163891D01*
X666485Y164030D01*
X666448Y164160D01*
X666429Y164271D01*
X666420Y164354D01*
Y164409D01*
Y164419D01*
Y164428D01*
X666429Y164576D01*
X666448Y164724D01*
X666485Y164844D01*
X666522Y164955D01*
X666559Y165048D01*
X666596Y165122D01*
X666614Y165159D01*
X666623Y165177D01*
X666698Y165297D01*
X666781Y165399D01*
X666864Y165492D01*
X666938Y165575D01*
X667012Y165630D01*
X667067Y165677D01*
X667104Y165704D01*
X667114Y165714D01*
X667225Y165788D01*
X667345Y165843D01*
X667456Y165889D01*
X667558Y165926D01*
X667650Y165954D01*
X667715Y165973D01*
X667761Y165982D01*
X667780D01*
X667937Y166000D01*
X668113Y166019D01*
X668298Y166028D01*
X668483Y166037D01*
X668649Y166047D01*
X671461D01*
Y159646D01*
D02*
G37*
G36*
X678380Y166158D02*
X678621Y166130D01*
X678833Y166084D01*
X679046Y166028D01*
X679231Y165963D01*
X679416Y165889D01*
X679573Y165806D01*
X679721Y165723D01*
X679860Y165640D01*
X679971Y165556D01*
X680073Y165482D01*
X680156Y165418D01*
X680221Y165362D01*
X680267Y165316D01*
X680295Y165288D01*
X680304Y165279D01*
X680452Y165103D01*
X680573Y164918D01*
X680684Y164724D01*
X680776Y164520D01*
X680859Y164308D01*
X680924Y164104D01*
X680979Y163901D01*
X681026Y163706D01*
X681063Y163512D01*
X681081Y163346D01*
X681100Y163188D01*
X681118Y163059D01*
Y162948D01*
X681128Y162865D01*
Y162809D01*
Y162800D01*
Y162791D01*
X681118Y162513D01*
X681090Y162254D01*
X681053Y162004D01*
X680998Y161782D01*
X680942Y161570D01*
X680868Y161366D01*
X680794Y161190D01*
X680721Y161033D01*
X680647Y160885D01*
X680573Y160756D01*
X680499Y160654D01*
X680443Y160561D01*
X680387Y160497D01*
X680350Y160441D01*
X680323Y160413D01*
X680313Y160404D01*
X680156Y160247D01*
X679990Y160117D01*
X679814Y159997D01*
X679638Y159905D01*
X679462Y159821D01*
X679287Y159747D01*
X679120Y159692D01*
X678963Y159646D01*
X678806Y159609D01*
X678667Y159581D01*
X678538Y159562D01*
X678436Y159553D01*
X678343Y159544D01*
X678278Y159535D01*
X678223D01*
X678029Y159544D01*
X677853Y159553D01*
X677677Y159581D01*
X677520Y159618D01*
X677372Y159655D01*
X677233Y159692D01*
X677104Y159738D01*
X676983Y159794D01*
X676882Y159840D01*
X676789Y159886D01*
X676706Y159923D01*
X676641Y159960D01*
X676586Y159997D01*
X676549Y160025D01*
X676530Y160034D01*
X676521Y160043D01*
X676401Y160145D01*
X676290Y160256D01*
X676086Y160506D01*
X675920Y160765D01*
X675790Y161015D01*
X675735Y161135D01*
X675689Y161246D01*
X675652Y161348D01*
X675615Y161431D01*
X675587Y161505D01*
X675568Y161560D01*
X675559Y161597D01*
Y161607D01*
X676817Y161995D01*
X676891Y161745D01*
X676974Y161533D01*
X677058Y161357D01*
X677150Y161209D01*
X677224Y161098D01*
X677289Y161024D01*
X677335Y160978D01*
X677353Y160959D01*
X677501Y160848D01*
X677649Y160774D01*
X677798Y160719D01*
X677927Y160672D01*
X678047Y160654D01*
X678149Y160645D01*
X678186Y160635D01*
X678232D01*
X678362Y160645D01*
X678482Y160654D01*
X678704Y160719D01*
X678898Y160793D01*
X679056Y160894D01*
X679185Y160987D01*
X679278Y161061D01*
X679315Y161098D01*
X679342Y161126D01*
X679352Y161135D01*
X679361Y161144D01*
X679435Y161246D01*
X679499Y161366D01*
X679564Y161496D01*
X679610Y161634D01*
X679684Y161921D01*
X679740Y162208D01*
X679759Y162347D01*
X679768Y162467D01*
X679786Y162587D01*
Y162689D01*
X679796Y162763D01*
Y162828D01*
Y162874D01*
Y162883D01*
X679786Y163096D01*
X679777Y163290D01*
X679759Y163466D01*
X679731Y163632D01*
X679694Y163780D01*
X679657Y163919D01*
X679620Y164039D01*
X679573Y164150D01*
X679536Y164243D01*
X679499Y164326D01*
X679462Y164391D01*
X679425Y164446D01*
X679398Y164493D01*
X679379Y164520D01*
X679361Y164539D01*
Y164548D01*
X679278Y164641D01*
X679185Y164724D01*
X679093Y164789D01*
X678991Y164844D01*
X678796Y164937D01*
X678612Y165001D01*
X678454Y165038D01*
X678380Y165048D01*
X678325Y165057D01*
X678269Y165066D01*
X678204D01*
X678020Y165057D01*
X677853Y165020D01*
X677705Y164974D01*
X677575Y164918D01*
X677474Y164863D01*
X677400Y164816D01*
X677353Y164779D01*
X677335Y164770D01*
X677215Y164659D01*
X677104Y164530D01*
X677021Y164400D01*
X676956Y164271D01*
X676909Y164160D01*
X676882Y164076D01*
X676863Y164039D01*
Y164012D01*
X676854Y164002D01*
Y163993D01*
X675577Y164298D01*
X675670Y164567D01*
X675772Y164798D01*
X675883Y165001D01*
X675984Y165168D01*
X676086Y165297D01*
X676123Y165353D01*
X676160Y165399D01*
X676188Y165427D01*
X676216Y165455D01*
X676225Y165473D01*
X676234D01*
X676373Y165593D01*
X676530Y165704D01*
X676678Y165797D01*
X676835Y165871D01*
X677002Y165945D01*
X677159Y166000D01*
X677317Y166047D01*
X677464Y166084D01*
X677603Y166111D01*
X677733Y166130D01*
X677844Y166148D01*
X677946Y166158D01*
X678029Y166167D01*
X678140D01*
X678380Y166158D01*
D02*
G37*
G36*
X670374Y151181D02*
X667599D01*
X667442Y151190D01*
X667164D01*
X667053Y151200D01*
X666878D01*
X666813Y151209D01*
X666720D01*
X666683Y151218D01*
X666646D01*
X666461Y151246D01*
X666295Y151292D01*
X666147Y151338D01*
X666017Y151394D01*
X665915Y151440D01*
X665841Y151486D01*
X665795Y151514D01*
X665777Y151523D01*
X665647Y151625D01*
X665546Y151736D01*
X665444Y151838D01*
X665370Y151949D01*
X665305Y152041D01*
X665259Y152115D01*
X665231Y152162D01*
X665222Y152180D01*
X665157Y152337D01*
X665101Y152485D01*
X665064Y152633D01*
X665046Y152763D01*
X665028Y152874D01*
X665018Y152957D01*
Y153013D01*
Y153022D01*
Y153031D01*
X665028Y153235D01*
X665064Y153420D01*
X665120Y153577D01*
X665175Y153725D01*
X665231Y153836D01*
X665286Y153919D01*
X665323Y153975D01*
X665333Y153993D01*
X665462Y154141D01*
X665601Y154261D01*
X665758Y154363D01*
X665897Y154437D01*
X666026Y154502D01*
X666138Y154548D01*
X666175Y154557D01*
X666202Y154567D01*
X666221Y154576D01*
X666230D01*
X666082Y154659D01*
X665952Y154742D01*
X665841Y154844D01*
X665749Y154927D01*
X665684Y155011D01*
X665629Y155075D01*
X665592Y155122D01*
X665583Y155140D01*
X665499Y155288D01*
X665435Y155427D01*
X665398Y155566D01*
X665360Y155695D01*
X665342Y155806D01*
X665333Y155889D01*
Y155945D01*
Y155954D01*
Y155963D01*
X665342Y156111D01*
X665360Y156259D01*
X665398Y156380D01*
X665435Y156491D01*
X665472Y156583D01*
X665509Y156657D01*
X665527Y156694D01*
X665536Y156713D01*
X665610Y156833D01*
X665694Y156935D01*
X665777Y157027D01*
X665851Y157110D01*
X665925Y157166D01*
X665980Y157212D01*
X666017Y157240D01*
X666026Y157249D01*
X666138Y157323D01*
X666258Y157379D01*
X666369Y157425D01*
X666470Y157462D01*
X666563Y157490D01*
X666628Y157508D01*
X666674Y157517D01*
X666692D01*
X666850Y157536D01*
X667026Y157554D01*
X667210Y157564D01*
X667395Y157573D01*
X667562Y157582D01*
X670374D01*
Y151181D01*
D02*
G37*
G36*
X661374Y157693D02*
X661642Y157665D01*
X661873Y157619D01*
X662077Y157573D01*
X662160Y157545D01*
X662243Y157527D01*
X662308Y157508D01*
X662363Y157480D01*
X662410Y157471D01*
X662447Y157453D01*
X662465Y157443D01*
X662474D01*
X662641Y157369D01*
X662798Y157277D01*
X662937Y157175D01*
X663057Y157083D01*
X663159Y156999D01*
X663242Y156925D01*
X663288Y156879D01*
X663298Y156870D01*
X663307Y156861D01*
X663437Y156713D01*
X663557Y156555D01*
X663659Y156417D01*
X663742Y156278D01*
X663806Y156158D01*
X663862Y156065D01*
X663871Y156028D01*
X663890Y156000D01*
X663899Y155991D01*
Y155982D01*
X663991Y155723D01*
X664066Y155445D01*
X664112Y155168D01*
X664149Y154909D01*
X664158Y154789D01*
X664167Y154678D01*
X664177Y154585D01*
Y154502D01*
X664186Y154428D01*
Y154382D01*
Y154345D01*
Y154335D01*
X664177Y154058D01*
X664149Y153790D01*
X664112Y153540D01*
X664056Y153309D01*
X663991Y153096D01*
X663917Y152902D01*
X663843Y152717D01*
X663760Y152559D01*
X663686Y152411D01*
X663612Y152291D01*
X663538Y152180D01*
X663474Y152088D01*
X663418Y152023D01*
X663381Y151967D01*
X663353Y151940D01*
X663344Y151930D01*
X663177Y151773D01*
X663002Y151644D01*
X662826Y151523D01*
X662632Y151431D01*
X662447Y151348D01*
X662253Y151274D01*
X662077Y151218D01*
X661892Y151172D01*
X661725Y151135D01*
X661568Y151107D01*
X661429Y151089D01*
X661309Y151079D01*
X661216Y151070D01*
X661142Y151061D01*
X661078D01*
X660819Y151070D01*
X660578Y151098D01*
X660347Y151144D01*
X660134Y151200D01*
X659931Y151264D01*
X659746Y151338D01*
X659579Y151412D01*
X659422Y151496D01*
X659293Y151579D01*
X659172Y151653D01*
X659070Y151727D01*
X658987Y151792D01*
X658913Y151847D01*
X658867Y151893D01*
X658839Y151921D01*
X658830Y151930D01*
X658682Y152106D01*
X658553Y152291D01*
X658432Y152485D01*
X658340Y152680D01*
X658256Y152883D01*
X658182Y153087D01*
X658127Y153290D01*
X658081Y153484D01*
X658053Y153660D01*
X658025Y153836D01*
X658007Y153984D01*
X657988Y154113D01*
Y154224D01*
X657979Y154308D01*
Y154354D01*
Y154372D01*
X657988Y154659D01*
X658016Y154927D01*
X658053Y155177D01*
X658109Y155418D01*
X658173Y155630D01*
X658247Y155834D01*
X658321Y156019D01*
X658404Y156176D01*
X658488Y156324D01*
X658562Y156454D01*
X658636Y156565D01*
X658701Y156657D01*
X658747Y156722D01*
X658793Y156777D01*
X658821Y156805D01*
X658830Y156814D01*
X658996Y156972D01*
X659172Y157110D01*
X659357Y157231D01*
X659542Y157332D01*
X659736Y157416D01*
X659922Y157490D01*
X660107Y157545D01*
X660282Y157591D01*
X660449Y157628D01*
X660606Y157656D01*
X660745Y157675D01*
X660865Y157693D01*
X660957D01*
X661031Y157702D01*
X661096D01*
X661374Y157693D01*
D02*
G37*
G36*
X651948Y156500D02*
X650052D01*
Y151181D01*
X648757D01*
Y156500D01*
X646870D01*
Y157582D01*
X651948D01*
Y156500D01*
D02*
G37*
G36*
X643484Y157693D02*
X643752Y157665D01*
X643984Y157619D01*
X644187Y157573D01*
X644271Y157545D01*
X644354Y157527D01*
X644418Y157508D01*
X644474Y157480D01*
X644520Y157471D01*
X644557Y157453D01*
X644576Y157443D01*
X644585D01*
X644752Y157369D01*
X644909Y157277D01*
X645048Y157175D01*
X645168Y157083D01*
X645269Y156999D01*
X645353Y156925D01*
X645399Y156879D01*
X645408Y156870D01*
X645417Y156861D01*
X645547Y156713D01*
X645667Y156555D01*
X645769Y156417D01*
X645852Y156278D01*
X645917Y156158D01*
X645972Y156065D01*
X645982Y156028D01*
X646000Y156000D01*
X646009Y155991D01*
Y155982D01*
X646102Y155723D01*
X646176Y155445D01*
X646222Y155168D01*
X646259Y154909D01*
X646269Y154789D01*
X646278Y154678D01*
X646287Y154585D01*
Y154502D01*
X646296Y154428D01*
Y154382D01*
Y154345D01*
Y154335D01*
X646287Y154058D01*
X646259Y153790D01*
X646222Y153540D01*
X646167Y153309D01*
X646102Y153096D01*
X646028Y152902D01*
X645954Y152717D01*
X645871Y152559D01*
X645797Y152411D01*
X645723Y152291D01*
X645649Y152180D01*
X645584Y152088D01*
X645529Y152023D01*
X645492Y151967D01*
X645464Y151940D01*
X645455Y151930D01*
X645288Y151773D01*
X645112Y151644D01*
X644937Y151523D01*
X644742Y151431D01*
X644557Y151348D01*
X644363Y151274D01*
X644187Y151218D01*
X644002Y151172D01*
X643836Y151135D01*
X643679Y151107D01*
X643540Y151089D01*
X643420Y151079D01*
X643327Y151070D01*
X643253Y151061D01*
X643188D01*
X642929Y151070D01*
X642689Y151098D01*
X642457Y151144D01*
X642245Y151200D01*
X642041Y151264D01*
X641856Y151338D01*
X641690Y151412D01*
X641533Y151496D01*
X641403Y151579D01*
X641283Y151653D01*
X641181Y151727D01*
X641098Y151792D01*
X641024Y151847D01*
X640977Y151893D01*
X640950Y151921D01*
X640941Y151930D01*
X640793Y152106D01*
X640663Y152291D01*
X640543Y152485D01*
X640450Y152680D01*
X640367Y152883D01*
X640293Y153087D01*
X640238Y153290D01*
X640191Y153484D01*
X640164Y153660D01*
X640136Y153836D01*
X640117Y153984D01*
X640099Y154113D01*
Y154224D01*
X640090Y154308D01*
Y154354D01*
Y154372D01*
X640099Y154659D01*
X640127Y154927D01*
X640164Y155177D01*
X640219Y155418D01*
X640284Y155630D01*
X640358Y155834D01*
X640432Y156019D01*
X640515Y156176D01*
X640598Y156324D01*
X640672Y156454D01*
X640746Y156565D01*
X640811Y156657D01*
X640857Y156722D01*
X640904Y156777D01*
X640931Y156805D01*
X640941Y156814D01*
X641107Y156972D01*
X641283Y157110D01*
X641468Y157231D01*
X641653Y157332D01*
X641847Y157416D01*
X642032Y157490D01*
X642217Y157545D01*
X642393Y157591D01*
X642559Y157628D01*
X642717Y157656D01*
X642855Y157675D01*
X642976Y157693D01*
X643068D01*
X643142Y157702D01*
X643207D01*
X643484Y157693D01*
D02*
G37*
G36*
X657415Y156500D02*
X655518D01*
Y151181D01*
X654223D01*
Y156500D01*
X652337D01*
Y157582D01*
X657415D01*
Y156500D01*
D02*
G37*
G36*
X633999Y166074D02*
X634147Y166065D01*
X634434Y166019D01*
X634674Y165945D01*
X634785Y165908D01*
X634887Y165862D01*
X634979Y165825D01*
X635053Y165778D01*
X635127Y165741D01*
X635183Y165714D01*
X635229Y165677D01*
X635257Y165658D01*
X635275Y165649D01*
X635285Y165640D01*
X635386Y165547D01*
X635479Y165455D01*
X635562Y165344D01*
X635636Y165223D01*
X635747Y164983D01*
X635840Y164752D01*
X635867Y164631D01*
X635895Y164530D01*
X635923Y164437D01*
X635932Y164354D01*
X635951Y164280D01*
Y164234D01*
X635960Y164197D01*
Y164187D01*
X634739Y164067D01*
X634720Y164252D01*
X634683Y164409D01*
X634646Y164548D01*
X634600Y164650D01*
X634563Y164733D01*
X634526Y164789D01*
X634498Y164826D01*
X634489Y164835D01*
X634397Y164909D01*
X634295Y164964D01*
X634193Y165011D01*
X634091Y165038D01*
X634008Y165057D01*
X633934Y165066D01*
X633869D01*
X633731Y165057D01*
X633610Y165029D01*
X633508Y164992D01*
X633416Y164955D01*
X633351Y164918D01*
X633296Y164881D01*
X633268Y164853D01*
X633259Y164844D01*
X633185Y164752D01*
X633129Y164650D01*
X633092Y164548D01*
X633065Y164446D01*
X633046Y164354D01*
X633037Y164271D01*
Y164224D01*
Y164215D01*
Y164206D01*
X633046Y164067D01*
X633074Y163938D01*
X633120Y163808D01*
X633166Y163697D01*
X633213Y163595D01*
X633259Y163521D01*
X633287Y163475D01*
X633296Y163457D01*
X633333Y163401D01*
X633388Y163336D01*
X633462Y163253D01*
X633536Y163179D01*
X633703Y163003D01*
X633869Y162828D01*
X634036Y162661D01*
X634110Y162587D01*
X634184Y162532D01*
X634239Y162476D01*
X634276Y162439D01*
X634304Y162411D01*
X634313Y162402D01*
X634498Y162226D01*
X634665Y162060D01*
X634822Y161903D01*
X634961Y161764D01*
X635090Y161625D01*
X635201Y161496D01*
X635303Y161385D01*
X635386Y161274D01*
X635460Y161181D01*
X635525Y161098D01*
X635580Y161033D01*
X635617Y160968D01*
X635654Y160931D01*
X635673Y160894D01*
X635691Y160876D01*
Y160867D01*
X635812Y160654D01*
X635904Y160432D01*
X635978Y160228D01*
X636034Y160043D01*
X636071Y159877D01*
X636080Y159812D01*
X636089Y159757D01*
X636098Y159710D01*
X636108Y159673D01*
Y159655D01*
Y159646D01*
X631807D01*
Y160783D01*
X634248D01*
X634174Y160904D01*
X634091Y161005D01*
X634054Y161052D01*
X634026Y161089D01*
X634008Y161107D01*
X633999Y161116D01*
X633962Y161153D01*
X633925Y161200D01*
X633814Y161301D01*
X633694Y161422D01*
X633573Y161542D01*
X633453Y161653D01*
X633351Y161745D01*
X633314Y161782D01*
X633287Y161810D01*
X633268Y161819D01*
X633259Y161829D01*
X633055Y162023D01*
X632889Y162180D01*
X632750Y162328D01*
X632639Y162439D01*
X632556Y162532D01*
X632500Y162596D01*
X632463Y162643D01*
X632454Y162652D01*
X632334Y162809D01*
X632232Y162957D01*
X632149Y163096D01*
X632084Y163216D01*
X632028Y163318D01*
X631991Y163401D01*
X631973Y163447D01*
X631964Y163466D01*
X631908Y163614D01*
X631871Y163762D01*
X631844Y163901D01*
X631825Y164030D01*
X631816Y164132D01*
X631807Y164215D01*
Y164271D01*
Y164289D01*
X631816Y164428D01*
X631834Y164567D01*
X631853Y164696D01*
X631890Y164816D01*
X631982Y165029D01*
X632075Y165214D01*
X632130Y165297D01*
X632176Y165362D01*
X632223Y165427D01*
X632269Y165473D01*
X632306Y165510D01*
X632325Y165547D01*
X632343Y165556D01*
X632352Y165566D01*
X632454Y165658D01*
X632574Y165741D01*
X632685Y165806D01*
X632815Y165862D01*
X633055Y165954D01*
X633296Y166019D01*
X633407Y166037D01*
X633508Y166056D01*
X633601Y166065D01*
X633684Y166074D01*
X633749Y166084D01*
X633842D01*
X633999Y166074D01*
D02*
G37*
G36*
X684252Y424902D02*
X682957D01*
Y431303D01*
X684252D01*
Y424902D01*
D02*
G37*
G36*
X675714Y430220D02*
X673818D01*
Y424902D01*
X672523D01*
Y430220D01*
X670636D01*
Y431303D01*
X675714D01*
Y430220D01*
D02*
G37*
G36*
X681717Y424902D02*
X680524D01*
Y429120D01*
X677925Y424902D01*
X676630D01*
Y431303D01*
X677823D01*
Y426992D01*
X680469Y431303D01*
X681717D01*
Y424902D01*
D02*
G37*
G36*
X681547Y419316D02*
X681668Y419122D01*
X681797Y418936D01*
X681926Y418789D01*
X682037Y418668D01*
X682139Y418576D01*
X682176Y418539D01*
X682204Y418511D01*
X682223Y418502D01*
X682232Y418493D01*
X682435Y418344D01*
X682629Y418215D01*
X682805Y418113D01*
X682963Y418039D01*
X683092Y417984D01*
X683184Y417938D01*
X683221Y417928D01*
X683249Y417919D01*
X683258Y417910D01*
X683268D01*
Y416800D01*
X682935Y416929D01*
X682639Y417068D01*
X682500Y417142D01*
X682371Y417225D01*
X682250Y417299D01*
X682139Y417373D01*
X682037Y417447D01*
X681945Y417512D01*
X681871Y417568D01*
X681806Y417623D01*
X681751Y417669D01*
X681714Y417697D01*
X681695Y417716D01*
X681686Y417725D01*
Y413091D01*
X680456D01*
Y419528D01*
X681455D01*
X681547Y419316D01*
D02*
G37*
G36*
X692281Y419421D02*
X692429Y419412D01*
X692716Y419365D01*
X692956Y419291D01*
X693067Y419254D01*
X693169Y419208D01*
X693261Y419171D01*
X693335Y419125D01*
X693409Y419088D01*
X693465Y419060D01*
X693511Y419023D01*
X693539Y419005D01*
X693557Y418995D01*
X693567Y418986D01*
X693668Y418894D01*
X693761Y418801D01*
X693844Y418690D01*
X693918Y418570D01*
X694029Y418329D01*
X694122Y418098D01*
X694149Y417978D01*
X694177Y417876D01*
X694205Y417784D01*
X694214Y417700D01*
X694233Y417626D01*
Y417580D01*
X694242Y417543D01*
Y417534D01*
X693021Y417414D01*
X693002Y417599D01*
X692965Y417756D01*
X692928Y417895D01*
X692882Y417996D01*
X692845Y418080D01*
X692808Y418135D01*
X692780Y418172D01*
X692771Y418181D01*
X692678Y418255D01*
X692577Y418311D01*
X692475Y418357D01*
X692373Y418385D01*
X692290Y418403D01*
X692216Y418413D01*
X692151D01*
X692013Y418403D01*
X691892Y418376D01*
X691790Y418339D01*
X691698Y418302D01*
X691633Y418265D01*
X691578Y418228D01*
X691550Y418200D01*
X691541Y418191D01*
X691467Y418098D01*
X691411Y417996D01*
X691374Y417895D01*
X691347Y417793D01*
X691328Y417700D01*
X691319Y417617D01*
Y417571D01*
Y417562D01*
Y417552D01*
X691328Y417414D01*
X691356Y417284D01*
X691402Y417155D01*
X691448Y417044D01*
X691495Y416942D01*
X691541Y416868D01*
X691569Y416822D01*
X691578Y416803D01*
X691615Y416748D01*
X691670Y416683D01*
X691744Y416600D01*
X691818Y416526D01*
X691985Y416350D01*
X692151Y416174D01*
X692318Y416008D01*
X692392Y415934D01*
X692466Y415878D01*
X692521Y415823D01*
X692558Y415786D01*
X692586Y415758D01*
X692595Y415749D01*
X692780Y415573D01*
X692947Y415406D01*
X693104Y415249D01*
X693243Y415110D01*
X693372Y414972D01*
X693483Y414842D01*
X693585Y414731D01*
X693668Y414620D01*
X693742Y414528D01*
X693807Y414444D01*
X693862Y414380D01*
X693899Y414315D01*
X693936Y414278D01*
X693955Y414241D01*
X693973Y414222D01*
Y414213D01*
X694094Y414000D01*
X694186Y413778D01*
X694260Y413575D01*
X694316Y413390D01*
X694353Y413223D01*
X694362Y413159D01*
X694371Y413103D01*
X694381Y413057D01*
X694390Y413020D01*
Y413001D01*
Y412992D01*
X690089D01*
Y414130D01*
X692530D01*
X692456Y414250D01*
X692373Y414352D01*
X692336Y414398D01*
X692309Y414435D01*
X692290Y414454D01*
X692281Y414463D01*
X692244Y414500D01*
X692207Y414546D01*
X692096Y414648D01*
X691975Y414768D01*
X691855Y414888D01*
X691735Y414999D01*
X691633Y415092D01*
X691596Y415129D01*
X691569Y415157D01*
X691550Y415166D01*
X691541Y415175D01*
X691337Y415369D01*
X691171Y415527D01*
X691032Y415675D01*
X690921Y415786D01*
X690838Y415878D01*
X690782Y415943D01*
X690745Y415989D01*
X690736Y415998D01*
X690616Y416156D01*
X690514Y416304D01*
X690431Y416442D01*
X690366Y416563D01*
X690310Y416664D01*
X690274Y416748D01*
X690255Y416794D01*
X690246Y416812D01*
X690190Y416960D01*
X690153Y417108D01*
X690126Y417247D01*
X690107Y417377D01*
X690098Y417478D01*
X690089Y417562D01*
Y417617D01*
Y417636D01*
X690098Y417774D01*
X690116Y417913D01*
X690135Y418043D01*
X690172Y418163D01*
X690264Y418376D01*
X690357Y418561D01*
X690412Y418644D01*
X690458Y418709D01*
X690505Y418773D01*
X690551Y418820D01*
X690588Y418857D01*
X690606Y418894D01*
X690625Y418903D01*
X690634Y418912D01*
X690736Y419005D01*
X690856Y419088D01*
X690967Y419153D01*
X691097Y419208D01*
X691337Y419301D01*
X691578Y419365D01*
X691689Y419384D01*
X691790Y419402D01*
X691883Y419412D01*
X691966Y419421D01*
X692031Y419430D01*
X692124D01*
X692281Y419421D01*
D02*
G37*
G36*
X703004Y419316D02*
X703124Y419122D01*
X703254Y418936D01*
X703383Y418789D01*
X703494Y418668D01*
X703596Y418576D01*
X703633Y418539D01*
X703661Y418511D01*
X703679Y418502D01*
X703688Y418493D01*
X703892Y418344D01*
X704086Y418215D01*
X704262Y418113D01*
X704419Y418039D01*
X704549Y417984D01*
X704641Y417938D01*
X704678Y417928D01*
X704706Y417919D01*
X704715Y417910D01*
X704724D01*
Y416800D01*
X704391Y416929D01*
X704095Y417068D01*
X703957Y417142D01*
X703827Y417225D01*
X703707Y417299D01*
X703596Y417373D01*
X703494Y417447D01*
X703402Y417512D01*
X703328Y417568D01*
X703263Y417623D01*
X703207Y417669D01*
X703170Y417697D01*
X703152Y417716D01*
X703143Y417725D01*
Y413091D01*
X701912D01*
Y419528D01*
X702911D01*
X703004Y419316D01*
D02*
G37*
G36*
X656550Y159646D02*
X655255D01*
Y162319D01*
X654839D01*
X654709Y162310D01*
X654599Y162300D01*
X654506Y162282D01*
X654432Y162273D01*
X654386Y162254D01*
X654358Y162245D01*
X654349D01*
X654275Y162208D01*
X654201Y162171D01*
X654136Y162125D01*
X654071Y162088D01*
X654025Y162041D01*
X653988Y162004D01*
X653969Y161986D01*
X653960Y161977D01*
X653923Y161930D01*
X653877Y161884D01*
X653775Y161745D01*
X653664Y161597D01*
X653544Y161431D01*
X653442Y161283D01*
X653396Y161209D01*
X653359Y161153D01*
X653322Y161107D01*
X653294Y161070D01*
X653285Y161042D01*
X653276Y161033D01*
X652351Y159646D01*
X650797D01*
X651583Y160894D01*
X651666Y161024D01*
X651750Y161153D01*
X651824Y161264D01*
X651897Y161366D01*
X651962Y161459D01*
X652018Y161551D01*
X652129Y161690D01*
X652212Y161801D01*
X652268Y161875D01*
X652314Y161921D01*
X652323Y161930D01*
X652425Y162041D01*
X652545Y162143D01*
X652656Y162226D01*
X652767Y162310D01*
X652859Y162374D01*
X652934Y162421D01*
X652989Y162458D01*
X652998Y162467D01*
X653008D01*
X652850Y162495D01*
X652711Y162532D01*
X652582Y162569D01*
X652453Y162615D01*
X652342Y162661D01*
X652240Y162707D01*
X652138Y162754D01*
X652055Y162809D01*
X651981Y162855D01*
X651916Y162902D01*
X651861Y162948D01*
X651824Y162985D01*
X651787Y163013D01*
X651759Y163040D01*
X651750Y163050D01*
X651740Y163059D01*
X651666Y163151D01*
X651602Y163244D01*
X651490Y163447D01*
X651416Y163642D01*
X651370Y163836D01*
X651333Y164002D01*
X651324Y164067D01*
Y164132D01*
X651315Y164178D01*
Y164224D01*
Y164243D01*
Y164252D01*
X651324Y164456D01*
X651361Y164650D01*
X651407Y164816D01*
X651453Y164964D01*
X651509Y165085D01*
X651555Y165177D01*
X651574Y165205D01*
X651592Y165233D01*
X651602Y165242D01*
Y165251D01*
X651713Y165408D01*
X651833Y165538D01*
X651953Y165640D01*
X652073Y165732D01*
X652184Y165788D01*
X652268Y165834D01*
X652323Y165862D01*
X652332Y165871D01*
X652342D01*
X652434Y165899D01*
X652536Y165926D01*
X652767Y165973D01*
X653017Y166000D01*
X653257Y166028D01*
X653377D01*
X653479Y166037D01*
X653581D01*
X653664Y166047D01*
X656550D01*
Y159646D01*
D02*
G37*
G36*
X665005D02*
X663710D01*
Y162060D01*
X662563D01*
X662424Y162069D01*
X662294D01*
X662174Y162078D01*
X662063Y162088D01*
X661962Y162097D01*
X661878Y162106D01*
X661795D01*
X661730Y162115D01*
X661665Y162125D01*
X661619Y162134D01*
X661582D01*
X661554Y162143D01*
X661536D01*
X661407Y162180D01*
X661286Y162226D01*
X661175Y162273D01*
X661073Y162328D01*
X660990Y162374D01*
X660925Y162411D01*
X660888Y162439D01*
X660870Y162448D01*
X660750Y162541D01*
X660648Y162643D01*
X660546Y162754D01*
X660472Y162846D01*
X660407Y162939D01*
X660361Y163013D01*
X660333Y163059D01*
X660324Y163077D01*
X660250Y163235D01*
X660195Y163401D01*
X660158Y163577D01*
X660130Y163734D01*
X660112Y163864D01*
Y163928D01*
X660102Y163975D01*
Y164021D01*
Y164049D01*
Y164067D01*
Y164076D01*
X660121Y164345D01*
X660158Y164594D01*
X660222Y164798D01*
X660287Y164983D01*
X660324Y165057D01*
X660361Y165122D01*
X660389Y165177D01*
X660426Y165233D01*
X660444Y165270D01*
X660463Y165297D01*
X660482Y165307D01*
Y165316D01*
X660630Y165482D01*
X660778Y165621D01*
X660935Y165732D01*
X661073Y165815D01*
X661203Y165871D01*
X661305Y165917D01*
X661342Y165926D01*
X661370Y165936D01*
X661388Y165945D01*
X661397D01*
X661471Y165963D01*
X661564Y165982D01*
X661675Y165991D01*
X661786Y166000D01*
X662045Y166019D01*
X662304Y166037D01*
X662544D01*
X662646Y166047D01*
X665005D01*
Y159646D01*
D02*
G37*
G36*
X622696Y428527D02*
X624907Y425197D01*
X623353D01*
X621929Y427361D01*
X620513Y425197D01*
X618959D01*
X621161Y428527D01*
X619153Y431598D01*
X620661D01*
X621929Y429683D01*
X623196Y431598D01*
X624704D01*
X622696Y428527D01*
D02*
G37*
G36*
X684902Y166158D02*
X685142Y166130D01*
X685355Y166093D01*
X685540Y166056D01*
X685623Y166028D01*
X685697Y166010D01*
X685752Y165991D01*
X685808Y165973D01*
X685845Y165954D01*
X685873Y165945D01*
X685891Y165936D01*
X685900D01*
X686086Y165843D01*
X686243Y165741D01*
X686381Y165630D01*
X686492Y165529D01*
X686585Y165436D01*
X686641Y165362D01*
X686687Y165307D01*
X686696Y165297D01*
Y165288D01*
X686789Y165131D01*
X686853Y164964D01*
X686900Y164807D01*
X686927Y164668D01*
X686946Y164548D01*
X686964Y164456D01*
Y164419D01*
Y164391D01*
Y164382D01*
Y164372D01*
X686955Y164234D01*
X686937Y164095D01*
X686909Y163975D01*
X686872Y163854D01*
X686779Y163632D01*
X686668Y163438D01*
X686622Y163355D01*
X686566Y163290D01*
X686520Y163225D01*
X686474Y163170D01*
X686437Y163133D01*
X686409Y163105D01*
X686391Y163087D01*
X686381Y163077D01*
X686298Y163013D01*
X686197Y162948D01*
X686095Y162883D01*
X685975Y162828D01*
X685743Y162717D01*
X685503Y162624D01*
X685383Y162587D01*
X685281Y162550D01*
X685179Y162522D01*
X685096Y162495D01*
X685031Y162476D01*
X684975Y162458D01*
X684938Y162448D01*
X684929D01*
X684781Y162411D01*
X684652Y162374D01*
X684531Y162347D01*
X684420Y162319D01*
X684328Y162291D01*
X684245Y162273D01*
X684171Y162245D01*
X684106Y162226D01*
X684051Y162217D01*
X684004Y162199D01*
X683940Y162180D01*
X683903Y162162D01*
X683893D01*
X683773Y162115D01*
X683680Y162069D01*
X683597Y162023D01*
X683532Y161977D01*
X683486Y161940D01*
X683459Y161912D01*
X683440Y161893D01*
X683431Y161884D01*
X683385Y161819D01*
X683348Y161755D01*
X683329Y161690D01*
X683311Y161634D01*
X683301Y161579D01*
X683292Y161533D01*
Y161505D01*
Y161496D01*
X683301Y161366D01*
X683338Y161255D01*
X683394Y161144D01*
X683449Y161052D01*
X683514Y160978D01*
X683560Y160922D01*
X683597Y160885D01*
X683616Y160876D01*
X683745Y160793D01*
X683893Y160728D01*
X684051Y160682D01*
X684199Y160654D01*
X684337Y160635D01*
X684448Y160617D01*
X684550D01*
X684763Y160626D01*
X684948Y160663D01*
X685105Y160709D01*
X685244Y160765D01*
X685355Y160820D01*
X685429Y160867D01*
X685475Y160904D01*
X685494Y160913D01*
X685614Y161042D01*
X685706Y161181D01*
X685789Y161338D01*
X685845Y161496D01*
X685891Y161634D01*
X685928Y161745D01*
X685938Y161782D01*
Y161819D01*
X685947Y161838D01*
Y161847D01*
X687205Y161727D01*
X687177Y161533D01*
X687140Y161348D01*
X687084Y161172D01*
X687038Y161015D01*
X686973Y160867D01*
X686909Y160728D01*
X686844Y160608D01*
X686779Y160497D01*
X686715Y160404D01*
X686650Y160321D01*
X686594Y160247D01*
X686539Y160182D01*
X686502Y160136D01*
X686465Y160108D01*
X686446Y160090D01*
X686437Y160080D01*
X686307Y159979D01*
X686169Y159895D01*
X686021Y159821D01*
X685863Y159757D01*
X685715Y159710D01*
X685558Y159664D01*
X685253Y159599D01*
X685114Y159572D01*
X684985Y159553D01*
X684874Y159544D01*
X684772Y159535D01*
X684689Y159525D01*
X684569D01*
X684272Y159535D01*
X684004Y159562D01*
X683764Y159599D01*
X683662Y159618D01*
X683560Y159646D01*
X683477Y159664D01*
X683403Y159683D01*
X683338Y159701D01*
X683283Y159720D01*
X683237Y159738D01*
X683209Y159747D01*
X683190Y159757D01*
X683181D01*
X682977Y159858D01*
X682811Y159969D01*
X682654Y160080D01*
X682534Y160201D01*
X682441Y160302D01*
X682367Y160395D01*
X682330Y160450D01*
X682311Y160460D01*
Y160469D01*
X682210Y160654D01*
X682127Y160830D01*
X682071Y161005D01*
X682034Y161172D01*
X682016Y161301D01*
X682006Y161366D01*
X681997Y161412D01*
Y161449D01*
Y161477D01*
Y161496D01*
Y161505D01*
X682006Y161727D01*
X682034Y161921D01*
X682080Y162097D01*
X682127Y162245D01*
X682173Y162365D01*
X682219Y162448D01*
X682247Y162504D01*
X682256Y162522D01*
X682358Y162670D01*
X682478Y162800D01*
X682598Y162911D01*
X682709Y163003D01*
X682811Y163077D01*
X682894Y163133D01*
X682950Y163170D01*
X682959Y163179D01*
X682968D01*
X683061Y163225D01*
X683153Y163272D01*
X683375Y163355D01*
X683606Y163429D01*
X683828Y163503D01*
X683930Y163531D01*
X684032Y163558D01*
X684125Y163586D01*
X684199Y163605D01*
X684263Y163623D01*
X684309Y163632D01*
X684346Y163642D01*
X684356D01*
X684522Y163688D01*
X684670Y163725D01*
X684809Y163762D01*
X684938Y163799D01*
X685040Y163836D01*
X685142Y163873D01*
X685225Y163910D01*
X685299Y163938D01*
X685364Y163965D01*
X685410Y163993D01*
X685457Y164012D01*
X685484Y164030D01*
X685531Y164058D01*
X685540Y164067D01*
X685604Y164132D01*
X685651Y164197D01*
X685678Y164261D01*
X685697Y164326D01*
X685715Y164372D01*
X685725Y164419D01*
Y164446D01*
Y164456D01*
X685715Y164548D01*
X685697Y164622D01*
X685660Y164696D01*
X685623Y164752D01*
X685586Y164798D01*
X685549Y164826D01*
X685531Y164844D01*
X685521Y164853D01*
X685392Y164937D01*
X685253Y164992D01*
X685105Y165038D01*
X684966Y165066D01*
X684846Y165085D01*
X684744Y165094D01*
X684652D01*
X684457Y165085D01*
X684291Y165057D01*
X684152Y165020D01*
X684041Y164983D01*
X683949Y164946D01*
X683884Y164909D01*
X683847Y164881D01*
X683838Y164872D01*
X683745Y164779D01*
X683662Y164668D01*
X683597Y164557D01*
X683551Y164437D01*
X683514Y164335D01*
X683496Y164252D01*
X683477Y164187D01*
Y164178D01*
Y164169D01*
X682182Y164215D01*
X682191Y164382D01*
X682219Y164530D01*
X682256Y164678D01*
X682302Y164807D01*
X682348Y164937D01*
X682404Y165057D01*
X682459Y165159D01*
X682515Y165260D01*
X682580Y165344D01*
X682635Y165418D01*
X682691Y165482D01*
X682737Y165538D01*
X682774Y165575D01*
X682802Y165603D01*
X682820Y165621D01*
X682830Y165630D01*
X682950Y165723D01*
X683079Y165806D01*
X683218Y165880D01*
X683366Y165945D01*
X683514Y165991D01*
X683662Y166037D01*
X683958Y166102D01*
X684097Y166121D01*
X684217Y166139D01*
X684337Y166148D01*
X684439Y166158D01*
X684522Y166167D01*
X684633D01*
X684902Y166158D01*
D02*
G37*
G36*
X650094Y159646D02*
X645228D01*
Y160728D01*
X648799D01*
Y162467D01*
X645589D01*
Y163549D01*
X648799D01*
Y164964D01*
X645349D01*
Y166047D01*
X650094D01*
Y159646D01*
D02*
G37*
%LPC*%
G36*
X646588Y173128D02*
X646529D01*
X646308Y173105D01*
X646110Y173058D01*
X645947Y172976D01*
X645795Y172895D01*
X645678Y172813D01*
X645585Y172731D01*
X645538Y172685D01*
X645515Y172661D01*
X645375Y172475D01*
X645270Y172253D01*
X645200Y172032D01*
X645142Y171822D01*
X645119Y171635D01*
X645107Y171542D01*
Y171472D01*
X645095Y171414D01*
Y171367D01*
Y171344D01*
Y171332D01*
X645119Y171029D01*
X645165Y170749D01*
X645224Y170528D01*
X645305Y170329D01*
X645387Y170189D01*
X645445Y170073D01*
X645492Y170015D01*
X645515Y169991D01*
X645678Y169840D01*
X645842Y169723D01*
X646016Y169653D01*
X646180Y169595D01*
X646320Y169560D01*
X646424Y169548D01*
X646471Y169536D01*
X646529D01*
X646751Y169560D01*
X646949Y169606D01*
X647124Y169676D01*
X647264Y169770D01*
X647392Y169851D01*
X647486Y169921D01*
X647532Y169968D01*
X647555Y169991D01*
X647695Y170178D01*
X647789Y170399D01*
X647859Y170621D01*
X647917Y170843D01*
X647940Y171029D01*
X647952Y171111D01*
Y171192D01*
X647964Y171250D01*
Y171297D01*
Y171320D01*
Y171332D01*
X647940Y171635D01*
X647894Y171904D01*
X647835Y172137D01*
X647754Y172323D01*
X647684Y172463D01*
X647614Y172580D01*
X647567Y172638D01*
X647555Y172661D01*
X647392Y172813D01*
X647217Y172930D01*
X647043Y173011D01*
X646879Y173070D01*
X646739Y173105D01*
X646634Y173116D01*
X646588Y173128D01*
D02*
G37*
G36*
X704223D02*
X704165D01*
X703943Y173105D01*
X703745Y173058D01*
X703582Y172976D01*
X703430Y172895D01*
X703314Y172813D01*
X703220Y172731D01*
X703174Y172685D01*
X703150Y172661D01*
X703011Y172475D01*
X702906Y172253D01*
X702836Y172032D01*
X702777Y171822D01*
X702754Y171635D01*
X702742Y171542D01*
Y171472D01*
X702731Y171414D01*
Y171367D01*
Y171344D01*
Y171332D01*
X702754Y171029D01*
X702801Y170749D01*
X702859Y170528D01*
X702941Y170329D01*
X703022Y170189D01*
X703081Y170073D01*
X703127Y170015D01*
X703150Y169991D01*
X703314Y169840D01*
X703477Y169723D01*
X703652Y169653D01*
X703815Y169595D01*
X703955Y169560D01*
X704060Y169548D01*
X704107Y169536D01*
X704165D01*
X704386Y169560D01*
X704585Y169606D01*
X704760Y169676D01*
X704899Y169770D01*
X705028Y169851D01*
X705121Y169921D01*
X705168Y169968D01*
X705191Y169991D01*
X705331Y170178D01*
X705424Y170399D01*
X705494Y170621D01*
X705552Y170843D01*
X705576Y171029D01*
X705587Y171111D01*
Y171192D01*
X705599Y171250D01*
Y171297D01*
Y171320D01*
Y171332D01*
X705576Y171635D01*
X705529Y171904D01*
X705471Y172137D01*
X705389Y172323D01*
X705319Y172463D01*
X705249Y172580D01*
X705203Y172638D01*
X705191Y172661D01*
X705028Y172813D01*
X704853Y172930D01*
X704678Y173011D01*
X704515Y173070D01*
X704375Y173105D01*
X704270Y173116D01*
X704223Y173128D01*
D02*
G37*
G36*
X680169Y173198D02*
X680087D01*
X679912Y173186D01*
X679761Y173140D01*
X679621Y173081D01*
X679504Y173023D01*
X679411Y172953D01*
X679341Y172895D01*
X679294Y172848D01*
X679282Y172836D01*
X679178Y172696D01*
X679084Y172533D01*
X679026Y172358D01*
X678979Y172195D01*
X678956Y172055D01*
X678944Y171927D01*
X678933Y171880D01*
Y171857D01*
Y171834D01*
Y171822D01*
X681241D01*
X681230Y172043D01*
X681195Y172242D01*
X681148Y172417D01*
X681078Y172556D01*
X681020Y172673D01*
X680961Y172755D01*
X680927Y172813D01*
X680915Y172825D01*
X680787Y172953D01*
X680647Y173046D01*
X680507Y173105D01*
X680378Y173151D01*
X680262Y173175D01*
X680169Y173198D01*
D02*
G37*
G36*
X670166Y162439D02*
X668825D01*
X668695Y162430D01*
X668584Y162421D01*
X668473D01*
X668381Y162411D01*
X668298Y162402D01*
X668233Y162393D01*
X668168Y162384D01*
X668122Y162374D01*
X668048Y162365D01*
X668002Y162347D01*
X667992D01*
X667900Y162310D01*
X667817Y162263D01*
X667743Y162217D01*
X667687Y162162D01*
X667641Y162125D01*
X667613Y162088D01*
X667595Y162060D01*
X667586Y162051D01*
X667539Y161967D01*
X667502Y161884D01*
X667475Y161810D01*
X667456Y161727D01*
X667447Y161662D01*
X667438Y161607D01*
Y161570D01*
Y161560D01*
X667447Y161440D01*
X667465Y161329D01*
X667493Y161237D01*
X667530Y161163D01*
X667567Y161098D01*
X667595Y161052D01*
X667613Y161024D01*
X667623Y161015D01*
X667697Y160950D01*
X667770Y160894D01*
X667854Y160848D01*
X667928Y160811D01*
X667992Y160793D01*
X668048Y160774D01*
X668085Y160765D01*
X668094D01*
X668131Y160756D01*
X668187D01*
X668307Y160746D01*
X668455Y160737D01*
X668603D01*
X668742Y160728D01*
X670166D01*
Y162439D01*
D02*
G37*
G36*
Y164983D02*
X668881D01*
X668779Y164974D01*
X668538D01*
X668483Y164964D01*
X668381D01*
X668344Y164955D01*
X668335D01*
X668224Y164937D01*
X668122Y164909D01*
X668039Y164872D01*
X667965Y164835D01*
X667918Y164798D01*
X667872Y164761D01*
X667854Y164742D01*
X667844Y164733D01*
X667789Y164659D01*
X667752Y164576D01*
X667715Y164502D01*
X667697Y164428D01*
X667687Y164354D01*
X667678Y164298D01*
Y164261D01*
Y164252D01*
X667687Y164141D01*
X667706Y164039D01*
X667743Y163956D01*
X667770Y163882D01*
X667807Y163817D01*
X667844Y163780D01*
X667863Y163753D01*
X667872Y163743D01*
X667946Y163679D01*
X668029Y163632D01*
X668113Y163595D01*
X668196Y163568D01*
X668279Y163540D01*
X668335Y163531D01*
X668372Y163521D01*
X668427D01*
X668483Y163512D01*
X668770D01*
X668927Y163503D01*
X670166D01*
Y164983D01*
D02*
G37*
G36*
X669079Y153975D02*
X667738D01*
X667608Y153965D01*
X667497Y153956D01*
X667386D01*
X667294Y153947D01*
X667210Y153938D01*
X667146Y153928D01*
X667081Y153919D01*
X667035Y153910D01*
X666961Y153901D01*
X666915Y153882D01*
X666905D01*
X666813Y153845D01*
X666729Y153799D01*
X666655Y153753D01*
X666600Y153697D01*
X666554Y153660D01*
X666526Y153623D01*
X666507Y153595D01*
X666498Y153586D01*
X666452Y153503D01*
X666415Y153420D01*
X666387Y153346D01*
X666369Y153262D01*
X666360Y153198D01*
X666350Y153142D01*
Y153105D01*
Y153096D01*
X666360Y152976D01*
X666378Y152865D01*
X666406Y152772D01*
X666443Y152698D01*
X666480Y152633D01*
X666507Y152587D01*
X666526Y152559D01*
X666535Y152550D01*
X666609Y152485D01*
X666683Y152430D01*
X666767Y152384D01*
X666841Y152347D01*
X666905Y152328D01*
X666961Y152310D01*
X666998Y152300D01*
X667007D01*
X667044Y152291D01*
X667100D01*
X667220Y152282D01*
X667368Y152273D01*
X667516D01*
X667655Y152263D01*
X669079D01*
Y153975D01*
D02*
G37*
G36*
Y156518D02*
X667793D01*
X667692Y156509D01*
X667451D01*
X667395Y156500D01*
X667294D01*
X667257Y156491D01*
X667247D01*
X667136Y156472D01*
X667035Y156444D01*
X666952Y156407D01*
X666878Y156370D01*
X666831Y156333D01*
X666785Y156296D01*
X666767Y156278D01*
X666757Y156269D01*
X666702Y156195D01*
X666665Y156111D01*
X666628Y156037D01*
X666609Y155963D01*
X666600Y155889D01*
X666591Y155834D01*
Y155797D01*
Y155788D01*
X666600Y155677D01*
X666618Y155575D01*
X666655Y155492D01*
X666683Y155418D01*
X666720Y155353D01*
X666757Y155316D01*
X666776Y155288D01*
X666785Y155279D01*
X666859Y155214D01*
X666942Y155168D01*
X667026Y155131D01*
X667109Y155103D01*
X667192Y155075D01*
X667247Y155066D01*
X667284Y155057D01*
X667340D01*
X667395Y155048D01*
X667682D01*
X667839Y155038D01*
X669079D01*
Y156518D01*
D02*
G37*
G36*
X661152Y156602D02*
X661078D01*
X660930Y156592D01*
X660791Y156574D01*
X660662Y156555D01*
X660541Y156518D01*
X660328Y156426D01*
X660227Y156380D01*
X660144Y156333D01*
X660060Y156278D01*
X659996Y156232D01*
X659940Y156185D01*
X659885Y156139D01*
X659847Y156102D01*
X659820Y156084D01*
X659810Y156065D01*
X659801Y156056D01*
X659718Y155945D01*
X659635Y155825D01*
X659570Y155704D01*
X659515Y155566D01*
X659431Y155288D01*
X659376Y155020D01*
X659348Y154900D01*
X659339Y154779D01*
X659330Y154678D01*
X659320Y154585D01*
X659311Y154502D01*
Y154446D01*
Y154409D01*
Y154400D01*
X659320Y154197D01*
X659330Y154002D01*
X659357Y153827D01*
X659385Y153669D01*
X659422Y153512D01*
X659468Y153373D01*
X659515Y153253D01*
X659561Y153142D01*
X659607Y153040D01*
X659653Y152957D01*
X659690Y152883D01*
X659736Y152818D01*
X659764Y152772D01*
X659792Y152744D01*
X659801Y152726D01*
X659810Y152717D01*
X659903Y152615D01*
X660005Y152532D01*
X660116Y152458D01*
X660218Y152393D01*
X660328Y152347D01*
X660430Y152300D01*
X660634Y152236D01*
X660810Y152189D01*
X660884Y152180D01*
X660948Y152171D01*
X661004Y152162D01*
X661078D01*
X661216Y152171D01*
X661355Y152189D01*
X661485Y152217D01*
X661605Y152254D01*
X661827Y152337D01*
X662003Y152448D01*
X662086Y152495D01*
X662151Y152550D01*
X662216Y152596D01*
X662262Y152643D01*
X662299Y152670D01*
X662326Y152698D01*
X662345Y152717D01*
X662354Y152726D01*
X662437Y152837D01*
X662521Y152957D01*
X662585Y153087D01*
X662641Y153225D01*
X662734Y153494D01*
X662789Y153762D01*
X662808Y153891D01*
X662826Y154002D01*
X662835Y154113D01*
X662845Y154206D01*
X662854Y154280D01*
Y154335D01*
Y154372D01*
Y154382D01*
X662845Y154585D01*
X662835Y154770D01*
X662808Y154946D01*
X662780Y155112D01*
X662743Y155260D01*
X662706Y155399D01*
X662660Y155519D01*
X662613Y155630D01*
X662567Y155732D01*
X662521Y155815D01*
X662484Y155880D01*
X662447Y155945D01*
X662419Y155991D01*
X662391Y156019D01*
X662382Y156037D01*
X662373Y156047D01*
X662280Y156148D01*
X662179Y156232D01*
X662068Y156306D01*
X661966Y156370D01*
X661855Y156426D01*
X661744Y156463D01*
X661540Y156537D01*
X661355Y156574D01*
X661281Y156583D01*
X661207Y156592D01*
X661152Y156602D01*
D02*
G37*
G36*
X643262D02*
X643188D01*
X643040Y156592D01*
X642902Y156574D01*
X642772Y156555D01*
X642652Y156518D01*
X642439Y156426D01*
X642337Y156380D01*
X642254Y156333D01*
X642171Y156278D01*
X642106Y156232D01*
X642051Y156185D01*
X641995Y156139D01*
X641958Y156102D01*
X641930Y156084D01*
X641921Y156065D01*
X641912Y156056D01*
X641828Y155945D01*
X641745Y155825D01*
X641680Y155704D01*
X641625Y155566D01*
X641542Y155288D01*
X641486Y155020D01*
X641459Y154900D01*
X641449Y154779D01*
X641440Y154678D01*
X641431Y154585D01*
X641422Y154502D01*
Y154446D01*
Y154409D01*
Y154400D01*
X641431Y154197D01*
X641440Y154002D01*
X641468Y153827D01*
X641496Y153669D01*
X641533Y153512D01*
X641579Y153373D01*
X641625Y153253D01*
X641671Y153142D01*
X641717Y153040D01*
X641764Y152957D01*
X641801Y152883D01*
X641847Y152818D01*
X641875Y152772D01*
X641902Y152744D01*
X641912Y152726D01*
X641921Y152717D01*
X642014Y152615D01*
X642115Y152532D01*
X642226Y152458D01*
X642328Y152393D01*
X642439Y152347D01*
X642541Y152300D01*
X642744Y152236D01*
X642920Y152189D01*
X642994Y152180D01*
X643059Y152171D01*
X643114Y152162D01*
X643188D01*
X643327Y152171D01*
X643466Y152189D01*
X643595Y152217D01*
X643715Y152254D01*
X643937Y152337D01*
X644113Y152448D01*
X644197Y152495D01*
X644261Y152550D01*
X644326Y152596D01*
X644372Y152643D01*
X644409Y152670D01*
X644437Y152698D01*
X644455Y152717D01*
X644465Y152726D01*
X644548Y152837D01*
X644631Y152957D01*
X644696Y153087D01*
X644752Y153225D01*
X644844Y153494D01*
X644900Y153762D01*
X644918Y153891D01*
X644937Y154002D01*
X644946Y154113D01*
X644955Y154206D01*
X644964Y154280D01*
Y154335D01*
Y154372D01*
Y154382D01*
X644955Y154585D01*
X644946Y154770D01*
X644918Y154946D01*
X644890Y155112D01*
X644853Y155260D01*
X644816Y155399D01*
X644770Y155519D01*
X644724Y155630D01*
X644677Y155732D01*
X644631Y155815D01*
X644594Y155880D01*
X644557Y155945D01*
X644529Y155991D01*
X644502Y156019D01*
X644492Y156037D01*
X644483Y156047D01*
X644391Y156148D01*
X644289Y156232D01*
X644178Y156306D01*
X644076Y156370D01*
X643965Y156426D01*
X643854Y156463D01*
X643651Y156537D01*
X643466Y156574D01*
X643392Y156583D01*
X643318Y156592D01*
X643262Y156602D01*
D02*
G37*
G36*
X655255Y164964D02*
X653775D01*
X653692Y164955D01*
X653488D01*
X653405Y164946D01*
X653350D01*
X653322Y164937D01*
X653313D01*
X653202Y164909D01*
X653100Y164872D01*
X653017Y164835D01*
X652952Y164789D01*
X652896Y164742D01*
X652850Y164715D01*
X652832Y164687D01*
X652822Y164678D01*
X652767Y164604D01*
X652721Y164511D01*
X652693Y164428D01*
X652665Y164345D01*
X652656Y164271D01*
X652647Y164215D01*
Y164178D01*
Y164160D01*
X652656Y164058D01*
X652665Y163965D01*
X652693Y163882D01*
X652711Y163808D01*
X652739Y163753D01*
X652767Y163716D01*
X652776Y163688D01*
X652785Y163679D01*
X652841Y163614D01*
X652896Y163558D01*
X653017Y163475D01*
X653063Y163447D01*
X653109Y163429D01*
X653137Y163410D01*
X653146D01*
X653193Y163401D01*
X653266Y163383D01*
X653340Y163373D01*
X653424Y163364D01*
X653618Y163355D01*
X653812Y163346D01*
X653997Y163336D01*
X655255D01*
Y164964D01*
D02*
G37*
G36*
X663710D02*
X662748D01*
X662655Y164955D01*
X662572D01*
X662489Y164946D01*
X662368D01*
X662276Y164937D01*
X662211Y164927D01*
X662174Y164918D01*
X662165D01*
X662054Y164890D01*
X661952Y164853D01*
X661860Y164807D01*
X661786Y164752D01*
X661730Y164705D01*
X661684Y164668D01*
X661656Y164641D01*
X661647Y164631D01*
X661573Y164539D01*
X661527Y164446D01*
X661490Y164345D01*
X661462Y164252D01*
X661444Y164169D01*
X661434Y164104D01*
Y164067D01*
Y164049D01*
X661444Y163947D01*
X661453Y163854D01*
X661481Y163771D01*
X661508Y163697D01*
X661536Y163632D01*
X661554Y163586D01*
X661573Y163558D01*
X661582Y163549D01*
X661638Y163475D01*
X661712Y163410D01*
X661776Y163355D01*
X661841Y163309D01*
X661897Y163281D01*
X661943Y163253D01*
X661980Y163244D01*
X661989Y163235D01*
X662045Y163216D01*
X662110Y163207D01*
X662257Y163179D01*
X662424Y163161D01*
X662591Y163151D01*
X662757D01*
X662822Y163142D01*
X663710D01*
Y164964D01*
D02*
G37*
%LPD*%
D26*
X673846Y183256D02*
Y285256D01*
Y183256D02*
X712815D01*
X673846Y407256D02*
X712847D01*
X673846Y305256D02*
Y407256D01*
X670847Y410256D02*
X715846D01*
X670847Y180256D02*
Y410256D01*
X673846Y285256D02*
Y305256D01*
X712847Y183256D02*
Y407256D01*
X670847Y180256D02*
X715846D01*
Y410256D01*
X712847Y305256D02*
X715827D01*
X712854Y285256D02*
X715827D01*
X543614Y285256D02*
X546614D01*
X543614D02*
Y305256D01*
X546614D01*
Y180256D02*
Y410256D01*
X511614Y180256D02*
Y410256D01*
Y180256D02*
X546614D01*
X511614Y410256D02*
X546614D01*
X543614Y305256D02*
Y407256D01*
X514614D02*
X543614D01*
X514614Y183256D02*
Y407256D01*
Y183256D02*
X543614D01*
Y285256D01*
X466449Y183256D02*
Y285256D01*
X437449Y183256D02*
X466449D01*
X437449D02*
Y407256D01*
X466449D01*
Y305256D02*
Y407256D01*
X434449Y410256D02*
X469449D01*
X434449Y180256D02*
X469449D01*
X434449D02*
Y410256D01*
X469449Y180256D02*
Y410256D01*
X466449Y305256D02*
X469449D01*
X466449Y285256D02*
Y305256D01*
Y285256D02*
X469449D01*
X389283D02*
X392284D01*
X389283D02*
Y305256D01*
X392284D01*
Y180256D02*
Y410256D01*
X357283Y180256D02*
Y410256D01*
Y180256D02*
X392284D01*
X357283Y410256D02*
X392284D01*
X389283Y305256D02*
Y407256D01*
X360283D02*
X389283D01*
X360283Y183256D02*
Y407256D01*
Y183256D02*
X389283D01*
Y285256D01*
X312118Y183256D02*
Y285256D01*
X283118Y183256D02*
X312118D01*
X283118D02*
Y407256D01*
X312118D01*
Y305256D02*
Y407256D01*
X280118Y410256D02*
X315118D01*
X280118Y180256D02*
X315118D01*
X280118D02*
Y410256D01*
X315118Y180256D02*
Y410256D01*
X312118Y305256D02*
X315118D01*
X312118Y285256D02*
Y305256D01*
Y285256D02*
X315118D01*
X234953D02*
X237953D01*
X234953D02*
Y305256D01*
X237953D01*
Y180256D02*
Y410256D01*
X202953Y180256D02*
Y410256D01*
Y180256D02*
X237953D01*
X202953Y410256D02*
X237953D01*
X234953Y305256D02*
Y407256D01*
X205953D02*
X234953D01*
X205953Y183256D02*
Y407256D01*
Y183256D02*
X234953D01*
Y285256D01*
X620779Y183256D02*
Y285256D01*
X591779Y183256D02*
X620779D01*
X591779D02*
Y407256D01*
X620779D01*
Y305256D02*
Y407256D01*
X588779Y410256D02*
X623779D01*
X588779Y180256D02*
X623779D01*
X588779D02*
Y410256D01*
X623779Y180256D02*
Y410256D01*
X620779Y305256D02*
X623779D01*
X620779Y285256D02*
Y305256D01*
Y285256D02*
X623779D01*
X152933Y285256D02*
X155905D01*
X152925Y305256D02*
X155905D01*
X155925Y180256D02*
Y410256D01*
X110925Y180256D02*
X155925D01*
X152925Y183256D02*
Y407256D01*
X113925Y285256D02*
Y305256D01*
X110925Y180256D02*
Y410256D01*
X155925D01*
X113925Y305256D02*
Y407256D01*
X152925D01*
X113925Y183256D02*
X152894D01*
X113925D02*
Y285256D01*
X718114Y442126D02*
X723114D01*
X718114Y432126D02*
Y442126D01*
Y432126D02*
X723114D01*
X700614Y422126D02*
X723114D01*
Y452126D01*
X700614D02*
X723114D01*
X700614Y422126D02*
Y452126D01*
X104157Y422126D02*
Y452126D01*
X126657D01*
Y422126D02*
Y452126D01*
X104157Y422126D02*
X126657D01*
X121658Y432126D02*
X126657D01*
X121658D02*
Y442126D01*
X126657D01*
X633484Y420394D02*
X668484D01*
X633484D02*
Y435394D01*
X668484D01*
Y420394D02*
Y435394D01*
X158287Y420394D02*
Y435394D01*
Y420394D02*
X193287D01*
Y435394D01*
X158287D02*
X193287D01*
D30*
X666732Y108295D02*
Y117295D01*
X662232Y112795D02*
X671232D01*
X663732Y109795D02*
X669732Y115795D01*
X663732D02*
X669732Y109795D01*
X663732D02*
X666732Y117295D01*
X663732Y109795D02*
X671232Y112795D01*
X663732Y115795D02*
X671232Y112795D01*
X663732Y115795D02*
X666732Y108295D01*
X669732Y115795D01*
X662232Y112795D02*
X669732Y115795D01*
X662232Y112795D02*
X669732Y109795D01*
X666732Y117295D02*
X669732Y109795D01*
X659232Y135795D02*
Y144795D01*
X654732Y140295D02*
X663732D01*
X656232Y137295D02*
X662232Y143295D01*
X656232D02*
X662232Y137295D01*
X656232D02*
X659232Y144795D01*
X656232Y137295D02*
X663732Y140295D01*
X656232Y143295D02*
X663732Y140295D01*
X656232Y143295D02*
X659232Y135795D01*
X662232Y143295D01*
X654732Y140295D02*
X662232Y143295D01*
X654732Y140295D02*
X662232Y137295D01*
X659232Y144795D02*
X662232Y137295D01*
X646232Y114795D02*
Y119795D01*
X644732Y115795D02*
X647732Y118795D01*
X644732D02*
X647732Y115795D01*
X644732Y118795D02*
X646232Y114795D01*
X647732Y118795D01*
X643732Y117295D02*
X647732Y115795D01*
X643732Y117295D02*
X647732Y118795D01*
X644732Y115795D02*
X646232Y119795D01*
X644732Y115795D02*
X648732Y117295D01*
X643732D02*
X648732D01*
X646232Y119795D02*
X647732Y115795D01*
X644732Y118795D02*
X648732Y117295D01*
X634232Y120795D02*
Y129795D01*
X629732Y125295D02*
X638732D01*
X631232Y122295D02*
X637232Y128295D01*
X631232D02*
X637232Y122295D01*
X631232D02*
X634232Y129795D01*
X631232Y122295D02*
X638732Y125295D01*
X631232Y128295D02*
X638732Y125295D01*
X631232Y128295D02*
X634232Y120795D01*
X637232Y128295D01*
X629732Y125295D02*
X637232Y128295D01*
X629732Y125295D02*
X637232Y122295D01*
X634232Y129795D02*
X637232Y122295D01*
X636732Y140795D02*
Y149795D01*
X632232Y145295D02*
X641232D01*
X633732Y142295D02*
X639732Y148295D01*
X633732D02*
X639732Y142295D01*
X633732D02*
X636732Y149795D01*
X633732Y142295D02*
X641232Y145295D01*
X633732Y148295D02*
X641232Y145295D01*
X633732Y148295D02*
X636732Y140795D01*
X639732Y148295D01*
X632232Y145295D02*
X639732Y148295D01*
X632232Y145295D02*
X639732Y142295D01*
X636732Y149795D02*
X639732Y142295D01*
D31*
X717346Y390256D02*
X722346Y385256D01*
Y395256D01*
X717346Y390256D02*
X722346Y395256D01*
X548114Y390256D02*
X553114Y395256D01*
Y385256D02*
Y395256D01*
X548114Y390256D02*
X553114Y385256D01*
X470949Y390256D02*
X475949Y385256D01*
Y395256D01*
X470949Y390256D02*
X475949Y395256D01*
X393783Y390256D02*
X398783Y395256D01*
Y385256D02*
Y395256D01*
X393783Y390256D02*
X398783Y385256D01*
X316618Y390256D02*
X321618Y385256D01*
Y395256D01*
X316618Y390256D02*
X321618Y395256D01*
X239453Y390256D02*
X244453Y395256D01*
Y385256D02*
Y395256D01*
X239453Y390256D02*
X244453Y385256D01*
X625279Y390256D02*
X630279Y385256D01*
Y395256D01*
X625279Y390256D02*
X630279Y395256D01*
X157425Y390256D02*
X162425Y395256D01*
Y385256D02*
Y395256D01*
X157425Y390256D02*
X162425Y385256D01*
D32*
X634733Y145295D02*
D03*
X632233Y125295D02*
D03*
X657233Y140295D02*
D03*
X664733Y112795D02*
D03*
D33*
X636733Y148295D02*
D03*
X639233Y145295D02*
D03*
X634233Y128295D02*
D03*
X636733Y125295D02*
D03*
X659233Y143295D02*
D03*
X661733Y140295D02*
D03*
X666733Y115795D02*
D03*
X669233Y112795D02*
D03*
D34*
X636733Y142545D02*
D03*
X634233Y122545D02*
D03*
X659233Y137545D02*
D03*
X666733Y110045D02*
D03*
D35*
X636733Y145295D02*
D03*
X634233Y125295D02*
D03*
X659233Y140295D02*
D03*
X666733Y112795D02*
D03*
M02*
