M48
;Layer_Color=9474304
;FILE_FORMAT=2:5
INCH,TZ
;TYPE=PLATED
T1F00S00C0.02362
T2F00S00C0.03937
;TYPE=NON_PLATED
T3F00S00C0.11811
%
T01
X629134Y185039
X637008
X644882
X652756
X660630
X583464
X575591
X567716
X559842
X551968
X506299
X498425
X490551
X482677
X474803
X429134
X421260
X413386
X405512
X397638
X351969
X344094
X336221
X328346
X320472
X274803
X266929
X259055
X251181
X243307
X192776Y185039
X184901
X177027
X169153
X161279
X165354Y405512
X173228
X181102
X188976
X196850
X243307
X251181
X259055
X266929
X274803
X320473
X328346
X336221
X344094
X351969
X397638
X405512
X413386
X421260
X429134
X474803
X482677
X490551
X498425
X506299
X551968
X559842
X567717
X575591
X583464
X629921
X637795
X645669
X653543
X661417
T02
X683347Y200256
Y210256
Y220256
Y230256
Y240256
Y250256
Y260256
Y270256
Y280256
Y290256
Y300256
Y310256
X693347
Y300256
Y290256
Y280256
Y270256
Y260256
Y250256
Y240256
Y230256
Y220256
Y210256
Y200256
X703346
Y210256
Y220256
Y230256
Y240256
Y250256
Y260256
Y270256
Y280256
Y290256
Y300256
Y310256
X611279Y310256
Y300256
Y290256
Y280256
Y270256
Y260256
Y250256
Y240256
Y230256
Y220256
Y210256
Y200256
X601279
Y210256
Y220256
Y230256
Y240256
Y250256
Y260256
Y270256
Y280256
Y290256
Y300256
Y310256
X534114
X524114
Y300256
Y290256
Y280256
Y270256
Y260256
Y250256
Y240256
Y230256
Y220256
Y210256
Y200256
X534114
Y210256
Y220256
Y230256
Y240256
Y250256
Y260256
Y270256
Y280256
Y290256
Y300256
X456949
Y290256
Y280256
Y270256
Y260256
Y250256
Y240256
Y230256
Y220256
Y210256
Y200256
X446949
Y210256
Y220256
Y230256
Y240256
Y250256
Y260256
Y270256
Y280256
Y290256
Y300256
Y310256
X456949
X379784
X369783
Y300256
Y290256
Y280256
Y270256
Y260256
Y250256
Y240256
Y230256
Y220256
Y210256
Y200256
X379784
Y210256
Y220256
Y230256
Y240256
Y250256
Y260256
Y270256
Y280256
Y290256
Y300256
X302618
Y290256
Y280256
Y270256
Y260256
Y250256
Y240256
Y230256
Y220256
Y210256
Y200256
X292618
Y210256
Y220256
Y230256
Y240256
Y250256
Y260256
Y270256
Y280256
Y290256
Y300256
Y310256
X302618
X225453
X215453
Y300256
Y290256
Y280256
Y270256
Y260256
Y250256
Y240256
Y230256
Y220256
Y210256
Y200256
X225453
Y210256
Y220256
Y230256
Y240256
Y250256
Y260256
Y270256
Y280256
Y290256
Y300256
X143425Y300256
Y310256
X133425
Y300256
Y290256
X143425
Y280256
Y270256
Y260256
Y250256
Y240256
Y230256
Y220256
Y210256
Y200256
X133425
X123425
Y210256
X133425
Y220256
X123425
Y230256
X133425
Y240256
X123425
Y250256
X133425
Y260256
X123425
Y270256
X133425
Y280256
X123425
Y290256
Y300256
Y310256
Y320256
X133425
X143425
Y330256
Y340256
Y350256
Y360256
Y370256
Y380256
Y390256
X133425
Y380256
Y370256
Y360256
Y350256
Y340256
Y330256
X123425
Y340256
Y350256
Y360256
Y370256
Y380256
Y390256
X115157Y432126
Y442126
X165787Y427894
X175787
X185787
X215453Y390256
Y380256
Y370256
Y360256
Y350256
Y340256
Y330256
Y320256
X225453
Y330256
Y340256
Y350256
Y360256
Y370256
Y380256
Y390256
X292618
X302618
Y380256
Y370256
Y360256
Y350256
Y340256
Y330256
Y320256
X292618
Y330256
Y340256
Y350256
Y360256
Y370256
Y380256
X369783
Y390256
X379784
Y380256
Y370256
X369783
Y360256
Y350256
Y340256
Y330256
Y320256
X379784
Y330256
Y340256
Y350256
Y360256
X446949
X456949
Y350256
Y340256
Y330256
Y320256
X446949
Y330256
Y340256
Y350256
Y370256
X456949
Y380256
Y390256
X446949
Y380256
X524114
Y390256
X534114
Y380256
Y370256
X524114
Y360256
Y350256
Y340256
Y330256
Y320256
X534114
Y330256
Y340256
Y350256
Y360256
X601279
X611279
Y350256
Y340256
Y330256
Y320256
X601279
Y330256
Y340256
Y350256
Y370256
X611279
Y380256
Y390256
X601279
Y380256
X683347Y380256
Y390256
X693347
Y380256
Y370256
X683347
Y360256
X693347
Y350256
X683347
Y340256
X693347
Y330256
X683347
Y320256
X693347
X703346
Y330256
Y340256
Y350256
Y360256
Y370256
Y380256
Y390256
X711614Y432126
Y442126
X660984Y427894
X650984
X640984
T03
X109606Y120630
X147638Y137795
X199803Y114567
X220473
X276969
X297638
X354134
X374803
X431299
X451968
X508464
X529134
X585630
X606299
X679134Y137795
X717165Y120630
X567716Y165354
X490551
X413386
X336220
X259055
X147638Y452756
X259055Y425197
X336220
X413386
X490551
X567716
X679134Y452756
X717165Y469921
X606299Y475984
X585630
X529134
X508464
X451968
X431299
X374803
X354134
X297638
X276969
X220473
X199803
X109606Y469921
M30
