G04 Layer_Color=65535*
%FSLAX25Y25*%
%MOIN*%
G70*
G01*
G75*
%ADD26C,0.01000*%
%ADD29C,0.00787*%
%ADD30C,0.00500*%
%ADD31C,0.00800*%
%ADD32R,0.02000X0.01000*%
%ADD33R,0.01000X0.01000*%
%ADD34R,0.01000X0.01500*%
%ADD35R,0.05000X0.05000*%
G36*
X622934Y428330D02*
X625135Y425000D01*
X623581D01*
X622166Y427165D01*
X620741Y425000D01*
X619187D01*
X621398Y428330D01*
X619391Y431401D01*
X620899D01*
X622166Y429486D01*
X623433Y431401D01*
X624941D01*
X622934Y428330D01*
D02*
G37*
G36*
X630436Y430319D02*
X628548D01*
Y425000D01*
X627253D01*
Y430319D01*
X625357D01*
Y431401D01*
X630436D01*
Y430319D01*
D02*
G37*
G36*
X201202Y429827D02*
X197752D01*
Y428411D01*
X200961D01*
Y427329D01*
X197752D01*
Y425590D01*
X201322D01*
Y424508D01*
X196457D01*
Y430909D01*
X201202D01*
Y429827D01*
D02*
G37*
G36*
X205512Y427838D02*
X207714Y424508D01*
X206160D01*
X204745Y426672D01*
X203320Y424508D01*
X201766D01*
X203977Y427838D01*
X201970Y430909D01*
X203477D01*
X204745Y428994D01*
X206012Y430909D01*
X207520D01*
X205512Y427838D01*
D02*
G37*
G36*
X213014Y429827D02*
X211127D01*
Y424508D01*
X209832D01*
Y429827D01*
X207936D01*
Y430909D01*
X213014D01*
Y429827D01*
D02*
G37*
G36*
X672161Y424902D02*
X670866D01*
Y431303D01*
X672161D01*
Y424902D01*
D02*
G37*
G36*
X150142Y424409D02*
X148847D01*
X146247Y428627D01*
Y424409D01*
X145054D01*
Y430810D01*
X146303D01*
X148948Y426500D01*
Y430810D01*
X150142D01*
Y424409D01*
D02*
G37*
G36*
X684482Y430220D02*
X682595D01*
Y424902D01*
X681300D01*
Y430220D01*
X679404D01*
Y431303D01*
X684482D01*
Y430220D01*
D02*
G37*
G36*
X618623Y430319D02*
X615173D01*
Y428903D01*
X618383D01*
Y427821D01*
X615173D01*
Y426082D01*
X618744D01*
Y425000D01*
X613878D01*
Y431401D01*
X618623D01*
Y430319D01*
D02*
G37*
G36*
X678488Y424902D02*
X677193D01*
X674594Y429120D01*
Y424902D01*
X673401D01*
Y431303D01*
X674649D01*
X677295Y426992D01*
Y431303D01*
X678488D01*
Y424902D01*
D02*
G37*
G36*
X650415Y166037D02*
X650600Y166028D01*
X650785Y166019D01*
X650961Y166000D01*
X651118Y165982D01*
X651136D01*
X651183Y165973D01*
X651247Y165954D01*
X651340Y165926D01*
X651442Y165889D01*
X651553Y165843D01*
X651673Y165788D01*
X651784Y165714D01*
X651793Y165704D01*
X651830Y165677D01*
X651886Y165630D01*
X651960Y165575D01*
X652034Y165492D01*
X652117Y165399D01*
X652200Y165297D01*
X652274Y165177D01*
X652283Y165159D01*
X652302Y165122D01*
X652339Y165048D01*
X652376Y164955D01*
X652413Y164844D01*
X652450Y164724D01*
X652468Y164576D01*
X652478Y164428D01*
Y164419D01*
Y164409D01*
Y164354D01*
X652468Y164271D01*
X652450Y164160D01*
X652413Y164030D01*
X652376Y163891D01*
X652311Y163753D01*
X652228Y163605D01*
X652219Y163586D01*
X652182Y163540D01*
X652126Y163475D01*
X652061Y163392D01*
X651969Y163309D01*
X651858Y163207D01*
X651728Y163124D01*
X651580Y163040D01*
X651590D01*
X651608Y163031D01*
X651636Y163022D01*
X651673Y163013D01*
X651784Y162966D01*
X651913Y162902D01*
X652052Y162828D01*
X652209Y162726D01*
X652348Y162606D01*
X652478Y162458D01*
X652487Y162439D01*
X652524Y162384D01*
X652579Y162300D01*
X652635Y162189D01*
X652690Y162041D01*
X652746Y161884D01*
X652783Y161699D01*
X652792Y161496D01*
Y161486D01*
Y161477D01*
Y161422D01*
X652783Y161338D01*
X652764Y161227D01*
X652746Y161098D01*
X652709Y160950D01*
X652653Y160802D01*
X652589Y160645D01*
X652579Y160626D01*
X652552Y160580D01*
X652505Y160506D01*
X652441Y160413D01*
X652367Y160302D01*
X652265Y160201D01*
X652163Y160090D01*
X652034Y159988D01*
X652015Y159979D01*
X651969Y159951D01*
X651895Y159905D01*
X651793Y159858D01*
X651664Y159803D01*
X651516Y159757D01*
X651349Y159710D01*
X651164Y159683D01*
X651127D01*
X651090Y159673D01*
X650998D01*
X650933Y159664D01*
X650757D01*
X650646Y159655D01*
X650369D01*
X650211Y159646D01*
X647436D01*
Y166047D01*
X650248D01*
X650415Y166037D01*
D02*
G37*
G36*
X123973Y413287D02*
X122743D01*
Y417922D01*
X122734Y417912D01*
X122715Y417894D01*
X122678Y417866D01*
X122623Y417820D01*
X122558Y417764D01*
X122484Y417709D01*
X122392Y417644D01*
X122290Y417570D01*
X122179Y417496D01*
X122059Y417422D01*
X121929Y417339D01*
X121790Y417265D01*
X121494Y417126D01*
X121161Y416997D01*
Y418107D01*
X121171D01*
X121180Y418116D01*
X121208Y418125D01*
X121245Y418134D01*
X121337Y418181D01*
X121467Y418236D01*
X121624Y418310D01*
X121800Y418412D01*
X121994Y418541D01*
X122197Y418689D01*
X122207Y418699D01*
X122225Y418708D01*
X122253Y418736D01*
X122290Y418773D01*
X122392Y418865D01*
X122503Y418985D01*
X122632Y419133D01*
X122762Y419318D01*
X122882Y419513D01*
X122974Y419725D01*
X123973D01*
Y413287D01*
D02*
G37*
G36*
X656353Y166037D02*
X656594D01*
X656853Y166019D01*
X657112Y166000D01*
X657223Y165991D01*
X657334Y165982D01*
X657426Y165963D01*
X657500Y165945D01*
X657510D01*
X657528Y165936D01*
X657556Y165926D01*
X657593Y165917D01*
X657695Y165871D01*
X657824Y165815D01*
X657963Y165732D01*
X658120Y165621D01*
X658268Y165482D01*
X658416Y165316D01*
Y165307D01*
X658435Y165297D01*
X658453Y165270D01*
X658472Y165233D01*
X658509Y165177D01*
X658536Y165122D01*
X658573Y165057D01*
X658610Y164983D01*
X658675Y164798D01*
X658740Y164594D01*
X658777Y164345D01*
X658795Y164076D01*
Y164067D01*
Y164049D01*
Y164021D01*
Y163975D01*
X658786Y163928D01*
Y163864D01*
X658768Y163734D01*
X658740Y163577D01*
X658703Y163401D01*
X658647Y163235D01*
X658573Y163077D01*
X658564Y163059D01*
X658536Y163013D01*
X658490Y162939D01*
X658425Y162846D01*
X658351Y162754D01*
X658250Y162643D01*
X658148Y162541D01*
X658028Y162448D01*
X658009Y162439D01*
X657972Y162411D01*
X657907Y162374D01*
X657824Y162328D01*
X657722Y162273D01*
X657611Y162226D01*
X657491Y162180D01*
X657362Y162143D01*
X657343D01*
X657315Y162134D01*
X657278D01*
X657232Y162125D01*
X657167Y162115D01*
X657103Y162106D01*
X657019D01*
X656936Y162097D01*
X656834Y162088D01*
X656723Y162078D01*
X656603Y162069D01*
X656474D01*
X656335Y162060D01*
X655188D01*
Y159646D01*
X653893D01*
Y166047D01*
X656252D01*
X656353Y166037D01*
D02*
G37*
G36*
X673549Y164964D02*
X670099D01*
Y163549D01*
X673309D01*
Y162467D01*
X670099D01*
Y160728D01*
X673669D01*
Y159646D01*
X668804D01*
Y166047D01*
X673549D01*
Y164964D01*
D02*
G37*
G36*
X665317Y166037D02*
X665418D01*
X665520Y166028D01*
X665640D01*
X665881Y166000D01*
X666131Y165973D01*
X666362Y165926D01*
X666464Y165899D01*
X666556Y165871D01*
X666565D01*
X666575Y165862D01*
X666630Y165834D01*
X666713Y165788D01*
X666824Y165732D01*
X666945Y165640D01*
X667065Y165538D01*
X667185Y165408D01*
X667296Y165251D01*
Y165242D01*
X667305Y165233D01*
X667324Y165205D01*
X667342Y165177D01*
X667389Y165085D01*
X667444Y164964D01*
X667490Y164816D01*
X667537Y164650D01*
X667574Y164456D01*
X667583Y164252D01*
Y164243D01*
Y164224D01*
Y164178D01*
X667574Y164132D01*
Y164067D01*
X667564Y164002D01*
X667527Y163836D01*
X667481Y163642D01*
X667407Y163447D01*
X667296Y163244D01*
X667231Y163151D01*
X667157Y163059D01*
X667148Y163050D01*
X667139Y163040D01*
X667111Y163013D01*
X667074Y162985D01*
X667037Y162948D01*
X666982Y162902D01*
X666917Y162855D01*
X666843Y162809D01*
X666760Y162754D01*
X666658Y162707D01*
X666556Y162661D01*
X666445Y162615D01*
X666316Y162569D01*
X666186Y162532D01*
X666047Y162495D01*
X665890Y162467D01*
X665899D01*
X665909Y162458D01*
X665964Y162421D01*
X666038Y162374D01*
X666131Y162310D01*
X666242Y162226D01*
X666353Y162143D01*
X666473Y162041D01*
X666575Y161930D01*
X666584Y161921D01*
X666630Y161875D01*
X666686Y161801D01*
X666769Y161690D01*
X666880Y161551D01*
X666935Y161459D01*
X667000Y161366D01*
X667074Y161264D01*
X667148Y161153D01*
X667231Y161024D01*
X667315Y160894D01*
X668101Y159646D01*
X666547D01*
X665622Y161033D01*
X665613Y161042D01*
X665603Y161070D01*
X665576Y161107D01*
X665539Y161153D01*
X665502Y161209D01*
X665455Y161283D01*
X665354Y161431D01*
X665233Y161597D01*
X665122Y161745D01*
X665021Y161884D01*
X664974Y161930D01*
X664937Y161977D01*
X664928Y161986D01*
X664910Y162004D01*
X664873Y162041D01*
X664826Y162088D01*
X664762Y162125D01*
X664697Y162171D01*
X664623Y162208D01*
X664549Y162245D01*
X664540D01*
X664512Y162254D01*
X664466Y162273D01*
X664392Y162282D01*
X664299Y162300D01*
X664188Y162310D01*
X664059Y162319D01*
X663642D01*
Y159646D01*
X662347D01*
Y166047D01*
X665233D01*
X665317Y166037D01*
D02*
G37*
G36*
X704092Y413386D02*
X702861D01*
Y418020D01*
X702852Y418011D01*
X702834Y417992D01*
X702797Y417965D01*
X702741Y417918D01*
X702676Y417863D01*
X702602Y417807D01*
X702510Y417743D01*
X702408Y417669D01*
X702297Y417595D01*
X702177Y417521D01*
X702047Y417437D01*
X701908Y417363D01*
X701613Y417225D01*
X701279Y417095D01*
Y418205D01*
X701289D01*
X701298Y418214D01*
X701326Y418224D01*
X701363Y418233D01*
X701455Y418279D01*
X701585Y418335D01*
X701742Y418409D01*
X701918Y418510D01*
X702112Y418640D01*
X702316Y418788D01*
X702325Y418797D01*
X702343Y418806D01*
X702371Y418834D01*
X702408Y418871D01*
X702510Y418964D01*
X702621Y419084D01*
X702750Y419232D01*
X702880Y419417D01*
X703000Y419611D01*
X703092Y419824D01*
X704092D01*
Y413386D01*
D02*
G37*
G36*
X683127D02*
X681897D01*
Y418020D01*
X681887Y418011D01*
X681869Y417992D01*
X681832Y417965D01*
X681777Y417918D01*
X681712Y417863D01*
X681638Y417807D01*
X681545Y417743D01*
X681444Y417669D01*
X681332Y417595D01*
X681212Y417521D01*
X681083Y417437D01*
X680944Y417363D01*
X680648Y417225D01*
X680315Y417095D01*
Y418205D01*
X680324D01*
X680333Y418214D01*
X680361Y418224D01*
X680398Y418233D01*
X680491Y418279D01*
X680620Y418335D01*
X680778Y418409D01*
X680953Y418510D01*
X681147Y418640D01*
X681351Y418788D01*
X681360Y418797D01*
X681379Y418806D01*
X681406Y418834D01*
X681444Y418871D01*
X681545Y418964D01*
X681656Y419084D01*
X681786Y419232D01*
X681915Y419417D01*
X682035Y419611D01*
X682128Y419824D01*
X683127D01*
Y413386D01*
D02*
G37*
G36*
X692581Y419815D02*
X692664Y419805D01*
X692757Y419796D01*
X692859Y419778D01*
X692970Y419759D01*
X693210Y419694D01*
X693450Y419602D01*
X693580Y419546D01*
X693691Y419482D01*
X693811Y419398D01*
X693913Y419306D01*
X693922Y419297D01*
X693941Y419287D01*
X693959Y419250D01*
X693996Y419213D01*
X694042Y419167D01*
X694089Y419102D01*
X694135Y419038D01*
X694191Y418954D01*
X694283Y418769D01*
X694376Y418557D01*
X694413Y418436D01*
X694431Y418307D01*
X694450Y418168D01*
X694459Y418029D01*
Y418011D01*
Y417955D01*
X694450Y417872D01*
X694440Y417770D01*
X694422Y417641D01*
X694394Y417502D01*
X694357Y417354D01*
X694302Y417206D01*
X694292Y417188D01*
X694274Y417141D01*
X694237Y417058D01*
X694181Y416956D01*
X694116Y416836D01*
X694033Y416697D01*
X693931Y416549D01*
X693811Y416392D01*
X693802Y416383D01*
X693765Y416337D01*
X693710Y416272D01*
X693626Y416179D01*
X693515Y416068D01*
X693376Y415920D01*
X693210Y415763D01*
X693007Y415569D01*
X692997Y415560D01*
X692979Y415550D01*
X692951Y415523D01*
X692914Y415486D01*
X692812Y415393D01*
X692692Y415282D01*
X692572Y415162D01*
X692451Y415042D01*
X692341Y414940D01*
X692304Y414894D01*
X692267Y414857D01*
X692257Y414847D01*
X692239Y414829D01*
X692211Y414792D01*
X692174Y414746D01*
X692091Y414644D01*
X692017Y414524D01*
X694459D01*
Y413386D01*
X690158D01*
Y413395D01*
Y413414D01*
X690167Y413451D01*
X690176Y413497D01*
X690185Y413552D01*
X690195Y413617D01*
X690232Y413784D01*
X690287Y413969D01*
X690361Y414172D01*
X690453Y414394D01*
X690574Y414607D01*
Y414616D01*
X690592Y414635D01*
X690611Y414672D01*
X690648Y414709D01*
X690685Y414773D01*
X690740Y414838D01*
X690805Y414921D01*
X690879Y415014D01*
X690962Y415125D01*
X691064Y415236D01*
X691175Y415365D01*
X691304Y415504D01*
X691443Y415643D01*
X691601Y415800D01*
X691767Y415967D01*
X691952Y416142D01*
X691961Y416152D01*
X691989Y416179D01*
X692026Y416216D01*
X692081Y416272D01*
X692156Y416327D01*
X692230Y416401D01*
X692396Y416568D01*
X692562Y416744D01*
X692729Y416919D01*
X692803Y416993D01*
X692877Y417077D01*
X692933Y417141D01*
X692970Y417197D01*
X692979Y417215D01*
X693007Y417262D01*
X693053Y417336D01*
X693099Y417437D01*
X693145Y417548D01*
X693191Y417678D01*
X693219Y417807D01*
X693228Y417946D01*
Y417955D01*
Y417965D01*
Y418011D01*
X693219Y418094D01*
X693201Y418187D01*
X693173Y418288D01*
X693136Y418390D01*
X693081Y418492D01*
X693007Y418584D01*
X692997Y418594D01*
X692970Y418621D01*
X692914Y418658D01*
X692849Y418695D01*
X692757Y418732D01*
X692655Y418769D01*
X692535Y418797D01*
X692396Y418806D01*
X692331D01*
X692257Y418797D01*
X692174Y418779D01*
X692072Y418751D01*
X691970Y418705D01*
X691869Y418649D01*
X691776Y418575D01*
X691767Y418566D01*
X691739Y418529D01*
X691702Y418473D01*
X691665Y418390D01*
X691619Y418288D01*
X691582Y418150D01*
X691545Y417992D01*
X691527Y417807D01*
X690306Y417928D01*
Y417937D01*
X690315Y417974D01*
Y418020D01*
X690333Y418094D01*
X690343Y418177D01*
X690370Y418270D01*
X690398Y418372D01*
X690426Y418492D01*
X690518Y418723D01*
X690629Y418964D01*
X690703Y419084D01*
X690787Y419195D01*
X690879Y419287D01*
X690981Y419380D01*
X690990Y419389D01*
X691009Y419398D01*
X691036Y419417D01*
X691082Y419454D01*
X691138Y419482D01*
X691212Y419519D01*
X691286Y419565D01*
X691378Y419602D01*
X691480Y419648D01*
X691591Y419685D01*
X691832Y419759D01*
X692119Y419805D01*
X692267Y419815D01*
X692424Y419824D01*
X692516D01*
X692581Y419815D01*
D02*
G37*
G36*
X145036Y413091D02*
X143806D01*
Y417725D01*
X143797Y417716D01*
X143778Y417697D01*
X143741Y417669D01*
X143686Y417623D01*
X143621Y417568D01*
X143547Y417512D01*
X143455Y417447D01*
X143353Y417373D01*
X143242Y417299D01*
X143122Y417225D01*
X142992Y417142D01*
X142853Y417068D01*
X142557Y416929D01*
X142224Y416800D01*
Y417910D01*
X142234D01*
X142243Y417919D01*
X142271Y417928D01*
X142308Y417938D01*
X142400Y417984D01*
X142530Y418039D01*
X142687Y418113D01*
X142863Y418215D01*
X143057Y418344D01*
X143260Y418493D01*
X143270Y418502D01*
X143288Y418511D01*
X143316Y418539D01*
X143353Y418576D01*
X143455Y418668D01*
X143566Y418789D01*
X143695Y418936D01*
X143825Y419122D01*
X143945Y419316D01*
X144037Y419528D01*
X145036D01*
Y413091D01*
D02*
G37*
G36*
X133526Y419716D02*
X133609Y419707D01*
X133702Y419698D01*
X133803Y419679D01*
X133914Y419661D01*
X134155Y419596D01*
X134395Y419503D01*
X134525Y419448D01*
X134636Y419383D01*
X134756Y419300D01*
X134858Y419207D01*
X134867Y419198D01*
X134886Y419189D01*
X134904Y419152D01*
X134941Y419115D01*
X134987Y419069D01*
X135034Y419004D01*
X135080Y418939D01*
X135135Y418856D01*
X135228Y418671D01*
X135320Y418458D01*
X135357Y418338D01*
X135376Y418208D01*
X135394Y418070D01*
X135404Y417931D01*
Y417912D01*
Y417857D01*
X135394Y417774D01*
X135385Y417672D01*
X135367Y417542D01*
X135339Y417404D01*
X135302Y417256D01*
X135246Y417108D01*
X135237Y417089D01*
X135219Y417043D01*
X135182Y416960D01*
X135126Y416858D01*
X135061Y416738D01*
X134978Y416599D01*
X134876Y416451D01*
X134756Y416294D01*
X134747Y416284D01*
X134710Y416238D01*
X134654Y416173D01*
X134571Y416081D01*
X134460Y415970D01*
X134321Y415822D01*
X134155Y415665D01*
X133951Y415470D01*
X133942Y415461D01*
X133924Y415452D01*
X133896Y415424D01*
X133859Y415387D01*
X133757Y415295D01*
X133637Y415184D01*
X133517Y415063D01*
X133396Y414943D01*
X133285Y414841D01*
X133248Y414795D01*
X133211Y414758D01*
X133202Y414749D01*
X133184Y414730D01*
X133156Y414693D01*
X133119Y414647D01*
X133036Y414545D01*
X132962Y414425D01*
X135404D01*
Y413287D01*
X131102D01*
Y413297D01*
Y413315D01*
X131112Y413352D01*
X131121Y413398D01*
X131130Y413454D01*
X131139Y413519D01*
X131176Y413685D01*
X131232Y413870D01*
X131306Y414074D01*
X131398Y414296D01*
X131519Y414508D01*
Y414518D01*
X131537Y414536D01*
X131556Y414573D01*
X131593Y414610D01*
X131630Y414675D01*
X131685Y414740D01*
X131750Y414823D01*
X131824Y414915D01*
X131907Y415026D01*
X132009Y415137D01*
X132120Y415267D01*
X132249Y415406D01*
X132388Y415544D01*
X132545Y415702D01*
X132712Y415868D01*
X132897Y416044D01*
X132906Y416053D01*
X132934Y416081D01*
X132971Y416118D01*
X133026Y416173D01*
X133100Y416229D01*
X133174Y416303D01*
X133341Y416469D01*
X133507Y416645D01*
X133674Y416821D01*
X133748Y416895D01*
X133822Y416978D01*
X133877Y417043D01*
X133914Y417098D01*
X133924Y417117D01*
X133951Y417163D01*
X133998Y417237D01*
X134044Y417339D01*
X134090Y417450D01*
X134136Y417579D01*
X134164Y417709D01*
X134173Y417848D01*
Y417857D01*
Y417866D01*
Y417912D01*
X134164Y417996D01*
X134146Y418088D01*
X134118Y418190D01*
X134081Y418292D01*
X134025Y418393D01*
X133951Y418486D01*
X133942Y418495D01*
X133914Y418523D01*
X133859Y418560D01*
X133794Y418597D01*
X133702Y418634D01*
X133600Y418671D01*
X133480Y418699D01*
X133341Y418708D01*
X133276D01*
X133202Y418699D01*
X133119Y418680D01*
X133017Y418652D01*
X132915Y418606D01*
X132814Y418551D01*
X132721Y418477D01*
X132712Y418467D01*
X132684Y418430D01*
X132647Y418375D01*
X132610Y418292D01*
X132564Y418190D01*
X132527Y418051D01*
X132490Y417894D01*
X132471Y417709D01*
X131250Y417829D01*
Y417838D01*
X131260Y417875D01*
Y417922D01*
X131278Y417996D01*
X131287Y418079D01*
X131315Y418171D01*
X131343Y418273D01*
X131371Y418393D01*
X131463Y418625D01*
X131574Y418865D01*
X131648Y418985D01*
X131731Y419096D01*
X131824Y419189D01*
X131926Y419281D01*
X131935Y419291D01*
X131953Y419300D01*
X131981Y419318D01*
X132027Y419355D01*
X132083Y419383D01*
X132157Y419420D01*
X132231Y419466D01*
X132323Y419503D01*
X132425Y419550D01*
X132536Y419587D01*
X132777Y419661D01*
X133063Y419707D01*
X133211Y419716D01*
X133369Y419725D01*
X133461D01*
X133526Y419716D01*
D02*
G37*
G36*
X156136Y429728D02*
X154249D01*
Y424409D01*
X152954D01*
Y429728D01*
X151057D01*
Y430810D01*
X156136D01*
Y429728D01*
D02*
G37*
G36*
X658008Y173391D02*
X658020Y173403D01*
X658043Y173426D01*
X658090Y173472D01*
X658137Y173531D01*
X658218Y173601D01*
X658300Y173671D01*
X658405Y173752D01*
X658510Y173846D01*
X658638Y173927D01*
X658778Y174009D01*
X659081Y174149D01*
X659244Y174207D01*
X659419Y174254D01*
X659606Y174277D01*
X659793Y174289D01*
X659886D01*
X659991Y174277D01*
X660119Y174265D01*
X660271Y174242D01*
X660422Y174195D01*
X660597Y174149D01*
X660760Y174079D01*
X660784Y174067D01*
X660830Y174044D01*
X660912Y173997D01*
X661005Y173939D01*
X661110Y173869D01*
X661215Y173787D01*
X661320Y173682D01*
X661413Y173577D01*
X661425Y173566D01*
X661448Y173519D01*
X661483Y173461D01*
X661530Y173379D01*
X661588Y173274D01*
X661635Y173158D01*
X661681Y173029D01*
X661716Y172889D01*
Y172878D01*
X661728Y172819D01*
X661740Y172726D01*
X661763Y172610D01*
X661775Y172446D01*
X661786Y172248D01*
X661798Y172015D01*
Y171735D01*
Y168307D01*
X660247D01*
Y171385D01*
Y171397D01*
Y171420D01*
Y171467D01*
Y171537D01*
Y171607D01*
Y171688D01*
X660236Y171875D01*
X660224Y172073D01*
X660212Y172272D01*
X660189Y172435D01*
X660166Y172493D01*
X660154Y172551D01*
Y172563D01*
X660131Y172598D01*
X660107Y172633D01*
X660084Y172691D01*
X659979Y172819D01*
X659921Y172889D01*
X659839Y172948D01*
X659828Y172959D01*
X659804Y172971D01*
X659746Y172994D01*
X659688Y173029D01*
X659606Y173053D01*
X659513Y173076D01*
X659396Y173088D01*
X659279Y173099D01*
X659209D01*
X659139Y173088D01*
X659046Y173076D01*
X658941Y173053D01*
X658825Y173018D01*
X658708Y172971D01*
X658592Y172901D01*
X658580Y172889D01*
X658545Y172866D01*
X658487Y172819D01*
X658428Y172761D01*
X658347Y172680D01*
X658277Y172586D01*
X658207Y172470D01*
X658148Y172342D01*
Y172330D01*
X658125Y172272D01*
X658102Y172190D01*
X658078Y172062D01*
X658055Y171910D01*
X658032Y171712D01*
X658020Y171490D01*
X658008Y171234D01*
Y168307D01*
X656458D01*
Y176376D01*
X658008D01*
Y173391D01*
D02*
G37*
G36*
X699448Y174277D02*
X699565Y174265D01*
X699693Y174242D01*
X699845Y174219D01*
X699996Y174184D01*
X700171Y174137D01*
X700346Y174079D01*
X700521Y174009D01*
X700707Y173927D01*
X700894Y173822D01*
X701069Y173706D01*
X701244Y173577D01*
X701407Y173426D01*
X701419Y173414D01*
X701442Y173391D01*
X701489Y173333D01*
X701535Y173274D01*
X701605Y173181D01*
X701675Y173088D01*
X701757Y172959D01*
X701838Y172831D01*
X701908Y172680D01*
X701990Y172516D01*
X702060Y172330D01*
X702130Y172143D01*
X702177Y171933D01*
X702223Y171723D01*
X702247Y171490D01*
X702258Y171245D01*
Y171234D01*
Y171187D01*
Y171117D01*
X702247Y171024D01*
X702235Y170907D01*
X702212Y170779D01*
X702188Y170627D01*
X702153Y170476D01*
X702107Y170301D01*
X702048Y170126D01*
X701978Y169939D01*
X701897Y169753D01*
X701792Y169566D01*
X701675Y169392D01*
X701547Y169217D01*
X701395Y169042D01*
X701384Y169030D01*
X701360Y169007D01*
X701314Y168960D01*
X701244Y168902D01*
X701162Y168843D01*
X701057Y168773D01*
X700941Y168692D01*
X700812Y168610D01*
X700661Y168529D01*
X700497Y168447D01*
X700323Y168377D01*
X700124Y168319D01*
X699926Y168260D01*
X699705Y168214D01*
X699483Y168191D01*
X699238Y168179D01*
X699157D01*
X699098Y168191D01*
X699028D01*
X698947Y168202D01*
X698748Y168226D01*
X698504Y168272D01*
X698247Y168330D01*
X697979Y168424D01*
X697699Y168540D01*
X697687D01*
X697664Y168552D01*
X697629Y168575D01*
X697582Y168610D01*
X697454Y168692D01*
X697291Y168808D01*
X697116Y168960D01*
X696930Y169147D01*
X696755Y169357D01*
X696591Y169601D01*
Y169613D01*
X696580Y169636D01*
X696557Y169671D01*
X696533Y169730D01*
X696510Y169800D01*
X696475Y169881D01*
X696440Y169975D01*
X696405Y170079D01*
X696370Y170196D01*
X696335Y170324D01*
X696277Y170616D01*
X696230Y170954D01*
X696218Y171315D01*
Y171327D01*
Y171350D01*
Y171397D01*
X696230Y171444D01*
Y171514D01*
X696242Y171595D01*
X696265Y171793D01*
X696312Y172015D01*
X696382Y172260D01*
X696463Y172528D01*
X696591Y172796D01*
Y172808D01*
X696615Y172831D01*
X696626Y172866D01*
X696661Y172913D01*
X696755Y173041D01*
X696871Y173204D01*
X697023Y173379D01*
X697209Y173566D01*
X697419Y173741D01*
X697664Y173904D01*
X697676D01*
X697699Y173916D01*
X697734Y173939D01*
X697792Y173962D01*
X697851Y173997D01*
X697932Y174021D01*
X698026Y174056D01*
X698119Y174102D01*
X698352Y174172D01*
X698620Y174230D01*
X698912Y174277D01*
X699227Y174289D01*
X699355D01*
X699448Y174277D01*
D02*
G37*
G36*
X651129Y168307D02*
X649695D01*
Y169182D01*
X649683Y169158D01*
X649637Y169100D01*
X649567Y169018D01*
X649462Y168913D01*
X649345Y168785D01*
X649193Y168669D01*
X649030Y168540D01*
X648844Y168435D01*
X648820Y168424D01*
X648750Y168400D01*
X648645Y168354D01*
X648506Y168307D01*
X648342Y168260D01*
X648156Y168214D01*
X647958Y168191D01*
X647748Y168179D01*
X647643D01*
X647538Y168191D01*
X647398Y168214D01*
X647223Y168237D01*
X647048Y168284D01*
X646862Y168354D01*
X646687Y168435D01*
X646663Y168447D01*
X646617Y168482D01*
X646523Y168540D01*
X646430Y168622D01*
X646313Y168727D01*
X646209Y168843D01*
X646104Y168995D01*
X646010Y169158D01*
X645999Y169182D01*
X645975Y169240D01*
X645940Y169345D01*
X645905Y169496D01*
X645870Y169683D01*
X645835Y169904D01*
X645812Y170161D01*
X645800Y170452D01*
Y174160D01*
X647351D01*
Y171467D01*
Y171455D01*
Y171409D01*
Y171350D01*
Y171269D01*
Y171176D01*
Y171071D01*
X647363Y170826D01*
X647375Y170557D01*
X647386Y170313D01*
X647398Y170208D01*
X647410Y170103D01*
X647421Y170021D01*
X647433Y169963D01*
Y169951D01*
X647444Y169916D01*
X647468Y169869D01*
X647503Y169800D01*
X647538Y169730D01*
X647596Y169660D01*
X647654Y169590D01*
X647736Y169520D01*
X647748Y169508D01*
X647783Y169496D01*
X647829Y169473D01*
X647899Y169450D01*
X647981Y169415D01*
X648086Y169392D01*
X648191Y169380D01*
X648319Y169368D01*
X648389D01*
X648459Y169380D01*
X648552Y169392D01*
X648669Y169415D01*
X648785Y169461D01*
X648914Y169508D01*
X649030Y169578D01*
X649042Y169590D01*
X649077Y169613D01*
X649135Y169660D01*
X649205Y169730D01*
X649275Y169811D01*
X649345Y169893D01*
X649415Y169998D01*
X649462Y170114D01*
Y170126D01*
X649485Y170184D01*
Y170231D01*
X649497Y170289D01*
X649508Y170348D01*
X649520Y170429D01*
X649532Y170534D01*
X649543Y170639D01*
X649555Y170767D01*
Y170919D01*
X649567Y171082D01*
X649578Y171269D01*
Y171467D01*
Y171688D01*
Y174160D01*
X651129D01*
Y168307D01*
D02*
G37*
G36*
X712157Y174277D02*
X712274Y174265D01*
X712402Y174254D01*
X712542Y174242D01*
X712834Y174195D01*
X713125Y174125D01*
X713405Y174021D01*
X713533Y173962D01*
X713650Y173892D01*
X713662D01*
X713673Y173869D01*
X713743Y173822D01*
X713848Y173729D01*
X713965Y173601D01*
X714105Y173449D01*
X714233Y173251D01*
X714361Y173018D01*
X714455Y172749D01*
X712997Y172481D01*
Y172493D01*
X712974Y172540D01*
X712950Y172598D01*
X712915Y172668D01*
X712869Y172761D01*
X712799Y172843D01*
X712729Y172924D01*
X712636Y172994D01*
X712624Y173006D01*
X712589Y173029D01*
X712531Y173053D01*
X712449Y173088D01*
X712344Y173123D01*
X712216Y173158D01*
X712064Y173169D01*
X711889Y173181D01*
X711784D01*
X711680Y173169D01*
X711551Y173158D01*
X711400Y173134D01*
X711260Y173111D01*
X711131Y173064D01*
X711015Y173006D01*
X711003D01*
X710991Y172983D01*
X710933Y172924D01*
X710863Y172819D01*
X710852Y172761D01*
X710840Y172691D01*
Y172680D01*
Y172668D01*
X710863Y172598D01*
X710910Y172505D01*
X710945Y172458D01*
X710991Y172411D01*
X711003Y172400D01*
X711050Y172388D01*
X711073Y172365D01*
X711120Y172353D01*
X711178Y172330D01*
X711248Y172295D01*
X711341Y172272D01*
X711435Y172237D01*
X711551Y172202D01*
X711691Y172167D01*
X711843Y172120D01*
X712018Y172073D01*
X712216Y172027D01*
X712437Y171968D01*
X712449D01*
X712496Y171957D01*
X712554Y171945D01*
X712636Y171922D01*
X712741Y171887D01*
X712857Y171863D01*
X713114Y171782D01*
X713405Y171677D01*
X713685Y171560D01*
X713825Y171490D01*
X713953Y171432D01*
X714058Y171350D01*
X714163Y171280D01*
X714186Y171257D01*
X714245Y171210D01*
X714315Y171117D01*
X714408Y170989D01*
X714501Y170826D01*
X714571Y170627D01*
X714630Y170394D01*
X714653Y170138D01*
Y170126D01*
Y170103D01*
Y170056D01*
X714641Y169998D01*
X714630Y169939D01*
X714618Y169858D01*
X714571Y169660D01*
X714490Y169450D01*
X714431Y169333D01*
X714373Y169217D01*
X714291Y169100D01*
X714198Y168983D01*
X714093Y168867D01*
X713976Y168750D01*
X713965Y168738D01*
X713941Y168727D01*
X713906Y168703D01*
X713848Y168657D01*
X713778Y168622D01*
X713697Y168575D01*
X713592Y168517D01*
X713475Y168470D01*
X713347Y168412D01*
X713195Y168365D01*
X713032Y168307D01*
X712857Y168272D01*
X712659Y168237D01*
X712449Y168202D01*
X712227Y168191D01*
X711994Y168179D01*
X711878D01*
X711796Y168191D01*
X711691D01*
X711575Y168202D01*
X711446Y168214D01*
X711306Y168237D01*
X711003Y168295D01*
X710688Y168377D01*
X710374Y168494D01*
X710234Y168575D01*
X710094Y168657D01*
X710082Y168669D01*
X710059Y168680D01*
X710024Y168703D01*
X709989Y168750D01*
X709861Y168855D01*
X709721Y169007D01*
X709569Y169193D01*
X709429Y169415D01*
X709301Y169683D01*
X709196Y169975D01*
X710747Y170208D01*
Y170184D01*
X710770Y170138D01*
X710793Y170056D01*
X710828Y169951D01*
X710887Y169834D01*
X710957Y169730D01*
X711038Y169613D01*
X711143Y169520D01*
X711155Y169508D01*
X711201Y169485D01*
X711271Y169450D01*
X711365Y169415D01*
X711481Y169368D01*
X711633Y169333D01*
X711796Y169310D01*
X711994Y169298D01*
X712088D01*
X712204Y169310D01*
X712332Y169322D01*
X712472Y169345D01*
X712624Y169392D01*
X712764Y169438D01*
X712892Y169508D01*
X712904Y169520D01*
X712927Y169543D01*
X712962Y169578D01*
X712997Y169625D01*
X713032Y169683D01*
X713067Y169753D01*
X713090Y169834D01*
X713102Y169928D01*
Y169939D01*
Y169963D01*
X713090Y170033D01*
X713055Y170126D01*
X712985Y170219D01*
X712962Y170243D01*
X712927Y170254D01*
X712881Y170289D01*
X712811Y170313D01*
X712717Y170348D01*
X712612Y170383D01*
X712472Y170418D01*
X712449D01*
X712391Y170441D01*
X712297Y170464D01*
X712169Y170487D01*
X712018Y170522D01*
X711854Y170569D01*
X711668Y170616D01*
X711470Y170674D01*
X711061Y170791D01*
X710863Y170849D01*
X710677Y170919D01*
X710502Y170977D01*
X710339Y171047D01*
X710199Y171117D01*
X710094Y171176D01*
X710082Y171187D01*
X710059Y171199D01*
X710035Y171222D01*
X709989Y171269D01*
X709872Y171374D01*
X709756Y171525D01*
X709627Y171712D01*
X709511Y171933D01*
X709464Y172062D01*
X709441Y172202D01*
X709417Y172342D01*
X709406Y172493D01*
Y172505D01*
Y172528D01*
Y172563D01*
X709417Y172621D01*
X709429Y172680D01*
X709441Y172761D01*
X709476Y172936D01*
X709546Y173134D01*
X709662Y173344D01*
X709721Y173461D01*
X709802Y173566D01*
X709896Y173671D01*
X710000Y173764D01*
X710012Y173776D01*
X710024Y173787D01*
X710059Y173811D01*
X710117Y173846D01*
X710175Y173881D01*
X710257Y173927D01*
X710350Y173974D01*
X710455Y174032D01*
X710583Y174079D01*
X710723Y174125D01*
X710875Y174172D01*
X711038Y174207D01*
X711225Y174242D01*
X711423Y174265D01*
X711633Y174289D01*
X712064D01*
X712157Y174277D01*
D02*
G37*
G36*
X705885D02*
X706001Y174265D01*
X706129Y174254D01*
X706269Y174242D01*
X706561Y174195D01*
X706852Y174125D01*
X707132Y174021D01*
X707260Y173962D01*
X707377Y173892D01*
X707389D01*
X707400Y173869D01*
X707470Y173822D01*
X707575Y173729D01*
X707692Y173601D01*
X707832Y173449D01*
X707960Y173251D01*
X708088Y173018D01*
X708181Y172749D01*
X706724Y172481D01*
Y172493D01*
X706701Y172540D01*
X706677Y172598D01*
X706642Y172668D01*
X706596Y172761D01*
X706526Y172843D01*
X706456Y172924D01*
X706362Y172994D01*
X706351Y173006D01*
X706316Y173029D01*
X706258Y173053D01*
X706176Y173088D01*
X706071Y173123D01*
X705943Y173158D01*
X705791Y173169D01*
X705616Y173181D01*
X705511D01*
X705406Y173169D01*
X705278Y173158D01*
X705127Y173134D01*
X704987Y173111D01*
X704858Y173064D01*
X704742Y173006D01*
X704730D01*
X704718Y172983D01*
X704660Y172924D01*
X704590Y172819D01*
X704578Y172761D01*
X704567Y172691D01*
Y172680D01*
Y172668D01*
X704590Y172598D01*
X704637Y172505D01*
X704672Y172458D01*
X704718Y172411D01*
X704730Y172400D01*
X704777Y172388D01*
X704800Y172365D01*
X704847Y172353D01*
X704905Y172330D01*
X704975Y172295D01*
X705068Y172272D01*
X705162Y172237D01*
X705278Y172202D01*
X705418Y172167D01*
X705570Y172120D01*
X705745Y172073D01*
X705943Y172027D01*
X706164Y171968D01*
X706176D01*
X706223Y171957D01*
X706281Y171945D01*
X706362Y171922D01*
X706467Y171887D01*
X706584Y171863D01*
X706841Y171782D01*
X707132Y171677D01*
X707412Y171560D01*
X707552Y171490D01*
X707680Y171432D01*
X707785Y171350D01*
X707890Y171280D01*
X707913Y171257D01*
X707972Y171210D01*
X708042Y171117D01*
X708135Y170989D01*
X708228Y170826D01*
X708298Y170627D01*
X708356Y170394D01*
X708380Y170138D01*
Y170126D01*
Y170103D01*
Y170056D01*
X708368Y169998D01*
X708356Y169939D01*
X708345Y169858D01*
X708298Y169660D01*
X708216Y169450D01*
X708158Y169333D01*
X708100Y169217D01*
X708018Y169100D01*
X707925Y168983D01*
X707820Y168867D01*
X707703Y168750D01*
X707692Y168738D01*
X707668Y168727D01*
X707633Y168703D01*
X707575Y168657D01*
X707505Y168622D01*
X707424Y168575D01*
X707319Y168517D01*
X707202Y168470D01*
X707074Y168412D01*
X706922Y168365D01*
X706759Y168307D01*
X706584Y168272D01*
X706386Y168237D01*
X706176Y168202D01*
X705954Y168191D01*
X705721Y168179D01*
X705605D01*
X705523Y168191D01*
X705418D01*
X705302Y168202D01*
X705173Y168214D01*
X705033Y168237D01*
X704730Y168295D01*
X704415Y168377D01*
X704101Y168494D01*
X703961Y168575D01*
X703821Y168657D01*
X703809Y168669D01*
X703786Y168680D01*
X703751Y168703D01*
X703716Y168750D01*
X703587Y168855D01*
X703447Y169007D01*
X703296Y169193D01*
X703156Y169415D01*
X703028Y169683D01*
X702923Y169975D01*
X704474Y170208D01*
Y170184D01*
X704497Y170138D01*
X704520Y170056D01*
X704555Y169951D01*
X704613Y169834D01*
X704683Y169730D01*
X704765Y169613D01*
X704870Y169520D01*
X704882Y169508D01*
X704928Y169485D01*
X704998Y169450D01*
X705092Y169415D01*
X705208Y169368D01*
X705360Y169333D01*
X705523Y169310D01*
X705721Y169298D01*
X705815D01*
X705931Y169310D01*
X706059Y169322D01*
X706199Y169345D01*
X706351Y169392D01*
X706491Y169438D01*
X706619Y169508D01*
X706631Y169520D01*
X706654Y169543D01*
X706689Y169578D01*
X706724Y169625D01*
X706759Y169683D01*
X706794Y169753D01*
X706817Y169834D01*
X706829Y169928D01*
Y169939D01*
Y169963D01*
X706817Y170033D01*
X706782Y170126D01*
X706712Y170219D01*
X706689Y170243D01*
X706654Y170254D01*
X706607Y170289D01*
X706537Y170313D01*
X706444Y170348D01*
X706339Y170383D01*
X706199Y170418D01*
X706176D01*
X706118Y170441D01*
X706024Y170464D01*
X705896Y170487D01*
X705745Y170522D01*
X705581Y170569D01*
X705395Y170616D01*
X705197Y170674D01*
X704788Y170791D01*
X704590Y170849D01*
X704404Y170919D01*
X704229Y170977D01*
X704066Y171047D01*
X703926Y171117D01*
X703821Y171176D01*
X703809Y171187D01*
X703786Y171199D01*
X703762Y171222D01*
X703716Y171269D01*
X703599Y171374D01*
X703482Y171525D01*
X703354Y171712D01*
X703238Y171933D01*
X703191Y172062D01*
X703168Y172202D01*
X703144Y172342D01*
X703133Y172493D01*
Y172505D01*
Y172528D01*
Y172563D01*
X703144Y172621D01*
X703156Y172680D01*
X703168Y172761D01*
X703203Y172936D01*
X703273Y173134D01*
X703389Y173344D01*
X703447Y173461D01*
X703529Y173566D01*
X703622Y173671D01*
X703727Y173764D01*
X703739Y173776D01*
X703751Y173787D01*
X703786Y173811D01*
X703844Y173846D01*
X703902Y173881D01*
X703984Y173927D01*
X704077Y173974D01*
X704182Y174032D01*
X704310Y174079D01*
X704450Y174125D01*
X704602Y174172D01*
X704765Y174207D01*
X704952Y174242D01*
X705150Y174265D01*
X705360Y174289D01*
X705791D01*
X705885Y174277D01*
D02*
G37*
G36*
X133464Y442310D02*
X135138D01*
Y441163D01*
X133464D01*
Y439508D01*
X132344D01*
Y441163D01*
X130661D01*
Y442310D01*
X132344D01*
Y443966D01*
X133464D01*
Y442310D01*
D02*
G37*
G36*
X696259Y443295D02*
X697933D01*
Y442148D01*
X696259D01*
Y440492D01*
X695140D01*
Y442148D01*
X693456D01*
Y443295D01*
X695140D01*
Y444950D01*
X696259D01*
Y443295D01*
D02*
G37*
G36*
X641813Y174277D02*
X641929Y174265D01*
X642058Y174242D01*
X642209Y174219D01*
X642361Y174184D01*
X642536Y174137D01*
X642711Y174079D01*
X642885Y174009D01*
X643072Y173927D01*
X643259Y173822D01*
X643434Y173706D01*
X643608Y173577D01*
X643772Y173426D01*
X643783Y173414D01*
X643807Y173391D01*
X643853Y173333D01*
X643900Y173274D01*
X643970Y173181D01*
X644040Y173088D01*
X644121Y172959D01*
X644203Y172831D01*
X644273Y172680D01*
X644355Y172516D01*
X644425Y172330D01*
X644495Y172143D01*
X644541Y171933D01*
X644588Y171723D01*
X644611Y171490D01*
X644623Y171245D01*
Y171234D01*
Y171187D01*
Y171117D01*
X644611Y171024D01*
X644599Y170907D01*
X644576Y170779D01*
X644553Y170627D01*
X644518Y170476D01*
X644471Y170301D01*
X644413Y170126D01*
X644343Y169939D01*
X644261Y169753D01*
X644156Y169566D01*
X644040Y169392D01*
X643912Y169217D01*
X643760Y169042D01*
X643748Y169030D01*
X643725Y169007D01*
X643678Y168960D01*
X643608Y168902D01*
X643527Y168843D01*
X643422Y168773D01*
X643305Y168692D01*
X643177Y168610D01*
X643025Y168529D01*
X642862Y168447D01*
X642687Y168377D01*
X642489Y168319D01*
X642291Y168260D01*
X642069Y168214D01*
X641848Y168191D01*
X641603Y168179D01*
X641521D01*
X641463Y168191D01*
X641393D01*
X641311Y168202D01*
X641113Y168226D01*
X640868Y168272D01*
X640612Y168330D01*
X640344Y168424D01*
X640064Y168540D01*
X640052D01*
X640029Y168552D01*
X639994Y168575D01*
X639947Y168610D01*
X639819Y168692D01*
X639656Y168808D01*
X639481Y168960D01*
X639294Y169147D01*
X639119Y169357D01*
X638956Y169601D01*
Y169613D01*
X638944Y169636D01*
X638921Y169671D01*
X638898Y169730D01*
X638874Y169800D01*
X638839Y169881D01*
X638804Y169975D01*
X638769Y170079D01*
X638734Y170196D01*
X638699Y170324D01*
X638641Y170616D01*
X638595Y170954D01*
X638583Y171315D01*
Y171327D01*
Y171350D01*
Y171397D01*
X638595Y171444D01*
Y171514D01*
X638606Y171595D01*
X638630Y171793D01*
X638676Y172015D01*
X638746Y172260D01*
X638828Y172528D01*
X638956Y172796D01*
Y172808D01*
X638979Y172831D01*
X638991Y172866D01*
X639026Y172913D01*
X639119Y173041D01*
X639236Y173204D01*
X639388Y173379D01*
X639574Y173566D01*
X639784Y173741D01*
X640029Y173904D01*
X640040D01*
X640064Y173916D01*
X640099Y173939D01*
X640157Y173962D01*
X640215Y173997D01*
X640297Y174021D01*
X640390Y174056D01*
X640484Y174102D01*
X640717Y174172D01*
X640985Y174230D01*
X641276Y174277D01*
X641591Y174289D01*
X641719D01*
X641813Y174277D01*
D02*
G37*
G36*
X665809D02*
X665914Y174265D01*
X666042Y174242D01*
X666182Y174219D01*
X666334Y174184D01*
X666497Y174137D01*
X666660Y174079D01*
X666835Y174009D01*
X667010Y173916D01*
X667173Y173822D01*
X667337Y173706D01*
X667500Y173566D01*
X667640Y173414D01*
X667651Y173403D01*
X667675Y173379D01*
X667710Y173321D01*
X667756Y173251D01*
X667815Y173158D01*
X667873Y173053D01*
X667943Y172913D01*
X668013Y172761D01*
X668083Y172586D01*
X668153Y172388D01*
X668211Y172178D01*
X668269Y171933D01*
X668316Y171677D01*
X668351Y171397D01*
X668374Y171106D01*
Y170779D01*
X664503D01*
Y170767D01*
Y170744D01*
Y170709D01*
X664515Y170662D01*
X664526Y170546D01*
X664550Y170383D01*
X664596Y170219D01*
X664666Y170033D01*
X664748Y169858D01*
X664865Y169706D01*
X664876Y169695D01*
X664934Y169648D01*
X665004Y169590D01*
X665109Y169520D01*
X665238Y169450D01*
X665401Y169392D01*
X665576Y169345D01*
X665762Y169333D01*
X665821D01*
X665891Y169345D01*
X665972Y169357D01*
X666066Y169380D01*
X666171Y169415D01*
X666275Y169461D01*
X666369Y169531D01*
X666380Y169543D01*
X666415Y169566D01*
X666462Y169613D01*
X666509Y169683D01*
X666579Y169776D01*
X666637Y169881D01*
X666695Y170021D01*
X666753Y170173D01*
X668293Y169916D01*
Y169904D01*
X668281Y169881D01*
X668258Y169834D01*
X668234Y169776D01*
X668199Y169706D01*
X668164Y169625D01*
X668059Y169438D01*
X667931Y169228D01*
X667768Y169007D01*
X667570Y168808D01*
X667348Y168622D01*
X667337D01*
X667325Y168599D01*
X667278Y168587D01*
X667232Y168552D01*
X667173Y168517D01*
X667092Y168482D01*
X667010Y168447D01*
X666905Y168400D01*
X666672Y168319D01*
X666404Y168249D01*
X666089Y168202D01*
X665751Y168179D01*
X665681D01*
X665611Y168191D01*
X665506D01*
X665378Y168214D01*
X665226Y168237D01*
X665063Y168260D01*
X664900Y168307D01*
X664713Y168354D01*
X664526Y168424D01*
X664340Y168505D01*
X664153Y168599D01*
X663967Y168715D01*
X663792Y168843D01*
X663640Y168995D01*
X663489Y169170D01*
X663477Y169182D01*
X663465Y169205D01*
X663442Y169252D01*
X663395Y169310D01*
X663360Y169392D01*
X663314Y169485D01*
X663256Y169590D01*
X663209Y169718D01*
X663151Y169858D01*
X663104Y170009D01*
X663046Y170173D01*
X663011Y170359D01*
X662976Y170546D01*
X662941Y170744D01*
X662929Y170966D01*
X662917Y171187D01*
Y171199D01*
Y171245D01*
Y171327D01*
X662929Y171432D01*
X662941Y171549D01*
X662952Y171688D01*
X662976Y171840D01*
X663011Y172015D01*
X663104Y172376D01*
X663162Y172563D01*
X663232Y172761D01*
X663326Y172948D01*
X663430Y173123D01*
X663547Y173298D01*
X663675Y173461D01*
X663687Y173472D01*
X663710Y173496D01*
X663757Y173542D01*
X663815Y173589D01*
X663885Y173647D01*
X663978Y173717D01*
X664083Y173799D01*
X664200Y173881D01*
X664328Y173951D01*
X664480Y174032D01*
X664631Y174102D01*
X664806Y174160D01*
X664981Y174207D01*
X665179Y174254D01*
X665378Y174277D01*
X665588Y174289D01*
X665716D01*
X665809Y174277D01*
D02*
G37*
G36*
X654347Y174160D02*
X655408D01*
Y172924D01*
X654347D01*
Y170557D01*
Y170546D01*
Y170522D01*
Y170487D01*
Y170441D01*
Y170324D01*
Y170184D01*
X654359Y170044D01*
Y169904D01*
Y169800D01*
X654371Y169753D01*
Y169730D01*
X654382Y169706D01*
X654406Y169660D01*
X654440Y169601D01*
X654510Y169531D01*
X654534Y169520D01*
X654580Y169496D01*
X654662Y169473D01*
X654767Y169461D01*
X654814D01*
X654860Y169473D01*
X654930Y169485D01*
X655023Y169496D01*
X655128Y169520D01*
X655257Y169555D01*
X655397Y169601D01*
X655537Y168400D01*
X655525D01*
X655513Y168389D01*
X655443Y168365D01*
X655327Y168330D01*
X655175Y168295D01*
X655000Y168249D01*
X654790Y168214D01*
X654557Y168191D01*
X654312Y168179D01*
X654242D01*
X654161Y168191D01*
X654056Y168202D01*
X653939Y168214D01*
X653811Y168237D01*
X653683Y168272D01*
X653554Y168319D01*
X653543Y168330D01*
X653496Y168342D01*
X653438Y168377D01*
X653368Y168412D01*
X653205Y168529D01*
X653123Y168599D01*
X653053Y168680D01*
X653041Y168692D01*
X653030Y168727D01*
X653006Y168773D01*
X652971Y168843D01*
X652936Y168925D01*
X652901Y169030D01*
X652866Y169147D01*
X652843Y169275D01*
Y169287D01*
X652832Y169333D01*
Y169403D01*
X652820Y169520D01*
X652808Y169671D01*
Y169858D01*
X652797Y169963D01*
Y170091D01*
Y170219D01*
Y170371D01*
Y172924D01*
X652085D01*
Y174160D01*
X652797D01*
Y175326D01*
X654347Y176236D01*
Y174160D01*
D02*
G37*
G36*
X696065Y432185D02*
X694668D01*
X692374Y438586D01*
X693771D01*
X695399Y433850D01*
X696962Y438586D01*
X698340D01*
X696065Y432185D01*
D02*
G37*
G36*
X691819Y437356D02*
X689497D01*
X689303Y436264D01*
X689312D01*
X689322Y436273D01*
X689377Y436301D01*
X689460Y436329D01*
X689562Y436375D01*
X689691Y436412D01*
X689830Y436440D01*
X689988Y436468D01*
X690145Y436477D01*
X690228D01*
X690283Y436468D01*
X690348Y436458D01*
X690431Y436449D01*
X690524Y436431D01*
X690626Y436403D01*
X690838Y436329D01*
X690959Y436283D01*
X691070Y436227D01*
X691190Y436153D01*
X691310Y436070D01*
X691421Y435978D01*
X691532Y435876D01*
X691541Y435866D01*
X691560Y435848D01*
X691588Y435811D01*
X691625Y435765D01*
X691662Y435709D01*
X691717Y435635D01*
X691763Y435552D01*
X691819Y435460D01*
X691875Y435358D01*
X691921Y435238D01*
X691976Y435108D01*
X692013Y434978D01*
X692050Y434831D01*
X692078Y434673D01*
X692097Y434507D01*
X692106Y434331D01*
Y434322D01*
Y434294D01*
Y434257D01*
X692097Y434201D01*
Y434128D01*
X692078Y434044D01*
X692069Y433952D01*
X692050Y433859D01*
X691995Y433637D01*
X691912Y433397D01*
X691856Y433267D01*
X691800Y433147D01*
X691726Y433027D01*
X691643Y432906D01*
X691634Y432897D01*
X691615Y432869D01*
X691578Y432832D01*
X691532Y432777D01*
X691468Y432712D01*
X691384Y432638D01*
X691292Y432564D01*
X691190Y432490D01*
X691070Y432407D01*
X690940Y432333D01*
X690801Y432259D01*
X690644Y432194D01*
X690478Y432139D01*
X690302Y432102D01*
X690108Y432074D01*
X689904Y432065D01*
X689821D01*
X689756Y432074D01*
X689682Y432083D01*
X689590Y432093D01*
X689497Y432102D01*
X689386Y432120D01*
X689164Y432176D01*
X688914Y432268D01*
X688794Y432314D01*
X688674Y432379D01*
X688563Y432453D01*
X688452Y432537D01*
X688443Y432546D01*
X688424Y432555D01*
X688397Y432583D01*
X688359Y432620D01*
X688322Y432675D01*
X688267Y432731D01*
X688221Y432795D01*
X688165Y432869D01*
X688100Y432962D01*
X688045Y433054D01*
X687943Y433277D01*
X687851Y433526D01*
X687823Y433665D01*
X687795Y433813D01*
X689016Y433943D01*
Y433924D01*
X689025Y433878D01*
X689044Y433794D01*
X689072Y433702D01*
X689109Y433600D01*
X689164Y433489D01*
X689238Y433388D01*
X689322Y433286D01*
X689331Y433277D01*
X689368Y433249D01*
X689423Y433212D01*
X689497Y433166D01*
X689580Y433119D01*
X689682Y433082D01*
X689803Y433054D01*
X689923Y433045D01*
X689941D01*
X689988Y433054D01*
X690062Y433064D01*
X690154Y433082D01*
X690256Y433119D01*
X690367Y433175D01*
X690478Y433258D01*
X690580Y433360D01*
X690589Y433378D01*
X690626Y433415D01*
X690663Y433489D01*
X690718Y433600D01*
X690765Y433730D01*
X690811Y433887D01*
X690838Y434081D01*
X690848Y434303D01*
Y434312D01*
Y434331D01*
Y434359D01*
Y434405D01*
X690838Y434507D01*
X690811Y434636D01*
X690783Y434784D01*
X690737Y434932D01*
X690672Y435071D01*
X690580Y435191D01*
X690570Y435201D01*
X690533Y435238D01*
X690469Y435284D01*
X690394Y435349D01*
X690293Y435404D01*
X690172Y435450D01*
X690034Y435487D01*
X689886Y435497D01*
X689830D01*
X689793Y435487D01*
X689701Y435469D01*
X689571Y435441D01*
X689423Y435386D01*
X689266Y435302D01*
X689183Y435247D01*
X689100Y435182D01*
X689016Y435108D01*
X688933Y435025D01*
X687943Y435163D01*
X688572Y438503D01*
X691819D01*
Y437356D01*
D02*
G37*
G36*
X134437Y437060D02*
X132115D01*
X131921Y435969D01*
X131930D01*
X131940Y435978D01*
X131995Y436006D01*
X132078Y436034D01*
X132180Y436080D01*
X132310Y436117D01*
X132448Y436145D01*
X132606Y436172D01*
X132763Y436182D01*
X132846D01*
X132902Y436172D01*
X132966Y436163D01*
X133050Y436154D01*
X133142Y436135D01*
X133244Y436108D01*
X133457Y436034D01*
X133577Y435988D01*
X133688Y435932D01*
X133808Y435858D01*
X133928Y435775D01*
X134039Y435682D01*
X134150Y435580D01*
X134160Y435571D01*
X134178Y435553D01*
X134206Y435516D01*
X134243Y435469D01*
X134280Y435414D01*
X134335Y435340D01*
X134382Y435257D01*
X134437Y435164D01*
X134493Y435063D01*
X134539Y434942D01*
X134594Y434813D01*
X134631Y434683D01*
X134668Y434535D01*
X134696Y434378D01*
X134715Y434211D01*
X134724Y434036D01*
Y434026D01*
Y433999D01*
Y433962D01*
X134715Y433906D01*
Y433832D01*
X134696Y433749D01*
X134687Y433657D01*
X134668Y433564D01*
X134613Y433342D01*
X134530Y433102D01*
X134474Y432972D01*
X134419Y432852D01*
X134345Y432731D01*
X134261Y432611D01*
X134252Y432602D01*
X134234Y432574D01*
X134197Y432537D01*
X134150Y432482D01*
X134086Y432417D01*
X134002Y432343D01*
X133910Y432269D01*
X133808Y432195D01*
X133688Y432112D01*
X133558Y432038D01*
X133420Y431964D01*
X133262Y431899D01*
X133096Y431844D01*
X132920Y431807D01*
X132726Y431779D01*
X132522Y431770D01*
X132439D01*
X132374Y431779D01*
X132300Y431788D01*
X132208Y431797D01*
X132115Y431807D01*
X132004Y431825D01*
X131782Y431881D01*
X131533Y431973D01*
X131412Y432019D01*
X131292Y432084D01*
X131181Y432158D01*
X131070Y432241D01*
X131061Y432250D01*
X131042Y432260D01*
X131015Y432288D01*
X130978Y432325D01*
X130941Y432380D01*
X130885Y432436D01*
X130839Y432500D01*
X130783Y432574D01*
X130719Y432667D01*
X130663Y432759D01*
X130561Y432981D01*
X130469Y433231D01*
X130441Y433370D01*
X130413Y433518D01*
X131634Y433647D01*
Y433629D01*
X131644Y433582D01*
X131662Y433499D01*
X131690Y433407D01*
X131727Y433305D01*
X131782Y433194D01*
X131856Y433092D01*
X131940Y432991D01*
X131949Y432981D01*
X131986Y432954D01*
X132041Y432916D01*
X132115Y432870D01*
X132199Y432824D01*
X132300Y432787D01*
X132421Y432759D01*
X132541Y432750D01*
X132559D01*
X132606Y432759D01*
X132680Y432768D01*
X132772Y432787D01*
X132874Y432824D01*
X132985Y432879D01*
X133096Y432963D01*
X133198Y433065D01*
X133207Y433083D01*
X133244Y433120D01*
X133281Y433194D01*
X133336Y433305D01*
X133383Y433434D01*
X133429Y433592D01*
X133457Y433786D01*
X133466Y434008D01*
Y434017D01*
Y434036D01*
Y434063D01*
Y434110D01*
X133457Y434211D01*
X133429Y434341D01*
X133401Y434489D01*
X133355Y434637D01*
X133290Y434776D01*
X133198Y434896D01*
X133188Y434905D01*
X133151Y434942D01*
X133087Y434988D01*
X133013Y435053D01*
X132911Y435109D01*
X132791Y435155D01*
X132652Y435192D01*
X132504Y435201D01*
X132448D01*
X132411Y435192D01*
X132319Y435174D01*
X132189Y435146D01*
X132041Y435090D01*
X131884Y435007D01*
X131801Y434951D01*
X131718Y434887D01*
X131634Y434813D01*
X131551Y434729D01*
X130561Y434868D01*
X131190Y438207D01*
X134437D01*
Y437060D01*
D02*
G37*
G36*
X143815Y424409D02*
X142520D01*
Y430810D01*
X143815D01*
Y424409D01*
D02*
G37*
G36*
X138683Y431890D02*
X137286D01*
X134992Y438291D01*
X136389D01*
X138017Y433555D01*
X139580Y438291D01*
X140958D01*
X138683Y431890D01*
D02*
G37*
G36*
X672525Y174277D02*
X672653Y174254D01*
X672817Y174219D01*
X672992Y174160D01*
X673167Y174091D01*
X673353Y173986D01*
X672863Y172645D01*
X672852Y172656D01*
X672793Y172680D01*
X672723Y172726D01*
X672630Y172773D01*
X672513Y172819D01*
X672397Y172866D01*
X672269Y172889D01*
X672140Y172901D01*
X672094D01*
X672024Y172889D01*
X671954Y172878D01*
X671872Y172854D01*
X671779Y172819D01*
X671686Y172773D01*
X671592Y172715D01*
X671581Y172703D01*
X671557Y172680D01*
X671511Y172633D01*
X671464Y172563D01*
X671406Y172481D01*
X671348Y172365D01*
X671289Y172225D01*
X671243Y172062D01*
Y172038D01*
X671231Y172003D01*
X671219Y171968D01*
Y171910D01*
X671208Y171840D01*
X671196Y171747D01*
X671184Y171642D01*
X671173Y171525D01*
X671161Y171374D01*
X671149Y171222D01*
Y171036D01*
X671138Y170837D01*
X671126Y170616D01*
Y170371D01*
Y170103D01*
Y168307D01*
X669575D01*
Y174160D01*
X671009D01*
Y173333D01*
X671021Y173344D01*
X671068Y173414D01*
X671138Y173519D01*
X671231Y173647D01*
X671324Y173776D01*
X671441Y173904D01*
X671546Y174021D01*
X671662Y174102D01*
X671674Y174114D01*
X671709Y174137D01*
X671779Y174160D01*
X671861Y174195D01*
X671954Y174230D01*
X672071Y174265D01*
X672187Y174277D01*
X672327Y174289D01*
X672420D01*
X672525Y174277D01*
D02*
G37*
G36*
X677551D02*
X677679Y174265D01*
X677819Y174242D01*
X677970Y174207D01*
X678134Y174160D01*
X678297Y174102D01*
X678320Y174091D01*
X678367Y174067D01*
X678448Y174032D01*
X678542Y173974D01*
X678647Y173904D01*
X678752Y173822D01*
X678857Y173729D01*
X678950Y173624D01*
X678962Y173612D01*
X678985Y173577D01*
X679020Y173519D01*
X679067Y173438D01*
X679125Y173344D01*
X679171Y173228D01*
X679218Y173111D01*
X679253Y172971D01*
Y172959D01*
X679265Y172901D01*
X679288Y172819D01*
X679300Y172703D01*
X679323Y172563D01*
X679335Y172376D01*
X679346Y172178D01*
Y171933D01*
Y168307D01*
X677796D01*
Y171280D01*
Y171292D01*
Y171327D01*
Y171374D01*
Y171432D01*
Y171514D01*
Y171595D01*
X677784Y171793D01*
X677772Y171992D01*
X677749Y172202D01*
X677726Y172376D01*
X677714Y172446D01*
X677691Y172505D01*
Y172516D01*
X677667Y172551D01*
X677644Y172598D01*
X677609Y172668D01*
X677504Y172808D01*
X677446Y172878D01*
X677364Y172936D01*
X677352Y172948D01*
X677329Y172959D01*
X677282Y172983D01*
X677212Y173018D01*
X677131Y173053D01*
X677049Y173076D01*
X676944Y173088D01*
X676828Y173099D01*
X676758D01*
X676688Y173088D01*
X676594Y173076D01*
X676478Y173041D01*
X676361Y173006D01*
X676233Y172948D01*
X676105Y172878D01*
X676093Y172866D01*
X676058Y172843D01*
X676000Y172784D01*
X675930Y172726D01*
X675860Y172633D01*
X675790Y172540D01*
X675720Y172411D01*
X675673Y172283D01*
Y172272D01*
X675650Y172213D01*
X675638Y172120D01*
X675615Y171980D01*
X675603Y171898D01*
X675592Y171793D01*
X675580Y171688D01*
Y171560D01*
X675568Y171432D01*
X675557Y171280D01*
Y171117D01*
Y170942D01*
Y168307D01*
X674006D01*
Y174160D01*
X675440D01*
Y173298D01*
X675452Y173309D01*
X675475Y173344D01*
X675522Y173391D01*
X675580Y173449D01*
X675650Y173531D01*
X675743Y173612D01*
X675848Y173706D01*
X675965Y173799D01*
X676093Y173881D01*
X676245Y173974D01*
X676396Y174056D01*
X676571Y174137D01*
X676758Y174195D01*
X676944Y174242D01*
X677154Y174277D01*
X677364Y174289D01*
X677446D01*
X677551Y174277D01*
D02*
G37*
G36*
X695076D02*
X695204Y174254D01*
X695367Y174219D01*
X695542Y174160D01*
X695717Y174091D01*
X695903Y173986D01*
X695414Y172645D01*
X695402Y172656D01*
X695344Y172680D01*
X695274Y172726D01*
X695181Y172773D01*
X695064Y172819D01*
X694947Y172866D01*
X694819Y172889D01*
X694691Y172901D01*
X694644D01*
X694574Y172889D01*
X694504Y172878D01*
X694423Y172854D01*
X694329Y172819D01*
X694236Y172773D01*
X694143Y172715D01*
X694131Y172703D01*
X694108Y172680D01*
X694061Y172633D01*
X694015Y172563D01*
X693956Y172481D01*
X693898Y172365D01*
X693840Y172225D01*
X693793Y172062D01*
Y172038D01*
X693781Y172003D01*
X693770Y171968D01*
Y171910D01*
X693758Y171840D01*
X693746Y171747D01*
X693735Y171642D01*
X693723Y171525D01*
X693711Y171374D01*
X693700Y171222D01*
Y171036D01*
X693688Y170837D01*
X693676Y170616D01*
Y170371D01*
Y170103D01*
Y168307D01*
X692126D01*
Y174160D01*
X693560D01*
Y173333D01*
X693572Y173344D01*
X693618Y173414D01*
X693688Y173519D01*
X693781Y173647D01*
X693875Y173776D01*
X693991Y173904D01*
X694096Y174021D01*
X694213Y174102D01*
X694225Y174114D01*
X694259Y174137D01*
X694329Y174160D01*
X694411Y174195D01*
X694504Y174230D01*
X694621Y174265D01*
X694737Y174277D01*
X694877Y174289D01*
X694971D01*
X695076Y174277D01*
D02*
G37*
G36*
X634490Y176516D02*
X634619Y176504D01*
X634770Y176492D01*
X634922Y176469D01*
X635097Y176446D01*
X635470Y176364D01*
X635656Y176306D01*
X635843Y176248D01*
X636029Y176166D01*
X636204Y176073D01*
X636368Y175968D01*
X636519Y175851D01*
X636531Y175839D01*
X636554Y175816D01*
X636589Y175781D01*
X636636Y175734D01*
X636694Y175665D01*
X636764Y175583D01*
X636834Y175490D01*
X636916Y175385D01*
X636985Y175256D01*
X637055Y175128D01*
X637125Y174977D01*
X637184Y174813D01*
X637242Y174650D01*
X637289Y174464D01*
X637324Y174277D01*
X637335Y174067D01*
X635703Y174009D01*
Y174021D01*
Y174032D01*
X635680Y174114D01*
X635656Y174219D01*
X635610Y174347D01*
X635551Y174499D01*
X635470Y174638D01*
X635365Y174778D01*
X635248Y174895D01*
X635237Y174907D01*
X635190Y174942D01*
X635108Y174988D01*
X634992Y175035D01*
X634852Y175082D01*
X634677Y175128D01*
X634467Y175163D01*
X634222Y175175D01*
X634105D01*
X633977Y175163D01*
X633826Y175140D01*
X633651Y175105D01*
X633464Y175047D01*
X633289Y174977D01*
X633126Y174872D01*
X633114Y174860D01*
X633091Y174837D01*
X633044Y174802D01*
X632998Y174743D01*
X632951Y174673D01*
X632904Y174580D01*
X632881Y174487D01*
X632869Y174370D01*
Y174359D01*
Y174324D01*
X632881Y174265D01*
X632904Y174207D01*
X632928Y174125D01*
X632963Y174044D01*
X633021Y173962D01*
X633103Y173881D01*
X633114Y173869D01*
X633173Y173834D01*
X633208Y173811D01*
X633266Y173787D01*
X633324Y173752D01*
X633406Y173717D01*
X633499Y173682D01*
X633604Y173636D01*
X633732Y173589D01*
X633861Y173542D01*
X634024Y173496D01*
X634199Y173449D01*
X634385Y173403D01*
X634595Y173344D01*
X634607D01*
X634654Y173333D01*
X634712Y173321D01*
X634793Y173298D01*
X634887Y173274D01*
X635003Y173239D01*
X635132Y173204D01*
X635260Y173169D01*
X635540Y173076D01*
X635831Y172983D01*
X636111Y172878D01*
X636228Y172819D01*
X636344Y172761D01*
X636356D01*
X636368Y172749D01*
X636438Y172703D01*
X636542Y172633D01*
X636671Y172540D01*
X636811Y172423D01*
X636962Y172283D01*
X637114Y172120D01*
X637242Y171933D01*
X637254Y171910D01*
X637289Y171840D01*
X637347Y171735D01*
X637405Y171583D01*
X637464Y171397D01*
X637522Y171176D01*
X637557Y170931D01*
X637569Y170651D01*
Y170639D01*
Y170616D01*
Y170581D01*
Y170534D01*
X637557Y170476D01*
X637545Y170394D01*
X637522Y170231D01*
X637475Y170021D01*
X637405Y169800D01*
X637300Y169578D01*
X637172Y169345D01*
Y169333D01*
X637149Y169322D01*
X637102Y169252D01*
X637009Y169135D01*
X636892Y169007D01*
X636741Y168855D01*
X636542Y168715D01*
X636333Y168575D01*
X636076Y168447D01*
X636064D01*
X636041Y168435D01*
X636006Y168424D01*
X635948Y168400D01*
X635878Y168377D01*
X635796Y168354D01*
X635703Y168330D01*
X635598Y168307D01*
X635470Y168272D01*
X635342Y168249D01*
X635038Y168202D01*
X634700Y168167D01*
X634327Y168156D01*
X634175D01*
X634070Y168167D01*
X633942Y168179D01*
X633802Y168191D01*
X633639Y168214D01*
X633464Y168249D01*
X633079Y168330D01*
X632881Y168389D01*
X632695Y168447D01*
X632496Y168529D01*
X632310Y168622D01*
X632135Y168727D01*
X631972Y168855D01*
X631960Y168867D01*
X631937Y168890D01*
X631890Y168925D01*
X631844Y168983D01*
X631774Y169065D01*
X631704Y169158D01*
X631622Y169263D01*
X631540Y169380D01*
X631459Y169520D01*
X631377Y169671D01*
X631295Y169846D01*
X631214Y170033D01*
X631155Y170231D01*
X631086Y170452D01*
X631039Y170686D01*
X631004Y170931D01*
X632590Y171082D01*
Y171071D01*
X632601Y171047D01*
Y171001D01*
X632613Y170954D01*
X632660Y170814D01*
X632718Y170639D01*
X632788Y170441D01*
X632893Y170243D01*
X633009Y170068D01*
X633161Y169904D01*
X633184Y169893D01*
X633243Y169846D01*
X633336Y169788D01*
X633476Y169718D01*
X633651Y169648D01*
X633849Y169590D01*
X634082Y169543D01*
X634350Y169531D01*
X634479D01*
X634619Y169555D01*
X634793Y169578D01*
X634980Y169613D01*
X635178Y169671D01*
X635365Y169753D01*
X635528Y169858D01*
X635551Y169869D01*
X635598Y169916D01*
X635656Y169986D01*
X635738Y170079D01*
X635808Y170196D01*
X635878Y170336D01*
X635924Y170476D01*
X635936Y170639D01*
Y170651D01*
Y170686D01*
X635924Y170744D01*
X635913Y170814D01*
X635889Y170884D01*
X635866Y170966D01*
X635819Y171047D01*
X635761Y171129D01*
X635750Y171141D01*
X635726Y171164D01*
X635691Y171199D01*
X635633Y171245D01*
X635551Y171304D01*
X635446Y171362D01*
X635330Y171420D01*
X635178Y171479D01*
X635167D01*
X635120Y171502D01*
X635038Y171525D01*
X634980Y171549D01*
X634910Y171560D01*
X634828Y171583D01*
X634735Y171618D01*
X634630Y171642D01*
X634514Y171677D01*
X634374Y171712D01*
X634222Y171747D01*
X634059Y171793D01*
X633872Y171840D01*
X633861D01*
X633814Y171852D01*
X633744Y171875D01*
X633662Y171898D01*
X633558Y171933D01*
X633429Y171968D01*
X633301Y172015D01*
X633149Y172062D01*
X632846Y172178D01*
X632555Y172318D01*
X632403Y172388D01*
X632275Y172470D01*
X632147Y172551D01*
X632042Y172633D01*
X632030Y172645D01*
X632007Y172668D01*
X631972Y172703D01*
X631925Y172749D01*
X631867Y172819D01*
X631809Y172901D01*
X631739Y172983D01*
X631680Y173088D01*
X631540Y173333D01*
X631424Y173612D01*
X631377Y173764D01*
X631342Y173916D01*
X631319Y174091D01*
X631307Y174265D01*
Y174277D01*
Y174289D01*
Y174324D01*
Y174370D01*
X631330Y174487D01*
X631354Y174638D01*
X631389Y174813D01*
X631447Y175012D01*
X631529Y175222D01*
X631645Y175420D01*
Y175431D01*
X631657Y175443D01*
X631715Y175513D01*
X631785Y175606D01*
X631902Y175723D01*
X632042Y175851D01*
X632217Y175991D01*
X632415Y176119D01*
X632648Y176236D01*
X632660D01*
X632683Y176248D01*
X632718Y176259D01*
X632765Y176283D01*
X632835Y176306D01*
X632904Y176329D01*
X632998Y176353D01*
X633103Y176388D01*
X633336Y176434D01*
X633604Y176481D01*
X633907Y176516D01*
X634245Y176527D01*
X634385D01*
X634490Y176516D01*
D02*
G37*
G36*
X687788D02*
X687916Y176504D01*
X688056Y176481D01*
X688220Y176457D01*
X688394Y176423D01*
X688581Y176376D01*
X688779Y176318D01*
X688977Y176248D01*
X689187Y176154D01*
X689386Y176061D01*
X689572Y175944D01*
X689770Y175804D01*
X689945Y175653D01*
X689957D01*
X689969Y175630D01*
X690003Y175595D01*
X690038Y175560D01*
X690085Y175501D01*
X690132Y175431D01*
X690260Y175268D01*
X690388Y175058D01*
X690528Y174802D01*
X690657Y174510D01*
X690773Y174172D01*
X689164Y173787D01*
Y173799D01*
X689152Y173811D01*
Y173846D01*
X689129Y173892D01*
X689094Y173997D01*
X689036Y174137D01*
X688954Y174300D01*
X688849Y174464D01*
X688709Y174627D01*
X688558Y174767D01*
X688534Y174778D01*
X688476Y174825D01*
X688383Y174883D01*
X688254Y174953D01*
X688091Y175023D01*
X687905Y175082D01*
X687695Y175128D01*
X687462Y175140D01*
X687380D01*
X687310Y175128D01*
X687240Y175117D01*
X687147Y175105D01*
X686949Y175058D01*
X686715Y174977D01*
X686471Y174860D01*
X686342Y174790D01*
X686226Y174708D01*
X686109Y174603D01*
X686004Y174487D01*
Y174475D01*
X685981Y174452D01*
X685957Y174417D01*
X685922Y174359D01*
X685876Y174289D01*
X685829Y174207D01*
X685783Y174102D01*
X685736Y173986D01*
X685678Y173846D01*
X685631Y173694D01*
X685584Y173519D01*
X685538Y173333D01*
X685503Y173123D01*
X685479Y172901D01*
X685468Y172656D01*
X685456Y172388D01*
Y172376D01*
Y172318D01*
Y172237D01*
X685468Y172143D01*
Y172015D01*
X685491Y171863D01*
X685503Y171712D01*
X685526Y171537D01*
X685596Y171176D01*
X685689Y170814D01*
X685748Y170639D01*
X685829Y170476D01*
X685911Y170324D01*
X686004Y170196D01*
X686016Y170184D01*
X686027Y170173D01*
X686062Y170138D01*
X686109Y170091D01*
X686226Y169998D01*
X686389Y169881D01*
X686587Y169753D01*
X686832Y169660D01*
X687112Y169578D01*
X687263Y169566D01*
X687427Y169555D01*
X687485D01*
X687532Y169566D01*
X687660Y169578D01*
X687812Y169601D01*
X687975Y169660D01*
X688161Y169730D01*
X688348Y169823D01*
X688534Y169963D01*
X688558Y169986D01*
X688616Y170044D01*
X688698Y170138D01*
X688791Y170278D01*
X688907Y170464D01*
X689012Y170686D01*
X689117Y170954D01*
X689211Y171269D01*
X690796Y170779D01*
Y170767D01*
X690785Y170721D01*
X690761Y170651D01*
X690727Y170557D01*
X690680Y170452D01*
X690633Y170324D01*
X690575Y170184D01*
X690505Y170033D01*
X690342Y169718D01*
X690132Y169392D01*
X689875Y169077D01*
X689735Y168937D01*
X689584Y168808D01*
X689572Y168797D01*
X689549Y168785D01*
X689502Y168750D01*
X689432Y168703D01*
X689351Y168657D01*
X689246Y168610D01*
X689129Y168552D01*
X689001Y168494D01*
X688849Y168424D01*
X688686Y168365D01*
X688511Y168319D01*
X688324Y168272D01*
X688126Y168226D01*
X687905Y168191D01*
X687683Y168179D01*
X687438Y168167D01*
X687368D01*
X687287Y168179D01*
X687170Y168191D01*
X687042Y168202D01*
X686879Y168226D01*
X686704Y168260D01*
X686506Y168307D01*
X686307Y168365D01*
X686097Y168435D01*
X685876Y168529D01*
X685654Y168634D01*
X685433Y168750D01*
X685211Y168902D01*
X685001Y169065D01*
X684803Y169263D01*
X684792Y169275D01*
X684757Y169310D01*
X684710Y169380D01*
X684640Y169461D01*
X684570Y169578D01*
X684477Y169706D01*
X684383Y169869D01*
X684290Y170056D01*
X684197Y170254D01*
X684104Y170476D01*
X684010Y170732D01*
X683940Y171001D01*
X683870Y171280D01*
X683824Y171595D01*
X683789Y171922D01*
X683777Y172272D01*
Y172283D01*
Y172295D01*
Y172365D01*
X683789Y172470D01*
Y172610D01*
X683812Y172773D01*
X683835Y172971D01*
X683859Y173181D01*
X683905Y173426D01*
X683964Y173671D01*
X684034Y173927D01*
X684115Y174184D01*
X684220Y174452D01*
X684337Y174708D01*
X684477Y174953D01*
X684628Y175187D01*
X684815Y175408D01*
X684827Y175420D01*
X684862Y175455D01*
X684920Y175513D01*
X685001Y175583D01*
X685106Y175665D01*
X685235Y175758D01*
X685374Y175863D01*
X685549Y175968D01*
X685736Y176073D01*
X685934Y176178D01*
X686167Y176271D01*
X686401Y176353D01*
X686669Y176423D01*
X686937Y176481D01*
X687240Y176516D01*
X687543Y176527D01*
X687683D01*
X687788Y176516D01*
D02*
G37*
G36*
X331233Y331610D02*
X331335Y331601D01*
X331446Y331583D01*
X331575Y331564D01*
X331714Y331536D01*
X331862Y331499D01*
X332019Y331453D01*
X332177Y331398D01*
X332343Y331324D01*
X332500Y331250D01*
X332648Y331157D01*
X332806Y331046D01*
X332944Y330926D01*
X332954D01*
X332963Y330907D01*
X332991Y330880D01*
X333018Y330852D01*
X333055Y330806D01*
X333092Y330750D01*
X333194Y330621D01*
X333296Y330454D01*
X333407Y330251D01*
X333509Y330019D01*
X333601Y329751D01*
X332325Y329446D01*
Y329455D01*
X332315Y329464D01*
Y329492D01*
X332297Y329529D01*
X332269Y329612D01*
X332223Y329723D01*
X332158Y329853D01*
X332075Y329982D01*
X331964Y330112D01*
X331844Y330223D01*
X331825Y330232D01*
X331779Y330269D01*
X331705Y330315D01*
X331603Y330371D01*
X331474Y330426D01*
X331326Y330473D01*
X331159Y330510D01*
X330974Y330519D01*
X330909D01*
X330854Y330510D01*
X330798Y330500D01*
X330724Y330491D01*
X330567Y330454D01*
X330382Y330389D01*
X330188Y330297D01*
X330086Y330241D01*
X329994Y330177D01*
X329901Y330093D01*
X329818Y330001D01*
Y329992D01*
X329799Y329973D01*
X329781Y329945D01*
X329753Y329899D01*
X329716Y329844D01*
X329679Y329779D01*
X329642Y329696D01*
X329605Y329603D01*
X329559Y329492D01*
X329522Y329372D01*
X329485Y329233D01*
X329448Y329085D01*
X329420Y328919D01*
X329402Y328743D01*
X329392Y328549D01*
X329383Y328336D01*
Y328327D01*
Y328280D01*
Y328216D01*
X329392Y328142D01*
Y328040D01*
X329411Y327920D01*
X329420Y327799D01*
X329439Y327661D01*
X329494Y327374D01*
X329568Y327087D01*
X329614Y326948D01*
X329679Y326819D01*
X329744Y326699D01*
X329818Y326597D01*
X329827Y326588D01*
X329836Y326578D01*
X329864Y326551D01*
X329901Y326514D01*
X329994Y326440D01*
X330123Y326347D01*
X330280Y326245D01*
X330475Y326171D01*
X330697Y326107D01*
X330817Y326097D01*
X330946Y326088D01*
X330993D01*
X331030Y326097D01*
X331131Y326107D01*
X331252Y326125D01*
X331381Y326171D01*
X331529Y326227D01*
X331677Y326301D01*
X331825Y326412D01*
X331844Y326430D01*
X331890Y326477D01*
X331955Y326551D01*
X332029Y326662D01*
X332121Y326810D01*
X332204Y326985D01*
X332288Y327198D01*
X332362Y327448D01*
X333620Y327059D01*
Y327050D01*
X333610Y327013D01*
X333592Y326958D01*
X333564Y326884D01*
X333527Y326800D01*
X333490Y326699D01*
X333444Y326588D01*
X333388Y326467D01*
X333259Y326218D01*
X333092Y325959D01*
X332889Y325709D01*
X332778Y325598D01*
X332658Y325496D01*
X332648Y325487D01*
X332630Y325478D01*
X332593Y325450D01*
X332537Y325413D01*
X332473Y325376D01*
X332389Y325339D01*
X332297Y325293D01*
X332195Y325246D01*
X332075Y325191D01*
X331945Y325145D01*
X331807Y325108D01*
X331659Y325071D01*
X331501Y325034D01*
X331326Y325006D01*
X331150Y324997D01*
X330956Y324987D01*
X330900D01*
X330835Y324997D01*
X330743Y325006D01*
X330641Y325015D01*
X330512Y325034D01*
X330373Y325061D01*
X330216Y325098D01*
X330058Y325145D01*
X329892Y325200D01*
X329716Y325274D01*
X329540Y325357D01*
X329365Y325450D01*
X329189Y325570D01*
X329022Y325700D01*
X328865Y325857D01*
X328856Y325866D01*
X328828Y325894D01*
X328791Y325949D01*
X328736Y326014D01*
X328680Y326107D01*
X328606Y326208D01*
X328532Y326338D01*
X328458Y326486D01*
X328384Y326643D01*
X328310Y326819D01*
X328236Y327022D01*
X328181Y327235D01*
X328125Y327457D01*
X328088Y327707D01*
X328060Y327966D01*
X328051Y328243D01*
Y328253D01*
Y328262D01*
Y328317D01*
X328060Y328401D01*
Y328512D01*
X328079Y328641D01*
X328097Y328798D01*
X328116Y328965D01*
X328153Y329159D01*
X328199Y329353D01*
X328255Y329557D01*
X328319Y329760D01*
X328403Y329973D01*
X328495Y330177D01*
X328606Y330371D01*
X328726Y330556D01*
X328874Y330732D01*
X328884Y330741D01*
X328911Y330769D01*
X328958Y330815D01*
X329022Y330870D01*
X329106Y330935D01*
X329207Y331009D01*
X329318Y331092D01*
X329457Y331176D01*
X329605Y331259D01*
X329762Y331342D01*
X329947Y331416D01*
X330132Y331481D01*
X330345Y331536D01*
X330558Y331583D01*
X330798Y331610D01*
X331039Y331620D01*
X331150D01*
X331233Y331610D01*
D02*
G37*
G36*
X338060Y327457D02*
X338855D01*
Y326384D01*
X338060D01*
Y325098D01*
X336876D01*
Y326384D01*
X334249D01*
Y327448D01*
X337024Y331527D01*
X338060D01*
Y327457D01*
D02*
G37*
G36*
X331430Y259858D02*
X331532Y259849D01*
X331643Y259831D01*
X331772Y259812D01*
X331911Y259785D01*
X332059Y259748D01*
X332216Y259701D01*
X332373Y259646D01*
X332540Y259572D01*
X332697Y259498D01*
X332845Y259405D01*
X333002Y259294D01*
X333141Y259174D01*
X333151D01*
X333160Y259156D01*
X333188Y259128D01*
X333215Y259100D01*
X333252Y259054D01*
X333289Y258998D01*
X333391Y258869D01*
X333493Y258702D01*
X333604Y258499D01*
X333705Y258267D01*
X333798Y257999D01*
X332522Y257694D01*
Y257703D01*
X332512Y257713D01*
Y257740D01*
X332494Y257777D01*
X332466Y257860D01*
X332420Y257972D01*
X332355Y258101D01*
X332272Y258230D01*
X332161Y258360D01*
X332041Y258471D01*
X332022Y258480D01*
X331976Y258517D01*
X331902Y258563D01*
X331800Y258619D01*
X331670Y258675D01*
X331522Y258721D01*
X331356Y258758D01*
X331171Y258767D01*
X331106D01*
X331051Y258758D01*
X330995Y258749D01*
X330921Y258739D01*
X330764Y258702D01*
X330579Y258637D01*
X330385Y258545D01*
X330283Y258489D01*
X330190Y258425D01*
X330098Y258342D01*
X330015Y258249D01*
Y258240D01*
X329996Y258221D01*
X329978Y258193D01*
X329950Y258147D01*
X329913Y258092D01*
X329876Y258027D01*
X329839Y257944D01*
X329802Y257851D01*
X329756Y257740D01*
X329719Y257620D01*
X329682Y257481D01*
X329645Y257333D01*
X329617Y257167D01*
X329598Y256991D01*
X329589Y256797D01*
X329580Y256584D01*
Y256575D01*
Y256528D01*
Y256464D01*
X329589Y256390D01*
Y256288D01*
X329608Y256168D01*
X329617Y256048D01*
X329636Y255909D01*
X329691Y255622D01*
X329765Y255335D01*
X329811Y255196D01*
X329876Y255067D01*
X329941Y254947D01*
X330015Y254845D01*
X330024Y254836D01*
X330033Y254826D01*
X330061Y254799D01*
X330098Y254762D01*
X330190Y254688D01*
X330320Y254595D01*
X330477Y254493D01*
X330672Y254419D01*
X330893Y254355D01*
X331014Y254345D01*
X331143Y254336D01*
X331189D01*
X331226Y254345D01*
X331328Y254355D01*
X331449Y254373D01*
X331578Y254419D01*
X331726Y254475D01*
X331874Y254549D01*
X332022Y254660D01*
X332041Y254679D01*
X332087Y254725D01*
X332152Y254799D01*
X332225Y254910D01*
X332318Y255058D01*
X332401Y255234D01*
X332485Y255446D01*
X332558Y255696D01*
X333817Y255308D01*
Y255298D01*
X333807Y255261D01*
X333789Y255206D01*
X333761Y255132D01*
X333724Y255048D01*
X333687Y254947D01*
X333641Y254836D01*
X333585Y254715D01*
X333456Y254466D01*
X333289Y254207D01*
X333086Y253957D01*
X332975Y253846D01*
X332855Y253744D01*
X332845Y253735D01*
X332827Y253726D01*
X332790Y253698D01*
X332734Y253661D01*
X332669Y253624D01*
X332586Y253587D01*
X332494Y253541D01*
X332392Y253495D01*
X332272Y253439D01*
X332142Y253393D01*
X332003Y253356D01*
X331856Y253319D01*
X331698Y253282D01*
X331522Y253254D01*
X331347Y253245D01*
X331153Y253236D01*
X331097D01*
X331032Y253245D01*
X330940Y253254D01*
X330838Y253263D01*
X330709Y253282D01*
X330570Y253309D01*
X330413Y253346D01*
X330255Y253393D01*
X330089Y253448D01*
X329913Y253522D01*
X329737Y253606D01*
X329561Y253698D01*
X329386Y253818D01*
X329219Y253948D01*
X329062Y254105D01*
X329053Y254114D01*
X329025Y254142D01*
X328988Y254198D01*
X328932Y254262D01*
X328877Y254355D01*
X328803Y254456D01*
X328729Y254586D01*
X328655Y254734D01*
X328581Y254891D01*
X328507Y255067D01*
X328433Y255271D01*
X328378Y255483D01*
X328322Y255705D01*
X328285Y255955D01*
X328257Y256214D01*
X328248Y256491D01*
Y256501D01*
Y256510D01*
Y256565D01*
X328257Y256649D01*
Y256760D01*
X328276Y256889D01*
X328294Y257047D01*
X328313Y257213D01*
X328350Y257407D01*
X328396Y257601D01*
X328451Y257805D01*
X328516Y258009D01*
X328600Y258221D01*
X328692Y258425D01*
X328803Y258619D01*
X328923Y258804D01*
X329071Y258980D01*
X329081Y258989D01*
X329108Y259017D01*
X329154Y259063D01*
X329219Y259119D01*
X329303Y259183D01*
X329404Y259257D01*
X329515Y259341D01*
X329654Y259424D01*
X329802Y259507D01*
X329959Y259590D01*
X330144Y259664D01*
X330329Y259729D01*
X330542Y259785D01*
X330755Y259831D01*
X330995Y259858D01*
X331236Y259868D01*
X331347D01*
X331430Y259858D01*
D02*
G37*
G36*
X336823Y259775D02*
X336906Y259766D01*
X336989Y259757D01*
X337091Y259738D01*
X337193Y259711D01*
X337424Y259646D01*
X337544Y259599D01*
X337674Y259535D01*
X337794Y259470D01*
X337905Y259396D01*
X338025Y259303D01*
X338127Y259202D01*
X338136Y259192D01*
X338145Y259183D01*
X338173Y259156D01*
X338201Y259119D01*
X338275Y259026D01*
X338358Y258896D01*
X338441Y258739D01*
X338506Y258554D01*
X338562Y258351D01*
X338571Y258249D01*
X338580Y258138D01*
Y258129D01*
Y258101D01*
X338571Y258055D01*
X338562Y257999D01*
X338552Y257925D01*
X338534Y257842D01*
X338506Y257750D01*
X338469Y257648D01*
X338414Y257546D01*
X338358Y257435D01*
X338284Y257324D01*
X338192Y257213D01*
X338081Y257102D01*
X337961Y256991D01*
X337822Y256889D01*
X337655Y256787D01*
X337665D01*
X337683Y256778D01*
X337711D01*
X337748Y256760D01*
X337849Y256732D01*
X337970Y256677D01*
X338108Y256603D01*
X338257Y256510D01*
X338404Y256390D01*
X338534Y256251D01*
X338552Y256233D01*
X338590Y256177D01*
X338636Y256094D01*
X338701Y255974D01*
X338765Y255835D01*
X338811Y255659D01*
X338848Y255474D01*
X338867Y255261D01*
Y255252D01*
Y255224D01*
Y255178D01*
X338858Y255122D01*
X338848Y255048D01*
X338830Y254965D01*
X338811Y254864D01*
X338793Y254762D01*
X338719Y254540D01*
X338664Y254419D01*
X338608Y254290D01*
X338534Y254170D01*
X338451Y254049D01*
X338358Y253929D01*
X338247Y253818D01*
X338238Y253809D01*
X338219Y253790D01*
X338182Y253763D01*
X338136Y253726D01*
X338071Y253679D01*
X338007Y253633D01*
X337914Y253578D01*
X337822Y253522D01*
X337720Y253467D01*
X337600Y253411D01*
X337470Y253365D01*
X337341Y253319D01*
X337193Y253282D01*
X337045Y253254D01*
X336878Y253236D01*
X336712Y253226D01*
X336629D01*
X336564Y253236D01*
X336490Y253245D01*
X336406Y253254D01*
X336314Y253273D01*
X336203Y253291D01*
X335981Y253346D01*
X335740Y253439D01*
X335611Y253495D01*
X335500Y253559D01*
X335380Y253643D01*
X335269Y253726D01*
X335260Y253735D01*
X335241Y253753D01*
X335213Y253781D01*
X335176Y253818D01*
X335130Y253865D01*
X335084Y253929D01*
X335028Y253994D01*
X334973Y254077D01*
X334917Y254170D01*
X334853Y254262D01*
X334751Y254484D01*
X334667Y254743D01*
X334630Y254882D01*
X334612Y255030D01*
X335796Y255178D01*
Y255169D01*
Y255159D01*
X335805Y255104D01*
X335824Y255021D01*
X335852Y254919D01*
X335898Y254808D01*
X335944Y254688D01*
X336018Y254577D01*
X336101Y254475D01*
X336110Y254466D01*
X336147Y254438D01*
X336203Y254401D01*
X336268Y254364D01*
X336360Y254318D01*
X336462Y254281D01*
X336573Y254253D01*
X336702Y254244D01*
X336721D01*
X336767Y254253D01*
X336832Y254262D01*
X336925Y254281D01*
X337026Y254318D01*
X337128Y254364D01*
X337239Y254438D01*
X337341Y254531D01*
X337350Y254540D01*
X337387Y254586D01*
X337424Y254651D01*
X337479Y254734D01*
X337526Y254845D01*
X337572Y254984D01*
X337600Y255141D01*
X337609Y255317D01*
Y255326D01*
Y255335D01*
Y255391D01*
X337600Y255474D01*
X337581Y255585D01*
X337544Y255705D01*
X337498Y255825D01*
X337433Y255946D01*
X337350Y256057D01*
X337341Y256066D01*
X337304Y256103D01*
X337248Y256149D01*
X337183Y256195D01*
X337091Y256251D01*
X336989Y256288D01*
X336878Y256325D01*
X336749Y256334D01*
X336656D01*
X336592Y256325D01*
X336508Y256316D01*
X336406Y256297D01*
X336305Y256270D01*
X336185Y256242D01*
X336314Y257231D01*
X336397D01*
X336490Y257241D01*
X336601Y257250D01*
X336721Y257278D01*
X336851Y257315D01*
X336971Y257370D01*
X337082Y257444D01*
X337091Y257453D01*
X337128Y257490D01*
X337165Y257537D01*
X337221Y257611D01*
X337267Y257694D01*
X337313Y257796D01*
X337341Y257916D01*
X337350Y258055D01*
Y258073D01*
Y258110D01*
X337341Y258166D01*
X337322Y258240D01*
X337304Y258323D01*
X337267Y258406D01*
X337221Y258499D01*
X337156Y258573D01*
X337146Y258582D01*
X337119Y258600D01*
X337082Y258637D01*
X337017Y258675D01*
X336943Y258702D01*
X336860Y258739D01*
X336749Y258758D01*
X336638Y258767D01*
X336582D01*
X336527Y258758D01*
X336453Y258739D01*
X336369Y258712D01*
X336277Y258675D01*
X336185Y258619D01*
X336101Y258545D01*
X336092Y258536D01*
X336064Y258508D01*
X336027Y258453D01*
X335981Y258379D01*
X335935Y258295D01*
X335898Y258184D01*
X335861Y258055D01*
X335833Y257907D01*
X334704Y258092D01*
Y258101D01*
X334714Y258120D01*
Y258147D01*
X334723Y258193D01*
X334751Y258295D01*
X334788Y258434D01*
X334843Y258582D01*
X334899Y258739D01*
X334973Y258887D01*
X335056Y259026D01*
X335065Y259045D01*
X335102Y259082D01*
X335158Y259146D01*
X335232Y259229D01*
X335324Y259313D01*
X335435Y259405D01*
X335574Y259498D01*
X335722Y259581D01*
X335731D01*
X335740Y259590D01*
X335796Y259609D01*
X335889Y259646D01*
X335999Y259683D01*
X336138Y259720D01*
X336305Y259757D01*
X336480Y259775D01*
X336675Y259785D01*
X336758D01*
X336823Y259775D01*
D02*
G37*
G36*
X408694Y258973D02*
X408796Y258963D01*
X408907Y258945D01*
X409036Y258926D01*
X409175Y258899D01*
X409323Y258862D01*
X409480Y258815D01*
X409637Y258760D01*
X409804Y258686D01*
X409961Y258612D01*
X410109Y258519D01*
X410266Y258408D01*
X410405Y258288D01*
X410414D01*
X410424Y258270D01*
X410451Y258242D01*
X410479Y258214D01*
X410516Y258168D01*
X410553Y258112D01*
X410655Y257983D01*
X410757Y257816D01*
X410868Y257613D01*
X410969Y257382D01*
X411062Y257113D01*
X409785Y256808D01*
Y256817D01*
X409776Y256827D01*
Y256854D01*
X409758Y256891D01*
X409730Y256975D01*
X409684Y257086D01*
X409619Y257215D01*
X409536Y257345D01*
X409425Y257474D01*
X409304Y257585D01*
X409286Y257594D01*
X409240Y257631D01*
X409166Y257678D01*
X409064Y257733D01*
X408934Y257789D01*
X408786Y257835D01*
X408620Y257872D01*
X408435Y257881D01*
X408370D01*
X408315Y257872D01*
X408259Y257863D01*
X408185Y257853D01*
X408028Y257816D01*
X407843Y257752D01*
X407649Y257659D01*
X407547Y257604D01*
X407454Y257539D01*
X407362Y257456D01*
X407279Y257363D01*
Y257354D01*
X407260Y257335D01*
X407242Y257308D01*
X407214Y257261D01*
X407177Y257206D01*
X407140Y257141D01*
X407103Y257058D01*
X407066Y256965D01*
X407020Y256854D01*
X406983Y256734D01*
X406946Y256595D01*
X406909Y256447D01*
X406881Y256281D01*
X406862Y256105D01*
X406853Y255911D01*
X406844Y255698D01*
Y255689D01*
Y255643D01*
Y255578D01*
X406853Y255504D01*
Y255402D01*
X406872Y255282D01*
X406881Y255162D01*
X406899Y255023D01*
X406955Y254736D01*
X407029Y254449D01*
X407075Y254311D01*
X407140Y254181D01*
X407205Y254061D01*
X407279Y253959D01*
X407288Y253950D01*
X407297Y253941D01*
X407325Y253913D01*
X407362Y253876D01*
X407454Y253802D01*
X407584Y253709D01*
X407741Y253608D01*
X407935Y253534D01*
X408157Y253469D01*
X408278Y253460D01*
X408407Y253450D01*
X408453D01*
X408490Y253460D01*
X408592Y253469D01*
X408712Y253487D01*
X408842Y253534D01*
X408990Y253589D01*
X409138Y253663D01*
X409286Y253774D01*
X409304Y253793D01*
X409351Y253839D01*
X409415Y253913D01*
X409489Y254024D01*
X409582Y254172D01*
X409665Y254348D01*
X409748Y254560D01*
X409822Y254810D01*
X411080Y254422D01*
Y254412D01*
X411071Y254375D01*
X411053Y254320D01*
X411025Y254246D01*
X410988Y254163D01*
X410951Y254061D01*
X410905Y253950D01*
X410849Y253830D01*
X410720Y253580D01*
X410553Y253321D01*
X410350Y253071D01*
X410239Y252960D01*
X410118Y252858D01*
X410109Y252849D01*
X410091Y252840D01*
X410054Y252812D01*
X409998Y252775D01*
X409933Y252738D01*
X409850Y252701D01*
X409758Y252655D01*
X409656Y252609D01*
X409536Y252553D01*
X409406Y252507D01*
X409267Y252470D01*
X409119Y252433D01*
X408962Y252396D01*
X408786Y252368D01*
X408611Y252359D01*
X408416Y252350D01*
X408361D01*
X408296Y252359D01*
X408204Y252368D01*
X408102Y252377D01*
X407972Y252396D01*
X407834Y252424D01*
X407676Y252461D01*
X407519Y252507D01*
X407353Y252562D01*
X407177Y252636D01*
X407001Y252720D01*
X406825Y252812D01*
X406650Y252932D01*
X406483Y253062D01*
X406326Y253219D01*
X406317Y253228D01*
X406289Y253256D01*
X406252Y253312D01*
X406196Y253376D01*
X406141Y253469D01*
X406067Y253571D01*
X405993Y253700D01*
X405919Y253848D01*
X405845Y254005D01*
X405771Y254181D01*
X405697Y254385D01*
X405641Y254597D01*
X405586Y254819D01*
X405549Y255069D01*
X405521Y255328D01*
X405512Y255606D01*
Y255615D01*
Y255624D01*
Y255680D01*
X405521Y255763D01*
Y255874D01*
X405540Y256003D01*
X405558Y256161D01*
X405577Y256327D01*
X405614Y256521D01*
X405660Y256716D01*
X405715Y256919D01*
X405780Y257123D01*
X405863Y257335D01*
X405956Y257539D01*
X406067Y257733D01*
X406187Y257918D01*
X406335Y258094D01*
X406344Y258103D01*
X406372Y258131D01*
X406418Y258177D01*
X406483Y258233D01*
X406566Y258297D01*
X406668Y258371D01*
X406779Y258455D01*
X406918Y258538D01*
X407066Y258621D01*
X407223Y258704D01*
X407408Y258778D01*
X407593Y258843D01*
X407806Y258899D01*
X408019Y258945D01*
X408259Y258973D01*
X408500Y258982D01*
X408611D01*
X408694Y258973D01*
D02*
G37*
G36*
X407808Y331807D02*
X407910Y331798D01*
X408021Y331780D01*
X408150Y331761D01*
X408289Y331733D01*
X408437Y331696D01*
X408594Y331650D01*
X408751Y331594D01*
X408918Y331521D01*
X409075Y331447D01*
X409223Y331354D01*
X409380Y331243D01*
X409519Y331123D01*
X409528D01*
X409538Y331104D01*
X409565Y331077D01*
X409593Y331049D01*
X409630Y331002D01*
X409667Y330947D01*
X409769Y330818D01*
X409871Y330651D01*
X409982Y330448D01*
X410083Y330216D01*
X410176Y329948D01*
X408899Y329643D01*
Y329652D01*
X408890Y329661D01*
Y329689D01*
X408872Y329726D01*
X408844Y329809D01*
X408798Y329920D01*
X408733Y330050D01*
X408650Y330179D01*
X408539Y330309D01*
X408419Y330420D01*
X408400Y330429D01*
X408354Y330466D01*
X408280Y330512D01*
X408178Y330568D01*
X408048Y330623D01*
X407900Y330669D01*
X407734Y330707D01*
X407549Y330716D01*
X407484D01*
X407429Y330707D01*
X407373Y330697D01*
X407299Y330688D01*
X407142Y330651D01*
X406957Y330586D01*
X406763Y330494D01*
X406661Y330438D01*
X406568Y330374D01*
X406476Y330290D01*
X406393Y330198D01*
Y330188D01*
X406374Y330170D01*
X406356Y330142D01*
X406328Y330096D01*
X406291Y330041D01*
X406254Y329976D01*
X406217Y329892D01*
X406180Y329800D01*
X406134Y329689D01*
X406097Y329569D01*
X406060Y329430D01*
X406023Y329282D01*
X405995Y329116D01*
X405976Y328940D01*
X405967Y328746D01*
X405958Y328533D01*
Y328523D01*
Y328477D01*
Y328413D01*
X405967Y328339D01*
Y328237D01*
X405986Y328116D01*
X405995Y327996D01*
X406013Y327857D01*
X406069Y327571D01*
X406143Y327284D01*
X406189Y327145D01*
X406254Y327016D01*
X406319Y326895D01*
X406393Y326794D01*
X406402Y326784D01*
X406411Y326775D01*
X406439Y326747D01*
X406476Y326711D01*
X406568Y326637D01*
X406698Y326544D01*
X406855Y326442D01*
X407050Y326368D01*
X407271Y326304D01*
X407392Y326294D01*
X407521Y326285D01*
X407568D01*
X407605Y326294D01*
X407706Y326304D01*
X407827Y326322D01*
X407956Y326368D01*
X408104Y326424D01*
X408252Y326498D01*
X408400Y326609D01*
X408419Y326627D01*
X408465Y326674D01*
X408530Y326747D01*
X408603Y326858D01*
X408696Y327007D01*
X408779Y327182D01*
X408862Y327395D01*
X408937Y327645D01*
X410194Y327256D01*
Y327247D01*
X410185Y327210D01*
X410167Y327154D01*
X410139Y327080D01*
X410102Y326997D01*
X410065Y326895D01*
X410019Y326784D01*
X409963Y326664D01*
X409834Y326414D01*
X409667Y326155D01*
X409464Y325906D01*
X409353Y325795D01*
X409233Y325693D01*
X409223Y325684D01*
X409205Y325675D01*
X409168Y325647D01*
X409112Y325610D01*
X409048Y325573D01*
X408964Y325536D01*
X408872Y325489D01*
X408770Y325443D01*
X408650Y325388D01*
X408520Y325342D01*
X408382Y325305D01*
X408233Y325268D01*
X408076Y325231D01*
X407900Y325203D01*
X407725Y325194D01*
X407530Y325184D01*
X407475D01*
X407410Y325194D01*
X407318Y325203D01*
X407216Y325212D01*
X407087Y325231D01*
X406948Y325258D01*
X406790Y325295D01*
X406633Y325342D01*
X406467Y325397D01*
X406291Y325471D01*
X406115Y325554D01*
X405939Y325647D01*
X405764Y325767D01*
X405597Y325897D01*
X405440Y326054D01*
X405431Y326063D01*
X405403Y326091D01*
X405366Y326146D01*
X405310Y326211D01*
X405255Y326304D01*
X405181Y326405D01*
X405107Y326535D01*
X405033Y326683D01*
X404959Y326840D01*
X404885Y327016D01*
X404811Y327219D01*
X404755Y327432D01*
X404700Y327654D01*
X404663Y327904D01*
X404635Y328163D01*
X404626Y328440D01*
Y328450D01*
Y328459D01*
Y328514D01*
X404635Y328597D01*
Y328709D01*
X404654Y328838D01*
X404672Y328995D01*
X404691Y329162D01*
X404728Y329356D01*
X404774Y329550D01*
X404830Y329754D01*
X404894Y329957D01*
X404978Y330170D01*
X405070Y330374D01*
X405181Y330568D01*
X405301Y330753D01*
X405449Y330928D01*
X405458Y330938D01*
X405486Y330965D01*
X405533Y331012D01*
X405597Y331067D01*
X405681Y331132D01*
X405782Y331206D01*
X405893Y331289D01*
X406032Y331372D01*
X406180Y331456D01*
X406337Y331539D01*
X406522Y331613D01*
X406707Y331678D01*
X406920Y331733D01*
X407133Y331780D01*
X407373Y331807D01*
X407614Y331817D01*
X407725D01*
X407808Y331807D01*
D02*
G37*
G36*
X485465Y259465D02*
X485567Y259455D01*
X485678Y259437D01*
X485808Y259419D01*
X485947Y259391D01*
X486095Y259354D01*
X486252Y259308D01*
X486409Y259252D01*
X486576Y259178D01*
X486733Y259104D01*
X486881Y259012D01*
X487038Y258900D01*
X487177Y258780D01*
X487186D01*
X487195Y258762D01*
X487223Y258734D01*
X487251Y258706D01*
X487288Y258660D01*
X487325Y258605D01*
X487427Y258475D01*
X487528Y258309D01*
X487639Y258105D01*
X487741Y257874D01*
X487833Y257606D01*
X486557Y257300D01*
Y257310D01*
X486548Y257319D01*
Y257347D01*
X486529Y257383D01*
X486502Y257467D01*
X486455Y257578D01*
X486390Y257707D01*
X486307Y257837D01*
X486196Y257966D01*
X486076Y258077D01*
X486058Y258086D01*
X486011Y258123D01*
X485937Y258170D01*
X485836Y258225D01*
X485706Y258281D01*
X485558Y258327D01*
X485392Y258364D01*
X485207Y258373D01*
X485142D01*
X485086Y258364D01*
X485031Y258355D01*
X484957Y258346D01*
X484799Y258309D01*
X484615Y258244D01*
X484420Y258151D01*
X484318Y258096D01*
X484226Y258031D01*
X484133Y257948D01*
X484050Y257855D01*
Y257846D01*
X484032Y257827D01*
X484013Y257800D01*
X483986Y257753D01*
X483949Y257698D01*
X483912Y257633D01*
X483875Y257550D01*
X483838Y257457D01*
X483791Y257347D01*
X483754Y257226D01*
X483717Y257087D01*
X483680Y256940D01*
X483652Y256773D01*
X483634Y256597D01*
X483625Y256403D01*
X483615Y256190D01*
Y256181D01*
Y256135D01*
Y256070D01*
X483625Y255996D01*
Y255894D01*
X483643Y255774D01*
X483652Y255654D01*
X483671Y255515D01*
X483727Y255228D01*
X483801Y254942D01*
X483847Y254803D01*
X483912Y254673D01*
X483976Y254553D01*
X484050Y254451D01*
X484059Y254442D01*
X484069Y254433D01*
X484096Y254405D01*
X484133Y254368D01*
X484226Y254294D01*
X484355Y254202D01*
X484513Y254100D01*
X484707Y254026D01*
X484929Y253961D01*
X485049Y253952D01*
X485179Y253942D01*
X485225D01*
X485262Y253952D01*
X485364Y253961D01*
X485484Y253979D01*
X485613Y254026D01*
X485761Y254081D01*
X485910Y254155D01*
X486058Y254266D01*
X486076Y254285D01*
X486122Y254331D01*
X486187Y254405D01*
X486261Y254516D01*
X486353Y254664D01*
X486437Y254840D01*
X486520Y255052D01*
X486594Y255302D01*
X487852Y254914D01*
Y254905D01*
X487843Y254868D01*
X487824Y254812D01*
X487796Y254738D01*
X487759Y254655D01*
X487722Y254553D01*
X487676Y254442D01*
X487621Y254322D01*
X487491Y254072D01*
X487325Y253813D01*
X487121Y253563D01*
X487010Y253452D01*
X486890Y253350D01*
X486881Y253341D01*
X486862Y253332D01*
X486825Y253304D01*
X486770Y253267D01*
X486705Y253230D01*
X486622Y253193D01*
X486529Y253147D01*
X486427Y253101D01*
X486307Y253045D01*
X486178Y252999D01*
X486039Y252962D01*
X485891Y252925D01*
X485734Y252888D01*
X485558Y252860D01*
X485382Y252851D01*
X485188Y252842D01*
X485133D01*
X485068Y252851D01*
X484975Y252860D01*
X484873Y252870D01*
X484744Y252888D01*
X484605Y252916D01*
X484448Y252953D01*
X484291Y252999D01*
X484124Y253054D01*
X483949Y253129D01*
X483773Y253212D01*
X483597Y253304D01*
X483421Y253425D01*
X483255Y253554D01*
X483098Y253711D01*
X483088Y253720D01*
X483061Y253748D01*
X483024Y253804D01*
X482968Y253869D01*
X482912Y253961D01*
X482838Y254063D01*
X482764Y254192D01*
X482690Y254340D01*
X482617Y254498D01*
X482543Y254673D01*
X482469Y254877D01*
X482413Y255089D01*
X482358Y255311D01*
X482320Y255561D01*
X482293Y255820D01*
X482283Y256098D01*
Y256107D01*
Y256116D01*
Y256172D01*
X482293Y256255D01*
Y256366D01*
X482311Y256495D01*
X482330Y256653D01*
X482348Y256819D01*
X482385Y257014D01*
X482432Y257208D01*
X482487Y257411D01*
X482552Y257615D01*
X482635Y257827D01*
X482727Y258031D01*
X482838Y258225D01*
X482959Y258410D01*
X483107Y258586D01*
X483116Y258595D01*
X483144Y258623D01*
X483190Y258669D01*
X483255Y258725D01*
X483338Y258789D01*
X483440Y258863D01*
X483551Y258947D01*
X483689Y259030D01*
X483838Y259113D01*
X483995Y259196D01*
X484180Y259271D01*
X484365Y259335D01*
X484578Y259391D01*
X484790Y259437D01*
X485031Y259465D01*
X485271Y259474D01*
X485382D01*
X485465Y259465D01*
D02*
G37*
G36*
X415964Y257631D02*
X413643D01*
X413448Y256540D01*
X413458D01*
X413467Y256549D01*
X413522Y256577D01*
X413606Y256605D01*
X413707Y256651D01*
X413837Y256688D01*
X413976Y256716D01*
X414133Y256743D01*
X414290Y256753D01*
X414373D01*
X414429Y256743D01*
X414494Y256734D01*
X414577Y256725D01*
X414669Y256706D01*
X414771Y256679D01*
X414984Y256605D01*
X415104Y256558D01*
X415215Y256503D01*
X415335Y256429D01*
X415456Y256346D01*
X415567Y256253D01*
X415678Y256151D01*
X415687Y256142D01*
X415705Y256124D01*
X415733Y256087D01*
X415770Y256040D01*
X415807Y255985D01*
X415863Y255911D01*
X415909Y255828D01*
X415964Y255735D01*
X416020Y255633D01*
X416066Y255513D01*
X416122Y255384D01*
X416159Y255254D01*
X416196Y255106D01*
X416223Y254949D01*
X416242Y254782D01*
X416251Y254607D01*
Y254597D01*
Y254570D01*
Y254533D01*
X416242Y254477D01*
Y254403D01*
X416223Y254320D01*
X416214Y254227D01*
X416196Y254135D01*
X416140Y253913D01*
X416057Y253672D01*
X416001Y253543D01*
X415946Y253423D01*
X415872Y253302D01*
X415789Y253182D01*
X415779Y253173D01*
X415761Y253145D01*
X415724Y253108D01*
X415678Y253053D01*
X415613Y252988D01*
X415530Y252914D01*
X415437Y252840D01*
X415335Y252766D01*
X415215Y252683D01*
X415086Y252609D01*
X414947Y252535D01*
X414790Y252470D01*
X414623Y252414D01*
X414447Y252377D01*
X414253Y252350D01*
X414050Y252340D01*
X413966D01*
X413902Y252350D01*
X413828Y252359D01*
X413735Y252368D01*
X413643Y252377D01*
X413532Y252396D01*
X413310Y252451D01*
X413060Y252544D01*
X412940Y252590D01*
X412819Y252655D01*
X412708Y252729D01*
X412597Y252812D01*
X412588Y252821D01*
X412570Y252831D01*
X412542Y252858D01*
X412505Y252895D01*
X412468Y252951D01*
X412412Y253006D01*
X412366Y253071D01*
X412311Y253145D01*
X412246Y253238D01*
X412190Y253330D01*
X412089Y253552D01*
X411996Y253802D01*
X411968Y253941D01*
X411941Y254089D01*
X413162Y254218D01*
Y254200D01*
X413171Y254153D01*
X413189Y254070D01*
X413217Y253978D01*
X413254Y253876D01*
X413310Y253765D01*
X413384Y253663D01*
X413467Y253561D01*
X413476Y253552D01*
X413513Y253524D01*
X413569Y253487D01*
X413643Y253441D01*
X413726Y253395D01*
X413828Y253358D01*
X413948Y253330D01*
X414068Y253321D01*
X414087D01*
X414133Y253330D01*
X414207Y253339D01*
X414299Y253358D01*
X414401Y253395D01*
X414512Y253450D01*
X414623Y253534D01*
X414725Y253635D01*
X414734Y253654D01*
X414771Y253691D01*
X414808Y253765D01*
X414864Y253876D01*
X414910Y254005D01*
X414956Y254163D01*
X414984Y254357D01*
X414993Y254579D01*
Y254588D01*
Y254607D01*
Y254634D01*
Y254681D01*
X414984Y254782D01*
X414956Y254912D01*
X414928Y255060D01*
X414882Y255208D01*
X414817Y255347D01*
X414725Y255467D01*
X414716Y255476D01*
X414679Y255513D01*
X414614Y255559D01*
X414540Y255624D01*
X414438Y255680D01*
X414318Y255726D01*
X414179Y255763D01*
X414031Y255772D01*
X413976D01*
X413939Y255763D01*
X413846Y255744D01*
X413717Y255717D01*
X413569Y255661D01*
X413411Y255578D01*
X413328Y255522D01*
X413245Y255458D01*
X413162Y255384D01*
X413078Y255300D01*
X412089Y255439D01*
X412718Y258778D01*
X415964D01*
Y257631D01*
D02*
G37*
G36*
X413497Y331724D02*
X413561D01*
X413635Y331715D01*
X413802Y331678D01*
X413987Y331631D01*
X414190Y331557D01*
X414394Y331456D01*
X414487Y331391D01*
X414579Y331317D01*
X414588D01*
X414598Y331298D01*
X414625Y331271D01*
X414653Y331243D01*
X414699Y331197D01*
X414736Y331151D01*
X414838Y331021D01*
X414940Y330845D01*
X415041Y330642D01*
X415134Y330411D01*
X415199Y330133D01*
X414015Y330003D01*
Y330022D01*
X414006Y330059D01*
X413987Y330124D01*
X413969Y330207D01*
X413941Y330290D01*
X413895Y330383D01*
X413848Y330466D01*
X413784Y330540D01*
X413774Y330549D01*
X413747Y330568D01*
X413709Y330595D01*
X413654Y330632D01*
X413589Y330660D01*
X413506Y330688D01*
X413404Y330707D01*
X413303Y330716D01*
X413284D01*
X413238Y330707D01*
X413164Y330697D01*
X413071Y330669D01*
X412969Y330632D01*
X412858Y330568D01*
X412747Y330485D01*
X412646Y330364D01*
X412637Y330346D01*
X412618Y330327D01*
X412600Y330290D01*
X412581Y330253D01*
X412553Y330198D01*
X412535Y330133D01*
X412507Y330050D01*
X412470Y329957D01*
X412442Y329855D01*
X412415Y329735D01*
X412387Y329606D01*
X412359Y329458D01*
X412340Y329291D01*
X412322Y329106D01*
X412303Y328912D01*
X412313Y328921D01*
X412322Y328940D01*
X412350Y328958D01*
X412387Y328995D01*
X412433Y329042D01*
X412489Y329088D01*
X412618Y329189D01*
X412784Y329282D01*
X412979Y329375D01*
X413090Y329412D01*
X413201Y329430D01*
X413321Y329449D01*
X413450Y329458D01*
X413524D01*
X413580Y329449D01*
X413645Y329439D01*
X413719Y329430D01*
X413811Y329412D01*
X413904Y329384D01*
X414107Y329310D01*
X414218Y329263D01*
X414329Y329208D01*
X414440Y329143D01*
X414551Y329060D01*
X414662Y328967D01*
X414764Y328866D01*
X414773Y328856D01*
X414792Y328838D01*
X414819Y328810D01*
X414847Y328764D01*
X414893Y328699D01*
X414940Y328635D01*
X414986Y328551D01*
X415041Y328459D01*
X415097Y328357D01*
X415143Y328237D01*
X415190Y328116D01*
X415236Y327978D01*
X415264Y327839D01*
X415291Y327682D01*
X415310Y327524D01*
X415319Y327349D01*
Y327340D01*
Y327303D01*
Y327256D01*
X415310Y327182D01*
X415301Y327099D01*
X415291Y327007D01*
X415273Y326895D01*
X415245Y326784D01*
X415180Y326525D01*
X415134Y326396D01*
X415069Y326267D01*
X415004Y326137D01*
X414930Y326008D01*
X414838Y325878D01*
X414736Y325767D01*
X414727Y325758D01*
X414709Y325739D01*
X414681Y325711D01*
X414635Y325675D01*
X414579Y325628D01*
X414505Y325582D01*
X414431Y325526D01*
X414338Y325471D01*
X414237Y325415D01*
X414126Y325360D01*
X414006Y325314D01*
X413867Y325268D01*
X413728Y325231D01*
X413580Y325203D01*
X413423Y325184D01*
X413256Y325175D01*
X413210D01*
X413164Y325184D01*
X413099D01*
X413016Y325203D01*
X412914Y325212D01*
X412812Y325240D01*
X412692Y325268D01*
X412572Y325305D01*
X412442Y325360D01*
X412303Y325415D01*
X412174Y325489D01*
X412035Y325573D01*
X411906Y325675D01*
X411776Y325795D01*
X411656Y325924D01*
X411647Y325934D01*
X411628Y325961D01*
X411600Y326008D01*
X411563Y326072D01*
X411508Y326155D01*
X411462Y326257D01*
X411406Y326378D01*
X411351Y326516D01*
X411286Y326683D01*
X411231Y326858D01*
X411184Y327062D01*
X411138Y327293D01*
X411092Y327534D01*
X411064Y327802D01*
X411046Y328089D01*
X411036Y328403D01*
Y328413D01*
Y328422D01*
Y328450D01*
Y328477D01*
Y328570D01*
X411046Y328690D01*
X411055Y328838D01*
X411073Y329005D01*
X411092Y329189D01*
X411120Y329384D01*
X411147Y329587D01*
X411194Y329800D01*
X411249Y330013D01*
X411314Y330225D01*
X411388Y330420D01*
X411471Y330614D01*
X411573Y330790D01*
X411684Y330947D01*
X411693Y330956D01*
X411712Y330984D01*
X411749Y331021D01*
X411804Y331067D01*
X411869Y331132D01*
X411943Y331197D01*
X412035Y331271D01*
X412137Y331345D01*
X412257Y331410D01*
X412378Y331484D01*
X412526Y331548D01*
X412674Y331613D01*
X412831Y331659D01*
X413006Y331696D01*
X413182Y331724D01*
X413377Y331733D01*
X413450D01*
X413497Y331724D01*
D02*
G37*
G36*
X569915Y332511D02*
X569989Y332502D01*
X570082Y332484D01*
X570174Y332465D01*
X570285Y332437D01*
X570405Y332400D01*
X570516Y332354D01*
X570637Y332308D01*
X570757Y332243D01*
X570877Y332160D01*
X570997Y332077D01*
X571108Y331975D01*
X571210Y331855D01*
X571219Y331845D01*
X571238Y331818D01*
X571266Y331771D01*
X571312Y331707D01*
X571358Y331614D01*
X571414Y331503D01*
X571469Y331383D01*
X571525Y331226D01*
X571580Y331059D01*
X571645Y330865D01*
X571691Y330652D01*
X571737Y330412D01*
X571784Y330153D01*
X571811Y329875D01*
X571830Y329570D01*
X571839Y329237D01*
Y329228D01*
Y329218D01*
Y329191D01*
Y329154D01*
Y329061D01*
X571830Y328941D01*
X571821Y328793D01*
X571802Y328617D01*
X571784Y328432D01*
X571765Y328229D01*
X571728Y328016D01*
X571682Y327794D01*
X571636Y327581D01*
X571571Y327368D01*
X571506Y327156D01*
X571414Y326961D01*
X571321Y326776D01*
X571210Y326619D01*
X571201Y326610D01*
X571182Y326591D01*
X571155Y326554D01*
X571118Y326517D01*
X571062Y326471D01*
X570997Y326416D01*
X570914Y326351D01*
X570831Y326295D01*
X570729Y326231D01*
X570627Y326166D01*
X570507Y326110D01*
X570378Y326064D01*
X570239Y326027D01*
X570082Y325990D01*
X569924Y325972D01*
X569758Y325962D01*
X569721D01*
X569665Y325972D01*
X569601D01*
X569527Y325981D01*
X569434Y325999D01*
X569333Y326018D01*
X569221Y326055D01*
X569101Y326092D01*
X568981Y326138D01*
X568852Y326194D01*
X568731Y326268D01*
X568602Y326342D01*
X568481Y326443D01*
X568361Y326545D01*
X568250Y326675D01*
X568241Y326684D01*
X568223Y326712D01*
X568195Y326758D01*
X568167Y326813D01*
X568121Y326897D01*
X568075Y326998D01*
X568019Y327128D01*
X567973Y327267D01*
X567917Y327433D01*
X567862Y327618D01*
X567815Y327831D01*
X567778Y328062D01*
X567741Y328321D01*
X567714Y328608D01*
X567695Y328913D01*
X567686Y329246D01*
Y329255D01*
Y329265D01*
Y329292D01*
Y329329D01*
Y329422D01*
X567695Y329542D01*
X567704Y329690D01*
X567723Y329866D01*
X567741Y330051D01*
X567760Y330254D01*
X567797Y330467D01*
X567834Y330680D01*
X567889Y330902D01*
X567945Y331115D01*
X568019Y331318D01*
X568102Y331512D01*
X568195Y331697D01*
X568306Y331855D01*
X568315Y331864D01*
X568333Y331882D01*
X568361Y331919D01*
X568407Y331956D01*
X568454Y332012D01*
X568518Y332067D01*
X568602Y332123D01*
X568685Y332188D01*
X568787Y332252D01*
X568889Y332308D01*
X569009Y332363D01*
X569138Y332419D01*
X569277Y332456D01*
X569434Y332493D01*
X569592Y332511D01*
X569758Y332521D01*
X569850D01*
X569915Y332511D01*
D02*
G37*
G36*
X560662Y259170D02*
X560764Y259160D01*
X560875Y259142D01*
X561005Y259123D01*
X561143Y259096D01*
X561291Y259058D01*
X561449Y259012D01*
X561606Y258957D01*
X561772Y258883D01*
X561930Y258809D01*
X562078Y258716D01*
X562235Y258605D01*
X562374Y258485D01*
X562383D01*
X562392Y258467D01*
X562420Y258439D01*
X562448Y258411D01*
X562485Y258365D01*
X562522Y258309D01*
X562623Y258180D01*
X562725Y258013D01*
X562836Y257810D01*
X562938Y257578D01*
X563030Y257310D01*
X561754Y257005D01*
Y257014D01*
X561745Y257024D01*
Y257051D01*
X561726Y257088D01*
X561698Y257172D01*
X561652Y257282D01*
X561587Y257412D01*
X561504Y257541D01*
X561393Y257671D01*
X561273Y257782D01*
X561254Y257791D01*
X561208Y257828D01*
X561134Y257874D01*
X561032Y257930D01*
X560903Y257985D01*
X560755Y258032D01*
X560588Y258069D01*
X560403Y258078D01*
X560339D01*
X560283Y258069D01*
X560228Y258060D01*
X560154Y258050D01*
X559996Y258013D01*
X559811Y257948D01*
X559617Y257856D01*
X559515Y257801D01*
X559423Y257736D01*
X559330Y257652D01*
X559247Y257560D01*
Y257551D01*
X559229Y257532D01*
X559210Y257505D01*
X559182Y257458D01*
X559145Y257403D01*
X559108Y257338D01*
X559071Y257255D01*
X559034Y257162D01*
X558988Y257051D01*
X558951Y256931D01*
X558914Y256792D01*
X558877Y256644D01*
X558849Y256478D01*
X558831Y256302D01*
X558822Y256108D01*
X558812Y255895D01*
Y255886D01*
Y255839D01*
Y255775D01*
X558822Y255701D01*
Y255599D01*
X558840Y255479D01*
X558849Y255359D01*
X558868Y255220D01*
X558923Y254933D01*
X558997Y254646D01*
X559044Y254507D01*
X559108Y254378D01*
X559173Y254258D01*
X559247Y254156D01*
X559256Y254147D01*
X559266Y254137D01*
X559293Y254110D01*
X559330Y254073D01*
X559423Y253999D01*
X559552Y253906D01*
X559710Y253804D01*
X559904Y253731D01*
X560126Y253666D01*
X560246Y253657D01*
X560376Y253647D01*
X560422D01*
X560459Y253657D01*
X560561Y253666D01*
X560681Y253684D01*
X560810Y253731D01*
X560958Y253786D01*
X561106Y253860D01*
X561254Y253971D01*
X561273Y253990D01*
X561319Y254036D01*
X561384Y254110D01*
X561458Y254221D01*
X561550Y254369D01*
X561634Y254544D01*
X561717Y254757D01*
X561791Y255007D01*
X563049Y254619D01*
Y254609D01*
X563040Y254572D01*
X563021Y254517D01*
X562993Y254443D01*
X562956Y254360D01*
X562919Y254258D01*
X562873Y254147D01*
X562818Y254027D01*
X562688Y253777D01*
X562522Y253518D01*
X562318Y253268D01*
X562207Y253157D01*
X562087Y253055D01*
X562078Y253046D01*
X562059Y253037D01*
X562022Y253009D01*
X561967Y252972D01*
X561902Y252935D01*
X561819Y252898D01*
X561726Y252852D01*
X561624Y252805D01*
X561504Y252750D01*
X561375Y252704D01*
X561236Y252667D01*
X561088Y252630D01*
X560931Y252593D01*
X560755Y252565D01*
X560579Y252556D01*
X560385Y252547D01*
X560329D01*
X560265Y252556D01*
X560172Y252565D01*
X560070Y252574D01*
X559941Y252593D01*
X559802Y252621D01*
X559645Y252658D01*
X559488Y252704D01*
X559321Y252759D01*
X559145Y252833D01*
X558970Y252917D01*
X558794Y253009D01*
X558618Y253129D01*
X558452Y253259D01*
X558294Y253416D01*
X558285Y253425D01*
X558257Y253453D01*
X558220Y253508D01*
X558165Y253573D01*
X558109Y253666D01*
X558035Y253767D01*
X557961Y253897D01*
X557887Y254045D01*
X557813Y254202D01*
X557739Y254378D01*
X557665Y254581D01*
X557610Y254794D01*
X557554Y255016D01*
X557517Y255266D01*
X557490Y255525D01*
X557480Y255802D01*
Y255812D01*
Y255821D01*
Y255876D01*
X557490Y255960D01*
Y256071D01*
X557508Y256200D01*
X557527Y256358D01*
X557545Y256524D01*
X557582Y256718D01*
X557628Y256912D01*
X557684Y257116D01*
X557749Y257319D01*
X557832Y257532D01*
X557924Y257736D01*
X558035Y257930D01*
X558156Y258115D01*
X558304Y258291D01*
X558313Y258300D01*
X558341Y258328D01*
X558387Y258374D01*
X558452Y258430D01*
X558535Y258494D01*
X558637Y258568D01*
X558748Y258651D01*
X558886Y258735D01*
X559034Y258818D01*
X559192Y258901D01*
X559377Y258975D01*
X559562Y259040D01*
X559774Y259096D01*
X559987Y259142D01*
X560228Y259170D01*
X560468Y259179D01*
X560579D01*
X560662Y259170D01*
D02*
G37*
G36*
X559481Y332595D02*
X559583Y332585D01*
X559694Y332567D01*
X559824Y332548D01*
X559962Y332521D01*
X560110Y332484D01*
X560267Y332437D01*
X560425Y332382D01*
X560591Y332308D01*
X560748Y332234D01*
X560896Y332141D01*
X561054Y332030D01*
X561193Y331910D01*
X561202D01*
X561211Y331892D01*
X561239Y331864D01*
X561267Y331836D01*
X561304Y331790D01*
X561341Y331734D01*
X561442Y331605D01*
X561544Y331438D01*
X561655Y331235D01*
X561757Y331004D01*
X561849Y330735D01*
X560573Y330430D01*
Y330439D01*
X560564Y330449D01*
Y330476D01*
X560545Y330513D01*
X560517Y330597D01*
X560471Y330708D01*
X560406Y330837D01*
X560323Y330967D01*
X560212Y331096D01*
X560092Y331207D01*
X560073Y331216D01*
X560027Y331253D01*
X559953Y331300D01*
X559851Y331355D01*
X559722Y331411D01*
X559574Y331457D01*
X559407Y331494D01*
X559222Y331503D01*
X559158D01*
X559102Y331494D01*
X559047Y331485D01*
X558973Y331475D01*
X558815Y331438D01*
X558630Y331374D01*
X558436Y331281D01*
X558334Y331226D01*
X558242Y331161D01*
X558149Y331078D01*
X558066Y330985D01*
Y330976D01*
X558047Y330957D01*
X558029Y330930D01*
X558001Y330883D01*
X557964Y330828D01*
X557927Y330763D01*
X557890Y330680D01*
X557853Y330587D01*
X557807Y330476D01*
X557770Y330356D01*
X557733Y330217D01*
X557696Y330069D01*
X557668Y329903D01*
X557650Y329727D01*
X557641Y329533D01*
X557631Y329320D01*
Y329311D01*
Y329265D01*
Y329200D01*
X557641Y329126D01*
Y329024D01*
X557659Y328904D01*
X557668Y328784D01*
X557687Y328645D01*
X557742Y328358D01*
X557816Y328071D01*
X557863Y327933D01*
X557927Y327803D01*
X557992Y327683D01*
X558066Y327581D01*
X558075Y327572D01*
X558084Y327563D01*
X558112Y327535D01*
X558149Y327498D01*
X558242Y327424D01*
X558371Y327331D01*
X558529Y327230D01*
X558723Y327156D01*
X558945Y327091D01*
X559065Y327082D01*
X559195Y327072D01*
X559241D01*
X559278Y327082D01*
X559379Y327091D01*
X559500Y327109D01*
X559629Y327156D01*
X559777Y327211D01*
X559925Y327285D01*
X560073Y327396D01*
X560092Y327415D01*
X560138Y327461D01*
X560203Y327535D01*
X560277Y327646D01*
X560369Y327794D01*
X560453Y327970D01*
X560536Y328182D01*
X560610Y328432D01*
X561868Y328044D01*
Y328034D01*
X561859Y327997D01*
X561840Y327942D01*
X561812Y327868D01*
X561775Y327785D01*
X561738Y327683D01*
X561692Y327572D01*
X561636Y327452D01*
X561507Y327202D01*
X561341Y326943D01*
X561137Y326693D01*
X561026Y326582D01*
X560906Y326480D01*
X560896Y326471D01*
X560878Y326462D01*
X560841Y326434D01*
X560785Y326397D01*
X560721Y326360D01*
X560638Y326323D01*
X560545Y326277D01*
X560443Y326231D01*
X560323Y326175D01*
X560193Y326129D01*
X560055Y326092D01*
X559907Y326055D01*
X559750Y326018D01*
X559574Y325990D01*
X559398Y325981D01*
X559204Y325972D01*
X559148D01*
X559084Y325981D01*
X558991Y325990D01*
X558889Y325999D01*
X558760Y326018D01*
X558621Y326046D01*
X558464Y326083D01*
X558307Y326129D01*
X558140Y326184D01*
X557964Y326258D01*
X557789Y326342D01*
X557613Y326434D01*
X557437Y326554D01*
X557270Y326684D01*
X557113Y326841D01*
X557104Y326850D01*
X557076Y326878D01*
X557039Y326934D01*
X556984Y326998D01*
X556928Y327091D01*
X556854Y327193D01*
X556780Y327322D01*
X556706Y327470D01*
X556632Y327627D01*
X556558Y327803D01*
X556484Y328007D01*
X556429Y328219D01*
X556373Y328441D01*
X556336Y328691D01*
X556309Y328950D01*
X556299Y329228D01*
Y329237D01*
Y329246D01*
Y329302D01*
X556309Y329385D01*
Y329496D01*
X556327Y329625D01*
X556346Y329783D01*
X556364Y329949D01*
X556401Y330143D01*
X556447Y330338D01*
X556503Y330541D01*
X556567Y330745D01*
X556651Y330957D01*
X556743Y331161D01*
X556854Y331355D01*
X556975Y331540D01*
X557123Y331716D01*
X557132Y331725D01*
X557160Y331753D01*
X557206Y331799D01*
X557270Y331855D01*
X557354Y331919D01*
X557455Y331993D01*
X557566Y332077D01*
X557705Y332160D01*
X557853Y332243D01*
X558010Y332326D01*
X558195Y332400D01*
X558381Y332465D01*
X558593Y332521D01*
X558806Y332567D01*
X559047Y332595D01*
X559287Y332604D01*
X559398D01*
X559481Y332595D01*
D02*
G37*
G36*
X565845Y326083D02*
X564615D01*
Y330717D01*
X564606Y330708D01*
X564587Y330689D01*
X564550Y330661D01*
X564495Y330615D01*
X564430Y330560D01*
X564356Y330504D01*
X564263Y330439D01*
X564162Y330365D01*
X564051Y330291D01*
X563931Y330217D01*
X563801Y330134D01*
X563662Y330060D01*
X563366Y329921D01*
X563033Y329792D01*
Y330902D01*
X563042D01*
X563052Y330911D01*
X563080Y330920D01*
X563117Y330930D01*
X563209Y330976D01*
X563339Y331031D01*
X563496Y331105D01*
X563671Y331207D01*
X563866Y331337D01*
X564069Y331485D01*
X564079Y331494D01*
X564097Y331503D01*
X564125Y331531D01*
X564162Y331568D01*
X564263Y331660D01*
X564374Y331781D01*
X564504Y331929D01*
X564634Y332114D01*
X564754Y332308D01*
X564846Y332521D01*
X565845D01*
Y326083D01*
D02*
G37*
G36*
X565935Y259086D02*
X566009D01*
X566092Y259077D01*
X566185Y259058D01*
X566296Y259031D01*
X566407Y259003D01*
X566536Y258957D01*
X566666Y258910D01*
X566795Y258846D01*
X566934Y258772D01*
X567063Y258688D01*
X567193Y258587D01*
X567322Y258467D01*
X567443Y258337D01*
X567452Y258328D01*
X567470Y258300D01*
X567498Y258254D01*
X567544Y258189D01*
X567591Y258106D01*
X567646Y258004D01*
X567702Y257884D01*
X567757Y257745D01*
X567813Y257578D01*
X567877Y257394D01*
X567924Y257190D01*
X567970Y256968D01*
X568016Y256718D01*
X568044Y256450D01*
X568062Y256163D01*
X568072Y255849D01*
Y255839D01*
Y255830D01*
Y255802D01*
Y255775D01*
Y255682D01*
X568062Y255562D01*
X568053Y255414D01*
X568035Y255247D01*
X568016Y255072D01*
X567988Y254877D01*
X567951Y254665D01*
X567914Y254461D01*
X567859Y254248D01*
X567794Y254036D01*
X567720Y253841D01*
X567628Y253647D01*
X567535Y253471D01*
X567415Y253314D01*
X567406Y253305D01*
X567387Y253277D01*
X567350Y253240D01*
X567295Y253194D01*
X567230Y253138D01*
X567156Y253064D01*
X567063Y253000D01*
X566962Y252926D01*
X566851Y252852D01*
X566721Y252787D01*
X566582Y252722D01*
X566434Y252658D01*
X566268Y252611D01*
X566101Y252574D01*
X565926Y252547D01*
X565731Y252537D01*
X565657D01*
X565611Y252547D01*
X565546D01*
X565472Y252556D01*
X565297Y252584D01*
X565102Y252639D01*
X564908Y252704D01*
X564705Y252805D01*
X564612Y252861D01*
X564520Y252935D01*
X564510Y252944D01*
X564501Y252954D01*
X564473Y252981D01*
X564446Y253009D01*
X564409Y253055D01*
X564362Y253101D01*
X564325Y253166D01*
X564270Y253231D01*
X564224Y253314D01*
X564168Y253397D01*
X564122Y253499D01*
X564076Y253610D01*
X564029Y253721D01*
X563992Y253851D01*
X563955Y253980D01*
X563928Y254128D01*
X565112Y254267D01*
Y254248D01*
X565121Y254202D01*
X565130Y254137D01*
X565158Y254064D01*
X565186Y253971D01*
X565223Y253878D01*
X565269Y253795D01*
X565334Y253721D01*
X565343Y253712D01*
X565371Y253694D01*
X565408Y253666D01*
X565463Y253638D01*
X565537Y253610D01*
X565611Y253583D01*
X565713Y253564D01*
X565815Y253555D01*
X565833D01*
X565879Y253564D01*
X565944Y253573D01*
X566037Y253601D01*
X566138Y253638D01*
X566240Y253703D01*
X566351Y253786D01*
X566453Y253897D01*
X566462Y253916D01*
X566481Y253934D01*
X566499Y253971D01*
X566518Y254008D01*
X566545Y254064D01*
X566564Y254128D01*
X566601Y254211D01*
X566629Y254304D01*
X566656Y254406D01*
X566684Y254526D01*
X566712Y254656D01*
X566740Y254803D01*
X566758Y254970D01*
X566777Y255155D01*
X566795Y255349D01*
X566786Y255340D01*
X566777Y255331D01*
X566749Y255303D01*
X566712Y255266D01*
X566666Y255229D01*
X566610Y255183D01*
X566481Y255081D01*
X566314Y254979D01*
X566111Y254896D01*
X566000Y254859D01*
X565889Y254840D01*
X565768Y254822D01*
X565639Y254813D01*
X565565D01*
X565509Y254822D01*
X565445Y254831D01*
X565371Y254840D01*
X565195Y254887D01*
X564991Y254952D01*
X564890Y255007D01*
X564779Y255063D01*
X564668Y255127D01*
X564557Y255201D01*
X564446Y255294D01*
X564344Y255396D01*
X564335Y255405D01*
X564316Y255423D01*
X564298Y255460D01*
X564261Y255497D01*
X564214Y255562D01*
X564168Y255627D01*
X564122Y255710D01*
X564076Y255802D01*
X564020Y255904D01*
X563974Y256025D01*
X563928Y256145D01*
X563881Y256283D01*
X563844Y256422D01*
X563826Y256579D01*
X563807Y256746D01*
X563798Y256912D01*
Y256922D01*
Y256959D01*
Y257005D01*
X563807Y257079D01*
X563817Y257162D01*
X563826Y257255D01*
X563844Y257366D01*
X563872Y257477D01*
X563937Y257727D01*
X563983Y257865D01*
X564039Y257995D01*
X564103Y258124D01*
X564187Y258254D01*
X564270Y258374D01*
X564372Y258494D01*
X564381Y258504D01*
X564399Y258522D01*
X564427Y258550D01*
X564473Y258587D01*
X564538Y258633D01*
X564603Y258688D01*
X564686Y258735D01*
X564779Y258800D01*
X564871Y258855D01*
X564991Y258901D01*
X565112Y258957D01*
X565241Y259003D01*
X565380Y259040D01*
X565528Y259068D01*
X565676Y259086D01*
X565842Y259096D01*
X565889D01*
X565935Y259086D01*
D02*
G37*
G36*
X253477Y330922D02*
X253579Y330912D01*
X253690Y330894D01*
X253819Y330875D01*
X253958Y330847D01*
X254106Y330810D01*
X254263Y330764D01*
X254421Y330709D01*
X254587Y330635D01*
X254745Y330561D01*
X254892Y330468D01*
X255050Y330357D01*
X255188Y330237D01*
X255198D01*
X255207Y330218D01*
X255235Y330191D01*
X255262Y330163D01*
X255299Y330117D01*
X255336Y330061D01*
X255438Y329932D01*
X255540Y329765D01*
X255651Y329562D01*
X255753Y329330D01*
X255845Y329062D01*
X254569Y328757D01*
Y328766D01*
X254559Y328776D01*
Y328803D01*
X254541Y328840D01*
X254513Y328924D01*
X254467Y329034D01*
X254402Y329164D01*
X254319Y329293D01*
X254208Y329423D01*
X254088Y329534D01*
X254069Y329543D01*
X254023Y329580D01*
X253949Y329626D01*
X253847Y329682D01*
X253718Y329737D01*
X253570Y329784D01*
X253403Y329821D01*
X253218Y329830D01*
X253153D01*
X253098Y329821D01*
X253043Y329812D01*
X252969Y329802D01*
X252811Y329765D01*
X252626Y329700D01*
X252432Y329608D01*
X252330Y329552D01*
X252238Y329488D01*
X252145Y329404D01*
X252062Y329312D01*
Y329303D01*
X252044Y329284D01*
X252025Y329256D01*
X251997Y329210D01*
X251960Y329155D01*
X251923Y329090D01*
X251886Y329007D01*
X251849Y328914D01*
X251803Y328803D01*
X251766Y328683D01*
X251729Y328544D01*
X251692Y328396D01*
X251664Y328230D01*
X251646Y328054D01*
X251637Y327860D01*
X251627Y327647D01*
Y327638D01*
Y327591D01*
Y327527D01*
X251637Y327453D01*
Y327351D01*
X251655Y327231D01*
X251664Y327110D01*
X251683Y326972D01*
X251738Y326685D01*
X251812Y326398D01*
X251858Y326259D01*
X251923Y326130D01*
X251988Y326010D01*
X252062Y325908D01*
X252071Y325899D01*
X252080Y325889D01*
X252108Y325862D01*
X252145Y325825D01*
X252238Y325751D01*
X252367Y325658D01*
X252524Y325556D01*
X252719Y325483D01*
X252941Y325418D01*
X253061Y325408D01*
X253190Y325399D01*
X253237D01*
X253274Y325408D01*
X253376Y325418D01*
X253496Y325436D01*
X253625Y325483D01*
X253773Y325538D01*
X253921Y325612D01*
X254069Y325723D01*
X254088Y325741D01*
X254134Y325788D01*
X254199Y325862D01*
X254273Y325973D01*
X254365Y326121D01*
X254449Y326296D01*
X254532Y326509D01*
X254606Y326759D01*
X255864Y326370D01*
Y326361D01*
X255855Y326324D01*
X255836Y326269D01*
X255808Y326195D01*
X255771Y326112D01*
X255734Y326010D01*
X255688Y325899D01*
X255632Y325779D01*
X255503Y325529D01*
X255336Y325270D01*
X255133Y325020D01*
X255022Y324909D01*
X254902Y324807D01*
X254892Y324798D01*
X254874Y324789D01*
X254837Y324761D01*
X254782Y324724D01*
X254717Y324687D01*
X254633Y324650D01*
X254541Y324604D01*
X254439Y324557D01*
X254319Y324502D01*
X254189Y324456D01*
X254051Y324419D01*
X253903Y324382D01*
X253746Y324345D01*
X253570Y324317D01*
X253394Y324308D01*
X253200Y324299D01*
X253144D01*
X253080Y324308D01*
X252987Y324317D01*
X252885Y324326D01*
X252756Y324345D01*
X252617Y324372D01*
X252460Y324410D01*
X252303Y324456D01*
X252136Y324511D01*
X251960Y324585D01*
X251784Y324668D01*
X251609Y324761D01*
X251433Y324881D01*
X251267Y325011D01*
X251109Y325168D01*
X251100Y325177D01*
X251072Y325205D01*
X251035Y325260D01*
X250980Y325325D01*
X250924Y325418D01*
X250850Y325519D01*
X250776Y325649D01*
X250702Y325797D01*
X250628Y325954D01*
X250554Y326130D01*
X250480Y326333D01*
X250425Y326546D01*
X250369Y326768D01*
X250332Y327018D01*
X250305Y327277D01*
X250295Y327554D01*
Y327564D01*
Y327573D01*
Y327628D01*
X250305Y327712D01*
Y327823D01*
X250323Y327952D01*
X250342Y328110D01*
X250360Y328276D01*
X250397Y328470D01*
X250443Y328664D01*
X250499Y328868D01*
X250564Y329071D01*
X250647Y329284D01*
X250739Y329488D01*
X250850Y329682D01*
X250971Y329867D01*
X251118Y330043D01*
X251128Y330052D01*
X251155Y330080D01*
X251202Y330126D01*
X251267Y330181D01*
X251350Y330246D01*
X251451Y330320D01*
X251562Y330403D01*
X251701Y330487D01*
X251849Y330570D01*
X252007Y330653D01*
X252191Y330727D01*
X252377Y330792D01*
X252589Y330847D01*
X252802Y330894D01*
X253043Y330922D01*
X253283Y330931D01*
X253394D01*
X253477Y330922D01*
D02*
G37*
G36*
X258972Y330838D02*
X259055Y330829D01*
X259148Y330820D01*
X259249Y330801D01*
X259360Y330783D01*
X259601Y330718D01*
X259841Y330626D01*
X259971Y330570D01*
X260082Y330505D01*
X260202Y330422D01*
X260304Y330329D01*
X260313Y330320D01*
X260332Y330311D01*
X260350Y330274D01*
X260387Y330237D01*
X260433Y330191D01*
X260479Y330126D01*
X260526Y330061D01*
X260581Y329978D01*
X260674Y329793D01*
X260766Y329580D01*
X260803Y329460D01*
X260822Y329330D01*
X260840Y329192D01*
X260849Y329053D01*
Y329034D01*
Y328979D01*
X260840Y328896D01*
X260831Y328794D01*
X260812Y328664D01*
X260785Y328526D01*
X260748Y328378D01*
X260692Y328230D01*
X260683Y328211D01*
X260665Y328165D01*
X260628Y328082D01*
X260572Y327980D01*
X260507Y327860D01*
X260424Y327721D01*
X260322Y327573D01*
X260202Y327416D01*
X260193Y327406D01*
X260156Y327360D01*
X260100Y327295D01*
X260017Y327203D01*
X259906Y327092D01*
X259767Y326944D01*
X259601Y326787D01*
X259397Y326592D01*
X259388Y326583D01*
X259369Y326574D01*
X259342Y326546D01*
X259305Y326509D01*
X259203Y326417D01*
X259083Y326306D01*
X258962Y326185D01*
X258842Y326065D01*
X258731Y325963D01*
X258694Y325917D01*
X258657Y325880D01*
X258648Y325871D01*
X258629Y325852D01*
X258602Y325816D01*
X258565Y325769D01*
X258482Y325668D01*
X258407Y325547D01*
X260849D01*
Y324410D01*
X256548D01*
Y324419D01*
Y324437D01*
X256557Y324474D01*
X256567Y324520D01*
X256576Y324576D01*
X256585Y324641D01*
X256622Y324807D01*
X256678Y324992D01*
X256752Y325196D01*
X256844Y325418D01*
X256964Y325630D01*
Y325640D01*
X256983Y325658D01*
X257001Y325695D01*
X257038Y325732D01*
X257076Y325797D01*
X257131Y325862D01*
X257196Y325945D01*
X257270Y326037D01*
X257353Y326149D01*
X257455Y326259D01*
X257566Y326389D01*
X257695Y326528D01*
X257834Y326666D01*
X257991Y326824D01*
X258158Y326990D01*
X258343Y327166D01*
X258352Y327175D01*
X258380Y327203D01*
X258417Y327240D01*
X258472Y327295D01*
X258546Y327351D01*
X258620Y327425D01*
X258787Y327591D01*
X258953Y327767D01*
X259120Y327943D01*
X259194Y328017D01*
X259268Y328100D01*
X259323Y328165D01*
X259360Y328220D01*
X259369Y328239D01*
X259397Y328285D01*
X259443Y328359D01*
X259490Y328461D01*
X259536Y328572D01*
X259582Y328701D01*
X259610Y328831D01*
X259619Y328970D01*
Y328979D01*
Y328988D01*
Y329034D01*
X259610Y329118D01*
X259592Y329210D01*
X259564Y329312D01*
X259527Y329414D01*
X259471Y329516D01*
X259397Y329608D01*
X259388Y329617D01*
X259360Y329645D01*
X259305Y329682D01*
X259240Y329719D01*
X259148Y329756D01*
X259046Y329793D01*
X258926Y329821D01*
X258787Y329830D01*
X258722D01*
X258648Y329821D01*
X258565Y329802D01*
X258463Y329774D01*
X258361Y329728D01*
X258260Y329673D01*
X258167Y329599D01*
X258158Y329589D01*
X258130Y329552D01*
X258093Y329497D01*
X258056Y329414D01*
X258010Y329312D01*
X257973Y329173D01*
X257936Y329016D01*
X257917Y328831D01*
X256696Y328951D01*
Y328960D01*
X256705Y328997D01*
Y329044D01*
X256724Y329118D01*
X256733Y329201D01*
X256761Y329293D01*
X256789Y329395D01*
X256817Y329516D01*
X256909Y329747D01*
X257020Y329987D01*
X257094Y330107D01*
X257177Y330218D01*
X257270Y330311D01*
X257371Y330403D01*
X257381Y330413D01*
X257399Y330422D01*
X257427Y330440D01*
X257473Y330477D01*
X257529Y330505D01*
X257603Y330542D01*
X257677Y330589D01*
X257769Y330626D01*
X257871Y330672D01*
X257982Y330709D01*
X258223Y330783D01*
X258509Y330829D01*
X258657Y330838D01*
X258815Y330847D01*
X258907D01*
X258972Y330838D01*
D02*
G37*
G36*
X253674Y259662D02*
X253776Y259652D01*
X253887Y259634D01*
X254016Y259615D01*
X254155Y259588D01*
X254303Y259551D01*
X254460Y259504D01*
X254618Y259449D01*
X254784Y259375D01*
X254941Y259301D01*
X255089Y259208D01*
X255247Y259097D01*
X255385Y258977D01*
X255395D01*
X255404Y258959D01*
X255432Y258931D01*
X255459Y258903D01*
X255496Y258857D01*
X255533Y258801D01*
X255635Y258672D01*
X255737Y258505D01*
X255848Y258302D01*
X255950Y258071D01*
X256042Y257802D01*
X254766Y257497D01*
Y257506D01*
X254756Y257516D01*
Y257543D01*
X254738Y257580D01*
X254710Y257664D01*
X254664Y257775D01*
X254599Y257904D01*
X254516Y258034D01*
X254405Y258163D01*
X254285Y258274D01*
X254266Y258283D01*
X254220Y258320D01*
X254146Y258367D01*
X254044Y258422D01*
X253915Y258478D01*
X253767Y258524D01*
X253600Y258561D01*
X253415Y258570D01*
X253350D01*
X253295Y258561D01*
X253239Y258552D01*
X253165Y258542D01*
X253008Y258505D01*
X252823Y258441D01*
X252629Y258348D01*
X252527Y258293D01*
X252435Y258228D01*
X252342Y258145D01*
X252259Y258052D01*
Y258043D01*
X252240Y258024D01*
X252222Y257997D01*
X252194Y257950D01*
X252157Y257895D01*
X252120Y257830D01*
X252083Y257747D01*
X252046Y257654D01*
X252000Y257543D01*
X251963Y257423D01*
X251926Y257284D01*
X251889Y257136D01*
X251861Y256970D01*
X251843Y256794D01*
X251833Y256600D01*
X251824Y256387D01*
Y256378D01*
Y256332D01*
Y256267D01*
X251833Y256193D01*
Y256091D01*
X251852Y255971D01*
X251861Y255851D01*
X251880Y255712D01*
X251935Y255425D01*
X252009Y255138D01*
X252055Y255000D01*
X252120Y254870D01*
X252185Y254750D01*
X252259Y254648D01*
X252268Y254639D01*
X252277Y254630D01*
X252305Y254602D01*
X252342Y254565D01*
X252435Y254491D01*
X252564Y254398D01*
X252721Y254297D01*
X252916Y254223D01*
X253138Y254158D01*
X253258Y254149D01*
X253387Y254139D01*
X253434D01*
X253471Y254149D01*
X253572Y254158D01*
X253693Y254176D01*
X253822Y254223D01*
X253970Y254278D01*
X254118Y254352D01*
X254266Y254463D01*
X254285Y254482D01*
X254331Y254528D01*
X254396Y254602D01*
X254470Y254713D01*
X254562Y254861D01*
X254645Y255037D01*
X254729Y255249D01*
X254803Y255499D01*
X256061Y255111D01*
Y255101D01*
X256051Y255064D01*
X256033Y255009D01*
X256005Y254935D01*
X255968Y254852D01*
X255931Y254750D01*
X255885Y254639D01*
X255829Y254519D01*
X255700Y254269D01*
X255533Y254010D01*
X255330Y253760D01*
X255219Y253649D01*
X255099Y253547D01*
X255089Y253538D01*
X255071Y253529D01*
X255034Y253501D01*
X254978Y253464D01*
X254914Y253427D01*
X254830Y253390D01*
X254738Y253344D01*
X254636Y253298D01*
X254516Y253242D01*
X254386Y253196D01*
X254248Y253159D01*
X254100Y253122D01*
X253942Y253085D01*
X253767Y253057D01*
X253591Y253048D01*
X253397Y253039D01*
X253341D01*
X253276Y253048D01*
X253184Y253057D01*
X253082Y253066D01*
X252953Y253085D01*
X252814Y253113D01*
X252657Y253150D01*
X252499Y253196D01*
X252333Y253251D01*
X252157Y253325D01*
X251981Y253409D01*
X251806Y253501D01*
X251630Y253621D01*
X251463Y253751D01*
X251306Y253908D01*
X251297Y253917D01*
X251269Y253945D01*
X251232Y254001D01*
X251177Y254065D01*
X251121Y254158D01*
X251047Y254260D01*
X250973Y254389D01*
X250899Y254537D01*
X250825Y254694D01*
X250751Y254870D01*
X250677Y255074D01*
X250622Y255286D01*
X250566Y255508D01*
X250529Y255758D01*
X250501Y256017D01*
X250492Y256295D01*
Y256304D01*
Y256313D01*
Y256369D01*
X250501Y256452D01*
Y256563D01*
X250520Y256692D01*
X250538Y256850D01*
X250557Y257016D01*
X250594Y257210D01*
X250640Y257405D01*
X250696Y257608D01*
X250760Y257812D01*
X250844Y258024D01*
X250936Y258228D01*
X251047Y258422D01*
X251167Y258607D01*
X251315Y258783D01*
X251325Y258792D01*
X251352Y258820D01*
X251399Y258866D01*
X251463Y258922D01*
X251547Y258986D01*
X251648Y259060D01*
X251759Y259144D01*
X251898Y259227D01*
X252046Y259310D01*
X252203Y259393D01*
X252388Y259467D01*
X252573Y259532D01*
X252786Y259588D01*
X252999Y259634D01*
X253239Y259662D01*
X253480Y259671D01*
X253591D01*
X253674Y259662D01*
D02*
G37*
G36*
X260038Y253150D02*
X258808D01*
Y257784D01*
X258799Y257775D01*
X258780Y257756D01*
X258743Y257728D01*
X258688Y257682D01*
X258623Y257627D01*
X258549Y257571D01*
X258456Y257506D01*
X258355Y257432D01*
X258244Y257358D01*
X258123Y257284D01*
X257994Y257201D01*
X257855Y257127D01*
X257559Y256988D01*
X257226Y256859D01*
Y257969D01*
X257235D01*
X257245Y257978D01*
X257272Y257987D01*
X257309Y257997D01*
X257402Y258043D01*
X257531Y258098D01*
X257689Y258172D01*
X257864Y258274D01*
X258059Y258404D01*
X258262Y258552D01*
X258271Y258561D01*
X258290Y258570D01*
X258318Y258598D01*
X258355Y258635D01*
X258456Y258727D01*
X258567Y258848D01*
X258697Y258996D01*
X258826Y259181D01*
X258947Y259375D01*
X259039Y259588D01*
X260038D01*
Y253150D01*
D02*
G37*
G36*
X492893Y258383D02*
X492884Y258373D01*
X492866Y258355D01*
X492838Y258327D01*
X492801Y258290D01*
X492755Y258235D01*
X492699Y258170D01*
X492634Y258096D01*
X492560Y258003D01*
X492486Y257902D01*
X492403Y257790D01*
X492310Y257670D01*
X492218Y257541D01*
X492126Y257393D01*
X492033Y257245D01*
X491931Y257078D01*
X491829Y256903D01*
X491820Y256893D01*
X491802Y256856D01*
X491774Y256810D01*
X491737Y256736D01*
X491700Y256653D01*
X491644Y256542D01*
X491589Y256421D01*
X491524Y256292D01*
X491460Y256144D01*
X491395Y255987D01*
X491321Y255820D01*
X491256Y255644D01*
X491126Y255265D01*
X491006Y254868D01*
Y254858D01*
X490997Y254821D01*
X490978Y254766D01*
X490960Y254682D01*
X490941Y254590D01*
X490923Y254488D01*
X490895Y254359D01*
X490868Y254229D01*
X490840Y254081D01*
X490821Y253933D01*
X490775Y253609D01*
X490747Y253276D01*
X490738Y252953D01*
X489554D01*
Y252971D01*
Y253008D01*
X489563Y253082D01*
Y253184D01*
X489572Y253304D01*
X489591Y253443D01*
X489609Y253609D01*
X489637Y253785D01*
X489665Y253979D01*
X489702Y254192D01*
X489748Y254414D01*
X489794Y254655D01*
X489859Y254895D01*
X489924Y255145D01*
X490007Y255395D01*
X490100Y255654D01*
X490109Y255672D01*
X490128Y255718D01*
X490155Y255792D01*
X490192Y255885D01*
X490248Y256005D01*
X490312Y256153D01*
X490386Y256311D01*
X490470Y256486D01*
X490562Y256671D01*
X490664Y256866D01*
X490775Y257078D01*
X490905Y257282D01*
X491173Y257716D01*
X491478Y258133D01*
X488694D01*
Y259271D01*
X492893D01*
Y258383D01*
D02*
G37*
G36*
X640671Y157791D02*
X640764D01*
X640884Y157773D01*
X641023Y157755D01*
X641180Y157727D01*
X641347Y157690D01*
X641522Y157643D01*
X641707Y157588D01*
X641892Y157514D01*
X642087Y157431D01*
X642272Y157329D01*
X642457Y157209D01*
X642632Y157070D01*
X642799Y156913D01*
X642808Y156904D01*
X642836Y156876D01*
X642882Y156820D01*
X642928Y156755D01*
X642993Y156663D01*
X643067Y156552D01*
X643141Y156422D01*
X643224Y156274D01*
X643308Y156117D01*
X643382Y155932D01*
X643456Y155729D01*
X643520Y155516D01*
X643576Y155275D01*
X643613Y155026D01*
X643641Y154757D01*
X643650Y154471D01*
Y154452D01*
Y154406D01*
X643641Y154323D01*
Y154212D01*
X643622Y154082D01*
X643604Y153934D01*
X643576Y153759D01*
X643548Y153583D01*
X643502Y153389D01*
X643446Y153185D01*
X643372Y152981D01*
X643289Y152778D01*
X643197Y152584D01*
X643076Y152390D01*
X642947Y152205D01*
X642799Y152029D01*
X642790Y152020D01*
X642762Y151992D01*
X642716Y151945D01*
X642642Y151890D01*
X642558Y151825D01*
X642457Y151751D01*
X642336Y151677D01*
X642207Y151594D01*
X642050Y151511D01*
X641883Y151437D01*
X641698Y151363D01*
X641495Y151298D01*
X641282Y151242D01*
X641051Y151196D01*
X640810Y151169D01*
X640551Y151159D01*
X640486D01*
X640412Y151169D01*
X640320Y151178D01*
X640200Y151187D01*
X640061Y151206D01*
X639904Y151233D01*
X639737Y151270D01*
X639552Y151316D01*
X639376Y151372D01*
X639182Y151446D01*
X638997Y151529D01*
X638803Y151622D01*
X638627Y151742D01*
X638451Y151872D01*
X638285Y152029D01*
X638276Y152038D01*
X638248Y152066D01*
X638211Y152121D01*
X638155Y152186D01*
X638091Y152278D01*
X638017Y152390D01*
X637943Y152510D01*
X637869Y152658D01*
X637785Y152815D01*
X637711Y153000D01*
X637637Y153194D01*
X637573Y153407D01*
X637517Y153638D01*
X637480Y153888D01*
X637452Y154156D01*
X637443Y154434D01*
Y154443D01*
Y154480D01*
Y154526D01*
X637452Y154600D01*
Y154683D01*
X637462Y154776D01*
X637471Y154887D01*
X637480Y155007D01*
X637517Y155266D01*
X637563Y155544D01*
X637637Y155821D01*
X637730Y156080D01*
Y156089D01*
X637739Y156099D01*
X637758Y156126D01*
X637767Y156164D01*
X637822Y156256D01*
X637887Y156376D01*
X637970Y156515D01*
X638072Y156654D01*
X638192Y156811D01*
X638322Y156959D01*
X638331Y156968D01*
X638340Y156977D01*
X638387Y157024D01*
X638470Y157098D01*
X638572Y157181D01*
X638692Y157273D01*
X638831Y157375D01*
X638988Y157468D01*
X639154Y157542D01*
X639164D01*
X639182Y157551D01*
X639219Y157570D01*
X639265Y157579D01*
X639321Y157606D01*
X639386Y157625D01*
X639469Y157643D01*
X639552Y157671D01*
X639756Y157718D01*
X639987Y157764D01*
X640255Y157791D01*
X640533Y157801D01*
X640597D01*
X640671Y157791D01*
D02*
G37*
G36*
X634459Y166158D02*
X634560Y166148D01*
X634681Y166139D01*
X634801Y166121D01*
X634940Y166102D01*
X635236Y166037D01*
X635384Y165991D01*
X635532Y165945D01*
X635680Y165880D01*
X635818Y165806D01*
X635948Y165723D01*
X636068Y165630D01*
X636077Y165621D01*
X636096Y165603D01*
X636124Y165575D01*
X636161Y165538D01*
X636207Y165482D01*
X636262Y165418D01*
X636318Y165344D01*
X636383Y165260D01*
X636438Y165159D01*
X636494Y165057D01*
X636549Y164937D01*
X636595Y164807D01*
X636642Y164678D01*
X636679Y164530D01*
X636706Y164382D01*
X636716Y164215D01*
X635421Y164169D01*
Y164178D01*
Y164187D01*
X635402Y164252D01*
X635384Y164335D01*
X635347Y164437D01*
X635300Y164557D01*
X635236Y164668D01*
X635152Y164779D01*
X635060Y164872D01*
X635051Y164881D01*
X635014Y164909D01*
X634949Y164946D01*
X634856Y164983D01*
X634745Y165020D01*
X634607Y165057D01*
X634440Y165085D01*
X634246Y165094D01*
X634153D01*
X634052Y165085D01*
X633931Y165066D01*
X633793Y165038D01*
X633645Y164992D01*
X633506Y164937D01*
X633376Y164853D01*
X633367Y164844D01*
X633349Y164826D01*
X633312Y164798D01*
X633275Y164752D01*
X633238Y164696D01*
X633201Y164622D01*
X633182Y164548D01*
X633173Y164456D01*
Y164446D01*
Y164419D01*
X633182Y164372D01*
X633201Y164326D01*
X633219Y164261D01*
X633247Y164197D01*
X633293Y164132D01*
X633358Y164067D01*
X633367Y164058D01*
X633413Y164030D01*
X633441Y164012D01*
X633487Y163993D01*
X633534Y163965D01*
X633598Y163938D01*
X633672Y163910D01*
X633756Y163873D01*
X633857Y163836D01*
X633959Y163799D01*
X634089Y163762D01*
X634227Y163725D01*
X634375Y163688D01*
X634542Y163642D01*
X634551D01*
X634588Y163632D01*
X634634Y163623D01*
X634699Y163605D01*
X634773Y163586D01*
X634866Y163558D01*
X634967Y163531D01*
X635069Y163503D01*
X635291Y163429D01*
X635522Y163355D01*
X635744Y163272D01*
X635837Y163225D01*
X635929Y163179D01*
X635939D01*
X635948Y163170D01*
X636003Y163133D01*
X636087Y163077D01*
X636188Y163003D01*
X636299Y162911D01*
X636420Y162800D01*
X636540Y162670D01*
X636642Y162522D01*
X636651Y162504D01*
X636679Y162448D01*
X636725Y162365D01*
X636771Y162245D01*
X636817Y162097D01*
X636864Y161921D01*
X636891Y161727D01*
X636901Y161505D01*
Y161496D01*
Y161477D01*
Y161449D01*
Y161412D01*
X636891Y161366D01*
X636882Y161301D01*
X636864Y161172D01*
X636827Y161005D01*
X636771Y160830D01*
X636688Y160654D01*
X636586Y160469D01*
Y160460D01*
X636568Y160450D01*
X636531Y160395D01*
X636457Y160302D01*
X636364Y160201D01*
X636244Y160080D01*
X636087Y159969D01*
X635920Y159858D01*
X635717Y159757D01*
X635707D01*
X635689Y159747D01*
X635661Y159738D01*
X635615Y159720D01*
X635559Y159701D01*
X635495Y159683D01*
X635421Y159664D01*
X635337Y159646D01*
X635236Y159618D01*
X635134Y159599D01*
X634893Y159562D01*
X634625Y159535D01*
X634329Y159525D01*
X634209D01*
X634126Y159535D01*
X634024Y159544D01*
X633913Y159553D01*
X633783Y159572D01*
X633645Y159599D01*
X633339Y159664D01*
X633182Y159710D01*
X633034Y159757D01*
X632877Y159821D01*
X632729Y159895D01*
X632590Y159979D01*
X632461Y160080D01*
X632451Y160090D01*
X632433Y160108D01*
X632396Y160136D01*
X632359Y160182D01*
X632303Y160247D01*
X632248Y160321D01*
X632183Y160404D01*
X632118Y160497D01*
X632054Y160608D01*
X631989Y160728D01*
X631924Y160867D01*
X631859Y161015D01*
X631813Y161172D01*
X631758Y161348D01*
X631721Y161533D01*
X631693Y161727D01*
X632951Y161847D01*
Y161838D01*
X632960Y161819D01*
Y161782D01*
X632969Y161745D01*
X633006Y161634D01*
X633053Y161496D01*
X633108Y161338D01*
X633191Y161181D01*
X633284Y161042D01*
X633404Y160913D01*
X633423Y160904D01*
X633469Y160867D01*
X633543Y160820D01*
X633654Y160765D01*
X633793Y160709D01*
X633950Y160663D01*
X634135Y160626D01*
X634348Y160617D01*
X634449D01*
X634560Y160635D01*
X634699Y160654D01*
X634847Y160682D01*
X635004Y160728D01*
X635152Y160793D01*
X635282Y160876D01*
X635300Y160885D01*
X635337Y160922D01*
X635384Y160978D01*
X635448Y161052D01*
X635504Y161144D01*
X635559Y161255D01*
X635596Y161366D01*
X635606Y161496D01*
Y161505D01*
Y161533D01*
X635596Y161579D01*
X635587Y161634D01*
X635569Y161690D01*
X635550Y161755D01*
X635513Y161819D01*
X635467Y161884D01*
X635458Y161893D01*
X635439Y161912D01*
X635411Y161940D01*
X635365Y161977D01*
X635300Y162023D01*
X635217Y162069D01*
X635125Y162115D01*
X635004Y162162D01*
X634995D01*
X634958Y162180D01*
X634893Y162199D01*
X634847Y162217D01*
X634792Y162226D01*
X634727Y162245D01*
X634653Y162273D01*
X634570Y162291D01*
X634477Y162319D01*
X634366Y162347D01*
X634246Y162374D01*
X634116Y162411D01*
X633968Y162448D01*
X633959D01*
X633922Y162458D01*
X633867Y162476D01*
X633802Y162495D01*
X633719Y162522D01*
X633617Y162550D01*
X633515Y162587D01*
X633395Y162624D01*
X633154Y162717D01*
X632923Y162828D01*
X632803Y162883D01*
X632701Y162948D01*
X632599Y163013D01*
X632516Y163077D01*
X632507Y163087D01*
X632488Y163105D01*
X632461Y163133D01*
X632424Y163170D01*
X632377Y163225D01*
X632331Y163290D01*
X632276Y163355D01*
X632229Y163438D01*
X632118Y163632D01*
X632026Y163854D01*
X631989Y163975D01*
X631961Y164095D01*
X631943Y164234D01*
X631933Y164372D01*
Y164382D01*
Y164391D01*
Y164419D01*
Y164456D01*
X631952Y164548D01*
X631970Y164668D01*
X631998Y164807D01*
X632044Y164964D01*
X632109Y165131D01*
X632202Y165288D01*
Y165297D01*
X632211Y165307D01*
X632257Y165362D01*
X632313Y165436D01*
X632405Y165529D01*
X632516Y165630D01*
X632655Y165741D01*
X632812Y165843D01*
X632997Y165936D01*
X633006D01*
X633025Y165945D01*
X633053Y165954D01*
X633090Y165973D01*
X633145Y165991D01*
X633201Y166010D01*
X633275Y166028D01*
X633358Y166056D01*
X633543Y166093D01*
X633756Y166130D01*
X633996Y166158D01*
X634264Y166167D01*
X634375D01*
X634459Y166158D01*
D02*
G37*
G36*
X647128Y157671D02*
X647368D01*
X647627Y157653D01*
X647886Y157634D01*
X647997Y157625D01*
X648108Y157616D01*
X648201Y157597D01*
X648275Y157579D01*
X648284D01*
X648303Y157570D01*
X648330Y157560D01*
X648367Y157551D01*
X648469Y157505D01*
X648599Y157449D01*
X648737Y157366D01*
X648895Y157255D01*
X649043Y157116D01*
X649191Y156950D01*
Y156940D01*
X649209Y156931D01*
X649228Y156904D01*
X649246Y156867D01*
X649283Y156811D01*
X649311Y156755D01*
X649348Y156691D01*
X649385Y156617D01*
X649450Y156432D01*
X649514Y156228D01*
X649551Y155979D01*
X649570Y155710D01*
Y155701D01*
Y155683D01*
Y155655D01*
Y155608D01*
X649561Y155562D01*
Y155498D01*
X649542Y155368D01*
X649514Y155211D01*
X649477Y155035D01*
X649422Y154868D01*
X649348Y154711D01*
X649339Y154693D01*
X649311Y154647D01*
X649265Y154572D01*
X649200Y154480D01*
X649126Y154387D01*
X649024Y154277D01*
X648922Y154175D01*
X648802Y154082D01*
X648784Y154073D01*
X648747Y154045D01*
X648682Y154008D01*
X648599Y153962D01*
X648497Y153907D01*
X648386Y153860D01*
X648266Y153814D01*
X648136Y153777D01*
X648118D01*
X648090Y153768D01*
X648053D01*
X648007Y153759D01*
X647942Y153749D01*
X647877Y153740D01*
X647794D01*
X647711Y153731D01*
X647609Y153721D01*
X647498Y153712D01*
X647378Y153703D01*
X647248D01*
X647109Y153694D01*
X645962D01*
Y151279D01*
X644667D01*
Y157680D01*
X647026D01*
X647128Y157671D01*
D02*
G37*
G36*
X636870Y156598D02*
X634983D01*
Y151279D01*
X633688D01*
Y156598D01*
X631791D01*
Y157680D01*
X636870D01*
Y156598D01*
D02*
G37*
G36*
X677804Y159646D02*
X676407D01*
X674113Y166047D01*
X675510D01*
X677138Y161311D01*
X678701Y166047D01*
X680080D01*
X677804Y159646D01*
D02*
G37*
G36*
X685213Y166074D02*
X685297Y166065D01*
X685389Y166056D01*
X685491Y166037D01*
X685602Y166019D01*
X685842Y165954D01*
X686083Y165862D01*
X686212Y165806D01*
X686323Y165741D01*
X686444Y165658D01*
X686545Y165566D01*
X686555Y165556D01*
X686573Y165547D01*
X686592Y165510D01*
X686629Y165473D01*
X686675Y165427D01*
X686721Y165362D01*
X686767Y165297D01*
X686823Y165214D01*
X686915Y165029D01*
X687008Y164816D01*
X687045Y164696D01*
X687063Y164567D01*
X687082Y164428D01*
X687091Y164289D01*
Y164271D01*
Y164215D01*
X687082Y164132D01*
X687073Y164030D01*
X687054Y163901D01*
X687026Y163762D01*
X686989Y163614D01*
X686934Y163466D01*
X686925Y163447D01*
X686906Y163401D01*
X686869Y163318D01*
X686814Y163216D01*
X686749Y163096D01*
X686666Y162957D01*
X686564Y162809D01*
X686444Y162652D01*
X686434Y162643D01*
X686397Y162596D01*
X686342Y162532D01*
X686259Y162439D01*
X686148Y162328D01*
X686009Y162180D01*
X685842Y162023D01*
X685639Y161829D01*
X685630Y161819D01*
X685611Y161810D01*
X685583Y161782D01*
X685546Y161745D01*
X685445Y161653D01*
X685324Y161542D01*
X685204Y161422D01*
X685084Y161301D01*
X684973Y161200D01*
X684936Y161153D01*
X684899Y161116D01*
X684890Y161107D01*
X684871Y161089D01*
X684843Y161052D01*
X684806Y161005D01*
X684723Y160904D01*
X684649Y160783D01*
X687091D01*
Y159646D01*
X682790D01*
Y159655D01*
Y159673D01*
X682799Y159710D01*
X682808Y159757D01*
X682818Y159812D01*
X682827Y159877D01*
X682864Y160043D01*
X682919Y160228D01*
X682993Y160432D01*
X683086Y160654D01*
X683206Y160867D01*
Y160876D01*
X683225Y160894D01*
X683243Y160931D01*
X683280Y160968D01*
X683317Y161033D01*
X683373Y161098D01*
X683437Y161181D01*
X683511Y161274D01*
X683595Y161385D01*
X683696Y161496D01*
X683807Y161625D01*
X683937Y161764D01*
X684076Y161903D01*
X684233Y162060D01*
X684399Y162226D01*
X684584Y162402D01*
X684594Y162411D01*
X684621Y162439D01*
X684658Y162476D01*
X684714Y162532D01*
X684788Y162587D01*
X684862Y162661D01*
X685028Y162828D01*
X685195Y163003D01*
X685361Y163179D01*
X685435Y163253D01*
X685509Y163336D01*
X685565Y163401D01*
X685602Y163457D01*
X685611Y163475D01*
X685639Y163521D01*
X685685Y163595D01*
X685731Y163697D01*
X685778Y163808D01*
X685824Y163938D01*
X685852Y164067D01*
X685861Y164206D01*
Y164215D01*
Y164224D01*
Y164271D01*
X685852Y164354D01*
X685833Y164446D01*
X685805Y164548D01*
X685768Y164650D01*
X685713Y164752D01*
X685639Y164844D01*
X685630Y164853D01*
X685602Y164881D01*
X685546Y164918D01*
X685482Y164955D01*
X685389Y164992D01*
X685287Y165029D01*
X685167Y165057D01*
X685028Y165066D01*
X684964D01*
X684890Y165057D01*
X684806Y165038D01*
X684705Y165011D01*
X684603Y164964D01*
X684501Y164909D01*
X684409Y164835D01*
X684399Y164826D01*
X684372Y164789D01*
X684335Y164733D01*
X684298Y164650D01*
X684251Y164548D01*
X684214Y164409D01*
X684177Y164252D01*
X684159Y164067D01*
X682938Y164187D01*
Y164197D01*
X682947Y164234D01*
Y164280D01*
X682966Y164354D01*
X682975Y164437D01*
X683003Y164530D01*
X683030Y164631D01*
X683058Y164752D01*
X683151Y164983D01*
X683262Y165223D01*
X683336Y165344D01*
X683419Y165455D01*
X683511Y165547D01*
X683613Y165640D01*
X683622Y165649D01*
X683641Y165658D01*
X683669Y165677D01*
X683715Y165714D01*
X683770Y165741D01*
X683844Y165778D01*
X683918Y165825D01*
X684011Y165862D01*
X684113Y165908D01*
X684224Y165945D01*
X684464Y166019D01*
X684751Y166065D01*
X684899Y166074D01*
X685056Y166084D01*
X685149D01*
X685213Y166074D01*
D02*
G37*
G36*
X640952Y166158D02*
X641054Y166148D01*
X641165Y166130D01*
X641294Y166111D01*
X641433Y166084D01*
X641581Y166047D01*
X641738Y166000D01*
X641896Y165945D01*
X642062Y165871D01*
X642219Y165797D01*
X642367Y165704D01*
X642525Y165593D01*
X642663Y165473D01*
X642673D01*
X642682Y165455D01*
X642710Y165427D01*
X642737Y165399D01*
X642774Y165353D01*
X642811Y165297D01*
X642913Y165168D01*
X643015Y165001D01*
X643126Y164798D01*
X643228Y164567D01*
X643320Y164298D01*
X642044Y163993D01*
Y164002D01*
X642034Y164012D01*
Y164039D01*
X642016Y164076D01*
X641988Y164160D01*
X641942Y164271D01*
X641877Y164400D01*
X641794Y164530D01*
X641683Y164659D01*
X641563Y164770D01*
X641544Y164779D01*
X641498Y164816D01*
X641424Y164863D01*
X641322Y164918D01*
X641193Y164974D01*
X641045Y165020D01*
X640878Y165057D01*
X640693Y165066D01*
X640628D01*
X640573Y165057D01*
X640517Y165048D01*
X640443Y165038D01*
X640286Y165001D01*
X640101Y164937D01*
X639907Y164844D01*
X639805Y164789D01*
X639713Y164724D01*
X639620Y164641D01*
X639537Y164548D01*
Y164539D01*
X639518Y164520D01*
X639500Y164493D01*
X639472Y164446D01*
X639435Y164391D01*
X639398Y164326D01*
X639361Y164243D01*
X639324Y164150D01*
X639278Y164039D01*
X639241Y163919D01*
X639204Y163780D01*
X639167Y163632D01*
X639139Y163466D01*
X639121Y163290D01*
X639111Y163096D01*
X639102Y162883D01*
Y162874D01*
Y162828D01*
Y162763D01*
X639111Y162689D01*
Y162587D01*
X639130Y162467D01*
X639139Y162347D01*
X639158Y162208D01*
X639213Y161921D01*
X639287Y161634D01*
X639333Y161496D01*
X639398Y161366D01*
X639463Y161246D01*
X639537Y161144D01*
X639546Y161135D01*
X639555Y161126D01*
X639583Y161098D01*
X639620Y161061D01*
X639713Y160987D01*
X639842Y160894D01*
X639999Y160793D01*
X640194Y160719D01*
X640416Y160654D01*
X640536Y160645D01*
X640665Y160635D01*
X640712D01*
X640749Y160645D01*
X640850Y160654D01*
X640971Y160672D01*
X641100Y160719D01*
X641248Y160774D01*
X641396Y160848D01*
X641544Y160959D01*
X641563Y160978D01*
X641609Y161024D01*
X641674Y161098D01*
X641748Y161209D01*
X641840Y161357D01*
X641923Y161533D01*
X642007Y161745D01*
X642081Y161995D01*
X643339Y161607D01*
Y161597D01*
X643329Y161560D01*
X643311Y161505D01*
X643283Y161431D01*
X643246Y161348D01*
X643209Y161246D01*
X643163Y161135D01*
X643107Y161015D01*
X642978Y160765D01*
X642811Y160506D01*
X642608Y160256D01*
X642497Y160145D01*
X642377Y160043D01*
X642367Y160034D01*
X642349Y160025D01*
X642312Y159997D01*
X642256Y159960D01*
X642192Y159923D01*
X642108Y159886D01*
X642016Y159840D01*
X641914Y159794D01*
X641794Y159738D01*
X641664Y159692D01*
X641526Y159655D01*
X641378Y159618D01*
X641220Y159581D01*
X641045Y159553D01*
X640869Y159544D01*
X640675Y159535D01*
X640619D01*
X640554Y159544D01*
X640462Y159553D01*
X640360Y159562D01*
X640231Y159581D01*
X640092Y159609D01*
X639935Y159646D01*
X639777Y159692D01*
X639611Y159747D01*
X639435Y159821D01*
X639259Y159905D01*
X639084Y159997D01*
X638908Y160117D01*
X638741Y160247D01*
X638584Y160404D01*
X638575Y160413D01*
X638547Y160441D01*
X638510Y160497D01*
X638455Y160561D01*
X638399Y160654D01*
X638325Y160756D01*
X638251Y160885D01*
X638177Y161033D01*
X638103Y161190D01*
X638029Y161366D01*
X637955Y161570D01*
X637900Y161782D01*
X637844Y162004D01*
X637807Y162254D01*
X637779Y162513D01*
X637770Y162791D01*
Y162800D01*
Y162809D01*
Y162865D01*
X637779Y162948D01*
Y163059D01*
X637798Y163188D01*
X637816Y163346D01*
X637835Y163512D01*
X637872Y163706D01*
X637918Y163901D01*
X637974Y164104D01*
X638038Y164308D01*
X638122Y164520D01*
X638214Y164724D01*
X638325Y164918D01*
X638445Y165103D01*
X638593Y165279D01*
X638603Y165288D01*
X638630Y165316D01*
X638677Y165362D01*
X638741Y165418D01*
X638825Y165482D01*
X638926Y165556D01*
X639037Y165640D01*
X639176Y165723D01*
X639324Y165806D01*
X639481Y165889D01*
X639666Y165963D01*
X639851Y166028D01*
X640064Y166084D01*
X640277Y166130D01*
X640517Y166158D01*
X640758Y166167D01*
X640869D01*
X640952Y166158D01*
D02*
G37*
G36*
X646715Y161357D02*
X644301D01*
Y162587D01*
X646715D01*
Y161357D01*
D02*
G37*
G36*
X488641Y333003D02*
X488724Y332994D01*
X488807Y332985D01*
X488909Y332976D01*
X489011Y332957D01*
X489242Y332902D01*
X489482Y332819D01*
X489593Y332763D01*
X489714Y332698D01*
X489815Y332624D01*
X489917Y332541D01*
X489926Y332532D01*
X489936Y332523D01*
X489963Y332495D01*
X490000Y332458D01*
X490037Y332412D01*
X490074Y332356D01*
X490176Y332217D01*
X490269Y332042D01*
X490343Y331847D01*
X490407Y331616D01*
X490417Y331487D01*
X490426Y331357D01*
Y331348D01*
Y331339D01*
Y331283D01*
X490417Y331200D01*
X490398Y331089D01*
X490370Y330969D01*
X490324Y330839D01*
X490269Y330700D01*
X490185Y330561D01*
X490176Y330543D01*
X490139Y330506D01*
X490093Y330441D01*
X490019Y330367D01*
X489926Y330275D01*
X489815Y330192D01*
X489686Y330108D01*
X489538Y330034D01*
X489547D01*
X489566Y330025D01*
X489593Y330016D01*
X489630Y329997D01*
X489723Y329942D01*
X489843Y329868D01*
X489973Y329784D01*
X490111Y329674D01*
X490241Y329544D01*
X490352Y329396D01*
X490361Y329378D01*
X490398Y329322D01*
X490444Y329239D01*
X490491Y329128D01*
X490546Y328989D01*
X490583Y328823D01*
X490620Y328647D01*
X490629Y328453D01*
Y328443D01*
Y328415D01*
Y328369D01*
X490620Y328305D01*
X490611Y328231D01*
X490602Y328138D01*
X490583Y328046D01*
X490555Y327944D01*
X490491Y327713D01*
X490444Y327592D01*
X490389Y327472D01*
X490324Y327352D01*
X490241Y327232D01*
X490158Y327121D01*
X490056Y327010D01*
X490047Y327000D01*
X490028Y326982D01*
X490000Y326954D01*
X489954Y326926D01*
X489899Y326880D01*
X489825Y326834D01*
X489751Y326788D01*
X489658Y326732D01*
X489556Y326677D01*
X489436Y326630D01*
X489316Y326584D01*
X489186Y326538D01*
X489038Y326510D01*
X488881Y326482D01*
X488724Y326464D01*
X488548Y326455D01*
X488465D01*
X488400Y326464D01*
X488326Y326473D01*
X488243Y326482D01*
X488150Y326492D01*
X488039Y326510D01*
X487808Y326566D01*
X487568Y326649D01*
X487447Y326695D01*
X487327Y326760D01*
X487207Y326824D01*
X487096Y326908D01*
X487087Y326917D01*
X487068Y326936D01*
X487031Y326963D01*
X486985Y327010D01*
X486939Y327065D01*
X486883Y327130D01*
X486818Y327213D01*
X486754Y327296D01*
X486689Y327398D01*
X486624Y327509D01*
X486569Y327629D01*
X486522Y327768D01*
X486476Y327907D01*
X486439Y328064D01*
X486421Y328221D01*
X486411Y328397D01*
Y328406D01*
Y328425D01*
Y328453D01*
Y328490D01*
X486421Y328591D01*
X486439Y328712D01*
X486476Y328859D01*
X486513Y329026D01*
X486578Y329192D01*
X486661Y329359D01*
Y329368D01*
X486670Y329378D01*
X486707Y329433D01*
X486772Y329507D01*
X486865Y329609D01*
X486976Y329720D01*
X487114Y329831D01*
X487281Y329932D01*
X487475Y330034D01*
X487466D01*
X487457Y330044D01*
X487401Y330071D01*
X487318Y330118D01*
X487216Y330173D01*
X487096Y330256D01*
X486985Y330349D01*
X486874Y330460D01*
X486781Y330580D01*
X486772Y330598D01*
X486744Y330645D01*
X486717Y330710D01*
X486680Y330811D01*
X486633Y330922D01*
X486606Y331061D01*
X486578Y331200D01*
X486569Y331357D01*
Y331366D01*
Y331385D01*
Y331422D01*
X486578Y331477D01*
X486587Y331533D01*
X486596Y331607D01*
X486633Y331773D01*
X486689Y331958D01*
X486781Y332162D01*
X486837Y332254D01*
X486902Y332356D01*
X486985Y332449D01*
X487068Y332541D01*
X487077Y332550D01*
X487096Y332559D01*
X487124Y332587D01*
X487161Y332615D01*
X487216Y332652D01*
X487272Y332689D01*
X487346Y332735D01*
X487438Y332782D01*
X487531Y332819D01*
X487632Y332865D01*
X487753Y332902D01*
X487882Y332939D01*
X488021Y332967D01*
X488169Y332994D01*
X488326Y333003D01*
X488493Y333013D01*
X488585D01*
X488641Y333003D01*
D02*
G37*
G36*
X483202Y333087D02*
X483303Y333078D01*
X483414Y333059D01*
X483544Y333040D01*
X483683Y333013D01*
X483831Y332976D01*
X483988Y332930D01*
X484145Y332874D01*
X484312Y332800D01*
X484469Y332726D01*
X484617Y332634D01*
X484774Y332523D01*
X484913Y332402D01*
X484922D01*
X484931Y332384D01*
X484959Y332356D01*
X484987Y332328D01*
X485024Y332282D01*
X485061Y332226D01*
X485163Y332097D01*
X485264Y331930D01*
X485375Y331727D01*
X485477Y331496D01*
X485570Y331228D01*
X484293Y330922D01*
Y330932D01*
X484284Y330941D01*
Y330969D01*
X484265Y331006D01*
X484238Y331089D01*
X484191Y331200D01*
X484127Y331329D01*
X484043Y331459D01*
X483932Y331588D01*
X483812Y331699D01*
X483794Y331709D01*
X483747Y331746D01*
X483673Y331792D01*
X483572Y331847D01*
X483442Y331903D01*
X483294Y331949D01*
X483128Y331986D01*
X482943Y331995D01*
X482878D01*
X482822Y331986D01*
X482767Y331977D01*
X482693Y331967D01*
X482536Y331930D01*
X482351Y331866D01*
X482156Y331773D01*
X482055Y331718D01*
X481962Y331653D01*
X481870Y331570D01*
X481786Y331477D01*
Y331468D01*
X481768Y331450D01*
X481749Y331422D01*
X481722Y331376D01*
X481685Y331320D01*
X481648Y331255D01*
X481611Y331172D01*
X481574Y331080D01*
X481527Y330969D01*
X481490Y330848D01*
X481453Y330710D01*
X481416Y330561D01*
X481389Y330395D01*
X481370Y330219D01*
X481361Y330025D01*
X481352Y329812D01*
Y329803D01*
Y329757D01*
Y329692D01*
X481361Y329618D01*
Y329516D01*
X481379Y329396D01*
X481389Y329276D01*
X481407Y329137D01*
X481463Y328850D01*
X481537Y328563D01*
X481583Y328425D01*
X481648Y328295D01*
X481712Y328175D01*
X481786Y328073D01*
X481796Y328064D01*
X481805Y328055D01*
X481833Y328027D01*
X481870Y327990D01*
X481962Y327916D01*
X482092Y327823D01*
X482249Y327722D01*
X482443Y327648D01*
X482665Y327583D01*
X482785Y327574D01*
X482915Y327565D01*
X482961D01*
X482998Y327574D01*
X483100Y327583D01*
X483220Y327602D01*
X483350Y327648D01*
X483498Y327703D01*
X483646Y327777D01*
X483794Y327888D01*
X483812Y327907D01*
X483858Y327953D01*
X483923Y328027D01*
X483997Y328138D01*
X484090Y328286D01*
X484173Y328462D01*
X484256Y328675D01*
X484330Y328924D01*
X485588Y328536D01*
Y328526D01*
X485579Y328490D01*
X485560Y328434D01*
X485533Y328360D01*
X485496Y328277D01*
X485459Y328175D01*
X485412Y328064D01*
X485357Y327944D01*
X485227Y327694D01*
X485061Y327435D01*
X484857Y327185D01*
X484746Y327074D01*
X484626Y326973D01*
X484617Y326963D01*
X484598Y326954D01*
X484561Y326926D01*
X484506Y326889D01*
X484441Y326852D01*
X484358Y326815D01*
X484265Y326769D01*
X484164Y326723D01*
X484043Y326667D01*
X483914Y326621D01*
X483775Y326584D01*
X483627Y326547D01*
X483470Y326510D01*
X483294Y326482D01*
X483118Y326473D01*
X482924Y326464D01*
X482869D01*
X482804Y326473D01*
X482711Y326482D01*
X482610Y326492D01*
X482480Y326510D01*
X482341Y326538D01*
X482184Y326575D01*
X482027Y326621D01*
X481860Y326677D01*
X481685Y326751D01*
X481509Y326834D01*
X481333Y326926D01*
X481157Y327046D01*
X480991Y327176D01*
X480834Y327333D01*
X480824Y327343D01*
X480797Y327370D01*
X480760Y327426D01*
X480704Y327490D01*
X480649Y327583D01*
X480575Y327685D01*
X480501Y327814D01*
X480427Y327962D01*
X480353Y328119D01*
X480279Y328295D01*
X480205Y328499D01*
X480149Y328712D01*
X480094Y328934D01*
X480057Y329183D01*
X480029Y329442D01*
X480020Y329720D01*
Y329729D01*
Y329738D01*
Y329794D01*
X480029Y329877D01*
Y329988D01*
X480047Y330118D01*
X480066Y330275D01*
X480084Y330441D01*
X480121Y330636D01*
X480168Y330830D01*
X480223Y331033D01*
X480288Y331237D01*
X480371Y331450D01*
X480464Y331653D01*
X480575Y331847D01*
X480695Y332032D01*
X480843Y332208D01*
X480852Y332217D01*
X480880Y332245D01*
X480926Y332291D01*
X480991Y332347D01*
X481074Y332412D01*
X481176Y332486D01*
X481287Y332569D01*
X481426Y332652D01*
X481574Y332735D01*
X481731Y332819D01*
X481916Y332892D01*
X482101Y332957D01*
X482314Y333013D01*
X482526Y333059D01*
X482767Y333087D01*
X483007Y333096D01*
X483118D01*
X483202Y333087D01*
D02*
G37*
%LPC*%
G36*
X650073Y162439D02*
X648731D01*
Y160728D01*
X650156D01*
X650295Y160737D01*
X650443D01*
X650591Y160746D01*
X650711Y160756D01*
X650766D01*
X650803Y160765D01*
X650813D01*
X650850Y160774D01*
X650905Y160793D01*
X650970Y160811D01*
X651044Y160848D01*
X651127Y160894D01*
X651201Y160950D01*
X651275Y161015D01*
X651284Y161024D01*
X651303Y161052D01*
X651331Y161098D01*
X651368Y161163D01*
X651405Y161237D01*
X651432Y161329D01*
X651451Y161440D01*
X651460Y161560D01*
Y161570D01*
Y161607D01*
X651451Y161662D01*
X651442Y161727D01*
X651423Y161810D01*
X651395Y161884D01*
X651358Y161967D01*
X651312Y162051D01*
X651303Y162060D01*
X651284Y162088D01*
X651257Y162125D01*
X651210Y162162D01*
X651155Y162217D01*
X651081Y162263D01*
X650998Y162310D01*
X650905Y162347D01*
X650896D01*
X650850Y162365D01*
X650776Y162374D01*
X650729Y162384D01*
X650665Y162393D01*
X650600Y162402D01*
X650517Y162411D01*
X650424Y162421D01*
X650313D01*
X650202Y162430D01*
X650073Y162439D01*
D02*
G37*
G36*
X650017Y164983D02*
X648731D01*
Y163503D01*
X649971D01*
X650128Y163512D01*
X650415D01*
X650470Y163521D01*
X650526D01*
X650563Y163531D01*
X650618Y163540D01*
X650702Y163568D01*
X650785Y163595D01*
X650868Y163632D01*
X650951Y163679D01*
X651025Y163743D01*
X651035Y163753D01*
X651053Y163780D01*
X651090Y163817D01*
X651127Y163882D01*
X651155Y163956D01*
X651192Y164039D01*
X651210Y164141D01*
X651220Y164252D01*
Y164261D01*
Y164298D01*
X651210Y164354D01*
X651201Y164428D01*
X651183Y164502D01*
X651146Y164576D01*
X651109Y164659D01*
X651053Y164733D01*
X651044Y164742D01*
X651025Y164761D01*
X650979Y164798D01*
X650933Y164835D01*
X650859Y164872D01*
X650776Y164909D01*
X650674Y164937D01*
X650563Y164955D01*
X650554D01*
X650517Y164964D01*
X650415D01*
X650359Y164974D01*
X650119D01*
X650017Y164983D01*
D02*
G37*
G36*
X656150Y164964D02*
X655188D01*
Y163142D01*
X656076D01*
X656141Y163151D01*
X656307D01*
X656474Y163161D01*
X656640Y163179D01*
X656788Y163207D01*
X656853Y163216D01*
X656908Y163235D01*
X656918Y163244D01*
X656955Y163253D01*
X657001Y163281D01*
X657056Y163309D01*
X657121Y163355D01*
X657186Y163410D01*
X657260Y163475D01*
X657315Y163549D01*
X657325Y163558D01*
X657343Y163586D01*
X657362Y163632D01*
X657389Y163697D01*
X657417Y163771D01*
X657445Y163854D01*
X657454Y163947D01*
X657463Y164049D01*
Y164067D01*
Y164104D01*
X657454Y164169D01*
X657436Y164252D01*
X657408Y164345D01*
X657371Y164446D01*
X657325Y164539D01*
X657251Y164631D01*
X657241Y164641D01*
X657214Y164668D01*
X657167Y164705D01*
X657112Y164752D01*
X657038Y164807D01*
X656945Y164853D01*
X656844Y164890D01*
X656733Y164918D01*
X656723D01*
X656686Y164927D01*
X656622Y164937D01*
X656529Y164946D01*
X656409D01*
X656326Y164955D01*
X656242D01*
X656150Y164964D01*
D02*
G37*
G36*
X665122D02*
X663642D01*
Y163336D01*
X664900D01*
X665085Y163346D01*
X665280Y163355D01*
X665474Y163364D01*
X665557Y163373D01*
X665631Y163383D01*
X665705Y163401D01*
X665751Y163410D01*
X665761D01*
X665788Y163429D01*
X665835Y163447D01*
X665881Y163475D01*
X666001Y163558D01*
X666057Y163614D01*
X666112Y163679D01*
X666121Y163688D01*
X666131Y163716D01*
X666158Y163753D01*
X666186Y163808D01*
X666205Y163882D01*
X666232Y163965D01*
X666242Y164058D01*
X666251Y164160D01*
Y164178D01*
Y164215D01*
X666242Y164271D01*
X666232Y164345D01*
X666205Y164428D01*
X666177Y164511D01*
X666131Y164604D01*
X666075Y164678D01*
X666066Y164687D01*
X666047Y164715D01*
X666001Y164742D01*
X665946Y164789D01*
X665881Y164835D01*
X665798Y164872D01*
X665696Y164909D01*
X665585Y164937D01*
X665576D01*
X665548Y164946D01*
X665492D01*
X665409Y164955D01*
X665206D01*
X665122Y164964D01*
D02*
G37*
G36*
X699238Y173029D02*
X699180D01*
X699133Y173018D01*
X699028Y173006D01*
X698888Y172971D01*
X698725Y172913D01*
X698550Y172831D01*
X698375Y172715D01*
X698212Y172563D01*
X698201Y172540D01*
X698154Y172481D01*
X698084Y172365D01*
X698014Y172225D01*
X697932Y172038D01*
X697874Y171805D01*
X697827Y171537D01*
X697804Y171234D01*
Y171222D01*
Y171199D01*
Y171152D01*
X697816Y171094D01*
Y171012D01*
X697827Y170931D01*
X697851Y170744D01*
X697909Y170522D01*
X697979Y170301D01*
X698072Y170079D01*
X698212Y169893D01*
X698236Y169869D01*
X698282Y169823D01*
X698375Y169753D01*
X698504Y169671D01*
X698644Y169578D01*
X698818Y169508D01*
X699017Y169461D01*
X699238Y169438D01*
X699297D01*
X699343Y169450D01*
X699448Y169461D01*
X699588Y169496D01*
X699751Y169555D01*
X699926Y169625D01*
X700089Y169741D01*
X700253Y169893D01*
X700276Y169916D01*
X700323Y169975D01*
X700381Y170091D01*
X700463Y170231D01*
X700544Y170429D01*
X700602Y170651D01*
X700649Y170931D01*
X700672Y171234D01*
Y171245D01*
Y171269D01*
Y171315D01*
X700661Y171374D01*
Y171444D01*
X700649Y171537D01*
X700626Y171723D01*
X700567Y171933D01*
X700497Y172155D01*
X700393Y172376D01*
X700253Y172563D01*
X700229Y172586D01*
X700183Y172633D01*
X700089Y172715D01*
X699973Y172796D01*
X699821Y172878D01*
X699658Y172959D01*
X699460Y173006D01*
X699238Y173029D01*
D02*
G37*
G36*
X641603D02*
X641545D01*
X641498Y173018D01*
X641393Y173006D01*
X641253Y172971D01*
X641090Y172913D01*
X640915Y172831D01*
X640740Y172715D01*
X640577Y172563D01*
X640565Y172540D01*
X640519Y172481D01*
X640449Y172365D01*
X640379Y172225D01*
X640297Y172038D01*
X640239Y171805D01*
X640192Y171537D01*
X640169Y171234D01*
Y171222D01*
Y171199D01*
Y171152D01*
X640180Y171094D01*
Y171012D01*
X640192Y170931D01*
X640215Y170744D01*
X640274Y170522D01*
X640344Y170301D01*
X640437Y170079D01*
X640577Y169893D01*
X640600Y169869D01*
X640647Y169823D01*
X640740Y169753D01*
X640868Y169671D01*
X641008Y169578D01*
X641183Y169508D01*
X641381Y169461D01*
X641603Y169438D01*
X641661D01*
X641708Y169450D01*
X641813Y169461D01*
X641953Y169496D01*
X642116Y169555D01*
X642291Y169625D01*
X642454Y169741D01*
X642617Y169893D01*
X642641Y169916D01*
X642687Y169975D01*
X642746Y170091D01*
X642827Y170231D01*
X642909Y170429D01*
X642967Y170651D01*
X643014Y170931D01*
X643037Y171234D01*
Y171245D01*
Y171269D01*
Y171315D01*
X643025Y171374D01*
Y171444D01*
X643014Y171537D01*
X642990Y171723D01*
X642932Y171933D01*
X642862Y172155D01*
X642757Y172376D01*
X642617Y172563D01*
X642594Y172586D01*
X642547Y172633D01*
X642454Y172715D01*
X642338Y172796D01*
X642186Y172878D01*
X642023Y172959D01*
X641824Y173006D01*
X641603Y173029D01*
D02*
G37*
G36*
X665681Y173099D02*
X665599D01*
X665506Y173076D01*
X665389Y173053D01*
X665261Y173006D01*
X665121Y172948D01*
X664981Y172854D01*
X664853Y172726D01*
X664841Y172715D01*
X664806Y172656D01*
X664748Y172575D01*
X664690Y172458D01*
X664620Y172318D01*
X664573Y172143D01*
X664538Y171945D01*
X664526Y171723D01*
X666835D01*
Y171735D01*
Y171758D01*
Y171782D01*
X666823Y171828D01*
X666812Y171957D01*
X666788Y172097D01*
X666742Y172260D01*
X666683Y172435D01*
X666590Y172598D01*
X666485Y172738D01*
X666474Y172749D01*
X666427Y172796D01*
X666357Y172854D01*
X666264Y172924D01*
X666147Y172983D01*
X666007Y173041D01*
X665856Y173088D01*
X665681Y173099D01*
D02*
G37*
G36*
X336876Y329659D02*
X335386Y327457D01*
X336876D01*
Y329659D01*
D02*
G37*
G36*
X413256Y328551D02*
X413201D01*
X413127Y328533D01*
X413043Y328514D01*
X412951Y328477D01*
X412849Y328431D01*
X412747Y328357D01*
X412655Y328264D01*
X412646Y328255D01*
X412618Y328209D01*
X412581Y328144D01*
X412535Y328061D01*
X412489Y327941D01*
X412452Y327802D01*
X412424Y327636D01*
X412415Y327441D01*
Y327432D01*
Y327414D01*
Y327386D01*
Y327340D01*
X412433Y327238D01*
X412452Y327099D01*
X412479Y326951D01*
X412526Y326794D01*
X412590Y326646D01*
X412683Y326516D01*
X412692Y326507D01*
X412729Y326470D01*
X412794Y326414D01*
X412868Y326359D01*
X412960Y326294D01*
X413062Y326248D01*
X413182Y326211D01*
X413312Y326192D01*
X413367D01*
X413432Y326211D01*
X413515Y326230D01*
X413598Y326257D01*
X413700Y326304D01*
X413793Y326368D01*
X413885Y326451D01*
X413895Y326461D01*
X413922Y326507D01*
X413959Y326572D01*
X414006Y326664D01*
X414043Y326784D01*
X414080Y326933D01*
X414107Y327117D01*
X414116Y327330D01*
Y327340D01*
Y327358D01*
Y327395D01*
Y327432D01*
X414107Y327543D01*
X414089Y327682D01*
X414052Y327830D01*
X414015Y327987D01*
X413950Y328135D01*
X413867Y328255D01*
X413858Y328264D01*
X413821Y328302D01*
X413774Y328348D01*
X413700Y328403D01*
X413608Y328459D01*
X413506Y328505D01*
X413386Y328542D01*
X413256Y328551D01*
D02*
G37*
G36*
X569758Y331503D02*
X569721D01*
X569675Y331494D01*
X569628Y331485D01*
X569564Y331466D01*
X569499Y331438D01*
X569425Y331401D01*
X569360Y331355D01*
X569351Y331346D01*
X569333Y331327D01*
X569305Y331290D01*
X569268Y331244D01*
X569221Y331170D01*
X569184Y331087D01*
X569138Y330976D01*
X569101Y330846D01*
Y330837D01*
X569092Y330828D01*
Y330791D01*
X569083Y330754D01*
X569073Y330698D01*
X569064Y330634D01*
X569055Y330560D01*
X569046Y330467D01*
X569027Y330356D01*
X569018Y330245D01*
X569009Y330106D01*
X568999Y329968D01*
X568990Y329801D01*
Y329635D01*
X568981Y329440D01*
Y329237D01*
Y329228D01*
Y329191D01*
Y329126D01*
Y329052D01*
Y328959D01*
X568990Y328858D01*
Y328737D01*
X568999Y328617D01*
X569009Y328358D01*
X569027Y328099D01*
X569036Y327979D01*
X569055Y327868D01*
X569073Y327766D01*
X569092Y327674D01*
X569101Y327655D01*
X569110Y327609D01*
X569138Y327535D01*
X569166Y327452D01*
X569212Y327359D01*
X569258Y327267D01*
X569314Y327183D01*
X569370Y327119D01*
X569379Y327109D01*
X569397Y327100D01*
X569434Y327072D01*
X569481Y327054D01*
X569536Y327026D01*
X569601Y326998D01*
X569675Y326989D01*
X569758Y326980D01*
X569795D01*
X569841Y326989D01*
X569887Y326998D01*
X569952Y327017D01*
X570017Y327035D01*
X570082Y327072D01*
X570147Y327119D01*
X570156Y327128D01*
X570174Y327146D01*
X570211Y327183D01*
X570248Y327239D01*
X570285Y327304D01*
X570331Y327396D01*
X570378Y327498D01*
X570415Y327627D01*
Y327637D01*
X570424Y327646D01*
Y327683D01*
X570433Y327720D01*
X570442Y327775D01*
X570452Y327840D01*
X570470Y327914D01*
X570479Y328007D01*
X570489Y328108D01*
X570507Y328229D01*
X570516Y328358D01*
X570526Y328506D01*
X570535Y328663D01*
Y328839D01*
X570544Y329033D01*
Y329237D01*
Y329246D01*
Y329283D01*
Y329348D01*
Y329422D01*
Y329514D01*
X570535Y329616D01*
Y329736D01*
X570526Y329857D01*
X570516Y330116D01*
X570498Y330365D01*
X570479Y330486D01*
X570461Y330606D01*
X570442Y330708D01*
X570424Y330791D01*
Y330800D01*
X570415Y330809D01*
X570405Y330856D01*
X570378Y330930D01*
X570350Y331022D01*
X570304Y331115D01*
X570258Y331207D01*
X570202Y331290D01*
X570147Y331355D01*
X570137Y331364D01*
X570119Y331383D01*
X570082Y331401D01*
X570036Y331429D01*
X569980Y331457D01*
X569915Y331485D01*
X569841Y331494D01*
X569758Y331503D01*
D02*
G37*
G36*
X565787Y258078D02*
X565731D01*
X565667Y258060D01*
X565593Y258041D01*
X565500Y258013D01*
X565408Y257958D01*
X565315Y257893D01*
X565223Y257801D01*
X565213Y257791D01*
X565186Y257745D01*
X565149Y257680D01*
X565112Y257588D01*
X565075Y257468D01*
X565038Y257310D01*
X565010Y257125D01*
X565001Y256912D01*
Y256903D01*
Y256885D01*
Y256857D01*
Y256811D01*
X565010Y256700D01*
X565028Y256570D01*
X565056Y256413D01*
X565102Y256265D01*
X565158Y256117D01*
X565241Y255997D01*
X565250Y255988D01*
X565287Y255950D01*
X565334Y255904D01*
X565408Y255858D01*
X565500Y255802D01*
X565602Y255756D01*
X565722Y255719D01*
X565852Y255710D01*
X565870D01*
X565907Y255719D01*
X565972Y255729D01*
X566055Y255747D01*
X566148Y255775D01*
X566249Y255830D01*
X566351Y255895D01*
X566444Y255988D01*
X566453Y255997D01*
X566481Y256043D01*
X566527Y256108D01*
X566573Y256191D01*
X566610Y256311D01*
X566656Y256450D01*
X566684Y256616D01*
X566693Y256811D01*
Y256820D01*
Y256838D01*
Y256866D01*
Y256912D01*
X566675Y257014D01*
X566656Y257153D01*
X566629Y257301D01*
X566573Y257458D01*
X566508Y257606D01*
X566416Y257745D01*
X566407Y257764D01*
X566370Y257801D01*
X566314Y257847D01*
X566240Y257911D01*
X566148Y257976D01*
X566037Y258022D01*
X565916Y258060D01*
X565787Y258078D01*
D02*
G37*
G36*
X640551Y156700D02*
X640477D01*
X640422Y156691D01*
X640348Y156682D01*
X640274Y156672D01*
X640089Y156635D01*
X639885Y156561D01*
X639774Y156524D01*
X639663Y156469D01*
X639561Y156404D01*
X639450Y156330D01*
X639349Y156247D01*
X639256Y156145D01*
X639247Y156136D01*
X639238Y156117D01*
X639210Y156089D01*
X639182Y156043D01*
X639145Y155979D01*
X639108Y155914D01*
X639062Y155831D01*
X639016Y155729D01*
X638969Y155618D01*
X638923Y155498D01*
X638886Y155359D01*
X638849Y155211D01*
X638821Y155044D01*
X638794Y154868D01*
X638784Y154683D01*
X638775Y154480D01*
Y154471D01*
Y154434D01*
Y154378D01*
X638784Y154304D01*
X638794Y154212D01*
X638803Y154101D01*
X638821Y153990D01*
X638840Y153860D01*
X638895Y153592D01*
X638988Y153324D01*
X639043Y153185D01*
X639108Y153056D01*
X639191Y152935D01*
X639275Y152824D01*
X639284Y152815D01*
X639302Y152796D01*
X639330Y152769D01*
X639367Y152741D01*
X639413Y152695D01*
X639478Y152648D01*
X639543Y152593D01*
X639626Y152547D01*
X639802Y152436D01*
X640024Y152352D01*
X640144Y152315D01*
X640274Y152288D01*
X640412Y152269D01*
X640551Y152260D01*
X640625D01*
X640681Y152269D01*
X640745Y152278D01*
X640819Y152288D01*
X640995Y152334D01*
X641199Y152399D01*
X641300Y152445D01*
X641411Y152491D01*
X641513Y152556D01*
X641624Y152630D01*
X641726Y152713D01*
X641818Y152815D01*
X641828Y152824D01*
X641837Y152843D01*
X641865Y152871D01*
X641892Y152917D01*
X641939Y152981D01*
X641976Y153056D01*
X642022Y153139D01*
X642068Y153241D01*
X642114Y153351D01*
X642161Y153472D01*
X642207Y153611D01*
X642244Y153768D01*
X642272Y153925D01*
X642299Y154101D01*
X642309Y154295D01*
X642318Y154499D01*
Y154508D01*
Y154545D01*
Y154600D01*
X642309Y154683D01*
X642299Y154776D01*
X642290Y154878D01*
X642281Y154998D01*
X642253Y155118D01*
X642198Y155386D01*
X642114Y155664D01*
X642059Y155803D01*
X641994Y155923D01*
X641911Y156043D01*
X641828Y156154D01*
X641818Y156164D01*
X641809Y156182D01*
X641781Y156201D01*
X641744Y156237D01*
X641689Y156284D01*
X641633Y156330D01*
X641569Y156376D01*
X641485Y156432D01*
X641402Y156478D01*
X641300Y156524D01*
X641088Y156617D01*
X640967Y156654D01*
X640838Y156672D01*
X640699Y156691D01*
X640551Y156700D01*
D02*
G37*
G36*
X646924Y156598D02*
X645962D01*
Y154776D01*
X646850D01*
X646915Y154785D01*
X647082D01*
X647248Y154795D01*
X647415Y154813D01*
X647563Y154841D01*
X647627Y154850D01*
X647683Y154868D01*
X647692Y154878D01*
X647729Y154887D01*
X647775Y154915D01*
X647831Y154943D01*
X647896Y154989D01*
X647960Y155044D01*
X648034Y155109D01*
X648090Y155183D01*
X648099Y155192D01*
X648118Y155220D01*
X648136Y155266D01*
X648164Y155331D01*
X648192Y155405D01*
X648219Y155488D01*
X648229Y155581D01*
X648238Y155683D01*
Y155701D01*
Y155738D01*
X648229Y155803D01*
X648210Y155886D01*
X648182Y155979D01*
X648145Y156080D01*
X648099Y156173D01*
X648025Y156265D01*
X648016Y156274D01*
X647988Y156302D01*
X647942Y156339D01*
X647886Y156386D01*
X647812Y156441D01*
X647720Y156487D01*
X647618Y156524D01*
X647507Y156552D01*
X647498D01*
X647461Y156561D01*
X647396Y156570D01*
X647304Y156580D01*
X647183D01*
X647100Y156589D01*
X647017D01*
X646924Y156598D01*
D02*
G37*
G36*
X488502Y332042D02*
X488446D01*
X488382Y332032D01*
X488298Y332014D01*
X488206Y331986D01*
X488113Y331949D01*
X488021Y331903D01*
X487938Y331829D01*
X487928Y331820D01*
X487910Y331792D01*
X487873Y331746D01*
X487836Y331681D01*
X487799Y331598D01*
X487762Y331505D01*
X487743Y331394D01*
X487734Y331265D01*
Y331246D01*
Y331200D01*
X487743Y331135D01*
X487762Y331052D01*
X487780Y330959D01*
X487817Y330867D01*
X487873Y330774D01*
X487938Y330691D01*
X487947Y330682D01*
X487975Y330663D01*
X488021Y330626D01*
X488086Y330589D01*
X488169Y330552D01*
X488261Y330515D01*
X488372Y330497D01*
X488493Y330488D01*
X488548D01*
X488613Y330497D01*
X488696Y330515D01*
X488789Y330534D01*
X488881Y330571D01*
X488974Y330626D01*
X489057Y330691D01*
X489066Y330700D01*
X489094Y330728D01*
X489122Y330774D01*
X489168Y330848D01*
X489205Y330932D01*
X489233Y331024D01*
X489260Y331144D01*
X489270Y331274D01*
Y331292D01*
Y331329D01*
X489260Y331394D01*
X489242Y331468D01*
X489214Y331561D01*
X489177Y331653D01*
X489131Y331746D01*
X489057Y331829D01*
X489048Y331838D01*
X489020Y331866D01*
X488974Y331894D01*
X488909Y331940D01*
X488826Y331977D01*
X488733Y332005D01*
X488622Y332032D01*
X488502Y332042D01*
D02*
G37*
G36*
X488511Y329516D02*
X488437D01*
X488354Y329498D01*
X488261Y329479D01*
X488150Y329442D01*
X488039Y329387D01*
X487928Y329304D01*
X487836Y329202D01*
X487827Y329183D01*
X487799Y329146D01*
X487771Y329082D01*
X487734Y328998D01*
X487688Y328896D01*
X487660Y328786D01*
X487632Y328656D01*
X487623Y328526D01*
Y328517D01*
Y328508D01*
Y328480D01*
Y328443D01*
X487642Y328351D01*
X487660Y328231D01*
X487688Y328101D01*
X487734Y327972D01*
X487799Y327842D01*
X487882Y327722D01*
X487891Y327713D01*
X487928Y327676D01*
X487984Y327639D01*
X488058Y327583D01*
X488150Y327537D01*
X488261Y327490D01*
X488391Y327453D01*
X488530Y327444D01*
X488594D01*
X488659Y327463D01*
X488752Y327481D01*
X488853Y327509D01*
X488955Y327555D01*
X489057Y327620D01*
X489159Y327713D01*
X489168Y327722D01*
X489196Y327768D01*
X489242Y327823D01*
X489288Y327916D01*
X489334Y328027D01*
X489381Y328166D01*
X489408Y328323D01*
X489418Y328508D01*
Y328517D01*
Y328526D01*
Y328582D01*
X489408Y328665D01*
X489390Y328767D01*
X489353Y328887D01*
X489307Y329008D01*
X489242Y329128D01*
X489159Y329239D01*
X489149Y329248D01*
X489112Y329285D01*
X489057Y329331D01*
X488983Y329378D01*
X488890Y329433D01*
X488779Y329470D01*
X488650Y329507D01*
X488511Y329516D01*
D02*
G37*
%LPD*%
D26*
X673846Y183256D02*
Y285256D01*
Y183256D02*
X712815D01*
X673846Y407256D02*
X712847D01*
X673846Y305256D02*
Y407256D01*
X670847Y410256D02*
X715846D01*
X670847Y180256D02*
Y410256D01*
Y305256D02*
X673846D01*
Y285256D02*
Y305256D01*
X670847Y285256D02*
X673846D01*
X712847Y183256D02*
Y407256D01*
X670847Y180256D02*
X715846D01*
Y410256D01*
X543614Y305256D02*
X546614D01*
X514614Y285256D02*
Y305256D01*
X543614Y285256D02*
X546614D01*
Y305256D01*
X514614D02*
Y407256D01*
X543614D01*
X514614Y183256D02*
X543614D01*
X514614D02*
Y285256D01*
X543614Y305256D02*
Y407256D01*
Y183256D02*
Y285256D01*
X466449Y183256D02*
Y285256D01*
Y305256D02*
Y407256D01*
X437449Y183256D02*
Y285256D01*
Y183256D02*
X466449D01*
X437449Y407256D02*
X466449D01*
X437449Y305256D02*
Y407256D01*
X469449Y285256D02*
Y305256D01*
X466449Y285256D02*
X469449D01*
X437449D02*
Y305256D01*
X466449D02*
X469449D01*
X389283D02*
X392284D01*
X360283Y285256D02*
Y305256D01*
X389283Y285256D02*
X392284D01*
Y305256D01*
X360283D02*
Y407256D01*
X389283D01*
X360283Y183256D02*
X389283D01*
X360283D02*
Y285256D01*
X389283Y305256D02*
Y407256D01*
Y183256D02*
Y285256D01*
X312118Y183256D02*
Y285256D01*
Y305256D02*
Y407256D01*
X283118Y183256D02*
Y285256D01*
Y183256D02*
X312118D01*
X283118Y407256D02*
X312118D01*
X283118Y305256D02*
Y407256D01*
X315118Y285256D02*
Y305256D01*
X312118Y285256D02*
X315118D01*
X283118D02*
Y305256D01*
X312118D02*
X315118D01*
X234953D02*
X237953D01*
X205953Y285256D02*
Y305256D01*
X234953Y285256D02*
X237953D01*
Y305256D01*
X205953D02*
Y407256D01*
X234953D01*
X205953Y183256D02*
X234953D01*
X205953D02*
Y285256D01*
X234953Y305256D02*
Y407256D01*
Y183256D02*
Y285256D01*
X620779Y183256D02*
Y285256D01*
Y305256D02*
Y407256D01*
X591779Y183256D02*
Y285256D01*
Y183256D02*
X620779D01*
X591779Y407256D02*
X620779D01*
X591779Y305256D02*
Y407256D01*
X623779Y285256D02*
Y305256D01*
X620779Y285256D02*
X623779D01*
X591779D02*
Y305256D01*
X620779D02*
X623779D01*
X155925Y180256D02*
Y410256D01*
X110925Y180256D02*
X155925D01*
X152925Y183256D02*
Y407256D01*
X110925Y285256D02*
X113925D01*
Y305256D01*
X110925D02*
X113925D01*
X110925Y180256D02*
Y410256D01*
X155925D01*
X113925Y305256D02*
Y407256D01*
X152925D01*
X113925Y183256D02*
X152894D01*
X113925D02*
Y285256D01*
X700614Y422126D02*
Y452126D01*
X723114Y422126D02*
Y452126D01*
X718114Y432126D02*
Y442126D01*
X700614Y452126D02*
X723114D01*
X700614Y422126D02*
X723114D01*
X718114Y432126D02*
X723114D01*
X718114Y442126D02*
X723114D01*
X121658D02*
X126657D01*
X121658Y432126D02*
X126657D01*
X104157Y422126D02*
X126657D01*
X104157Y452126D02*
X126657D01*
X121658Y432126D02*
Y442126D01*
X126657Y422126D02*
Y452126D01*
X104157Y422126D02*
Y452126D01*
X668484Y420394D02*
Y435394D01*
X633484D02*
X668484D01*
X633484Y420394D02*
Y435394D01*
Y420394D02*
X668484D01*
X158287Y435394D02*
X193287D01*
Y420394D02*
Y435394D01*
X158287Y420394D02*
X193287D01*
X158287D02*
Y435394D01*
D29*
X479331Y298830D02*
X495079D01*
X479331Y262697D02*
X495079Y262697D01*
X479331Y297452D02*
X495079Y297452D01*
Y262697D02*
Y298830D01*
X479331Y262697D02*
Y298830D01*
Y298141D02*
X495005D01*
X402165D02*
X417839D01*
X402165Y262697D02*
Y298830D01*
X417913Y262697D02*
Y298830D01*
X402165Y297452D02*
X417913Y297452D01*
X402165Y262697D02*
X417913Y262697D01*
X402165Y298830D02*
X417913D01*
X325000D02*
X340748D01*
X325000Y262697D02*
X340748Y262697D01*
X325000Y297452D02*
X340748Y297452D01*
Y262697D02*
Y298830D01*
X325000Y262697D02*
Y298830D01*
Y298141D02*
X340674D01*
X247835Y298141D02*
X263509D01*
X247835Y262697D02*
Y298830D01*
X263583Y262697D02*
Y298830D01*
X247835Y297452D02*
X263583Y297452D01*
X247835Y262697D02*
X263583Y262697D01*
X247835Y298830D02*
X263583D01*
X556496Y298830D02*
X572244D01*
X556496Y262697D02*
X572244Y262697D01*
X556496Y297452D02*
X572244Y297452D01*
Y262697D02*
Y298830D01*
X556496Y262697D02*
Y298830D01*
Y298141D02*
X572170D01*
X492305Y305636D02*
Y310236D01*
X482005Y305636D02*
X492305D01*
X482005D02*
Y310636D01*
Y317736D02*
Y322236D01*
X492305D01*
Y317736D02*
Y322236D01*
X415139Y317736D02*
Y322236D01*
X404839D02*
X415139D01*
X404839Y317736D02*
Y322236D01*
Y305636D02*
Y310636D01*
Y305636D02*
X415139D01*
Y310236D01*
X337974Y305636D02*
Y310236D01*
X327674Y305636D02*
X337974D01*
X327674D02*
Y310636D01*
Y317736D02*
Y322236D01*
X337974D01*
Y317736D02*
Y322236D01*
X260809Y317441D02*
Y321941D01*
X250509D02*
X260809D01*
X250509Y317441D02*
Y321941D01*
Y305341D02*
Y310341D01*
Y305341D02*
X260809D01*
Y309941D01*
X569470Y305636D02*
Y310236D01*
X559170Y305636D02*
X569470D01*
X559170D02*
Y310636D01*
Y317736D02*
Y322236D01*
X569470D01*
Y317736D02*
Y322236D01*
D30*
X632776Y108591D02*
Y117591D01*
X628276Y113091D02*
X637276D01*
X629776Y116091D02*
X635776Y110091D01*
X629776D02*
X635776Y116091D01*
X632776Y117591D02*
X635776Y110091D01*
X628276Y113091D02*
X635776Y110091D01*
X628276Y113091D02*
X635776Y116091D01*
X632776Y108591D02*
X635776Y116091D01*
X629776D02*
X632776Y108591D01*
X629776Y116091D02*
X637276Y113091D01*
X629776Y110091D02*
X637276Y113091D01*
X629776Y110091D02*
X632776Y117591D01*
X640276Y136091D02*
Y145091D01*
X635776Y140591D02*
X644776D01*
X637276Y143591D02*
X643276Y137591D01*
X637276D02*
X643276Y143591D01*
X640276Y145091D02*
X643276Y137591D01*
X635776Y140591D02*
X643276Y137591D01*
X635776Y140591D02*
X643276Y143591D01*
X640276Y136091D02*
X643276Y143591D01*
X637276D02*
X640276Y136091D01*
X637276Y143591D02*
X644776Y140591D01*
X637276Y137591D02*
X644776Y140591D01*
X637276Y137591D02*
X640276Y145091D01*
X653276Y115091D02*
Y120091D01*
X651776Y119091D02*
X654776Y116091D01*
X651776D02*
X654776Y119091D01*
X653276Y115091D02*
X654776Y119091D01*
X651776D02*
X653276Y115091D01*
X651776Y116091D02*
X655776Y117591D01*
X651776Y119091D02*
X655776Y117591D01*
X653276Y120091D02*
X654776Y116091D01*
X650776Y117591D02*
X654776Y116091D01*
X650776Y117591D02*
X655776D01*
X651776Y116091D02*
X653276Y120091D01*
X650776Y117591D02*
X654776Y119091D01*
X665276Y121091D02*
Y130091D01*
X660776Y125591D02*
X669776D01*
X662276Y128591D02*
X668276Y122591D01*
X662276D02*
X668276Y128591D01*
X665276Y130091D02*
X668276Y122591D01*
X660776Y125591D02*
X668276Y122591D01*
X660776Y125591D02*
X668276Y128591D01*
X665276Y121091D02*
X668276Y128591D01*
X662276D02*
X665276Y121091D01*
X662276Y128591D02*
X669776Y125591D01*
X662276Y122591D02*
X669776Y125591D01*
X662276Y122591D02*
X665276Y130091D01*
X662776Y141091D02*
Y150091D01*
X658276Y145591D02*
X667276D01*
X659776Y148591D02*
X665776Y142591D01*
X659776D02*
X665776Y148591D01*
X662776Y150091D02*
X665776Y142591D01*
X658276Y145591D02*
X665776Y142591D01*
X658276Y145591D02*
X665776Y148591D01*
X662776Y141091D02*
X665776Y148591D01*
X659776D02*
X662776Y141091D01*
X659776Y148591D02*
X667276Y145591D01*
X659776Y142591D02*
X667276Y145591D01*
X659776Y142591D02*
X662776Y150091D01*
D31*
X664347Y385256D02*
X669347Y390256D01*
X664347Y385256D02*
Y395256D01*
X669347Y390256D01*
X546614Y390256D02*
X551614Y395256D01*
Y385256D02*
Y395256D01*
X546614Y390256D02*
X551614Y385256D01*
X469449Y390256D02*
X474449Y385256D01*
Y395256D01*
X469449Y390256D02*
X474449Y395256D01*
X392284Y390256D02*
X397284Y395256D01*
Y385256D02*
Y395256D01*
X392284Y390256D02*
X397284Y385256D01*
X315118Y390256D02*
X320118Y385256D01*
Y395256D01*
X315118Y390256D02*
X320118Y395256D01*
X237953Y390256D02*
X242953Y395256D01*
Y385256D02*
Y395256D01*
X237953Y390256D02*
X242953Y385256D01*
X623779Y390256D02*
X628779Y385256D01*
Y395256D01*
X623779Y390256D02*
X628779Y395256D01*
X104425Y395256D02*
X109425Y390256D01*
X104425Y385256D02*
Y395256D01*
Y385256D02*
X109425Y390256D01*
D32*
X664776Y145590D02*
D03*
X667276Y125591D02*
D03*
X642276Y140591D02*
D03*
X634776Y113091D02*
D03*
D33*
X662776Y148591D02*
D03*
X660276Y145590D02*
D03*
X665276Y128591D02*
D03*
X662776Y125591D02*
D03*
X640276Y143590D02*
D03*
X637776Y140591D02*
D03*
X632776Y116091D02*
D03*
X630276Y113091D02*
D03*
D34*
X662776Y142841D02*
D03*
X665276Y122840D02*
D03*
X640276Y137840D02*
D03*
X632776Y110340D02*
D03*
D35*
X662776Y145590D02*
D03*
X665276Y125591D02*
D03*
X640276Y140591D02*
D03*
X632776Y113091D02*
D03*
M02*
