G04 Layer_Physical_Order=1*
G04 Layer_Color=255*
%FSLAX25Y25*%
%MOIN*%
G70*
G01*
G75*
%ADD10R,0.08661X0.10236*%
%ADD11R,0.06299X0.05118*%
%ADD12R,0.06299X0.05118*%
%ADD13C,0.04000*%
%ADD14C,0.03000*%
%ADD15C,0.01201*%
%ADD16R,6.12106X0.09941*%
%ADD17R,5.05315X0.09842*%
%ADD18R,0.49409X1.21654*%
%ADD19R,0.17520X0.93307*%
%ADD20C,0.11811*%
%ADD21C,0.06693*%
%ADD22R,0.08500X0.08000*%
%ADD23O,0.07600X0.08000*%
%ADD24C,0.07600*%
%ADD25C,0.05000*%
G36*
X365400Y390256D02*
X365549Y389121D01*
X365987Y388064D01*
X366684Y387156D01*
X367592Y386459D01*
X368649Y386021D01*
X369783Y385872D01*
Y384640D01*
X368649Y384490D01*
X367592Y384052D01*
X366684Y383356D01*
X365987Y382448D01*
X365549Y381391D01*
X365400Y380256D01*
X365549Y379121D01*
X365987Y378064D01*
X366684Y377156D01*
X367592Y376459D01*
X368649Y376021D01*
X369783Y375872D01*
Y374640D01*
X368649Y374490D01*
X367592Y374053D01*
X366684Y373356D01*
X365987Y372448D01*
X365549Y371391D01*
X365400Y370256D01*
X365549Y369121D01*
X365987Y368064D01*
X366684Y367156D01*
X367592Y366459D01*
X368649Y366021D01*
X369783Y365872D01*
Y364640D01*
X368649Y364490D01*
X367592Y364053D01*
X366684Y363356D01*
X365987Y362448D01*
X365549Y361390D01*
X365400Y360256D01*
X365549Y359121D01*
X365987Y358064D01*
X366684Y357156D01*
X367592Y356459D01*
X368649Y356021D01*
X369783Y355872D01*
Y354640D01*
X368649Y354490D01*
X367592Y354052D01*
X366684Y353356D01*
X365987Y352448D01*
X365549Y351391D01*
X365400Y350256D01*
X365549Y349121D01*
X365987Y348064D01*
X366684Y347156D01*
X367592Y346459D01*
X368649Y346021D01*
X369783Y345872D01*
Y344640D01*
X368649Y344490D01*
X367592Y344053D01*
X366684Y343356D01*
X365987Y342448D01*
X365549Y341390D01*
X365400Y340256D01*
X365549Y339121D01*
X365987Y338064D01*
X366684Y337156D01*
X367592Y336459D01*
X368649Y336021D01*
X369783Y335872D01*
Y334640D01*
X368649Y334490D01*
X367592Y334052D01*
X366684Y333356D01*
X365987Y332448D01*
X365549Y331391D01*
X365400Y330256D01*
X365549Y329121D01*
X365987Y328064D01*
X366684Y327156D01*
X367592Y326459D01*
X368649Y326021D01*
X369783Y325872D01*
Y324640D01*
X368649Y324490D01*
X367592Y324053D01*
X366684Y323356D01*
X365987Y322448D01*
X365549Y321391D01*
X365400Y320256D01*
X365549Y319121D01*
X365987Y318064D01*
X366684Y317156D01*
X367592Y316459D01*
X368649Y316021D01*
X369783Y315872D01*
Y314640D01*
X368649Y314490D01*
X367592Y314053D01*
X366684Y313356D01*
X365987Y312448D01*
X365549Y311390D01*
X365400Y310256D01*
X365549Y309121D01*
X365987Y308064D01*
X366684Y307156D01*
X367592Y306459D01*
X368649Y306021D01*
X369783Y305872D01*
Y304640D01*
X368649Y304490D01*
X367592Y304052D01*
X366684Y303356D01*
X365987Y302448D01*
X365549Y301391D01*
X365400Y300256D01*
X365549Y299121D01*
X365987Y298064D01*
X366684Y297156D01*
X367592Y296459D01*
X368649Y296021D01*
X369783Y295872D01*
Y294640D01*
X368649Y294490D01*
X367592Y294053D01*
X366684Y293356D01*
X365987Y292448D01*
X365549Y291390D01*
X365400Y290256D01*
X365549Y289121D01*
X365987Y288064D01*
X366684Y287156D01*
X367592Y286459D01*
X368649Y286021D01*
X369783Y285872D01*
Y284640D01*
X368649Y284490D01*
X367592Y284052D01*
X366684Y283356D01*
X365987Y282448D01*
X365549Y281391D01*
X365465Y280756D01*
X369783D01*
Y279756D01*
X365465D01*
X365549Y279121D01*
X365987Y278064D01*
X366684Y277156D01*
X367592Y276459D01*
X368649Y276021D01*
X369783Y275872D01*
Y274640D01*
X368649Y274490D01*
X367592Y274053D01*
X366684Y273356D01*
X365987Y272448D01*
X365549Y271391D01*
X365400Y270256D01*
X365549Y269121D01*
X365987Y268064D01*
X366684Y267156D01*
X367592Y266459D01*
X368649Y266021D01*
X369783Y265872D01*
X370918Y266021D01*
X371238Y266154D01*
X371654Y265876D01*
Y264636D01*
X371238Y264358D01*
X370918Y264490D01*
X369783Y264640D01*
X368649Y264490D01*
X367592Y264053D01*
X366684Y263356D01*
X365987Y262448D01*
X365549Y261390D01*
X365400Y260256D01*
X365549Y259121D01*
X365987Y258064D01*
X366684Y257156D01*
X367592Y256459D01*
X368649Y256021D01*
X369783Y255872D01*
X370918Y256021D01*
X371238Y256154D01*
X371654Y255876D01*
Y254636D01*
X371238Y254358D01*
X370918Y254490D01*
X369783Y254640D01*
X368649Y254490D01*
X367592Y254052D01*
X366684Y253356D01*
X365987Y252448D01*
X365549Y251391D01*
X365400Y250256D01*
X365549Y249121D01*
X365987Y248064D01*
X366684Y247156D01*
X367592Y246459D01*
X368649Y246021D01*
X369783Y245872D01*
X370918Y246021D01*
X371238Y246154D01*
X371654Y245876D01*
Y244636D01*
X371238Y244358D01*
X370918Y244490D01*
X369783Y244640D01*
X368649Y244490D01*
X367592Y244053D01*
X366684Y243356D01*
X365987Y242448D01*
X365549Y241390D01*
X365400Y240256D01*
X365549Y239121D01*
X365987Y238064D01*
X366684Y237156D01*
X367592Y236459D01*
X368649Y236021D01*
X369783Y235872D01*
X370918Y236021D01*
X371238Y236154D01*
X371654Y235876D01*
Y234636D01*
X371238Y234358D01*
X370918Y234490D01*
X369783Y234640D01*
X368649Y234490D01*
X367592Y234052D01*
X366684Y233356D01*
X365987Y232448D01*
X365549Y231391D01*
X365400Y230256D01*
X365549Y229121D01*
X365987Y228064D01*
X366684Y227156D01*
X367592Y226459D01*
X368649Y226021D01*
X369783Y225872D01*
X370918Y226021D01*
X371238Y226154D01*
X371654Y225876D01*
Y224636D01*
X371238Y224358D01*
X370918Y224490D01*
X369783Y224640D01*
X368649Y224490D01*
X367592Y224053D01*
X366684Y223356D01*
X365987Y222448D01*
X365549Y221391D01*
X365400Y220256D01*
X365549Y219121D01*
X365987Y218064D01*
X366684Y217156D01*
X367592Y216459D01*
X368649Y216021D01*
X369783Y215872D01*
X370918Y216021D01*
X371238Y216154D01*
X371654Y215876D01*
Y214636D01*
X371238Y214358D01*
X370918Y214490D01*
X369783Y214640D01*
X368649Y214490D01*
X367592Y214053D01*
X366684Y213356D01*
X365987Y212448D01*
X365549Y211390D01*
X365400Y210256D01*
X365549Y209121D01*
X365987Y208064D01*
X366684Y207156D01*
X367592Y206459D01*
X368649Y206021D01*
X369783Y205872D01*
X370918Y206021D01*
X371238Y206154D01*
X371654Y205876D01*
Y204636D01*
X371238Y204358D01*
X370918Y204490D01*
X369783Y204640D01*
X368649Y204490D01*
X367592Y204052D01*
X366684Y203356D01*
X365987Y202448D01*
X365549Y201391D01*
X365400Y200256D01*
X365549Y199121D01*
X365987Y198064D01*
X366684Y197156D01*
X367592Y196459D01*
X368649Y196021D01*
X369783Y195872D01*
X370918Y196021D01*
X371238Y196154D01*
X371654Y195876D01*
Y185039D01*
X355499D01*
X355378Y185953D01*
X355026Y186804D01*
X354465Y187536D01*
X353734Y188097D01*
X352882Y188449D01*
X352468Y188504D01*
Y185039D01*
X351468D01*
Y188504D01*
X351055Y188449D01*
X350203Y188097D01*
X349472Y187536D01*
X348911Y186804D01*
X348559Y185953D01*
X348438Y185039D01*
X347625D01*
X347504Y185953D01*
X347152Y186804D01*
X346591Y187536D01*
X345860Y188097D01*
X345008Y188449D01*
X344595Y188504D01*
Y185039D01*
X343595D01*
Y188504D01*
X343181Y188449D01*
X342329Y188097D01*
X341598Y187536D01*
X341037Y186804D01*
X340685Y185953D01*
X340564Y185039D01*
X339751D01*
X339630Y185953D01*
X339278Y186804D01*
X338717Y187536D01*
X337986Y188097D01*
X337134Y188449D01*
X336720Y188504D01*
Y185039D01*
X335720D01*
Y188504D01*
X335307Y188449D01*
X334455Y188097D01*
X333724Y187536D01*
X333163Y186804D01*
X332811Y185953D01*
X332690Y185039D01*
X331877D01*
X331756Y185953D01*
X331404Y186804D01*
X330843Y187536D01*
X330112Y188097D01*
X329260Y188449D01*
X328847Y188504D01*
Y185039D01*
X327847D01*
Y188504D01*
X327433Y188449D01*
X326581Y188097D01*
X325850Y187536D01*
X325289Y186804D01*
X324937Y185953D01*
X324816Y185039D01*
X324003D01*
X323882Y185953D01*
X323530Y186804D01*
X322969Y187536D01*
X322237Y188097D01*
X321386Y188449D01*
X320972Y188504D01*
Y185039D01*
X319972D01*
Y188504D01*
X319559Y188449D01*
X318707Y188097D01*
X317976Y187536D01*
X317415Y186804D01*
X317062Y185953D01*
X316942Y185039D01*
X302618D01*
Y186890D01*
Y195372D01*
X302618Y195872D01*
X303753Y196021D01*
X304810Y196459D01*
X305718Y197156D01*
X306415Y198064D01*
X306853Y199121D01*
X307002Y200256D01*
X306853Y201391D01*
X306415Y202448D01*
X305718Y203356D01*
X304810Y204052D01*
X303753Y204490D01*
X302618Y204640D01*
X302618Y205140D01*
X302618Y205872D01*
X303753Y206021D01*
X304810Y206459D01*
X305718Y207156D01*
X306415Y208064D01*
X306853Y209121D01*
X307002Y210256D01*
X306853Y211390D01*
X306415Y212448D01*
X305718Y213356D01*
X304810Y214053D01*
X303753Y214490D01*
X302618Y214640D01*
X302618Y214640D01*
Y215872D01*
X302618Y215872D01*
X303753Y216021D01*
X304810Y216459D01*
X305718Y217156D01*
X306415Y218064D01*
X306853Y219121D01*
X307002Y220256D01*
X306853Y221391D01*
X306415Y222448D01*
X305718Y223356D01*
X304810Y224053D01*
X303753Y224490D01*
X302618Y224640D01*
X302618Y224640D01*
Y225872D01*
X302618Y225872D01*
X303753Y226021D01*
X304810Y226459D01*
X305718Y227156D01*
X306415Y228064D01*
X306853Y229121D01*
X307002Y230256D01*
X306853Y231391D01*
X306415Y232448D01*
X305718Y233356D01*
X304810Y234052D01*
X303753Y234490D01*
X302618Y234640D01*
X302618Y234640D01*
Y235872D01*
X302618Y235872D01*
X303753Y236021D01*
X304810Y236459D01*
X305718Y237156D01*
X306415Y238064D01*
X306853Y239121D01*
X307002Y240256D01*
X306853Y241390D01*
X306415Y242448D01*
X305718Y243356D01*
X304810Y244053D01*
X303753Y244490D01*
X302618Y244640D01*
X302618Y244640D01*
Y245872D01*
X302618Y245872D01*
X303753Y246021D01*
X304810Y246459D01*
X305718Y247156D01*
X306415Y248064D01*
X306853Y249121D01*
X307002Y250256D01*
X306853Y251391D01*
X306415Y252448D01*
X305718Y253356D01*
X304810Y254052D01*
X303753Y254490D01*
X302618Y254640D01*
X302618Y254640D01*
Y255872D01*
X302618Y255872D01*
X303753Y256021D01*
X304810Y256459D01*
X305718Y257156D01*
X306415Y258064D01*
X306853Y259121D01*
X307002Y260256D01*
X306853Y261390D01*
X306415Y262448D01*
X305718Y263356D01*
X304810Y264053D01*
X303753Y264490D01*
X302618Y264640D01*
X302618Y264640D01*
Y265872D01*
X302618Y265872D01*
X303753Y266021D01*
X304810Y266459D01*
X305718Y267156D01*
X306415Y268064D01*
X306853Y269121D01*
X307002Y270256D01*
X306853Y271391D01*
X306712Y271730D01*
X306990Y272146D01*
X327543D01*
Y271071D01*
X332874D01*
X338205D01*
Y272146D01*
X344587D01*
Y390256D01*
X365399D01*
X365400Y390256D01*
D02*
G37*
G36*
X288234D02*
X288384Y389121D01*
X288822Y388064D01*
X289518Y387156D01*
X290426Y386459D01*
X291483Y386021D01*
X292618Y385872D01*
Y384640D01*
X291483Y384490D01*
X290426Y384052D01*
X289518Y383356D01*
X288822Y382448D01*
X288384Y381391D01*
X288234Y380256D01*
X288384Y379121D01*
X288822Y378064D01*
X289518Y377156D01*
X290426Y376459D01*
X291483Y376021D01*
X292618Y375872D01*
Y374640D01*
X291483Y374490D01*
X290426Y374053D01*
X289518Y373356D01*
X288822Y372448D01*
X288384Y371391D01*
X288234Y370256D01*
X288384Y369121D01*
X288822Y368064D01*
X289518Y367156D01*
X290426Y366459D01*
X291483Y366021D01*
X292618Y365872D01*
Y364640D01*
X291483Y364490D01*
X290426Y364053D01*
X289518Y363356D01*
X288822Y362448D01*
X288384Y361390D01*
X288234Y360256D01*
X288384Y359121D01*
X288822Y358064D01*
X289518Y357156D01*
X290426Y356459D01*
X291483Y356021D01*
X292618Y355872D01*
Y354640D01*
X291483Y354490D01*
X290426Y354052D01*
X289518Y353356D01*
X288822Y352448D01*
X288384Y351391D01*
X288234Y350256D01*
X288384Y349121D01*
X288822Y348064D01*
X289518Y347156D01*
X290426Y346459D01*
X291483Y346021D01*
X292618Y345872D01*
Y344640D01*
X291483Y344490D01*
X290426Y344053D01*
X289518Y343356D01*
X288822Y342448D01*
X288384Y341390D01*
X288234Y340256D01*
X288384Y339121D01*
X288822Y338064D01*
X289518Y337156D01*
X290426Y336459D01*
X291483Y336021D01*
X292618Y335872D01*
Y334640D01*
X291483Y334490D01*
X290426Y334052D01*
X289518Y333356D01*
X288822Y332448D01*
X288384Y331391D01*
X288234Y330256D01*
X288384Y329121D01*
X288822Y328064D01*
X289518Y327156D01*
X290426Y326459D01*
X291483Y326021D01*
X292618Y325872D01*
Y324640D01*
X291483Y324490D01*
X290426Y324053D01*
X289518Y323356D01*
X288822Y322448D01*
X288384Y321391D01*
X288234Y320256D01*
X288384Y319121D01*
X288822Y318064D01*
X289518Y317156D01*
X290426Y316459D01*
X291483Y316021D01*
X292618Y315872D01*
Y314640D01*
X291483Y314490D01*
X290426Y314053D01*
X289518Y313356D01*
X288822Y312448D01*
X288384Y311390D01*
X288234Y310256D01*
X288384Y309121D01*
X288822Y308064D01*
X289518Y307156D01*
X290426Y306459D01*
X291483Y306021D01*
X292618Y305872D01*
Y304640D01*
X291483Y304490D01*
X290426Y304052D01*
X289518Y303356D01*
X288822Y302448D01*
X288384Y301391D01*
X288234Y300256D01*
X288384Y299121D01*
X288822Y298064D01*
X289518Y297156D01*
X290426Y296459D01*
X291483Y296021D01*
X292618Y295872D01*
Y294640D01*
X291483Y294490D01*
X290426Y294053D01*
X289518Y293356D01*
X288822Y292448D01*
X288384Y291390D01*
X288234Y290256D01*
X288384Y289121D01*
X288822Y288064D01*
X289518Y287156D01*
X290426Y286459D01*
X291483Y286021D01*
X292618Y285872D01*
Y284640D01*
X291483Y284490D01*
X290426Y284052D01*
X289518Y283356D01*
X288822Y282448D01*
X288384Y281391D01*
X288300Y280756D01*
X292618D01*
Y279756D01*
X288300D01*
X288384Y279121D01*
X288822Y278064D01*
X289518Y277156D01*
X290426Y276459D01*
X291483Y276021D01*
X292618Y275872D01*
Y274640D01*
X291483Y274490D01*
X290426Y274053D01*
X289518Y273356D01*
X288822Y272448D01*
X288384Y271391D01*
X288234Y270256D01*
X288384Y269121D01*
X288822Y268064D01*
X289518Y267156D01*
X290426Y266459D01*
X291483Y266021D01*
X292618Y265872D01*
X293753Y266021D01*
X294072Y266154D01*
X294488Y265876D01*
Y264636D01*
X294072Y264358D01*
X293753Y264490D01*
X292618Y264640D01*
X291483Y264490D01*
X290426Y264053D01*
X289518Y263356D01*
X288822Y262448D01*
X288384Y261390D01*
X288234Y260256D01*
X288384Y259121D01*
X288822Y258064D01*
X289518Y257156D01*
X290426Y256459D01*
X291483Y256021D01*
X292618Y255872D01*
X293753Y256021D01*
X294072Y256154D01*
X294488Y255876D01*
Y254636D01*
X294072Y254358D01*
X293753Y254490D01*
X292618Y254640D01*
X291483Y254490D01*
X290426Y254052D01*
X289518Y253356D01*
X288822Y252448D01*
X288384Y251391D01*
X288234Y250256D01*
X288384Y249121D01*
X288822Y248064D01*
X289518Y247156D01*
X290426Y246459D01*
X291483Y246021D01*
X292618Y245872D01*
X293753Y246021D01*
X294072Y246154D01*
X294488Y245876D01*
Y244636D01*
X294072Y244358D01*
X293753Y244490D01*
X292618Y244640D01*
X291483Y244490D01*
X290426Y244053D01*
X289518Y243356D01*
X288822Y242448D01*
X288384Y241390D01*
X288234Y240256D01*
X288384Y239121D01*
X288822Y238064D01*
X289518Y237156D01*
X290426Y236459D01*
X291483Y236021D01*
X292618Y235872D01*
X293753Y236021D01*
X294072Y236154D01*
X294488Y235876D01*
Y234636D01*
X294072Y234358D01*
X293753Y234490D01*
X292618Y234640D01*
X291483Y234490D01*
X290426Y234052D01*
X289518Y233356D01*
X288822Y232448D01*
X288384Y231391D01*
X288234Y230256D01*
X288384Y229121D01*
X288822Y228064D01*
X289518Y227156D01*
X290426Y226459D01*
X291483Y226021D01*
X292618Y225872D01*
X293753Y226021D01*
X294072Y226154D01*
X294488Y225876D01*
Y224636D01*
X294072Y224358D01*
X293753Y224490D01*
X292618Y224640D01*
X291483Y224490D01*
X290426Y224053D01*
X289518Y223356D01*
X288822Y222448D01*
X288384Y221391D01*
X288234Y220256D01*
X288384Y219121D01*
X288822Y218064D01*
X289518Y217156D01*
X290426Y216459D01*
X291483Y216021D01*
X292618Y215872D01*
X293753Y216021D01*
X294072Y216154D01*
X294488Y215876D01*
Y214636D01*
X294072Y214358D01*
X293753Y214490D01*
X292618Y214640D01*
X291483Y214490D01*
X290426Y214053D01*
X289518Y213356D01*
X288822Y212448D01*
X288384Y211390D01*
X288234Y210256D01*
X288384Y209121D01*
X288822Y208064D01*
X289518Y207156D01*
X290426Y206459D01*
X291483Y206021D01*
X292618Y205872D01*
X293753Y206021D01*
X294072Y206154D01*
X294488Y205876D01*
Y204636D01*
X294072Y204358D01*
X293753Y204490D01*
X292618Y204640D01*
X291483Y204490D01*
X290426Y204052D01*
X289518Y203356D01*
X288822Y202448D01*
X288384Y201391D01*
X288234Y200256D01*
X288384Y199121D01*
X288822Y198064D01*
X289518Y197156D01*
X290426Y196459D01*
X291483Y196021D01*
X292618Y195872D01*
X293753Y196021D01*
X294072Y196154D01*
X294488Y195876D01*
Y185039D01*
X278333D01*
X278213Y185953D01*
X277860Y186804D01*
X277299Y187536D01*
X276568Y188097D01*
X275717Y188449D01*
X275303Y188504D01*
Y185039D01*
X274303D01*
Y188504D01*
X273889Y188449D01*
X273038Y188097D01*
X272307Y187536D01*
X271746Y186804D01*
X271393Y185953D01*
X271273Y185039D01*
X270459D01*
X270339Y185953D01*
X269986Y186804D01*
X269425Y187536D01*
X268694Y188097D01*
X267843Y188449D01*
X267429Y188504D01*
Y185039D01*
X266429D01*
Y188504D01*
X266016Y188449D01*
X265164Y188097D01*
X264433Y187536D01*
X263872Y186804D01*
X263519Y185953D01*
X263399Y185039D01*
X262585D01*
X262465Y185953D01*
X262112Y186804D01*
X261551Y187536D01*
X260820Y188097D01*
X259969Y188449D01*
X259555Y188504D01*
Y185039D01*
X258555D01*
Y188504D01*
X258141Y188449D01*
X257290Y188097D01*
X256559Y187536D01*
X255998Y186804D01*
X255645Y185953D01*
X255525Y185039D01*
X254711D01*
X254591Y185953D01*
X254238Y186804D01*
X253677Y187536D01*
X252946Y188097D01*
X252095Y188449D01*
X251681Y188504D01*
Y185039D01*
X250681D01*
Y188504D01*
X250268Y188449D01*
X249416Y188097D01*
X248685Y187536D01*
X248124Y186804D01*
X247771Y185953D01*
X247651Y185039D01*
X246837D01*
X246717Y185953D01*
X246364Y186804D01*
X245803Y187536D01*
X245072Y188097D01*
X244221Y188449D01*
X243807Y188504D01*
Y185039D01*
X242807D01*
Y188504D01*
X242393Y188449D01*
X241542Y188097D01*
X240811Y187536D01*
X240250Y186804D01*
X239897Y185953D01*
X239777Y185039D01*
X225453D01*
Y186890D01*
Y195372D01*
X225453Y195872D01*
X226588Y196021D01*
X227645Y196459D01*
X228553Y197156D01*
X229249Y198064D01*
X229687Y199121D01*
X229837Y200256D01*
X229687Y201391D01*
X229249Y202448D01*
X228553Y203356D01*
X227645Y204052D01*
X226588Y204490D01*
X225453Y204640D01*
X225453Y205140D01*
X225453Y205872D01*
X226588Y206021D01*
X227645Y206459D01*
X228553Y207156D01*
X229249Y208064D01*
X229687Y209121D01*
X229837Y210256D01*
X229687Y211390D01*
X229249Y212448D01*
X228553Y213356D01*
X227645Y214053D01*
X226588Y214490D01*
X225453Y214640D01*
X225453Y214640D01*
Y215872D01*
X225453Y215872D01*
X226588Y216021D01*
X227645Y216459D01*
X228553Y217156D01*
X229249Y218064D01*
X229687Y219121D01*
X229837Y220256D01*
X229687Y221391D01*
X229249Y222448D01*
X228553Y223356D01*
X227645Y224053D01*
X226588Y224490D01*
X225453Y224640D01*
X225453Y224640D01*
Y225872D01*
X225453Y225872D01*
X226588Y226021D01*
X227645Y226459D01*
X228553Y227156D01*
X229249Y228064D01*
X229687Y229121D01*
X229837Y230256D01*
X229687Y231391D01*
X229249Y232448D01*
X228553Y233356D01*
X227645Y234052D01*
X226588Y234490D01*
X225453Y234640D01*
X225453Y234640D01*
Y235872D01*
X225453Y235872D01*
X226588Y236021D01*
X227645Y236459D01*
X228553Y237156D01*
X229249Y238064D01*
X229687Y239121D01*
X229837Y240256D01*
X229687Y241390D01*
X229249Y242448D01*
X228553Y243356D01*
X227645Y244053D01*
X226588Y244490D01*
X225453Y244640D01*
X225453Y244640D01*
Y245872D01*
X225453Y245872D01*
X226588Y246021D01*
X227645Y246459D01*
X228553Y247156D01*
X229249Y248064D01*
X229687Y249121D01*
X229837Y250256D01*
X229687Y251391D01*
X229249Y252448D01*
X228553Y253356D01*
X227645Y254052D01*
X226588Y254490D01*
X225453Y254640D01*
X225453Y254640D01*
Y255872D01*
X225453Y255872D01*
X226588Y256021D01*
X227645Y256459D01*
X228553Y257156D01*
X229249Y258064D01*
X229687Y259121D01*
X229837Y260256D01*
X229687Y261390D01*
X229249Y262448D01*
X228553Y263356D01*
X227645Y264053D01*
X226588Y264490D01*
X225453Y264640D01*
X225453Y264640D01*
Y265872D01*
X225453Y265872D01*
X226588Y266021D01*
X227645Y266459D01*
X228553Y267156D01*
X229249Y268064D01*
X229687Y269121D01*
X229837Y270256D01*
X229687Y271391D01*
X229547Y271730D01*
X229825Y272146D01*
X250378D01*
Y271071D01*
X255709D01*
X261039D01*
Y272146D01*
X267421D01*
Y390256D01*
X288234D01*
X288234Y390256D01*
D02*
G37*
G36*
X680721Y284350D02*
X680891Y283850D01*
X680246Y283356D01*
X679550Y282448D01*
X679112Y281391D01*
X678963Y280256D01*
X679112Y279121D01*
X679550Y278064D01*
X680246Y277156D01*
X681154Y276459D01*
X682212Y276021D01*
X683347Y275872D01*
X683405Y275820D01*
Y274692D01*
X683347Y274640D01*
X682212Y274490D01*
X681154Y274053D01*
X680246Y273356D01*
X679550Y272448D01*
X679112Y271391D01*
X678963Y270256D01*
X679112Y269121D01*
X679550Y268064D01*
X680246Y267156D01*
X681154Y266459D01*
X682212Y266021D01*
X683347Y265872D01*
X683405Y265820D01*
Y264692D01*
X683347Y264640D01*
X682212Y264491D01*
X681154Y264053D01*
X680246Y263356D01*
X679550Y262448D01*
X679112Y261391D01*
X678963Y260256D01*
X679112Y259121D01*
X679550Y258064D01*
X680246Y257156D01*
X681154Y256459D01*
X682212Y256021D01*
X683347Y255872D01*
X683405Y255820D01*
Y254692D01*
X683347Y254640D01*
X682212Y254490D01*
X681154Y254052D01*
X680246Y253356D01*
X679550Y252448D01*
X679112Y251391D01*
X678963Y250256D01*
X679112Y249121D01*
X679550Y248064D01*
X680246Y247156D01*
X681154Y246459D01*
X682212Y246021D01*
X683347Y245872D01*
X683405Y245820D01*
Y244692D01*
X683347Y244640D01*
X682212Y244491D01*
X681154Y244053D01*
X680246Y243356D01*
X679550Y242448D01*
X679112Y241391D01*
X678963Y240256D01*
X679112Y239121D01*
X679550Y238064D01*
X680246Y237156D01*
X681154Y236459D01*
X682212Y236021D01*
X683347Y235872D01*
X683405Y235820D01*
Y234692D01*
X683347Y234640D01*
X682212Y234490D01*
X681154Y234052D01*
X680246Y233356D01*
X679550Y232448D01*
X679112Y231391D01*
X678963Y230256D01*
X679112Y229121D01*
X679550Y228064D01*
X680246Y227156D01*
X681154Y226459D01*
X682212Y226021D01*
X683347Y225872D01*
X683405Y225820D01*
Y224692D01*
X683347Y224640D01*
X682212Y224490D01*
X681154Y224053D01*
X680246Y223356D01*
X679550Y222448D01*
X679112Y221391D01*
X678963Y220256D01*
X679112Y219121D01*
X679550Y218064D01*
X680246Y217156D01*
X681154Y216459D01*
X682212Y216021D01*
X683347Y215872D01*
X683405Y215820D01*
Y214692D01*
X683347Y214640D01*
X682212Y214491D01*
X681154Y214053D01*
X680246Y213356D01*
X679550Y212448D01*
X679112Y211391D01*
X678963Y210256D01*
X679112Y209121D01*
X679550Y208064D01*
X680246Y207156D01*
X681154Y206459D01*
X682212Y206021D01*
X683347Y205872D01*
X683405Y205820D01*
Y204692D01*
X683347Y204640D01*
X682212Y204490D01*
X681154Y204052D01*
X680246Y203356D01*
X679550Y202448D01*
X679112Y201391D01*
X678963Y200256D01*
X679112Y199121D01*
X679550Y198064D01*
X680246Y197156D01*
X681154Y196459D01*
X682212Y196021D01*
X683347Y195872D01*
X683405Y195820D01*
Y185039D01*
X664160D01*
X664160Y185039D01*
X664040Y185953D01*
X663687Y186804D01*
X663126Y187536D01*
X662395Y188097D01*
X661544Y188449D01*
X661130Y188504D01*
Y185039D01*
X660130D01*
Y188504D01*
X659716Y188449D01*
X658865Y188097D01*
X658134Y187536D01*
X657573Y186804D01*
X657220Y185953D01*
X657100Y185039D01*
X657100Y185039D01*
X656286D01*
X656286Y185039D01*
X656166Y185953D01*
X655813Y186804D01*
X655252Y187536D01*
X654521Y188097D01*
X653670Y188449D01*
X653256Y188504D01*
Y185039D01*
X652256D01*
Y188504D01*
X651842Y188449D01*
X650991Y188097D01*
X650260Y187536D01*
X649698Y186804D01*
X649346Y185953D01*
X649226Y185039D01*
X649226Y185039D01*
X648412D01*
X648412Y185039D01*
X648292Y185953D01*
X647939Y186804D01*
X647378Y187536D01*
X646647Y188097D01*
X645795Y188449D01*
X645382Y188504D01*
Y185039D01*
X644382D01*
Y188504D01*
X643968Y188449D01*
X643117Y188097D01*
X642385Y187536D01*
X641824Y186804D01*
X641472Y185953D01*
X641352Y185039D01*
X640944Y185039D01*
X640538Y185039D01*
X640418Y185953D01*
X640065Y186804D01*
X639504Y187536D01*
X638773Y188097D01*
X637921Y188449D01*
X637508Y188504D01*
Y185039D01*
X636508D01*
Y188504D01*
X636094Y188449D01*
X635243Y188097D01*
X634512Y187536D01*
X633951Y186804D01*
X633598Y185953D01*
X633477Y185039D01*
X633070Y185039D01*
X632664Y185039D01*
X632544Y185953D01*
X632191Y186804D01*
X631630Y187536D01*
X630899Y188097D01*
X630047Y188449D01*
X629634Y188504D01*
Y185039D01*
X628634D01*
Y188504D01*
X628220Y188449D01*
X627369Y188097D01*
X626638Y187536D01*
X626077Y186804D01*
X625724Y185953D01*
X625603Y185039D01*
X625104Y185039D01*
X611279D01*
Y186890D01*
Y195372D01*
X611279Y195872D01*
X612414Y196021D01*
X613471Y196459D01*
X614379Y197156D01*
X615076Y198064D01*
X615514Y199121D01*
X615663Y200256D01*
X615514Y201391D01*
X615076Y202448D01*
X614379Y203356D01*
X613471Y204052D01*
X612414Y204490D01*
X611279Y204640D01*
X611279Y204640D01*
Y205872D01*
X611279Y205872D01*
X612414Y206021D01*
X613471Y206459D01*
X614379Y207156D01*
X615076Y208064D01*
X615514Y209121D01*
X615663Y210256D01*
X615514Y211390D01*
X615076Y212448D01*
X614379Y213356D01*
X613471Y214053D01*
X612414Y214490D01*
X611279Y214640D01*
X611279Y214640D01*
Y215872D01*
X611279Y215872D01*
X612414Y216021D01*
X613471Y216459D01*
X614379Y217156D01*
X615076Y218064D01*
X615514Y219121D01*
X615663Y220256D01*
X615514Y221391D01*
X615076Y222448D01*
X614379Y223356D01*
X613471Y224053D01*
X612414Y224490D01*
X611279Y224640D01*
X611279Y224640D01*
Y225872D01*
X611279Y225872D01*
X612414Y226021D01*
X613471Y226459D01*
X614379Y227156D01*
X615076Y228064D01*
X615514Y229121D01*
X615663Y230256D01*
X615514Y231391D01*
X615076Y232448D01*
X614379Y233356D01*
X613471Y234052D01*
X612414Y234490D01*
X611279Y234640D01*
X611279Y234640D01*
Y235872D01*
X611279Y235872D01*
X612414Y236021D01*
X613471Y236459D01*
X614379Y237156D01*
X615076Y238064D01*
X615514Y239121D01*
X615663Y240256D01*
X615514Y241390D01*
X615076Y242448D01*
X614379Y243356D01*
X613471Y244053D01*
X612414Y244490D01*
X611279Y244640D01*
X611279Y244640D01*
Y245872D01*
X611279Y245872D01*
X612414Y246021D01*
X613471Y246459D01*
X614379Y247156D01*
X615076Y248064D01*
X615514Y249121D01*
X615663Y250256D01*
X615514Y251391D01*
X615076Y252448D01*
X614379Y253356D01*
X613471Y254052D01*
X612414Y254490D01*
X611279Y254640D01*
X611279Y254640D01*
Y255872D01*
X611279Y255872D01*
X612414Y256021D01*
X613471Y256459D01*
X614379Y257156D01*
X615076Y258064D01*
X615514Y259121D01*
X615663Y260256D01*
X615514Y261390D01*
X615076Y262448D01*
X614379Y263356D01*
X613471Y264053D01*
X612414Y264490D01*
X611279Y264640D01*
X611279Y264640D01*
Y265872D01*
X611279Y265872D01*
X612414Y266021D01*
X613471Y266459D01*
X614379Y267156D01*
X615076Y268064D01*
X615514Y269121D01*
X615663Y270256D01*
X615514Y271391D01*
X615076Y272448D01*
X614379Y273356D01*
X613471Y274053D01*
X612414Y274490D01*
X611279Y274640D01*
X611279Y274640D01*
Y275872D01*
X611279Y275872D01*
X612414Y276021D01*
X613471Y276459D01*
X614379Y277156D01*
X615076Y278064D01*
X615514Y279121D01*
X615663Y280256D01*
X615514Y281391D01*
X615076Y282448D01*
X614379Y283356D01*
X613735Y283850D01*
X613905Y284350D01*
X680721Y284350D01*
D02*
G37*
G36*
X519730Y390256D02*
X519879Y389121D01*
X520318Y388064D01*
X521014Y387156D01*
X521922Y386459D01*
X522979Y386021D01*
X524114Y385872D01*
Y384640D01*
X522979Y384490D01*
X521922Y384052D01*
X521014Y383356D01*
X520318Y382448D01*
X519879Y381391D01*
X519730Y380256D01*
X519879Y379121D01*
X520318Y378064D01*
X521014Y377156D01*
X521922Y376459D01*
X522979Y376021D01*
X524114Y375872D01*
Y374640D01*
X522979Y374490D01*
X521922Y374053D01*
X521014Y373356D01*
X520318Y372448D01*
X519879Y371391D01*
X519730Y370256D01*
X519879Y369121D01*
X520318Y368064D01*
X521014Y367156D01*
X521922Y366459D01*
X522979Y366021D01*
X524114Y365872D01*
Y364640D01*
X522979Y364490D01*
X521922Y364053D01*
X521014Y363356D01*
X520318Y362448D01*
X519879Y361390D01*
X519730Y360256D01*
X519879Y359121D01*
X520318Y358064D01*
X521014Y357156D01*
X521922Y356459D01*
X522979Y356021D01*
X524114Y355872D01*
Y354640D01*
X522979Y354490D01*
X521922Y354052D01*
X521014Y353356D01*
X520318Y352448D01*
X519879Y351391D01*
X519730Y350256D01*
X519879Y349121D01*
X520318Y348064D01*
X521014Y347156D01*
X521922Y346459D01*
X522979Y346021D01*
X524114Y345872D01*
Y344640D01*
X522979Y344490D01*
X521922Y344053D01*
X521014Y343356D01*
X520318Y342448D01*
X519879Y341390D01*
X519730Y340256D01*
X519879Y339121D01*
X520318Y338064D01*
X521014Y337156D01*
X521922Y336459D01*
X522979Y336021D01*
X524114Y335872D01*
Y334640D01*
X522979Y334490D01*
X521922Y334052D01*
X521014Y333356D01*
X520318Y332448D01*
X519879Y331391D01*
X519730Y330256D01*
X519879Y329121D01*
X520318Y328064D01*
X521014Y327156D01*
X521922Y326459D01*
X522979Y326021D01*
X524114Y325872D01*
Y324640D01*
X522979Y324490D01*
X521922Y324053D01*
X521014Y323356D01*
X520318Y322448D01*
X519879Y321391D01*
X519730Y320256D01*
X519879Y319121D01*
X520318Y318064D01*
X521014Y317156D01*
X521922Y316459D01*
X522979Y316021D01*
X524114Y315872D01*
Y314640D01*
X522979Y314490D01*
X521922Y314053D01*
X521014Y313356D01*
X520318Y312448D01*
X519879Y311390D01*
X519730Y310256D01*
X519879Y309121D01*
X520318Y308064D01*
X521014Y307156D01*
X521922Y306459D01*
X522979Y306021D01*
X524114Y305872D01*
Y304640D01*
X522979Y304490D01*
X521922Y304052D01*
X521014Y303356D01*
X520318Y302448D01*
X519879Y301391D01*
X519730Y300256D01*
X519879Y299121D01*
X520318Y298064D01*
X521014Y297156D01*
X521922Y296459D01*
X522979Y296021D01*
X524114Y295872D01*
Y294640D01*
X522979Y294490D01*
X521922Y294053D01*
X521014Y293356D01*
X520318Y292448D01*
X519879Y291390D01*
X519730Y290256D01*
X519879Y289121D01*
X520318Y288064D01*
X521014Y287156D01*
X521922Y286459D01*
X522979Y286021D01*
X524114Y285872D01*
Y284640D01*
X522979Y284490D01*
X521922Y284052D01*
X521014Y283356D01*
X520318Y282448D01*
X519879Y281391D01*
X519796Y280756D01*
X524114D01*
Y279756D01*
X519796D01*
X519879Y279121D01*
X520318Y278064D01*
X521014Y277156D01*
X521922Y276459D01*
X522979Y276021D01*
X524114Y275872D01*
Y274640D01*
X522979Y274490D01*
X521922Y274053D01*
X521014Y273356D01*
X520318Y272448D01*
X519879Y271391D01*
X519730Y270256D01*
X519879Y269121D01*
X520318Y268064D01*
X521014Y267156D01*
X521922Y266459D01*
X522979Y266021D01*
X524114Y265872D01*
X525249Y266021D01*
X525568Y266154D01*
X525984Y265876D01*
Y264636D01*
X525568Y264358D01*
X525249Y264490D01*
X524114Y264640D01*
X522979Y264490D01*
X521922Y264053D01*
X521014Y263356D01*
X520318Y262448D01*
X519879Y261390D01*
X519730Y260256D01*
X519879Y259121D01*
X520318Y258064D01*
X521014Y257156D01*
X521922Y256459D01*
X522979Y256021D01*
X524114Y255872D01*
X525249Y256021D01*
X525568Y256154D01*
X525984Y255876D01*
Y254636D01*
X525568Y254358D01*
X525249Y254490D01*
X524114Y254640D01*
X522979Y254490D01*
X521922Y254052D01*
X521014Y253356D01*
X520318Y252448D01*
X519879Y251391D01*
X519730Y250256D01*
X519879Y249121D01*
X520318Y248064D01*
X521014Y247156D01*
X521922Y246459D01*
X522979Y246021D01*
X524114Y245872D01*
X525249Y246021D01*
X525568Y246154D01*
X525984Y245876D01*
Y244636D01*
X525568Y244358D01*
X525249Y244490D01*
X524114Y244640D01*
X522979Y244490D01*
X521922Y244053D01*
X521014Y243356D01*
X520318Y242448D01*
X519879Y241390D01*
X519730Y240256D01*
X519879Y239121D01*
X520318Y238064D01*
X521014Y237156D01*
X521922Y236459D01*
X522979Y236021D01*
X524114Y235872D01*
X525249Y236021D01*
X525568Y236154D01*
X525984Y235876D01*
Y234636D01*
X525568Y234358D01*
X525249Y234490D01*
X524114Y234640D01*
X522979Y234490D01*
X521922Y234052D01*
X521014Y233356D01*
X520318Y232448D01*
X519879Y231391D01*
X519730Y230256D01*
X519879Y229121D01*
X520318Y228064D01*
X521014Y227156D01*
X521922Y226459D01*
X522979Y226021D01*
X524114Y225872D01*
X525249Y226021D01*
X525568Y226154D01*
X525984Y225876D01*
Y224636D01*
X525568Y224358D01*
X525249Y224490D01*
X524114Y224640D01*
X522979Y224490D01*
X521922Y224053D01*
X521014Y223356D01*
X520318Y222448D01*
X519879Y221391D01*
X519730Y220256D01*
X519879Y219121D01*
X520318Y218064D01*
X521014Y217156D01*
X521922Y216459D01*
X522979Y216021D01*
X524114Y215872D01*
X525249Y216021D01*
X525568Y216154D01*
X525984Y215876D01*
Y214636D01*
X525568Y214358D01*
X525249Y214490D01*
X524114Y214640D01*
X522979Y214490D01*
X521922Y214053D01*
X521014Y213356D01*
X520318Y212448D01*
X519879Y211390D01*
X519730Y210256D01*
X519879Y209121D01*
X520318Y208064D01*
X521014Y207156D01*
X521922Y206459D01*
X522979Y206021D01*
X524114Y205872D01*
X525249Y206021D01*
X525568Y206154D01*
X525984Y205876D01*
Y204636D01*
X525568Y204358D01*
X525249Y204490D01*
X524114Y204640D01*
X522979Y204490D01*
X521922Y204052D01*
X521014Y203356D01*
X520318Y202448D01*
X519879Y201391D01*
X519730Y200256D01*
X519879Y199121D01*
X520318Y198064D01*
X521014Y197156D01*
X521922Y196459D01*
X522979Y196021D01*
X524114Y195872D01*
X525249Y196021D01*
X525568Y196154D01*
X525984Y195876D01*
Y185039D01*
X509829D01*
X509709Y185953D01*
X509356Y186804D01*
X508795Y187536D01*
X508064Y188097D01*
X507213Y188449D01*
X506799Y188504D01*
Y185039D01*
X505799D01*
Y188504D01*
X505385Y188449D01*
X504534Y188097D01*
X503803Y187536D01*
X503242Y186804D01*
X502889Y185953D01*
X502769Y185039D01*
X501955D01*
X501835Y185953D01*
X501482Y186804D01*
X500921Y187536D01*
X500190Y188097D01*
X499339Y188449D01*
X498925Y188504D01*
Y185039D01*
X497925D01*
Y188504D01*
X497511Y188449D01*
X496660Y188097D01*
X495929Y187536D01*
X495368Y186804D01*
X495015Y185953D01*
X494895Y185039D01*
X494081D01*
X493961Y185953D01*
X493608Y186804D01*
X493047Y187536D01*
X492316Y188097D01*
X491465Y188449D01*
X491051Y188504D01*
Y185039D01*
X490051D01*
Y188504D01*
X489637Y188449D01*
X488786Y188097D01*
X488055Y187536D01*
X487494Y186804D01*
X487141Y185953D01*
X487021Y185039D01*
X486207D01*
X486087Y185953D01*
X485734Y186804D01*
X485173Y187536D01*
X484442Y188097D01*
X483591Y188449D01*
X483177Y188504D01*
Y185039D01*
X482177D01*
Y188504D01*
X481763Y188449D01*
X480912Y188097D01*
X480181Y187536D01*
X479620Y186804D01*
X479267Y185953D01*
X479147Y185039D01*
X478333D01*
X478213Y185953D01*
X477860Y186804D01*
X477299Y187536D01*
X476568Y188097D01*
X475717Y188449D01*
X475303Y188504D01*
Y185039D01*
X474303D01*
Y188504D01*
X473889Y188449D01*
X473038Y188097D01*
X472307Y187536D01*
X471746Y186804D01*
X471393Y185953D01*
X471273Y185039D01*
X456949D01*
Y186890D01*
Y195372D01*
X456949Y195872D01*
X458083Y196021D01*
X459141Y196459D01*
X460049Y197156D01*
X460745Y198064D01*
X461183Y199121D01*
X461333Y200256D01*
X461183Y201391D01*
X460745Y202448D01*
X460049Y203356D01*
X459141Y204052D01*
X458083Y204490D01*
X456949Y204640D01*
X456949Y205140D01*
X456949Y205872D01*
X458083Y206021D01*
X459141Y206459D01*
X460049Y207156D01*
X460745Y208064D01*
X461183Y209121D01*
X461333Y210256D01*
X461183Y211390D01*
X460745Y212448D01*
X460049Y213356D01*
X459141Y214053D01*
X458083Y214490D01*
X456949Y214640D01*
X456949Y214640D01*
Y215872D01*
X456949Y215872D01*
X458083Y216021D01*
X459141Y216459D01*
X460049Y217156D01*
X460745Y218064D01*
X461183Y219121D01*
X461333Y220256D01*
X461183Y221391D01*
X460745Y222448D01*
X460049Y223356D01*
X459141Y224053D01*
X458083Y224490D01*
X456949Y224640D01*
X456949Y224640D01*
Y225872D01*
X456949Y225872D01*
X458083Y226021D01*
X459141Y226459D01*
X460049Y227156D01*
X460745Y228064D01*
X461183Y229121D01*
X461333Y230256D01*
X461183Y231391D01*
X460745Y232448D01*
X460049Y233356D01*
X459141Y234052D01*
X458083Y234490D01*
X456949Y234640D01*
X456949Y234640D01*
Y235872D01*
X456949Y235872D01*
X458083Y236021D01*
X459141Y236459D01*
X460049Y237156D01*
X460745Y238064D01*
X461183Y239121D01*
X461333Y240256D01*
X461183Y241390D01*
X460745Y242448D01*
X460049Y243356D01*
X459141Y244053D01*
X458083Y244490D01*
X456949Y244640D01*
X456949Y244640D01*
Y245872D01*
X456949Y245872D01*
X458083Y246021D01*
X459141Y246459D01*
X460049Y247156D01*
X460745Y248064D01*
X461183Y249121D01*
X461333Y250256D01*
X461183Y251391D01*
X460745Y252448D01*
X460049Y253356D01*
X459141Y254052D01*
X458083Y254490D01*
X456949Y254640D01*
X456949Y254640D01*
Y255872D01*
X456949Y255872D01*
X458083Y256021D01*
X459141Y256459D01*
X460049Y257156D01*
X460745Y258064D01*
X461183Y259121D01*
X461333Y260256D01*
X461183Y261390D01*
X460745Y262448D01*
X460049Y263356D01*
X459141Y264053D01*
X458083Y264490D01*
X456949Y264640D01*
X456949Y264640D01*
Y265872D01*
X456949Y265872D01*
X458083Y266021D01*
X459141Y266459D01*
X460049Y267156D01*
X460745Y268064D01*
X461183Y269121D01*
X461333Y270256D01*
X461183Y271391D01*
X461043Y271730D01*
X461321Y272146D01*
X481874D01*
Y271071D01*
X487205D01*
X492535D01*
Y272146D01*
X498917D01*
Y390256D01*
X519730D01*
X519730Y390256D01*
D02*
G37*
G36*
X211069D02*
X211218Y389121D01*
X211656Y388064D01*
X212353Y387156D01*
X213261Y386459D01*
X214318Y386021D01*
X215453Y385872D01*
Y384640D01*
X214318Y384490D01*
X213261Y384052D01*
X212353Y383356D01*
X211656Y382448D01*
X211218Y381391D01*
X211069Y380256D01*
X211218Y379121D01*
X211656Y378064D01*
X212353Y377156D01*
X213261Y376459D01*
X214318Y376021D01*
X215453Y375872D01*
Y374640D01*
X214318Y374490D01*
X213261Y374053D01*
X212353Y373356D01*
X211656Y372448D01*
X211218Y371391D01*
X211069Y370256D01*
X211218Y369121D01*
X211656Y368064D01*
X212353Y367156D01*
X213261Y366459D01*
X214318Y366021D01*
X215453Y365872D01*
Y364640D01*
X214318Y364490D01*
X213261Y364053D01*
X212353Y363356D01*
X211656Y362448D01*
X211218Y361390D01*
X211069Y360256D01*
X211218Y359121D01*
X211656Y358064D01*
X212353Y357156D01*
X213261Y356459D01*
X214318Y356021D01*
X215453Y355872D01*
Y354640D01*
X214318Y354490D01*
X213261Y354052D01*
X212353Y353356D01*
X211656Y352448D01*
X211218Y351391D01*
X211069Y350256D01*
X211218Y349121D01*
X211656Y348064D01*
X212353Y347156D01*
X213261Y346459D01*
X214318Y346021D01*
X215453Y345872D01*
Y344640D01*
X214318Y344490D01*
X213261Y344053D01*
X212353Y343356D01*
X211656Y342448D01*
X211218Y341390D01*
X211069Y340256D01*
X211218Y339121D01*
X211656Y338064D01*
X212353Y337156D01*
X213261Y336459D01*
X214318Y336021D01*
X215453Y335872D01*
Y334640D01*
X214318Y334490D01*
X213261Y334052D01*
X212353Y333356D01*
X211656Y332448D01*
X211218Y331391D01*
X211069Y330256D01*
X211218Y329121D01*
X211656Y328064D01*
X212353Y327156D01*
X213261Y326459D01*
X214318Y326021D01*
X215453Y325872D01*
Y324640D01*
X214318Y324490D01*
X213261Y324053D01*
X212353Y323356D01*
X211656Y322448D01*
X211218Y321391D01*
X211069Y320256D01*
X211218Y319121D01*
X211656Y318064D01*
X212353Y317156D01*
X213261Y316459D01*
X214318Y316021D01*
X215453Y315872D01*
Y314640D01*
X214318Y314490D01*
X213261Y314053D01*
X212353Y313356D01*
X211656Y312448D01*
X211218Y311390D01*
X211069Y310256D01*
X211218Y309121D01*
X211656Y308064D01*
X212353Y307156D01*
X213261Y306459D01*
X214318Y306021D01*
X215453Y305872D01*
Y304640D01*
X214318Y304490D01*
X213261Y304052D01*
X212353Y303356D01*
X211656Y302448D01*
X211218Y301391D01*
X211069Y300256D01*
X211218Y299121D01*
X211656Y298064D01*
X212353Y297156D01*
X213261Y296459D01*
X214318Y296021D01*
X215453Y295872D01*
Y294640D01*
X214318Y294490D01*
X213261Y294053D01*
X212353Y293356D01*
X211656Y292448D01*
X211218Y291390D01*
X211069Y290256D01*
X211218Y289121D01*
X211656Y288064D01*
X212353Y287156D01*
X213261Y286459D01*
X214318Y286021D01*
X215453Y285872D01*
Y284640D01*
X214318Y284490D01*
X213261Y284052D01*
X212998Y283850D01*
X212353Y283356D01*
X211656Y282448D01*
X211218Y281391D01*
X211135Y280756D01*
X215453D01*
Y279756D01*
X211135D01*
X211218Y279121D01*
X211656Y278064D01*
X212353Y277156D01*
X213261Y276459D01*
X214318Y276021D01*
X215453Y275872D01*
X215551Y275786D01*
Y274726D01*
X215453Y274640D01*
X214319Y274490D01*
X214318Y274490D01*
X213261Y274053D01*
X212353Y273356D01*
X211656Y272448D01*
X211218Y271391D01*
X211069Y270256D01*
X211218Y269121D01*
X211656Y268064D01*
X212353Y267156D01*
X213261Y266459D01*
X214318Y266021D01*
X215453Y265872D01*
X215551Y265786D01*
Y264726D01*
X215453Y264640D01*
X214318Y264490D01*
X213261Y264053D01*
X212353Y263356D01*
X211656Y262448D01*
X211218Y261390D01*
X211069Y260256D01*
X211218Y259121D01*
X211656Y258064D01*
X212353Y257156D01*
X213261Y256459D01*
X214318Y256021D01*
X215453Y255872D01*
X215551Y255786D01*
Y254726D01*
X215453Y254640D01*
X214318Y254490D01*
X213261Y254052D01*
X212353Y253356D01*
X211656Y252448D01*
X211218Y251391D01*
X211069Y250256D01*
X211218Y249121D01*
X211656Y248064D01*
X212353Y247156D01*
X213261Y246459D01*
X214318Y246021D01*
X215453Y245872D01*
X215551Y245786D01*
Y244726D01*
X215453Y244640D01*
X214318Y244490D01*
X213261Y244053D01*
X212353Y243356D01*
X211656Y242448D01*
X211218Y241390D01*
X211069Y240256D01*
X211218Y239121D01*
X211656Y238064D01*
X212353Y237156D01*
X213261Y236459D01*
X214318Y236021D01*
X215453Y235872D01*
X215551Y235786D01*
Y234726D01*
X215453Y234640D01*
X214318Y234490D01*
X213261Y234052D01*
X212353Y233356D01*
X211656Y232448D01*
X211218Y231391D01*
X211069Y230256D01*
X211218Y229121D01*
X211656Y228064D01*
X212353Y227156D01*
X213261Y226459D01*
X214318Y226021D01*
X215453Y225872D01*
X215551Y225786D01*
Y224726D01*
X215453Y224640D01*
X214318Y224490D01*
X213261Y224053D01*
X212353Y223356D01*
X211656Y222448D01*
X211218Y221391D01*
X211069Y220256D01*
X211218Y219121D01*
X211656Y218064D01*
X212353Y217156D01*
X213261Y216459D01*
X214318Y216021D01*
X215453Y215872D01*
X215551Y215786D01*
Y214726D01*
X215453Y214640D01*
X214318Y214490D01*
X213261Y214053D01*
X212353Y213356D01*
X211656Y212448D01*
X211218Y211390D01*
X211069Y210256D01*
X211218Y209121D01*
X211656Y208064D01*
X212353Y207156D01*
X213261Y206459D01*
X214318Y206021D01*
X215453Y205872D01*
X215551Y205786D01*
Y204726D01*
X215453Y204640D01*
X214318Y204490D01*
X213261Y204052D01*
X212353Y203356D01*
X211656Y202448D01*
X211218Y201391D01*
X211069Y200256D01*
X211218Y199121D01*
X211656Y198064D01*
X212353Y197156D01*
X213261Y196459D01*
X214318Y196021D01*
X215453Y195872D01*
X215551Y195786D01*
Y185039D01*
X196306D01*
X196306Y185039D01*
X196186Y185953D01*
X195833Y186804D01*
X195272Y187536D01*
X194541Y188097D01*
X193689Y188449D01*
X193276Y188504D01*
Y185039D01*
X192276D01*
Y188504D01*
X191862Y188449D01*
X191010Y188097D01*
X190279Y187536D01*
X189718Y186804D01*
X189366Y185953D01*
X189245Y185039D01*
X189245Y185039D01*
X188432D01*
X188432Y185039D01*
X188311Y185953D01*
X187959Y186804D01*
X187398Y187536D01*
X186667Y188097D01*
X185815Y188449D01*
X185401Y188504D01*
Y185039D01*
X184402D01*
Y188504D01*
X183988Y188449D01*
X183136Y188097D01*
X182405Y187536D01*
X181844Y186804D01*
X181492Y185953D01*
X181371Y185039D01*
X181371Y185039D01*
X180558D01*
X180558Y185039D01*
X180437Y185953D01*
X180085Y186804D01*
X179524Y187536D01*
X178793Y188097D01*
X177941Y188449D01*
X177527Y188504D01*
Y185039D01*
X176528D01*
Y188504D01*
X176114Y188449D01*
X175262Y188097D01*
X174531Y187536D01*
X173970Y186804D01*
X173618Y185953D01*
X173497Y185039D01*
X173090Y185039D01*
X172684Y185039D01*
X172563Y185953D01*
X172211Y186804D01*
X171650Y187536D01*
X170919Y188097D01*
X170067Y188449D01*
X169653Y188504D01*
Y185039D01*
X168654D01*
Y188504D01*
X168240Y188449D01*
X167388Y188097D01*
X166657Y187536D01*
X166096Y186804D01*
X165744Y185953D01*
X165623Y185039D01*
X165216Y185039D01*
X164810Y185039D01*
X164689Y185953D01*
X164337Y186804D01*
X163776Y187536D01*
X163045Y188097D01*
X162193Y188449D01*
X161779Y188504D01*
Y185039D01*
X160780D01*
Y188504D01*
X160366Y188449D01*
X159514Y188097D01*
X158783Y187536D01*
X158222Y186804D01*
X157870Y185953D01*
X157749Y185039D01*
X157249Y185039D01*
X143425D01*
Y186890D01*
Y195372D01*
X143425Y195872D01*
X144560Y196021D01*
X145617Y196459D01*
X146525Y197156D01*
X147222Y198064D01*
X147660Y199121D01*
X147809Y200256D01*
X147660Y201391D01*
X147222Y202448D01*
X146525Y203356D01*
X145617Y204052D01*
X144560Y204490D01*
X143425Y204640D01*
X143425Y204640D01*
Y205872D01*
X143425Y205872D01*
X144560Y206021D01*
X145617Y206459D01*
X146525Y207156D01*
X147222Y208064D01*
X147660Y209121D01*
X147809Y210256D01*
X147660Y211391D01*
X147222Y212448D01*
X146525Y213356D01*
X145617Y214053D01*
X144560Y214491D01*
X143425Y214640D01*
X143425Y214640D01*
Y215872D01*
X143425Y215872D01*
X144560Y216021D01*
X145617Y216459D01*
X146525Y217156D01*
X147222Y218064D01*
X147660Y219121D01*
X147809Y220256D01*
X147660Y221391D01*
X147222Y222448D01*
X146525Y223356D01*
X145617Y224053D01*
X144560Y224490D01*
X143425Y224640D01*
X143425Y224640D01*
Y225872D01*
X143425Y225872D01*
X144560Y226021D01*
X145617Y226459D01*
X146525Y227156D01*
X147222Y228064D01*
X147660Y229121D01*
X147809Y230256D01*
X147660Y231391D01*
X147222Y232448D01*
X146525Y233356D01*
X145617Y234052D01*
X144560Y234490D01*
X143425Y234640D01*
X143425Y234640D01*
Y235872D01*
X143425Y235872D01*
X144560Y236021D01*
X145617Y236459D01*
X146525Y237156D01*
X147222Y238064D01*
X147660Y239121D01*
X147809Y240256D01*
X147660Y241391D01*
X147222Y242448D01*
X146525Y243356D01*
X145617Y244053D01*
X144560Y244491D01*
X143425Y244640D01*
X143425Y244640D01*
Y245872D01*
X143425Y245872D01*
X144560Y246021D01*
X145617Y246459D01*
X146525Y247156D01*
X147222Y248064D01*
X147660Y249121D01*
X147809Y250256D01*
X147660Y251391D01*
X147222Y252448D01*
X146525Y253356D01*
X145617Y254052D01*
X144560Y254490D01*
X143425Y254640D01*
X143425Y254640D01*
Y255872D01*
X143425Y255872D01*
X144560Y256021D01*
X145617Y256459D01*
X146525Y257156D01*
X147222Y258064D01*
X147660Y259121D01*
X147809Y260256D01*
X147660Y261391D01*
X147222Y262448D01*
X146525Y263356D01*
X145617Y264053D01*
X144560Y264491D01*
X143425Y264640D01*
X143425Y264640D01*
Y265872D01*
X143425Y265872D01*
X144560Y266021D01*
X145617Y266459D01*
X146525Y267156D01*
X147222Y268064D01*
X147660Y269121D01*
X147809Y270256D01*
X147660Y271391D01*
X147222Y272448D01*
X146525Y273356D01*
X145617Y274053D01*
X144560Y274490D01*
X143425Y274640D01*
X143425Y274640D01*
Y275872D01*
X143425Y275872D01*
X144560Y276021D01*
X145617Y276459D01*
X146525Y277156D01*
X147222Y278064D01*
X147660Y279121D01*
X147809Y280256D01*
X147660Y281391D01*
X147222Y282448D01*
X146525Y283356D01*
X145881Y283850D01*
X146050Y284350D01*
X161122D01*
Y390256D01*
X211069D01*
X211069Y390256D01*
D02*
G37*
G36*
X442565D02*
X442714Y389121D01*
X443152Y388064D01*
X443849Y387156D01*
X444757Y386459D01*
X445814Y386021D01*
X446949Y385872D01*
Y384640D01*
X445814Y384490D01*
X444757Y384052D01*
X443849Y383356D01*
X443152Y382448D01*
X442714Y381391D01*
X442565Y380256D01*
X442714Y379121D01*
X443152Y378064D01*
X443849Y377156D01*
X444757Y376459D01*
X445814Y376021D01*
X446949Y375872D01*
Y374640D01*
X445814Y374490D01*
X444757Y374053D01*
X443849Y373356D01*
X443152Y372448D01*
X442714Y371391D01*
X442565Y370256D01*
X442714Y369121D01*
X443152Y368064D01*
X443849Y367156D01*
X444757Y366459D01*
X445814Y366021D01*
X446949Y365872D01*
Y364640D01*
X445814Y364490D01*
X444757Y364053D01*
X443849Y363356D01*
X443152Y362448D01*
X442714Y361390D01*
X442565Y360256D01*
X442714Y359121D01*
X443152Y358064D01*
X443849Y357156D01*
X444757Y356459D01*
X445814Y356021D01*
X446949Y355872D01*
Y354640D01*
X445814Y354490D01*
X444757Y354052D01*
X443849Y353356D01*
X443152Y352448D01*
X442714Y351391D01*
X442565Y350256D01*
X442714Y349121D01*
X443152Y348064D01*
X443849Y347156D01*
X444757Y346459D01*
X445814Y346021D01*
X446949Y345872D01*
Y344640D01*
X445814Y344490D01*
X444757Y344053D01*
X443849Y343356D01*
X443152Y342448D01*
X442714Y341390D01*
X442565Y340256D01*
X442714Y339121D01*
X443152Y338064D01*
X443849Y337156D01*
X444757Y336459D01*
X445814Y336021D01*
X446949Y335872D01*
Y334640D01*
X445814Y334490D01*
X444757Y334052D01*
X443849Y333356D01*
X443152Y332448D01*
X442714Y331391D01*
X442565Y330256D01*
X442714Y329121D01*
X443152Y328064D01*
X443849Y327156D01*
X444757Y326459D01*
X445814Y326021D01*
X446949Y325872D01*
Y324640D01*
X445814Y324490D01*
X444757Y324053D01*
X443849Y323356D01*
X443152Y322448D01*
X442714Y321391D01*
X442565Y320256D01*
X442714Y319121D01*
X443152Y318064D01*
X443849Y317156D01*
X444757Y316459D01*
X445814Y316021D01*
X446949Y315872D01*
Y314640D01*
X445814Y314490D01*
X444757Y314053D01*
X443849Y313356D01*
X443152Y312448D01*
X442714Y311390D01*
X442565Y310256D01*
X442714Y309121D01*
X443152Y308064D01*
X443849Y307156D01*
X444757Y306459D01*
X445814Y306021D01*
X446949Y305872D01*
Y304640D01*
X445814Y304490D01*
X444757Y304052D01*
X443849Y303356D01*
X443152Y302448D01*
X442714Y301391D01*
X442565Y300256D01*
X442714Y299121D01*
X443152Y298064D01*
X443849Y297156D01*
X444757Y296459D01*
X445814Y296021D01*
X446949Y295872D01*
Y294640D01*
X445814Y294490D01*
X444757Y294053D01*
X443849Y293356D01*
X443152Y292448D01*
X442714Y291390D01*
X442565Y290256D01*
X442714Y289121D01*
X443152Y288064D01*
X443849Y287156D01*
X444757Y286459D01*
X445814Y286021D01*
X446949Y285872D01*
Y284640D01*
X445814Y284490D01*
X444757Y284052D01*
X443849Y283356D01*
X443152Y282448D01*
X442714Y281391D01*
X442631Y280756D01*
X446949D01*
Y279756D01*
X442631D01*
X442714Y279121D01*
X443152Y278064D01*
X443849Y277156D01*
X444757Y276459D01*
X445814Y276021D01*
X446949Y275872D01*
Y274640D01*
X445814Y274490D01*
X444757Y274053D01*
X443849Y273356D01*
X443152Y272448D01*
X442714Y271391D01*
X442565Y270256D01*
X442714Y269121D01*
X443152Y268064D01*
X443849Y267156D01*
X444757Y266459D01*
X445814Y266021D01*
X446949Y265872D01*
X448083Y266021D01*
X448403Y266154D01*
X448819Y265876D01*
Y264636D01*
X448403Y264358D01*
X448083Y264490D01*
X446949Y264640D01*
X445814Y264490D01*
X444757Y264053D01*
X443849Y263356D01*
X443152Y262448D01*
X442714Y261390D01*
X442565Y260256D01*
X442714Y259121D01*
X443152Y258064D01*
X443849Y257156D01*
X444757Y256459D01*
X445814Y256021D01*
X446949Y255872D01*
X448083Y256021D01*
X448403Y256154D01*
X448819Y255876D01*
Y254636D01*
X448403Y254358D01*
X448083Y254490D01*
X446949Y254640D01*
X445814Y254490D01*
X444757Y254052D01*
X443849Y253356D01*
X443152Y252448D01*
X442714Y251391D01*
X442565Y250256D01*
X442714Y249121D01*
X443152Y248064D01*
X443849Y247156D01*
X444757Y246459D01*
X445814Y246021D01*
X446949Y245872D01*
X448083Y246021D01*
X448403Y246154D01*
X448819Y245876D01*
Y244636D01*
X448403Y244358D01*
X448083Y244490D01*
X446949Y244640D01*
X445814Y244490D01*
X444757Y244053D01*
X443849Y243356D01*
X443152Y242448D01*
X442714Y241390D01*
X442565Y240256D01*
X442714Y239121D01*
X443152Y238064D01*
X443849Y237156D01*
X444757Y236459D01*
X445814Y236021D01*
X446949Y235872D01*
X448083Y236021D01*
X448403Y236154D01*
X448819Y235876D01*
Y234636D01*
X448403Y234358D01*
X448083Y234490D01*
X446949Y234640D01*
X445814Y234490D01*
X444757Y234052D01*
X443849Y233356D01*
X443152Y232448D01*
X442714Y231391D01*
X442565Y230256D01*
X442714Y229121D01*
X443152Y228064D01*
X443849Y227156D01*
X444757Y226459D01*
X445814Y226021D01*
X446949Y225872D01*
X448083Y226021D01*
X448403Y226154D01*
X448819Y225876D01*
Y224636D01*
X448403Y224358D01*
X448083Y224490D01*
X446949Y224640D01*
X445814Y224490D01*
X444757Y224053D01*
X443849Y223356D01*
X443152Y222448D01*
X442714Y221391D01*
X442565Y220256D01*
X442714Y219121D01*
X443152Y218064D01*
X443849Y217156D01*
X444757Y216459D01*
X445814Y216021D01*
X446949Y215872D01*
X448083Y216021D01*
X448403Y216154D01*
X448819Y215876D01*
Y214636D01*
X448403Y214358D01*
X448083Y214490D01*
X446949Y214640D01*
X445814Y214490D01*
X444757Y214053D01*
X443849Y213356D01*
X443152Y212448D01*
X442714Y211390D01*
X442565Y210256D01*
X442714Y209121D01*
X443152Y208064D01*
X443849Y207156D01*
X444757Y206459D01*
X445814Y206021D01*
X446949Y205872D01*
X448083Y206021D01*
X448403Y206154D01*
X448819Y205876D01*
Y204636D01*
X448403Y204358D01*
X448083Y204490D01*
X446949Y204640D01*
X445814Y204490D01*
X444757Y204052D01*
X443849Y203356D01*
X443152Y202448D01*
X442714Y201391D01*
X442565Y200256D01*
X442714Y199121D01*
X443152Y198064D01*
X443849Y197156D01*
X444757Y196459D01*
X445814Y196021D01*
X446949Y195872D01*
X448083Y196021D01*
X448403Y196154D01*
X448819Y195876D01*
Y185039D01*
X432664D01*
X432544Y185953D01*
X432191Y186804D01*
X431630Y187536D01*
X430899Y188097D01*
X430048Y188449D01*
X429634Y188504D01*
Y185039D01*
X428634D01*
Y188504D01*
X428220Y188449D01*
X427369Y188097D01*
X426638Y187536D01*
X426077Y186804D01*
X425724Y185953D01*
X425604Y185039D01*
X424790D01*
X424670Y185953D01*
X424317Y186804D01*
X423756Y187536D01*
X423025Y188097D01*
X422174Y188449D01*
X421760Y188504D01*
Y185039D01*
X420760D01*
Y188504D01*
X420346Y188449D01*
X419495Y188097D01*
X418764Y187536D01*
X418203Y186804D01*
X417850Y185953D01*
X417730Y185039D01*
X416916D01*
X416796Y185953D01*
X416443Y186804D01*
X415882Y187536D01*
X415151Y188097D01*
X414299Y188449D01*
X413886Y188504D01*
Y185039D01*
X412886D01*
Y188504D01*
X412472Y188449D01*
X411621Y188097D01*
X410890Y187536D01*
X410328Y186804D01*
X409976Y185953D01*
X409856Y185039D01*
X409042D01*
X408922Y185953D01*
X408569Y186804D01*
X408008Y187536D01*
X407277Y188097D01*
X406426Y188449D01*
X406012Y188504D01*
Y185039D01*
X405012D01*
Y188504D01*
X404598Y188449D01*
X403747Y188097D01*
X403016Y187536D01*
X402455Y186804D01*
X402102Y185953D01*
X401982Y185039D01*
X401168D01*
X401048Y185953D01*
X400695Y186804D01*
X400134Y187536D01*
X399403Y188097D01*
X398551Y188449D01*
X398138Y188504D01*
Y185039D01*
X397138D01*
Y188504D01*
X396724Y188449D01*
X395873Y188097D01*
X395142Y187536D01*
X394581Y186804D01*
X394228Y185953D01*
X394108Y185039D01*
X379784D01*
Y186890D01*
Y195372D01*
X379784Y195872D01*
X380918Y196021D01*
X381976Y196459D01*
X382883Y197156D01*
X383580Y198064D01*
X384018Y199121D01*
X384167Y200256D01*
X384018Y201391D01*
X383580Y202448D01*
X382883Y203356D01*
X381976Y204052D01*
X380918Y204490D01*
X379784Y204640D01*
X379784Y205140D01*
X379784Y205872D01*
X380918Y206021D01*
X381976Y206459D01*
X382883Y207156D01*
X383580Y208064D01*
X384018Y209121D01*
X384167Y210256D01*
X384018Y211390D01*
X383580Y212448D01*
X382883Y213356D01*
X381976Y214053D01*
X380918Y214490D01*
X379784Y214640D01*
X379784Y214640D01*
Y215872D01*
X379784Y215872D01*
X380918Y216021D01*
X381976Y216459D01*
X382883Y217156D01*
X383580Y218064D01*
X384018Y219121D01*
X384167Y220256D01*
X384018Y221391D01*
X383580Y222448D01*
X382883Y223356D01*
X381976Y224053D01*
X380918Y224490D01*
X379784Y224640D01*
X379784Y224640D01*
Y225872D01*
X379784Y225872D01*
X380918Y226021D01*
X381976Y226459D01*
X382883Y227156D01*
X383580Y228064D01*
X384018Y229121D01*
X384167Y230256D01*
X384018Y231391D01*
X383580Y232448D01*
X382883Y233356D01*
X381976Y234052D01*
X380918Y234490D01*
X379784Y234640D01*
X379784Y234640D01*
Y235872D01*
X379784Y235872D01*
X380918Y236021D01*
X381976Y236459D01*
X382883Y237156D01*
X383580Y238064D01*
X384018Y239121D01*
X384167Y240256D01*
X384018Y241390D01*
X383580Y242448D01*
X382883Y243356D01*
X381976Y244053D01*
X380918Y244490D01*
X379784Y244640D01*
X379784Y244640D01*
Y245872D01*
X379784Y245872D01*
X380918Y246021D01*
X381976Y246459D01*
X382883Y247156D01*
X383580Y248064D01*
X384018Y249121D01*
X384167Y250256D01*
X384018Y251391D01*
X383580Y252448D01*
X382883Y253356D01*
X381976Y254052D01*
X380918Y254490D01*
X379784Y254640D01*
X379783Y254640D01*
Y255872D01*
X379784Y255872D01*
X380918Y256021D01*
X381976Y256459D01*
X382883Y257156D01*
X383580Y258064D01*
X384018Y259121D01*
X384167Y260256D01*
X384018Y261390D01*
X383580Y262448D01*
X382883Y263356D01*
X381976Y264053D01*
X380918Y264490D01*
X379784Y264640D01*
X379783Y264640D01*
Y265872D01*
X379784Y265872D01*
X380918Y266021D01*
X381976Y266459D01*
X382883Y267156D01*
X383580Y268064D01*
X384018Y269121D01*
X384167Y270256D01*
X384018Y271391D01*
X383877Y271730D01*
X384155Y272146D01*
X404709D01*
Y271071D01*
X410039D01*
X415370D01*
Y272146D01*
X421752D01*
Y390256D01*
X442565D01*
X442565Y390256D01*
D02*
G37*
G36*
X596896D02*
X597045Y389121D01*
X597483Y388064D01*
X598179Y387156D01*
X599087Y386459D01*
X600145Y386021D01*
X601279Y385872D01*
Y384640D01*
X600145Y384490D01*
X599087Y384052D01*
X598179Y383356D01*
X597483Y382448D01*
X597045Y381391D01*
X596896Y380256D01*
X597045Y379121D01*
X597483Y378064D01*
X598179Y377156D01*
X599087Y376459D01*
X600145Y376021D01*
X601279Y375872D01*
Y374640D01*
X600145Y374490D01*
X599087Y374053D01*
X598179Y373356D01*
X597483Y372448D01*
X597045Y371391D01*
X596896Y370256D01*
X597045Y369121D01*
X597483Y368064D01*
X598179Y367156D01*
X599087Y366459D01*
X600145Y366021D01*
X601279Y365872D01*
Y364640D01*
X600145Y364490D01*
X599087Y364053D01*
X598179Y363356D01*
X597483Y362448D01*
X597045Y361390D01*
X596896Y360256D01*
X597045Y359121D01*
X597483Y358064D01*
X598179Y357156D01*
X599087Y356459D01*
X600145Y356021D01*
X601279Y355872D01*
Y354640D01*
X600145Y354490D01*
X599087Y354052D01*
X598179Y353356D01*
X597483Y352448D01*
X597045Y351391D01*
X596896Y350256D01*
X597045Y349121D01*
X597483Y348064D01*
X598179Y347156D01*
X599087Y346459D01*
X600145Y346021D01*
X601279Y345872D01*
Y344640D01*
X600145Y344490D01*
X599087Y344053D01*
X598179Y343356D01*
X597483Y342448D01*
X597045Y341390D01*
X596896Y340256D01*
X597045Y339121D01*
X597483Y338064D01*
X598179Y337156D01*
X599087Y336459D01*
X600145Y336021D01*
X601279Y335872D01*
Y334640D01*
X600145Y334490D01*
X599087Y334052D01*
X598179Y333356D01*
X597483Y332448D01*
X597045Y331391D01*
X596896Y330256D01*
X597045Y329121D01*
X597483Y328064D01*
X598179Y327156D01*
X599087Y326459D01*
X600145Y326021D01*
X601279Y325872D01*
Y324640D01*
X600145Y324490D01*
X599087Y324053D01*
X598179Y323356D01*
X597483Y322448D01*
X597045Y321391D01*
X596896Y320256D01*
X597045Y319121D01*
X597483Y318064D01*
X598179Y317156D01*
X599087Y316459D01*
X600145Y316021D01*
X601279Y315872D01*
Y314640D01*
X600145Y314490D01*
X599087Y314053D01*
X598179Y313356D01*
X597483Y312448D01*
X597045Y311390D01*
X596896Y310256D01*
X597045Y309121D01*
X597483Y308064D01*
X598179Y307156D01*
X599087Y306459D01*
X600145Y306021D01*
X601279Y305872D01*
Y304640D01*
X600145Y304490D01*
X599087Y304052D01*
X598179Y303356D01*
X597483Y302448D01*
X597045Y301391D01*
X596896Y300256D01*
X597045Y299121D01*
X597483Y298064D01*
X598179Y297156D01*
X599087Y296459D01*
X600145Y296021D01*
X601279Y295872D01*
Y294640D01*
X600145Y294490D01*
X599087Y294053D01*
X598179Y293356D01*
X597483Y292448D01*
X597045Y291390D01*
X596896Y290256D01*
X597045Y289121D01*
X597483Y288064D01*
X598179Y287156D01*
X599087Y286459D01*
X600145Y286021D01*
X601279Y285872D01*
Y284640D01*
X600145Y284490D01*
X599087Y284052D01*
X598179Y283356D01*
X597483Y282448D01*
X597045Y281391D01*
X596961Y280756D01*
X601279D01*
Y279756D01*
X596961D01*
X597045Y279121D01*
X597483Y278064D01*
X598179Y277156D01*
X599087Y276459D01*
X600145Y276021D01*
X601279Y275872D01*
Y274640D01*
X600145Y274490D01*
X599087Y274053D01*
X598179Y273356D01*
X597483Y272448D01*
X597045Y271391D01*
X596896Y270256D01*
X597045Y269121D01*
X597483Y268064D01*
X598179Y267156D01*
X599087Y266459D01*
X600145Y266021D01*
X601279Y265872D01*
X602414Y266021D01*
X602734Y266154D01*
X603150Y265876D01*
Y264636D01*
X602734Y264358D01*
X602414Y264490D01*
X601279Y264640D01*
X600145Y264490D01*
X599087Y264053D01*
X598179Y263356D01*
X597483Y262448D01*
X597045Y261390D01*
X596896Y260256D01*
X597045Y259121D01*
X597483Y258064D01*
X598179Y257156D01*
X599087Y256459D01*
X600145Y256021D01*
X601279Y255872D01*
X602414Y256021D01*
X602734Y256154D01*
X603150Y255876D01*
Y254636D01*
X602734Y254358D01*
X602414Y254490D01*
X601279Y254640D01*
X600145Y254490D01*
X599087Y254052D01*
X598179Y253356D01*
X597483Y252448D01*
X597045Y251391D01*
X596896Y250256D01*
X597045Y249121D01*
X597483Y248064D01*
X598179Y247156D01*
X599087Y246459D01*
X600145Y246021D01*
X601279Y245872D01*
X602414Y246021D01*
X602734Y246154D01*
X603150Y245876D01*
Y244636D01*
X602734Y244358D01*
X602414Y244490D01*
X601279Y244640D01*
X600145Y244490D01*
X599087Y244053D01*
X598179Y243356D01*
X597483Y242448D01*
X597045Y241390D01*
X596896Y240256D01*
X597045Y239121D01*
X597483Y238064D01*
X598179Y237156D01*
X599087Y236459D01*
X600145Y236021D01*
X601279Y235872D01*
X602414Y236021D01*
X602734Y236154D01*
X603150Y235876D01*
Y234636D01*
X602734Y234358D01*
X602414Y234490D01*
X601279Y234640D01*
X600145Y234490D01*
X599087Y234052D01*
X598179Y233356D01*
X597483Y232448D01*
X597045Y231391D01*
X596896Y230256D01*
X597045Y229121D01*
X597483Y228064D01*
X598179Y227156D01*
X599087Y226459D01*
X600145Y226021D01*
X601279Y225872D01*
X602414Y226021D01*
X602734Y226154D01*
X603150Y225876D01*
Y224636D01*
X602734Y224358D01*
X602414Y224490D01*
X601279Y224640D01*
X600145Y224490D01*
X599087Y224053D01*
X598179Y223356D01*
X597483Y222448D01*
X597045Y221391D01*
X596896Y220256D01*
X597045Y219121D01*
X597483Y218064D01*
X598179Y217156D01*
X599087Y216459D01*
X600145Y216021D01*
X601279Y215872D01*
X602414Y216021D01*
X602734Y216154D01*
X603150Y215876D01*
Y214636D01*
X602734Y214358D01*
X602414Y214490D01*
X601279Y214640D01*
X600145Y214490D01*
X599087Y214053D01*
X598179Y213356D01*
X597483Y212448D01*
X597045Y211390D01*
X596896Y210256D01*
X597045Y209121D01*
X597483Y208064D01*
X598179Y207156D01*
X599087Y206459D01*
X600145Y206021D01*
X601279Y205872D01*
X602414Y206021D01*
X602734Y206154D01*
X603150Y205876D01*
Y204636D01*
X602734Y204358D01*
X602414Y204490D01*
X601279Y204640D01*
X600145Y204490D01*
X599087Y204052D01*
X598179Y203356D01*
X597483Y202448D01*
X597045Y201391D01*
X596896Y200256D01*
X597045Y199121D01*
X597483Y198064D01*
X598179Y197156D01*
X599087Y196459D01*
X600145Y196021D01*
X601279Y195872D01*
X602414Y196021D01*
X602734Y196154D01*
X603150Y195876D01*
Y185039D01*
X586995D01*
X586874Y185953D01*
X586522Y186804D01*
X585961Y187536D01*
X585230Y188097D01*
X584378Y188449D01*
X583964Y188504D01*
Y185039D01*
X582965D01*
Y188504D01*
X582551Y188449D01*
X581699Y188097D01*
X580968Y187536D01*
X580407Y186804D01*
X580055Y185953D01*
X579934Y185039D01*
X579121D01*
X579000Y185953D01*
X578648Y186804D01*
X578087Y187536D01*
X577356Y188097D01*
X576504Y188449D01*
X576090Y188504D01*
Y185039D01*
X575091D01*
Y188504D01*
X574677Y188449D01*
X573825Y188097D01*
X573094Y187536D01*
X572533Y186804D01*
X572181Y185953D01*
X572060Y185039D01*
X571247D01*
X571126Y185953D01*
X570774Y186804D01*
X570213Y187536D01*
X569482Y188097D01*
X568630Y188449D01*
X568216Y188504D01*
Y185039D01*
X567216D01*
Y188504D01*
X566803Y188449D01*
X565951Y188097D01*
X565220Y187536D01*
X564659Y186804D01*
X564306Y185953D01*
X564186Y185039D01*
X563373D01*
X563252Y185953D01*
X562900Y186804D01*
X562339Y187536D01*
X561608Y188097D01*
X560756Y188449D01*
X560342Y188504D01*
Y185039D01*
X559342D01*
Y188504D01*
X558929Y188449D01*
X558077Y188097D01*
X557346Y187536D01*
X556785Y186804D01*
X556432Y185953D01*
X556312Y185039D01*
X555499D01*
X555378Y185953D01*
X555026Y186804D01*
X554465Y187536D01*
X553733Y188097D01*
X552882Y188449D01*
X552468Y188504D01*
Y185039D01*
X551468D01*
Y188504D01*
X551055Y188449D01*
X550203Y188097D01*
X549472Y187536D01*
X548911Y186804D01*
X548559Y185953D01*
X548438Y185039D01*
X534114D01*
Y186890D01*
Y195372D01*
X534114Y195872D01*
X535249Y196021D01*
X536306Y196459D01*
X537214Y197156D01*
X537911Y198064D01*
X538349Y199121D01*
X538498Y200256D01*
X538349Y201391D01*
X537911Y202448D01*
X537214Y203356D01*
X536306Y204052D01*
X535249Y204490D01*
X534114Y204640D01*
X534114Y205140D01*
X534114Y205872D01*
X535249Y206021D01*
X536306Y206459D01*
X537214Y207156D01*
X537911Y208064D01*
X538349Y209121D01*
X538498Y210256D01*
X538349Y211390D01*
X537911Y212448D01*
X537214Y213356D01*
X536306Y214053D01*
X535249Y214490D01*
X534114Y214640D01*
X534114Y214640D01*
Y215872D01*
X534114Y215872D01*
X535249Y216021D01*
X536306Y216459D01*
X537214Y217156D01*
X537911Y218064D01*
X538349Y219121D01*
X538498Y220256D01*
X538349Y221391D01*
X537911Y222448D01*
X537214Y223356D01*
X536306Y224053D01*
X535249Y224490D01*
X534114Y224640D01*
X534114Y224640D01*
Y225872D01*
X534114Y225872D01*
X535249Y226021D01*
X536306Y226459D01*
X537214Y227156D01*
X537911Y228064D01*
X538349Y229121D01*
X538498Y230256D01*
X538349Y231391D01*
X537911Y232448D01*
X537214Y233356D01*
X536306Y234052D01*
X535249Y234490D01*
X534114Y234640D01*
X534114Y234640D01*
Y235872D01*
X534114Y235872D01*
X535249Y236021D01*
X536306Y236459D01*
X537214Y237156D01*
X537911Y238064D01*
X538349Y239121D01*
X538498Y240256D01*
X538349Y241390D01*
X537911Y242448D01*
X537214Y243356D01*
X536306Y244053D01*
X535249Y244490D01*
X534114Y244640D01*
X534114Y244640D01*
Y245872D01*
X534114Y245872D01*
X535249Y246021D01*
X536306Y246459D01*
X537214Y247156D01*
X537911Y248064D01*
X538349Y249121D01*
X538498Y250256D01*
X538349Y251391D01*
X537911Y252448D01*
X537214Y253356D01*
X536306Y254052D01*
X535249Y254490D01*
X534114Y254640D01*
X534114Y254640D01*
Y255872D01*
X534114Y255872D01*
X535249Y256021D01*
X536306Y256459D01*
X537214Y257156D01*
X537911Y258064D01*
X538349Y259121D01*
X538498Y260256D01*
X538349Y261390D01*
X537911Y262448D01*
X537214Y263356D01*
X536306Y264053D01*
X535249Y264490D01*
X534114Y264640D01*
X534114Y264640D01*
Y265872D01*
X534114Y265872D01*
X535249Y266021D01*
X536306Y266459D01*
X537214Y267156D01*
X537911Y268064D01*
X538349Y269121D01*
X538498Y270256D01*
X538349Y271391D01*
X538208Y271730D01*
X538486Y272146D01*
X559039D01*
Y271071D01*
X564370D01*
X569701D01*
Y272146D01*
X576083D01*
Y390256D01*
X596895D01*
X596896Y390256D01*
D02*
G37*
%LPC*%
G36*
X332374Y270071D02*
X327543D01*
Y264453D01*
X332374D01*
Y270071D01*
D02*
G37*
G36*
X338205D02*
X333374D01*
Y264453D01*
X338205D01*
Y270071D01*
D02*
G37*
G36*
X255209Y270071D02*
X250378D01*
Y264453D01*
X255209D01*
Y270071D01*
D02*
G37*
G36*
X261039D02*
X256209D01*
Y264453D01*
X261039D01*
Y270071D01*
D02*
G37*
G36*
X486705Y270071D02*
X481874D01*
Y264453D01*
X486705D01*
Y270071D01*
D02*
G37*
G36*
X492535D02*
X487705D01*
Y264453D01*
X492535D01*
Y270071D01*
D02*
G37*
G36*
X409539D02*
X404709D01*
Y264453D01*
X409539D01*
Y270071D01*
D02*
G37*
G36*
X415370D02*
X410539D01*
Y264453D01*
X415370D01*
Y270071D01*
D02*
G37*
G36*
X569701D02*
X564870D01*
Y264453D01*
X569701D01*
Y270071D01*
D02*
G37*
G36*
X563870D02*
X559039D01*
Y264453D01*
X563870D01*
Y270071D01*
D02*
G37*
%LPD*%
D10*
X487205Y270571D02*
D03*
X487205Y290256D02*
D03*
X410039D02*
D03*
X410039Y270571D02*
D03*
X332874D02*
D03*
X332874Y290256D02*
D03*
X255709Y290256D02*
D03*
X255709Y270571D02*
D03*
X564370Y270571D02*
D03*
X564370Y290256D02*
D03*
D11*
X487205Y317717D02*
D03*
X410039D02*
D03*
X332874D02*
D03*
X255709Y317421D02*
D03*
X564370Y317717D02*
D03*
D12*
X487205Y310236D02*
D03*
X410039D02*
D03*
X332874D02*
D03*
X255709Y309941D02*
D03*
X564370Y310236D02*
D03*
D13*
X690576Y437402D02*
X695300Y442126D01*
X711614D01*
X708563Y275256D02*
X714370Y269449D01*
X714272Y185728D02*
X714370Y185827D01*
X112402Y269449D02*
X118209Y275256D01*
X635827Y407480D02*
Y407677D01*
X109252Y189961D02*
X112402Y193110D01*
Y269449D01*
Y185827D02*
Y193110D01*
X117520Y187992D01*
X118110D01*
X711221Y188779D02*
X714370Y191929D01*
Y185827D02*
Y191929D01*
Y269449D01*
Y191929D02*
X714567D01*
X717520Y188976D01*
X640945Y427933D02*
Y436713D01*
Y427933D02*
X640984Y427894D01*
X640945Y436713D02*
X646358Y442126D01*
X667397Y437402D02*
X690576D01*
X662672Y442126D02*
X667397Y437402D01*
X646358Y442126D02*
X662672D01*
X650984Y408071D02*
X653543Y405512D01*
X115157Y442126D02*
X131472D01*
X136196Y437402D01*
X159375D02*
X164099Y442126D01*
X136196Y437402D02*
X159375D01*
X180413Y442126D02*
X185827Y436713D01*
Y427933D02*
Y436713D01*
X164099Y442126D02*
X180413D01*
X173228Y405512D02*
X175787Y408071D01*
X170472Y408563D02*
X175787Y413878D01*
X170472Y408268D02*
Y408563D01*
X175787Y408071D02*
Y413878D01*
Y427894D01*
Y413878D02*
X181102Y408563D01*
Y405512D02*
Y408563D01*
X650984Y413878D02*
X656299Y408563D01*
X645669D02*
X650984Y413878D01*
Y408071D02*
Y413878D01*
Y427894D01*
D14*
X557480Y310236D02*
X564370D01*
X552559Y315158D02*
X557480Y310236D01*
X403150D02*
X410039D01*
X398228Y315158D02*
X403150Y310236D01*
X398228Y315158D02*
Y405118D01*
X325984Y310236D02*
X332874D01*
X321063Y315158D02*
X325984Y310236D01*
X248819Y309941D02*
X255709D01*
X564370Y317717D02*
X576476D01*
X487205D02*
X499311D01*
X410039D02*
X422146D01*
X332874D02*
X344980D01*
X255709Y317421D02*
X267815D01*
X128425Y275256D02*
X133425Y280256D01*
X126457Y275256D02*
X128425D01*
X138425D02*
X140394D01*
X133425Y280256D02*
X138425Y275256D01*
X146673D02*
X148642D01*
X678130D02*
X680098D01*
X706595D02*
X708563D01*
X693347Y280256D02*
X698347Y275256D01*
X700315D01*
X686378D02*
X688346D01*
X693347Y280256D01*
X677244Y290256D02*
X683347D01*
X672126Y295374D02*
X677244Y290256D01*
X709449D02*
X714567Y295374D01*
X703346Y290256D02*
X709449D01*
X534114Y290256D02*
X564370D01*
Y310236D01*
X255709Y309941D02*
Y310236D01*
Y290256D02*
Y309941D01*
X302618Y290256D02*
X332874D01*
Y310236D01*
X379784Y290256D02*
X410039D01*
Y310236D01*
X487205Y290256D02*
Y310236D01*
X487205Y270571D02*
X487303Y270669D01*
X456949Y290256D02*
X487205D01*
X151279Y290256D02*
X155118Y294094D01*
X115571Y290256D02*
X123425D01*
X111732Y294095D02*
X115571Y290256D01*
X143425Y290256D02*
X151279D01*
X225453D02*
X255709D01*
X243898Y314862D02*
X248819Y309941D01*
X243898Y314862D02*
Y404823D01*
X552559Y315158D02*
Y405118D01*
X475394Y315158D02*
X480315Y310236D01*
X487205D01*
X118209Y275256D02*
X118209D01*
X120177D01*
X672126Y295374D02*
Y408937D01*
X714567Y295374D02*
Y406398D01*
X622205Y301181D02*
X623819D01*
Y299311D02*
Y301181D01*
X660984Y427894D02*
X664921D01*
X616516Y293228D02*
Y295492D01*
X611279Y290256D02*
X616516Y295492D01*
X622205Y301181D01*
X611279Y290256D02*
X613543D01*
X613543Y290256D01*
X616516Y293228D01*
X619488Y290256D01*
X619488Y290256D01*
X613543Y290256D02*
X619488D01*
X619488D01*
X706152Y414813D02*
X714567Y406398D01*
X678002Y414813D02*
X706152D01*
X120620D02*
X148770D01*
X161850Y427894D02*
X165787D01*
X111811Y406004D02*
X120620Y414813D01*
X111732Y294095D02*
Y406004D01*
X155118Y294094D02*
Y408465D01*
X321063Y315158D02*
Y407579D01*
X475394Y315158D02*
Y408071D01*
X151723Y411860D02*
Y417766D01*
X148770Y414813D02*
X151723Y411860D01*
X148770Y414813D02*
X151723Y417766D01*
X161850Y427894D01*
X151723Y411860D02*
X155118Y408465D01*
X675049Y411860D02*
Y417766D01*
X672126Y408937D02*
X675049Y411860D01*
X678002Y414813D01*
X675049Y417766D02*
X678002Y414813D01*
X664921Y427894D02*
X675049Y417766D01*
D15*
X120177Y275256D02*
X126457D01*
X123425Y210256D02*
X128425Y205256D01*
X138425D01*
X143425Y210256D01*
X123425Y220256D02*
X128425Y215256D01*
X138425D01*
X143425Y220256D01*
X123425Y230256D02*
X128425Y225256D01*
X138425D01*
X143425Y230256D01*
X123425Y240256D02*
X128425Y235256D01*
X138425D01*
X143425Y240256D01*
X123425Y250256D02*
X128425Y245256D01*
X138425D01*
X143425Y250256D01*
X123425Y260256D02*
X128425Y255256D01*
X138425D01*
X143425Y260256D01*
X123425Y270256D02*
X128425Y265256D01*
X138425D01*
X143425Y270256D01*
X123425Y200256D02*
X128425Y195256D01*
X138425D01*
X143425Y200256D01*
X700315Y275256D02*
X706595D01*
X680098D02*
X686378D01*
X683347Y270256D02*
X688346Y265256D01*
X698347D01*
X703346Y270256D01*
X683347Y260256D02*
X688346Y255256D01*
X698347D01*
X703346Y260256D01*
X683347Y250256D02*
X688346Y245256D01*
X698347D01*
X703346Y250256D01*
X683347Y240256D02*
X688346Y235256D01*
X698347D01*
X703346Y240256D01*
X683347Y230256D02*
X688346Y225256D01*
X698347D01*
X703346Y230256D01*
X683347Y220256D02*
X688346Y215256D01*
X698347D01*
X703346Y220256D01*
X683347Y210256D02*
X688346Y205256D01*
X698347D01*
X703346Y210256D01*
X683347Y200256D02*
X688346Y195256D01*
X698347D01*
X703346Y200256D01*
X255413Y270276D02*
X255709Y270571D01*
X215453Y280315D02*
X215453Y280315D01*
Y280256D02*
Y280315D01*
X683346Y280256D02*
X688346Y285256D01*
X123425Y380256D02*
X128425Y385256D01*
X138425D01*
X143425Y380256D01*
X138425Y375256D02*
X143425Y370256D01*
X128425Y375256D02*
X138425D01*
X123425Y370256D02*
X128425Y375256D01*
X138425Y365256D02*
X143425Y360256D01*
X128425Y365256D02*
X138425D01*
X123425Y360256D02*
X128425Y365256D01*
X138425Y355256D02*
X143425Y350256D01*
X128425Y355256D02*
X138425D01*
X123425Y350256D02*
X128425Y355256D01*
X138425Y345256D02*
X143425Y340256D01*
X128425Y345256D02*
X138425D01*
X123425Y340256D02*
X128425Y345256D01*
X138425Y335256D02*
X143425Y330256D01*
X128425Y335256D02*
X138425D01*
X123425Y330256D02*
X128425Y335256D01*
X138425Y325256D02*
X143425Y320256D01*
X128425Y325256D02*
X138425D01*
X123425Y320256D02*
X128425Y325256D01*
X138425Y315256D02*
X143425Y310256D01*
X128425Y315256D02*
X138425D01*
X123425Y310256D02*
X128425Y315256D01*
X138425Y305256D02*
X143425Y300256D01*
X128425Y305256D02*
X138425D01*
X123425Y300256D02*
X128425Y305256D01*
X138425Y285256D02*
X143425Y280256D01*
X128425Y285256D02*
X138425D01*
X123425Y280256D02*
X128425Y285256D01*
X138425Y395256D02*
X143425Y390256D01*
X128425Y395256D02*
X138425D01*
X123425Y390256D02*
X128425Y395256D01*
X683346Y390256D02*
X688346Y395256D01*
X698347D01*
X703346Y390256D01*
X688346Y285256D02*
X698347D01*
X703346Y280256D01*
X683346Y290256D02*
X688346Y295256D01*
X698347D01*
X703346Y290256D01*
X683346Y300256D02*
X688346Y305256D01*
X698347D01*
X703346Y300256D01*
X683346Y310256D02*
X688346Y315256D01*
X698347D01*
X703346Y310256D01*
X683346Y320256D02*
X688346Y325256D01*
X698347D01*
X703346Y320256D01*
X683346Y330256D02*
X688346Y335256D01*
X698347D01*
X703346Y330256D01*
X683346Y340256D02*
X688346Y345256D01*
X698347D01*
X703346Y340256D01*
X683346Y350256D02*
X688346Y355256D01*
X698347D01*
X703346Y350256D01*
X683346Y360256D02*
X688346Y365256D01*
X698347D01*
X703346Y360256D01*
X683346Y370256D02*
X688346Y375256D01*
X698347D01*
X703346Y370256D01*
X698347Y385256D02*
X703346Y380256D01*
X688346Y385256D02*
X698347D01*
X683346Y380256D02*
X688346Y385256D01*
X140394Y275256D02*
X146673D01*
D16*
X413435Y185089D02*
D03*
D17*
X414075Y405512D02*
D03*
D18*
X642520Y349606D02*
D03*
D19*
X239862Y355118D02*
D03*
X317027Y355413D02*
D03*
X394193D02*
D03*
X471358D02*
D03*
X548524D02*
D03*
D20*
X147638Y452756D02*
D03*
X679134D02*
D03*
Y137795D02*
D03*
X147638D02*
D03*
X717165Y120630D02*
D03*
Y469921D02*
D03*
X109606Y120630D02*
D03*
Y469921D02*
D03*
X508464Y475984D02*
D03*
Y114567D02*
D03*
X529134D02*
D03*
Y475984D02*
D03*
X451968D02*
D03*
Y114567D02*
D03*
X431299D02*
D03*
Y475984D02*
D03*
X354134D02*
D03*
Y114567D02*
D03*
X374803D02*
D03*
Y475984D02*
D03*
X297638D02*
D03*
Y114567D02*
D03*
X276969D02*
D03*
Y475984D02*
D03*
X199803D02*
D03*
Y114567D02*
D03*
X220473D02*
D03*
Y475984D02*
D03*
X606299D02*
D03*
Y114567D02*
D03*
X585630D02*
D03*
Y475984D02*
D03*
X336220Y165354D02*
D03*
X490551D02*
D03*
X413386D02*
D03*
X567716D02*
D03*
X259055D02*
D03*
X336220Y425197D02*
D03*
X259055D02*
D03*
X413386D02*
D03*
X490551D02*
D03*
X567716D02*
D03*
D21*
X683347Y390256D02*
D03*
X693347D02*
D03*
X683347Y380256D02*
D03*
X693347D02*
D03*
X683347Y370256D02*
D03*
X693347D02*
D03*
X683347Y360256D02*
D03*
X693347D02*
D03*
X683347Y350256D02*
D03*
X693347D02*
D03*
X683347Y340256D02*
D03*
X693347D02*
D03*
X683347Y330256D02*
D03*
X693347D02*
D03*
X683347Y320256D02*
D03*
X693347D02*
D03*
X683347Y310256D02*
D03*
X693347D02*
D03*
X683347Y300256D02*
D03*
X693347D02*
D03*
X683347Y290256D02*
D03*
X693347D02*
D03*
X683347Y280256D02*
D03*
X693347D02*
D03*
X683347Y270256D02*
D03*
X693347D02*
D03*
X683347Y260256D02*
D03*
X693347D02*
D03*
X683347Y250256D02*
D03*
X693347D02*
D03*
X683347Y240256D02*
D03*
X693347D02*
D03*
X683347Y230256D02*
D03*
X693347D02*
D03*
X683347Y220256D02*
D03*
X693347D02*
D03*
X683347Y210256D02*
D03*
X693347D02*
D03*
X683347Y200256D02*
D03*
X693347D02*
D03*
X703346D02*
D03*
Y210256D02*
D03*
Y220256D02*
D03*
Y230256D02*
D03*
Y240256D02*
D03*
Y250256D02*
D03*
Y260256D02*
D03*
Y270256D02*
D03*
Y280256D02*
D03*
Y290256D02*
D03*
Y300256D02*
D03*
Y310256D02*
D03*
Y320256D02*
D03*
Y330256D02*
D03*
Y340256D02*
D03*
Y350256D02*
D03*
Y360256D02*
D03*
Y370256D02*
D03*
Y380256D02*
D03*
Y390256D02*
D03*
X524114Y390256D02*
D03*
Y380256D02*
D03*
Y370256D02*
D03*
Y360256D02*
D03*
Y350256D02*
D03*
Y340256D02*
D03*
Y330256D02*
D03*
Y320256D02*
D03*
Y310256D02*
D03*
Y300256D02*
D03*
Y290256D02*
D03*
Y280256D02*
D03*
Y270256D02*
D03*
Y260256D02*
D03*
Y250256D02*
D03*
Y240256D02*
D03*
Y230256D02*
D03*
Y220256D02*
D03*
Y210256D02*
D03*
Y200256D02*
D03*
X534114Y390256D02*
D03*
Y380256D02*
D03*
Y370256D02*
D03*
Y360256D02*
D03*
Y350256D02*
D03*
Y340256D02*
D03*
Y330256D02*
D03*
Y320256D02*
D03*
Y310256D02*
D03*
Y300256D02*
D03*
Y290256D02*
D03*
Y280256D02*
D03*
Y270256D02*
D03*
Y260256D02*
D03*
Y250256D02*
D03*
Y240256D02*
D03*
Y230256D02*
D03*
Y220256D02*
D03*
Y210256D02*
D03*
Y200256D02*
D03*
X456949D02*
D03*
Y210256D02*
D03*
Y220256D02*
D03*
Y230256D02*
D03*
Y240256D02*
D03*
Y250256D02*
D03*
Y260256D02*
D03*
Y270256D02*
D03*
Y280256D02*
D03*
Y290256D02*
D03*
Y300256D02*
D03*
Y310256D02*
D03*
Y320256D02*
D03*
Y330256D02*
D03*
Y340256D02*
D03*
Y350256D02*
D03*
Y360256D02*
D03*
Y370256D02*
D03*
Y380256D02*
D03*
Y390256D02*
D03*
X446949Y200256D02*
D03*
Y210256D02*
D03*
Y220256D02*
D03*
Y230256D02*
D03*
Y240256D02*
D03*
Y250256D02*
D03*
Y260256D02*
D03*
Y270256D02*
D03*
Y280256D02*
D03*
Y290256D02*
D03*
Y300256D02*
D03*
Y310256D02*
D03*
Y320256D02*
D03*
Y330256D02*
D03*
Y340256D02*
D03*
Y350256D02*
D03*
Y360256D02*
D03*
Y370256D02*
D03*
Y380256D02*
D03*
Y390256D02*
D03*
X369783D02*
D03*
Y380256D02*
D03*
Y370256D02*
D03*
Y360256D02*
D03*
Y350256D02*
D03*
Y340256D02*
D03*
Y330256D02*
D03*
Y320256D02*
D03*
Y310256D02*
D03*
Y300256D02*
D03*
Y290256D02*
D03*
Y280256D02*
D03*
Y270256D02*
D03*
Y260256D02*
D03*
Y250256D02*
D03*
Y240256D02*
D03*
Y230256D02*
D03*
Y220256D02*
D03*
Y210256D02*
D03*
Y200256D02*
D03*
X379784Y390256D02*
D03*
Y380256D02*
D03*
Y370256D02*
D03*
Y360256D02*
D03*
Y350256D02*
D03*
Y340256D02*
D03*
Y330256D02*
D03*
Y320256D02*
D03*
Y310256D02*
D03*
Y300256D02*
D03*
Y290256D02*
D03*
Y280256D02*
D03*
Y270256D02*
D03*
Y260256D02*
D03*
Y250256D02*
D03*
Y240256D02*
D03*
Y230256D02*
D03*
Y220256D02*
D03*
Y210256D02*
D03*
Y200256D02*
D03*
X302618D02*
D03*
Y210256D02*
D03*
Y220256D02*
D03*
Y230256D02*
D03*
Y240256D02*
D03*
Y250256D02*
D03*
Y260256D02*
D03*
Y270256D02*
D03*
Y280256D02*
D03*
Y290256D02*
D03*
Y300256D02*
D03*
Y310256D02*
D03*
Y320256D02*
D03*
Y330256D02*
D03*
Y340256D02*
D03*
Y350256D02*
D03*
Y360256D02*
D03*
Y370256D02*
D03*
Y380256D02*
D03*
Y390256D02*
D03*
X292618Y200256D02*
D03*
Y210256D02*
D03*
Y220256D02*
D03*
Y230256D02*
D03*
Y240256D02*
D03*
Y250256D02*
D03*
Y260256D02*
D03*
Y270256D02*
D03*
Y280256D02*
D03*
Y290256D02*
D03*
Y300256D02*
D03*
Y310256D02*
D03*
Y320256D02*
D03*
Y330256D02*
D03*
Y340256D02*
D03*
Y350256D02*
D03*
Y360256D02*
D03*
Y370256D02*
D03*
Y380256D02*
D03*
Y390256D02*
D03*
X215453D02*
D03*
Y380256D02*
D03*
Y370256D02*
D03*
Y360256D02*
D03*
Y350256D02*
D03*
Y340256D02*
D03*
Y330256D02*
D03*
Y320256D02*
D03*
Y310256D02*
D03*
Y300256D02*
D03*
Y290256D02*
D03*
Y280256D02*
D03*
Y270256D02*
D03*
Y260256D02*
D03*
Y250256D02*
D03*
Y240256D02*
D03*
Y230256D02*
D03*
Y220256D02*
D03*
Y210256D02*
D03*
Y200256D02*
D03*
X225453Y390256D02*
D03*
Y380256D02*
D03*
Y370256D02*
D03*
Y360256D02*
D03*
Y350256D02*
D03*
Y340256D02*
D03*
Y330256D02*
D03*
Y320256D02*
D03*
Y310256D02*
D03*
Y300256D02*
D03*
Y290256D02*
D03*
Y280256D02*
D03*
Y270256D02*
D03*
Y260256D02*
D03*
Y250256D02*
D03*
Y240256D02*
D03*
Y230256D02*
D03*
Y220256D02*
D03*
Y210256D02*
D03*
Y200256D02*
D03*
X611279D02*
D03*
Y210256D02*
D03*
Y220256D02*
D03*
Y230256D02*
D03*
Y240256D02*
D03*
Y250256D02*
D03*
Y260256D02*
D03*
Y270256D02*
D03*
Y280256D02*
D03*
Y290256D02*
D03*
Y300256D02*
D03*
Y310256D02*
D03*
Y320256D02*
D03*
Y330256D02*
D03*
Y340256D02*
D03*
Y350256D02*
D03*
Y360256D02*
D03*
Y370256D02*
D03*
Y380256D02*
D03*
Y390256D02*
D03*
X601279Y200256D02*
D03*
Y210256D02*
D03*
Y220256D02*
D03*
Y230256D02*
D03*
Y240256D02*
D03*
Y250256D02*
D03*
Y260256D02*
D03*
Y270256D02*
D03*
Y280256D02*
D03*
Y290256D02*
D03*
Y300256D02*
D03*
Y310256D02*
D03*
Y320256D02*
D03*
Y330256D02*
D03*
Y340256D02*
D03*
Y350256D02*
D03*
Y360256D02*
D03*
Y370256D02*
D03*
Y380256D02*
D03*
Y390256D02*
D03*
X143425Y390256D02*
D03*
Y380256D02*
D03*
Y370256D02*
D03*
Y360256D02*
D03*
Y350256D02*
D03*
Y340256D02*
D03*
Y330256D02*
D03*
Y320256D02*
D03*
Y310256D02*
D03*
Y300256D02*
D03*
Y290256D02*
D03*
Y280256D02*
D03*
Y270256D02*
D03*
Y260256D02*
D03*
Y250256D02*
D03*
Y240256D02*
D03*
Y230256D02*
D03*
Y220256D02*
D03*
Y210256D02*
D03*
Y200256D02*
D03*
X133425D02*
D03*
X123425D02*
D03*
X133425Y210256D02*
D03*
X123425D02*
D03*
X133425Y220256D02*
D03*
X123425D02*
D03*
X133425Y230256D02*
D03*
X123425D02*
D03*
X133425Y240256D02*
D03*
X123425D02*
D03*
X133425Y250256D02*
D03*
X123425D02*
D03*
X133425Y260256D02*
D03*
X123425D02*
D03*
X133425Y270256D02*
D03*
X123425D02*
D03*
X133425Y280256D02*
D03*
X123425D02*
D03*
X133425Y290256D02*
D03*
X123425D02*
D03*
X133425Y300256D02*
D03*
X123425D02*
D03*
X133425Y310256D02*
D03*
X123425D02*
D03*
X133425Y320256D02*
D03*
X123425D02*
D03*
X133425Y330256D02*
D03*
X123425D02*
D03*
X133425Y340256D02*
D03*
X123425D02*
D03*
X133425Y350256D02*
D03*
X123425D02*
D03*
X133425Y360256D02*
D03*
X123425D02*
D03*
X133425Y370256D02*
D03*
X123425D02*
D03*
X133425Y380256D02*
D03*
X123425D02*
D03*
X133425Y390256D02*
D03*
X123425D02*
D03*
D22*
X711614Y442126D02*
D03*
X115157D02*
D03*
D23*
X711614Y432126D02*
D03*
X115157D02*
D03*
D24*
X640984Y427894D02*
D03*
X650984D02*
D03*
X660984D02*
D03*
X165787D02*
D03*
X175787D02*
D03*
X185787D02*
D03*
D25*
X351969Y185039D02*
D03*
X344094D02*
D03*
X336221D02*
D03*
X328346D02*
D03*
X320472D02*
D03*
X161279Y185039D02*
D03*
X169153D02*
D03*
X177027D02*
D03*
X184901D02*
D03*
X192776D02*
D03*
X243307Y185039D02*
D03*
X251181D02*
D03*
X259055D02*
D03*
X266929D02*
D03*
X274803D02*
D03*
X397638D02*
D03*
X405512D02*
D03*
X413386D02*
D03*
X421260D02*
D03*
X429134D02*
D03*
X474803D02*
D03*
X482677D02*
D03*
X490551D02*
D03*
X498425D02*
D03*
X506299D02*
D03*
X551968D02*
D03*
X559842D02*
D03*
X567716D02*
D03*
X575591D02*
D03*
X583464D02*
D03*
X629134D02*
D03*
X637008D02*
D03*
X644882D02*
D03*
X652756D02*
D03*
X660630D02*
D03*
X397638Y405512D02*
D03*
X429134D02*
D03*
X421260D02*
D03*
X413386D02*
D03*
X405512D02*
D03*
X328346D02*
D03*
X336221D02*
D03*
X344094D02*
D03*
X351969D02*
D03*
X320473D02*
D03*
X251181D02*
D03*
X259055D02*
D03*
X266929D02*
D03*
X274803D02*
D03*
X243307D02*
D03*
X482677D02*
D03*
X490551D02*
D03*
X498425D02*
D03*
X506299D02*
D03*
X474803D02*
D03*
X559842D02*
D03*
X567717D02*
D03*
X575591D02*
D03*
X583464D02*
D03*
X551968D02*
D03*
X629921D02*
D03*
X661417D02*
D03*
X653543D02*
D03*
X645669D02*
D03*
X637795D02*
D03*
X165354D02*
D03*
X196850D02*
D03*
X188976D02*
D03*
X181102D02*
D03*
X173228D02*
D03*
M02*
