G04 Layer_Color=16711935*
%FSLAX25Y25*%
%MOIN*%
G70*
G01*
G75*
%ADD30R,0.08674X0.05800*%
%ADD31R,0.07800X0.07800*%
%ADD32C,0.07800*%
%ADD33C,0.25800*%
%ADD34C,0.08300*%
%ADD35C,0.07493*%
%ADD36C,0.08800*%
%ADD37R,0.09300X0.07000*%
%ADD38O,0.12800X0.05918*%
%ADD39O,0.05918X0.12800*%
%ADD40R,0.07000X0.09300*%
%ADD41C,0.05524*%
D30*
X693500Y205000D02*
D03*
Y215000D02*
D03*
Y225000D02*
D03*
Y235000D02*
D03*
Y245000D02*
D03*
Y255000D02*
D03*
Y265000D02*
D03*
Y275000D02*
D03*
Y285000D02*
D03*
Y295000D02*
D03*
Y305000D02*
D03*
Y315000D02*
D03*
Y325000D02*
D03*
Y335000D02*
D03*
Y345000D02*
D03*
Y355000D02*
D03*
Y365000D02*
D03*
Y375000D02*
D03*
Y385000D02*
D03*
Y395000D02*
D03*
D31*
X664500Y390000D02*
D03*
D32*
X674500D02*
D03*
X664500Y380000D02*
D03*
X674500D02*
D03*
X664500Y370000D02*
D03*
X674500D02*
D03*
X664500Y360000D02*
D03*
X674500D02*
D03*
X664500Y350000D02*
D03*
X674500D02*
D03*
X664500Y340000D02*
D03*
X674500D02*
D03*
X664500Y330000D02*
D03*
X674500D02*
D03*
X664500Y320000D02*
D03*
X674500D02*
D03*
X664500Y310000D02*
D03*
X674500D02*
D03*
X664500Y300000D02*
D03*
X674500D02*
D03*
X664500Y290000D02*
D03*
X674500D02*
D03*
X664500Y280000D02*
D03*
X674500D02*
D03*
X664500Y270000D02*
D03*
X674500D02*
D03*
X664500Y260000D02*
D03*
X674500D02*
D03*
X664500Y250000D02*
D03*
X674500D02*
D03*
X664500Y240000D02*
D03*
X674500D02*
D03*
X664500Y230000D02*
D03*
X674500D02*
D03*
X664500Y220000D02*
D03*
X674500D02*
D03*
X664500Y210000D02*
D03*
X674500D02*
D03*
X664500Y200000D02*
D03*
X674500D02*
D03*
D33*
X669500Y157500D02*
D03*
Y432500D02*
D03*
X494500D02*
D03*
Y157500D02*
D03*
D34*
X505000Y410000D02*
D03*
X485000D02*
D03*
X482500Y180000D02*
D03*
X502500D02*
D03*
D35*
X605000Y427500D02*
D03*
Y417500D02*
D03*
Y437500D02*
D03*
X615000Y427500D02*
D03*
Y417500D02*
D03*
Y437500D02*
D03*
X625000Y427500D02*
D03*
Y417500D02*
D03*
Y437500D02*
D03*
X635000Y427500D02*
D03*
Y417500D02*
D03*
Y437500D02*
D03*
X535000Y427500D02*
D03*
Y417500D02*
D03*
Y437500D02*
D03*
X545000Y427500D02*
D03*
Y417500D02*
D03*
Y437500D02*
D03*
X555000Y427500D02*
D03*
Y417500D02*
D03*
Y437500D02*
D03*
X565000Y427500D02*
D03*
Y417500D02*
D03*
Y437500D02*
D03*
X637500Y172500D02*
D03*
Y152500D02*
D03*
Y162500D02*
D03*
X567500D02*
D03*
Y152500D02*
D03*
Y172500D02*
D03*
X577500Y162500D02*
D03*
Y152500D02*
D03*
Y172500D02*
D03*
X587500Y162500D02*
D03*
Y152500D02*
D03*
Y172500D02*
D03*
X597500Y162500D02*
D03*
Y152500D02*
D03*
Y172500D02*
D03*
X607500Y162500D02*
D03*
Y152500D02*
D03*
Y172500D02*
D03*
X617500Y162500D02*
D03*
Y152500D02*
D03*
Y172500D02*
D03*
X627500Y162500D02*
D03*
Y152500D02*
D03*
Y172500D02*
D03*
D36*
X528000Y162500D02*
D03*
Y152500D02*
D03*
Y172500D02*
D03*
X546500Y162500D02*
D03*
Y152500D02*
D03*
Y172500D02*
D03*
D37*
X485000Y390000D02*
D03*
X565000D02*
D03*
D38*
X485000Y380000D02*
D03*
Y370000D02*
D03*
Y360000D02*
D03*
Y350000D02*
D03*
Y340000D02*
D03*
Y330000D02*
D03*
Y320000D02*
D03*
Y310000D02*
D03*
Y300000D02*
D03*
Y290000D02*
D03*
Y280000D02*
D03*
Y270000D02*
D03*
Y260000D02*
D03*
X545000D02*
D03*
Y270000D02*
D03*
Y280000D02*
D03*
Y290000D02*
D03*
Y300000D02*
D03*
Y310000D02*
D03*
Y320000D02*
D03*
Y330000D02*
D03*
Y340000D02*
D03*
Y350000D02*
D03*
Y360000D02*
D03*
Y370000D02*
D03*
Y380000D02*
D03*
Y390000D02*
D03*
X625000D02*
D03*
Y380000D02*
D03*
Y370000D02*
D03*
Y360000D02*
D03*
Y350000D02*
D03*
Y340000D02*
D03*
Y330000D02*
D03*
Y320000D02*
D03*
Y310000D02*
D03*
Y300000D02*
D03*
Y290000D02*
D03*
Y280000D02*
D03*
Y270000D02*
D03*
Y260000D02*
D03*
X565000D02*
D03*
Y270000D02*
D03*
Y280000D02*
D03*
Y290000D02*
D03*
Y300000D02*
D03*
Y310000D02*
D03*
Y320000D02*
D03*
Y330000D02*
D03*
Y340000D02*
D03*
Y350000D02*
D03*
Y360000D02*
D03*
Y370000D02*
D03*
Y380000D02*
D03*
D39*
X567500Y225000D02*
D03*
X577500D02*
D03*
X587500D02*
D03*
X597500D02*
D03*
X607500D02*
D03*
X617500D02*
D03*
X627500D02*
D03*
X637500D02*
D03*
Y195000D02*
D03*
X627500D02*
D03*
X617500D02*
D03*
X607500D02*
D03*
X597500D02*
D03*
X587500D02*
D03*
X577500D02*
D03*
X482500Y225000D02*
D03*
X492500D02*
D03*
X502500D02*
D03*
X512500D02*
D03*
X522500D02*
D03*
X532500D02*
D03*
X542500D02*
D03*
Y195000D02*
D03*
X532500D02*
D03*
X522500D02*
D03*
X512500D02*
D03*
X502500D02*
D03*
X492500D02*
D03*
D40*
X567500D02*
D03*
X482500D02*
D03*
D41*
X507500Y239500D02*
D03*
X574500Y404000D02*
D03*
X645000Y405000D02*
D03*
X650000Y410000D02*
D03*
X582500Y403000D02*
D03*
X579000Y315000D02*
D03*
Y250000D02*
D03*
X560000D02*
D03*
X596500Y249500D02*
D03*
X591000Y245500D02*
D03*
X596500Y305000D02*
D03*
X582500Y233000D02*
D03*
X637500Y390000D02*
D03*
Y340000D02*
D03*
Y310000D02*
D03*
X636000Y300000D02*
D03*
X592500Y325000D02*
D03*
X600500Y238500D02*
D03*
X591000Y290000D02*
D03*
X586500Y240000D02*
D03*
Y280000D02*
D03*
X605000Y400000D02*
D03*
X600000Y389500D02*
D03*
X587500Y412500D02*
D03*
X645000Y230000D02*
D03*
X572500Y235000D02*
D03*
X592500D02*
D03*
X632500Y210000D02*
D03*
X595000Y380000D02*
D03*
X612500Y260000D02*
D03*
Y285000D02*
D03*
X640000Y280000D02*
D03*
X642500Y330000D02*
D03*
X647500Y285000D02*
D03*
Y320000D02*
D03*
X550000Y252500D02*
D03*
X560000Y222500D02*
D03*
X492500Y210000D02*
D03*
X532500D02*
D03*
X520000Y390000D02*
D03*
X595000Y365000D02*
D03*
X642500Y385000D02*
D03*
Y350000D02*
D03*
X545000Y397500D02*
D03*
X615000Y400000D02*
D03*
X550000Y222500D02*
D03*
M02*
