M48
;Layer_Color=9474304
;FILE_FORMAT=2:5
INCH,TZ
;TYPE=PLATED
T1F00S00C0.02362
T2F00S00C0.02756
T3F00S00C0.03150
T4F00S00C0.03543
T5F00S00C0.03937
T6F00S00C0.12598
%
T01
X632500Y210000
X645000Y230000
X640000Y280000
X647500Y285000
X636000Y300000
X637500Y310000
X596500Y305000
X591000Y290000
X586500Y280000
X612500Y285000
Y260000
X596500Y249500
X591000Y245500
X586500Y240000
X582500Y233000
X572500Y235000
X592500
X600500Y238500
X579000Y250000
X560000
X550000Y252500
Y222500
X560000
X532500Y210000
X492500
X507500Y239500
X579000Y315000
X592500Y325000
X595000Y365000
Y380000
X600000Y389500
X605000Y400000
X615000
X582500Y403000
X574500Y404000
X587500Y412500
X545000Y397500
X520000Y390000
X637500
X642500Y385000
X645000Y405000
X650000Y410000
X642500Y350000
X637500Y340000
X642500Y330000
X647500Y320000
T02
X627500Y195000
X637500
Y225000
X627500
X625000Y260000
Y270000
Y280000
Y290000
Y300000
Y310000
X565000
Y300000
Y290000
Y280000
Y270000
Y260000
X545000
Y270000
Y280000
Y290000
Y300000
Y310000
X485000
Y300000
Y290000
Y280000
Y270000
Y260000
X482500Y225000
X492500
X502500
X512500
X522500
X532500
X542500
X567500
X577500
X587500
X597500
X607500
X617500
Y195000
X607500
X597500
X587500
X577500
X567500
X542500
X532500
X522500
X512500
X502500
X492500
X482500
X485000Y320000
Y330000
Y340000
Y350000
Y360000
Y370000
Y380000
Y390000
X545000
Y380000
Y370000
Y360000
Y350000
Y340000
Y330000
Y320000
X565000
Y330000
Y340000
Y350000
Y360000
Y370000
Y380000
Y390000
X625000
Y380000
Y370000
Y360000
Y350000
Y340000
Y330000
Y320000
T03
X482500Y180000
X502500
X505000Y410000
X485000
T04
X567500Y152500
X577500
X587500
X597500
X607500
X617500
X627500
X637500
Y162500
Y172500
X627500
Y162500
X617500
X607500
X597500
X587500
X577500
X567500
Y172500
X577500
X587500
X597500
X607500
X617500
X615000Y417500
X605000
Y427500
Y437500
X615000
Y427500
X565000
X555000
X545000
X535000
Y417500
X545000
X555000
X565000
Y437500
X555000
X545000
X535000
X625000
Y427500
Y417500
X635000
Y427500
Y437500
T05
X528000Y152500
X546500
X664500Y200000
Y210000
Y220000
Y230000
Y240000
Y250000
Y260000
Y270000
Y280000
Y290000
Y300000
Y310000
X674500
Y300000
Y290000
Y280000
Y270000
Y260000
Y250000
Y240000
Y230000
Y220000
Y210000
Y200000
X546500Y172500
Y162500
X528000
Y172500
X664500Y320000
Y330000
Y340000
Y350000
Y360000
Y370000
Y380000
Y390000
X674500
Y380000
Y370000
Y360000
Y350000
Y340000
Y330000
Y320000
T06
X669500Y157500
X494500
Y432500
X669500
M30
