G04 Layer_Physical_Order=1*
G04 Layer_Color=255*
%FSLAX25Y25*%
%MOIN*%
G70*
G01*
G75*
%ADD10R,0.07874X0.05000*%
%ADD11C,0.01000*%
%ADD12C,0.03000*%
%ADD13C,0.01500*%
%ADD14C,0.02000*%
%ADD15R,0.07000X0.07000*%
%ADD16C,0.07000*%
%ADD17C,0.25000*%
%ADD18C,0.07500*%
%ADD19C,0.06693*%
%ADD20C,0.08000*%
%ADD21R,0.08500X0.06200*%
%ADD22O,0.12000X0.05118*%
%ADD23O,0.05118X0.12000*%
%ADD24R,0.06200X0.08500*%
%ADD25C,0.04724*%
D10*
X693500Y390000D02*
D03*
Y380000D02*
D03*
Y370000D02*
D03*
Y360000D02*
D03*
Y350000D02*
D03*
Y340000D02*
D03*
Y330000D02*
D03*
Y320000D02*
D03*
Y310000D02*
D03*
Y300000D02*
D03*
Y290000D02*
D03*
Y280000D02*
D03*
Y270000D02*
D03*
Y260000D02*
D03*
Y250000D02*
D03*
Y240000D02*
D03*
Y230000D02*
D03*
Y220000D02*
D03*
Y210000D02*
D03*
Y200000D02*
D03*
D11*
X574500Y404000D02*
X575000D01*
X578500Y407500D01*
X559000Y404000D02*
X574500D01*
X597500Y405000D02*
X645000D01*
X595500Y403000D02*
X597500Y405000D01*
X650000Y400000D02*
Y410000D01*
X637500D02*
X650000D01*
X578500Y407500D02*
X635000D01*
X637500Y410000D01*
X582500Y403000D02*
X595500D01*
X579000Y315000D02*
X602500D01*
X560000Y250000D02*
X579000D01*
X640500Y249500D02*
X661000Y270000D01*
X596500Y249500D02*
X640500D01*
X654500Y260000D02*
X664500D01*
X640000Y245500D02*
X654500Y260000D01*
X591000Y245500D02*
X640000D01*
X557500Y305000D02*
X596500D01*
X602500D01*
X582500Y210000D02*
Y233000D01*
X577500Y205000D02*
X582500Y210000D01*
X637500Y390000D02*
X664500D01*
X625000Y340000D02*
X637500D01*
Y310000D02*
X664500D01*
X636000Y300000D02*
X664500D01*
X507500Y190000D02*
Y239500D01*
Y190000D02*
X512500Y185000D01*
Y170500D02*
Y185000D01*
Y170500D02*
X520500Y162500D01*
X528000D01*
X537500Y189000D02*
Y207500D01*
Y189000D02*
X546500Y180000D01*
Y172500D02*
Y180000D01*
X592500Y325000D02*
X602500D01*
X557500D02*
X592500D01*
X602500D02*
X607500Y320000D01*
X625000D01*
X624500Y319500D02*
X625000Y320000D01*
X602500D02*
X607500Y315000D01*
X669500D01*
X565000Y320000D02*
X602500D01*
Y315000D02*
X607500Y310000D01*
X625000D01*
X565000Y290000D02*
X591000D01*
X586500Y240000D02*
X595500D01*
X586500D02*
Y240207D01*
X586896Y240604D01*
X565000Y280000D02*
X586500D01*
X565500Y389500D02*
X600000D01*
X597500Y410000D02*
X632500D01*
X595000Y412500D02*
X597500Y410000D01*
X587500Y412500D02*
X595000D01*
X580000D02*
X587500D01*
X577500Y410000D02*
X580000Y412500D01*
X567500Y410000D02*
X577500D01*
X515000Y315000D02*
X552500D01*
X598000Y242500D02*
X642500D01*
X595500Y240000D02*
X598000Y242500D01*
X642500D02*
X650000Y250000D01*
X645000Y230000D02*
X647500Y227500D01*
Y210000D02*
Y227500D01*
Y210000D02*
X652500Y205000D01*
X650000Y215500D02*
X655500Y210000D01*
X664500D01*
X652500Y220000D02*
X657500Y215000D01*
X660000Y275000D02*
X669500D01*
X661000Y270000D02*
X664500D01*
X572500Y210000D02*
Y235000D01*
X567500Y205000D02*
X572500Y210000D01*
X567500Y195000D02*
Y205000D01*
X577500Y195000D02*
Y205000D01*
X592500Y210000D02*
Y235000D01*
X587500Y205000D02*
X592500Y210000D01*
X587500Y195000D02*
Y205000D01*
X602500Y232500D02*
X605000Y235000D01*
X602500Y210000D02*
Y232500D01*
X597500Y205000D02*
X602500Y210000D01*
X597500Y195000D02*
Y205000D01*
X637500Y207500D02*
Y225000D01*
X632500Y202500D02*
X637500Y207500D01*
X632500Y167500D02*
Y202500D01*
X627500Y205000D02*
X632500Y210000D01*
X627500Y195000D02*
Y205000D01*
X602500Y265000D02*
X607500Y260000D01*
Y280000D02*
X625000D01*
X602500Y285000D02*
X607500Y280000D01*
X557500Y285000D02*
X602500D01*
X607500Y270000D02*
X625000D01*
X602500Y275000D02*
X607500Y270000D01*
X557500Y275000D02*
X602500D01*
X557500Y265000D02*
X602500D01*
X552500Y260000D02*
X557500Y265000D01*
X545000Y260000D02*
X552500D01*
Y270000D02*
X557500Y275000D01*
X545000Y270000D02*
X552500D01*
X607500Y290000D02*
X625000D01*
X602500Y295000D02*
X607500Y290000D01*
X557500Y295000D02*
X602500D01*
X552500Y280000D02*
X557500Y285000D01*
X545000Y280000D02*
X552500D01*
X565000Y360000D02*
X602500D01*
X565000Y350000D02*
X602500D01*
X565000Y340000D02*
X602500D01*
X565000Y330000D02*
X602500D01*
X557500Y290000D02*
X565000D01*
X607500Y300000D02*
X625000D01*
X565000D02*
X602500D01*
X552500Y290000D02*
X557500Y295000D01*
X545000Y290000D02*
X552500D01*
X602500Y305000D02*
X607500Y300000D01*
X552500D02*
X557500Y305000D01*
X545000Y300000D02*
X552500D01*
X669500Y325000D02*
X674500Y320000D01*
X552500D02*
X557500Y325000D01*
X545000Y320000D02*
X552500D01*
X607500Y330000D02*
X625000D01*
X602500Y335000D02*
X607500Y330000D01*
X557500Y335000D02*
X602500D01*
X552500Y330000D02*
X557500Y335000D01*
X545000Y330000D02*
X552500D01*
X607500Y350000D02*
X625000D01*
X602500Y355000D02*
X607500Y350000D01*
X557500Y355000D02*
X602500D01*
X552500Y350000D02*
X557500Y355000D01*
X545000Y350000D02*
X552500D01*
X557500Y280000D02*
X565000D01*
X552500Y275000D02*
X557500Y280000D01*
X515000Y275000D02*
X552500D01*
Y285000D02*
X557500Y290000D01*
X515000Y285000D02*
X552500D01*
X557500Y300000D02*
X565000D01*
X552500Y295000D02*
X557500Y300000D01*
X515000Y295000D02*
X552500D01*
X510000Y300000D02*
X515000Y295000D01*
X485000Y300000D02*
X510000D01*
X557500Y310000D02*
X565000D01*
X552500Y305000D02*
X557500Y310000D01*
X515000Y305000D02*
X552500D01*
X510000Y310000D02*
X515000Y305000D01*
X485000Y310000D02*
X510000D01*
X557500Y320000D02*
X565000D01*
X552500Y315000D02*
X557500Y320000D01*
X510000D02*
X515000Y315000D01*
X485000Y320000D02*
X510000D01*
X557500Y330000D02*
X565000D01*
X552500Y325000D02*
X557500Y330000D01*
X515000Y325000D02*
X552500D01*
X510000Y330000D02*
X515000Y325000D01*
X485000Y330000D02*
X510000D01*
X557500Y340000D02*
X565000D01*
X552500Y335000D02*
X557500Y340000D01*
X515000Y335000D02*
X552500D01*
X510000Y340000D02*
X515000Y335000D01*
X485000Y340000D02*
X510000D01*
X557500Y350000D02*
X565000D01*
X552500Y345000D02*
X557500Y350000D01*
X515000Y345000D02*
X552500D01*
X510000Y350000D02*
X515000Y345000D01*
X485000Y350000D02*
X510000D01*
X557500Y360000D02*
X565000D01*
X552500Y355000D02*
X557500Y360000D01*
X515000Y355000D02*
X552500D01*
X510000Y360000D02*
X515000Y355000D01*
X485000Y360000D02*
X510000D01*
X557500Y370000D02*
X565000D01*
X552500Y365000D02*
X557500Y370000D01*
X515000Y365000D02*
X552500D01*
X510000Y370000D02*
X515000Y365000D01*
X485000Y370000D02*
X510000D01*
X485000Y380000D02*
X510000D01*
X552500Y375000D02*
X557500Y380000D01*
X565000D01*
X602500Y300000D02*
X607500Y295000D01*
X602500Y310000D02*
X607500Y305000D01*
Y340000D02*
X625000D01*
X602500Y345000D02*
X607500Y340000D01*
X557500Y345000D02*
X602500D01*
X552500Y340000D02*
X557500Y345000D01*
X545000Y340000D02*
X552500D01*
X545000Y360000D02*
X552500D01*
X557500Y365000D01*
X602500Y370000D02*
X607500Y365000D01*
X602500Y330000D02*
X607500Y325000D01*
X602500Y340000D02*
X607500Y335000D01*
X602500Y350000D02*
X607500Y345000D01*
X602500Y360000D02*
X607500Y355000D01*
X669500Y375000D02*
X674500Y370000D01*
X669500Y335000D02*
X674500Y330000D01*
X657500Y215000D02*
X669500D01*
X674500Y210000D01*
X652500Y205000D02*
X669500D01*
Y295000D02*
X674500Y290000D01*
X669500Y315000D02*
X674500Y310000D01*
X669500Y395000D02*
X674500Y390000D01*
X669500Y205000D02*
X674500Y200000D01*
X669500Y305000D02*
X674500Y300000D01*
X669500Y345000D02*
X674500Y340000D01*
X669500Y365000D02*
X674500Y360000D01*
X669500Y355000D02*
X674500Y350000D01*
X567500Y162500D02*
X572500Y167500D01*
Y205000D01*
X577500Y210000D01*
Y225000D01*
X587500Y210000D02*
Y225000D01*
X582500Y205000D02*
X587500Y210000D01*
X582500Y167500D02*
Y205000D01*
X577500Y162500D02*
X582500Y167500D01*
X597500Y210000D02*
Y225000D01*
X592500Y205000D02*
X597500Y210000D01*
X592500Y167500D02*
Y205000D01*
X587500Y162500D02*
X592500Y167500D01*
X607500Y210000D02*
Y225000D01*
X602500Y205000D02*
X607500Y210000D01*
X602500Y167500D02*
Y205000D01*
X597500Y162500D02*
X602500Y167500D01*
X617500Y210000D02*
Y225000D01*
X612500Y205000D02*
X617500Y210000D01*
X612500Y167500D02*
Y205000D01*
X607500Y162500D02*
X612500Y167500D01*
X627500Y210000D02*
Y225000D01*
X622500Y205000D02*
X627500Y210000D01*
X622500Y167500D02*
Y205000D01*
X617500Y162500D02*
X622500Y167500D01*
X627500Y162500D02*
X632500Y167500D01*
X607500Y295000D02*
X669500D01*
X607500Y305000D02*
X669500D01*
X607500Y325000D02*
X669500D01*
X607500Y335000D02*
X669500D01*
X607500Y345000D02*
X669500D01*
X607500Y355000D02*
X669500D01*
X607500Y365000D02*
X669500D01*
Y385000D02*
X674500Y380000D01*
X632500Y385000D02*
X637500Y380000D01*
X664500D01*
X602500Y365000D02*
X607500Y360000D01*
X600000Y375000D02*
X669500D01*
X607500Y360000D02*
X625000D01*
X650000Y250000D02*
X664500D01*
X565000Y270000D02*
X602500D01*
X607500Y265000D01*
X632000D01*
X647000Y280000D01*
X664500D01*
X607500Y260000D02*
X612500D01*
X625000D01*
Y270000D02*
X633000D01*
X640000Y277000D01*
Y280000D01*
X642500Y330000D02*
X664500D01*
X612500Y285000D02*
X647500D01*
Y320000D02*
X664500D01*
X515000Y375000D02*
X552500D01*
X510000Y380000D02*
X515000Y375000D01*
X546500Y162500D02*
X552500D01*
X560000Y170000D01*
Y222500D01*
X565000Y310000D02*
X602500D01*
X502500Y195000D02*
Y225000D01*
X522500Y195000D02*
Y225000D01*
X512500D02*
Y232500D01*
X515000Y235000D01*
X525000D01*
X527500Y232500D01*
Y173000D02*
Y232500D01*
Y173000D02*
X528000Y172500D01*
X542500Y212500D02*
Y225000D01*
X537500Y207500D02*
X542500Y212500D01*
X492500Y210000D02*
Y225000D01*
X532500Y195000D02*
Y210000D01*
X485000Y390000D02*
X520000D01*
X552500Y427500D02*
X555000D01*
X565000Y380000D02*
X577500D01*
X582500Y385000D01*
X632500D01*
X565000Y390000D02*
X565500Y389500D01*
X555000Y412500D02*
Y417500D01*
X552500Y410000D02*
X555000Y412500D01*
X537500Y410000D02*
X552500D01*
X535000Y412500D02*
X537500Y410000D01*
X535000Y412500D02*
Y417500D01*
X595000Y380000D02*
X600000Y375000D01*
X565000Y370000D02*
X602500D01*
X557500Y365000D02*
X595000D01*
X602500D01*
X642500Y385000D02*
X669500D01*
X625000Y350000D02*
X642500D01*
X598000Y417500D02*
X605000D01*
X620000Y422500D02*
X625000Y417500D01*
X610000Y422500D02*
X620000D01*
X605000Y417500D02*
X610000Y422500D01*
X565000Y412500D02*
Y417500D01*
Y412500D02*
X567500Y410000D01*
X632500D02*
X635000Y412500D01*
Y417500D01*
X545000Y397500D02*
X552500D01*
X559000Y404000D01*
X605000Y397000D02*
Y400000D01*
Y397000D02*
X607000Y395000D01*
X669500D01*
X615000Y400000D02*
X636000D01*
X638500Y397500D01*
X647500D01*
X650000Y400000D01*
X600500Y238500D02*
X647500D01*
X652500Y233500D01*
Y220000D02*
Y233500D01*
X605000Y235000D02*
X646500D01*
X650000Y231500D01*
Y215500D02*
Y231500D01*
X555000Y417500D02*
X560153Y422653D01*
X592846D01*
X598000Y417500D01*
D12*
X559500Y397000D02*
X600000D01*
X552500Y390000D02*
X559500Y397000D01*
X545000Y390000D02*
X552500D01*
X600000Y397000D02*
X607000Y390000D01*
X625000D01*
X472500Y266500D02*
X479000Y260000D01*
X485000D01*
X652500Y275000D02*
X660000D01*
X642500Y265000D02*
X652500Y275000D01*
X642500Y261000D02*
Y265000D01*
X635000Y253500D02*
X642500Y261000D01*
X606500Y253500D02*
X635000D01*
X600000Y260000D02*
X606500Y253500D01*
X565000Y260000D02*
X600000D01*
X485000D02*
X497500D01*
X505000Y252500D01*
X558000Y260000D02*
X565000D01*
X550500Y252500D02*
X558000Y260000D01*
X550000Y252500D02*
X550500D01*
X505000D02*
X550000D01*
X542500Y195000D02*
Y206000D01*
X477500Y410000D02*
X485000D01*
X472500Y405000D02*
X477500Y410000D01*
X472500Y266500D02*
Y405000D01*
X505000Y410000D02*
X512500D01*
X532500Y390000D01*
X545000D01*
X542500Y206000D02*
X550000Y213500D01*
Y222500D01*
D13*
X693500Y370000D02*
X695500D01*
X674500D02*
X693500D01*
Y320000D02*
X695500D01*
X674500D02*
X693500D01*
Y290000D02*
X695500D01*
X674500D02*
X693500D01*
Y380000D02*
X695500D01*
X674500D02*
X693500D01*
Y390000D02*
X695500D01*
X674500D02*
X693500D01*
Y300000D02*
X695500D01*
X674500D02*
X693500D01*
Y210000D02*
X695500D01*
X674500D02*
X693500D01*
Y310000D02*
X695500D01*
X674500D02*
X693500D01*
Y330000D02*
X695500D01*
X674500D02*
X693500D01*
Y340000D02*
X695500D01*
X674500D02*
X693500D01*
Y200000D02*
X695500D01*
X674500D02*
X693500D01*
Y350000D02*
X695500D01*
X674500D02*
X693500D01*
Y280000D02*
X695500D01*
X674500D02*
X693500D01*
Y360000D02*
X695500D01*
X674500D02*
X693500D01*
X674500Y220000D02*
X695500D01*
X674500Y230000D02*
X695500D01*
X674500Y240000D02*
X695500D01*
X674500Y250000D02*
X695500D01*
X674500Y260000D02*
X695500D01*
X674500Y270000D02*
X695500D01*
X557500D02*
X565000D01*
X552500Y265000D02*
X557500Y270000D01*
X515000Y265000D02*
X552500D01*
X510000Y270000D02*
X515000Y265000D01*
X485000Y270000D02*
X510000D01*
Y280000D02*
X515000Y275000D01*
X485000Y280000D02*
X510000D01*
Y290000D02*
X515000Y285000D01*
X485000Y290000D02*
X510000D01*
X669500Y275000D02*
X674500Y280000D01*
D14*
X546500Y152500D02*
X567500D01*
D15*
X664500Y390000D02*
D03*
D16*
X674500D02*
D03*
X664500Y380000D02*
D03*
X674500D02*
D03*
X664500Y370000D02*
D03*
X674500D02*
D03*
X664500Y360000D02*
D03*
X674500D02*
D03*
X664500Y350000D02*
D03*
X674500D02*
D03*
X664500Y340000D02*
D03*
X674500D02*
D03*
X664500Y330000D02*
D03*
X674500D02*
D03*
X664500Y320000D02*
D03*
X674500D02*
D03*
X664500Y310000D02*
D03*
X674500D02*
D03*
X664500Y300000D02*
D03*
X674500D02*
D03*
X664500Y290000D02*
D03*
X674500D02*
D03*
X664500Y280000D02*
D03*
X674500D02*
D03*
X664500Y270000D02*
D03*
X674500D02*
D03*
X664500Y260000D02*
D03*
X674500D02*
D03*
X664500Y250000D02*
D03*
X674500D02*
D03*
X664500Y240000D02*
D03*
X674500D02*
D03*
X664500Y230000D02*
D03*
X674500D02*
D03*
X664500Y220000D02*
D03*
X674500D02*
D03*
X664500Y210000D02*
D03*
X674500D02*
D03*
X664500Y200000D02*
D03*
X674500D02*
D03*
D17*
X669500Y157500D02*
D03*
Y432500D02*
D03*
X494500D02*
D03*
Y157500D02*
D03*
D18*
X505000Y410000D02*
D03*
X485000D02*
D03*
X482500Y180000D02*
D03*
X502500D02*
D03*
D19*
X605000Y427500D02*
D03*
Y417500D02*
D03*
Y437500D02*
D03*
X615000Y427500D02*
D03*
Y417500D02*
D03*
Y437500D02*
D03*
X625000Y427500D02*
D03*
Y417500D02*
D03*
Y437500D02*
D03*
X635000Y427500D02*
D03*
Y417500D02*
D03*
Y437500D02*
D03*
X535000Y427500D02*
D03*
Y417500D02*
D03*
Y437500D02*
D03*
X545000Y427500D02*
D03*
Y417500D02*
D03*
Y437500D02*
D03*
X555000Y427500D02*
D03*
Y417500D02*
D03*
Y437500D02*
D03*
X565000Y427500D02*
D03*
Y417500D02*
D03*
Y437500D02*
D03*
X637500Y172500D02*
D03*
Y152500D02*
D03*
Y162500D02*
D03*
X567500D02*
D03*
Y152500D02*
D03*
Y172500D02*
D03*
X577500Y162500D02*
D03*
Y152500D02*
D03*
Y172500D02*
D03*
X587500Y162500D02*
D03*
Y152500D02*
D03*
Y172500D02*
D03*
X597500Y162500D02*
D03*
Y152500D02*
D03*
Y172500D02*
D03*
X607500Y162500D02*
D03*
Y152500D02*
D03*
Y172500D02*
D03*
X617500Y162500D02*
D03*
Y152500D02*
D03*
Y172500D02*
D03*
X627500Y162500D02*
D03*
Y152500D02*
D03*
Y172500D02*
D03*
D20*
X528000Y162500D02*
D03*
Y152500D02*
D03*
Y172500D02*
D03*
X546500Y162500D02*
D03*
Y152500D02*
D03*
Y172500D02*
D03*
D21*
X485000Y390000D02*
D03*
X565000D02*
D03*
D22*
X485000Y380000D02*
D03*
Y370000D02*
D03*
Y360000D02*
D03*
Y350000D02*
D03*
Y340000D02*
D03*
Y330000D02*
D03*
Y320000D02*
D03*
Y310000D02*
D03*
Y300000D02*
D03*
Y290000D02*
D03*
Y280000D02*
D03*
Y270000D02*
D03*
Y260000D02*
D03*
X545000D02*
D03*
Y270000D02*
D03*
Y280000D02*
D03*
Y290000D02*
D03*
Y300000D02*
D03*
Y310000D02*
D03*
Y320000D02*
D03*
Y330000D02*
D03*
Y340000D02*
D03*
Y350000D02*
D03*
Y360000D02*
D03*
Y370000D02*
D03*
Y380000D02*
D03*
Y390000D02*
D03*
X625000D02*
D03*
Y380000D02*
D03*
Y370000D02*
D03*
Y360000D02*
D03*
Y350000D02*
D03*
Y340000D02*
D03*
Y330000D02*
D03*
Y320000D02*
D03*
Y310000D02*
D03*
Y300000D02*
D03*
Y290000D02*
D03*
Y280000D02*
D03*
Y270000D02*
D03*
Y260000D02*
D03*
X565000D02*
D03*
Y270000D02*
D03*
Y280000D02*
D03*
Y290000D02*
D03*
Y300000D02*
D03*
Y310000D02*
D03*
Y320000D02*
D03*
Y330000D02*
D03*
Y340000D02*
D03*
Y350000D02*
D03*
Y360000D02*
D03*
Y370000D02*
D03*
Y380000D02*
D03*
D23*
X567500Y225000D02*
D03*
X577500D02*
D03*
X587500D02*
D03*
X597500D02*
D03*
X607500D02*
D03*
X617500D02*
D03*
X627500D02*
D03*
X637500D02*
D03*
Y195000D02*
D03*
X627500D02*
D03*
X617500D02*
D03*
X607500D02*
D03*
X597500D02*
D03*
X587500D02*
D03*
X577500D02*
D03*
X482500Y225000D02*
D03*
X492500D02*
D03*
X502500D02*
D03*
X512500D02*
D03*
X522500D02*
D03*
X532500D02*
D03*
X542500D02*
D03*
Y195000D02*
D03*
X532500D02*
D03*
X522500D02*
D03*
X512500D02*
D03*
X502500D02*
D03*
X492500D02*
D03*
D24*
X567500D02*
D03*
X482500D02*
D03*
D25*
X507500Y239500D02*
D03*
X574500Y404000D02*
D03*
X645000Y405000D02*
D03*
X650000Y410000D02*
D03*
X582500Y403000D02*
D03*
X579000Y315000D02*
D03*
Y250000D02*
D03*
X560000D02*
D03*
X596500Y249500D02*
D03*
X591000Y245500D02*
D03*
X596500Y305000D02*
D03*
X582500Y233000D02*
D03*
X637500Y390000D02*
D03*
Y340000D02*
D03*
Y310000D02*
D03*
X636000Y300000D02*
D03*
X592500Y325000D02*
D03*
X600500Y238500D02*
D03*
X591000Y290000D02*
D03*
X586500Y240000D02*
D03*
Y280000D02*
D03*
X605000Y400000D02*
D03*
X600000Y389500D02*
D03*
X587500Y412500D02*
D03*
X645000Y230000D02*
D03*
X572500Y235000D02*
D03*
X592500D02*
D03*
X632500Y210000D02*
D03*
X595000Y380000D02*
D03*
X612500Y260000D02*
D03*
Y285000D02*
D03*
X640000Y280000D02*
D03*
X642500Y330000D02*
D03*
X647500Y285000D02*
D03*
Y320000D02*
D03*
X550000Y252500D02*
D03*
X560000Y222500D02*
D03*
X492500Y210000D02*
D03*
X532500D02*
D03*
X520000Y390000D02*
D03*
X595000Y365000D02*
D03*
X642500Y385000D02*
D03*
Y350000D02*
D03*
X545000Y397500D02*
D03*
X615000Y400000D02*
D03*
X550000Y222500D02*
D03*
M02*
