G04 Layer_Physical_Order=2*
G04 Layer_Color=16711680*
%FSLAX25Y25*%
%MOIN*%
G70*
G01*
G75*
%ADD10R,0.07874X0.05000*%
%ADD11C,0.01000*%
%ADD12C,0.03000*%
%ADD13C,0.01500*%
%ADD14C,0.02000*%
%ADD15R,0.07000X0.07000*%
%ADD16C,0.07000*%
%ADD17C,0.25000*%
%ADD18C,0.07500*%
%ADD19C,0.06693*%
%ADD20C,0.08000*%
%ADD21R,0.08500X0.06200*%
%ADD22O,0.12000X0.05118*%
%ADD23O,0.05118X0.12000*%
%ADD24R,0.06200X0.08500*%
%ADD25C,0.04724*%
D10*
X693500Y205000D02*
D03*
Y215000D02*
D03*
Y225000D02*
D03*
Y235000D02*
D03*
Y245000D02*
D03*
Y255000D02*
D03*
Y265000D02*
D03*
Y275000D02*
D03*
Y285000D02*
D03*
Y295000D02*
D03*
Y305000D02*
D03*
Y315000D02*
D03*
Y325000D02*
D03*
Y335000D02*
D03*
Y345000D02*
D03*
Y355000D02*
D03*
Y365000D02*
D03*
Y375000D02*
D03*
Y385000D02*
D03*
Y395000D02*
D03*
D11*
X530000Y262000D02*
Y304500D01*
X507500Y239500D02*
X530000Y262000D01*
X597500Y195000D02*
Y202000D01*
X589500Y210000D02*
X597500Y202000D01*
X557500Y210000D02*
X589500D01*
X574500Y254500D02*
Y404000D01*
X572500Y252500D02*
X574500Y254500D01*
X572500Y235000D02*
Y252500D01*
X630000Y405000D02*
X645000D01*
X625000Y410000D02*
X630000Y405000D01*
X645000Y397000D02*
Y405000D01*
X650000Y372500D02*
Y410000D01*
X645000Y397000D02*
X647500Y394500D01*
X582500Y318500D02*
Y403000D01*
Y318500D02*
X583500Y317500D01*
Y313000D02*
Y317500D01*
X582500Y312000D02*
X583500Y313000D01*
X582500Y253500D02*
Y312000D01*
Y253500D02*
X583500Y252500D01*
Y248500D02*
Y252500D01*
X582500Y247500D02*
X583500Y248500D01*
X582500Y233000D02*
Y247500D01*
X579000Y250000D02*
Y315000D01*
X560000Y222500D02*
Y250000D01*
X596500Y249500D02*
Y305000D01*
X558500Y207000D02*
X582000D01*
X555000Y203500D02*
X558500Y207000D01*
X524500Y203500D02*
X555000D01*
X591000Y245500D02*
Y290000D01*
X512500Y195000D02*
Y202000D01*
X514000Y203500D01*
X520500D01*
X522500Y201500D01*
X484000Y206000D02*
X491500D01*
X482500Y204500D02*
X484000Y206000D01*
X482500Y195000D02*
Y204500D01*
X491500Y206000D02*
X492500Y205000D01*
Y195000D02*
Y205000D01*
X493500Y206000D01*
X553500D01*
X670500Y205000D02*
X678500D01*
X670500Y215000D02*
X678500D01*
X670500Y225000D02*
X678500D01*
X670500Y235000D02*
X678500D01*
X670500Y245000D02*
X678500D01*
X670500Y255000D02*
X678500D01*
X670500Y265000D02*
X678500D01*
X670500Y275000D02*
X678500D01*
X670500Y285000D02*
X678500D01*
X670500Y295000D02*
X678500D01*
X670500Y305000D02*
X678500D01*
X670500Y315000D02*
X678500D01*
X670500Y325000D02*
X678500D01*
X670500Y335000D02*
X678500D01*
X670500Y345000D02*
X678500D01*
X670500Y355000D02*
X678500D01*
X670500Y365000D02*
X678500D01*
X670500Y375000D02*
X678500D01*
X670500Y385000D02*
X678500D01*
X670500Y395000D02*
X678500D01*
X637500Y340000D02*
Y390000D01*
X657500Y350000D02*
X664500D01*
X642500Y335000D02*
X657500Y350000D01*
X613000Y335000D02*
X642500D01*
X640500Y288000D02*
Y302500D01*
X637500Y305500D02*
X640500Y302500D01*
X637500Y305500D02*
Y310000D01*
X632500Y280000D02*
X640500Y288000D01*
X642500Y282500D02*
Y330000D01*
X640000Y280000D02*
X642500Y282500D01*
X632500Y290000D02*
X636000Y293500D01*
Y300000D01*
X553500Y206000D02*
X557500Y210000D01*
X610500Y332500D02*
X613000Y335000D01*
X610500Y315000D02*
Y332500D01*
X605000Y337500D02*
Y400000D01*
X592500Y325000D02*
X605000Y337500D01*
X600500Y238500D02*
Y307000D01*
X587500Y320000D02*
X600500Y307000D01*
X587500Y320000D02*
Y412500D01*
X605000Y309500D02*
X610500Y315000D01*
X605000Y235500D02*
Y309500D01*
X603000Y233500D02*
X605000Y235500D01*
X598500Y233500D02*
X603000D01*
X597000Y235000D02*
X598500Y233500D01*
X592500Y235000D02*
X597000D01*
X586500Y240000D02*
Y280000D01*
X625000Y410000D02*
Y417500D01*
X600000Y389500D02*
Y407500D01*
X617500Y330000D02*
X625000D01*
X615000Y327500D02*
X617500Y330000D01*
X615000Y315000D02*
Y327500D01*
X607500Y307500D02*
X615000Y315000D01*
X607500Y247500D02*
Y307500D01*
Y247500D02*
X612500Y242500D01*
X632500D01*
X645000Y230000D01*
X650000Y372500D02*
X652500Y370000D01*
X664500D01*
X647500Y362500D02*
X650000Y360000D01*
X664500D01*
X637500Y162500D02*
X642500D01*
X645000Y165000D01*
Y205000D01*
X640000Y210000D02*
X645000Y205000D01*
X632500Y210000D02*
X640000D01*
X625000Y290000D02*
X632500D01*
X612500Y260000D02*
Y285000D01*
X625000Y280000D02*
X632500D01*
X647500Y285000D02*
Y320000D01*
X532500Y225000D02*
Y232500D01*
X530000Y235000D02*
X532500Y232500D01*
X505000Y235000D02*
X530000D01*
X502500Y232500D02*
X505000Y235000D01*
X502500Y225000D02*
Y232500D01*
X492500Y210000D02*
X532500D01*
X535500Y310000D02*
X545000D01*
X530000Y304500D02*
X535500Y310000D01*
X610000Y422000D02*
X615000Y427000D01*
X522500Y195000D02*
Y201500D01*
X524500Y203500D01*
X582000Y207000D02*
X587500Y201500D01*
Y195000D02*
Y201500D01*
X597500Y410000D02*
X600000Y407500D01*
X597500Y410000D02*
Y419500D01*
X605000Y427000D01*
X545000Y380000D02*
X552500D01*
X555000Y382500D01*
Y392500D01*
X550000Y397500D02*
X555000Y392500D01*
X550000Y422500D02*
X555000Y427500D01*
X550000Y397500D02*
Y422500D01*
X527500Y427500D02*
X535000D01*
X540000Y422500D02*
X545000Y427500D01*
X532500Y372500D02*
X535000Y370000D01*
X545000D01*
X532500Y372500D02*
Y390500D01*
X540000Y398000D01*
Y422500D01*
X595000Y365000D02*
Y380000D01*
X642500Y350000D02*
Y385000D01*
X610000Y375000D02*
Y422000D01*
Y375000D02*
X615000Y370000D01*
X625000D01*
X620000Y422000D02*
X625000Y427000D01*
X615000Y382500D02*
X617500Y380000D01*
X625000D01*
X615000Y400000D02*
Y417500D01*
X545000Y397500D02*
Y417500D01*
X647500Y362500D02*
Y394500D01*
X615000Y382500D02*
Y391000D01*
X620000Y396000D01*
Y422000D01*
X520000Y420000D02*
X527500Y427500D01*
X520000Y390000D02*
Y420000D01*
D12*
X545000Y445000D02*
X565000D01*
X545000Y437500D02*
Y445000D01*
X535000Y437500D02*
X545000D01*
X540000Y185000D02*
X542500Y187500D01*
X507500Y185000D02*
X540000D01*
X502500Y180000D02*
X507500Y185000D01*
X472500Y392000D02*
X480500Y400000D01*
X472500Y217500D02*
X475000Y215000D01*
X617500Y205000D02*
X627500Y215000D01*
X647500D01*
X652500Y220000D01*
Y282500D01*
X660000Y290000D01*
X664500D01*
X567500Y217500D02*
X570000Y215000D01*
X607500D01*
X617500Y205000D01*
Y195000D02*
Y205000D01*
X480000Y215000D02*
X482500Y217500D01*
X475000Y215000D02*
X480000D01*
X472500Y212500D02*
X475000Y215000D01*
X472500Y182500D02*
Y212500D01*
Y182500D02*
X475000Y180000D01*
X482500D01*
Y217500D02*
Y225000D01*
Y217500D02*
X485000Y215000D01*
X565000D01*
X567500Y217500D01*
Y225000D01*
X542500Y187500D02*
Y195000D01*
Y187500D02*
X545000Y185000D01*
X605000D01*
X607500Y187500D01*
Y195000D01*
Y187500D02*
X610000Y185000D01*
X635000D01*
X637500Y187500D01*
Y195000D01*
X565000Y437500D02*
Y445000D01*
X605000D01*
X615000D01*
X635000D01*
X472500Y217500D02*
Y392000D01*
X505000Y405000D02*
Y410000D01*
X500000Y400000D02*
X505000Y405000D01*
X480500Y400000D02*
X500000D01*
X505000Y410000D02*
Y417000D01*
X525500Y437500D01*
X535000D01*
X605000Y437000D02*
Y437500D01*
Y445000D01*
X615000Y437000D02*
Y437500D01*
Y445000D01*
X635000Y437000D02*
Y437500D01*
Y445000D01*
X550000Y222500D02*
Y252500D01*
D13*
X693500Y295000D02*
X695500D01*
X678500D02*
X693500D01*
Y215000D02*
X695500D01*
X678500D02*
X693500D01*
Y305000D02*
X695500D01*
X678500D02*
X693500D01*
Y395000D02*
X695500D01*
X678500D02*
X693500D01*
Y325000D02*
X695500D01*
X678500D02*
X693500D01*
Y335000D02*
X695500D01*
X678500D02*
X693500D01*
Y385000D02*
X695500D01*
X678500D02*
X693500D01*
Y375000D02*
X695500D01*
X678500D02*
X693500D01*
Y315000D02*
X695500D01*
X678500D02*
X693500D01*
Y285000D02*
X695500D01*
X678500D02*
X693500D01*
Y275000D02*
X695500D01*
X678500D02*
X693500D01*
Y365000D02*
X695500D01*
X678500D02*
X693500D01*
Y255000D02*
X695500D01*
X678500D02*
X693500D01*
Y355000D02*
X695500D01*
X678500D02*
X693500D01*
Y265000D02*
X695500D01*
X678500D02*
X693500D01*
X664500Y200000D02*
X669500Y205000D01*
X678500D02*
X695500D01*
X669500D02*
X670500D01*
X664500Y210000D02*
X669500Y215000D01*
X670500D01*
X664500Y220000D02*
X669500Y225000D01*
X678500D02*
X695500D01*
X669500D02*
X670500D01*
X664500Y230000D02*
X669500Y235000D01*
X678500D02*
X695500D01*
X669500D02*
X670500D01*
X664500Y240000D02*
X669500Y245000D01*
X678500D02*
X695500D01*
X669500D02*
X670500D01*
X664500Y250000D02*
X669500Y255000D01*
X670500D01*
X664500Y260000D02*
X669500Y265000D01*
X670500D01*
X664500Y270000D02*
X669500Y275000D01*
X670500D01*
X664500Y280000D02*
X669500Y285000D01*
X670500D01*
X664500Y290000D02*
X669500Y295000D01*
X670500D01*
X664500Y300000D02*
X669500Y305000D01*
X670500D01*
X664500Y310000D02*
X669500Y315000D01*
X670500D01*
X664500Y320000D02*
X669500Y325000D01*
X670500D01*
X664500Y330000D02*
X669500Y335000D01*
X670500D01*
X664500Y340000D02*
X669500Y345000D01*
X678500D02*
X695500D01*
X669500D02*
X670500D01*
X664500Y350000D02*
X669500Y355000D01*
X670500D01*
X664500Y360000D02*
X669500Y365000D01*
X670500D01*
X664500Y370000D02*
X669500Y375000D01*
X670500D01*
X664500Y380000D02*
X669500Y385000D01*
X670500D01*
X669500Y395000D02*
X670500D01*
X664500Y390000D02*
X669500Y395000D01*
X555000Y437500D02*
X565000Y427500D01*
X557500Y162500D02*
X567500Y172500D01*
X557500Y147500D02*
Y162500D01*
X528000Y152500D02*
X535000D01*
X542500Y145000D01*
X555000D01*
X557500Y147500D01*
X625000Y437000D02*
X635000Y427000D01*
D14*
X567500Y172500D02*
X577500D01*
X587500D01*
X597500D01*
X607500D01*
X617500D01*
X627500D01*
X637500D01*
X567500Y152500D02*
X577500D01*
X587500D01*
X597500D01*
X607500D01*
X617500D01*
X627500D01*
X637500D01*
D15*
X664500Y390000D02*
D03*
D16*
X674500D02*
D03*
X664500Y380000D02*
D03*
X674500D02*
D03*
X664500Y370000D02*
D03*
X674500D02*
D03*
X664500Y360000D02*
D03*
X674500D02*
D03*
X664500Y350000D02*
D03*
X674500D02*
D03*
X664500Y340000D02*
D03*
X674500D02*
D03*
X664500Y330000D02*
D03*
X674500D02*
D03*
X664500Y320000D02*
D03*
X674500D02*
D03*
X664500Y310000D02*
D03*
X674500D02*
D03*
X664500Y300000D02*
D03*
X674500D02*
D03*
X664500Y290000D02*
D03*
X674500D02*
D03*
X664500Y280000D02*
D03*
X674500D02*
D03*
X664500Y270000D02*
D03*
X674500D02*
D03*
X664500Y260000D02*
D03*
X674500D02*
D03*
X664500Y250000D02*
D03*
X674500D02*
D03*
X664500Y240000D02*
D03*
X674500D02*
D03*
X664500Y230000D02*
D03*
X674500D02*
D03*
X664500Y220000D02*
D03*
X674500D02*
D03*
X664500Y210000D02*
D03*
X674500D02*
D03*
X664500Y200000D02*
D03*
X674500D02*
D03*
D17*
X669500Y157500D02*
D03*
Y432500D02*
D03*
X494500D02*
D03*
Y157500D02*
D03*
D18*
X505000Y410000D02*
D03*
X485000D02*
D03*
X482500Y180000D02*
D03*
X502500D02*
D03*
D19*
X605000Y427500D02*
D03*
Y417500D02*
D03*
Y437500D02*
D03*
X615000Y427500D02*
D03*
Y417500D02*
D03*
Y437500D02*
D03*
X625000Y427500D02*
D03*
Y417500D02*
D03*
Y437500D02*
D03*
X635000Y427500D02*
D03*
Y417500D02*
D03*
Y437500D02*
D03*
X535000Y427500D02*
D03*
Y417500D02*
D03*
Y437500D02*
D03*
X545000Y427500D02*
D03*
Y417500D02*
D03*
Y437500D02*
D03*
X555000Y427500D02*
D03*
Y417500D02*
D03*
Y437500D02*
D03*
X565000Y427500D02*
D03*
Y417500D02*
D03*
Y437500D02*
D03*
X637500Y172500D02*
D03*
Y152500D02*
D03*
Y162500D02*
D03*
X567500D02*
D03*
Y152500D02*
D03*
Y172500D02*
D03*
X577500Y162500D02*
D03*
Y152500D02*
D03*
Y172500D02*
D03*
X587500Y162500D02*
D03*
Y152500D02*
D03*
Y172500D02*
D03*
X597500Y162500D02*
D03*
Y152500D02*
D03*
Y172500D02*
D03*
X607500Y162500D02*
D03*
Y152500D02*
D03*
Y172500D02*
D03*
X617500Y162500D02*
D03*
Y152500D02*
D03*
Y172500D02*
D03*
X627500Y162500D02*
D03*
Y152500D02*
D03*
Y172500D02*
D03*
D20*
X528000Y162500D02*
D03*
Y152500D02*
D03*
Y172500D02*
D03*
X546500Y162500D02*
D03*
Y152500D02*
D03*
Y172500D02*
D03*
D21*
X485000Y390000D02*
D03*
X565000D02*
D03*
D22*
X485000Y380000D02*
D03*
Y370000D02*
D03*
Y360000D02*
D03*
Y350000D02*
D03*
Y340000D02*
D03*
Y330000D02*
D03*
Y320000D02*
D03*
Y310000D02*
D03*
Y300000D02*
D03*
Y290000D02*
D03*
Y280000D02*
D03*
Y270000D02*
D03*
Y260000D02*
D03*
X545000D02*
D03*
Y270000D02*
D03*
Y280000D02*
D03*
Y290000D02*
D03*
Y300000D02*
D03*
Y310000D02*
D03*
Y320000D02*
D03*
Y330000D02*
D03*
Y340000D02*
D03*
Y350000D02*
D03*
Y360000D02*
D03*
Y370000D02*
D03*
Y380000D02*
D03*
Y390000D02*
D03*
X625000D02*
D03*
Y380000D02*
D03*
Y370000D02*
D03*
Y360000D02*
D03*
Y350000D02*
D03*
Y340000D02*
D03*
Y330000D02*
D03*
Y320000D02*
D03*
Y310000D02*
D03*
Y300000D02*
D03*
Y290000D02*
D03*
Y280000D02*
D03*
Y270000D02*
D03*
Y260000D02*
D03*
X565000D02*
D03*
Y270000D02*
D03*
Y280000D02*
D03*
Y290000D02*
D03*
Y300000D02*
D03*
Y310000D02*
D03*
Y320000D02*
D03*
Y330000D02*
D03*
Y340000D02*
D03*
Y350000D02*
D03*
Y360000D02*
D03*
Y370000D02*
D03*
Y380000D02*
D03*
D23*
X567500Y225000D02*
D03*
X577500D02*
D03*
X587500D02*
D03*
X597500D02*
D03*
X607500D02*
D03*
X617500D02*
D03*
X627500D02*
D03*
X637500D02*
D03*
Y195000D02*
D03*
X627500D02*
D03*
X617500D02*
D03*
X607500D02*
D03*
X597500D02*
D03*
X587500D02*
D03*
X577500D02*
D03*
X482500Y225000D02*
D03*
X492500D02*
D03*
X502500D02*
D03*
X512500D02*
D03*
X522500D02*
D03*
X532500D02*
D03*
X542500D02*
D03*
Y195000D02*
D03*
X532500D02*
D03*
X522500D02*
D03*
X512500D02*
D03*
X502500D02*
D03*
X492500D02*
D03*
D24*
X567500D02*
D03*
X482500D02*
D03*
D25*
X507500Y239500D02*
D03*
X574500Y404000D02*
D03*
X645000Y405000D02*
D03*
X650000Y410000D02*
D03*
X582500Y403000D02*
D03*
X579000Y315000D02*
D03*
Y250000D02*
D03*
X560000D02*
D03*
X596500Y249500D02*
D03*
X591000Y245500D02*
D03*
X596500Y305000D02*
D03*
X582500Y233000D02*
D03*
X637500Y390000D02*
D03*
Y340000D02*
D03*
Y310000D02*
D03*
X636000Y300000D02*
D03*
X592500Y325000D02*
D03*
X600500Y238500D02*
D03*
X591000Y290000D02*
D03*
X586500Y240000D02*
D03*
Y280000D02*
D03*
X605000Y400000D02*
D03*
X600000Y389500D02*
D03*
X587500Y412500D02*
D03*
X645000Y230000D02*
D03*
X572500Y235000D02*
D03*
X592500D02*
D03*
X632500Y210000D02*
D03*
X595000Y380000D02*
D03*
X612500Y260000D02*
D03*
Y285000D02*
D03*
X640000Y280000D02*
D03*
X642500Y330000D02*
D03*
X647500Y285000D02*
D03*
Y320000D02*
D03*
X550000Y252500D02*
D03*
X560000Y222500D02*
D03*
X492500Y210000D02*
D03*
X532500D02*
D03*
X520000Y390000D02*
D03*
X595000Y365000D02*
D03*
X642500Y385000D02*
D03*
Y350000D02*
D03*
X545000Y397500D02*
D03*
X615000Y400000D02*
D03*
X550000Y222500D02*
D03*
M02*
