G04 Layer_Physical_Order=2*
G04 Layer_Color=16711680*
%FSLAX25Y25*%
%MOIN*%
G70*
G01*
G75*
%ADD10R,0.07874X0.05000*%
%ADD11C,0.03000*%
%ADD13C,0.01500*%
%ADD14C,0.01000*%
%ADD15C,0.00900*%
%ADD16C,0.02000*%
%ADD17R,0.08500X0.06200*%
%ADD18O,0.12000X0.05118*%
%ADD19C,0.25000*%
%ADD20C,0.06500*%
%ADD21C,0.07500*%
%ADD22O,0.11811X0.06693*%
%ADD23C,0.06299*%
%ADD24R,0.06299X0.06299*%
%ADD25C,0.06000*%
%ADD26C,0.07400*%
%ADD27R,0.07000X0.07000*%
%ADD28C,0.07000*%
%ADD29C,0.05118*%
D10*
X693500Y205000D02*
D03*
Y215000D02*
D03*
Y225000D02*
D03*
Y235000D02*
D03*
Y245000D02*
D03*
Y255000D02*
D03*
Y265000D02*
D03*
Y275000D02*
D03*
Y285000D02*
D03*
Y295000D02*
D03*
Y305000D02*
D03*
Y315000D02*
D03*
Y325000D02*
D03*
Y335000D02*
D03*
Y345000D02*
D03*
Y355000D02*
D03*
Y365000D02*
D03*
Y375000D02*
D03*
Y385000D02*
D03*
Y395000D02*
D03*
D11*
X470000Y220000D02*
X477500Y212500D01*
Y186900D02*
Y212500D01*
X537500Y172500D02*
X556500D01*
X574000Y190000D01*
X542500Y145000D02*
X545500Y142000D01*
X639000D01*
X542500Y149500D02*
Y160000D01*
Y145000D02*
Y149500D01*
X642000Y145000D02*
Y149500D01*
X639000Y142000D02*
X642000Y145000D01*
X562500Y290000D02*
X582500D01*
X605000D01*
X610000Y285000D01*
X486900Y177500D02*
X500000D01*
X477500Y186900D02*
X486900Y177500D01*
X510000Y407500D02*
X525000D01*
X482500Y347500D02*
X495000D01*
X476814Y311500D02*
Y341814D01*
X470000Y304686D02*
X476814Y311500D01*
X470000Y220000D02*
Y304686D01*
X532500Y290000D02*
X562500D01*
X522500Y280000D02*
X532500Y290000D01*
X507500Y253000D02*
Y272000D01*
X482500Y277500D02*
X502000D01*
X507500Y272000D01*
X482500Y245000D02*
X499500D01*
X507500Y253000D01*
X642000Y149500D02*
Y160000D01*
X476814Y341814D02*
X482500Y347500D01*
X507500Y272000D02*
X522500D01*
Y280000D01*
X510000Y397500D02*
X525000D01*
X510000D02*
Y407500D01*
X495000D02*
X510000D01*
Y377500D02*
Y397500D01*
Y377500D02*
X525000D01*
X540000Y343500D02*
Y377814D01*
X525000Y397500D02*
X540000D01*
X482500Y347500D02*
Y385000D01*
X485000Y387500D01*
X495000D01*
X536086Y311500D02*
Y339586D01*
X540000Y343500D01*
X522500Y172500D02*
Y179500D01*
X500000Y177500D02*
X505000Y172500D01*
X537500D02*
Y180314D01*
X505000Y172500D02*
X522500D01*
X530500Y155000D02*
Y172500D01*
X522500D02*
X530500D01*
X537500D01*
D13*
X532500Y244000D02*
Y252500D01*
X523500Y235000D02*
X532500Y244000D01*
X482500Y235000D02*
X523500D01*
X507500Y213000D02*
Y217500D01*
X512500Y222500D01*
X542500Y245000D02*
X552500Y255000D01*
X532500Y212500D02*
X540000Y220000D01*
X562500D01*
X496500Y296500D02*
Y311500D01*
X592500Y265000D02*
X617500D01*
X587500Y270000D02*
X592500Y265000D01*
X582500Y270000D02*
X587500D01*
X592500Y275000D02*
X617500D01*
X587500Y280000D02*
X592500Y275000D01*
X582500Y280000D02*
X587500D01*
X602500Y195000D02*
X617500D01*
X628500D02*
X640000D01*
X597500Y200000D02*
X602500Y195000D01*
X582500Y200000D02*
X597500D01*
X652500D02*
X664500D01*
X582500Y220000D02*
X597500D01*
X602500Y215000D01*
X647500D02*
X652500Y220000D01*
X664500D01*
X602500Y215000D02*
X617500D01*
X628500D02*
X640000D01*
X582500Y230000D02*
X597500D01*
X602500Y225000D01*
X647500D02*
X652500Y230000D01*
X664500D01*
X628500Y225000D02*
X640000D01*
X582500Y240000D02*
X597500D01*
X602500Y235000D01*
X647500D02*
X652500Y240000D01*
X664500D01*
X602500Y235000D02*
X617500D01*
X628500D02*
X640000D01*
X582500Y250000D02*
X597500D01*
X602500Y245000D01*
X647500D02*
X652500Y250000D01*
X664500D01*
X602500Y245000D02*
X617500D01*
X628500D02*
X640000D01*
X582500Y260000D02*
X597500D01*
X602500Y255000D01*
X647500D02*
X652500Y260000D01*
X664500D01*
X602500Y255000D02*
X617500D01*
X628500D02*
X640000D01*
X647500Y265000D02*
X652500Y270000D01*
X664500D01*
X628500Y265000D02*
X640000D01*
X647500Y275000D02*
X652500Y280000D01*
X664500D01*
X628500Y275000D02*
X640000D01*
X582500Y300000D02*
X597500D01*
X602500Y295000D01*
X647500D02*
X652500Y300000D01*
X664500D01*
X602500Y295000D02*
X617500D01*
X628500D02*
X640000D01*
X582500Y310000D02*
X597500D01*
X602500Y305000D01*
X647500D02*
X652500Y310000D01*
X664500D01*
X602500Y305000D02*
X617500D01*
X628500D02*
X640000D01*
X582500Y320000D02*
X597500D01*
X602500Y315000D01*
X647500D02*
X652500Y320000D01*
X664500D01*
X602500Y315000D02*
X617500D01*
X628500D02*
X640000D01*
X582500Y330000D02*
X597500D01*
X602500Y325000D01*
X647500D02*
X652500Y330000D01*
X664500D01*
X602500Y325000D02*
X617500D01*
X628500D02*
X640000D01*
X582500Y340000D02*
X597500D01*
X602500Y335000D01*
X647500D02*
X652500Y340000D01*
X664500D01*
X602500Y335000D02*
X617500D01*
X628500D02*
X640000D01*
X582500Y350000D02*
X597500D01*
X602500Y345000D01*
X647500D02*
X652500Y350000D01*
X664500D01*
X602500Y345000D02*
X617500D01*
X628500D02*
X640000D01*
X582500Y360000D02*
X597500D01*
X602500Y355000D01*
X647500D02*
X652500Y360000D01*
X664500D01*
X602500Y355000D02*
X617500D01*
X628500D02*
X640000D01*
X582500Y370000D02*
X597500D01*
X602500Y365000D01*
X647500D02*
X652500Y370000D01*
X664500D01*
X602500Y365000D02*
X617500D01*
X628500D02*
X640000D01*
X582500Y380000D02*
X597500D01*
X602500Y375000D01*
X647500D02*
X652500Y380000D01*
X664500D01*
X602500Y375000D02*
X617500D01*
X628500D02*
X640000D01*
X582500Y390000D02*
X597500D01*
X602500Y385000D01*
X647500D02*
X652500Y390000D01*
X664500D01*
X602500Y385000D02*
X617500D01*
X628500D02*
X640000D01*
X628500Y205000D02*
X640000D01*
X602500D02*
X617500D01*
X652500Y210000D02*
X664500D01*
X647500Y205000D02*
X652500Y210000D01*
X647500Y195000D02*
X652500Y200000D01*
X622500Y320000D02*
X642500D01*
X622500Y250000D02*
X642500D01*
X562500Y340000D02*
X582500D01*
X562500Y230000D02*
X582500D01*
X597500Y210000D02*
X602500Y205000D01*
X562500Y220000D02*
X582500D01*
X622500Y370000D02*
X642500D01*
X622500Y210000D02*
X642500D01*
X562500Y310000D02*
X582500D01*
X622500Y270000D02*
X642500D01*
X622500Y220000D02*
X642500D01*
X622500Y350000D02*
X642500D01*
X562500D02*
X582500D01*
X562500Y300000D02*
X582500D01*
X622500Y260000D02*
X642500D01*
X622500Y340000D02*
X642500D01*
X622500Y360000D02*
X642500D01*
X562500Y200000D02*
X582500D01*
X622500D02*
X642500D01*
X622500Y330000D02*
X642500D01*
X562500Y360000D02*
X582500D01*
X562500Y260000D02*
X582500D01*
X562500Y370000D02*
X582500D01*
X562500Y240000D02*
X582500D01*
X562500Y210000D02*
X582500D01*
X597500D01*
X562500Y250000D02*
X582500D01*
X562500Y380000D02*
X582500D01*
X622500Y290000D02*
X642500D01*
X562500Y280000D02*
X582500D01*
X622500Y300000D02*
X642500D01*
X562500Y270000D02*
X582500D01*
X562500Y390000D02*
X582500D01*
X622500Y310000D02*
X642500D01*
X562500Y320000D02*
X582500D01*
X627500Y390000D02*
X642500D01*
X622500Y240000D02*
X642500D01*
X562500Y330000D02*
X582500D01*
X622500Y380000D02*
X642500D01*
X622500Y230000D02*
X642500D01*
X602500Y225000D02*
X617500D01*
X602500Y250000D02*
X622500D01*
X597500Y255000D02*
X602500Y250000D01*
X552500Y255000D02*
X597500D01*
X496500Y311500D02*
Y319000D01*
X494000Y321500D02*
X496500Y319000D01*
X485000Y321500D02*
X494000D01*
X525000D02*
Y332500D01*
X512500Y222500D02*
X528000D01*
X542500Y237000D01*
Y245000D01*
X495000Y357500D02*
X505000D01*
X515000D02*
X525000D01*
X510000Y352500D02*
X515000Y357500D01*
X510000Y337500D02*
Y352500D01*
Y337500D02*
X515000Y332500D01*
X525000D01*
X505000Y357500D02*
X510000Y352500D01*
X516500Y296500D02*
Y311400D01*
X516400Y311500D02*
X516500Y311400D01*
X485000Y332500D02*
X502400D01*
X516400Y318500D01*
Y311500D02*
Y318500D01*
X664500Y200000D02*
X669500Y205000D01*
X670500D01*
X664500Y210000D02*
X669500Y215000D01*
X670500D01*
X664500Y220000D02*
X669500Y225000D01*
X670500D01*
X664500Y230000D02*
X669500Y235000D01*
X670500D01*
X664500Y240000D02*
X669500Y245000D01*
X670500D01*
X664500Y250000D02*
X669500Y255000D01*
X670500D01*
X664500Y260000D02*
X669500Y265000D01*
X670500D01*
X664500Y270000D02*
X669500Y275000D01*
X670500D01*
X664500Y280000D02*
X669500Y285000D01*
X670500D01*
X664500Y290000D02*
X669500Y295000D01*
X670500D01*
X664500Y300000D02*
X669500Y305000D01*
X670500D01*
X664500Y310000D02*
X669500Y315000D01*
X670500D01*
X664500Y320000D02*
X669500Y325000D01*
X670500D01*
X664500Y330000D02*
X669500Y335000D01*
X670500D01*
X664500Y340000D02*
X669500Y345000D01*
X670500D01*
X664500Y350000D02*
X669500Y355000D01*
X670500D01*
X664500Y360000D02*
X669500Y365000D01*
X670500D01*
X664500Y370000D02*
X669500Y375000D01*
X670500D01*
X664500Y380000D02*
X669500Y385000D01*
X670500D01*
X669500Y395000D02*
X670500D01*
X664500Y390000D02*
X669500Y395000D01*
X678500Y385000D02*
X693500D01*
X695500D01*
X678500Y275000D02*
X693500D01*
X695500D01*
X678500Y225000D02*
X693500D01*
X695500D01*
X678500Y295000D02*
X693500D01*
X695500D01*
X678500Y375000D02*
X693500D01*
X695500D01*
X678500Y265000D02*
X693500D01*
X695500D01*
X678500Y255000D02*
X693500D01*
X695500D01*
X678500Y365000D02*
X693500D01*
X695500D01*
X678500Y215000D02*
X693500D01*
X695500D01*
X678500Y245000D02*
X693500D01*
X695500D01*
X678500Y355000D02*
X693500D01*
X695500D01*
X678500Y285000D02*
X693500D01*
X695500D01*
X678500Y235000D02*
X693500D01*
X695500D01*
X678500Y205000D02*
X693500D01*
X695500D01*
X678500Y325000D02*
X693500D01*
X695500D01*
X678500Y335000D02*
X693500D01*
X695500D01*
X678500Y315000D02*
X693500D01*
X695500D01*
X678500Y345000D02*
X693500D01*
X695500D01*
X678500Y305000D02*
X693500D01*
X695500D01*
X678500Y395000D02*
X693500D01*
X695500D01*
D14*
X617500Y195000D02*
X628500D01*
X640000D02*
X647500D01*
X617500Y215000D02*
X628500D01*
X640000D02*
X647500D01*
X617500Y225000D02*
X628500D01*
X640000D02*
X647500D01*
X617500Y235000D02*
X628500D01*
X640000D02*
X647500D01*
X617500Y245000D02*
X628500D01*
X640000D02*
X647500D01*
X617500Y255000D02*
X628500D01*
X640000D02*
X647500D01*
X617500Y265000D02*
X628500D01*
X640000D02*
X647500D01*
X617500Y275000D02*
X628500D01*
X640000D02*
X647500D01*
X617500Y285000D02*
X628500D01*
X640000D02*
X647500D01*
X617500Y295000D02*
X628500D01*
X640000D02*
X647500D01*
X617500Y305000D02*
X628500D01*
X640000D02*
X647500D01*
X617500Y315000D02*
X628500D01*
X640000D02*
X647500D01*
X617500Y325000D02*
X628500D01*
X640000D02*
X647500D01*
X617500Y335000D02*
X628500D01*
X640000D02*
X647500D01*
X617500Y345000D02*
X628500D01*
X640000D02*
X647500D01*
X617500Y355000D02*
X628500D01*
X640000D02*
X647500D01*
X617500Y365000D02*
X628500D01*
X640000D02*
X647500D01*
X617500Y375000D02*
X628500D01*
X640000D02*
X647500D01*
X617500Y385000D02*
X628500D01*
X640000D02*
X647500D01*
X640000Y205000D02*
X647500D01*
X617500D02*
X628500D01*
X670500D02*
X678500D01*
X670500Y215000D02*
X678500D01*
X670500Y225000D02*
X678500D01*
X670500Y235000D02*
X678500D01*
X670500Y245000D02*
X678500D01*
X670500Y255000D02*
X678500D01*
X670500Y265000D02*
X678500D01*
X670500Y275000D02*
X678500D01*
X670500Y285000D02*
X678500D01*
X670500Y295000D02*
X678500D01*
X670500Y305000D02*
X678500D01*
X670500Y315000D02*
X678500D01*
X670500Y325000D02*
X678500D01*
X670500Y335000D02*
X678500D01*
X670500Y345000D02*
X678500D01*
X670500Y355000D02*
X678500D01*
X670500Y365000D02*
X678500D01*
X670500Y375000D02*
X678500D01*
X670500Y385000D02*
X678500D01*
X670500Y395000D02*
X678500D01*
D15*
X642500Y250000D02*
X645000D01*
X642500Y370000D02*
X645000D01*
X642500Y210000D02*
X645000D01*
X642500Y270000D02*
X645000D01*
X642500Y220000D02*
X645000D01*
X642500Y350000D02*
X645000D01*
X642500Y260000D02*
X645000D01*
X642500Y340000D02*
X645000D01*
X642500Y360000D02*
X645000D01*
X642500Y200000D02*
X645000D01*
X642500Y330000D02*
X645000D01*
X642500Y290000D02*
X645000D01*
X642500Y300000D02*
X645000D01*
X642500Y310000D02*
X645000D01*
X642500Y390000D02*
X645000D01*
X642500Y240000D02*
X645000D01*
X642500Y320000D02*
X645000D01*
X642500Y380000D02*
X645000D01*
X642500Y230000D02*
X645000D01*
D16*
X495300Y186900D02*
Y212500D01*
X610000Y285000D02*
X617500D01*
X647500D02*
X652500Y290000D01*
X664500D01*
X628500Y285000D02*
X640000D01*
X622500Y280000D02*
X642500D01*
X602000D02*
X622500D01*
D17*
X495000Y407500D02*
D03*
D18*
Y397500D02*
D03*
Y387500D02*
D03*
Y377500D02*
D03*
Y367500D02*
D03*
Y357500D02*
D03*
Y347500D02*
D03*
X525000D02*
D03*
Y357500D02*
D03*
Y367500D02*
D03*
Y377500D02*
D03*
Y387500D02*
D03*
Y397500D02*
D03*
Y407500D02*
D03*
D19*
X494500Y157500D02*
D03*
Y432500D02*
D03*
X669500D02*
D03*
Y157500D02*
D03*
D20*
X537500Y180314D02*
D03*
Y200000D02*
D03*
X476814Y311500D02*
D03*
X496500D02*
D03*
X536086D02*
D03*
X516400D02*
D03*
X540000Y397500D02*
D03*
Y377814D02*
D03*
D21*
X532500Y272000D02*
D03*
X522500D02*
D03*
X515500Y189500D02*
D03*
X522500Y196500D02*
D03*
Y182500D02*
D03*
X520000Y212500D02*
D03*
Y252500D02*
D03*
X532500D02*
D03*
Y212500D02*
D03*
X582500Y149500D02*
D03*
X542500D02*
D03*
X602000D02*
D03*
X642000D02*
D03*
X582500Y160000D02*
D03*
X542500D02*
D03*
X602000D02*
D03*
X642000D02*
D03*
X485000Y321500D02*
D03*
X525000D02*
D03*
X485000Y332500D02*
D03*
X525000D02*
D03*
X507500Y213000D02*
D03*
Y253000D02*
D03*
X530500Y155000D02*
D03*
X520500D02*
D03*
D22*
X562500Y390000D02*
D03*
Y380000D02*
D03*
Y370000D02*
D03*
Y360000D02*
D03*
Y350000D02*
D03*
Y340000D02*
D03*
Y330000D02*
D03*
Y320000D02*
D03*
Y310000D02*
D03*
Y300000D02*
D03*
Y290000D02*
D03*
Y280000D02*
D03*
Y270000D02*
D03*
Y260000D02*
D03*
Y250000D02*
D03*
Y240000D02*
D03*
Y230000D02*
D03*
Y220000D02*
D03*
Y210000D02*
D03*
Y200000D02*
D03*
X622500D02*
D03*
Y210000D02*
D03*
Y220000D02*
D03*
Y230000D02*
D03*
Y240000D02*
D03*
Y250000D02*
D03*
Y260000D02*
D03*
Y270000D02*
D03*
Y280000D02*
D03*
Y290000D02*
D03*
Y300000D02*
D03*
Y310000D02*
D03*
Y320000D02*
D03*
Y330000D02*
D03*
Y340000D02*
D03*
Y350000D02*
D03*
Y360000D02*
D03*
Y370000D02*
D03*
Y380000D02*
D03*
Y390000D02*
D03*
D23*
X642500Y330000D02*
D03*
Y240000D02*
D03*
Y300000D02*
D03*
Y310000D02*
D03*
Y290000D02*
D03*
Y260000D02*
D03*
Y270000D02*
D03*
Y280000D02*
D03*
Y250000D02*
D03*
Y370000D02*
D03*
Y380000D02*
D03*
Y390000D02*
D03*
Y360000D02*
D03*
Y340000D02*
D03*
Y350000D02*
D03*
Y320000D02*
D03*
Y210000D02*
D03*
Y230000D02*
D03*
Y220000D02*
D03*
Y200000D02*
D03*
X582500Y330000D02*
D03*
Y240000D02*
D03*
Y300000D02*
D03*
Y310000D02*
D03*
Y290000D02*
D03*
Y260000D02*
D03*
Y270000D02*
D03*
Y280000D02*
D03*
Y250000D02*
D03*
Y370000D02*
D03*
Y380000D02*
D03*
Y360000D02*
D03*
Y340000D02*
D03*
Y350000D02*
D03*
Y320000D02*
D03*
Y210000D02*
D03*
Y230000D02*
D03*
Y220000D02*
D03*
Y200000D02*
D03*
D24*
Y390000D02*
D03*
D25*
X496500Y296500D02*
D03*
X516500D02*
D03*
X482500Y267500D02*
D03*
Y277500D02*
D03*
Y235000D02*
D03*
Y245000D02*
D03*
D26*
X495300Y212500D02*
D03*
Y186900D02*
D03*
X477500Y212500D02*
D03*
Y186900D02*
D03*
D27*
X664500Y390000D02*
D03*
D28*
X674500D02*
D03*
X664500Y380000D02*
D03*
X674500D02*
D03*
X664500Y370000D02*
D03*
X674500D02*
D03*
X664500Y360000D02*
D03*
X674500D02*
D03*
X664500Y350000D02*
D03*
X674500D02*
D03*
X664500Y340000D02*
D03*
X674500D02*
D03*
X664500Y330000D02*
D03*
X674500D02*
D03*
X664500Y320000D02*
D03*
X674500D02*
D03*
X664500Y310000D02*
D03*
X674500D02*
D03*
X664500Y300000D02*
D03*
X674500D02*
D03*
X664500Y290000D02*
D03*
X674500D02*
D03*
X664500Y280000D02*
D03*
X674500D02*
D03*
X664500Y270000D02*
D03*
X674500D02*
D03*
X664500Y260000D02*
D03*
X674500D02*
D03*
X664500Y250000D02*
D03*
X674500D02*
D03*
X664500Y240000D02*
D03*
X674500D02*
D03*
X664500Y230000D02*
D03*
X674500D02*
D03*
X664500Y220000D02*
D03*
X674500D02*
D03*
X664500Y210000D02*
D03*
X674500D02*
D03*
X664500Y200000D02*
D03*
X674500D02*
D03*
D29*
X574000Y190000D02*
D03*
X595000Y280000D02*
D03*
X602000D02*
D03*
X610000Y285000D02*
D03*
X605000Y290000D02*
D03*
M02*
