M48
;Layer_Color=9474304
;FILE_FORMAT=2:5
INCH,TZ
;TYPE=PLATED
T1F00S00C0.02362
T2F00S00C0.02756
T3F00S00C0.03150
T4F00S00C0.03937
T5F00S00C0.04331
T6F00S00C0.12598
%
T01
X574000Y190000
X595000Y280000
X602000
X610000Y285000
X605000Y290000
T02
X537500Y180314
Y200000
X536086Y311500
X516400
X496500
X476814
X495000Y347500
Y357500
Y367500
Y377500
Y387500
Y397500
Y407500
X525000
Y397500
Y387500
Y377500
Y367500
Y357500
Y347500
X540000Y377814
Y397500
T03
X520500Y155000
X530500
X542500Y149500
X582500
X602000
X642000
Y160000
X602000
X582500
X542500
X522500Y182500
X515500Y189500
X522500Y196500
X520000Y212500
X532500
X507500Y213000
Y253000
X520000Y252500
X532500
Y272000
X522500
X516500Y296500
X496500
X482500Y277500
Y267500
Y245000
Y235000
X485000Y321500
Y332500
X525000
Y321500
T04
X642500Y200000
Y210000
Y220000
Y230000
Y240000
Y250000
Y260000
Y270000
Y280000
Y290000
Y300000
Y310000
X664500
X674500
Y300000
X664500
Y290000
X674500
Y280000
X664500
Y270000
X674500
Y260000
X664500
Y250000
X674500
Y240000
X664500
Y230000
X674500
Y220000
X664500
Y210000
X674500
Y200000
X664500
X582500
Y210000
Y220000
Y230000
Y240000
Y250000
Y260000
Y270000
Y280000
Y290000
Y300000
Y310000
X495300Y212500
X477500
Y186900
X495300
X582500Y320000
Y330000
Y340000
Y350000
Y360000
Y370000
Y380000
Y390000
X642500
Y380000
Y370000
Y360000
Y350000
Y340000
Y330000
Y320000
X664500
Y330000
Y340000
Y350000
Y360000
Y370000
Y380000
Y390000
X674500
Y380000
Y370000
Y360000
Y350000
Y340000
Y330000
Y320000
T05
X562500Y200000
Y210000
Y220000
Y230000
Y240000
Y250000
Y260000
Y270000
Y280000
Y290000
Y300000
Y310000
X622500
Y300000
Y290000
Y280000
Y270000
Y260000
Y250000
Y240000
Y230000
Y220000
Y210000
Y200000
Y320000
Y330000
Y340000
Y350000
Y360000
Y370000
Y380000
Y390000
X562500
Y380000
Y370000
Y360000
Y350000
Y340000
Y330000
Y320000
T06
X669500Y157500
X494500
Y432500
X669500
M30
