G04 Layer_Color=16711935*
%FSLAX25Y25*%
%MOIN*%
G70*
G01*
G75*
%ADD33R,0.08674X0.05800*%
%ADD34R,0.09300X0.07000*%
%ADD35O,0.12800X0.05918*%
%ADD36C,0.25800*%
%ADD37C,0.07300*%
%ADD38C,0.08300*%
%ADD39O,0.12611X0.07493*%
%ADD40C,0.07099*%
%ADD41R,0.07099X0.07099*%
%ADD42C,0.06800*%
%ADD43C,0.08200*%
%ADD44R,0.07800X0.07800*%
%ADD45C,0.07800*%
%ADD46C,0.05918*%
D33*
X693500Y205000D02*
D03*
Y215000D02*
D03*
Y225000D02*
D03*
Y235000D02*
D03*
Y245000D02*
D03*
Y255000D02*
D03*
Y265000D02*
D03*
Y275000D02*
D03*
Y285000D02*
D03*
Y295000D02*
D03*
Y305000D02*
D03*
Y315000D02*
D03*
Y325000D02*
D03*
Y335000D02*
D03*
Y345000D02*
D03*
Y355000D02*
D03*
Y365000D02*
D03*
Y375000D02*
D03*
Y385000D02*
D03*
Y395000D02*
D03*
D34*
X495000Y407500D02*
D03*
D35*
Y397500D02*
D03*
Y387500D02*
D03*
Y377500D02*
D03*
Y367500D02*
D03*
Y357500D02*
D03*
Y347500D02*
D03*
X525000D02*
D03*
Y357500D02*
D03*
Y367500D02*
D03*
Y377500D02*
D03*
Y387500D02*
D03*
Y397500D02*
D03*
Y407500D02*
D03*
D36*
X494500Y157500D02*
D03*
Y432500D02*
D03*
X669500D02*
D03*
Y157500D02*
D03*
D37*
X537500Y180314D02*
D03*
Y200000D02*
D03*
X476814Y311500D02*
D03*
X496500D02*
D03*
X536086D02*
D03*
X516400D02*
D03*
X540000Y397500D02*
D03*
Y377814D02*
D03*
D38*
X532500Y272000D02*
D03*
X522500D02*
D03*
X515500Y189500D02*
D03*
X522500Y196500D02*
D03*
Y182500D02*
D03*
X520000Y212500D02*
D03*
Y252500D02*
D03*
X532500D02*
D03*
Y212500D02*
D03*
X582500Y149500D02*
D03*
X542500D02*
D03*
X602000D02*
D03*
X642000D02*
D03*
X582500Y160000D02*
D03*
X542500D02*
D03*
X602000D02*
D03*
X642000D02*
D03*
X485000Y321500D02*
D03*
X525000D02*
D03*
X485000Y332500D02*
D03*
X525000D02*
D03*
X507500Y213000D02*
D03*
Y253000D02*
D03*
X530500Y155000D02*
D03*
X520500D02*
D03*
D39*
X562500Y390000D02*
D03*
Y380000D02*
D03*
Y370000D02*
D03*
Y360000D02*
D03*
Y350000D02*
D03*
Y340000D02*
D03*
Y330000D02*
D03*
Y320000D02*
D03*
Y310000D02*
D03*
Y300000D02*
D03*
Y290000D02*
D03*
Y280000D02*
D03*
Y270000D02*
D03*
Y260000D02*
D03*
Y250000D02*
D03*
Y240000D02*
D03*
Y230000D02*
D03*
Y220000D02*
D03*
Y210000D02*
D03*
Y200000D02*
D03*
X622500D02*
D03*
Y210000D02*
D03*
Y220000D02*
D03*
Y230000D02*
D03*
Y240000D02*
D03*
Y250000D02*
D03*
Y260000D02*
D03*
Y270000D02*
D03*
Y280000D02*
D03*
Y290000D02*
D03*
Y300000D02*
D03*
Y310000D02*
D03*
Y320000D02*
D03*
Y330000D02*
D03*
Y340000D02*
D03*
Y350000D02*
D03*
Y360000D02*
D03*
Y370000D02*
D03*
Y380000D02*
D03*
Y390000D02*
D03*
D40*
X642500Y330000D02*
D03*
Y240000D02*
D03*
Y300000D02*
D03*
Y310000D02*
D03*
Y290000D02*
D03*
Y260000D02*
D03*
Y270000D02*
D03*
Y280000D02*
D03*
Y250000D02*
D03*
Y370000D02*
D03*
Y380000D02*
D03*
Y390000D02*
D03*
Y360000D02*
D03*
Y340000D02*
D03*
Y350000D02*
D03*
Y320000D02*
D03*
Y210000D02*
D03*
Y230000D02*
D03*
Y220000D02*
D03*
Y200000D02*
D03*
X582500Y330000D02*
D03*
Y240000D02*
D03*
Y300000D02*
D03*
Y310000D02*
D03*
Y290000D02*
D03*
Y260000D02*
D03*
Y270000D02*
D03*
Y280000D02*
D03*
Y250000D02*
D03*
Y370000D02*
D03*
Y380000D02*
D03*
Y360000D02*
D03*
Y340000D02*
D03*
Y350000D02*
D03*
Y320000D02*
D03*
Y210000D02*
D03*
Y230000D02*
D03*
Y220000D02*
D03*
Y200000D02*
D03*
D41*
Y390000D02*
D03*
D42*
X496500Y296500D02*
D03*
X516500D02*
D03*
X482500Y267500D02*
D03*
Y277500D02*
D03*
Y235000D02*
D03*
Y245000D02*
D03*
D43*
X495300Y212500D02*
D03*
Y186900D02*
D03*
X477500Y212500D02*
D03*
Y186900D02*
D03*
D44*
X664500Y390000D02*
D03*
D45*
X674500D02*
D03*
X664500Y380000D02*
D03*
X674500D02*
D03*
X664500Y370000D02*
D03*
X674500D02*
D03*
X664500Y360000D02*
D03*
X674500D02*
D03*
X664500Y350000D02*
D03*
X674500D02*
D03*
X664500Y340000D02*
D03*
X674500D02*
D03*
X664500Y330000D02*
D03*
X674500D02*
D03*
X664500Y320000D02*
D03*
X674500D02*
D03*
X664500Y310000D02*
D03*
X674500D02*
D03*
X664500Y300000D02*
D03*
X674500D02*
D03*
X664500Y290000D02*
D03*
X674500D02*
D03*
X664500Y280000D02*
D03*
X674500D02*
D03*
X664500Y270000D02*
D03*
X674500D02*
D03*
X664500Y260000D02*
D03*
X674500D02*
D03*
X664500Y250000D02*
D03*
X674500D02*
D03*
X664500Y240000D02*
D03*
X674500D02*
D03*
X664500Y230000D02*
D03*
X674500D02*
D03*
X664500Y220000D02*
D03*
X674500D02*
D03*
X664500Y210000D02*
D03*
X674500D02*
D03*
X664500Y200000D02*
D03*
X674500D02*
D03*
D46*
X574000Y190000D02*
D03*
X595000Y280000D02*
D03*
X602000D02*
D03*
X610000Y285000D02*
D03*
X605000Y290000D02*
D03*
M02*
