G04 Layer_Physical_Order=1*
G04 Layer_Color=255*
%FSLAX25Y25*%
%MOIN*%
G70*
G01*
G75*
%ADD10C,0.01500*%
%ADD11C,0.02500*%
%ADD12C,0.01000*%
%ADD13C,0.02000*%
%ADD14C,0.07500*%
%ADD15R,0.07000X0.07000*%
%ADD16C,0.07000*%
%ADD17C,0.09000*%
%ADD18C,0.08000*%
%ADD19C,0.25000*%
%ADD20R,0.08000X0.08000*%
%ADD21R,0.10000X0.05000*%
%ADD22O,0.10000X0.05000*%
%ADD23O,0.12000X0.05000*%
%ADD24C,0.05400*%
D10*
X525000Y294500D02*
Y372500D01*
X564500Y284500D02*
Y294500D01*
X628000Y240000D02*
Y262368D01*
X625500Y264868D02*
X628000Y262368D01*
X628250Y267618D02*
Y300750D01*
X629000Y301500D01*
X625500Y264868D02*
X628250Y267618D01*
X654500Y355000D02*
X662000D01*
X650500Y359000D02*
X654500Y355000D01*
X650500Y359000D02*
Y370000D01*
X650000Y340000D02*
X664500D01*
X650000Y285000D02*
X662000D01*
X647000Y245000D02*
Y276500D01*
X651500Y255000D02*
X662000D01*
X651000Y388500D02*
Y400000D01*
X645000Y382500D02*
X651000Y388500D01*
X645000Y350000D02*
Y382500D01*
X649500Y195000D02*
X659500D01*
X664500Y200000D01*
X647000Y205000D02*
X662000D01*
X561500Y183500D02*
X565000Y180000D01*
X561500Y183500D02*
Y281500D01*
X564500Y284500D01*
X570000Y284000D02*
Y305000D01*
X567000Y281000D02*
X570000Y284000D01*
X557000Y180000D02*
Y289000D01*
X567000Y265000D02*
Y281000D01*
X627000Y303500D02*
X629000Y301500D01*
X627000Y303500D02*
Y313500D01*
X633000Y319500D01*
X612500Y285000D02*
X621500Y294000D01*
Y315000D01*
X593500Y310000D02*
Y405000D01*
X645000Y305000D02*
X662000D01*
X522500Y375000D02*
X525000Y372500D01*
X562500Y322500D02*
Y332500D01*
X550000Y345000D02*
X562500Y332500D01*
X543500Y345000D02*
X550000D01*
X562500Y312500D02*
X570000Y305000D01*
X585500Y307000D02*
Y372500D01*
X583000Y375000D02*
X585500Y372500D01*
X577500Y375000D02*
X583000D01*
X590000Y295000D02*
X603000Y308000D01*
X602500Y308500D02*
X603000Y308000D01*
X602500Y308500D02*
Y321000D01*
X612500Y232500D02*
Y285000D01*
X610000Y230000D02*
X612500Y232500D01*
X602500Y321000D02*
X606500Y325000D01*
X632500D01*
X635000Y327500D01*
Y335000D01*
X649000Y315000D02*
X662000D01*
X645000Y319000D02*
X649000Y315000D01*
X645000Y319000D02*
Y325000D01*
X669500Y255000D02*
X674500Y260000D01*
X667500Y255000D02*
X669500D01*
Y295000D02*
X674500Y300000D01*
X667500Y295000D02*
X669500D01*
X650000D02*
X662000D01*
X669500Y355000D02*
X674500Y360000D01*
X667500Y355000D02*
X669500D01*
Y345000D02*
X674500Y350000D01*
X667500Y345000D02*
X669500D01*
X650000D02*
X662000D01*
X669500Y315000D02*
X674500Y320000D01*
X667500Y315000D02*
X669500D01*
Y305000D02*
X674500Y310000D01*
X667500Y305000D02*
X669500D01*
Y285000D02*
X674500Y290000D01*
X667500Y285000D02*
X669500D01*
X667500Y205000D02*
X669500D01*
X674500Y210000D01*
X642500Y190000D02*
Y270000D01*
X602500Y230000D02*
X610000D01*
X638000Y200000D02*
Y300000D01*
X513500Y375000D02*
X522500D01*
X567000Y210000D02*
Y255000D01*
X527500Y235000D02*
Y260000D01*
Y235000D02*
X532500Y230000D01*
X542500D01*
X615000Y175000D02*
Y205000D01*
X610000Y170000D02*
X615000Y175000D01*
X602500Y170000D02*
X610000D01*
X633500Y210000D02*
Y310000D01*
X635000Y395000D02*
Y405000D01*
Y385000D02*
Y395000D01*
Y375000D02*
Y385000D01*
Y365000D02*
Y375000D01*
Y355000D02*
Y365000D01*
Y345000D02*
Y355000D01*
Y335000D02*
Y345000D01*
X645000Y350000D02*
X650000Y345000D01*
X565000Y180000D02*
X565500Y180500D01*
X589000Y302500D02*
Y415000D01*
X590000Y200000D02*
Y295000D01*
X598000Y325000D02*
Y395000D01*
X578500Y195000D02*
Y300000D01*
X585500Y307000D01*
D11*
X643500Y290000D02*
X664500D01*
X572500Y160000D02*
Y275000D01*
X535000Y405000D02*
X543500D01*
X532500Y402500D02*
X535000Y405000D01*
X532500Y320000D02*
Y402500D01*
Y320000D02*
X537500Y315000D01*
X542500D01*
X584000Y170000D02*
Y185000D01*
Y296500D01*
X478500Y336000D02*
X513500D01*
Y345000D01*
Y336000D02*
X520000D01*
X543500Y405000D02*
Y420500D01*
X617500Y415000D02*
X622500Y420000D01*
X607500Y415000D02*
X617500D01*
X602500D02*
X607500D01*
X597000Y420500D02*
X602500Y415000D01*
X543500Y420500D02*
X597000D01*
D12*
X662000Y255000D02*
X667500D01*
X662000Y295000D02*
X667500D01*
X662000Y355000D02*
X667500D01*
X662000Y345000D02*
X667500D01*
X662000Y315000D02*
X667500D01*
X662000Y305000D02*
X667500D01*
X662000Y285000D02*
X667500D01*
X662000Y205000D02*
X667500D01*
D13*
X506500Y365000D02*
X513500D01*
X500000Y358500D02*
X506500Y365000D01*
X500000Y345000D02*
Y358500D01*
D14*
X542500Y315000D02*
D03*
Y325000D02*
D03*
X527500Y170000D02*
D03*
Y190000D02*
D03*
X513500Y307500D02*
D03*
Y287500D02*
D03*
X493500Y307500D02*
D03*
Y287500D02*
D03*
X543500Y420500D02*
D03*
X523500D02*
D03*
X622500Y420000D02*
D03*
X642500D02*
D03*
X487500Y385000D02*
D03*
Y345000D02*
D03*
X515000Y220000D02*
D03*
Y260000D02*
D03*
X527500D02*
D03*
Y220000D02*
D03*
X500000Y345000D02*
D03*
Y385000D02*
D03*
D15*
X664500Y390000D02*
D03*
D16*
X674500D02*
D03*
X664500Y380000D02*
D03*
X674500D02*
D03*
X664500Y370000D02*
D03*
X674500D02*
D03*
X664500Y360000D02*
D03*
X674500D02*
D03*
X664500Y350000D02*
D03*
X674500D02*
D03*
X664500Y340000D02*
D03*
X674500D02*
D03*
X664500Y330000D02*
D03*
X674500D02*
D03*
X664500Y320000D02*
D03*
X674500D02*
D03*
X664500Y310000D02*
D03*
X674500D02*
D03*
X664500Y300000D02*
D03*
X674500D02*
D03*
X664500Y290000D02*
D03*
X674500D02*
D03*
X664500Y280000D02*
D03*
X674500D02*
D03*
X664500Y270000D02*
D03*
X674500D02*
D03*
X664500Y260000D02*
D03*
X674500D02*
D03*
X664500Y250000D02*
D03*
X674500D02*
D03*
X664500Y240000D02*
D03*
X674500D02*
D03*
X664500Y230000D02*
D03*
X674500D02*
D03*
X664500Y220000D02*
D03*
X674500D02*
D03*
X664500Y210000D02*
D03*
X674500D02*
D03*
X664500Y200000D02*
D03*
X674500D02*
D03*
X635000Y405000D02*
D03*
X625000D02*
D03*
Y395000D02*
D03*
X635000D02*
D03*
X625000Y385000D02*
D03*
X635000D02*
D03*
X625000Y375000D02*
D03*
X635000D02*
D03*
X625000Y365000D02*
D03*
X635000D02*
D03*
X625000Y355000D02*
D03*
X635000D02*
D03*
X625000Y345000D02*
D03*
X635000D02*
D03*
X625000Y335000D02*
D03*
X635000D02*
D03*
D17*
X493500Y325000D02*
D03*
X513500D02*
D03*
D18*
X502500Y250000D02*
D03*
Y240000D02*
D03*
Y200000D02*
D03*
Y210000D02*
D03*
X622500Y270000D02*
D03*
Y280000D02*
D03*
X562500Y322500D02*
D03*
Y312500D02*
D03*
X577500D02*
D03*
Y322500D02*
D03*
X627500Y220000D02*
D03*
Y230000D02*
D03*
X560000Y360000D02*
D03*
Y350000D02*
D03*
Y370000D02*
D03*
Y405000D02*
D03*
Y385000D02*
D03*
Y395000D02*
D03*
X487000Y240000D02*
D03*
Y230000D02*
D03*
Y220000D02*
D03*
Y200000D02*
D03*
Y210000D02*
D03*
D19*
X494500Y157500D02*
D03*
Y432500D02*
D03*
X669500D02*
D03*
Y157500D02*
D03*
D20*
X487000Y190000D02*
D03*
D21*
X513500Y405000D02*
D03*
X577500Y415000D02*
D03*
X542500Y280000D02*
D03*
D22*
X513500Y395000D02*
D03*
Y385000D02*
D03*
Y375000D02*
D03*
Y365000D02*
D03*
Y355000D02*
D03*
Y345000D02*
D03*
X543500D02*
D03*
Y355000D02*
D03*
Y365000D02*
D03*
Y375000D02*
D03*
Y385000D02*
D03*
Y395000D02*
D03*
Y405000D02*
D03*
X607500Y415000D02*
D03*
Y405000D02*
D03*
Y395000D02*
D03*
Y385000D02*
D03*
Y375000D02*
D03*
Y365000D02*
D03*
Y355000D02*
D03*
Y345000D02*
D03*
X577500D02*
D03*
Y355000D02*
D03*
Y365000D02*
D03*
Y375000D02*
D03*
Y385000D02*
D03*
Y395000D02*
D03*
Y405000D02*
D03*
D23*
X602500Y280000D02*
D03*
Y270000D02*
D03*
Y260000D02*
D03*
Y250000D02*
D03*
Y240000D02*
D03*
Y230000D02*
D03*
Y220000D02*
D03*
Y210000D02*
D03*
Y200000D02*
D03*
Y190000D02*
D03*
Y180000D02*
D03*
Y170000D02*
D03*
X542500D02*
D03*
Y180000D02*
D03*
Y190000D02*
D03*
Y200000D02*
D03*
Y210000D02*
D03*
Y220000D02*
D03*
Y230000D02*
D03*
Y240000D02*
D03*
Y250000D02*
D03*
Y260000D02*
D03*
Y270000D02*
D03*
D24*
X525000Y294500D02*
D03*
X564500D02*
D03*
X628000Y240000D02*
D03*
X650500Y370000D02*
D03*
X650000Y340000D02*
D03*
Y285000D02*
D03*
X647000Y276500D02*
D03*
X651500Y255000D02*
D03*
X651000Y400000D02*
D03*
X643500Y290000D02*
D03*
X649500Y195000D02*
D03*
X647000Y205000D02*
D03*
X557000Y289000D02*
D03*
X567000Y265000D02*
D03*
X621500Y315000D02*
D03*
X593500Y310000D02*
D03*
X633000Y319500D02*
D03*
X645000Y305000D02*
D03*
Y325000D02*
D03*
X642500Y190000D02*
D03*
Y270000D02*
D03*
X638000Y200000D02*
D03*
Y300000D02*
D03*
X633500Y210000D02*
D03*
X567000Y255000D02*
D03*
X647000Y245000D02*
D03*
X567000Y210000D02*
D03*
X572500Y160000D02*
D03*
X578500Y195000D02*
D03*
X615000Y205000D02*
D03*
X572500Y275000D02*
D03*
X633500Y310000D02*
D03*
X650000Y295000D02*
D03*
X584000Y170000D02*
D03*
Y296500D02*
D03*
X590000Y200000D02*
D03*
X584000Y185000D02*
D03*
X557000Y180000D02*
D03*
X478500Y336000D02*
D03*
X520000D02*
D03*
X565000Y180000D02*
D03*
X589000Y415000D02*
D03*
Y302500D02*
D03*
X593500Y405000D02*
D03*
X598000Y395000D02*
D03*
Y325000D02*
D03*
M02*
