G04 Layer_Color=255*
%FSLAX25Y25*%
%MOIN*%
G70*
G01*
G75*
%ADD14C,0.11000*%
%ADD15C,0.08000*%
%ADD16C,0.07500*%
%ADD17O,0.10000X0.05000*%
%ADD18R,0.10000X0.05000*%
%ADD19R,0.10000X0.07000*%
%ADD20O,0.10000X0.06000*%
%ADD21R,0.08000X0.06500*%
%ADD22C,0.12000*%
%ADD23O,0.06000X0.08500*%
%ADD24R,0.06000X0.07500*%
%ADD25C,0.10000*%
%ADD26C,0.09000*%
%ADD27R,0.07000X0.06000*%
%ADD28O,0.08500X0.06000*%
%ADD29O,0.05000X0.12000*%
%ADD30O,0.06000X0.12000*%
%ADD31R,0.08000X0.08500*%
%ADD32O,0.08000X0.07600*%
%ADD33C,0.07600*%
%ADD34R,0.08000X0.08000*%
%ADD35O,0.19700X0.09800*%
%ADD36O,0.09800X0.19700*%
%ADD37C,0.12500*%
%ADD38C,0.25000*%
%ADD39R,0.07000X0.09000*%
%ADD40C,0.24000*%
D14*
X1156500Y437500D02*
D03*
X1176500D02*
D03*
Y457500D02*
D03*
X1156500D02*
D03*
Y427500D02*
D03*
X1176500D02*
D03*
X1509000D02*
D03*
X1489000D02*
D03*
Y457500D02*
D03*
X1509000D02*
D03*
Y437500D02*
D03*
X1489000D02*
D03*
X1439000D02*
D03*
X1459000D02*
D03*
Y457500D02*
D03*
X1439000D02*
D03*
Y427500D02*
D03*
X1459000D02*
D03*
X1409000D02*
D03*
X1389000D02*
D03*
Y457500D02*
D03*
X1409000D02*
D03*
Y437500D02*
D03*
X1389000D02*
D03*
X1339000D02*
D03*
X1359000D02*
D03*
Y457500D02*
D03*
X1339000D02*
D03*
Y427500D02*
D03*
X1359000D02*
D03*
X1309000D02*
D03*
X1289000D02*
D03*
Y457500D02*
D03*
X1309000D02*
D03*
Y437500D02*
D03*
X1289000D02*
D03*
X1489000Y487500D02*
D03*
X1509000D02*
D03*
Y507500D02*
D03*
X1489000D02*
D03*
Y477500D02*
D03*
X1509000D02*
D03*
X1459000D02*
D03*
X1439000D02*
D03*
Y507500D02*
D03*
X1459000D02*
D03*
Y487500D02*
D03*
X1439000D02*
D03*
X1389000D02*
D03*
X1409000D02*
D03*
Y507500D02*
D03*
X1389000D02*
D03*
Y477500D02*
D03*
X1409000D02*
D03*
X1359000D02*
D03*
X1339000D02*
D03*
Y507500D02*
D03*
X1359000D02*
D03*
Y487500D02*
D03*
X1339000D02*
D03*
X1289000D02*
D03*
X1309000D02*
D03*
Y507500D02*
D03*
X1289000D02*
D03*
Y477500D02*
D03*
X1309000D02*
D03*
X1509000Y527500D02*
D03*
X1489000D02*
D03*
Y557500D02*
D03*
X1509000D02*
D03*
Y537500D02*
D03*
X1489000D02*
D03*
X1439000D02*
D03*
X1459000D02*
D03*
Y557500D02*
D03*
X1439000D02*
D03*
Y527500D02*
D03*
X1459000D02*
D03*
X1409000D02*
D03*
X1389000D02*
D03*
Y557500D02*
D03*
X1409000D02*
D03*
Y537500D02*
D03*
X1389000D02*
D03*
X1339000D02*
D03*
X1359000D02*
D03*
Y557500D02*
D03*
X1339000D02*
D03*
Y527500D02*
D03*
X1359000D02*
D03*
X1309000D02*
D03*
X1289000D02*
D03*
Y557500D02*
D03*
X1309000D02*
D03*
Y537500D02*
D03*
X1289000D02*
D03*
X1489000Y587500D02*
D03*
X1509000D02*
D03*
Y607500D02*
D03*
X1489000D02*
D03*
Y577500D02*
D03*
X1509000D02*
D03*
X1459000D02*
D03*
X1439000D02*
D03*
Y607500D02*
D03*
X1459000D02*
D03*
Y587500D02*
D03*
X1439000D02*
D03*
X1389000D02*
D03*
X1409000D02*
D03*
Y607500D02*
D03*
X1389000D02*
D03*
Y577500D02*
D03*
X1409000D02*
D03*
X1359000D02*
D03*
X1339000D02*
D03*
Y607500D02*
D03*
X1359000D02*
D03*
Y587500D02*
D03*
X1339000D02*
D03*
X1289000D02*
D03*
X1309000D02*
D03*
Y607500D02*
D03*
X1289000D02*
D03*
Y577500D02*
D03*
X1309000D02*
D03*
D15*
X1020000Y720000D02*
D03*
X1540000Y625000D02*
D03*
X907500Y861000D02*
D03*
Y871000D02*
D03*
X1540000Y685000D02*
D03*
Y675000D02*
D03*
X1560000Y685000D02*
D03*
Y665000D02*
D03*
Y645000D02*
D03*
Y655000D02*
D03*
Y675000D02*
D03*
X1540000Y635000D02*
D03*
Y645000D02*
D03*
Y655000D02*
D03*
Y665000D02*
D03*
D16*
X1022500Y417500D02*
D03*
X1002500D02*
D03*
X876500Y455000D02*
D03*
X896500D02*
D03*
X876500Y475000D02*
D03*
X896500D02*
D03*
X1177500Y846000D02*
D03*
Y836000D02*
D03*
Y826000D02*
D03*
Y816000D02*
D03*
Y806000D02*
D03*
Y856000D02*
D03*
Y866000D02*
D03*
Y876000D02*
D03*
Y765000D02*
D03*
Y755000D02*
D03*
Y745000D02*
D03*
Y735000D02*
D03*
Y725000D02*
D03*
Y775000D02*
D03*
Y785000D02*
D03*
Y795000D02*
D03*
X1451500Y640500D02*
D03*
X1491500D02*
D03*
X1006500Y872000D02*
D03*
X1016500D02*
D03*
X1026500D02*
D03*
X1036500D02*
D03*
X1046500D02*
D03*
X1056500D02*
D03*
X1066500D02*
D03*
X1076500D02*
D03*
X1439000Y685000D02*
D03*
X1432000Y678000D02*
D03*
Y692000D02*
D03*
X934500Y690000D02*
D03*
X914500D02*
D03*
X1491500Y655000D02*
D03*
X1451500D02*
D03*
X1491000Y694000D02*
D03*
X1451000D02*
D03*
X1257500Y515000D02*
D03*
X1237500D02*
D03*
X1015000Y475000D02*
D03*
Y435000D02*
D03*
X1002500Y475000D02*
D03*
Y435000D02*
D03*
X941500Y485000D02*
D03*
Y445000D02*
D03*
X929000Y485000D02*
D03*
Y445000D02*
D03*
X1091500Y457500D02*
D03*
X1131500D02*
D03*
X907500Y807500D02*
D03*
Y847500D02*
D03*
X1491500Y630000D02*
D03*
X1451500D02*
D03*
X1506500Y675000D02*
D03*
Y655000D02*
D03*
X632000Y660000D02*
D03*
Y650000D02*
D03*
Y640000D02*
D03*
Y630000D02*
D03*
Y620000D02*
D03*
Y610000D02*
D03*
Y600000D02*
D03*
Y590000D02*
D03*
Y580000D02*
D03*
Y570000D02*
D03*
Y560000D02*
D03*
Y550000D02*
D03*
Y540000D02*
D03*
Y530000D02*
D03*
Y520000D02*
D03*
Y510000D02*
D03*
Y500000D02*
D03*
Y490000D02*
D03*
Y480000D02*
D03*
X661500Y710000D02*
D03*
Y720000D02*
D03*
X1136500Y862000D02*
D03*
X1146500D02*
D03*
X1116500Y430000D02*
D03*
Y420000D02*
D03*
X1251500Y495000D02*
D03*
X1241500D02*
D03*
X774000D02*
D03*
Y455000D02*
D03*
X786500Y495000D02*
D03*
Y455000D02*
D03*
X799000Y495000D02*
D03*
Y455000D02*
D03*
X811500Y495000D02*
D03*
Y455000D02*
D03*
X824000Y495000D02*
D03*
Y455000D02*
D03*
X1552500Y745000D02*
D03*
Y705000D02*
D03*
X1527500Y755000D02*
D03*
Y741000D02*
D03*
X1534500Y748000D02*
D03*
X1492500Y705000D02*
D03*
Y745000D02*
D03*
X1474500Y748000D02*
D03*
X1467500Y741000D02*
D03*
Y755000D02*
D03*
X1422500Y705000D02*
D03*
Y745000D02*
D03*
X1397500Y755000D02*
D03*
Y741000D02*
D03*
X1404500Y748000D02*
D03*
X1362500Y705000D02*
D03*
Y745000D02*
D03*
X1344500Y748000D02*
D03*
X1337500Y741000D02*
D03*
Y755000D02*
D03*
X1302500Y705000D02*
D03*
Y745000D02*
D03*
X1277500Y755000D02*
D03*
Y741000D02*
D03*
X1284500Y748000D02*
D03*
X1242500Y705000D02*
D03*
Y745000D02*
D03*
X1224500Y748000D02*
D03*
X1217500Y741000D02*
D03*
Y755000D02*
D03*
X784000Y737500D02*
D03*
X804000D02*
D03*
X975500Y823500D02*
D03*
Y833500D02*
D03*
X1091500Y410000D02*
D03*
Y430000D02*
D03*
X1121500Y595000D02*
D03*
X1141500D02*
D03*
X1121500Y725000D02*
D03*
X1141500D02*
D03*
X1451500Y675500D02*
D03*
X1491500D02*
D03*
D17*
X1221500Y570000D02*
D03*
Y560000D02*
D03*
Y550000D02*
D03*
Y540000D02*
D03*
Y530000D02*
D03*
Y520000D02*
D03*
Y510000D02*
D03*
Y500000D02*
D03*
Y490000D02*
D03*
Y480000D02*
D03*
X1191500D02*
D03*
Y490000D02*
D03*
Y500000D02*
D03*
Y510000D02*
D03*
Y520000D02*
D03*
Y530000D02*
D03*
Y540000D02*
D03*
Y550000D02*
D03*
Y560000D02*
D03*
X746500Y675000D02*
D03*
Y665000D02*
D03*
Y655000D02*
D03*
Y645000D02*
D03*
Y635000D02*
D03*
Y625000D02*
D03*
Y615000D02*
D03*
Y605000D02*
D03*
Y595000D02*
D03*
Y585000D02*
D03*
Y575000D02*
D03*
Y565000D02*
D03*
Y555000D02*
D03*
Y545000D02*
D03*
Y535000D02*
D03*
Y525000D02*
D03*
Y515000D02*
D03*
Y505000D02*
D03*
Y495000D02*
D03*
Y485000D02*
D03*
X686500D02*
D03*
Y495000D02*
D03*
Y505000D02*
D03*
Y515000D02*
D03*
Y525000D02*
D03*
Y535000D02*
D03*
Y545000D02*
D03*
Y555000D02*
D03*
Y565000D02*
D03*
Y575000D02*
D03*
Y585000D02*
D03*
Y595000D02*
D03*
Y605000D02*
D03*
Y615000D02*
D03*
Y625000D02*
D03*
Y635000D02*
D03*
Y645000D02*
D03*
Y655000D02*
D03*
Y665000D02*
D03*
X954000Y765000D02*
D03*
Y755000D02*
D03*
X984000Y665000D02*
D03*
Y655000D02*
D03*
Y645000D02*
D03*
Y635000D02*
D03*
Y625000D02*
D03*
Y615000D02*
D03*
Y605000D02*
D03*
Y595000D02*
D03*
Y585000D02*
D03*
Y575000D02*
D03*
Y565000D02*
D03*
Y555000D02*
D03*
Y545000D02*
D03*
Y535000D02*
D03*
X924000D02*
D03*
Y545000D02*
D03*
Y555000D02*
D03*
Y565000D02*
D03*
Y575000D02*
D03*
Y585000D02*
D03*
Y595000D02*
D03*
Y605000D02*
D03*
Y615000D02*
D03*
Y625000D02*
D03*
Y635000D02*
D03*
Y645000D02*
D03*
Y655000D02*
D03*
X819000D02*
D03*
Y645000D02*
D03*
Y635000D02*
D03*
Y625000D02*
D03*
Y615000D02*
D03*
Y605000D02*
D03*
Y595000D02*
D03*
Y585000D02*
D03*
Y575000D02*
D03*
Y565000D02*
D03*
Y555000D02*
D03*
Y545000D02*
D03*
Y535000D02*
D03*
X879000D02*
D03*
Y545000D02*
D03*
Y555000D02*
D03*
Y565000D02*
D03*
Y575000D02*
D03*
Y585000D02*
D03*
Y595000D02*
D03*
Y605000D02*
D03*
Y615000D02*
D03*
Y625000D02*
D03*
Y635000D02*
D03*
Y645000D02*
D03*
Y655000D02*
D03*
Y665000D02*
D03*
X1141500Y570000D02*
D03*
Y560000D02*
D03*
Y550000D02*
D03*
Y540000D02*
D03*
Y530000D02*
D03*
Y520000D02*
D03*
Y510000D02*
D03*
Y500000D02*
D03*
Y490000D02*
D03*
Y480000D02*
D03*
X1111500D02*
D03*
Y490000D02*
D03*
Y500000D02*
D03*
Y510000D02*
D03*
Y520000D02*
D03*
Y530000D02*
D03*
Y540000D02*
D03*
Y550000D02*
D03*
Y560000D02*
D03*
X1141500Y710000D02*
D03*
Y700000D02*
D03*
Y690000D02*
D03*
Y680000D02*
D03*
Y670000D02*
D03*
Y660000D02*
D03*
Y650000D02*
D03*
Y640000D02*
D03*
Y630000D02*
D03*
Y620000D02*
D03*
X1111500D02*
D03*
Y630000D02*
D03*
Y640000D02*
D03*
Y650000D02*
D03*
Y660000D02*
D03*
Y670000D02*
D03*
Y680000D02*
D03*
Y690000D02*
D03*
Y700000D02*
D03*
X1141500Y840000D02*
D03*
Y830000D02*
D03*
Y820000D02*
D03*
Y810000D02*
D03*
Y800000D02*
D03*
Y790000D02*
D03*
Y780000D02*
D03*
Y770000D02*
D03*
Y760000D02*
D03*
Y750000D02*
D03*
X1111500D02*
D03*
Y760000D02*
D03*
Y770000D02*
D03*
Y780000D02*
D03*
Y790000D02*
D03*
Y800000D02*
D03*
Y810000D02*
D03*
Y820000D02*
D03*
Y830000D02*
D03*
X984000Y455000D02*
D03*
Y465000D02*
D03*
X884000Y765000D02*
D03*
Y755000D02*
D03*
D18*
X1191500Y570000D02*
D03*
X686500Y675000D02*
D03*
X1111500Y570000D02*
D03*
Y710000D02*
D03*
Y840000D02*
D03*
D19*
X954000Y785000D02*
D03*
Y485000D02*
D03*
X884000Y785000D02*
D03*
D20*
X954000Y775000D02*
D03*
Y745000D02*
D03*
Y735000D02*
D03*
Y725000D02*
D03*
Y715000D02*
D03*
X984000D02*
D03*
Y725000D02*
D03*
Y735000D02*
D03*
Y745000D02*
D03*
Y755000D02*
D03*
Y765000D02*
D03*
Y775000D02*
D03*
Y785000D02*
D03*
X954000Y475000D02*
D03*
Y465000D02*
D03*
Y455000D02*
D03*
Y445000D02*
D03*
Y435000D02*
D03*
Y425000D02*
D03*
X984000D02*
D03*
Y435000D02*
D03*
Y445000D02*
D03*
Y475000D02*
D03*
Y485000D02*
D03*
X884000Y775000D02*
D03*
Y745000D02*
D03*
Y735000D02*
D03*
Y725000D02*
D03*
Y715000D02*
D03*
X914000D02*
D03*
Y725000D02*
D03*
Y735000D02*
D03*
Y745000D02*
D03*
Y755000D02*
D03*
Y765000D02*
D03*
Y775000D02*
D03*
Y785000D02*
D03*
D21*
X924000Y665000D02*
D03*
X819000D02*
D03*
D22*
X700000Y827500D02*
D03*
X682000D02*
D03*
D23*
X1016500Y862000D02*
D03*
X1026500D02*
D03*
X1036500D02*
D03*
X1046500D02*
D03*
X1056500D02*
D03*
X1066500D02*
D03*
X1076500D02*
D03*
D24*
X1006500D02*
D03*
D25*
X1396500Y655000D02*
D03*
Y680000D02*
D03*
D26*
X914000Y475000D02*
D03*
Y455000D02*
D03*
X1051000Y435000D02*
D03*
X1041000Y455000D02*
D03*
X1061000D02*
D03*
D27*
X632000Y670000D02*
D03*
D28*
X642000D02*
D03*
Y660000D02*
D03*
Y650000D02*
D03*
Y640000D02*
D03*
Y630000D02*
D03*
Y620000D02*
D03*
Y610000D02*
D03*
Y600000D02*
D03*
Y590000D02*
D03*
Y580000D02*
D03*
Y570000D02*
D03*
Y560000D02*
D03*
Y550000D02*
D03*
Y540000D02*
D03*
Y530000D02*
D03*
Y520000D02*
D03*
Y510000D02*
D03*
Y500000D02*
D03*
Y490000D02*
D03*
Y480000D02*
D03*
D29*
X1197500Y775000D02*
D03*
X1207500D02*
D03*
X1217500D02*
D03*
X1197500Y835000D02*
D03*
X1257500D02*
D03*
X1277500Y775000D02*
D03*
X1267500D02*
D03*
X1257500D02*
D03*
X1317500D02*
D03*
X1327500D02*
D03*
X1337500D02*
D03*
X1317500Y835000D02*
D03*
X1377500D02*
D03*
X1397500Y775000D02*
D03*
X1387500D02*
D03*
X1377500D02*
D03*
X1447500D02*
D03*
X1457500D02*
D03*
X1467500D02*
D03*
X1447500Y835000D02*
D03*
X1507500D02*
D03*
X1527500Y775000D02*
D03*
X1517500D02*
D03*
X1507500D02*
D03*
D30*
X1227500D02*
D03*
X1237500D02*
D03*
Y835000D02*
D03*
X1227500D02*
D03*
X1217500D02*
D03*
X1207500D02*
D03*
X1267500D02*
D03*
X1277500D02*
D03*
X1287500D02*
D03*
X1297500D02*
D03*
Y775000D02*
D03*
X1287500D02*
D03*
X1347500D02*
D03*
X1357500D02*
D03*
Y835000D02*
D03*
X1347500D02*
D03*
X1337500D02*
D03*
X1327500D02*
D03*
X1387500D02*
D03*
X1397500D02*
D03*
X1407500D02*
D03*
X1417500D02*
D03*
Y775000D02*
D03*
X1407500D02*
D03*
X1477500D02*
D03*
X1487500D02*
D03*
Y835000D02*
D03*
X1477500D02*
D03*
X1467500D02*
D03*
X1457500D02*
D03*
X1517500D02*
D03*
X1527500D02*
D03*
X1537500D02*
D03*
X1547500D02*
D03*
Y775000D02*
D03*
X1537500D02*
D03*
D31*
X950500Y860500D02*
D03*
D32*
X940500D02*
D03*
D33*
X720000Y775000D02*
D03*
X680000D02*
D03*
X880000Y432500D02*
D03*
Y422500D02*
D03*
Y412500D02*
D03*
X680000Y737500D02*
D03*
X720000D02*
D03*
X680000Y762500D02*
D03*
X720000D02*
D03*
Y750000D02*
D03*
X680000D02*
D03*
D34*
X1560000Y635000D02*
D03*
D35*
X649300Y748800D02*
D03*
D36*
X659100Y770000D02*
D03*
X634500D02*
D03*
D37*
X640000Y832500D02*
D03*
Y812500D02*
D03*
D38*
X1564000Y402500D02*
D03*
Y875000D02*
D03*
X629000D02*
D03*
Y402500D02*
D03*
D39*
X774000Y765000D02*
D03*
X784000D02*
D03*
X794000D02*
D03*
D40*
X784000Y835000D02*
D03*
M02*
