G04 Layer_Color=65535*
%FSLAX25Y25*%
%MOIN*%
G70*
G01*
G75*
%ADD10C,0.02000*%
%ADD11C,0.04000*%
%ADD44C,0.01500*%
%ADD45C,0.01400*%
%ADD46C,0.01000*%
%ADD47C,0.00800*%
%ADD48C,0.01200*%
%ADD49C,0.00500*%
%ADD50C,0.00733*%
%ADD51R,0.04000X0.04000*%
%ADD52R,0.05000X0.05000*%
%ADD53R,0.01000X0.01500*%
%ADD54R,0.01000X0.01000*%
%ADD55R,0.02000X0.01000*%
D10*
X1579000Y387500D02*
Y890000D01*
X614000Y387500D02*
X1579000D01*
X614000Y890000D02*
X1579000D01*
X614000Y387500D02*
Y660000D01*
Y680000D02*
Y890000D01*
D11*
X1210000Y822500D02*
X1227500D01*
X1207500Y805000D02*
X1225000D01*
X1205000Y787500D02*
X1222500D01*
X1230000Y807500D02*
X1232500Y820000D01*
X1202500Y807500D02*
X1205000Y820000D01*
X1227500Y790000D02*
X1230000Y802500D01*
X1200000Y790000D02*
X1202500Y802500D01*
X1260000Y790000D02*
X1262500Y802500D01*
X1287500Y790000D02*
X1290000Y802500D01*
X1262500Y807500D02*
X1265000Y820000D01*
X1290000Y807500D02*
X1292500Y820000D01*
X1265000Y787500D02*
X1282500D01*
X1267500Y805000D02*
X1285000D01*
X1270000Y822500D02*
X1287500D01*
X1330000D02*
X1347500D01*
X1327500Y805000D02*
X1345000D01*
X1325000Y787500D02*
X1342500D01*
X1350000Y807500D02*
X1352500Y820000D01*
X1322500Y807500D02*
X1325000Y820000D01*
X1347500Y790000D02*
X1350000Y802500D01*
X1320000Y790000D02*
X1322500Y802500D01*
X1380000Y790000D02*
X1382500Y802500D01*
X1407500Y790000D02*
X1410000Y802500D01*
X1382500Y807500D02*
X1385000Y820000D01*
X1410000Y807500D02*
X1412500Y820000D01*
X1385000Y787500D02*
X1402500D01*
X1387500Y805000D02*
X1405000D01*
X1390000Y822500D02*
X1407500D01*
X1460000D02*
X1477500D01*
X1457500Y805000D02*
X1475000D01*
X1455000Y787500D02*
X1472500D01*
X1480000Y807500D02*
X1482500Y820000D01*
X1452500Y807500D02*
X1455000Y820000D01*
X1477500Y790000D02*
X1480000Y802500D01*
X1450000Y790000D02*
X1452500Y802500D01*
X1510000Y790000D02*
X1512500Y802500D01*
X1537500Y790000D02*
X1540000Y802500D01*
X1512500Y807500D02*
X1515000Y820000D01*
X1540000Y807500D02*
X1542500Y820000D01*
X1515000Y787500D02*
X1532500D01*
X1517500Y805000D02*
X1535000D01*
X1520000Y822500D02*
X1537500D01*
D44*
X1072000Y445000D02*
X1071976Y445999D01*
X1071905Y446996D01*
X1071786Y447989D01*
X1071620Y448974D01*
X1071408Y449951D01*
X1071149Y450916D01*
X1070845Y451868D01*
X1070496Y452805D01*
X1070102Y453724D01*
X1069666Y454623D01*
X1069186Y455500D01*
X1068666Y456354D01*
X1068106Y457181D01*
X1067507Y457981D01*
X1066871Y458752D01*
X1066198Y459492D01*
X1065492Y460198D01*
X1064752Y460871D01*
X1063981Y461507D01*
X1063181Y462106D01*
X1062354Y462666D01*
X1061500Y463187D01*
X1060623Y463665D01*
X1059724Y464102D01*
X1058805Y464496D01*
X1057868Y464845D01*
X1056916Y465149D01*
X1055951Y465408D01*
X1054974Y465621D01*
X1053989Y465786D01*
X1052996Y465905D01*
X1051999Y465976D01*
X1051000Y466000D01*
X1050001Y465976D01*
X1049004Y465905D01*
X1048011Y465786D01*
X1047026Y465621D01*
X1046049Y465408D01*
X1045084Y465149D01*
X1044132Y464845D01*
X1043195Y464496D01*
X1042276Y464102D01*
X1041377Y463665D01*
X1040500Y463187D01*
X1039647Y462666D01*
X1038819Y462106D01*
X1038019Y461507D01*
X1037248Y460871D01*
X1036508Y460198D01*
X1035802Y459492D01*
X1035129Y458752D01*
X1034493Y457981D01*
X1033894Y457181D01*
X1033334Y456353D01*
X1032813Y455500D01*
X1032334Y454623D01*
X1031898Y453724D01*
X1031504Y452805D01*
X1031155Y451868D01*
X1030851Y450916D01*
X1030592Y449951D01*
X1030379Y448974D01*
X1030214Y447989D01*
X1030095Y446996D01*
X1030024Y445999D01*
X1030000Y445000D01*
X1030024Y444001D01*
X1030095Y443004D01*
X1030214Y442011D01*
X1030379Y441026D01*
X1030592Y440049D01*
X1030851Y439084D01*
X1031155Y438132D01*
X1031504Y437195D01*
X1031898Y436276D01*
X1032335Y435377D01*
X1032813Y434500D01*
X1033334Y433646D01*
X1033894Y432819D01*
X1034493Y432019D01*
X1035129Y431248D01*
X1035802Y430508D01*
X1036508Y429802D01*
X1037248Y429129D01*
X1038019Y428493D01*
X1038819Y427894D01*
X1039647Y427334D01*
X1040500Y426813D01*
X1041377Y426334D01*
X1042276Y425898D01*
X1043195Y425504D01*
X1044132Y425155D01*
X1045084Y424851D01*
X1046049Y424592D01*
X1047026Y424379D01*
X1048011Y424214D01*
X1049004Y424095D01*
X1050001Y424024D01*
X1051000Y424000D01*
X1051999Y424024D01*
X1052996Y424095D01*
X1053989Y424214D01*
X1054974Y424379D01*
X1055951Y424592D01*
X1056917Y424851D01*
X1057868Y425155D01*
X1058805Y425504D01*
X1059724Y425898D01*
X1060623Y426334D01*
X1061500Y426814D01*
X1062354Y427334D01*
X1063181Y427894D01*
X1063981Y428493D01*
X1064752Y429129D01*
X1065492Y429802D01*
X1066198Y430508D01*
X1066871Y431248D01*
X1067507Y432019D01*
X1068106Y432819D01*
X1068666Y433647D01*
X1069186Y434500D01*
X1069666Y435377D01*
X1070102Y436276D01*
X1070496Y437195D01*
X1070845Y438132D01*
X1071149Y439084D01*
X1071408Y440049D01*
X1071620Y441026D01*
X1071786Y442011D01*
X1071905Y443004D01*
X1071976Y444001D01*
X1072000Y445000D01*
X1180830Y686163D02*
X1178498Y688495D01*
X1173833D01*
X1171500Y686163D01*
Y683830D01*
X1173833Y681498D01*
X1178498D01*
X1180830Y679165D01*
Y676833D01*
X1178498Y674500D01*
X1173833D01*
X1171500Y676833D01*
X1192493Y688495D02*
X1187828D01*
X1185495Y686163D01*
Y676833D01*
X1187828Y674500D01*
X1192493D01*
X1194826Y676833D01*
Y686163D01*
X1192493Y688495D01*
X1199491D02*
Y676833D01*
X1201824Y674500D01*
X1206489D01*
X1208821Y676833D01*
Y688495D01*
X1213486D02*
X1222817D01*
X1218152D01*
Y674500D01*
X1227482Y688495D02*
Y674500D01*
Y681498D01*
X1236812D01*
Y688495D01*
Y674500D01*
X1250808Y688495D02*
X1241477D01*
Y674500D01*
X1250808D01*
X1241477Y681498D02*
X1246142D01*
X1255473Y674500D02*
Y688495D01*
X1262471D01*
X1264803Y686163D01*
Y681498D01*
X1262471Y679165D01*
X1255473D01*
X1260138D02*
X1264803Y674500D01*
X1269468D02*
Y688495D01*
X1278799Y674500D01*
Y688495D01*
X1306790Y686163D02*
X1304457Y688495D01*
X1299792D01*
X1297459Y686163D01*
Y676833D01*
X1299792Y674500D01*
X1304457D01*
X1306790Y676833D01*
X1311455Y674500D02*
Y688495D01*
X1318452D01*
X1320785Y686163D01*
Y681498D01*
X1318452Y679165D01*
X1311455D01*
X1316120D02*
X1320785Y674500D01*
X1332448Y688495D02*
X1327783D01*
X1325450Y686163D01*
Y676833D01*
X1327783Y674500D01*
X1332448D01*
X1334781Y676833D01*
Y686163D01*
X1332448Y688495D01*
X1348776Y686163D02*
X1346443Y688495D01*
X1341778D01*
X1339446Y686163D01*
Y683830D01*
X1341778Y681498D01*
X1346443D01*
X1348776Y679165D01*
Y676833D01*
X1346443Y674500D01*
X1341778D01*
X1339446Y676833D01*
X1362771Y686163D02*
X1360439Y688495D01*
X1355774D01*
X1353441Y686163D01*
Y683830D01*
X1355774Y681498D01*
X1360439D01*
X1362771Y679165D01*
Y676833D01*
X1360439Y674500D01*
X1355774D01*
X1353441Y676833D01*
D45*
X1144000Y399000D02*
Y408997D01*
X1148998D01*
X1150665Y407331D01*
Y403998D01*
X1148998Y402332D01*
X1144000D01*
X1147332D02*
X1150665Y399000D01*
X1160661Y408997D02*
X1153997D01*
Y399000D01*
X1160661D01*
X1153997Y403998D02*
X1157329D01*
X1170658Y407331D02*
X1168992Y408997D01*
X1165660D01*
X1163993Y407331D01*
Y405664D01*
X1165660Y403998D01*
X1168992D01*
X1170658Y402332D01*
Y400666D01*
X1168992Y399000D01*
X1165660D01*
X1163993Y400666D01*
X1180655Y408997D02*
X1173990D01*
Y399000D01*
X1180655D01*
X1173990Y403998D02*
X1177323D01*
X1183987Y408997D02*
X1190652D01*
X1187319D01*
Y399000D01*
X1461500Y882497D02*
Y872500D01*
X1466498D01*
X1468165Y874166D01*
Y880831D01*
X1466498Y882497D01*
X1461500D01*
X1471497Y872500D02*
Y879165D01*
X1474829Y882497D01*
X1478161Y879165D01*
Y872500D01*
Y877498D01*
X1471497D01*
X1481493Y882497D02*
X1488158D01*
X1484826D01*
Y872500D01*
X1491490D02*
Y879165D01*
X1494823Y882497D01*
X1498155Y879165D01*
Y872500D01*
Y877498D01*
X1491490D01*
X1249000Y872500D02*
Y879165D01*
X1252332Y882497D01*
X1255665Y879165D01*
Y872500D01*
Y877498D01*
X1249000D01*
X1258997Y882497D02*
Y872500D01*
X1263995D01*
X1265661Y874166D01*
Y880831D01*
X1263995Y882497D01*
X1258997D01*
X1268993D02*
Y872500D01*
X1273992D01*
X1275658Y874166D01*
Y880831D01*
X1273992Y882497D01*
X1268993D01*
X1278990Y872500D02*
Y882497D01*
X1283989D01*
X1285655Y880831D01*
Y877498D01*
X1283989Y875832D01*
X1278990D01*
X1282323D02*
X1285655Y872500D01*
X1295652Y882497D02*
X1288987D01*
Y872500D01*
X1295652D01*
X1288987Y877498D02*
X1292319D01*
X1305648Y880831D02*
X1303982Y882497D01*
X1300650D01*
X1298984Y880831D01*
Y879165D01*
X1300650Y877498D01*
X1303982D01*
X1305648Y875832D01*
Y874166D01*
X1303982Y872500D01*
X1300650D01*
X1298984Y874166D01*
X1315645Y880831D02*
X1313979Y882497D01*
X1310647D01*
X1308981Y880831D01*
Y879165D01*
X1310647Y877498D01*
X1313979D01*
X1315645Y875832D01*
Y874166D01*
X1313979Y872500D01*
X1310647D01*
X1308981Y874166D01*
X918499Y404498D02*
X916166D01*
X915000Y403331D01*
Y398666D01*
X916166Y397500D01*
X918499D01*
X919665Y398666D01*
Y403331D01*
X918499Y404498D01*
X926663Y403331D02*
X925497Y404498D01*
X923164D01*
X921998Y403331D01*
Y402165D01*
X923164Y400999D01*
X925497D01*
X926663Y399833D01*
Y398666D01*
X925497Y397500D01*
X923164D01*
X921998Y398666D01*
X933661Y403331D02*
X932494Y404498D01*
X930162D01*
X928996Y403331D01*
Y398666D01*
X930162Y397500D01*
X932494D01*
X933661Y398666D01*
X935993Y404498D02*
X938326D01*
X937160D01*
Y397500D01*
X935993D01*
X938326D01*
X941825Y404498D02*
Y397500D01*
X946490D01*
X948822Y404498D02*
Y397500D01*
X953488D01*
X955820D02*
Y402165D01*
X958153Y404498D01*
X960485Y402165D01*
Y397500D01*
Y400999D01*
X955820D01*
X962818Y404498D02*
X967483D01*
X965151D01*
Y397500D01*
X973314Y404498D02*
X970982D01*
X969816Y403331D01*
Y398666D01*
X970982Y397500D01*
X973314D01*
X974481Y398666D01*
Y403331D01*
X973314Y404498D01*
X976813Y397500D02*
Y404498D01*
X980312D01*
X981479Y403331D01*
Y400999D01*
X980312Y399833D01*
X976813D01*
X979146D02*
X981479Y397500D01*
X988476Y403331D02*
X987310Y404498D01*
X984977D01*
X983811Y403331D01*
Y402165D01*
X984977Y400999D01*
X987310D01*
X988476Y399833D01*
Y398666D01*
X987310Y397500D01*
X984977D01*
X983811Y398666D01*
X1038665Y415331D02*
X1036998Y416997D01*
X1033666D01*
X1032000Y415331D01*
Y413664D01*
X1033666Y411998D01*
X1036998D01*
X1038665Y410332D01*
Y408666D01*
X1036998Y407000D01*
X1033666D01*
X1032000Y408666D01*
X1041997Y407000D02*
Y416997D01*
X1046995D01*
X1048661Y415331D01*
Y411998D01*
X1046995Y410332D01*
X1041997D01*
X1058658Y416997D02*
X1051993D01*
Y407000D01*
X1058658D01*
X1051993Y411998D02*
X1055326D01*
X1068655Y416997D02*
X1061990D01*
Y407000D01*
X1068655D01*
X1061990Y411998D02*
X1065323D01*
X1071987Y416997D02*
Y407000D01*
X1076985D01*
X1078652Y408666D01*
Y415331D01*
X1076985Y416997D01*
X1071987D01*
X862665Y400331D02*
X860998Y401997D01*
X857666D01*
X856000Y400331D01*
Y398664D01*
X857666Y396998D01*
X860998D01*
X862665Y395332D01*
Y393666D01*
X860998Y392000D01*
X857666D01*
X856000Y393666D01*
X865997Y392000D02*
Y401997D01*
X870995D01*
X872661Y400331D01*
Y396998D01*
X870995Y395332D01*
X865997D01*
X882658Y401997D02*
X875994D01*
Y392000D01*
X882658D01*
X875994Y396998D02*
X879326D01*
X892655Y401997D02*
X885990D01*
Y392000D01*
X892655D01*
X885990Y396998D02*
X889323D01*
X895987Y401997D02*
Y392000D01*
X900986D01*
X902652Y393666D01*
Y400331D01*
X900986Y401997D01*
X895987D01*
X662500Y413500D02*
Y420998D01*
X666249D01*
X667498Y419748D01*
Y417249D01*
X666249Y415999D01*
X662500D01*
X664999D02*
X667498Y413500D01*
X674996Y420998D02*
X669998D01*
Y413500D01*
X674996D01*
X669998Y417249D02*
X672497D01*
X677495Y420998D02*
Y415999D01*
X679994Y413500D01*
X682493Y415999D01*
Y420998D01*
X684993D02*
X687492D01*
X686242D01*
Y413500D01*
X684993D01*
X687492D01*
X696239Y419748D02*
X694989Y420998D01*
X692490D01*
X691241Y419748D01*
Y418498D01*
X692490Y417249D01*
X694989D01*
X696239Y415999D01*
Y414750D01*
X694989Y413500D01*
X692490D01*
X691241Y414750D01*
X698738Y420998D02*
X701237D01*
X699988D01*
Y413500D01*
X698738D01*
X701237D01*
X708735Y420998D02*
X706236D01*
X704986Y419748D01*
Y414750D01*
X706236Y413500D01*
X708735D01*
X709985Y414750D01*
Y419748D01*
X708735Y420998D01*
X712484Y413500D02*
Y420998D01*
X717482Y413500D01*
Y420998D01*
X727479Y419748D02*
X728729Y420998D01*
X731228D01*
X732477Y419748D01*
Y418498D01*
X731228Y417249D01*
X729978D01*
X731228D01*
X732477Y415999D01*
Y414750D01*
X731228Y413500D01*
X728729D01*
X727479Y414750D01*
X734977Y413500D02*
Y414750D01*
X736226D01*
Y413500D01*
X734977D01*
X746223D02*
X741225D01*
X746223Y418498D01*
Y419748D01*
X744973Y420998D01*
X742474D01*
X741225Y419748D01*
D46*
X1184570Y434951D02*
X1185120Y435783D01*
X1185632Y436638D01*
X1186104Y437516D01*
X1186536Y438414D01*
X1186927Y439331D01*
X1187276Y440264D01*
X1187582Y441213D01*
X1187846Y442174D01*
X1188065Y443146D01*
X1188240Y444128D01*
X1188370Y445116D01*
X1188456Y446109D01*
X1188496Y447105D01*
X1188492Y448101D01*
X1188442Y449097D01*
X1188347Y450089D01*
X1188208Y451076D01*
X1188023Y452055D01*
X1187795Y453026D01*
X1187523Y453984D01*
X1187207Y454930D01*
X1186850Y455860D01*
X1186450Y456773D01*
X1186010Y457667D01*
X1185529Y458541D01*
X1185009Y459391D01*
X1184452Y460217D01*
X1183857Y461017D01*
X1183227Y461790D01*
X1182563Y462533D01*
X1181866Y463245D01*
X1181137Y463925D01*
X1180378Y464571D01*
X1179590Y465182D01*
X1178776Y465757D01*
X1177936Y466294D01*
X1177073Y466792D01*
X1176189Y467252D01*
X1175284Y467670D01*
X1174362Y468047D01*
X1173423Y468382D01*
X1172470Y468675D01*
X1171505Y468923D01*
X1170529Y469128D01*
X1169546Y469288D01*
X1168556Y469404D01*
X1167561Y469474D01*
X1166565Y469500D01*
X1165569Y469480D01*
X1164574Y469416D01*
X1163583Y469306D01*
X1162599Y469151D01*
X1161622Y468952D01*
X1160655Y468709D01*
X1159701Y468423D01*
X1158760Y468093D01*
X1157835Y467722D01*
X1156928Y467309D01*
X1156041Y466855D01*
X1155175Y466361D01*
X1154332Y465829D01*
X1153514Y465259D01*
X1152724Y464652D01*
X1151961Y464011D01*
X1151228Y463335D01*
X1150526Y462627D01*
X1149858Y461888D01*
X1149223Y461120D01*
X1148624Y460323D01*
X1148061Y459501D01*
X1147537Y458653D01*
X1147051Y457783D01*
X1146605Y456891D01*
X1146200Y455980D01*
X1145837Y455052D01*
X1145516Y454109D01*
X1145238Y453151D01*
X1145004Y452183D01*
X1144814Y451204D01*
X1144669Y450218D01*
X1144568Y449227D01*
X1144512Y448231D01*
X1144502Y447235D01*
X1144536Y446239D01*
X1144616Y445245D01*
X1144740Y444256D01*
X1144910Y443274D01*
X1145123Y442300D01*
X1145381Y441337D01*
X1145681Y440387D01*
X1146025Y439452D01*
X1146411Y438532D01*
X1146837Y437632D01*
X1147305Y436751D01*
X1147811Y435893D01*
X1148356Y435058D01*
X1517070Y434951D02*
X1517620Y435783D01*
X1518132Y436638D01*
X1518604Y437516D01*
X1519036Y438414D01*
X1519427Y439331D01*
X1519776Y440264D01*
X1520082Y441213D01*
X1520346Y442174D01*
X1520565Y443146D01*
X1520740Y444128D01*
X1520870Y445116D01*
X1520956Y446109D01*
X1520996Y447105D01*
X1520992Y448101D01*
X1520942Y449097D01*
X1520847Y450089D01*
X1520708Y451076D01*
X1520523Y452055D01*
X1520295Y453026D01*
X1520023Y453984D01*
X1519707Y454930D01*
X1519350Y455860D01*
X1518950Y456773D01*
X1518510Y457667D01*
X1518029Y458541D01*
X1517509Y459391D01*
X1516952Y460217D01*
X1516357Y461017D01*
X1515727Y461790D01*
X1515063Y462533D01*
X1514366Y463245D01*
X1513637Y463925D01*
X1512878Y464571D01*
X1512090Y465182D01*
X1511276Y465757D01*
X1510437Y466294D01*
X1509573Y466792D01*
X1508689Y467252D01*
X1507784Y467670D01*
X1506862Y468047D01*
X1505923Y468382D01*
X1504970Y468675D01*
X1504005Y468923D01*
X1503029Y469128D01*
X1502046Y469288D01*
X1501056Y469404D01*
X1500061Y469474D01*
X1499065Y469500D01*
X1498069Y469480D01*
X1497074Y469416D01*
X1496083Y469306D01*
X1495099Y469151D01*
X1494122Y468952D01*
X1493155Y468709D01*
X1492201Y468423D01*
X1491260Y468093D01*
X1490335Y467722D01*
X1489428Y467309D01*
X1488541Y466855D01*
X1487675Y466361D01*
X1486832Y465829D01*
X1486014Y465259D01*
X1485223Y464652D01*
X1484461Y464011D01*
X1483728Y463335D01*
X1483026Y462627D01*
X1482358Y461888D01*
X1481723Y461120D01*
X1481124Y460323D01*
X1480561Y459501D01*
X1480037Y458653D01*
X1479551Y457783D01*
X1479105Y456891D01*
X1478700Y455980D01*
X1478337Y455052D01*
X1478016Y454109D01*
X1477738Y453151D01*
X1477504Y452183D01*
X1477314Y451204D01*
X1477169Y450218D01*
X1477068Y449227D01*
X1477012Y448231D01*
X1477002Y447235D01*
X1477036Y446239D01*
X1477116Y445245D01*
X1477240Y444256D01*
X1477410Y443274D01*
X1477623Y442300D01*
X1477881Y441337D01*
X1478181Y440387D01*
X1478525Y439452D01*
X1478911Y438532D01*
X1479337Y437632D01*
X1479805Y436751D01*
X1480311Y435893D01*
X1480856Y435058D01*
X1467070Y434951D02*
X1467620Y435783D01*
X1468132Y436638D01*
X1468604Y437516D01*
X1469036Y438414D01*
X1469427Y439331D01*
X1469776Y440264D01*
X1470082Y441213D01*
X1470346Y442174D01*
X1470565Y443146D01*
X1470740Y444128D01*
X1470870Y445116D01*
X1470956Y446109D01*
X1470996Y447105D01*
X1470992Y448101D01*
X1470942Y449097D01*
X1470847Y450089D01*
X1470708Y451076D01*
X1470523Y452055D01*
X1470295Y453026D01*
X1470023Y453984D01*
X1469707Y454930D01*
X1469350Y455860D01*
X1468950Y456773D01*
X1468510Y457667D01*
X1468029Y458541D01*
X1467509Y459391D01*
X1466952Y460217D01*
X1466357Y461017D01*
X1465727Y461790D01*
X1465063Y462533D01*
X1464366Y463245D01*
X1463637Y463925D01*
X1462878Y464571D01*
X1462090Y465182D01*
X1461276Y465757D01*
X1460437Y466294D01*
X1459573Y466792D01*
X1458689Y467252D01*
X1457784Y467670D01*
X1456862Y468047D01*
X1455923Y468382D01*
X1454970Y468675D01*
X1454005Y468923D01*
X1453029Y469128D01*
X1452046Y469288D01*
X1451056Y469404D01*
X1450061Y469474D01*
X1449065Y469500D01*
X1448069Y469480D01*
X1447074Y469416D01*
X1446083Y469306D01*
X1445099Y469151D01*
X1444122Y468952D01*
X1443155Y468709D01*
X1442201Y468423D01*
X1441260Y468093D01*
X1440335Y467722D01*
X1439428Y467309D01*
X1438541Y466855D01*
X1437675Y466361D01*
X1436832Y465829D01*
X1436014Y465259D01*
X1435223Y464652D01*
X1434461Y464011D01*
X1433728Y463335D01*
X1433026Y462627D01*
X1432358Y461888D01*
X1431723Y461120D01*
X1431124Y460323D01*
X1430561Y459501D01*
X1430037Y458653D01*
X1429551Y457783D01*
X1429105Y456891D01*
X1428700Y455980D01*
X1428337Y455052D01*
X1428016Y454109D01*
X1427738Y453151D01*
X1427504Y452183D01*
X1427314Y451204D01*
X1427169Y450218D01*
X1427068Y449227D01*
X1427012Y448231D01*
X1427002Y447235D01*
X1427036Y446239D01*
X1427116Y445245D01*
X1427240Y444256D01*
X1427410Y443274D01*
X1427623Y442300D01*
X1427881Y441337D01*
X1428181Y440387D01*
X1428525Y439452D01*
X1428911Y438532D01*
X1429337Y437632D01*
X1429805Y436751D01*
X1430311Y435893D01*
X1430856Y435058D01*
X1417070Y434951D02*
X1417620Y435783D01*
X1418132Y436638D01*
X1418604Y437516D01*
X1419036Y438414D01*
X1419427Y439331D01*
X1419776Y440264D01*
X1420082Y441213D01*
X1420346Y442174D01*
X1420565Y443146D01*
X1420740Y444128D01*
X1420870Y445116D01*
X1420956Y446109D01*
X1420996Y447105D01*
X1420992Y448101D01*
X1420942Y449097D01*
X1420847Y450089D01*
X1420708Y451076D01*
X1420523Y452055D01*
X1420295Y453026D01*
X1420023Y453984D01*
X1419707Y454930D01*
X1419350Y455860D01*
X1418950Y456773D01*
X1418510Y457667D01*
X1418029Y458541D01*
X1417509Y459391D01*
X1416952Y460217D01*
X1416357Y461017D01*
X1415727Y461790D01*
X1415063Y462533D01*
X1414366Y463245D01*
X1413637Y463925D01*
X1412878Y464571D01*
X1412090Y465182D01*
X1411276Y465757D01*
X1410437Y466294D01*
X1409573Y466792D01*
X1408689Y467252D01*
X1407784Y467670D01*
X1406862Y468047D01*
X1405923Y468382D01*
X1404970Y468675D01*
X1404005Y468923D01*
X1403029Y469128D01*
X1402046Y469288D01*
X1401056Y469404D01*
X1400061Y469474D01*
X1399065Y469500D01*
X1398069Y469480D01*
X1397074Y469416D01*
X1396083Y469306D01*
X1395099Y469151D01*
X1394122Y468952D01*
X1393155Y468709D01*
X1392201Y468423D01*
X1391260Y468093D01*
X1390335Y467722D01*
X1389428Y467309D01*
X1388541Y466855D01*
X1387675Y466361D01*
X1386832Y465829D01*
X1386014Y465259D01*
X1385223Y464652D01*
X1384461Y464011D01*
X1383728Y463335D01*
X1383026Y462627D01*
X1382358Y461888D01*
X1381723Y461120D01*
X1381124Y460323D01*
X1380561Y459501D01*
X1380037Y458653D01*
X1379551Y457783D01*
X1379105Y456891D01*
X1378700Y455980D01*
X1378337Y455052D01*
X1378016Y454109D01*
X1377738Y453151D01*
X1377504Y452183D01*
X1377314Y451204D01*
X1377169Y450218D01*
X1377068Y449227D01*
X1377012Y448231D01*
X1377002Y447235D01*
X1377036Y446239D01*
X1377116Y445245D01*
X1377240Y444256D01*
X1377410Y443274D01*
X1377623Y442300D01*
X1377881Y441337D01*
X1378181Y440387D01*
X1378525Y439452D01*
X1378911Y438532D01*
X1379337Y437632D01*
X1379805Y436751D01*
X1380311Y435893D01*
X1380856Y435058D01*
X1367070Y434951D02*
X1367620Y435783D01*
X1368132Y436638D01*
X1368604Y437516D01*
X1369036Y438414D01*
X1369427Y439331D01*
X1369776Y440264D01*
X1370082Y441213D01*
X1370346Y442174D01*
X1370565Y443146D01*
X1370740Y444128D01*
X1370870Y445116D01*
X1370956Y446109D01*
X1370996Y447105D01*
X1370992Y448101D01*
X1370942Y449097D01*
X1370847Y450089D01*
X1370708Y451076D01*
X1370523Y452055D01*
X1370295Y453026D01*
X1370023Y453984D01*
X1369707Y454930D01*
X1369350Y455860D01*
X1368950Y456773D01*
X1368510Y457667D01*
X1368029Y458541D01*
X1367509Y459391D01*
X1366952Y460217D01*
X1366357Y461017D01*
X1365727Y461790D01*
X1365063Y462533D01*
X1364366Y463245D01*
X1363637Y463925D01*
X1362878Y464571D01*
X1362090Y465182D01*
X1361276Y465757D01*
X1360437Y466294D01*
X1359573Y466792D01*
X1358689Y467252D01*
X1357784Y467670D01*
X1356862Y468047D01*
X1355923Y468382D01*
X1354970Y468675D01*
X1354005Y468923D01*
X1353029Y469128D01*
X1352046Y469288D01*
X1351056Y469404D01*
X1350061Y469474D01*
X1349065Y469500D01*
X1348069Y469480D01*
X1347074Y469416D01*
X1346083Y469306D01*
X1345099Y469151D01*
X1344122Y468952D01*
X1343155Y468709D01*
X1342201Y468423D01*
X1341260Y468093D01*
X1340335Y467722D01*
X1339428Y467309D01*
X1338541Y466855D01*
X1337675Y466361D01*
X1336832Y465829D01*
X1336014Y465259D01*
X1335223Y464652D01*
X1334461Y464011D01*
X1333728Y463335D01*
X1333026Y462627D01*
X1332358Y461888D01*
X1331723Y461120D01*
X1331124Y460323D01*
X1330561Y459501D01*
X1330037Y458653D01*
X1329551Y457783D01*
X1329105Y456891D01*
X1328700Y455980D01*
X1328337Y455052D01*
X1328016Y454109D01*
X1327738Y453151D01*
X1327504Y452183D01*
X1327314Y451204D01*
X1327169Y450218D01*
X1327068Y449227D01*
X1327012Y448231D01*
X1327002Y447235D01*
X1327036Y446239D01*
X1327116Y445245D01*
X1327240Y444256D01*
X1327410Y443274D01*
X1327623Y442300D01*
X1327881Y441337D01*
X1328181Y440387D01*
X1328525Y439452D01*
X1328911Y438532D01*
X1329337Y437632D01*
X1329805Y436751D01*
X1330311Y435893D01*
X1330856Y435058D01*
X1317070Y434951D02*
X1317620Y435783D01*
X1318132Y436638D01*
X1318604Y437516D01*
X1319036Y438414D01*
X1319427Y439331D01*
X1319776Y440264D01*
X1320082Y441213D01*
X1320346Y442174D01*
X1320565Y443146D01*
X1320740Y444128D01*
X1320870Y445116D01*
X1320956Y446109D01*
X1320996Y447105D01*
X1320992Y448101D01*
X1320942Y449097D01*
X1320847Y450089D01*
X1320708Y451076D01*
X1320523Y452055D01*
X1320295Y453026D01*
X1320023Y453984D01*
X1319707Y454930D01*
X1319350Y455860D01*
X1318950Y456773D01*
X1318510Y457667D01*
X1318029Y458541D01*
X1317509Y459391D01*
X1316952Y460217D01*
X1316357Y461017D01*
X1315727Y461790D01*
X1315063Y462533D01*
X1314366Y463245D01*
X1313637Y463925D01*
X1312878Y464571D01*
X1312090Y465182D01*
X1311276Y465757D01*
X1310437Y466294D01*
X1309573Y466792D01*
X1308689Y467252D01*
X1307784Y467670D01*
X1306862Y468047D01*
X1305923Y468382D01*
X1304970Y468675D01*
X1304005Y468923D01*
X1303029Y469128D01*
X1302046Y469288D01*
X1301056Y469404D01*
X1300061Y469474D01*
X1299065Y469500D01*
X1298069Y469480D01*
X1297074Y469416D01*
X1296083Y469306D01*
X1295099Y469151D01*
X1294122Y468952D01*
X1293155Y468709D01*
X1292201Y468423D01*
X1291260Y468093D01*
X1290335Y467722D01*
X1289428Y467309D01*
X1288541Y466855D01*
X1287675Y466361D01*
X1286832Y465829D01*
X1286014Y465259D01*
X1285223Y464652D01*
X1284461Y464011D01*
X1283728Y463335D01*
X1283026Y462627D01*
X1282358Y461888D01*
X1281723Y461120D01*
X1281124Y460323D01*
X1280561Y459501D01*
X1280037Y458653D01*
X1279551Y457783D01*
X1279105Y456891D01*
X1278700Y455980D01*
X1278337Y455052D01*
X1278016Y454109D01*
X1277738Y453151D01*
X1277504Y452183D01*
X1277314Y451204D01*
X1277169Y450218D01*
X1277068Y449227D01*
X1277012Y448231D01*
X1277002Y447235D01*
X1277036Y446239D01*
X1277116Y445245D01*
X1277240Y444256D01*
X1277410Y443274D01*
X1277623Y442300D01*
X1277881Y441337D01*
X1278181Y440387D01*
X1278525Y439452D01*
X1278911Y438532D01*
X1279337Y437632D01*
X1279805Y436751D01*
X1280311Y435893D01*
X1280856Y435058D01*
X1517070Y484951D02*
X1517620Y485783D01*
X1518132Y486638D01*
X1518604Y487516D01*
X1519036Y488414D01*
X1519427Y489331D01*
X1519776Y490264D01*
X1520082Y491213D01*
X1520346Y492174D01*
X1520565Y493146D01*
X1520740Y494128D01*
X1520870Y495116D01*
X1520956Y496109D01*
X1520996Y497105D01*
X1520992Y498101D01*
X1520942Y499097D01*
X1520847Y500089D01*
X1520708Y501076D01*
X1520523Y502055D01*
X1520295Y503026D01*
X1520023Y503984D01*
X1519707Y504930D01*
X1519350Y505860D01*
X1518950Y506773D01*
X1518510Y507667D01*
X1518029Y508541D01*
X1517509Y509391D01*
X1516952Y510217D01*
X1516357Y511017D01*
X1515727Y511790D01*
X1515063Y512533D01*
X1514366Y513245D01*
X1513637Y513925D01*
X1512878Y514571D01*
X1512090Y515182D01*
X1511276Y515757D01*
X1510437Y516294D01*
X1509573Y516792D01*
X1508689Y517252D01*
X1507784Y517670D01*
X1506862Y518047D01*
X1505923Y518382D01*
X1504970Y518675D01*
X1504005Y518923D01*
X1503029Y519128D01*
X1502046Y519288D01*
X1501056Y519404D01*
X1500061Y519474D01*
X1499065Y519500D01*
X1498069Y519480D01*
X1497074Y519416D01*
X1496083Y519306D01*
X1495099Y519151D01*
X1494122Y518952D01*
X1493155Y518709D01*
X1492201Y518423D01*
X1491260Y518093D01*
X1490335Y517722D01*
X1489428Y517309D01*
X1488541Y516855D01*
X1487675Y516361D01*
X1486832Y515829D01*
X1486014Y515259D01*
X1485223Y514652D01*
X1484461Y514011D01*
X1483728Y513335D01*
X1483026Y512627D01*
X1482358Y511888D01*
X1481723Y511120D01*
X1481124Y510323D01*
X1480561Y509501D01*
X1480037Y508653D01*
X1479551Y507783D01*
X1479105Y506891D01*
X1478700Y505980D01*
X1478337Y505052D01*
X1478016Y504109D01*
X1477738Y503151D01*
X1477504Y502183D01*
X1477314Y501204D01*
X1477169Y500218D01*
X1477068Y499227D01*
X1477012Y498231D01*
X1477002Y497235D01*
X1477036Y496239D01*
X1477116Y495245D01*
X1477240Y494256D01*
X1477410Y493274D01*
X1477623Y492300D01*
X1477881Y491337D01*
X1478181Y490387D01*
X1478525Y489452D01*
X1478911Y488532D01*
X1479337Y487632D01*
X1479805Y486751D01*
X1480311Y485893D01*
X1480856Y485058D01*
X1467070Y484951D02*
X1467620Y485783D01*
X1468132Y486638D01*
X1468604Y487516D01*
X1469036Y488414D01*
X1469427Y489331D01*
X1469776Y490264D01*
X1470082Y491213D01*
X1470346Y492174D01*
X1470565Y493146D01*
X1470740Y494128D01*
X1470870Y495116D01*
X1470956Y496109D01*
X1470996Y497105D01*
X1470992Y498101D01*
X1470942Y499097D01*
X1470847Y500089D01*
X1470708Y501076D01*
X1470523Y502055D01*
X1470295Y503026D01*
X1470023Y503984D01*
X1469707Y504930D01*
X1469350Y505860D01*
X1468950Y506773D01*
X1468510Y507667D01*
X1468029Y508541D01*
X1467509Y509391D01*
X1466952Y510217D01*
X1466357Y511017D01*
X1465727Y511790D01*
X1465063Y512533D01*
X1464366Y513245D01*
X1463637Y513925D01*
X1462878Y514571D01*
X1462090Y515182D01*
X1461276Y515757D01*
X1460437Y516294D01*
X1459573Y516792D01*
X1458689Y517252D01*
X1457784Y517670D01*
X1456862Y518047D01*
X1455923Y518382D01*
X1454970Y518675D01*
X1454005Y518923D01*
X1453029Y519128D01*
X1452046Y519288D01*
X1451056Y519404D01*
X1450061Y519474D01*
X1449065Y519500D01*
X1448069Y519480D01*
X1447074Y519416D01*
X1446083Y519306D01*
X1445099Y519151D01*
X1444122Y518952D01*
X1443155Y518709D01*
X1442201Y518423D01*
X1441260Y518093D01*
X1440335Y517722D01*
X1439428Y517309D01*
X1438541Y516855D01*
X1437675Y516361D01*
X1436832Y515829D01*
X1436014Y515259D01*
X1435223Y514652D01*
X1434461Y514011D01*
X1433728Y513335D01*
X1433026Y512627D01*
X1432358Y511888D01*
X1431723Y511120D01*
X1431124Y510323D01*
X1430561Y509501D01*
X1430037Y508653D01*
X1429551Y507783D01*
X1429105Y506891D01*
X1428700Y505980D01*
X1428337Y505052D01*
X1428016Y504109D01*
X1427738Y503151D01*
X1427504Y502183D01*
X1427314Y501204D01*
X1427169Y500218D01*
X1427068Y499227D01*
X1427012Y498231D01*
X1427002Y497235D01*
X1427036Y496239D01*
X1427116Y495245D01*
X1427240Y494256D01*
X1427410Y493274D01*
X1427623Y492300D01*
X1427881Y491337D01*
X1428181Y490387D01*
X1428525Y489452D01*
X1428911Y488532D01*
X1429337Y487632D01*
X1429805Y486751D01*
X1430311Y485893D01*
X1430856Y485058D01*
X1417070Y484951D02*
X1417620Y485783D01*
X1418132Y486638D01*
X1418604Y487516D01*
X1419036Y488414D01*
X1419427Y489331D01*
X1419776Y490264D01*
X1420082Y491213D01*
X1420346Y492174D01*
X1420565Y493146D01*
X1420740Y494128D01*
X1420870Y495116D01*
X1420956Y496109D01*
X1420996Y497105D01*
X1420992Y498101D01*
X1420942Y499097D01*
X1420847Y500089D01*
X1420708Y501076D01*
X1420523Y502055D01*
X1420295Y503026D01*
X1420023Y503984D01*
X1419707Y504930D01*
X1419350Y505860D01*
X1418950Y506773D01*
X1418510Y507667D01*
X1418029Y508541D01*
X1417509Y509391D01*
X1416952Y510217D01*
X1416357Y511017D01*
X1415727Y511790D01*
X1415063Y512533D01*
X1414366Y513245D01*
X1413637Y513925D01*
X1412878Y514571D01*
X1412090Y515182D01*
X1411276Y515757D01*
X1410437Y516294D01*
X1409573Y516792D01*
X1408689Y517252D01*
X1407784Y517670D01*
X1406862Y518047D01*
X1405923Y518382D01*
X1404970Y518675D01*
X1404005Y518923D01*
X1403029Y519128D01*
X1402046Y519288D01*
X1401056Y519404D01*
X1400061Y519474D01*
X1399065Y519500D01*
X1398069Y519480D01*
X1397074Y519416D01*
X1396083Y519306D01*
X1395099Y519151D01*
X1394122Y518952D01*
X1393155Y518709D01*
X1392201Y518423D01*
X1391260Y518093D01*
X1390335Y517722D01*
X1389428Y517309D01*
X1388541Y516855D01*
X1387675Y516361D01*
X1386832Y515829D01*
X1386014Y515259D01*
X1385223Y514652D01*
X1384461Y514011D01*
X1383728Y513335D01*
X1383026Y512627D01*
X1382358Y511888D01*
X1381723Y511120D01*
X1381124Y510323D01*
X1380561Y509501D01*
X1380037Y508653D01*
X1379551Y507783D01*
X1379105Y506891D01*
X1378700Y505980D01*
X1378337Y505052D01*
X1378016Y504109D01*
X1377738Y503151D01*
X1377504Y502183D01*
X1377314Y501204D01*
X1377169Y500218D01*
X1377068Y499227D01*
X1377012Y498231D01*
X1377002Y497235D01*
X1377036Y496239D01*
X1377116Y495245D01*
X1377240Y494256D01*
X1377410Y493274D01*
X1377623Y492300D01*
X1377881Y491337D01*
X1378181Y490387D01*
X1378525Y489452D01*
X1378911Y488532D01*
X1379337Y487632D01*
X1379805Y486751D01*
X1380311Y485893D01*
X1380856Y485058D01*
X1367070Y484951D02*
X1367620Y485783D01*
X1368132Y486638D01*
X1368604Y487516D01*
X1369036Y488414D01*
X1369427Y489331D01*
X1369776Y490264D01*
X1370082Y491213D01*
X1370346Y492174D01*
X1370565Y493146D01*
X1370740Y494128D01*
X1370870Y495116D01*
X1370956Y496109D01*
X1370996Y497105D01*
X1370992Y498101D01*
X1370942Y499097D01*
X1370847Y500089D01*
X1370708Y501076D01*
X1370523Y502055D01*
X1370295Y503026D01*
X1370023Y503984D01*
X1369707Y504930D01*
X1369350Y505860D01*
X1368950Y506773D01*
X1368510Y507667D01*
X1368029Y508541D01*
X1367509Y509391D01*
X1366952Y510217D01*
X1366357Y511017D01*
X1365727Y511790D01*
X1365063Y512533D01*
X1364366Y513245D01*
X1363637Y513925D01*
X1362878Y514571D01*
X1362090Y515182D01*
X1361276Y515757D01*
X1360437Y516294D01*
X1359573Y516792D01*
X1358689Y517252D01*
X1357784Y517670D01*
X1356862Y518047D01*
X1355923Y518382D01*
X1354970Y518675D01*
X1354005Y518923D01*
X1353029Y519128D01*
X1352046Y519288D01*
X1351056Y519404D01*
X1350061Y519474D01*
X1349065Y519500D01*
X1348069Y519480D01*
X1347074Y519416D01*
X1346083Y519306D01*
X1345099Y519151D01*
X1344122Y518952D01*
X1343155Y518709D01*
X1342201Y518423D01*
X1341260Y518093D01*
X1340335Y517722D01*
X1339428Y517309D01*
X1338541Y516855D01*
X1337675Y516361D01*
X1336832Y515829D01*
X1336014Y515259D01*
X1335223Y514652D01*
X1334461Y514011D01*
X1333728Y513335D01*
X1333026Y512627D01*
X1332358Y511888D01*
X1331723Y511120D01*
X1331124Y510323D01*
X1330561Y509501D01*
X1330037Y508653D01*
X1329551Y507783D01*
X1329105Y506891D01*
X1328700Y505980D01*
X1328337Y505052D01*
X1328016Y504109D01*
X1327738Y503151D01*
X1327504Y502183D01*
X1327314Y501204D01*
X1327169Y500218D01*
X1327068Y499227D01*
X1327012Y498231D01*
X1327002Y497235D01*
X1327036Y496239D01*
X1327116Y495245D01*
X1327240Y494256D01*
X1327410Y493274D01*
X1327623Y492300D01*
X1327881Y491337D01*
X1328181Y490387D01*
X1328525Y489452D01*
X1328911Y488532D01*
X1329337Y487632D01*
X1329805Y486751D01*
X1330311Y485893D01*
X1330856Y485058D01*
X1317070Y484951D02*
X1317620Y485783D01*
X1318132Y486638D01*
X1318604Y487516D01*
X1319036Y488414D01*
X1319427Y489331D01*
X1319776Y490264D01*
X1320082Y491213D01*
X1320346Y492174D01*
X1320565Y493146D01*
X1320740Y494128D01*
X1320870Y495116D01*
X1320956Y496109D01*
X1320996Y497105D01*
X1320992Y498101D01*
X1320942Y499097D01*
X1320847Y500089D01*
X1320708Y501076D01*
X1320523Y502055D01*
X1320295Y503026D01*
X1320023Y503984D01*
X1319707Y504930D01*
X1319350Y505860D01*
X1318950Y506773D01*
X1318510Y507667D01*
X1318029Y508541D01*
X1317509Y509391D01*
X1316952Y510217D01*
X1316357Y511017D01*
X1315727Y511790D01*
X1315063Y512533D01*
X1314366Y513245D01*
X1313637Y513925D01*
X1312878Y514571D01*
X1312090Y515182D01*
X1311276Y515757D01*
X1310437Y516294D01*
X1309573Y516792D01*
X1308689Y517252D01*
X1307784Y517670D01*
X1306862Y518047D01*
X1305923Y518382D01*
X1304970Y518675D01*
X1304005Y518923D01*
X1303029Y519128D01*
X1302046Y519288D01*
X1301056Y519404D01*
X1300061Y519474D01*
X1299065Y519500D01*
X1298069Y519480D01*
X1297074Y519416D01*
X1296083Y519306D01*
X1295099Y519151D01*
X1294122Y518952D01*
X1293155Y518709D01*
X1292201Y518423D01*
X1291260Y518093D01*
X1290335Y517722D01*
X1289428Y517309D01*
X1288541Y516855D01*
X1287675Y516361D01*
X1286832Y515829D01*
X1286014Y515259D01*
X1285223Y514652D01*
X1284461Y514011D01*
X1283728Y513335D01*
X1283026Y512627D01*
X1282358Y511888D01*
X1281723Y511120D01*
X1281124Y510323D01*
X1280561Y509501D01*
X1280037Y508653D01*
X1279551Y507783D01*
X1279105Y506891D01*
X1278700Y505980D01*
X1278337Y505052D01*
X1278016Y504109D01*
X1277738Y503151D01*
X1277504Y502183D01*
X1277314Y501204D01*
X1277169Y500218D01*
X1277068Y499227D01*
X1277012Y498231D01*
X1277002Y497235D01*
X1277036Y496239D01*
X1277116Y495245D01*
X1277240Y494256D01*
X1277410Y493274D01*
X1277623Y492300D01*
X1277881Y491337D01*
X1278181Y490387D01*
X1278525Y489452D01*
X1278911Y488532D01*
X1279337Y487632D01*
X1279805Y486751D01*
X1280311Y485893D01*
X1280856Y485058D01*
X1517070Y534951D02*
X1517620Y535783D01*
X1518132Y536638D01*
X1518604Y537516D01*
X1519036Y538414D01*
X1519427Y539331D01*
X1519776Y540264D01*
X1520082Y541213D01*
X1520346Y542174D01*
X1520565Y543146D01*
X1520740Y544128D01*
X1520870Y545116D01*
X1520956Y546109D01*
X1520996Y547105D01*
X1520992Y548101D01*
X1520942Y549097D01*
X1520847Y550089D01*
X1520708Y551076D01*
X1520523Y552055D01*
X1520295Y553026D01*
X1520023Y553984D01*
X1519707Y554930D01*
X1519350Y555860D01*
X1518950Y556773D01*
X1518510Y557667D01*
X1518029Y558541D01*
X1517509Y559391D01*
X1516952Y560217D01*
X1516357Y561017D01*
X1515727Y561790D01*
X1515063Y562533D01*
X1514366Y563245D01*
X1513637Y563925D01*
X1512878Y564571D01*
X1512090Y565182D01*
X1511276Y565757D01*
X1510437Y566294D01*
X1509573Y566792D01*
X1508689Y567252D01*
X1507784Y567670D01*
X1506862Y568047D01*
X1505923Y568382D01*
X1504970Y568675D01*
X1504005Y568923D01*
X1503029Y569128D01*
X1502046Y569288D01*
X1501056Y569404D01*
X1500061Y569474D01*
X1499065Y569500D01*
X1498069Y569480D01*
X1497074Y569416D01*
X1496083Y569306D01*
X1495099Y569151D01*
X1494122Y568952D01*
X1493155Y568709D01*
X1492201Y568423D01*
X1491260Y568093D01*
X1490335Y567722D01*
X1489428Y567309D01*
X1488541Y566855D01*
X1487675Y566361D01*
X1486832Y565829D01*
X1486014Y565259D01*
X1485223Y564652D01*
X1484461Y564011D01*
X1483728Y563335D01*
X1483026Y562627D01*
X1482358Y561888D01*
X1481723Y561120D01*
X1481124Y560323D01*
X1480561Y559501D01*
X1480037Y558653D01*
X1479551Y557783D01*
X1479105Y556891D01*
X1478700Y555980D01*
X1478337Y555052D01*
X1478016Y554109D01*
X1477738Y553151D01*
X1477504Y552183D01*
X1477314Y551204D01*
X1477169Y550218D01*
X1477068Y549227D01*
X1477012Y548231D01*
X1477002Y547235D01*
X1477036Y546239D01*
X1477116Y545245D01*
X1477240Y544256D01*
X1477410Y543274D01*
X1477623Y542300D01*
X1477881Y541337D01*
X1478181Y540387D01*
X1478525Y539452D01*
X1478911Y538532D01*
X1479337Y537632D01*
X1479805Y536751D01*
X1480311Y535893D01*
X1480856Y535058D01*
X1467070Y534951D02*
X1467620Y535783D01*
X1468132Y536638D01*
X1468604Y537516D01*
X1469036Y538414D01*
X1469427Y539331D01*
X1469776Y540264D01*
X1470082Y541213D01*
X1470346Y542174D01*
X1470565Y543146D01*
X1470740Y544128D01*
X1470870Y545116D01*
X1470956Y546109D01*
X1470996Y547105D01*
X1470992Y548101D01*
X1470942Y549097D01*
X1470847Y550089D01*
X1470708Y551076D01*
X1470523Y552055D01*
X1470295Y553026D01*
X1470023Y553984D01*
X1469707Y554930D01*
X1469350Y555860D01*
X1468950Y556773D01*
X1468510Y557667D01*
X1468029Y558541D01*
X1467509Y559391D01*
X1466952Y560217D01*
X1466357Y561017D01*
X1465727Y561790D01*
X1465063Y562533D01*
X1464366Y563245D01*
X1463637Y563925D01*
X1462878Y564571D01*
X1462090Y565182D01*
X1461276Y565757D01*
X1460437Y566294D01*
X1459573Y566792D01*
X1458689Y567252D01*
X1457784Y567670D01*
X1456862Y568047D01*
X1455923Y568382D01*
X1454970Y568675D01*
X1454005Y568923D01*
X1453029Y569128D01*
X1452046Y569288D01*
X1451056Y569404D01*
X1450061Y569474D01*
X1449065Y569500D01*
X1448069Y569480D01*
X1447074Y569416D01*
X1446083Y569306D01*
X1445099Y569151D01*
X1444122Y568952D01*
X1443155Y568709D01*
X1442201Y568423D01*
X1441260Y568093D01*
X1440335Y567722D01*
X1439428Y567309D01*
X1438541Y566855D01*
X1437675Y566361D01*
X1436832Y565829D01*
X1436014Y565259D01*
X1435223Y564652D01*
X1434461Y564011D01*
X1433728Y563335D01*
X1433026Y562627D01*
X1432358Y561888D01*
X1431723Y561120D01*
X1431124Y560323D01*
X1430561Y559501D01*
X1430037Y558653D01*
X1429551Y557783D01*
X1429105Y556891D01*
X1428700Y555980D01*
X1428337Y555052D01*
X1428016Y554109D01*
X1427738Y553151D01*
X1427504Y552183D01*
X1427314Y551204D01*
X1427169Y550218D01*
X1427068Y549227D01*
X1427012Y548231D01*
X1427002Y547235D01*
X1427036Y546239D01*
X1427116Y545245D01*
X1427240Y544256D01*
X1427410Y543274D01*
X1427623Y542300D01*
X1427881Y541337D01*
X1428181Y540387D01*
X1428525Y539452D01*
X1428911Y538532D01*
X1429337Y537632D01*
X1429805Y536751D01*
X1430311Y535893D01*
X1430856Y535058D01*
X1417070Y534951D02*
X1417620Y535783D01*
X1418132Y536638D01*
X1418604Y537516D01*
X1419036Y538414D01*
X1419427Y539331D01*
X1419776Y540264D01*
X1420082Y541213D01*
X1420346Y542174D01*
X1420565Y543146D01*
X1420740Y544128D01*
X1420870Y545116D01*
X1420956Y546109D01*
X1420996Y547105D01*
X1420992Y548101D01*
X1420942Y549097D01*
X1420847Y550089D01*
X1420708Y551076D01*
X1420523Y552055D01*
X1420295Y553026D01*
X1420023Y553984D01*
X1419707Y554930D01*
X1419350Y555860D01*
X1418950Y556773D01*
X1418510Y557667D01*
X1418029Y558541D01*
X1417509Y559391D01*
X1416952Y560217D01*
X1416357Y561017D01*
X1415727Y561790D01*
X1415063Y562533D01*
X1414366Y563245D01*
X1413637Y563925D01*
X1412878Y564571D01*
X1412090Y565182D01*
X1411276Y565757D01*
X1410437Y566294D01*
X1409573Y566792D01*
X1408689Y567252D01*
X1407784Y567670D01*
X1406862Y568047D01*
X1405923Y568382D01*
X1404970Y568675D01*
X1404005Y568923D01*
X1403029Y569128D01*
X1402046Y569288D01*
X1401056Y569404D01*
X1400061Y569474D01*
X1399065Y569500D01*
X1398069Y569480D01*
X1397074Y569416D01*
X1396083Y569306D01*
X1395099Y569151D01*
X1394122Y568952D01*
X1393155Y568709D01*
X1392201Y568423D01*
X1391260Y568093D01*
X1390335Y567722D01*
X1389428Y567309D01*
X1388541Y566855D01*
X1387675Y566361D01*
X1386832Y565829D01*
X1386014Y565259D01*
X1385223Y564652D01*
X1384461Y564011D01*
X1383728Y563335D01*
X1383026Y562627D01*
X1382358Y561888D01*
X1381723Y561120D01*
X1381124Y560323D01*
X1380561Y559501D01*
X1380037Y558653D01*
X1379551Y557783D01*
X1379105Y556891D01*
X1378700Y555980D01*
X1378337Y555052D01*
X1378016Y554109D01*
X1377738Y553151D01*
X1377504Y552183D01*
X1377314Y551204D01*
X1377169Y550218D01*
X1377068Y549227D01*
X1377012Y548231D01*
X1377002Y547235D01*
X1377036Y546239D01*
X1377116Y545245D01*
X1377240Y544256D01*
X1377410Y543274D01*
X1377623Y542300D01*
X1377881Y541337D01*
X1378181Y540387D01*
X1378525Y539452D01*
X1378911Y538532D01*
X1379337Y537632D01*
X1379805Y536751D01*
X1380311Y535893D01*
X1380856Y535058D01*
X1367070Y534951D02*
X1367620Y535783D01*
X1368132Y536638D01*
X1368604Y537516D01*
X1369036Y538414D01*
X1369427Y539331D01*
X1369776Y540264D01*
X1370082Y541213D01*
X1370346Y542174D01*
X1370565Y543146D01*
X1370740Y544128D01*
X1370870Y545116D01*
X1370956Y546109D01*
X1370996Y547105D01*
X1370992Y548101D01*
X1370942Y549097D01*
X1370847Y550089D01*
X1370708Y551076D01*
X1370523Y552055D01*
X1370295Y553026D01*
X1370023Y553984D01*
X1369707Y554930D01*
X1369350Y555860D01*
X1368950Y556773D01*
X1368510Y557667D01*
X1368029Y558541D01*
X1367509Y559391D01*
X1366952Y560217D01*
X1366357Y561017D01*
X1365727Y561790D01*
X1365063Y562533D01*
X1364366Y563245D01*
X1363637Y563925D01*
X1362878Y564571D01*
X1362090Y565182D01*
X1361276Y565757D01*
X1360437Y566294D01*
X1359573Y566792D01*
X1358689Y567252D01*
X1357784Y567670D01*
X1356862Y568047D01*
X1355923Y568382D01*
X1354970Y568675D01*
X1354005Y568923D01*
X1353029Y569128D01*
X1352046Y569288D01*
X1351056Y569404D01*
X1350061Y569474D01*
X1349065Y569500D01*
X1348069Y569480D01*
X1347074Y569416D01*
X1346083Y569306D01*
X1345099Y569151D01*
X1344122Y568952D01*
X1343155Y568709D01*
X1342201Y568423D01*
X1341260Y568093D01*
X1340335Y567722D01*
X1339428Y567309D01*
X1338541Y566855D01*
X1337675Y566361D01*
X1336832Y565829D01*
X1336014Y565259D01*
X1335223Y564652D01*
X1334461Y564011D01*
X1333728Y563335D01*
X1333026Y562627D01*
X1332358Y561888D01*
X1331723Y561120D01*
X1331124Y560323D01*
X1330561Y559501D01*
X1330037Y558653D01*
X1329551Y557783D01*
X1329105Y556891D01*
X1328700Y555980D01*
X1328337Y555052D01*
X1328016Y554109D01*
X1327738Y553151D01*
X1327504Y552183D01*
X1327314Y551204D01*
X1327169Y550218D01*
X1327068Y549227D01*
X1327012Y548231D01*
X1327002Y547235D01*
X1327036Y546239D01*
X1327116Y545245D01*
X1327240Y544256D01*
X1327410Y543274D01*
X1327623Y542300D01*
X1327881Y541337D01*
X1328181Y540387D01*
X1328525Y539452D01*
X1328911Y538532D01*
X1329337Y537632D01*
X1329805Y536751D01*
X1330311Y535893D01*
X1330856Y535058D01*
X1317070Y534951D02*
X1317620Y535783D01*
X1318132Y536638D01*
X1318604Y537516D01*
X1319036Y538414D01*
X1319427Y539331D01*
X1319776Y540264D01*
X1320082Y541213D01*
X1320346Y542174D01*
X1320565Y543146D01*
X1320740Y544128D01*
X1320870Y545116D01*
X1320956Y546109D01*
X1320996Y547105D01*
X1320992Y548101D01*
X1320942Y549097D01*
X1320847Y550089D01*
X1320708Y551076D01*
X1320523Y552055D01*
X1320295Y553026D01*
X1320023Y553984D01*
X1319707Y554930D01*
X1319350Y555860D01*
X1318950Y556773D01*
X1318510Y557667D01*
X1318029Y558541D01*
X1317509Y559391D01*
X1316952Y560217D01*
X1316357Y561017D01*
X1315727Y561790D01*
X1315063Y562533D01*
X1314366Y563245D01*
X1313637Y563925D01*
X1312878Y564571D01*
X1312090Y565182D01*
X1311276Y565757D01*
X1310437Y566294D01*
X1309573Y566792D01*
X1308689Y567252D01*
X1307784Y567670D01*
X1306862Y568047D01*
X1305923Y568382D01*
X1304970Y568675D01*
X1304005Y568923D01*
X1303029Y569128D01*
X1302046Y569288D01*
X1301056Y569404D01*
X1300061Y569474D01*
X1299065Y569500D01*
X1298069Y569480D01*
X1297074Y569416D01*
X1296083Y569306D01*
X1295099Y569151D01*
X1294122Y568952D01*
X1293155Y568709D01*
X1292201Y568423D01*
X1291260Y568093D01*
X1290335Y567722D01*
X1289428Y567309D01*
X1288541Y566855D01*
X1287675Y566361D01*
X1286832Y565829D01*
X1286014Y565259D01*
X1285223Y564652D01*
X1284461Y564011D01*
X1283728Y563335D01*
X1283026Y562627D01*
X1282358Y561888D01*
X1281723Y561120D01*
X1281124Y560323D01*
X1280561Y559501D01*
X1280037Y558653D01*
X1279551Y557783D01*
X1279105Y556891D01*
X1278700Y555980D01*
X1278337Y555052D01*
X1278016Y554109D01*
X1277738Y553151D01*
X1277504Y552183D01*
X1277314Y551204D01*
X1277169Y550218D01*
X1277068Y549227D01*
X1277012Y548231D01*
X1277002Y547235D01*
X1277036Y546239D01*
X1277116Y545245D01*
X1277240Y544256D01*
X1277410Y543274D01*
X1277623Y542300D01*
X1277881Y541337D01*
X1278181Y540387D01*
X1278525Y539452D01*
X1278911Y538532D01*
X1279337Y537632D01*
X1279805Y536751D01*
X1280311Y535893D01*
X1280856Y535058D01*
X1517070Y584951D02*
X1517620Y585783D01*
X1518132Y586638D01*
X1518604Y587516D01*
X1519036Y588414D01*
X1519427Y589331D01*
X1519776Y590264D01*
X1520082Y591213D01*
X1520346Y592174D01*
X1520565Y593146D01*
X1520740Y594128D01*
X1520870Y595116D01*
X1520956Y596109D01*
X1520996Y597105D01*
X1520992Y598101D01*
X1520942Y599097D01*
X1520847Y600089D01*
X1520708Y601076D01*
X1520523Y602055D01*
X1520295Y603026D01*
X1520023Y603984D01*
X1519707Y604930D01*
X1519350Y605860D01*
X1518950Y606773D01*
X1518510Y607667D01*
X1518029Y608541D01*
X1517509Y609391D01*
X1516952Y610217D01*
X1516357Y611017D01*
X1515727Y611790D01*
X1515063Y612533D01*
X1514366Y613245D01*
X1513637Y613925D01*
X1512878Y614571D01*
X1512090Y615182D01*
X1511276Y615757D01*
X1510437Y616294D01*
X1509573Y616792D01*
X1508689Y617252D01*
X1507784Y617670D01*
X1506862Y618047D01*
X1505923Y618382D01*
X1504970Y618675D01*
X1504005Y618923D01*
X1503029Y619128D01*
X1502046Y619288D01*
X1501056Y619404D01*
X1500061Y619474D01*
X1499065Y619500D01*
X1498069Y619480D01*
X1497074Y619416D01*
X1496083Y619306D01*
X1495099Y619151D01*
X1494122Y618952D01*
X1493155Y618709D01*
X1492201Y618423D01*
X1491260Y618093D01*
X1490335Y617722D01*
X1489428Y617309D01*
X1488541Y616855D01*
X1487675Y616361D01*
X1486832Y615829D01*
X1486014Y615259D01*
X1485223Y614652D01*
X1484461Y614011D01*
X1483728Y613335D01*
X1483026Y612627D01*
X1482358Y611888D01*
X1481723Y611120D01*
X1481124Y610323D01*
X1480561Y609501D01*
X1480037Y608653D01*
X1479551Y607783D01*
X1479105Y606891D01*
X1478700Y605980D01*
X1478337Y605052D01*
X1478016Y604109D01*
X1477738Y603151D01*
X1477504Y602183D01*
X1477314Y601204D01*
X1477169Y600218D01*
X1477068Y599227D01*
X1477012Y598231D01*
X1477002Y597235D01*
X1477036Y596239D01*
X1477116Y595245D01*
X1477240Y594256D01*
X1477410Y593274D01*
X1477623Y592300D01*
X1477881Y591337D01*
X1478181Y590387D01*
X1478525Y589452D01*
X1478911Y588532D01*
X1479337Y587632D01*
X1479805Y586751D01*
X1480311Y585893D01*
X1480856Y585058D01*
X1467070Y584951D02*
X1467620Y585783D01*
X1468132Y586638D01*
X1468604Y587516D01*
X1469036Y588414D01*
X1469427Y589331D01*
X1469776Y590264D01*
X1470082Y591213D01*
X1470346Y592174D01*
X1470565Y593146D01*
X1470740Y594128D01*
X1470870Y595116D01*
X1470956Y596109D01*
X1470996Y597105D01*
X1470992Y598101D01*
X1470942Y599097D01*
X1470847Y600089D01*
X1470708Y601076D01*
X1470523Y602055D01*
X1470295Y603026D01*
X1470023Y603984D01*
X1469707Y604930D01*
X1469350Y605860D01*
X1468950Y606773D01*
X1468510Y607667D01*
X1468029Y608541D01*
X1467509Y609391D01*
X1466952Y610217D01*
X1466357Y611017D01*
X1465727Y611790D01*
X1465063Y612533D01*
X1464366Y613245D01*
X1463637Y613925D01*
X1462878Y614571D01*
X1462090Y615182D01*
X1461276Y615757D01*
X1460437Y616294D01*
X1459573Y616792D01*
X1458689Y617252D01*
X1457784Y617670D01*
X1456862Y618047D01*
X1455923Y618382D01*
X1454970Y618675D01*
X1454005Y618923D01*
X1453029Y619128D01*
X1452046Y619288D01*
X1451056Y619404D01*
X1450061Y619474D01*
X1449065Y619500D01*
X1448069Y619480D01*
X1447074Y619416D01*
X1446083Y619306D01*
X1445099Y619151D01*
X1444122Y618952D01*
X1443155Y618709D01*
X1442201Y618423D01*
X1441260Y618093D01*
X1440335Y617722D01*
X1439428Y617309D01*
X1438541Y616855D01*
X1437675Y616361D01*
X1436832Y615829D01*
X1436014Y615259D01*
X1435223Y614652D01*
X1434461Y614011D01*
X1433728Y613335D01*
X1433026Y612627D01*
X1432358Y611888D01*
X1431723Y611120D01*
X1431124Y610323D01*
X1430561Y609501D01*
X1430037Y608653D01*
X1429551Y607783D01*
X1429105Y606891D01*
X1428700Y605980D01*
X1428337Y605052D01*
X1428016Y604109D01*
X1427738Y603151D01*
X1427504Y602183D01*
X1427314Y601204D01*
X1427169Y600218D01*
X1427068Y599227D01*
X1427012Y598231D01*
X1427002Y597235D01*
X1427036Y596239D01*
X1427116Y595245D01*
X1427240Y594256D01*
X1427410Y593274D01*
X1427623Y592300D01*
X1427881Y591337D01*
X1428181Y590387D01*
X1428525Y589452D01*
X1428911Y588532D01*
X1429337Y587632D01*
X1429805Y586751D01*
X1430311Y585893D01*
X1430856Y585058D01*
X1417070Y584951D02*
X1417620Y585783D01*
X1418132Y586638D01*
X1418604Y587516D01*
X1419036Y588414D01*
X1419427Y589331D01*
X1419776Y590264D01*
X1420082Y591213D01*
X1420346Y592174D01*
X1420565Y593146D01*
X1420740Y594128D01*
X1420870Y595116D01*
X1420956Y596109D01*
X1420996Y597105D01*
X1420992Y598101D01*
X1420942Y599097D01*
X1420847Y600089D01*
X1420708Y601076D01*
X1420523Y602055D01*
X1420295Y603026D01*
X1420023Y603984D01*
X1419707Y604930D01*
X1419350Y605860D01*
X1418950Y606773D01*
X1418510Y607667D01*
X1418029Y608541D01*
X1417509Y609391D01*
X1416952Y610217D01*
X1416357Y611017D01*
X1415727Y611790D01*
X1415063Y612533D01*
X1414366Y613245D01*
X1413637Y613925D01*
X1412878Y614571D01*
X1412090Y615182D01*
X1411276Y615757D01*
X1410437Y616294D01*
X1409573Y616792D01*
X1408689Y617252D01*
X1407784Y617670D01*
X1406862Y618047D01*
X1405923Y618382D01*
X1404970Y618675D01*
X1404005Y618923D01*
X1403029Y619128D01*
X1402046Y619288D01*
X1401056Y619404D01*
X1400061Y619474D01*
X1399065Y619500D01*
X1398069Y619480D01*
X1397074Y619416D01*
X1396083Y619306D01*
X1395099Y619151D01*
X1394122Y618952D01*
X1393155Y618709D01*
X1392201Y618423D01*
X1391260Y618093D01*
X1390335Y617722D01*
X1389428Y617309D01*
X1388541Y616855D01*
X1387675Y616361D01*
X1386832Y615829D01*
X1386014Y615259D01*
X1385223Y614652D01*
X1384461Y614011D01*
X1383728Y613335D01*
X1383026Y612627D01*
X1382358Y611888D01*
X1381723Y611120D01*
X1381124Y610323D01*
X1380561Y609501D01*
X1380037Y608653D01*
X1379551Y607783D01*
X1379105Y606891D01*
X1378700Y605980D01*
X1378337Y605052D01*
X1378016Y604109D01*
X1377738Y603151D01*
X1377504Y602183D01*
X1377314Y601204D01*
X1377169Y600218D01*
X1377068Y599227D01*
X1377012Y598231D01*
X1377002Y597235D01*
X1377036Y596239D01*
X1377116Y595245D01*
X1377240Y594256D01*
X1377410Y593274D01*
X1377623Y592300D01*
X1377881Y591337D01*
X1378181Y590387D01*
X1378525Y589452D01*
X1378911Y588532D01*
X1379337Y587632D01*
X1379805Y586751D01*
X1380311Y585893D01*
X1380856Y585058D01*
X1367070Y584951D02*
X1367620Y585783D01*
X1368132Y586638D01*
X1368604Y587516D01*
X1369036Y588414D01*
X1369427Y589331D01*
X1369776Y590264D01*
X1370082Y591213D01*
X1370346Y592174D01*
X1370565Y593146D01*
X1370740Y594128D01*
X1370870Y595116D01*
X1370956Y596109D01*
X1370996Y597105D01*
X1370992Y598101D01*
X1370942Y599097D01*
X1370847Y600089D01*
X1370708Y601076D01*
X1370523Y602055D01*
X1370295Y603026D01*
X1370023Y603984D01*
X1369707Y604930D01*
X1369350Y605860D01*
X1368950Y606773D01*
X1368510Y607667D01*
X1368029Y608541D01*
X1367509Y609391D01*
X1366952Y610217D01*
X1366357Y611017D01*
X1365727Y611790D01*
X1365063Y612533D01*
X1364366Y613245D01*
X1363637Y613925D01*
X1362878Y614571D01*
X1362090Y615182D01*
X1361276Y615757D01*
X1360437Y616294D01*
X1359573Y616792D01*
X1358689Y617252D01*
X1357784Y617670D01*
X1356862Y618047D01*
X1355923Y618382D01*
X1354970Y618675D01*
X1354005Y618923D01*
X1353029Y619128D01*
X1352046Y619288D01*
X1351056Y619404D01*
X1350061Y619474D01*
X1349065Y619500D01*
X1348069Y619480D01*
X1347074Y619416D01*
X1346083Y619306D01*
X1345099Y619151D01*
X1344122Y618952D01*
X1343155Y618709D01*
X1342201Y618423D01*
X1341260Y618093D01*
X1340335Y617722D01*
X1339428Y617309D01*
X1338541Y616855D01*
X1337675Y616361D01*
X1336832Y615829D01*
X1336014Y615259D01*
X1335223Y614652D01*
X1334461Y614011D01*
X1333728Y613335D01*
X1333026Y612627D01*
X1332358Y611888D01*
X1331723Y611120D01*
X1331124Y610323D01*
X1330561Y609501D01*
X1330037Y608653D01*
X1329551Y607783D01*
X1329105Y606891D01*
X1328700Y605980D01*
X1328337Y605052D01*
X1328016Y604109D01*
X1327738Y603151D01*
X1327504Y602183D01*
X1327314Y601204D01*
X1327169Y600218D01*
X1327068Y599227D01*
X1327012Y598231D01*
X1327002Y597235D01*
X1327036Y596239D01*
X1327116Y595245D01*
X1327240Y594256D01*
X1327410Y593274D01*
X1327623Y592300D01*
X1327881Y591337D01*
X1328181Y590387D01*
X1328525Y589452D01*
X1328911Y588532D01*
X1329337Y587632D01*
X1329805Y586751D01*
X1330311Y585893D01*
X1330856Y585058D01*
X1317070Y584951D02*
X1317620Y585783D01*
X1318132Y586638D01*
X1318604Y587516D01*
X1319036Y588414D01*
X1319427Y589331D01*
X1319776Y590264D01*
X1320082Y591213D01*
X1320346Y592174D01*
X1320565Y593146D01*
X1320740Y594128D01*
X1320870Y595116D01*
X1320956Y596109D01*
X1320996Y597105D01*
X1320992Y598101D01*
X1320942Y599097D01*
X1320847Y600089D01*
X1320708Y601076D01*
X1320523Y602055D01*
X1320295Y603026D01*
X1320023Y603984D01*
X1319707Y604930D01*
X1319350Y605860D01*
X1318950Y606773D01*
X1318510Y607667D01*
X1318029Y608541D01*
X1317509Y609391D01*
X1316952Y610217D01*
X1316357Y611017D01*
X1315727Y611790D01*
X1315063Y612533D01*
X1314366Y613245D01*
X1313637Y613925D01*
X1312878Y614571D01*
X1312090Y615182D01*
X1311276Y615757D01*
X1310437Y616294D01*
X1309573Y616792D01*
X1308689Y617252D01*
X1307784Y617670D01*
X1306862Y618047D01*
X1305923Y618382D01*
X1304970Y618675D01*
X1304005Y618923D01*
X1303029Y619128D01*
X1302046Y619288D01*
X1301056Y619404D01*
X1300061Y619474D01*
X1299065Y619500D01*
X1298069Y619480D01*
X1297074Y619416D01*
X1296083Y619306D01*
X1295099Y619151D01*
X1294122Y618952D01*
X1293155Y618709D01*
X1292201Y618423D01*
X1291260Y618093D01*
X1290335Y617722D01*
X1289428Y617309D01*
X1288541Y616855D01*
X1287675Y616361D01*
X1286832Y615829D01*
X1286014Y615259D01*
X1285223Y614652D01*
X1284461Y614011D01*
X1283728Y613335D01*
X1283026Y612627D01*
X1282358Y611888D01*
X1281723Y611120D01*
X1281124Y610323D01*
X1280561Y609501D01*
X1280037Y608653D01*
X1279551Y607783D01*
X1279105Y606891D01*
X1278700Y605980D01*
X1278337Y605052D01*
X1278016Y604109D01*
X1277738Y603151D01*
X1277504Y602183D01*
X1277314Y601204D01*
X1277169Y600218D01*
X1277068Y599227D01*
X1277012Y598231D01*
X1277002Y597235D01*
X1277036Y596239D01*
X1277116Y595245D01*
X1277240Y594256D01*
X1277410Y593274D01*
X1277623Y592300D01*
X1277881Y591337D01*
X1278181Y590387D01*
X1278525Y589452D01*
X1278911Y588532D01*
X1279337Y587632D01*
X1279805Y586751D01*
X1280311Y585893D01*
X1280856Y585058D01*
X1201500Y575000D02*
X1201596Y574024D01*
X1201881Y573087D01*
X1202343Y572222D01*
X1202964Y571464D01*
X1203722Y570843D01*
X1204587Y570381D01*
X1205525Y570096D01*
X1206500Y570000D01*
X1207475Y570096D01*
X1208413Y570381D01*
X1209278Y570843D01*
X1210036Y571464D01*
X1210657Y572222D01*
X1211119Y573087D01*
X1211404Y574024D01*
X1211500Y575000D01*
X711500Y680000D02*
X711596Y679025D01*
X711881Y678087D01*
X712343Y677222D01*
X712964Y676465D01*
X713722Y675843D01*
X714587Y675381D01*
X715524Y675096D01*
X716500Y675000D01*
X717476Y675096D01*
X718413Y675381D01*
X719278Y675843D01*
X720036Y676465D01*
X720657Y677222D01*
X721119Y678087D01*
X721404Y679025D01*
X721500Y680000D01*
X964000Y790000D02*
X964096Y789024D01*
X964381Y788087D01*
X964843Y787222D01*
X965464Y786465D01*
X966222Y785843D01*
X967087Y785381D01*
X968025Y785096D01*
X969000Y785000D01*
X969975Y785096D01*
X970913Y785381D01*
X971778Y785843D01*
X972536Y786465D01*
X973157Y787222D01*
X973619Y788087D01*
X973904Y789024D01*
X974000Y790000D01*
X949000Y670000D02*
X949096Y669025D01*
X949381Y668087D01*
X949843Y667222D01*
X950465Y666465D01*
X951222Y665843D01*
X952087Y665381D01*
X953025Y665096D01*
X954000Y665000D01*
X954975Y665096D01*
X955913Y665381D01*
X956778Y665843D01*
X957535Y666465D01*
X958157Y667222D01*
X958619Y668087D01*
X958904Y669025D01*
X959000Y670000D01*
X844000D02*
X844096Y669025D01*
X844381Y668087D01*
X844843Y667222D01*
X845465Y666465D01*
X846222Y665843D01*
X847087Y665381D01*
X848025Y665096D01*
X849000Y665000D01*
X849975Y665096D01*
X850913Y665381D01*
X851778Y665843D01*
X852536Y666465D01*
X853157Y667222D01*
X853619Y668087D01*
X853904Y669025D01*
X854000Y670000D01*
X1121500Y575000D02*
X1121596Y574024D01*
X1121881Y573087D01*
X1122343Y572222D01*
X1122964Y571464D01*
X1123722Y570843D01*
X1124587Y570381D01*
X1125525Y570096D01*
X1126500Y570000D01*
X1127475Y570096D01*
X1128413Y570381D01*
X1129278Y570843D01*
X1130035Y571464D01*
X1130657Y572222D01*
X1131119Y573087D01*
X1131404Y574024D01*
X1131500Y575000D01*
X1121500Y715000D02*
X1121596Y714024D01*
X1121881Y713087D01*
X1122343Y712222D01*
X1122964Y711465D01*
X1123722Y710843D01*
X1124587Y710381D01*
X1125525Y710096D01*
X1126500Y710000D01*
X1127475Y710096D01*
X1128413Y710381D01*
X1129278Y710843D01*
X1130035Y711465D01*
X1130657Y712222D01*
X1131119Y713087D01*
X1131404Y714024D01*
X1131500Y715000D01*
X1121500Y845000D02*
X1121596Y844025D01*
X1121881Y843087D01*
X1122343Y842222D01*
X1122964Y841465D01*
X1123722Y840843D01*
X1124587Y840381D01*
X1125525Y840096D01*
X1126500Y840000D01*
X1127475Y840096D01*
X1128413Y840381D01*
X1129278Y840843D01*
X1130035Y841465D01*
X1130657Y842222D01*
X1131119Y843087D01*
X1131404Y844025D01*
X1131500Y845000D01*
X716000Y827500D02*
X715980Y828500D01*
X715920Y829499D01*
X715820Y830494D01*
X715680Y831485D01*
X715501Y832469D01*
X715283Y833445D01*
X715025Y834412D01*
X714730Y835368D01*
X714396Y836311D01*
X714024Y837240D01*
X713616Y838153D01*
X713172Y839050D01*
X712692Y839928D01*
X712178Y840786D01*
X711629Y841622D01*
X711048Y842436D01*
X710434Y843227D01*
X709789Y843991D01*
X709114Y844730D01*
X708410Y845441D01*
X707679Y846123D01*
X706920Y846776D01*
X706136Y847397D01*
X705328Y847987D01*
X704497Y848544D01*
X703644Y849067D01*
X702771Y849555D01*
X701879Y850009D01*
X700970Y850426D01*
X700045Y850807D01*
X699105Y851150D01*
X698152Y851455D01*
X697188Y851722D01*
X696214Y851950D01*
X695232Y852139D01*
X694242Y852289D01*
X693248Y852399D01*
X692250Y852469D01*
X691250Y852499D01*
X690250Y852489D01*
X689251Y852439D01*
X688254Y852349D01*
X687262Y852219D01*
X686276Y852050D01*
X685298Y851841D01*
X684328Y851593D01*
X683370Y851307D01*
X682423Y850983D01*
X681491Y850621D01*
X680573Y850222D01*
X679673Y849786D01*
X678790Y849315D01*
X677927Y848810D01*
X677085Y848269D01*
X676265Y847696D01*
X675469Y847090D01*
X674697Y846453D01*
X673952Y845786D01*
X673234Y845089D01*
X672545Y844364D01*
X671885Y843612D01*
X671255Y842834D01*
X670658Y842032D01*
X670092Y841207D01*
X669561Y840359D01*
X669064Y839491D01*
X668601Y838604D01*
X668175Y837699D01*
X667785Y836777D01*
X667433Y835841D01*
X667118Y834892D01*
X666841Y833930D01*
X666603Y832959D01*
X666404Y831978D01*
X666245Y830990D01*
X666125Y829997D01*
X666045Y829000D01*
X666005Y828000D01*
X666005Y827000D01*
X666045Y826000D01*
X666125Y825003D01*
X666245Y824010D01*
X666404Y823022D01*
X666603Y822042D01*
X666841Y821070D01*
X667118Y820108D01*
X667433Y819159D01*
X667785Y818223D01*
X668175Y817301D01*
X668601Y816396D01*
X669064Y815509D01*
X669561Y814641D01*
X670092Y813793D01*
X670658Y812968D01*
X671255Y812165D01*
X671885Y811388D01*
X672545Y810636D01*
X673234Y809911D01*
X673952Y809214D01*
X674697Y808547D01*
X675469Y807910D01*
X676265Y807304D01*
X677085Y806731D01*
X677927Y806190D01*
X678790Y805684D01*
X679673Y805214D01*
X680573Y804778D01*
X681491Y804379D01*
X682423Y804017D01*
X683370Y803693D01*
X684329Y803407D01*
X685298Y803159D01*
X686276Y802950D01*
X687262Y802781D01*
X688254Y802651D01*
X689251Y802561D01*
X690250Y802511D01*
X691250Y802501D01*
X692250Y802531D01*
X693248Y802601D01*
X694243Y802711D01*
X695232Y802861D01*
X696214Y803050D01*
X697188Y803278D01*
X698152Y803545D01*
X699105Y803850D01*
X700045Y804194D01*
X700970Y804574D01*
X701879Y804991D01*
X702771Y805445D01*
X703644Y805933D01*
X704497Y806456D01*
X705328Y807013D01*
X706136Y807603D01*
X706920Y808224D01*
X707679Y808877D01*
X708411Y809559D01*
X709114Y810270D01*
X709789Y811009D01*
X710434Y811774D01*
X711048Y812564D01*
X711629Y813378D01*
X712178Y814215D01*
X712692Y815072D01*
X713172Y815950D01*
X713617Y816847D01*
X714025Y817760D01*
X714396Y818689D01*
X714730Y819632D01*
X715026Y820588D01*
X715283Y821555D01*
X715501Y822531D01*
X715680Y823515D01*
X715820Y824506D01*
X715920Y825501D01*
X715980Y826500D01*
X716000Y827500D01*
X1430500Y671000D02*
X1431499Y671036D01*
X1432492Y671142D01*
X1433476Y671320D01*
X1434444Y671567D01*
X1435392Y671883D01*
X1436316Y672265D01*
X1437210Y672713D01*
X1438069Y673222D01*
X1438890Y673792D01*
X1439668Y674419D01*
X1440399Y675101D01*
X1441080Y675832D01*
X1441708Y676610D01*
X1442278Y677431D01*
X1442787Y678291D01*
X1443235Y679184D01*
X1443617Y680107D01*
X1443933Y681056D01*
X1444180Y682024D01*
X1444357Y683008D01*
X1444464Y684001D01*
X1444500Y685000D01*
X1444464Y685999D01*
X1444357Y686992D01*
X1444180Y687976D01*
X1443933Y688944D01*
X1443617Y689892D01*
X1443235Y690816D01*
X1442787Y691710D01*
X1442278Y692569D01*
X1441708Y693390D01*
X1441080Y694168D01*
X1440399Y694900D01*
X1439668Y695580D01*
X1438890Y696208D01*
X1438069Y696778D01*
X1437210Y697288D01*
X1436316Y697735D01*
X1435392Y698117D01*
X1434444Y698433D01*
X1433476Y698680D01*
X1432492Y698857D01*
X1431499Y698964D01*
X1430500Y699000D01*
X918500Y866000D02*
X918454Y867000D01*
X918318Y867992D01*
X918092Y868968D01*
X917778Y869919D01*
X917379Y870837D01*
X916899Y871715D01*
X916340Y872546D01*
X915708Y873323D01*
X915008Y874039D01*
X914246Y874689D01*
X913428Y875266D01*
X912561Y875767D01*
X911652Y876186D01*
X910708Y876522D01*
X909738Y876770D01*
X908749Y876929D01*
X907750Y876997D01*
X906749Y876974D01*
X905754Y876861D01*
X904774Y876657D01*
X903816Y876365D01*
X902889Y875987D01*
X902000Y875526D01*
X901157Y874987D01*
X900366Y874373D01*
X899634Y873689D01*
X898967Y872942D01*
X898371Y872137D01*
X897851Y871282D01*
X897411Y870382D01*
X897054Y869447D01*
X896784Y868483D01*
X896602Y867498D01*
X896511Y866501D01*
Y865499D01*
X896602Y864502D01*
X896784Y863517D01*
X897054Y862553D01*
X897411Y861618D01*
X897851Y860718D01*
X898371Y859863D01*
X898967Y859058D01*
X899634Y858311D01*
X900366Y857627D01*
X901157Y857013D01*
X902000Y856474D01*
X902889Y856013D01*
X903816Y855635D01*
X904774Y855343D01*
X905754Y855139D01*
X906749Y855026D01*
X907750Y855003D01*
X908749Y855071D01*
X909738Y855230D01*
X910708Y855478D01*
X911652Y855814D01*
X912561Y856233D01*
X913428Y856734D01*
X914246Y857311D01*
X915008Y857961D01*
X915708Y858677D01*
X916340Y859454D01*
X916899Y860285D01*
X917379Y861163D01*
X917778Y862081D01*
X918092Y863032D01*
X918318Y864008D01*
X918454Y865000D01*
X918500Y866000D01*
X894000Y790000D02*
X894096Y789024D01*
X894381Y788087D01*
X894843Y787222D01*
X895465Y786465D01*
X896222Y785843D01*
X897087Y785381D01*
X898025Y785096D01*
X899000Y785000D01*
X899975Y785096D01*
X900913Y785381D01*
X901778Y785843D01*
X902536Y786465D01*
X903157Y787222D01*
X903619Y788087D01*
X903904Y789024D01*
X904000Y790000D01*
X1421500Y667500D02*
X1421480Y668500D01*
X1421420Y669499D01*
X1421320Y670494D01*
X1421180Y671485D01*
X1421001Y672469D01*
X1420783Y673446D01*
X1420525Y674412D01*
X1420230Y675368D01*
X1419896Y676311D01*
X1419525Y677240D01*
X1419116Y678154D01*
X1418672Y679050D01*
X1418192Y679928D01*
X1417678Y680786D01*
X1417129Y681622D01*
X1416548Y682436D01*
X1415934Y683226D01*
X1415289Y683991D01*
X1414614Y684730D01*
X1413910Y685441D01*
X1413179Y686123D01*
X1412420Y686776D01*
X1411636Y687397D01*
X1410828Y687987D01*
X1409997Y688544D01*
X1409144Y689067D01*
X1408271Y689555D01*
X1407379Y690009D01*
X1406470Y690426D01*
X1405545Y690806D01*
X1404605Y691150D01*
X1403652Y691455D01*
X1402688Y691722D01*
X1401714Y691950D01*
X1400732Y692139D01*
X1399743Y692289D01*
X1398748Y692399D01*
X1397750Y692469D01*
X1396750Y692499D01*
X1395750Y692489D01*
X1394751Y692439D01*
X1393754Y692349D01*
X1392762Y692219D01*
X1391776Y692050D01*
X1390798Y691841D01*
X1389828Y691593D01*
X1388870Y691307D01*
X1387923Y690983D01*
X1386991Y690621D01*
X1386073Y690222D01*
X1385173Y689786D01*
X1384290Y689316D01*
X1383427Y688809D01*
X1382585Y688269D01*
X1381765Y687696D01*
X1380969Y687090D01*
X1380197Y686453D01*
X1379452Y685786D01*
X1378734Y685089D01*
X1378045Y684364D01*
X1377385Y683612D01*
X1376755Y682835D01*
X1376158Y682032D01*
X1375593Y681207D01*
X1375061Y680359D01*
X1374564Y679491D01*
X1374101Y678604D01*
X1373675Y677699D01*
X1373285Y676778D01*
X1372933Y675841D01*
X1372618Y674892D01*
X1372341Y673930D01*
X1372103Y672959D01*
X1371904Y671978D01*
X1371745Y670990D01*
X1371625Y669997D01*
X1371545Y669000D01*
X1371505Y668000D01*
X1371505Y667000D01*
X1371545Y666000D01*
X1371625Y665003D01*
X1371745Y664010D01*
X1371904Y663022D01*
X1372103Y662042D01*
X1372341Y661070D01*
X1372618Y660108D01*
X1372933Y659159D01*
X1373285Y658222D01*
X1373675Y657301D01*
X1374101Y656396D01*
X1374564Y655509D01*
X1375061Y654641D01*
X1375593Y653793D01*
X1376158Y652968D01*
X1376755Y652165D01*
X1377385Y651388D01*
X1378045Y650636D01*
X1378734Y649911D01*
X1379452Y649214D01*
X1380197Y648547D01*
X1380969Y647910D01*
X1381765Y647304D01*
X1382585Y646731D01*
X1383427Y646191D01*
X1384290Y645684D01*
X1385173Y645214D01*
X1386073Y644778D01*
X1386991Y644379D01*
X1387924Y644017D01*
X1388870Y643693D01*
X1389828Y643407D01*
X1390798Y643159D01*
X1391776Y642950D01*
X1392762Y642781D01*
X1393754Y642651D01*
X1394751Y642561D01*
X1395750Y642511D01*
X1396750Y642501D01*
X1397750Y642531D01*
X1398748Y642601D01*
X1399743Y642711D01*
X1400732Y642861D01*
X1401714Y643050D01*
X1402688Y643278D01*
X1403652Y643545D01*
X1404605Y643850D01*
X1405545Y644194D01*
X1406470Y644574D01*
X1407379Y644991D01*
X1408271Y645445D01*
X1409144Y645933D01*
X1409997Y646456D01*
X1410828Y647013D01*
X1411636Y647603D01*
X1412420Y648224D01*
X1413179Y648877D01*
X1413910Y649559D01*
X1414614Y650270D01*
X1415289Y651009D01*
X1415934Y651774D01*
X1416548Y652564D01*
X1417129Y653378D01*
X1417678Y654214D01*
X1418192Y655072D01*
X1418672Y655950D01*
X1419116Y656847D01*
X1419525Y657760D01*
X1419896Y658689D01*
X1420230Y659632D01*
X1420525Y660588D01*
X1420783Y661555D01*
X1421001Y662531D01*
X1421180Y663515D01*
X1421320Y664506D01*
X1421420Y665501D01*
X1421480Y666500D01*
X1421500Y667500D01*
X1526000Y734000D02*
X1526999Y734036D01*
X1527992Y734142D01*
X1528976Y734320D01*
X1529944Y734567D01*
X1530892Y734883D01*
X1531816Y735265D01*
X1532710Y735712D01*
X1533569Y736223D01*
X1534390Y736792D01*
X1535168Y737420D01*
X1535900Y738100D01*
X1536580Y738832D01*
X1537208Y739610D01*
X1537778Y740431D01*
X1538288Y741291D01*
X1538735Y742184D01*
X1539117Y743108D01*
X1539433Y744056D01*
X1539680Y745024D01*
X1539857Y746008D01*
X1539964Y747001D01*
X1540000Y748000D01*
X1539964Y748999D01*
X1539857Y749992D01*
X1539680Y750976D01*
X1539433Y751944D01*
X1539117Y752892D01*
X1538735Y753816D01*
X1538288Y754709D01*
X1537778Y755569D01*
X1537208Y756390D01*
X1536580Y757168D01*
X1535900Y757900D01*
X1535168Y758580D01*
X1534390Y759208D01*
X1533569Y759778D01*
X1532710Y760288D01*
X1531816Y760735D01*
X1530892Y761117D01*
X1529944Y761433D01*
X1528976Y761680D01*
X1527992Y761858D01*
X1526999Y761964D01*
X1526000Y762000D01*
X1466000Y734000D02*
X1466999Y734036D01*
X1467992Y734142D01*
X1468976Y734320D01*
X1469944Y734567D01*
X1470893Y734883D01*
X1471816Y735265D01*
X1472709Y735712D01*
X1473569Y736223D01*
X1474390Y736792D01*
X1475168Y737420D01*
X1475900Y738100D01*
X1476581Y738832D01*
X1477208Y739610D01*
X1477777Y740431D01*
X1478288Y741291D01*
X1478735Y742184D01*
X1479117Y743108D01*
X1479433Y744056D01*
X1479680Y745024D01*
X1479858Y746008D01*
X1479964Y747001D01*
X1480000Y748000D01*
X1479964Y748999D01*
X1479858Y749992D01*
X1479680Y750976D01*
X1479433Y751944D01*
X1479117Y752892D01*
X1478735Y753816D01*
X1478288Y754709D01*
X1477777Y755569D01*
X1477208Y756390D01*
X1476581Y757168D01*
X1475900Y757900D01*
X1475168Y758580D01*
X1474390Y759208D01*
X1473569Y759778D01*
X1472709Y760288D01*
X1471816Y760735D01*
X1470893Y761117D01*
X1469944Y761433D01*
X1468976Y761680D01*
X1467992Y761858D01*
X1466999Y761964D01*
X1466000Y762000D01*
X1396000Y734000D02*
X1396999Y734036D01*
X1397992Y734142D01*
X1398976Y734320D01*
X1399944Y734567D01*
X1400893Y734883D01*
X1401816Y735265D01*
X1402709Y735712D01*
X1403569Y736223D01*
X1404390Y736792D01*
X1405168Y737420D01*
X1405900Y738100D01*
X1406581Y738832D01*
X1407208Y739610D01*
X1407778Y740431D01*
X1408288Y741291D01*
X1408735Y742184D01*
X1409117Y743108D01*
X1409433Y744056D01*
X1409680Y745024D01*
X1409857Y746008D01*
X1409964Y747001D01*
X1410000Y748000D01*
X1409964Y748999D01*
X1409857Y749992D01*
X1409680Y750976D01*
X1409433Y751944D01*
X1409117Y752892D01*
X1408735Y753816D01*
X1408288Y754709D01*
X1407778Y755569D01*
X1407208Y756390D01*
X1406581Y757168D01*
X1405900Y757900D01*
X1405168Y758580D01*
X1404390Y759208D01*
X1403569Y759778D01*
X1402709Y760288D01*
X1401816Y760735D01*
X1400893Y761117D01*
X1399944Y761433D01*
X1398976Y761680D01*
X1397992Y761858D01*
X1396999Y761964D01*
X1396000Y762000D01*
X1336000Y734000D02*
X1336999Y734036D01*
X1337992Y734142D01*
X1338976Y734320D01*
X1339944Y734567D01*
X1340893Y734883D01*
X1341816Y735265D01*
X1342710Y735712D01*
X1343569Y736223D01*
X1344390Y736792D01*
X1345168Y737420D01*
X1345899Y738100D01*
X1346581Y738832D01*
X1347208Y739610D01*
X1347777Y740431D01*
X1348287Y741291D01*
X1348735Y742184D01*
X1349117Y743108D01*
X1349433Y744056D01*
X1349680Y745024D01*
X1349858Y746008D01*
X1349964Y747001D01*
X1350000Y748000D01*
X1349964Y748999D01*
X1349858Y749992D01*
X1349680Y750976D01*
X1349433Y751944D01*
X1349117Y752892D01*
X1348735Y753816D01*
X1348287Y754709D01*
X1347777Y755569D01*
X1347208Y756390D01*
X1346581Y757168D01*
X1345899Y757900D01*
X1345168Y758580D01*
X1344390Y759208D01*
X1343569Y759778D01*
X1342710Y760288D01*
X1341816Y760735D01*
X1340893Y761117D01*
X1339944Y761433D01*
X1338976Y761680D01*
X1337992Y761858D01*
X1336999Y761964D01*
X1336000Y762000D01*
X1276000Y734000D02*
X1276999Y734036D01*
X1277992Y734142D01*
X1278976Y734320D01*
X1279944Y734567D01*
X1280892Y734883D01*
X1281816Y735265D01*
X1282710Y735712D01*
X1283569Y736223D01*
X1284390Y736792D01*
X1285168Y737420D01*
X1285900Y738100D01*
X1286580Y738832D01*
X1287208Y739610D01*
X1287778Y740431D01*
X1288288Y741291D01*
X1288735Y742184D01*
X1289117Y743108D01*
X1289433Y744056D01*
X1289680Y745024D01*
X1289857Y746008D01*
X1289964Y747001D01*
X1290000Y748000D01*
X1289964Y748999D01*
X1289857Y749992D01*
X1289680Y750976D01*
X1289433Y751944D01*
X1289117Y752892D01*
X1288735Y753816D01*
X1288288Y754709D01*
X1287778Y755569D01*
X1287208Y756390D01*
X1286580Y757168D01*
X1285900Y757900D01*
X1285168Y758580D01*
X1284390Y759208D01*
X1283569Y759778D01*
X1282710Y760288D01*
X1281816Y760735D01*
X1280892Y761117D01*
X1279944Y761433D01*
X1278976Y761680D01*
X1277992Y761858D01*
X1276999Y761964D01*
X1276000Y762000D01*
X1216000Y734000D02*
X1216999Y734036D01*
X1217992Y734142D01*
X1218976Y734320D01*
X1219944Y734567D01*
X1220893Y734883D01*
X1221816Y735265D01*
X1222709Y735712D01*
X1223569Y736223D01*
X1224390Y736792D01*
X1225168Y737420D01*
X1225900Y738100D01*
X1226581Y738832D01*
X1227208Y739610D01*
X1227777Y740431D01*
X1228288Y741291D01*
X1228735Y742184D01*
X1229117Y743108D01*
X1229433Y744056D01*
X1229680Y745024D01*
X1229858Y746008D01*
X1229964Y747001D01*
X1230000Y748000D01*
X1229964Y748999D01*
X1229858Y749992D01*
X1229680Y750976D01*
X1229433Y751944D01*
X1229117Y752892D01*
X1228735Y753816D01*
X1228288Y754709D01*
X1227777Y755569D01*
X1227208Y756390D01*
X1226581Y757168D01*
X1225900Y757900D01*
X1225168Y758580D01*
X1224390Y759208D01*
X1223569Y759778D01*
X1222709Y760288D01*
X1221816Y760735D01*
X1220893Y761117D01*
X1219944Y761433D01*
X1218976Y761680D01*
X1217992Y761858D01*
X1216999Y761964D01*
X1216000Y762000D01*
X1240000Y787500D02*
X1239810Y788457D01*
X1239268Y789268D01*
X1238457Y789810D01*
X1237500Y790000D01*
X1236543Y789810D01*
X1235732Y789268D01*
X1235190Y788457D01*
X1235000Y787500D01*
X1235190Y786543D01*
X1235732Y785732D01*
X1236543Y785190D01*
X1237500Y785000D01*
X1238457Y785190D01*
X1239268Y785732D01*
X1239810Y786543D01*
X1240000Y787500D01*
X1300000D02*
X1299810Y788457D01*
X1299268Y789268D01*
X1298457Y789810D01*
X1297500Y790000D01*
X1296543Y789810D01*
X1295732Y789268D01*
X1295190Y788457D01*
X1295000Y787500D01*
X1295190Y786543D01*
X1295732Y785732D01*
X1296543Y785190D01*
X1297500Y785000D01*
X1298457Y785190D01*
X1299268Y785732D01*
X1299810Y786543D01*
X1300000Y787500D01*
X1360000D02*
X1359810Y788457D01*
X1359268Y789268D01*
X1358457Y789810D01*
X1357500Y790000D01*
X1356543Y789810D01*
X1355732Y789268D01*
X1355190Y788457D01*
X1355000Y787500D01*
X1355190Y786543D01*
X1355732Y785732D01*
X1356543Y785190D01*
X1357500Y785000D01*
X1358457Y785190D01*
X1359268Y785732D01*
X1359810Y786543D01*
X1360000Y787500D01*
X1420000D02*
X1419810Y788457D01*
X1419268Y789268D01*
X1418457Y789810D01*
X1417500Y790000D01*
X1416543Y789810D01*
X1415732Y789268D01*
X1415190Y788457D01*
X1415000Y787500D01*
X1415190Y786543D01*
X1415732Y785732D01*
X1416543Y785190D01*
X1417500Y785000D01*
X1418457Y785190D01*
X1419268Y785732D01*
X1419810Y786543D01*
X1420000Y787500D01*
X1490000D02*
X1489810Y788457D01*
X1489268Y789268D01*
X1488457Y789810D01*
X1487500Y790000D01*
X1486543Y789810D01*
X1485732Y789268D01*
X1485190Y788457D01*
X1485000Y787500D01*
X1485190Y786543D01*
X1485732Y785732D01*
X1486543Y785190D01*
X1487500Y785000D01*
X1488457Y785190D01*
X1489268Y785732D01*
X1489810Y786543D01*
X1490000Y787500D01*
X1550000D02*
X1549810Y788457D01*
X1549268Y789268D01*
X1548457Y789810D01*
X1547500Y790000D01*
X1546543Y789810D01*
X1545732Y789268D01*
X1545190Y788457D01*
X1545000Y787500D01*
X1545190Y786543D01*
X1545732Y785732D01*
X1546543Y785190D01*
X1547500Y785000D01*
X1548457Y785190D01*
X1549268Y785732D01*
X1549810Y786543D01*
X1550000Y787500D01*
X1163500Y430000D02*
X1169500D01*
X1496000D02*
X1502000D01*
X1446000D02*
X1452000D01*
X1396000D02*
X1402000D01*
X1346000D02*
X1352000D01*
X1296000D02*
X1302000D01*
X1496000Y480000D02*
X1502000D01*
X1446000D02*
X1452000D01*
X1396000D02*
X1402000D01*
X1346000D02*
X1352000D01*
X1296000D02*
X1302000D01*
X1496000Y530000D02*
X1502000D01*
X1446000D02*
X1452000D01*
X1396000D02*
X1402000D01*
X1346000D02*
X1352000D01*
X1296000D02*
X1302000D01*
X1496000Y580000D02*
X1502000D01*
X1446000D02*
X1452000D01*
X1396000D02*
X1402000D01*
X1346000D02*
X1352000D01*
X1296000D02*
X1302000D01*
X997000Y412000D02*
Y423000D01*
X1028000Y412000D02*
Y423000D01*
X997000D02*
X1028000D01*
X997000Y412000D02*
X1028000D01*
X902000Y449500D02*
Y460500D01*
X871000Y449500D02*
Y460500D01*
Y449500D02*
X902000D01*
X871000Y460500D02*
X902000D01*
Y469500D02*
Y480500D01*
X871000Y469500D02*
Y480500D01*
Y469500D02*
X902000D01*
X871000Y480500D02*
X902000D01*
X1172000Y800500D02*
Y881500D01*
X1183000D01*
Y800500D02*
Y881500D01*
X1172000Y800500D02*
X1183000D01*
X1172000Y719500D02*
Y800500D01*
X1183000D01*
Y719500D02*
Y800500D01*
X1172000Y719500D02*
X1183000D01*
X1426500Y671000D02*
X1430500D01*
X1426500Y699000D02*
X1430500D01*
X1426500Y671000D02*
Y699000D01*
X909000Y684500D02*
Y695500D01*
X940000Y684500D02*
Y695500D01*
X909000D02*
X940000D01*
X909000Y684500D02*
X940000D01*
X1232000Y509500D02*
Y520500D01*
X1263000Y509500D02*
Y520500D01*
X1232000D02*
X1263000D01*
X1232000Y509500D02*
X1263000D01*
X920300Y445000D02*
Y485000D01*
X907700Y445000D02*
Y485000D01*
X920300D01*
X907700Y445000D02*
X920300D01*
X1501000Y649500D02*
X1512000D01*
X1501000Y680500D02*
X1512000D01*
X1501000Y649500D02*
Y680500D01*
X1512000Y649500D02*
Y680500D01*
X619500Y690000D02*
X654500D01*
X619500Y460000D02*
X654500D01*
Y690000D01*
X619500Y460000D02*
Y690000D01*
Y585000D02*
X622500D01*
Y565000D02*
Y585000D01*
X619500Y565000D02*
X622500D01*
X1522000Y734000D02*
Y762000D01*
X1526000D01*
X1522000Y734000D02*
X1526000D01*
X1462000D02*
X1466000D01*
X1462000Y762000D02*
X1466000D01*
X1462000Y734000D02*
Y762000D01*
X1392000Y734000D02*
Y762000D01*
X1396000D01*
X1392000Y734000D02*
X1396000D01*
X1332000D02*
X1336000D01*
X1332000Y762000D02*
X1336000D01*
X1332000Y734000D02*
Y762000D01*
X1272000Y734000D02*
Y762000D01*
X1276000D01*
X1272000Y734000D02*
X1276000D01*
X1212000D02*
X1216000D01*
X1212000Y762000D02*
X1216000D01*
X1212000Y734000D02*
Y762000D01*
X1191000Y767000D02*
X1244000D01*
X1191000Y843000D02*
X1244000D01*
X1191000Y767000D02*
Y843000D01*
X1244000Y767000D02*
Y843000D01*
X1304000Y767000D02*
Y843000D01*
X1251000Y767000D02*
Y843000D01*
X1304000D01*
X1251000Y767000D02*
X1304000D01*
X1311000D02*
X1364000D01*
X1311000Y843000D02*
X1364000D01*
X1311000Y767000D02*
Y843000D01*
X1364000Y767000D02*
Y843000D01*
X1424000Y767000D02*
Y843000D01*
X1371000Y767000D02*
Y843000D01*
X1424000D01*
X1371000Y767000D02*
X1424000D01*
X1441000D02*
X1494000D01*
X1441000Y843000D02*
X1494000D01*
X1441000Y767000D02*
Y843000D01*
X1494000Y767000D02*
Y843000D01*
X1554000Y767000D02*
Y843000D01*
X1501000Y767000D02*
Y843000D01*
X1554000D01*
X1501000Y767000D02*
X1554000D01*
X809500Y732000D02*
Y743000D01*
X778500Y732000D02*
Y743000D01*
Y732000D02*
X809500D01*
X778500Y743000D02*
X809500D01*
X930500Y871500D02*
X960500D01*
X930500Y849000D02*
X960500D01*
X940500Y854000D02*
X950500D01*
X960500Y849000D02*
Y871500D01*
X930500Y849000D02*
Y871500D01*
X940500Y849000D02*
Y854000D01*
X950500Y849000D02*
Y854000D01*
X1086000Y435500D02*
X1097000D01*
X1086000Y404500D02*
X1097000D01*
Y435500D01*
X1086000Y404500D02*
Y435500D01*
X1147000Y589500D02*
Y600500D01*
X1116000Y589500D02*
Y600500D01*
Y589500D02*
X1147000D01*
X1116000Y600500D02*
X1147000D01*
Y719500D02*
Y730500D01*
X1116000Y719500D02*
Y730500D01*
Y719500D02*
X1147000D01*
X1116000Y730500D02*
X1147000D01*
X1548500Y625000D02*
X1571000D01*
X1548500Y695000D02*
X1571000D01*
X1548500Y655000D02*
X1553500D01*
X1548500Y635000D02*
X1553500D01*
X1548500Y685000D02*
X1553500D01*
X1548500Y665000D02*
X1553500D01*
X1571000Y625000D02*
Y695000D01*
X1548500Y625000D02*
Y695000D01*
X1553500Y635000D02*
Y655000D01*
Y665000D02*
Y685000D01*
X872500Y405000D02*
X887500D01*
Y440000D01*
X872500D02*
X887500D01*
X872500Y405000D02*
Y440000D01*
X619700Y750800D02*
Y787100D01*
X619800Y787200D01*
X663500D01*
Y780000D02*
Y787200D01*
Y750800D02*
Y759000D01*
X661200Y750800D02*
X663500D01*
X619700D02*
X634500D01*
X1524000Y440000D02*
Y607500D01*
X1569000D01*
Y440000D02*
Y607500D01*
X1524000Y440000D02*
X1569000D01*
X1028000Y713500D02*
Y719498D01*
X1030999D01*
X1031999Y718498D01*
Y716499D01*
X1030999Y715499D01*
X1028000D01*
X1029999D02*
X1031999Y713500D01*
X1037997Y719498D02*
X1033998D01*
Y713500D01*
X1037997D01*
X1033998Y716499D02*
X1035997D01*
X1043995Y718498D02*
X1042995Y719498D01*
X1040996D01*
X1039996Y718498D01*
Y717499D01*
X1040996Y716499D01*
X1042995D01*
X1043995Y715499D01*
Y714500D01*
X1042995Y713500D01*
X1040996D01*
X1039996Y714500D01*
X1049993Y719498D02*
X1045994D01*
Y713500D01*
X1049993D01*
X1045994Y716499D02*
X1047993D01*
X1051992Y719498D02*
X1055991D01*
X1053992D01*
Y713500D01*
X1518000Y627998D02*
Y622000D01*
X1520999D01*
X1521999Y623000D01*
Y626998D01*
X1520999Y627998D01*
X1518000D01*
X1523998D02*
X1525997D01*
X1524998D01*
Y622000D01*
X1523998D01*
X1525997D01*
X1528996D02*
Y627998D01*
X1532995Y622000D01*
Y627998D01*
X1477499Y662500D02*
X1473500D01*
X1477499Y666499D01*
Y667498D01*
X1476499Y668498D01*
X1474500D01*
X1473500Y667498D01*
X1479498Y668498D02*
Y662500D01*
Y664499D01*
X1483497Y668498D01*
X1480498Y665499D01*
X1483497Y662500D01*
X1485496Y668498D02*
X1489495D01*
Y667498D01*
X1485496Y663500D01*
Y662500D01*
X1450500D02*
Y668498D01*
X1453499D01*
X1454499Y667498D01*
Y665499D01*
X1453499Y664499D01*
X1450500D01*
X1452499D02*
X1454499Y662500D01*
X1460497D02*
X1456498D01*
X1460497Y666499D01*
Y667498D01*
X1459497Y668498D01*
X1457498D01*
X1456498Y667498D01*
X1466495Y662500D02*
X1462496D01*
X1466495Y666499D01*
Y667498D01*
X1465495Y668498D01*
X1463496D01*
X1462496Y667498D01*
X1202000Y730498D02*
Y724500D01*
X1204999D01*
X1205999Y725500D01*
Y726499D01*
X1204999Y727499D01*
X1202000D01*
X1204999D01*
X1205999Y728499D01*
Y729498D01*
X1204999Y730498D01*
X1202000D01*
X1211997Y729498D02*
X1210997Y730498D01*
X1208998D01*
X1207998Y729498D01*
Y725500D01*
X1208998Y724500D01*
X1210997D01*
X1211997Y725500D01*
X1217995Y730498D02*
X1213996D01*
Y727499D01*
X1215996Y728499D01*
X1216995D01*
X1217995Y727499D01*
Y725500D01*
X1216995Y724500D01*
X1214996D01*
X1213996Y725500D01*
X1222993Y724500D02*
Y730498D01*
X1219994Y727499D01*
X1223993D01*
X1225992Y730498D02*
X1229991D01*
Y729498D01*
X1225992Y725500D01*
Y724500D01*
X1198500Y760998D02*
X1202499D01*
X1200499D01*
Y755000D01*
X1204498D02*
X1206497D01*
X1205498D01*
Y760998D01*
X1204498Y759998D01*
X1224000Y704000D02*
X1225999D01*
X1225000D01*
Y709998D01*
X1224000Y708998D01*
X1228998Y709998D02*
Y704000D01*
Y705999D01*
X1232997Y709998D01*
X1229998Y706999D01*
X1232997Y704000D01*
X1224500Y713500D02*
Y719498D01*
X1227499D01*
X1228499Y718498D01*
Y716499D01*
X1227499Y715499D01*
X1224500D01*
X1226499D02*
X1228499Y713500D01*
X1234497D02*
X1230498D01*
X1234497Y717499D01*
Y718498D01*
X1233497Y719498D01*
X1231498D01*
X1230498Y718498D01*
X1263500Y730498D02*
Y724500D01*
X1266499D01*
X1267499Y725500D01*
Y726499D01*
X1266499Y727499D01*
X1263500D01*
X1266499D01*
X1267499Y728499D01*
Y729498D01*
X1266499Y730498D01*
X1263500D01*
X1273497Y729498D02*
X1272497Y730498D01*
X1270498D01*
X1269498Y729498D01*
Y725500D01*
X1270498Y724500D01*
X1272497D01*
X1273497Y725500D01*
X1279495Y730498D02*
X1275496D01*
Y727499D01*
X1277495Y728499D01*
X1278495D01*
X1279495Y727499D01*
Y725500D01*
X1278495Y724500D01*
X1276496D01*
X1275496Y725500D01*
X1284493Y724500D02*
Y730498D01*
X1281494Y727499D01*
X1285493D01*
X1287492Y730498D02*
X1291491D01*
Y729498D01*
X1287492Y725500D01*
Y724500D01*
X1258000Y760998D02*
X1261999D01*
X1259999D01*
Y755000D01*
X1267997D02*
X1263998D01*
X1267997Y758999D01*
Y759998D01*
X1266997Y760998D01*
X1264998D01*
X1263998Y759998D01*
X1284000Y704500D02*
X1285999D01*
X1285000D01*
Y710498D01*
X1284000Y709498D01*
X1288998Y710498D02*
Y704500D01*
Y706499D01*
X1292997Y710498D01*
X1289998Y707499D01*
X1292997Y704500D01*
X1284000Y713500D02*
Y719498D01*
X1286999D01*
X1287999Y718498D01*
Y716499D01*
X1286999Y715499D01*
X1284000D01*
X1285999D02*
X1287999Y713500D01*
X1289998Y718498D02*
X1290998Y719498D01*
X1292997D01*
X1293997Y718498D01*
Y717499D01*
X1292997Y716499D01*
X1291997D01*
X1292997D01*
X1293997Y715499D01*
Y714500D01*
X1292997Y713500D01*
X1290998D01*
X1289998Y714500D01*
X1322500Y729998D02*
Y724000D01*
X1325499D01*
X1326499Y725000D01*
Y725999D01*
X1325499Y726999D01*
X1322500D01*
X1325499D01*
X1326499Y727999D01*
Y728998D01*
X1325499Y729998D01*
X1322500D01*
X1332497Y728998D02*
X1331497Y729998D01*
X1329498D01*
X1328498Y728998D01*
Y725000D01*
X1329498Y724000D01*
X1331497D01*
X1332497Y725000D01*
X1338495Y729998D02*
X1334496D01*
Y726999D01*
X1336495Y727999D01*
X1337495D01*
X1338495Y726999D01*
Y725000D01*
X1337495Y724000D01*
X1335496D01*
X1334496Y725000D01*
X1343493Y724000D02*
Y729998D01*
X1340494Y726999D01*
X1344493D01*
X1346492Y729998D02*
X1350491D01*
Y728998D01*
X1346492Y725000D01*
Y724000D01*
X1318000Y760998D02*
X1321999D01*
X1319999D01*
Y755000D01*
X1323998Y759998D02*
X1324998Y760998D01*
X1326997D01*
X1327997Y759998D01*
Y758999D01*
X1326997Y757999D01*
X1325997D01*
X1326997D01*
X1327997Y756999D01*
Y756000D01*
X1326997Y755000D01*
X1324998D01*
X1323998Y756000D01*
X1344500Y703500D02*
X1346499D01*
X1345500D01*
Y709498D01*
X1344500Y708498D01*
X1349498Y709498D02*
Y703500D01*
Y705499D01*
X1353497Y709498D01*
X1350498Y706499D01*
X1353497Y703500D01*
X1344500Y713000D02*
Y718998D01*
X1347499D01*
X1348499Y717998D01*
Y715999D01*
X1347499Y714999D01*
X1344500D01*
X1346499D02*
X1348499Y713000D01*
X1353497D02*
Y718998D01*
X1350498Y715999D01*
X1354497D01*
X1383000Y730498D02*
Y724500D01*
X1385999D01*
X1386999Y725500D01*
Y726499D01*
X1385999Y727499D01*
X1383000D01*
X1385999D01*
X1386999Y728499D01*
Y729498D01*
X1385999Y730498D01*
X1383000D01*
X1392997Y729498D02*
X1391997Y730498D01*
X1389998D01*
X1388998Y729498D01*
Y725500D01*
X1389998Y724500D01*
X1391997D01*
X1392997Y725500D01*
X1398995Y730498D02*
X1394996D01*
Y727499D01*
X1396996Y728499D01*
X1397995D01*
X1398995Y727499D01*
Y725500D01*
X1397995Y724500D01*
X1395996D01*
X1394996Y725500D01*
X1403993Y724500D02*
Y730498D01*
X1400994Y727499D01*
X1404993D01*
X1406992Y730498D02*
X1410991D01*
Y729498D01*
X1406992Y725500D01*
Y724500D01*
X1378500Y760998D02*
X1382499D01*
X1380499D01*
Y755000D01*
X1387497D02*
Y760998D01*
X1384498Y757999D01*
X1388497D01*
X1405000Y704500D02*
X1406999D01*
X1406000D01*
Y710498D01*
X1405000Y709498D01*
X1409998Y710498D02*
Y704500D01*
Y706499D01*
X1413997Y710498D01*
X1410998Y707499D01*
X1413997Y704500D01*
X1404500Y714000D02*
Y719998D01*
X1407499D01*
X1408499Y718998D01*
Y716999D01*
X1407499Y715999D01*
X1404500D01*
X1406499D02*
X1408499Y714000D01*
X1414497Y719998D02*
X1410498D01*
Y716999D01*
X1412497Y717999D01*
X1413497D01*
X1414497Y716999D01*
Y715000D01*
X1413497Y714000D01*
X1411498D01*
X1410498Y715000D01*
X1452500Y730498D02*
Y724500D01*
X1455499D01*
X1456499Y725500D01*
Y726499D01*
X1455499Y727499D01*
X1452500D01*
X1455499D01*
X1456499Y728499D01*
Y729498D01*
X1455499Y730498D01*
X1452500D01*
X1462497Y729498D02*
X1461497Y730498D01*
X1459498D01*
X1458498Y729498D01*
Y725500D01*
X1459498Y724500D01*
X1461497D01*
X1462497Y725500D01*
X1468495Y730498D02*
X1464496D01*
Y727499D01*
X1466496Y728499D01*
X1467495D01*
X1468495Y727499D01*
Y725500D01*
X1467495Y724500D01*
X1465496D01*
X1464496Y725500D01*
X1473493Y724500D02*
Y730498D01*
X1470494Y727499D01*
X1474493D01*
X1476492Y730498D02*
X1480491D01*
Y729498D01*
X1476492Y725500D01*
Y724500D01*
X1448000Y760998D02*
X1451999D01*
X1449999D01*
Y755000D01*
X1457997Y760998D02*
X1453998D01*
Y757999D01*
X1455997Y758999D01*
X1456997D01*
X1457997Y757999D01*
Y756000D01*
X1456997Y755000D01*
X1454998D01*
X1453998Y756000D01*
X1474000Y706500D02*
X1475999D01*
X1475000D01*
Y712498D01*
X1474000Y711498D01*
X1478998Y712498D02*
Y706500D01*
Y708499D01*
X1482997Y712498D01*
X1479998Y709499D01*
X1482997Y706500D01*
X1474000Y715500D02*
Y721498D01*
X1476999D01*
X1477999Y720498D01*
Y718499D01*
X1476999Y717499D01*
X1474000D01*
X1475999D02*
X1477999Y715500D01*
X1483997Y721498D02*
X1481997Y720498D01*
X1479998Y718499D01*
Y716500D01*
X1480998Y715500D01*
X1482997D01*
X1483997Y716500D01*
Y717499D01*
X1482997Y718499D01*
X1479998D01*
X1517000Y729998D02*
Y724000D01*
X1519999D01*
X1520999Y725000D01*
Y725999D01*
X1519999Y726999D01*
X1517000D01*
X1519999D01*
X1520999Y727999D01*
Y728998D01*
X1519999Y729998D01*
X1517000D01*
X1526997Y728998D02*
X1525997Y729998D01*
X1523998D01*
X1522998Y728998D01*
Y725000D01*
X1523998Y724000D01*
X1525997D01*
X1526997Y725000D01*
X1532995Y729998D02*
X1528996D01*
Y726999D01*
X1530995Y727999D01*
X1531995D01*
X1532995Y726999D01*
Y725000D01*
X1531995Y724000D01*
X1529996D01*
X1528996Y725000D01*
X1537993Y724000D02*
Y729998D01*
X1534994Y726999D01*
X1538993D01*
X1540992Y729998D02*
X1544991D01*
Y728998D01*
X1540992Y725000D01*
Y724000D01*
X1507500Y760498D02*
X1511499D01*
X1509499D01*
Y754500D01*
X1517497Y760498D02*
X1515497Y759498D01*
X1513498Y757499D01*
Y755500D01*
X1514498Y754500D01*
X1516497D01*
X1517497Y755500D01*
Y756499D01*
X1516497Y757499D01*
X1513498D01*
X1533000Y703000D02*
X1534999D01*
X1534000D01*
Y708998D01*
X1533000Y707998D01*
X1537998Y708998D02*
Y703000D01*
Y704999D01*
X1541997Y708998D01*
X1538998Y705999D01*
X1541997Y703000D01*
X1533500Y712500D02*
Y718498D01*
X1536499D01*
X1537499Y717498D01*
Y715499D01*
X1536499Y714499D01*
X1533500D01*
X1535499D02*
X1537499Y712500D01*
X1539498Y718498D02*
X1543497D01*
Y717498D01*
X1539498Y713500D01*
Y712500D01*
X828000Y433500D02*
X822002D01*
Y436499D01*
X823002Y437499D01*
X825001D01*
X826001Y436499D01*
Y433500D01*
Y435499D02*
X828000Y437499D01*
Y439498D02*
Y441497D01*
Y440498D01*
X822002D01*
X823002Y439498D01*
X828000Y447496D02*
X822002D01*
X825001Y444496D01*
Y448495D01*
X815000Y433500D02*
X809002D01*
Y436499D01*
X810002Y437499D01*
X812001D01*
X813001Y436499D01*
Y433500D01*
Y435499D02*
X815000Y437499D01*
Y439498D02*
Y441497D01*
Y440498D01*
X809002D01*
X810002Y439498D01*
Y444496D02*
X809002Y445496D01*
Y447496D01*
X810002Y448495D01*
X811001D01*
X812001Y447496D01*
Y446496D01*
Y447496D01*
X813001Y448495D01*
X814000D01*
X815000Y447496D01*
Y445496D01*
X814000Y444496D01*
X802500Y433500D02*
X796502D01*
Y436499D01*
X797502Y437499D01*
X799501D01*
X800501Y436499D01*
Y433500D01*
Y435499D02*
X802500Y437499D01*
Y439498D02*
Y441497D01*
Y440498D01*
X796502D01*
X797502Y439498D01*
X802500Y448495D02*
Y444496D01*
X798501Y448495D01*
X797502D01*
X796502Y447496D01*
Y445496D01*
X797502Y444496D01*
X789500Y433500D02*
X783502D01*
Y436499D01*
X784502Y437499D01*
X786501D01*
X787501Y436499D01*
Y433500D01*
Y435499D02*
X789500Y437499D01*
Y439498D02*
Y441497D01*
Y440498D01*
X783502D01*
X784502Y439498D01*
X789500Y444496D02*
Y446496D01*
Y445496D01*
X783502D01*
X784502Y444496D01*
X795499Y424000D02*
X791500D01*
X795499Y427999D01*
Y428998D01*
X794499Y429998D01*
X792500D01*
X791500Y428998D01*
X801497Y424000D02*
X797498D01*
X801497Y427999D01*
Y428998D01*
X800497Y429998D01*
X798498D01*
X797498Y428998D01*
X803496Y429998D02*
Y424000D01*
Y425999D01*
X807495Y429998D01*
X804496Y426999D01*
X807495Y424000D01*
X777000Y433500D02*
X771002D01*
Y436499D01*
X772002Y437499D01*
X774001D01*
X775001Y436499D01*
Y433500D01*
Y435499D02*
X777000Y437499D01*
Y439498D02*
Y441497D01*
Y440498D01*
X771002D01*
X772002Y439498D01*
Y444496D02*
X771002Y445496D01*
Y447496D01*
X772002Y448495D01*
X776000D01*
X777000Y447496D01*
Y445496D01*
X776000Y444496D01*
X772002D01*
X1232500Y471998D02*
X1233500Y472998D01*
X1235499D01*
X1236499Y471998D01*
Y470999D01*
X1235499Y469999D01*
X1234499D01*
X1235499D01*
X1236499Y468999D01*
Y468000D01*
X1235499Y467000D01*
X1233500D01*
X1232500Y468000D01*
X1238498Y467000D02*
Y468000D01*
X1239498D01*
Y467000D01*
X1238498D01*
X1243496Y471998D02*
X1244496Y472998D01*
X1246496D01*
X1247495Y471998D01*
Y470999D01*
X1246496Y469999D01*
X1245496D01*
X1246496D01*
X1247495Y468999D01*
Y468000D01*
X1246496Y467000D01*
X1244496D01*
X1243496Y468000D01*
X1249494Y470999D02*
Y468000D01*
X1250494Y467000D01*
X1253493D01*
Y470999D01*
X1259491Y472998D02*
X1255493D01*
Y469999D01*
X1257492D01*
X1255493D01*
Y467000D01*
X1243999Y480998D02*
X1242999Y481998D01*
X1241000D01*
X1240000Y480998D01*
Y477000D01*
X1241000Y476000D01*
X1242999D01*
X1243999Y477000D01*
X1245998Y476000D02*
X1247997D01*
X1246998D01*
Y481998D01*
X1245998Y480998D01*
X1250996Y476000D02*
X1252996D01*
X1251996D01*
Y481998D01*
X1250996Y480998D01*
X1131500Y418000D02*
X1133499D01*
X1132500D01*
Y423998D01*
X1131500Y422998D01*
X1136498Y421999D02*
Y419000D01*
X1137498Y418000D01*
X1140497D01*
Y421999D01*
X1146495Y423998D02*
X1142496D01*
Y420999D01*
X1144496D01*
X1142496D01*
Y418000D01*
X1134999Y432998D02*
X1133999Y433998D01*
X1132000D01*
X1131000Y432998D01*
Y429000D01*
X1132000Y428000D01*
X1133999D01*
X1134999Y429000D01*
X1136998Y428000D02*
X1138997D01*
X1137998D01*
Y433998D01*
X1136998Y432998D01*
X1145995Y433998D02*
X1141996D01*
Y430999D01*
X1143996Y431999D01*
X1144995D01*
X1145995Y430999D01*
Y429000D01*
X1144995Y428000D01*
X1142996D01*
X1141996Y429000D01*
X1146000Y877000D02*
X1147999D01*
X1147000D01*
Y882998D01*
X1146000Y881998D01*
X1150998Y880999D02*
Y878000D01*
X1151998Y877000D01*
X1154997D01*
Y880999D01*
X1160995Y882998D02*
X1156996D01*
Y879999D01*
X1158996D01*
X1156996D01*
Y877000D01*
X1134999Y881998D02*
X1133999Y882998D01*
X1132000D01*
X1131000Y881998D01*
Y878000D01*
X1132000Y877000D01*
X1133999D01*
X1134999Y878000D01*
X1136998Y877000D02*
X1138997D01*
X1137998D01*
Y882998D01*
X1136998Y881998D01*
X942000Y819000D02*
X943999D01*
X943000D01*
Y824998D01*
X942000Y823998D01*
X946998D02*
X947998Y824998D01*
X949997D01*
X950997Y823998D01*
Y820000D01*
X949997Y819000D01*
X947998D01*
X946998Y820000D01*
Y823998D01*
X952996Y822999D02*
Y820000D01*
X953996Y819000D01*
X956995D01*
Y822999D01*
X962993Y824998D02*
X958994D01*
Y821999D01*
X960994D01*
X958994D01*
Y819000D01*
X945499Y832998D02*
X944499Y833998D01*
X942500D01*
X941500Y832998D01*
Y829000D01*
X942500Y828000D01*
X944499D01*
X945499Y829000D01*
X951497Y828000D02*
X947498D01*
X951497Y831999D01*
Y832998D01*
X950497Y833998D01*
X948498D01*
X947498Y832998D01*
X675500Y704000D02*
X677499D01*
X676500D01*
Y709998D01*
X675500Y708998D01*
X680498D02*
X681498Y709998D01*
X683497D01*
X684497Y708998D01*
Y705000D01*
X683497Y704000D01*
X681498D01*
X680498Y705000D01*
Y708998D01*
X686496Y707999D02*
Y705000D01*
X687496Y704000D01*
X690495D01*
Y707999D01*
X696493Y709998D02*
X692494D01*
Y706999D01*
X694494D01*
X692494D01*
Y704000D01*
X679499Y717498D02*
X678499Y718498D01*
X676500D01*
X675500Y717498D01*
Y713500D01*
X676500Y712500D01*
X678499D01*
X679499Y713500D01*
X685497Y718498D02*
X681498D01*
Y715499D01*
X683497Y716499D01*
X684497D01*
X685497Y715499D01*
Y713500D01*
X684497Y712500D01*
X682498D01*
X681498Y713500D01*
X627999Y455498D02*
X626999Y456498D01*
X625000D01*
X624000Y455498D01*
Y451500D01*
X625000Y450500D01*
X626999D01*
X627999Y451500D01*
X629998Y450500D02*
Y456498D01*
X633997Y450500D01*
Y456498D01*
X635996Y455498D02*
X636996Y456498D01*
X638995D01*
X639995Y455498D01*
Y454499D01*
X638995Y453499D01*
X637995D01*
X638995D01*
X639995Y452499D01*
Y451500D01*
X638995Y450500D01*
X636996D01*
X635996Y451500D01*
X1500000Y691000D02*
X1501999D01*
X1501000D01*
Y696998D01*
X1500000Y695998D01*
X1504998D02*
X1505998Y696998D01*
X1507997D01*
X1508997Y695998D01*
Y692000D01*
X1507997Y691000D01*
X1505998D01*
X1504998Y692000D01*
Y695998D01*
X1510996D02*
X1511996Y696998D01*
X1513995D01*
X1514995Y695998D01*
Y692000D01*
X1513995Y691000D01*
X1511996D01*
X1510996Y692000D01*
Y695998D01*
X1516994Y691000D02*
Y694999D01*
X1519993D01*
X1520993Y693999D01*
Y691000D01*
X1503999Y704998D02*
X1502999Y705998D01*
X1501000D01*
X1500000Y704998D01*
Y701000D01*
X1501000Y700000D01*
X1502999D01*
X1503999Y701000D01*
X1505998Y700000D02*
X1507997D01*
X1506998D01*
Y705998D01*
X1505998Y704998D01*
X1514995Y705998D02*
X1512996Y704998D01*
X1510996Y702999D01*
Y701000D01*
X1511996Y700000D01*
X1513995D01*
X1514995Y701000D01*
Y701999D01*
X1513995Y702999D01*
X1510996D01*
X1426999Y627000D02*
X1423000D01*
X1426999Y630999D01*
Y631998D01*
X1425999Y632998D01*
X1424000D01*
X1423000Y631998D01*
X1428998Y632998D02*
Y627000D01*
Y628999D01*
X1432997Y632998D01*
X1429998Y629999D01*
X1432997Y627000D01*
X1434996Y632998D02*
X1438995D01*
Y631998D01*
X1434996Y628000D01*
Y627000D01*
X1498000D02*
Y632998D01*
X1500999D01*
X1501999Y631998D01*
Y629999D01*
X1500999Y628999D01*
X1498000D01*
X1499999D02*
X1501999Y627000D01*
X1507997D02*
X1503998D01*
X1507997Y630999D01*
Y631998D01*
X1506997Y632998D01*
X1504998D01*
X1503998Y631998D01*
X1509996D02*
X1510996Y632998D01*
X1512995D01*
X1513995Y631998D01*
Y628000D01*
X1512995Y627000D01*
X1510996D01*
X1509996Y628000D01*
Y631998D01*
X1130500Y734500D02*
X1132499D01*
X1131500D01*
Y740498D01*
X1130500Y739498D01*
X1135498D02*
X1136498Y740498D01*
X1138497D01*
X1139497Y739498D01*
Y735500D01*
X1138497Y734500D01*
X1136498D01*
X1135498Y735500D01*
Y739498D01*
X1141496D02*
X1142496Y740498D01*
X1144495D01*
X1145495Y739498D01*
Y735500D01*
X1144495Y734500D01*
X1142496D01*
X1141496Y735500D01*
Y739498D01*
X1147495Y734500D02*
Y738499D01*
X1150494D01*
X1151493Y737499D01*
Y734500D01*
X1115499Y738998D02*
X1114499Y739998D01*
X1112500D01*
X1111500Y738998D01*
Y735000D01*
X1112500Y734000D01*
X1114499D01*
X1115499Y735000D01*
X1121497Y739998D02*
X1119497Y738998D01*
X1117498Y736999D01*
Y735000D01*
X1118498Y734000D01*
X1120497D01*
X1121497Y735000D01*
Y735999D01*
X1120497Y736999D01*
X1117498D01*
X876500Y823498D02*
X877500Y824498D01*
X879499D01*
X880499Y823498D01*
Y822499D01*
X879499Y821499D01*
X878499D01*
X879499D01*
X880499Y820499D01*
Y819500D01*
X879499Y818500D01*
X877500D01*
X876500Y819500D01*
X882498Y823498D02*
X883498Y824498D01*
X885497D01*
X886497Y823498D01*
Y822499D01*
X885497Y821499D01*
X884497D01*
X885497D01*
X886497Y820499D01*
Y819500D01*
X885497Y818500D01*
X883498D01*
X882498Y819500D01*
X888496Y823498D02*
X889496Y824498D01*
X891495D01*
X892495Y823498D01*
Y819500D01*
X891495Y818500D01*
X889496D01*
X888496Y819500D01*
Y823498D01*
X894494Y818500D02*
Y824498D01*
X897493D01*
X898493Y823498D01*
Y821499D01*
X897493Y820499D01*
X894494D01*
X896494D02*
X898493Y818500D01*
X878000Y829500D02*
Y835498D01*
X880999D01*
X881999Y834498D01*
Y832499D01*
X880999Y831499D01*
X878000D01*
X879999D02*
X881999Y829500D01*
X883998D02*
X885997D01*
X884998D01*
Y835498D01*
X883998Y834498D01*
X792500Y712000D02*
X794499D01*
X793500D01*
Y717998D01*
X792500Y716998D01*
X797498D02*
X798498Y717998D01*
X800497D01*
X801497Y716998D01*
Y713000D01*
X800497Y712000D01*
X798498D01*
X797498Y713000D01*
Y716998D01*
X803496D02*
X804496Y717998D01*
X806495D01*
X807495Y716998D01*
Y713000D01*
X806495Y712000D01*
X804496D01*
X803496Y713000D01*
Y716998D01*
X809494Y712000D02*
Y715999D01*
X812494D01*
X813493Y714999D01*
Y712000D01*
X795999Y726998D02*
X794999Y727998D01*
X793000D01*
X792000Y726998D01*
Y723000D01*
X793000Y722000D01*
X794999D01*
X795999Y723000D01*
X800997Y722000D02*
Y727998D01*
X797998Y724999D01*
X801997D01*
X1113499Y465000D02*
X1109500D01*
X1113499Y468999D01*
Y469998D01*
X1112499Y470998D01*
X1110500D01*
X1109500Y469998D01*
X1119497Y465000D02*
X1115498D01*
X1119497Y468999D01*
Y469998D01*
X1118497Y470998D01*
X1116498D01*
X1115498Y469998D01*
X1121496Y470998D02*
Y465000D01*
Y466999D01*
X1125495Y470998D01*
X1122496Y467999D01*
X1125495Y465000D01*
X1089000D02*
Y470998D01*
X1091999D01*
X1092999Y469998D01*
Y467999D01*
X1091999Y466999D01*
X1089000D01*
X1090999D02*
X1092999Y465000D01*
X1094998D02*
X1096997D01*
X1095998D01*
Y470998D01*
X1094998Y469998D01*
X1099996Y466000D02*
X1100996Y465000D01*
X1102995D01*
X1103995Y466000D01*
Y469998D01*
X1102995Y470998D01*
X1100996D01*
X1099996Y469998D01*
Y468999D01*
X1100996Y467999D01*
X1103995D01*
X911499Y422000D02*
Y427998D01*
X908500Y424999D01*
X912499D01*
X914498Y422000D02*
Y423000D01*
X915498D01*
Y422000D01*
X914498D01*
X919496Y426998D02*
X920496Y427998D01*
X922495D01*
X923495Y426998D01*
Y423000D01*
X922495Y422000D01*
X920496D01*
X919496Y423000D01*
Y426998D01*
X925494Y422000D02*
Y427998D01*
X927494Y425999D01*
X929493Y427998D01*
Y422000D01*
X931493Y427998D02*
Y422000D01*
Y424999D01*
X935491D01*
Y427998D01*
Y422000D01*
X937491Y425999D02*
X941489D01*
X937491Y422000D01*
X941489D01*
X909000Y436998D02*
X912999Y431000D01*
Y436998D02*
X909000Y431000D01*
X914998Y436998D02*
X918997D01*
X916997D01*
Y431000D01*
X920996Y436998D02*
Y431000D01*
X924995D01*
X926994D02*
X928994D01*
X927994D01*
Y436998D01*
X926994Y435998D01*
X846000Y455498D02*
X847000Y456498D01*
X848999D01*
X849999Y455498D01*
Y454499D01*
X848999Y453499D01*
X847999D01*
X848999D01*
X849999Y452499D01*
Y451500D01*
X848999Y450500D01*
X847000D01*
X846000Y451500D01*
X851998Y455498D02*
X852998Y456498D01*
X854997D01*
X855997Y455498D01*
Y454499D01*
X854997Y453499D01*
X853997D01*
X854997D01*
X855997Y452499D01*
Y451500D01*
X854997Y450500D01*
X852998D01*
X851998Y451500D01*
X857996Y448501D02*
Y454499D01*
X860995D01*
X861995Y453499D01*
Y451500D01*
X860995Y450500D01*
X857996D01*
X867993Y456498D02*
X863994D01*
Y453499D01*
X865993D01*
X863994D01*
Y450500D01*
X849499Y463998D02*
X848499Y464998D01*
X846500D01*
X845500Y463998D01*
Y460000D01*
X846500Y459000D01*
X848499D01*
X849499Y460000D01*
X851498Y459000D02*
X853497D01*
X852498D01*
Y464998D01*
X851498Y463998D01*
X856496D02*
X857496Y464998D01*
X859496D01*
X860495Y463998D01*
Y462999D01*
X859496Y461999D01*
X858496D01*
X859496D01*
X860495Y460999D01*
Y460000D01*
X859496Y459000D01*
X857496D01*
X856496Y460000D01*
X846000Y475498D02*
X847000Y476498D01*
X848999D01*
X849999Y475498D01*
Y474499D01*
X848999Y473499D01*
X847999D01*
X848999D01*
X849999Y472499D01*
Y471500D01*
X848999Y470500D01*
X847000D01*
X846000Y471500D01*
X851998Y475498D02*
X852998Y476498D01*
X854997D01*
X855997Y475498D01*
Y474499D01*
X854997Y473499D01*
X853997D01*
X854997D01*
X855997Y472499D01*
Y471500D01*
X854997Y470500D01*
X852998D01*
X851998Y471500D01*
X857996Y468501D02*
Y474499D01*
X860995D01*
X861995Y473499D01*
Y471500D01*
X860995Y470500D01*
X857996D01*
X867993Y476498D02*
X863994D01*
Y473499D01*
X865993D01*
X863994D01*
Y470500D01*
X849499Y484498D02*
X848499Y485498D01*
X846500D01*
X845500Y484498D01*
Y480500D01*
X846500Y479500D01*
X848499D01*
X849499Y480500D01*
X851498Y479500D02*
X853497D01*
X852498D01*
Y485498D01*
X851498Y484498D01*
X860495Y479500D02*
X856496D01*
X860495Y483499D01*
Y484498D01*
X859496Y485498D01*
X857496D01*
X856496Y484498D01*
X913499Y497498D02*
X909500D01*
Y494499D01*
X911499Y495499D01*
X912499D01*
X913499Y494499D01*
Y492500D01*
X912499Y491500D01*
X910500D01*
X909500Y492500D01*
X919497Y497498D02*
X917497Y496498D01*
X915498Y494499D01*
Y492500D01*
X916498Y491500D01*
X918497D01*
X919497Y492500D01*
Y493499D01*
X918497Y494499D01*
X915498D01*
X921496Y496498D02*
X922496Y497498D01*
X924495D01*
X925495Y496498D01*
Y492500D01*
X924495Y491500D01*
X922496D01*
X921496Y492500D01*
Y496498D01*
X927494Y491500D02*
Y497498D01*
X930493D01*
X931493Y496498D01*
Y494499D01*
X930493Y493499D01*
X927494D01*
X929494D02*
X931493Y491500D01*
X910000Y501000D02*
Y506998D01*
X912999D01*
X913999Y505998D01*
Y503999D01*
X912999Y502999D01*
X910000D01*
X911999D02*
X913999Y501000D01*
X915998D02*
X917997D01*
X916998D01*
Y506998D01*
X915998Y505998D01*
X924995Y506998D02*
X920996D01*
Y503999D01*
X922996Y504999D01*
X923995D01*
X924995Y503999D01*
Y502000D01*
X923995Y501000D01*
X921996D01*
X920996Y502000D01*
X936000Y491500D02*
X937999D01*
X937000D01*
Y497498D01*
X936000Y496498D01*
X940998D02*
X941998Y497498D01*
X943997D01*
X944997Y496498D01*
Y492500D01*
X943997Y491500D01*
X941998D01*
X940998Y492500D01*
Y496498D01*
X946996Y491500D02*
Y497498D01*
X948996Y495499D01*
X950995Y497498D01*
Y491500D01*
X936000Y501000D02*
Y506998D01*
X938999D01*
X939999Y505998D01*
Y503999D01*
X938999Y502999D01*
X936000D01*
X937999D02*
X939999Y501000D01*
X941998D02*
X943997D01*
X942998D01*
Y506998D01*
X941998Y505998D01*
X950995Y506998D02*
X948996Y505998D01*
X946996Y503999D01*
Y502000D01*
X947996Y501000D01*
X949996D01*
X950995Y502000D01*
Y502999D01*
X949996Y503999D01*
X946996D01*
X1000000Y394000D02*
X1001999D01*
X1001000D01*
Y399998D01*
X1000000Y398998D01*
X1004998D02*
X1005998Y399998D01*
X1007997D01*
X1008997Y398998D01*
Y395000D01*
X1007997Y394000D01*
X1005998D01*
X1004998Y395000D01*
Y398998D01*
X1010996D02*
X1011996Y399998D01*
X1013995D01*
X1014995Y398998D01*
Y395000D01*
X1013995Y394000D01*
X1011996D01*
X1010996Y395000D01*
Y398998D01*
X1016994Y392001D02*
Y397999D01*
X1019993D01*
X1020993Y396999D01*
Y395000D01*
X1019993Y394000D01*
X1016994D01*
X1026991Y399998D02*
X1022993D01*
Y396999D01*
X1024992D01*
X1022993D01*
Y394000D01*
X1008999Y408498D02*
X1007999Y409498D01*
X1006000D01*
X1005000Y408498D01*
Y404500D01*
X1006000Y403500D01*
X1007999D01*
X1008999Y404500D01*
X1010998Y403500D02*
X1012997D01*
X1011998D01*
Y409498D01*
X1010998Y408498D01*
X1018995Y403500D02*
Y409498D01*
X1015996Y406499D01*
X1019995D01*
X991500Y481500D02*
X993499D01*
X992500D01*
Y487498D01*
X991500Y486498D01*
X996498D02*
X997498Y487498D01*
X999497D01*
X1000497Y486498D01*
Y482500D01*
X999497Y481500D01*
X997498D01*
X996498Y482500D01*
Y486498D01*
X1002496Y487498D02*
Y481500D01*
Y483499D01*
X1006495Y487498D01*
X1003496Y484499D01*
X1006495Y481500D01*
X991500Y490500D02*
Y496498D01*
X994499D01*
X995499Y495498D01*
Y493499D01*
X994499Y492499D01*
X991500D01*
X993499D02*
X995499Y490500D01*
X997498D02*
X999497D01*
X998498D01*
Y496498D01*
X997498Y495498D01*
X1002496Y496498D02*
X1006495D01*
Y495498D01*
X1002496Y491500D01*
Y490500D01*
X1018499Y481500D02*
X1014500D01*
X1018499Y485499D01*
Y486498D01*
X1017499Y487498D01*
X1015500D01*
X1014500Y486498D01*
X1020498Y487498D02*
Y481500D01*
Y483499D01*
X1024497Y487498D01*
X1021498Y484499D01*
X1024497Y481500D01*
X1030495D02*
X1026496D01*
X1030495Y485499D01*
Y486498D01*
X1029495Y487498D01*
X1027496D01*
X1026496Y486498D01*
X1015000Y490500D02*
Y496498D01*
X1017999D01*
X1018999Y495498D01*
Y493499D01*
X1017999Y492499D01*
X1015000D01*
X1016999D02*
X1018999Y490500D01*
X1020998D02*
X1022997D01*
X1021998D01*
Y496498D01*
X1020998Y495498D01*
X1025996D02*
X1026996Y496498D01*
X1028996D01*
X1029995Y495498D01*
Y494499D01*
X1028996Y493499D01*
X1029995Y492499D01*
Y491500D01*
X1028996Y490500D01*
X1026996D01*
X1025996Y491500D01*
Y492499D01*
X1026996Y493499D01*
X1025996Y494499D01*
Y495498D01*
X1026996Y493499D02*
X1028996D01*
X1232500Y523500D02*
X1234499D01*
X1233500D01*
Y529498D01*
X1232500Y528498D01*
X1237498D02*
X1238498Y529498D01*
X1240497D01*
X1241497Y528498D01*
Y524500D01*
X1240497Y523500D01*
X1238498D01*
X1237498Y524500D01*
Y528498D01*
X1243496D02*
X1244496Y529498D01*
X1246496D01*
X1247495Y528498D01*
Y524500D01*
X1246496Y523500D01*
X1244496D01*
X1243496Y524500D01*
Y528498D01*
X1249494Y523500D02*
Y527499D01*
X1252493D01*
X1253493Y526499D01*
Y523500D01*
X1236499Y536998D02*
X1235499Y537998D01*
X1233500D01*
X1232500Y536998D01*
Y533000D01*
X1233500Y532000D01*
X1235499D01*
X1236499Y533000D01*
X1238498D02*
X1239498Y532000D01*
X1241497D01*
X1242497Y533000D01*
Y536998D01*
X1241497Y537998D01*
X1239498D01*
X1238498Y536998D01*
Y535999D01*
X1239498Y534999D01*
X1242497D01*
X1126500Y604500D02*
X1128499D01*
X1127500D01*
Y610498D01*
X1126500Y609498D01*
X1131498D02*
X1132498Y610498D01*
X1134497D01*
X1135497Y609498D01*
Y605500D01*
X1134497Y604500D01*
X1132498D01*
X1131498Y605500D01*
Y609498D01*
X1137496D02*
X1138496Y610498D01*
X1140495D01*
X1141495Y609498D01*
Y605500D01*
X1140495Y604500D01*
X1138496D01*
X1137496Y605500D01*
Y609498D01*
X1143495Y604500D02*
Y608499D01*
X1146494D01*
X1147493Y607499D01*
Y604500D01*
X1114999Y609498D02*
X1113999Y610498D01*
X1112000D01*
X1111000Y609498D01*
Y605500D01*
X1112000Y604500D01*
X1113999D01*
X1114999Y605500D01*
X1116998Y609498D02*
X1117998Y610498D01*
X1119997D01*
X1120997Y609498D01*
Y608499D01*
X1119997Y607499D01*
X1120997Y606499D01*
Y605500D01*
X1119997Y604500D01*
X1117998D01*
X1116998Y605500D01*
Y606499D01*
X1117998Y607499D01*
X1116998Y608499D01*
Y609498D01*
X1117998Y607499D02*
X1119997D01*
X1478200Y681600D02*
X1480199D01*
X1479200D01*
Y687598D01*
X1478200Y686598D01*
X1483198Y687598D02*
Y681600D01*
Y683599D01*
X1487197Y687598D01*
X1484198Y684599D01*
X1487197Y681600D01*
X1460000D02*
Y687598D01*
X1462999D01*
X1463999Y686598D01*
Y684599D01*
X1462999Y683599D01*
X1460000D01*
X1461999D02*
X1463999Y681600D01*
X1465998Y686598D02*
X1466998Y687598D01*
X1468997D01*
X1469997Y686598D01*
Y685599D01*
X1468997Y684599D01*
X1469997Y683599D01*
Y682600D01*
X1468997Y681600D01*
X1466998D01*
X1465998Y682600D01*
Y683599D01*
X1466998Y684599D01*
X1465998Y685599D01*
Y686598D01*
X1466998Y684599D02*
X1468997D01*
X1424000Y652000D02*
X1425999D01*
X1425000D01*
Y657998D01*
X1424000Y656998D01*
X1428998D02*
X1429998Y657998D01*
X1431997D01*
X1432997Y656998D01*
Y653000D01*
X1431997Y652000D01*
X1429998D01*
X1428998Y653000D01*
Y656998D01*
X1434996D02*
X1435996Y657998D01*
X1437996D01*
X1438995Y656998D01*
Y653000D01*
X1437996Y652000D01*
X1435996D01*
X1434996Y653000D01*
Y656998D01*
X1440994Y652000D02*
Y657998D01*
X1443993D01*
X1444993Y656998D01*
Y654999D01*
X1443993Y653999D01*
X1440994D01*
X1442994D02*
X1444993Y652000D01*
X1431500Y661500D02*
Y667498D01*
X1434499D01*
X1435499Y666498D01*
Y664499D01*
X1434499Y663499D01*
X1431500D01*
X1433499D02*
X1435499Y661500D01*
X1437498Y662500D02*
X1438498Y661500D01*
X1440497D01*
X1441497Y662500D01*
Y666498D01*
X1440497Y667498D01*
X1438498D01*
X1437498Y666498D01*
Y665499D01*
X1438498Y664499D01*
X1441497D01*
X1371500Y646998D02*
Y641000D01*
X1374499D01*
X1375499Y642000D01*
Y642999D01*
X1374499Y643999D01*
X1371500D01*
X1374499D01*
X1375499Y644999D01*
Y645998D01*
X1374499Y646998D01*
X1371500D01*
X1377498Y641000D02*
X1379497D01*
X1378498D01*
Y646998D01*
X1377498Y645998D01*
X1188800Y587798D02*
X1192799D01*
Y586798D01*
X1188800Y582800D01*
Y581800D01*
X1197797D02*
Y587798D01*
X1194798Y584799D01*
X1198797D01*
X1204795Y586798D02*
X1203795Y587798D01*
X1201796D01*
X1200796Y586798D01*
Y582800D01*
X1201796Y581800D01*
X1203795D01*
X1204795Y582800D01*
X1206794D02*
X1207794Y581800D01*
X1209793D01*
X1210793Y582800D01*
Y586798D01*
X1209793Y587798D01*
X1207794D01*
X1206794Y586798D01*
Y585799D01*
X1207794Y584799D01*
X1210793D01*
X1216791Y581800D02*
X1212792D01*
X1216791Y585799D01*
Y586798D01*
X1215791Y587798D01*
X1213792D01*
X1212792Y586798D01*
X1218790D02*
X1219790Y587798D01*
X1221789D01*
X1222789Y586798D01*
Y585799D01*
X1221789Y584799D01*
X1220790D01*
X1221789D01*
X1222789Y583799D01*
Y582800D01*
X1221789Y581800D01*
X1219790D01*
X1218790Y582800D01*
X1188500Y598198D02*
X1190499D01*
X1189500D01*
Y592200D01*
X1188500D01*
X1190499D01*
X1197497Y597198D02*
X1196497Y598198D01*
X1194498D01*
X1193498Y597198D01*
Y593200D01*
X1194498Y592200D01*
X1196497D01*
X1197497Y593200D01*
X1199496D02*
X1200496Y592200D01*
X1202495D01*
X1203495Y593200D01*
Y597198D01*
X1202495Y598198D01*
X1200496D01*
X1199496Y597198D01*
Y596199D01*
X1200496Y595199D01*
X1203495D01*
X1061500Y549998D02*
X1065499D01*
Y548998D01*
X1061500Y545000D01*
Y544000D01*
X1070497D02*
Y549998D01*
X1067498Y546999D01*
X1071497D01*
X1073496Y549998D02*
Y544000D01*
Y546999D01*
X1077495D01*
Y549998D01*
Y544000D01*
X1083493Y548998D02*
X1082493Y549998D01*
X1080494D01*
X1079494Y548998D01*
Y545000D01*
X1080494Y544000D01*
X1082493D01*
X1083493Y545000D01*
X1089491Y544000D02*
X1085492D01*
X1089491Y547999D01*
Y548998D01*
X1088491Y549998D01*
X1086492D01*
X1085492Y548998D01*
X1094489Y544000D02*
Y549998D01*
X1091490Y546999D01*
X1095489D01*
X1100487Y544000D02*
Y549998D01*
X1097488Y546999D01*
X1101487D01*
X1085500Y560998D02*
X1087499D01*
X1086500D01*
Y555000D01*
X1085500D01*
X1087499D01*
X1094497Y559998D02*
X1093497Y560998D01*
X1091498D01*
X1090498Y559998D01*
Y556000D01*
X1091498Y555000D01*
X1093497D01*
X1094497Y556000D01*
X1096496Y559998D02*
X1097496Y560998D01*
X1099496D01*
X1100495Y559998D01*
Y558999D01*
X1099496Y557999D01*
X1100495Y556999D01*
Y556000D01*
X1099496Y555000D01*
X1097496D01*
X1096496Y556000D01*
Y556999D01*
X1097496Y557999D01*
X1096496Y558999D01*
Y559998D01*
X1097496Y557999D02*
X1099496D01*
X1046000Y705498D02*
X1049999D01*
Y704498D01*
X1046000Y700500D01*
Y699500D01*
X1054997D02*
Y705498D01*
X1051998Y702499D01*
X1055997D01*
X1057996Y705498D02*
Y699500D01*
Y702499D01*
X1061995D01*
Y705498D01*
Y699500D01*
X1067993Y704498D02*
X1066993Y705498D01*
X1064994D01*
X1063994Y704498D01*
Y700500D01*
X1064994Y699500D01*
X1066993D01*
X1067993Y700500D01*
X1073991Y699500D02*
X1069992D01*
X1073991Y703499D01*
Y704498D01*
X1072991Y705498D01*
X1070992D01*
X1069992Y704498D01*
X1075990Y705498D02*
X1079989D01*
Y704498D01*
X1075990Y700500D01*
Y699500D01*
X1081988Y704498D02*
X1082988Y705498D01*
X1084987D01*
X1085987Y704498D01*
Y703499D01*
X1084987Y702499D01*
X1083988D01*
X1084987D01*
X1085987Y701499D01*
Y700500D01*
X1084987Y699500D01*
X1082988D01*
X1081988Y700500D01*
X1080000Y714498D02*
X1081999D01*
X1081000D01*
Y708500D01*
X1080000D01*
X1081999D01*
X1088997Y713498D02*
X1087997Y714498D01*
X1085998D01*
X1084998Y713498D01*
Y709500D01*
X1085998Y708500D01*
X1087997D01*
X1088997Y709500D01*
X1093995Y708500D02*
Y714498D01*
X1090996Y711499D01*
X1094995D01*
X1038000Y830498D02*
X1041999D01*
Y829498D01*
X1038000Y825500D01*
Y824500D01*
X1046997D02*
Y830498D01*
X1043998Y827499D01*
X1047997D01*
X1049996Y830498D02*
Y824500D01*
Y827499D01*
X1053995D01*
Y830498D01*
Y824500D01*
X1059993Y829498D02*
X1058993Y830498D01*
X1056994D01*
X1055994Y829498D01*
Y825500D01*
X1056994Y824500D01*
X1058993D01*
X1059993Y825500D01*
X1065991Y824500D02*
X1061992D01*
X1065991Y828499D01*
Y829498D01*
X1064991Y830498D01*
X1062992D01*
X1061992Y829498D01*
X1067990Y830498D02*
X1071989D01*
Y829498D01*
X1067990Y825500D01*
Y824500D01*
X1073988Y829498D02*
X1074988Y830498D01*
X1076987D01*
X1077987Y829498D01*
Y828499D01*
X1076987Y827499D01*
X1075988D01*
X1076987D01*
X1077987Y826499D01*
Y825500D01*
X1076987Y824500D01*
X1074988D01*
X1073988Y825500D01*
X1075500Y839498D02*
X1077499D01*
X1076500D01*
Y833500D01*
X1075500D01*
X1077499D01*
X1084497Y838498D02*
X1083497Y839498D01*
X1081498D01*
X1080498Y838498D01*
Y834500D01*
X1081498Y833500D01*
X1083497D01*
X1084497Y834500D01*
X1086496Y833500D02*
X1088496D01*
X1087496D01*
Y839498D01*
X1086496Y838498D01*
X950800Y800198D02*
X954799D01*
Y799198D01*
X950800Y795200D01*
Y794200D01*
X959797D02*
Y800198D01*
X956798Y797199D01*
X960797D01*
X962796Y800198D02*
Y794200D01*
Y797199D01*
X966795D01*
Y800198D01*
Y794200D01*
X972793Y799198D02*
X971793Y800198D01*
X969794D01*
X968794Y799198D01*
Y795200D01*
X969794Y794200D01*
X971793D01*
X972793Y795200D01*
X974792Y794200D02*
X976792D01*
X975792D01*
Y800198D01*
X974792Y799198D01*
X979791D02*
X980790Y800198D01*
X982790D01*
X983789Y799198D01*
Y798199D01*
X982790Y797199D01*
X981790D01*
X982790D01*
X983789Y796199D01*
Y795200D01*
X982790Y794200D01*
X980790D01*
X979791Y795200D01*
X985789Y799198D02*
X986788Y800198D01*
X988788D01*
X989787Y799198D01*
Y798199D01*
X988788Y797199D01*
X989787Y796199D01*
Y795200D01*
X988788Y794200D01*
X986788D01*
X985789Y795200D01*
Y796199D01*
X986788Y797199D01*
X985789Y798199D01*
Y799198D01*
X986788Y797199D02*
X988788D01*
X950500Y811898D02*
X952499D01*
X951500D01*
Y805900D01*
X950500D01*
X952499D01*
X959497Y810898D02*
X958497Y811898D01*
X956498D01*
X955498Y810898D01*
Y806900D01*
X956498Y805900D01*
X958497D01*
X959497Y806900D01*
X961496Y810898D02*
X962496Y811898D01*
X964495D01*
X965495Y810898D01*
Y809899D01*
X964495Y808899D01*
X963496D01*
X964495D01*
X965495Y807899D01*
Y806900D01*
X964495Y805900D01*
X962496D01*
X961496Y806900D01*
X833000Y770998D02*
X836999D01*
Y769998D01*
X833000Y766000D01*
Y765000D01*
X841997D02*
Y770998D01*
X838998Y767999D01*
X842997D01*
X844996Y770998D02*
Y765000D01*
Y767999D01*
X848995D01*
Y770998D01*
Y765000D01*
X854993Y769998D02*
X853993Y770998D01*
X851994D01*
X850994Y769998D01*
Y766000D01*
X851994Y765000D01*
X853993D01*
X854993Y766000D01*
X856992Y765000D02*
X858992D01*
X857992D01*
Y770998D01*
X856992Y769998D01*
X861991D02*
X862990Y770998D01*
X864990D01*
X865989Y769998D01*
Y768999D01*
X864990Y767999D01*
X863990D01*
X864990D01*
X865989Y766999D01*
Y766000D01*
X864990Y765000D01*
X862990D01*
X861991Y766000D01*
X867989Y769998D02*
X868988Y770998D01*
X870988D01*
X871987Y769998D01*
Y768999D01*
X870988Y767999D01*
X871987Y766999D01*
Y766000D01*
X870988Y765000D01*
X868988D01*
X867989Y766000D01*
Y766999D01*
X868988Y767999D01*
X867989Y768999D01*
Y769998D01*
X868988Y767999D02*
X870988D01*
X857500Y779498D02*
X859499D01*
X858500D01*
Y773500D01*
X857500D01*
X859499D01*
X866497Y778498D02*
X865497Y779498D01*
X863498D01*
X862498Y778498D01*
Y774500D01*
X863498Y773500D01*
X865497D01*
X866497Y774500D01*
X872495Y773500D02*
X868496D01*
X872495Y777499D01*
Y778498D01*
X871496Y779498D01*
X869496D01*
X868496Y778498D01*
X949600Y416598D02*
X953599D01*
Y415598D01*
X949600Y411600D01*
Y410600D01*
X958597D02*
Y416598D01*
X955598Y413599D01*
X959597D01*
X961596Y416598D02*
Y410600D01*
Y413599D01*
X965595D01*
Y416598D01*
Y410600D01*
X971593Y415598D02*
X970593Y416598D01*
X968594D01*
X967594Y415598D01*
Y411600D01*
X968594Y410600D01*
X970593D01*
X971593Y411600D01*
X973592Y416598D02*
Y411600D01*
X974592Y410600D01*
X976591D01*
X977591Y411600D01*
Y416598D01*
X979590Y415598D02*
X980590Y416598D01*
X982589D01*
X983589Y415598D01*
Y411600D01*
X982589Y410600D01*
X980590D01*
X979590Y411600D01*
Y415598D01*
X988587Y410600D02*
Y416598D01*
X985588Y413599D01*
X989587D01*
X960000Y499498D02*
X961999D01*
X961000D01*
Y493500D01*
X960000D01*
X961999D01*
X968997Y498498D02*
X967997Y499498D01*
X965998D01*
X964998Y498498D01*
Y494500D01*
X965998Y493500D01*
X967997D01*
X968997Y494500D01*
X970996Y493500D02*
X972996D01*
X971996D01*
Y499498D01*
X970996Y498498D01*
X975995D02*
X976995Y499498D01*
X978994D01*
X979994Y498498D01*
Y494500D01*
X978994Y493500D01*
X976995D01*
X975995Y494500D01*
Y498498D01*
X969999Y681998D02*
X967999Y680998D01*
X966000Y678999D01*
Y677000D01*
X967000Y676000D01*
X968999D01*
X969999Y677000D01*
Y677999D01*
X968999Y678999D01*
X966000D01*
X975997Y676000D02*
X971998D01*
X975997Y679999D01*
Y680998D01*
X974997Y681998D01*
X972998D01*
X971998Y680998D01*
X981995Y681998D02*
X979996Y680998D01*
X977996Y678999D01*
Y677000D01*
X978996Y676000D01*
X980995D01*
X981995Y677000D01*
Y677999D01*
X980995Y678999D01*
X977996D01*
X986993Y676000D02*
Y681998D01*
X983994Y678999D01*
X987993D01*
X963000Y690998D02*
X964999D01*
X964000D01*
Y685000D01*
X963000D01*
X964999D01*
X971997Y689998D02*
X970997Y690998D01*
X968998D01*
X967998Y689998D01*
Y686000D01*
X968998Y685000D01*
X970997D01*
X971997Y686000D01*
X973996Y690998D02*
X977995D01*
Y689998D01*
X973996Y686000D01*
Y685000D01*
X845999Y678000D02*
X842000D01*
X845999Y681999D01*
Y682998D01*
X844999Y683998D01*
X843000D01*
X842000Y682998D01*
X847998Y683998D02*
X851997D01*
Y682998D01*
X847998Y679000D01*
Y678000D01*
X857995Y682998D02*
X856995Y683998D01*
X854996D01*
X853996Y682998D01*
Y679000D01*
X854996Y678000D01*
X856995D01*
X857995Y679000D01*
X863993Y683998D02*
X861994Y682998D01*
X859994Y680999D01*
Y679000D01*
X860994Y678000D01*
X862993D01*
X863993Y679000D01*
Y679999D01*
X862993Y680999D01*
X859994D01*
X868991Y678000D02*
Y683998D01*
X865992Y680999D01*
X869991D01*
X842500Y692998D02*
X844499D01*
X843500D01*
Y687000D01*
X842500D01*
X844499D01*
X851497Y691998D02*
X850497Y692998D01*
X848498D01*
X847498Y691998D01*
Y688000D01*
X848498Y687000D01*
X850497D01*
X851497Y688000D01*
X857495Y692998D02*
X855496Y691998D01*
X853496Y689999D01*
Y688000D01*
X854496Y687000D01*
X856495D01*
X857495Y688000D01*
Y688999D01*
X856495Y689999D01*
X853496D01*
X699000Y692498D02*
X702999D01*
Y691498D01*
X699000Y687500D01*
Y686500D01*
X702999D01*
X704998Y691498D02*
X705998Y692498D01*
X707997D01*
X708997Y691498D01*
Y690499D01*
X707997Y689499D01*
X708997Y688499D01*
Y687500D01*
X707997Y686500D01*
X705998D01*
X704998Y687500D01*
Y688499D01*
X705998Y689499D01*
X704998Y690499D01*
Y691498D01*
X705998Y689499D02*
X707997D01*
X710996Y691498D02*
X711996Y692498D01*
X713995D01*
X714995Y691498D01*
Y687500D01*
X713995Y686500D01*
X711996D01*
X710996Y687500D01*
Y691498D01*
X720993D02*
X719993Y692498D01*
X717994D01*
X716994Y691498D01*
Y687500D01*
X717994Y686500D01*
X719993D01*
X720993Y687500D01*
X722992Y686500D02*
Y692498D01*
X725991D01*
X726991Y691498D01*
Y689499D01*
X725991Y688499D01*
X722992D01*
X728990Y692498D02*
Y687500D01*
X729990Y686500D01*
X731989D01*
X732989Y687500D01*
Y692498D01*
X709500Y701998D02*
X711499D01*
X710500D01*
Y696000D01*
X709500D01*
X711499D01*
X718497Y700998D02*
X717497Y701998D01*
X715498D01*
X714498Y700998D01*
Y697000D01*
X715498Y696000D01*
X717497D01*
X718497Y697000D01*
X724495Y701998D02*
X720496D01*
Y698999D01*
X722496Y699999D01*
X723495D01*
X724495Y698999D01*
Y697000D01*
X723495Y696000D01*
X721496D01*
X720496Y697000D01*
X885500Y678500D02*
X887499D01*
X886500D01*
Y684498D01*
X885500Y683498D01*
X890498D02*
X891498Y684498D01*
X893497D01*
X894497Y683498D01*
Y679500D01*
X893497Y678500D01*
X891498D01*
X890498Y679500D01*
Y683498D01*
X896496D02*
X897496Y684498D01*
X899496D01*
X900495Y683498D01*
Y679500D01*
X899496Y678500D01*
X897496D01*
X896496Y679500D01*
Y683498D01*
X902495Y678500D02*
Y682499D01*
X905494D01*
X906493Y681499D01*
Y678500D01*
X896499Y691998D02*
X895499Y692998D01*
X893500D01*
X892500Y691998D01*
Y688000D01*
X893500Y687000D01*
X895499D01*
X896499Y688000D01*
X898498Y692998D02*
X902497D01*
Y691998D01*
X898498Y688000D01*
Y687000D01*
X873500Y869498D02*
Y863500D01*
X877499D01*
X883497Y869498D02*
X879498D01*
Y863500D01*
X883497D01*
X879498Y866499D02*
X881497D01*
X885496Y869498D02*
Y863500D01*
X888495D01*
X889495Y864500D01*
Y868498D01*
X888495Y869498D01*
X885496D01*
X891494Y863500D02*
X893493D01*
X892494D01*
Y869498D01*
X891494Y868498D01*
X1087000Y394500D02*
X1088999D01*
X1088000D01*
Y400498D01*
X1087000Y399498D01*
X1091998D02*
X1092998Y400498D01*
X1094997D01*
X1095997Y399498D01*
Y395500D01*
X1094997Y394500D01*
X1092998D01*
X1091998Y395500D01*
Y399498D01*
X1097996D02*
X1098996Y400498D01*
X1100996D01*
X1101995Y399498D01*
Y395500D01*
X1100996Y394500D01*
X1098996D01*
X1097996Y395500D01*
Y399498D01*
X1103994Y394500D02*
Y398499D01*
X1106993D01*
X1107993Y397499D01*
Y394500D01*
X1090499Y443998D02*
X1089499Y444998D01*
X1087500D01*
X1086500Y443998D01*
Y440000D01*
X1087500Y439000D01*
X1089499D01*
X1090499Y440000D01*
X1092498Y439000D02*
X1094497D01*
X1093498D01*
Y444998D01*
X1092498Y443998D01*
X1097496D02*
X1098496Y444998D01*
X1100496D01*
X1101495Y443998D01*
Y440000D01*
X1100496Y439000D01*
X1098496D01*
X1097496Y440000D01*
Y443998D01*
X1430000Y708498D02*
Y702500D01*
X1432999D01*
X1433999Y703500D01*
Y704499D01*
X1432999Y705499D01*
X1430000D01*
X1432999D01*
X1433999Y706499D01*
Y707498D01*
X1432999Y708498D01*
X1430000D01*
X1439997Y707498D02*
X1438997Y708498D01*
X1436998D01*
X1435998Y707498D01*
Y703500D01*
X1436998Y702500D01*
X1438997D01*
X1439997Y703500D01*
X1445995Y708498D02*
X1441996D01*
Y705499D01*
X1443995Y706499D01*
X1444995D01*
X1445995Y705499D01*
Y703500D01*
X1444995Y702500D01*
X1442996D01*
X1441996Y703500D01*
X1450993Y702500D02*
Y708498D01*
X1447994Y705499D01*
X1451993D01*
X1453992Y708498D02*
X1457991D01*
Y707498D01*
X1453992Y703500D01*
Y702500D01*
X1438500Y717498D02*
X1442499D01*
X1440499D01*
Y711500D01*
X1444498Y717498D02*
X1448497D01*
Y716498D01*
X1444498Y712500D01*
Y711500D01*
X1003499Y835998D02*
X1002499Y836998D01*
X1000500D01*
X999500Y835998D01*
Y832000D01*
X1000500Y831000D01*
X1002499D01*
X1003499Y832000D01*
X1005498Y831000D02*
Y836998D01*
X1009497Y831000D01*
Y836998D01*
X1011496Y831000D02*
X1013496D01*
X1012496D01*
Y836998D01*
X1011496Y835998D01*
X1423000Y637500D02*
X1424999D01*
X1424000D01*
Y643498D01*
X1423000Y642498D01*
X1427998D02*
X1428998Y643498D01*
X1430997D01*
X1431997Y642498D01*
Y638500D01*
X1430997Y637500D01*
X1428998D01*
X1427998Y638500D01*
Y642498D01*
X1433996D02*
X1434996Y643498D01*
X1436996D01*
X1437995Y642498D01*
Y638500D01*
X1436996Y637500D01*
X1434996D01*
X1433996Y638500D01*
Y642498D01*
X1439995Y643498D02*
Y637500D01*
Y639499D01*
X1443993Y643498D01*
X1440994Y640499D01*
X1443993Y637500D01*
X1498000D02*
Y643498D01*
X1500999D01*
X1501999Y642498D01*
Y640499D01*
X1500999Y639499D01*
X1498000D01*
X1499999D02*
X1501999Y637500D01*
X1507997D02*
X1503998D01*
X1507997Y641499D01*
Y642498D01*
X1506997Y643498D01*
X1504998D01*
X1503998Y642498D01*
X1509996Y637500D02*
X1511996D01*
X1510996D01*
Y643498D01*
X1509996Y642498D01*
X692000Y794000D02*
X693999D01*
X693000D01*
Y799998D01*
X692000Y798998D01*
X696998D02*
X697998Y799998D01*
X699997D01*
X700997Y798998D01*
Y795000D01*
X699997Y794000D01*
X697998D01*
X696998Y795000D01*
Y798998D01*
X702996D02*
X703996Y799998D01*
X705996D01*
X706995Y798998D01*
Y795000D01*
X705996Y794000D01*
X703996D01*
X702996Y795000D01*
Y798998D01*
X708994D02*
X709994Y799998D01*
X711994D01*
X712993Y798998D01*
Y795000D01*
X711994Y794000D01*
X709994D01*
X708994Y795000D01*
Y798998D01*
X714993Y797999D02*
Y795000D01*
X715992Y794000D01*
X718991D01*
Y797999D01*
X724989Y799998D02*
X720991D01*
Y796999D01*
X722990D01*
X720991D01*
Y794000D01*
X679599Y799298D02*
X678599Y800298D01*
X676600D01*
X675600Y799298D01*
Y795300D01*
X676600Y794300D01*
X678599D01*
X679599Y795300D01*
X681598Y799298D02*
X682598Y800298D01*
X684597D01*
X685597Y799298D01*
Y798299D01*
X684597Y797299D01*
X683597D01*
X684597D01*
X685597Y796299D01*
Y795300D01*
X684597Y794300D01*
X682598D01*
X681598Y795300D01*
X1219000Y874000D02*
X1220999D01*
X1220000D01*
Y879998D01*
X1219000Y878998D01*
X1223998D02*
X1224998Y879998D01*
X1226997D01*
X1227997Y878998D01*
Y875000D01*
X1226997Y874000D01*
X1224998D01*
X1223998Y875000D01*
Y878998D01*
X1229996D02*
X1230996Y879998D01*
X1232996D01*
X1233995Y878998D01*
Y875000D01*
X1232996Y874000D01*
X1230996D01*
X1229996Y875000D01*
Y878998D01*
X1235995Y874000D02*
Y879998D01*
X1238993D01*
X1239993Y878998D01*
Y876999D01*
X1238993Y875999D01*
X1235995D01*
X1237994D02*
X1239993Y874000D01*
X1196999Y878998D02*
X1195999Y879998D01*
X1194000D01*
X1193000Y878998D01*
Y877999D01*
X1194000Y876999D01*
X1195999D01*
X1196999Y875999D01*
Y875000D01*
X1195999Y874000D01*
X1194000D01*
X1193000Y875000D01*
X1198998Y879998D02*
X1200997D01*
X1199998D01*
Y874000D01*
X1198998D01*
X1200997D01*
X1203996Y879998D02*
Y874000D01*
X1207995D01*
X1209995D02*
X1211994D01*
X1210994D01*
Y879998D01*
X1209995Y878998D01*
X1177500Y699000D02*
X1179499D01*
X1178500D01*
Y704998D01*
X1177500Y703998D01*
X1182498D02*
X1183498Y704998D01*
X1185497D01*
X1186497Y703998D01*
Y700000D01*
X1185497Y699000D01*
X1183498D01*
X1182498Y700000D01*
Y703998D01*
X1188496D02*
X1189496Y704998D01*
X1191496D01*
X1192495Y703998D01*
Y700000D01*
X1191496Y699000D01*
X1189496D01*
X1188496Y700000D01*
Y703998D01*
X1194495Y699000D02*
Y704998D01*
X1197493D01*
X1198493Y703998D01*
Y701999D01*
X1197493Y700999D01*
X1194495D01*
X1196494D02*
X1198493Y699000D01*
X1180999Y713498D02*
X1179999Y714498D01*
X1178000D01*
X1177000Y713498D01*
Y712499D01*
X1178000Y711499D01*
X1179999D01*
X1180999Y710499D01*
Y709500D01*
X1179999Y708500D01*
X1178000D01*
X1177000Y709500D01*
X1182998Y714498D02*
X1184997D01*
X1183998D01*
Y708500D01*
X1182998D01*
X1184997D01*
X1187996Y714498D02*
Y708500D01*
X1191995D01*
X1197993D02*
X1193995D01*
X1197993Y712499D01*
Y713498D01*
X1196994Y714498D01*
X1194994D01*
X1193995Y713498D01*
X1050999Y471000D02*
X1047000D01*
X1050999Y474999D01*
Y475998D01*
X1049999Y476998D01*
X1048000D01*
X1047000Y475998D01*
X1052998D02*
X1053998Y476998D01*
X1055997D01*
X1056997Y475998D01*
Y472000D01*
X1055997Y471000D01*
X1053998D01*
X1052998Y472000D01*
Y475998D01*
X1058996Y476998D02*
Y471000D01*
Y472999D01*
X1062995Y476998D01*
X1059996Y473999D01*
X1062995Y471000D01*
X1033000D02*
Y476998D01*
X1035999D01*
X1036999Y475998D01*
Y473999D01*
X1035999Y472999D01*
X1033000D01*
X1038998Y471000D02*
X1040997D01*
X1039998D01*
Y476998D01*
X1038998Y475998D01*
X940999Y880498D02*
X939999Y881498D01*
X938000D01*
X937000Y880498D01*
Y876500D01*
X938000Y875500D01*
X939999D01*
X940999Y876500D01*
X942998Y875500D02*
Y881498D01*
X946997Y875500D01*
Y881498D01*
X952995D02*
X950996Y880498D01*
X948996Y878499D01*
Y876500D01*
X949996Y875500D01*
X951995D01*
X952995Y876500D01*
Y877499D01*
X951995Y878499D01*
X948996D01*
X896499Y417498D02*
X895499Y418498D01*
X893500D01*
X892500Y417498D01*
Y416499D01*
X893500Y415499D01*
X895499D01*
X896499Y414499D01*
Y413500D01*
X895499Y412500D01*
X893500D01*
X892500Y413500D01*
X898498Y418498D02*
Y412500D01*
X900497Y414499D01*
X902497Y412500D01*
Y418498D01*
X904496Y412500D02*
X906495D01*
X905496D01*
Y418498D01*
X904496Y417498D01*
X1556499Y620998D02*
X1555499Y621998D01*
X1553500D01*
X1552500Y620998D01*
Y617000D01*
X1553500Y616000D01*
X1555499D01*
X1556499Y617000D01*
X1558498Y616000D02*
Y621998D01*
X1562497Y616000D01*
Y621998D01*
X1567495Y616000D02*
Y621998D01*
X1564496Y618999D01*
X1568495D01*
X727500Y777998D02*
Y772000D01*
X730499D01*
X731499Y773000D01*
Y776998D01*
X730499Y777998D01*
X727500D01*
X733498Y772000D02*
X735497D01*
X734498D01*
Y777998D01*
X733498Y776998D01*
X727500Y752498D02*
Y746500D01*
X730499D01*
X731499Y747500D01*
Y751498D01*
X730499Y752498D01*
X727500D01*
X737497Y746500D02*
X733498D01*
X737497Y750499D01*
Y751498D01*
X736497Y752498D01*
X734498D01*
X733498Y751498D01*
X727500Y765998D02*
Y760000D01*
X730499D01*
X731499Y761000D01*
Y764998D01*
X730499Y765998D01*
X727500D01*
X733498Y764998D02*
X734498Y765998D01*
X736497D01*
X737497Y764998D01*
Y763999D01*
X736497Y762999D01*
X735497D01*
X736497D01*
X737497Y761999D01*
Y761000D01*
X736497Y760000D01*
X734498D01*
X733498Y761000D01*
X684500Y721500D02*
X686499D01*
X685500D01*
Y727498D01*
X684500Y726498D01*
X689498Y721500D02*
Y727498D01*
X693497Y721500D01*
Y727498D01*
X698495Y721500D02*
Y727498D01*
X695496Y724499D01*
X699495D01*
X701495Y726498D02*
X702494Y727498D01*
X704494D01*
X705493Y726498D01*
Y722500D01*
X704494Y721500D01*
X702494D01*
X701495Y722500D01*
Y726498D01*
X707493D02*
X708492Y727498D01*
X710492D01*
X711491Y726498D01*
Y722500D01*
X710492Y721500D01*
X708492D01*
X707493Y722500D01*
Y726498D01*
X716490Y721500D02*
Y727498D01*
X713491Y724499D01*
X717489D01*
X727500Y740498D02*
Y734500D01*
X730499D01*
X731499Y735500D01*
Y739498D01*
X730499Y740498D01*
X727500D01*
X736497Y734500D02*
Y740498D01*
X733498Y737499D01*
X737497D01*
X1094700Y734398D02*
Y728400D01*
X1097699D01*
X1098699Y729400D01*
Y733398D01*
X1097699Y734398D01*
X1094700D01*
X1100698D02*
X1104697D01*
Y733398D01*
X1100698Y729400D01*
Y728400D01*
X1079400Y734398D02*
Y728400D01*
X1082399D01*
X1083399Y729400D01*
Y733398D01*
X1082399Y734398D01*
X1079400D01*
X1089397D02*
X1087397Y733398D01*
X1085398Y731399D01*
Y729400D01*
X1086398Y728400D01*
X1088397D01*
X1089397Y729400D01*
Y730399D01*
X1088397Y731399D01*
X1085398D01*
X1064300Y734498D02*
Y728500D01*
X1067299D01*
X1068299Y729500D01*
Y733498D01*
X1067299Y734498D01*
X1064300D01*
X1074297D02*
X1070298D01*
Y731499D01*
X1072297Y732499D01*
X1073297D01*
X1074297Y731499D01*
Y729500D01*
X1073297Y728500D01*
X1071298D01*
X1070298Y729500D01*
X1049400Y734598D02*
Y728600D01*
X1052399D01*
X1053399Y729600D01*
Y733598D01*
X1052399Y734598D01*
X1049400D01*
X1058397Y728600D02*
Y734598D01*
X1055398Y731599D01*
X1059397D01*
X1042000Y759298D02*
Y753300D01*
X1044999D01*
X1045999Y754300D01*
Y758298D01*
X1044999Y759298D01*
X1042000D01*
X1047998Y758298D02*
X1048998Y759298D01*
X1050997D01*
X1051997Y758298D01*
Y757299D01*
X1050997Y756299D01*
X1049997D01*
X1050997D01*
X1051997Y755299D01*
Y754300D01*
X1050997Y753300D01*
X1048998D01*
X1047998Y754300D01*
X1057100Y759198D02*
Y753200D01*
X1060099D01*
X1061099Y754200D01*
Y758198D01*
X1060099Y759198D01*
X1057100D01*
X1067097Y753200D02*
X1063098D01*
X1067097Y757199D01*
Y758198D01*
X1066097Y759198D01*
X1064098D01*
X1063098Y758198D01*
X1072500Y758898D02*
Y752900D01*
X1075499D01*
X1076499Y753900D01*
Y757898D01*
X1075499Y758898D01*
X1072500D01*
X1078498Y752900D02*
X1080497D01*
X1079498D01*
Y758898D01*
X1078498Y757898D01*
X1086700Y758998D02*
Y753000D01*
X1089699D01*
X1090699Y754000D01*
Y757998D01*
X1089699Y758998D01*
X1086700D01*
X1092698Y757998D02*
X1093698Y758998D01*
X1095697D01*
X1096697Y757998D01*
Y754000D01*
X1095697Y753000D01*
X1093698D01*
X1092698Y754000D01*
Y757998D01*
X711999Y829500D02*
Y825501D01*
X713998Y827501D02*
X710000D01*
X721999Y829500D02*
Y825501D01*
X723998Y827501D02*
X720000D01*
X906300Y884998D02*
Y880000D01*
Y881666D01*
X909632Y884998D01*
X907133Y882499D01*
X909632Y880000D01*
X1386498Y682500D02*
Y675836D01*
Y657500D02*
Y650836D01*
X1389831Y654168D02*
X1383166D01*
X661499Y732200D02*
Y728201D01*
X663498Y730201D02*
X659500D01*
X1158700Y862001D02*
X1154701D01*
X1156701Y860002D02*
Y864000D01*
X1116499Y442200D02*
Y438201D01*
X1118498Y440201D02*
X1114500D01*
X1229300Y494999D02*
X1233299D01*
X1231299Y496998D02*
Y493000D01*
X975501Y811300D02*
Y815299D01*
X973502Y813299D02*
X977500D01*
X771002Y501000D02*
X777000D01*
X774001D01*
Y504999D01*
X771002D01*
X777000D01*
Y506998D02*
X773001D01*
X771002Y508997D01*
X773001Y510997D01*
X777000D01*
X774001D01*
Y506998D01*
X771002Y512996D02*
X777000D01*
Y516995D01*
X771002Y518994D02*
Y522993D01*
Y520994D01*
X777000D01*
X783502Y501000D02*
X789500D01*
X787501Y502999D01*
X789500Y504999D01*
X783502D01*
X789500Y506998D02*
X785501D01*
X783502Y508997D01*
X785501Y510997D01*
X789500D01*
X786501D01*
Y506998D01*
X783502Y512996D02*
Y514995D01*
Y513996D01*
X789500D01*
Y512996D01*
Y514995D01*
X783502Y517994D02*
Y521993D01*
Y519994D01*
X789500D01*
X801500Y501500D02*
X795502D01*
X801500Y505499D01*
X795502D01*
X801500Y507498D02*
X795502D01*
X797501Y509497D01*
X795502Y511497D01*
X801500D01*
X795502Y513496D02*
Y515495D01*
Y514496D01*
X801500D01*
Y513496D01*
Y515495D01*
X808502Y501000D02*
X813500D01*
Y503499D01*
X812667Y504332D01*
X811834D01*
X811001Y503499D01*
Y501000D01*
Y503499D01*
X810168Y504332D01*
X809335D01*
X808502Y503499D01*
Y501000D01*
Y505998D02*
X812667D01*
X813500Y506831D01*
Y508498D01*
X812667Y509331D01*
X808502D01*
X809335Y514329D02*
X808502Y513496D01*
Y511830D01*
X809335Y510997D01*
X810168D01*
X811001Y511830D01*
Y513496D01*
X811834Y514329D01*
X812667D01*
X813500Y513496D01*
Y511830D01*
X812667Y510997D01*
X813500Y515995D02*
X808502D01*
Y518494D01*
X809335Y519327D01*
X811001D01*
X811834Y518494D01*
Y515995D01*
Y517661D02*
X813500Y519327D01*
X808502Y524326D02*
Y520994D01*
X813500D01*
Y524326D01*
X811001Y520994D02*
Y522660D01*
X812667Y529324D02*
X809335D01*
X808502Y528491D01*
Y526825D01*
X809335Y525992D01*
X812667D01*
X813500Y526825D01*
Y528491D01*
X811834Y527658D02*
X813500Y529324D01*
Y528491D02*
X812667Y529324D01*
X821002Y501500D02*
Y503499D01*
Y502500D01*
X827000D01*
Y501500D01*
Y503499D01*
Y506498D02*
X821002D01*
X827000Y510497D01*
X821002D01*
Y512496D02*
Y516495D01*
Y514496D01*
X827000D01*
X1271500Y428999D02*
X1276832D01*
X1273000Y476499D02*
X1278332D01*
X1275666Y479165D02*
Y473833D01*
X1273832Y578997D02*
X1268500D01*
Y574999D01*
X1271166D01*
X1268500D01*
Y571000D01*
X1276497D02*
Y576332D01*
X1280496D01*
X1281829Y574999D01*
Y571000D01*
X1266000Y520500D02*
Y525832D01*
X1268666Y528497D01*
X1271332Y525832D01*
Y520500D01*
Y524499D01*
X1266000D01*
X1273997Y528497D02*
Y520500D01*
X1277996D01*
X1279329Y521833D01*
Y527165D01*
X1277996Y528497D01*
X1273997D01*
X1479332Y432997D02*
X1474000D01*
Y428999D01*
X1476666D01*
X1474000D01*
Y425000D01*
X1429332Y433497D02*
X1424000D01*
Y425500D01*
X1429332D01*
X1424000Y429499D02*
X1426666D01*
X1373500Y432997D02*
Y425000D01*
X1377499D01*
X1378832Y426333D01*
Y431665D01*
X1377499Y432997D01*
X1373500D01*
X1329332Y431665D02*
X1327999Y432997D01*
X1325333D01*
X1324000Y431665D01*
Y426333D01*
X1325333Y425000D01*
X1327999D01*
X1329332Y426333D01*
X1475500Y480497D02*
Y472500D01*
X1479499D01*
X1480832Y473833D01*
Y475166D01*
X1479499Y476499D01*
X1475500D01*
X1479499D01*
X1480832Y477832D01*
Y479165D01*
X1479499Y480497D01*
X1475500D01*
X1425000Y471000D02*
Y476332D01*
X1427666Y478997D01*
X1430332Y476332D01*
Y471000D01*
Y474999D01*
X1425000D01*
X1375000Y470833D02*
X1376333Y469500D01*
X1378999D01*
X1380332Y470833D01*
Y476164D01*
X1378999Y477497D01*
X1376333D01*
X1375000Y476164D01*
Y474832D01*
X1376333Y473499D01*
X1380332D01*
X1324500Y476664D02*
X1325833Y477997D01*
X1328499D01*
X1329832Y476664D01*
Y475332D01*
X1328499Y473999D01*
X1329832Y472666D01*
Y471333D01*
X1328499Y470000D01*
X1325833D01*
X1324500Y471333D01*
Y472666D01*
X1325833Y473999D01*
X1324500Y475332D01*
Y476664D01*
X1325833Y473999D02*
X1328499D01*
X1474500Y530497D02*
X1479832D01*
Y529165D01*
X1474500Y523833D01*
Y522500D01*
X1427832Y530497D02*
X1425166Y529165D01*
X1422500Y526499D01*
Y523833D01*
X1423833Y522500D01*
X1426499D01*
X1427832Y523833D01*
Y525166D01*
X1426499Y526499D01*
X1422500D01*
X1378832Y530497D02*
X1373500D01*
Y526499D01*
X1376166Y527832D01*
X1377499D01*
X1378832Y526499D01*
Y523833D01*
X1377499Y522500D01*
X1374833D01*
X1373500Y523833D01*
X1328999Y523000D02*
Y530997D01*
X1325000Y526999D01*
X1330332D01*
X621000Y730498D02*
X623166D01*
X622083D01*
Y724000D01*
X621000D01*
X623166D01*
X626415D02*
Y730498D01*
X630747Y724000D01*
Y730498D01*
X632913Y724000D02*
Y730498D01*
X636162D01*
X637245Y729415D01*
Y727249D01*
X636162Y726166D01*
X632913D01*
X639411Y730498D02*
Y725083D01*
X640494Y724000D01*
X642660D01*
X643743Y725083D01*
Y730498D01*
X645909D02*
X650241D01*
X648075D01*
Y724000D01*
X626499Y794498D02*
X625499Y795498D01*
X623500D01*
X622500Y794498D01*
Y790500D01*
X623500Y789500D01*
X625499D01*
X626499Y790500D01*
X628498Y789500D02*
Y795498D01*
X632497Y789500D01*
Y795498D01*
X638495Y789500D02*
X634496D01*
X638495Y793499D01*
Y794498D01*
X637495Y795498D01*
X635496D01*
X634496Y794498D01*
X628499Y446498D02*
X624500D01*
Y440500D01*
X628499D01*
X624500Y443499D02*
X626499D01*
X630498Y446498D02*
X634497Y440500D01*
Y446498D02*
X630498Y440500D01*
X636496D02*
Y446498D01*
X639495D01*
X640495Y445498D01*
Y443499D01*
X639495Y442499D01*
X636496D01*
X642494Y440500D02*
Y444499D01*
X644493Y446498D01*
X646493Y444499D01*
Y440500D01*
Y443499D01*
X642494D01*
X648492Y440500D02*
Y446498D01*
X652491Y440500D01*
Y446498D01*
X658489Y445498D02*
X657489Y446498D01*
X655490D01*
X654490Y445498D01*
Y444499D01*
X655490Y443499D01*
X657489D01*
X658489Y442499D01*
Y441500D01*
X657489Y440500D01*
X655490D01*
X654490Y441500D01*
X660488Y446498D02*
X662488D01*
X661488D01*
Y440500D01*
X660488D01*
X662488D01*
X668486Y446498D02*
X666486D01*
X665487Y445498D01*
Y441500D01*
X666486Y440500D01*
X668486D01*
X669486Y441500D01*
Y445498D01*
X668486Y446498D01*
X671485Y440500D02*
Y446498D01*
X675484Y440500D01*
Y446498D01*
X1382500Y638499D02*
X1386499D01*
X1384499Y640498D02*
Y636500D01*
X618000Y812749D02*
X622332D01*
X1518000Y657998D02*
X1521999D01*
X1519999D01*
Y652000D01*
X1523998Y657998D02*
X1527997Y652000D01*
Y657998D02*
X1523998Y652000D01*
X1532995Y657998D02*
X1530996D01*
X1529996Y656998D01*
Y653000D01*
X1530996Y652000D01*
X1532995D01*
X1533995Y653000D01*
Y656998D01*
X1532995Y657998D01*
X1518000Y662000D02*
Y667998D01*
X1520999D01*
X1521999Y666998D01*
Y664999D01*
X1520999Y663999D01*
X1518000D01*
X1523998Y667998D02*
Y662000D01*
X1525997Y663999D01*
X1527997Y662000D01*
Y667998D01*
X1529996Y662000D02*
Y667998D01*
X1532995D01*
X1533995Y666998D01*
Y664999D01*
X1532995Y663999D01*
X1529996D01*
X1531995D02*
X1533995Y662000D01*
X1518000Y642000D02*
Y647998D01*
X1520999D01*
X1521999Y646998D01*
Y644999D01*
X1520999Y643999D01*
X1518000D01*
X1519999D02*
X1521999Y642000D01*
X1523998Y647998D02*
X1527997Y642000D01*
Y647998D02*
X1523998Y642000D01*
X1529996Y647998D02*
X1531995D01*
X1530996D01*
Y642000D01*
X1529996D01*
X1531995D01*
X1521999Y676998D02*
X1520999Y677998D01*
X1519000D01*
X1518000Y676998D01*
Y673000D01*
X1519000Y672000D01*
X1520999D01*
X1521999Y673000D01*
X1523998Y677998D02*
X1527997D01*
X1525997D01*
Y672000D01*
X1533995Y676998D02*
X1532995Y677998D01*
X1530996D01*
X1529996Y676998D01*
Y675999D01*
X1530996Y674999D01*
X1532995D01*
X1533995Y673999D01*
Y673000D01*
X1532995Y672000D01*
X1530996D01*
X1529996Y673000D01*
X1104500Y853915D02*
X1105583Y854998D01*
X1107749D01*
X1108832Y853915D01*
Y852832D01*
X1107749Y851749D01*
X1108832Y850666D01*
Y849583D01*
X1107749Y848500D01*
X1105583D01*
X1104500Y849583D01*
Y850666D01*
X1105583Y851749D01*
X1104500Y852832D01*
Y853915D01*
X1105583Y851749D02*
X1107749D01*
X1114247Y848500D02*
Y854998D01*
X1110998Y851749D01*
X1115330D01*
X1117496Y854998D02*
Y848500D01*
Y851749D01*
X1118579Y852832D01*
X1120745D01*
X1121828Y851749D01*
Y848500D01*
X1093500Y723415D02*
X1094583Y724498D01*
X1096749D01*
X1097832Y723415D01*
Y722332D01*
X1096749Y721249D01*
X1097832Y720166D01*
Y719083D01*
X1096749Y718000D01*
X1094583D01*
X1093500Y719083D01*
Y720166D01*
X1094583Y721249D01*
X1093500Y722332D01*
Y723415D01*
X1094583Y721249D02*
X1096749D01*
X1104330Y724498D02*
X1099998D01*
Y721249D01*
X1102164Y722332D01*
X1103247D01*
X1104330Y721249D01*
Y719083D01*
X1103247Y718000D01*
X1101081D01*
X1099998Y719083D01*
X1106496Y724498D02*
Y718000D01*
Y721249D01*
X1107579Y722332D01*
X1109745D01*
X1110828Y721249D01*
Y718000D01*
X1087500Y571915D02*
X1088583Y572998D01*
X1090749D01*
X1091832Y571915D01*
Y570832D01*
X1090749Y569749D01*
X1091832Y568666D01*
Y567583D01*
X1090749Y566500D01*
X1088583D01*
X1087500Y567583D01*
Y568666D01*
X1088583Y569749D01*
X1087500Y570832D01*
Y571915D01*
X1088583Y569749D02*
X1090749D01*
X1098330Y572998D02*
X1096164Y571915D01*
X1093998Y569749D01*
Y567583D01*
X1095081Y566500D01*
X1097247D01*
X1098330Y567583D01*
Y568666D01*
X1097247Y569749D01*
X1093998D01*
X1100496Y572998D02*
Y566500D01*
Y569749D01*
X1101579Y570832D01*
X1103745D01*
X1104828Y569749D01*
Y566500D01*
X1251000Y719498D02*
Y713000D01*
X1254249D01*
X1255332Y714083D01*
Y715166D01*
X1254249Y716249D01*
X1251000D01*
X1254249D01*
X1255332Y717332D01*
Y718415D01*
X1254249Y719498D01*
X1251000D01*
X1261830D02*
X1257498D01*
Y716249D01*
X1259664Y717332D01*
X1260747D01*
X1261830Y716249D01*
Y714083D01*
X1260747Y713000D01*
X1258581D01*
X1257498Y714083D01*
X1310500Y719498D02*
Y713000D01*
X1313749D01*
X1314832Y714083D01*
Y715166D01*
X1313749Y716249D01*
X1310500D01*
X1313749D01*
X1314832Y717332D01*
Y718415D01*
X1313749Y719498D01*
X1310500D01*
X1320247Y713000D02*
Y719498D01*
X1316998Y716249D01*
X1321330D01*
X1370000Y720998D02*
Y714500D01*
X1373249D01*
X1374332Y715583D01*
Y716666D01*
X1373249Y717749D01*
X1370000D01*
X1373249D01*
X1374332Y718832D01*
Y719915D01*
X1373249Y720998D01*
X1370000D01*
X1376498Y719915D02*
X1377581Y720998D01*
X1379747D01*
X1380830Y719915D01*
Y718832D01*
X1379747Y717749D01*
X1378664D01*
X1379747D01*
X1380830Y716666D01*
Y715583D01*
X1379747Y714500D01*
X1377581D01*
X1376498Y715583D01*
X1429500Y729998D02*
Y723500D01*
X1432749D01*
X1433832Y724583D01*
Y725666D01*
X1432749Y726749D01*
X1429500D01*
X1432749D01*
X1433832Y727832D01*
Y728915D01*
X1432749Y729998D01*
X1429500D01*
X1440330Y723500D02*
X1435998D01*
X1440330Y727832D01*
Y728915D01*
X1439247Y729998D01*
X1437081D01*
X1435998Y728915D01*
X1560500Y727998D02*
Y721500D01*
X1563749D01*
X1564832Y722583D01*
Y723666D01*
X1563749Y724749D01*
X1560500D01*
X1563749D01*
X1564832Y725832D01*
Y726915D01*
X1563749Y727998D01*
X1560500D01*
X1566998Y726915D02*
X1568081Y727998D01*
X1570247D01*
X1571330Y726915D01*
Y722583D01*
X1570247Y721500D01*
X1568081D01*
X1566998Y722583D01*
Y726915D01*
X1500000Y726498D02*
Y720000D01*
X1503249D01*
X1504332Y721083D01*
Y722166D01*
X1503249Y723249D01*
X1500000D01*
X1503249D01*
X1504332Y724332D01*
Y725415D01*
X1503249Y726498D01*
X1500000D01*
X1506498Y720000D02*
X1508664D01*
X1507581D01*
Y726498D01*
X1506498Y725415D01*
X620500Y734000D02*
Y738332D01*
X622666Y740498D01*
X624832Y738332D01*
Y734000D01*
Y737249D01*
X620500D01*
X631330Y739415D02*
X630247Y740498D01*
X628081D01*
X626998Y739415D01*
Y735083D01*
X628081Y734000D01*
X630247D01*
X631330Y735083D01*
X633496Y734000D02*
X637828Y738332D01*
X639994Y740498D02*
Y734000D01*
X643243D01*
X644326Y735083D01*
Y739415D01*
X643243Y740498D01*
X639994D01*
X650823Y739415D02*
X649741Y740498D01*
X647575D01*
X646492Y739415D01*
Y735083D01*
X647575Y734000D01*
X649741D01*
X650823Y735083D01*
X1441500Y866498D02*
Y860000D01*
X1444749D01*
X1445832Y861083D01*
Y865415D01*
X1444749Y866498D01*
X1441500D01*
X1447998D02*
X1452330D01*
Y865415D01*
X1447998Y861083D01*
Y860000D01*
X1454496Y863249D02*
X1458828D01*
X1460994Y866498D02*
Y860000D01*
X1464243D01*
X1465326Y861083D01*
Y865415D01*
X1464243Y866498D01*
X1460994D01*
X1470741Y860000D02*
Y866498D01*
X1467492Y863249D01*
X1471824D01*
X1499000Y866498D02*
Y860000D01*
X1502249D01*
X1503332Y861083D01*
Y865415D01*
X1502249Y866498D01*
X1499000D01*
X1505498Y865415D02*
X1506581Y866498D01*
X1508747D01*
X1509830Y865415D01*
Y864332D01*
X1508747Y863249D01*
X1507664D01*
X1508747D01*
X1509830Y862166D01*
Y861083D01*
X1508747Y860000D01*
X1506581D01*
X1505498Y861083D01*
X1511996Y863249D02*
X1516328D01*
X1518494Y866498D02*
Y860000D01*
X1521743D01*
X1522826Y861083D01*
Y865415D01*
X1521743Y866498D01*
X1518494D01*
X1524992Y865415D02*
X1526075Y866498D01*
X1528241D01*
X1529323Y865415D01*
Y861083D01*
X1528241Y860000D01*
X1526075D01*
X1524992Y861083D01*
Y865415D01*
X1261500Y860000D02*
Y864332D01*
X1263666Y866498D01*
X1265832Y864332D01*
Y860000D01*
Y863249D01*
X1261500D01*
X1267998Y860000D02*
X1270164D01*
X1269081D01*
Y866498D01*
X1267998Y865415D01*
X1273413Y860000D02*
X1275579D01*
X1274496D01*
Y866498D01*
X1273413Y865415D01*
X1278828Y863249D02*
X1283160D01*
X1285326Y860000D02*
Y864332D01*
X1287492Y866498D01*
X1289658Y864332D01*
Y860000D01*
Y863249D01*
X1285326D01*
X1291823Y865415D02*
X1292906Y866498D01*
X1295072D01*
X1296155Y865415D01*
Y864332D01*
X1295072Y863249D01*
X1296155Y862166D01*
Y861083D01*
X1295072Y860000D01*
X1292906D01*
X1291823Y861083D01*
Y862166D01*
X1292906Y863249D01*
X1291823Y864332D01*
Y865415D01*
X1292906Y863249D02*
X1295072D01*
X1319000Y860000D02*
Y864332D01*
X1321166Y866498D01*
X1323332Y864332D01*
Y860000D01*
Y863249D01*
X1319000D01*
X1325498Y866498D02*
X1329830D01*
Y865415D01*
X1325498Y861083D01*
Y860000D01*
X1331996Y863249D02*
X1336328D01*
X1338494Y860000D02*
Y864332D01*
X1340660Y866498D01*
X1342826Y864332D01*
Y860000D01*
Y863249D01*
X1338494D01*
X1348241Y860000D02*
Y866498D01*
X1344992Y863249D01*
X1349323D01*
X1374000Y859500D02*
Y863832D01*
X1376166Y865998D01*
X1378332Y863832D01*
Y859500D01*
Y862749D01*
X1374000D01*
X1380498Y864915D02*
X1381581Y865998D01*
X1383747D01*
X1384830Y864915D01*
Y863832D01*
X1383747Y862749D01*
X1382664D01*
X1383747D01*
X1384830Y861666D01*
Y860583D01*
X1383747Y859500D01*
X1381581D01*
X1380498Y860583D01*
X1386996Y862749D02*
X1391328D01*
X1393494Y859500D02*
Y863832D01*
X1395660Y865998D01*
X1397826Y863832D01*
Y859500D01*
Y862749D01*
X1393494D01*
X1399992Y864915D02*
X1401075Y865998D01*
X1403241D01*
X1404323Y864915D01*
Y860583D01*
X1403241Y859500D01*
X1401075D01*
X1399992Y860583D01*
Y864915D01*
X1199000Y860000D02*
Y864332D01*
X1201166Y866498D01*
X1203332Y864332D01*
Y860000D01*
Y863249D01*
X1199000D01*
X1205498Y860000D02*
X1207664D01*
X1206581D01*
Y866498D01*
X1205498Y865415D01*
X1215245Y866498D02*
X1210913D01*
Y863249D01*
X1213079Y864332D01*
X1214162D01*
X1215245Y863249D01*
Y861083D01*
X1214162Y860000D01*
X1211996D01*
X1210913Y861083D01*
X1217411Y863249D02*
X1221743D01*
X1223909Y860000D02*
Y864332D01*
X1226075Y866498D01*
X1228241Y864332D01*
Y860000D01*
Y863249D01*
X1223909D01*
X1230406Y860000D02*
X1232572D01*
X1231489D01*
Y866498D01*
X1230406Y865415D01*
X1240153Y860000D02*
X1235821D01*
X1240153Y864332D01*
Y865415D01*
X1239070Y866498D01*
X1236904D01*
X1235821Y865415D01*
X1027999Y809998D02*
X1026999Y810998D01*
X1025000D01*
X1024000Y809998D01*
Y808999D01*
X1025000Y807999D01*
X1026999D01*
X1027999Y806999D01*
Y806000D01*
X1026999Y805000D01*
X1025000D01*
X1024000Y806000D01*
X1033997Y810998D02*
X1029998D01*
Y805000D01*
X1033997D01*
X1029998Y807999D02*
X1031997D01*
X1039995Y809998D02*
X1038995Y810998D01*
X1036996D01*
X1035996Y809998D01*
Y806000D01*
X1036996Y805000D01*
X1038995D01*
X1039995Y806000D01*
Y807999D01*
X1037996D01*
X1041994Y805000D02*
Y810998D01*
X1043993Y808999D01*
X1045993Y810998D01*
Y805000D01*
X1051991Y810998D02*
X1047992D01*
Y805000D01*
X1051991D01*
X1047992Y807999D02*
X1049992D01*
X1053990Y805000D02*
Y810998D01*
X1057989Y805000D01*
Y810998D01*
X1059988D02*
X1063987D01*
X1061988D01*
Y805000D01*
X1039000Y674998D02*
Y669000D01*
X1042999D01*
X1044998D02*
Y672999D01*
X1046997Y674998D01*
X1048997Y672999D01*
Y669000D01*
Y671999D01*
X1044998D01*
X1050996Y674998D02*
X1054995D01*
X1052995D01*
Y669000D01*
X1060993Y673998D02*
X1059993Y674998D01*
X1057994D01*
X1056994Y673998D01*
Y670000D01*
X1057994Y669000D01*
X1059993D01*
X1060993Y670000D01*
X1062992Y674998D02*
Y669000D01*
Y671999D01*
X1066991D01*
Y674998D01*
Y669000D01*
X1048999Y683998D02*
X1047999Y684998D01*
X1046000D01*
X1045000Y683998D01*
Y682999D01*
X1046000Y681999D01*
X1047999D01*
X1048999Y680999D01*
Y680000D01*
X1047999Y679000D01*
X1046000D01*
X1045000Y680000D01*
X1054997Y683998D02*
X1053997Y684998D01*
X1051998D01*
X1050998Y683998D01*
Y680000D01*
X1051998Y679000D01*
X1053997D01*
X1054997Y680000D01*
X1056996Y679000D02*
Y682999D01*
X1058996Y684998D01*
X1060995Y682999D01*
Y679000D01*
Y681999D01*
X1056996D01*
X1062994Y679000D02*
Y684998D01*
X1066993Y679000D01*
Y684998D01*
X1044500Y694998D02*
Y689000D01*
X1047499D01*
X1048499Y690000D01*
Y693998D01*
X1047499Y694998D01*
X1044500D01*
X1050498D02*
X1052497D01*
X1051498D01*
Y689000D01*
X1050498D01*
X1052497D01*
X1059495Y693998D02*
X1058496Y694998D01*
X1056496D01*
X1055496Y693998D01*
Y692999D01*
X1056496Y691999D01*
X1058496D01*
X1059495Y690999D01*
Y690000D01*
X1058496Y689000D01*
X1056496D01*
X1055496Y690000D01*
X1061495Y689000D02*
Y694998D01*
X1064493D01*
X1065493Y693998D01*
Y691999D01*
X1064493Y690999D01*
X1061495D01*
X1067493Y694998D02*
Y689000D01*
X1071491D01*
X1073491D02*
Y692999D01*
X1075490Y694998D01*
X1077489Y692999D01*
Y689000D01*
Y691999D01*
X1073491D01*
X1079489Y694998D02*
Y693998D01*
X1081488Y691999D01*
X1083487Y693998D01*
Y694998D01*
X1081488Y691999D02*
Y689000D01*
X1024500Y800998D02*
Y795000D01*
X1028499D01*
X1030498D02*
Y798999D01*
X1032497Y800998D01*
X1034497Y798999D01*
Y795000D01*
Y797999D01*
X1030498D01*
X1036496Y800998D02*
X1040495D01*
X1038496D01*
Y795000D01*
X1046493Y799998D02*
X1045493Y800998D01*
X1043494D01*
X1042494Y799998D01*
Y796000D01*
X1043494Y795000D01*
X1045493D01*
X1046493Y796000D01*
X1048492Y800998D02*
Y795000D01*
Y797999D01*
X1052491D01*
Y800998D01*
Y795000D01*
X1036000Y820998D02*
Y815000D01*
X1038999D01*
X1039999Y816000D01*
Y819998D01*
X1038999Y820998D01*
X1036000D01*
X1041998D02*
X1043997D01*
X1042998D01*
Y815000D01*
X1041998D01*
X1043997D01*
X1050995Y819998D02*
X1049996Y820998D01*
X1047996D01*
X1046996Y819998D01*
Y818999D01*
X1047996Y817999D01*
X1049996D01*
X1050995Y816999D01*
Y816000D01*
X1049996Y815000D01*
X1047996D01*
X1046996Y816000D01*
X1052995Y815000D02*
Y820998D01*
X1055993D01*
X1056993Y819998D01*
Y817999D01*
X1055993Y816999D01*
X1052995D01*
X1058993Y820998D02*
Y815000D01*
X1062991D01*
X1064991D02*
Y818999D01*
X1066990Y820998D01*
X1068989Y818999D01*
Y815000D01*
Y817999D01*
X1064991D01*
X1070989Y820998D02*
Y819998D01*
X1072988Y817999D01*
X1074987Y819998D01*
Y820998D01*
X1072988Y817999D02*
Y815000D01*
X830000Y718998D02*
Y712500D01*
X833249D01*
X834332Y713583D01*
Y717915D01*
X833249Y718998D01*
X830000D01*
X840830D02*
X836498D01*
Y712500D01*
X840830D01*
X836498Y715749D02*
X838664D01*
X847328Y717915D02*
X846245Y718998D01*
X844079D01*
X842996Y717915D01*
Y713583D01*
X844079Y712500D01*
X846245D01*
X847328Y713583D01*
X852743Y718998D02*
X850577D01*
X849494Y717915D01*
Y713583D01*
X850577Y712500D01*
X852743D01*
X853826Y713583D01*
Y717915D01*
X852743Y718998D01*
X855992D02*
Y712500D01*
X859241D01*
X860324Y713583D01*
Y717915D01*
X859241Y718998D01*
X855992D01*
X866821D02*
X862490D01*
Y712500D01*
X866821D01*
X862490Y715749D02*
X864655D01*
X868987Y712500D02*
Y718998D01*
X872236D01*
X873319Y717915D01*
Y715749D01*
X872236Y714666D01*
X868987D01*
X871153D02*
X873319Y712500D01*
X830000Y721500D02*
Y727998D01*
X832166Y725832D01*
X834332Y727998D01*
Y721500D01*
X840830Y727998D02*
X836498D01*
Y721500D01*
X840830D01*
X836498Y724749D02*
X838664D01*
X842996Y721500D02*
Y727998D01*
X845162Y725832D01*
X847328Y727998D01*
Y721500D01*
X852743Y727998D02*
X850577D01*
X849494Y726915D01*
Y722583D01*
X850577Y721500D01*
X852743D01*
X853826Y722583D01*
Y726915D01*
X852743Y727998D01*
X855992Y721500D02*
Y727998D01*
X859241D01*
X860324Y726915D01*
Y724749D01*
X859241Y723666D01*
X855992D01*
X858158D02*
X860324Y721500D01*
X862490Y727998D02*
Y726915D01*
X864655Y724749D01*
X866821Y726915D01*
Y727998D01*
X864655Y724749D02*
Y721500D01*
X995500Y746498D02*
Y740000D01*
X998749D01*
X999832Y741083D01*
Y745415D01*
X998749Y746498D01*
X995500D01*
X1006330D02*
X1001998D01*
Y740000D01*
X1006330D01*
X1001998Y743249D02*
X1004164D01*
X1012828Y745415D02*
X1011745Y746498D01*
X1009579D01*
X1008496Y745415D01*
Y741083D01*
X1009579Y740000D01*
X1011745D01*
X1012828Y741083D01*
X1018243Y746498D02*
X1016077D01*
X1014994Y745415D01*
Y741083D01*
X1016077Y740000D01*
X1018243D01*
X1019326Y741083D01*
Y745415D01*
X1018243Y746498D01*
X1021492D02*
Y740000D01*
X1024741D01*
X1025823Y741083D01*
Y745415D01*
X1024741Y746498D01*
X1021492D01*
X1032321D02*
X1027989D01*
Y740000D01*
X1032321D01*
X1027989Y743249D02*
X1030155D01*
X1034487Y740000D02*
Y746498D01*
X1037736D01*
X1038819Y745415D01*
Y743249D01*
X1037736Y742166D01*
X1034487D01*
X1036653D02*
X1038819Y740000D01*
X996100Y757898D02*
X998266D01*
X997183D01*
Y751400D01*
X996100D01*
X998266D01*
X1001515D02*
X1005847Y755732D01*
X1011262Y757898D02*
X1009096D01*
X1008013Y756815D01*
Y752483D01*
X1009096Y751400D01*
X1011262D01*
X1012345Y752483D01*
Y756815D01*
X1011262Y757898D01*
X946000Y517500D02*
Y523998D01*
X949249D01*
X950332Y522915D01*
Y520749D01*
X949249Y519666D01*
X946000D01*
X948166D02*
X950332Y517500D01*
X952498D02*
Y521832D01*
X954664Y523998D01*
X956830Y521832D01*
Y517500D01*
Y520749D01*
X952498D01*
X958996Y517500D02*
Y523998D01*
X961162Y521832D01*
X963328Y523998D01*
Y517500D01*
X843832Y523998D02*
X839500D01*
Y517500D01*
X843832D01*
X839500Y520749D02*
X841666D01*
X845998Y517500D02*
Y523998D01*
X849247D01*
X850330Y522915D01*
Y520749D01*
X849247Y519666D01*
X845998D01*
X852496Y517500D02*
Y523998D01*
X855745D01*
X856828Y522915D01*
Y520749D01*
X855745Y519666D01*
X852496D01*
X854662D02*
X856828Y517500D01*
X862243Y523998D02*
X860077D01*
X858994Y522915D01*
Y518583D01*
X860077Y517500D01*
X862243D01*
X863326Y518583D01*
Y522915D01*
X862243Y523998D01*
X865492Y517500D02*
Y523998D01*
X867658Y521832D01*
X869823Y523998D01*
Y517500D01*
X679000Y462000D02*
Y468498D01*
X681166Y466332D01*
X683332Y468498D01*
Y462000D01*
X685498Y468498D02*
X687664D01*
X686581D01*
Y462000D01*
X685498D01*
X687664D01*
X695245Y467415D02*
X694162Y468498D01*
X691996D01*
X690913Y467415D01*
Y463083D01*
X691996Y462000D01*
X694162D01*
X695245Y463083D01*
X697411Y462000D02*
Y468498D01*
X700660D01*
X701743Y467415D01*
Y465249D01*
X700660Y464166D01*
X697411D01*
X699577D02*
X701743Y462000D01*
X707158Y468498D02*
X704992D01*
X703909Y467415D01*
Y463083D01*
X704992Y462000D01*
X707158D01*
X708241Y463083D01*
Y467415D01*
X707158Y468498D01*
X710406Y462000D02*
Y468498D01*
X713656D01*
X714739Y467415D01*
Y465249D01*
X713656Y464166D01*
X710406D01*
X716904Y462000D02*
Y468498D01*
X720153D01*
X721236Y467415D01*
Y465249D01*
X720153Y464166D01*
X716904D01*
X719070D02*
X721236Y462000D01*
X726651Y468498D02*
X724485D01*
X723402Y467415D01*
Y463083D01*
X724485Y462000D01*
X726651D01*
X727734Y463083D01*
Y467415D01*
X726651Y468498D01*
X734232Y467415D02*
X733149Y468498D01*
X730983D01*
X729900Y467415D01*
Y463083D01*
X730983Y462000D01*
X733149D01*
X734232Y463083D01*
X740730Y468498D02*
X736398D01*
Y462000D01*
X740730D01*
X736398Y465249D02*
X738564D01*
X747228Y467415D02*
X746145Y468498D01*
X743979D01*
X742896Y467415D01*
Y466332D01*
X743979Y465249D01*
X746145D01*
X747228Y464166D01*
Y463083D01*
X746145Y462000D01*
X743979D01*
X742896Y463083D01*
X753726Y467415D02*
X752643Y468498D01*
X750477D01*
X749394Y467415D01*
Y466332D01*
X750477Y465249D01*
X752643D01*
X753726Y464166D01*
Y463083D01*
X752643Y462000D01*
X750477D01*
X749394Y463083D01*
X759141Y468498D02*
X756975D01*
X755892Y467415D01*
Y463083D01*
X756975Y462000D01*
X759141D01*
X760224Y463083D01*
Y467415D01*
X759141Y468498D01*
X762390Y462000D02*
Y468498D01*
X765639D01*
X766722Y467415D01*
Y465249D01*
X765639Y464166D01*
X762390D01*
X764556D02*
X766722Y462000D01*
X1202332Y453498D02*
X1198000D01*
Y447000D01*
X1202332D01*
X1198000Y450249D02*
X1200166D01*
X1204498Y447000D02*
Y453498D01*
X1208830Y447000D01*
Y453498D01*
X1215328Y452415D02*
X1214245Y453498D01*
X1212079D01*
X1210996Y452415D01*
Y448083D01*
X1212079Y447000D01*
X1214245D01*
X1215328Y448083D01*
X1220743Y453498D02*
X1218577D01*
X1217494Y452415D01*
Y448083D01*
X1218577Y447000D01*
X1220743D01*
X1221826Y448083D01*
Y452415D01*
X1220743Y453498D01*
X1223992D02*
Y447000D01*
X1227241D01*
X1228323Y448083D01*
Y452415D01*
X1227241Y453498D01*
X1223992D01*
X1234821D02*
X1230490D01*
Y447000D01*
X1234821D01*
X1230490Y450249D02*
X1232656D01*
X1236987Y447000D02*
Y453498D01*
X1240236D01*
X1241319Y452415D01*
Y450249D01*
X1240236Y449166D01*
X1236987D01*
X1239153D02*
X1241319Y447000D01*
X1195000Y462998D02*
Y456500D01*
Y458666D01*
X1199332Y462998D01*
X1196083Y459749D01*
X1199332Y456500D01*
X1205830Y462998D02*
X1201498D01*
Y456500D01*
X1205830D01*
X1201498Y459749D02*
X1203664D01*
X1207996Y462998D02*
Y461915D01*
X1210162Y459749D01*
X1212328Y461915D01*
Y462998D01*
X1210162Y459749D02*
Y456500D01*
X1214494Y462998D02*
Y456500D01*
X1217743D01*
X1218826Y457583D01*
Y458666D01*
X1217743Y459749D01*
X1214494D01*
X1217743D01*
X1218826Y460832D01*
Y461915D01*
X1217743Y462998D01*
X1214494D01*
X1224241D02*
X1222075D01*
X1220992Y461915D01*
Y457583D01*
X1222075Y456500D01*
X1224241D01*
X1225323Y457583D01*
Y461915D01*
X1224241Y462998D01*
X1227489Y456500D02*
Y460832D01*
X1229655Y462998D01*
X1231821Y460832D01*
Y456500D01*
Y459749D01*
X1227489D01*
X1233987Y456500D02*
Y462998D01*
X1237236D01*
X1238319Y461915D01*
Y459749D01*
X1237236Y458666D01*
X1233987D01*
X1236153D02*
X1238319Y456500D01*
X1240485Y462998D02*
Y456500D01*
X1243734D01*
X1244817Y457583D01*
Y461915D01*
X1243734Y462998D01*
X1240485D01*
X849332Y435915D02*
X848249Y436998D01*
X846083D01*
X845000Y435915D01*
Y434832D01*
X846083Y433749D01*
X848249D01*
X849332Y432666D01*
Y431583D01*
X848249Y430500D01*
X846083D01*
X845000Y431583D01*
X851498Y436998D02*
Y430500D01*
X855830D01*
X861245Y436998D02*
X859079D01*
X857996Y435915D01*
Y431583D01*
X859079Y430500D01*
X861245D01*
X862328Y431583D01*
Y435915D01*
X861245Y436998D01*
X864494D02*
Y430500D01*
X866660Y432666D01*
X868826Y430500D01*
Y436998D01*
X849832Y414498D02*
X845500D01*
Y411249D01*
X847666D01*
X845500D01*
Y408000D01*
X851998D02*
Y412332D01*
X854164Y414498D01*
X856330Y412332D01*
Y408000D01*
Y411249D01*
X851998D01*
X862828Y413415D02*
X861745Y414498D01*
X859579D01*
X858496Y413415D01*
Y412332D01*
X859579Y411249D01*
X861745D01*
X862828Y410166D01*
Y409083D01*
X861745Y408000D01*
X859579D01*
X858496Y409083D01*
X864994Y414498D02*
X869326D01*
X867160D01*
Y408000D01*
X1058500Y537498D02*
Y531500D01*
Y533499D01*
X1062499Y537498D01*
X1059500Y534499D01*
X1062499Y531500D01*
X1068497Y537498D02*
X1064498D01*
Y531500D01*
X1068497D01*
X1064498Y534499D02*
X1066497D01*
X1070496Y537498D02*
Y536498D01*
X1072495Y534499D01*
X1074495Y536498D01*
Y537498D01*
X1072495Y534499D02*
Y531500D01*
X1076494Y537498D02*
Y531500D01*
X1079493D01*
X1080493Y532500D01*
Y533499D01*
X1079493Y534499D01*
X1076494D01*
X1079493D01*
X1080493Y535499D01*
Y536498D01*
X1079493Y537498D01*
X1076494D01*
X1085491D02*
X1083492D01*
X1082492Y536498D01*
Y532500D01*
X1083492Y531500D01*
X1085491D01*
X1086491Y532500D01*
Y536498D01*
X1085491Y537498D01*
X1088490Y531500D02*
Y535499D01*
X1090490Y537498D01*
X1092489Y535499D01*
Y531500D01*
Y534499D01*
X1088490D01*
X1094488Y531500D02*
Y537498D01*
X1097487D01*
X1098487Y536498D01*
Y534499D01*
X1097487Y533499D01*
X1094488D01*
X1096488D02*
X1098487Y531500D01*
X1100486Y537498D02*
Y531500D01*
X1103485D01*
X1104485Y532500D01*
Y536498D01*
X1103485Y537498D01*
X1100486D01*
X1064000Y527498D02*
Y521500D01*
X1066999D01*
X1067999Y522500D01*
Y523499D01*
X1066999Y524499D01*
X1064000D01*
X1066999D01*
X1067999Y525499D01*
Y526498D01*
X1066999Y527498D01*
X1064000D01*
X1069998D02*
Y522500D01*
X1070998Y521500D01*
X1072997D01*
X1073997Y522500D01*
Y527498D01*
X1079995D02*
X1075996D01*
Y524499D01*
X1077995D01*
X1075996D01*
Y521500D01*
X1085993Y527498D02*
X1081994D01*
Y524499D01*
X1083994D01*
X1081994D01*
Y521500D01*
X1091991Y527498D02*
X1087992D01*
Y521500D01*
X1091991D01*
X1087992Y524499D02*
X1089992D01*
X1093990Y521500D02*
Y527498D01*
X1096989D01*
X1097989Y526498D01*
Y524499D01*
X1096989Y523499D01*
X1093990D01*
X1095990D02*
X1097989Y521500D01*
X1530000Y600415D02*
X1531083Y601498D01*
X1533249D01*
X1534332Y600415D01*
Y596083D01*
X1533249Y595000D01*
X1531083D01*
X1530000Y596083D01*
Y600415D01*
X1542996D02*
X1544079Y601498D01*
X1546245D01*
X1547328Y600415D01*
Y596083D01*
X1546245Y595000D01*
X1544079D01*
X1542996Y596083D01*
Y600415D01*
X1549494D02*
X1550577Y601498D01*
X1552743D01*
X1553826Y600415D01*
Y596083D01*
X1552743Y595000D01*
X1550577D01*
X1549494Y596083D01*
Y600415D01*
X1555992D02*
X1557075Y601498D01*
X1559241D01*
X1560324Y600415D01*
Y596083D01*
X1559241Y595000D01*
X1557075D01*
X1555992Y596083D01*
Y600415D01*
X1562490D02*
X1563573Y601498D01*
X1565738D01*
X1566821Y600415D01*
Y596083D01*
X1565738Y595000D01*
X1563573D01*
X1562490Y596083D01*
Y600415D01*
X1532000Y585000D02*
X1534166D01*
X1533083D01*
Y591498D01*
X1532000Y590415D01*
X1543913D02*
X1544996Y591498D01*
X1547162D01*
X1548245Y590415D01*
Y586083D01*
X1547162Y585000D01*
X1544996D01*
X1543913Y586083D01*
Y590415D01*
X1550411D02*
X1551494Y591498D01*
X1553660D01*
X1554743Y590415D01*
Y586083D01*
X1553660Y585000D01*
X1551494D01*
X1550411Y586083D01*
Y590415D01*
X1556909D02*
X1557992Y591498D01*
X1560158D01*
X1561241Y590415D01*
Y586083D01*
X1560158Y585000D01*
X1557992D01*
X1556909Y586083D01*
Y590415D01*
X1563406Y585000D02*
X1565572D01*
X1564489D01*
Y591498D01*
X1563406Y590415D01*
X1534332Y575000D02*
X1530000D01*
X1534332Y579332D01*
Y580415D01*
X1533249Y581498D01*
X1531083D01*
X1530000Y580415D01*
X1542996D02*
X1544079Y581498D01*
X1546245D01*
X1547328Y580415D01*
Y576083D01*
X1546245Y575000D01*
X1544079D01*
X1542996Y576083D01*
Y580415D01*
X1549494D02*
X1550577Y581498D01*
X1552743D01*
X1553826Y580415D01*
Y576083D01*
X1552743Y575000D01*
X1550577D01*
X1549494Y576083D01*
Y580415D01*
X1555992Y575000D02*
X1558158D01*
X1557075D01*
Y581498D01*
X1555992Y580415D01*
X1561407D02*
X1562490Y581498D01*
X1564655D01*
X1565738Y580415D01*
Y576083D01*
X1564655Y575000D01*
X1562490D01*
X1561407Y576083D01*
Y580415D01*
X1530000Y570415D02*
X1531083Y571498D01*
X1533249D01*
X1534332Y570415D01*
Y569332D01*
X1533249Y568249D01*
X1532166D01*
X1533249D01*
X1534332Y567166D01*
Y566083D01*
X1533249Y565000D01*
X1531083D01*
X1530000Y566083D01*
X1542996Y570415D02*
X1544079Y571498D01*
X1546245D01*
X1547328Y570415D01*
Y566083D01*
X1546245Y565000D01*
X1544079D01*
X1542996Y566083D01*
Y570415D01*
X1549494D02*
X1550577Y571498D01*
X1552743D01*
X1553826Y570415D01*
Y566083D01*
X1552743Y565000D01*
X1550577D01*
X1549494Y566083D01*
Y570415D01*
X1555992Y565000D02*
X1558158D01*
X1557075D01*
Y571498D01*
X1555992Y570415D01*
X1561407Y565000D02*
X1563573D01*
X1562490D01*
Y571498D01*
X1561407Y570415D01*
X1533249Y555000D02*
Y561498D01*
X1530000Y558249D01*
X1534332D01*
X1542996Y560415D02*
X1544079Y561498D01*
X1546245D01*
X1547328Y560415D01*
Y556083D01*
X1546245Y555000D01*
X1544079D01*
X1542996Y556083D01*
Y560415D01*
X1549494Y555000D02*
X1551660D01*
X1550577D01*
Y561498D01*
X1549494Y560415D01*
X1554909D02*
X1555992Y561498D01*
X1558158D01*
X1559241Y560415D01*
Y556083D01*
X1558158Y555000D01*
X1555992D01*
X1554909Y556083D01*
Y560415D01*
X1561407D02*
X1562490Y561498D01*
X1564655D01*
X1565738Y560415D01*
Y556083D01*
X1564655Y555000D01*
X1562490D01*
X1561407Y556083D01*
Y560415D01*
X1534332Y551498D02*
X1530000D01*
Y548249D01*
X1532166Y549332D01*
X1533249D01*
X1534332Y548249D01*
Y546083D01*
X1533249Y545000D01*
X1531083D01*
X1530000Y546083D01*
X1542996Y550415D02*
X1544079Y551498D01*
X1546245D01*
X1547328Y550415D01*
Y546083D01*
X1546245Y545000D01*
X1544079D01*
X1542996Y546083D01*
Y550415D01*
X1549494Y545000D02*
X1551660D01*
X1550577D01*
Y551498D01*
X1549494Y550415D01*
X1554909D02*
X1555992Y551498D01*
X1558158D01*
X1559241Y550415D01*
Y546083D01*
X1558158Y545000D01*
X1555992D01*
X1554909Y546083D01*
Y550415D01*
X1561407Y545000D02*
X1563573D01*
X1562490D01*
Y551498D01*
X1561407Y550415D01*
X1534332Y541498D02*
X1532166Y540415D01*
X1530000Y538249D01*
Y536083D01*
X1531083Y535000D01*
X1533249D01*
X1534332Y536083D01*
Y537166D01*
X1533249Y538249D01*
X1530000D01*
X1542996Y540415D02*
X1544079Y541498D01*
X1546245D01*
X1547328Y540415D01*
Y536083D01*
X1546245Y535000D01*
X1544079D01*
X1542996Y536083D01*
Y540415D01*
X1549494Y535000D02*
X1551660D01*
X1550577D01*
Y541498D01*
X1549494Y540415D01*
X1554909Y535000D02*
X1557075D01*
X1555992D01*
Y541498D01*
X1554909Y540415D01*
X1560324D02*
X1561407Y541498D01*
X1563573D01*
X1564655Y540415D01*
Y536083D01*
X1563573Y535000D01*
X1561407D01*
X1560324Y536083D01*
Y540415D01*
X1530000Y531498D02*
X1534332D01*
Y530415D01*
X1530000Y526083D01*
Y525000D01*
X1542996Y530415D02*
X1544079Y531498D01*
X1546245D01*
X1547328Y530415D01*
Y526083D01*
X1546245Y525000D01*
X1544079D01*
X1542996Y526083D01*
Y530415D01*
X1549494Y525000D02*
X1551660D01*
X1550577D01*
Y531498D01*
X1549494Y530415D01*
X1554909Y525000D02*
X1557075D01*
X1555992D01*
Y531498D01*
X1554909Y530415D01*
X1560324Y525000D02*
X1562490D01*
X1561407D01*
Y531498D01*
X1560324Y530415D01*
X1530000Y520415D02*
X1531083Y521498D01*
X1533249D01*
X1534332Y520415D01*
Y519332D01*
X1533249Y518249D01*
X1534332Y517166D01*
Y516083D01*
X1533249Y515000D01*
X1531083D01*
X1530000Y516083D01*
Y517166D01*
X1531083Y518249D01*
X1530000Y519332D01*
Y520415D01*
X1531083Y518249D02*
X1533249D01*
X1542996Y515000D02*
X1545162D01*
X1544079D01*
Y521498D01*
X1542996Y520415D01*
X1548411D02*
X1549494Y521498D01*
X1551660D01*
X1552743Y520415D01*
Y516083D01*
X1551660Y515000D01*
X1549494D01*
X1548411Y516083D01*
Y520415D01*
X1554909D02*
X1555992Y521498D01*
X1558158D01*
X1559241Y520415D01*
Y516083D01*
X1558158Y515000D01*
X1555992D01*
X1554909Y516083D01*
Y520415D01*
X1561407D02*
X1562490Y521498D01*
X1564655D01*
X1565738Y520415D01*
Y516083D01*
X1564655Y515000D01*
X1562490D01*
X1561407Y516083D01*
Y520415D01*
X1530000Y506083D02*
X1531083Y505000D01*
X1533249D01*
X1534332Y506083D01*
Y510415D01*
X1533249Y511498D01*
X1531083D01*
X1530000Y510415D01*
Y509332D01*
X1531083Y508249D01*
X1534332D01*
X1542996Y505000D02*
X1545162D01*
X1544079D01*
Y511498D01*
X1542996Y510415D01*
X1548411D02*
X1549494Y511498D01*
X1551660D01*
X1552743Y510415D01*
Y506083D01*
X1551660Y505000D01*
X1549494D01*
X1548411Y506083D01*
Y510415D01*
X1554909D02*
X1555992Y511498D01*
X1558158D01*
X1559241Y510415D01*
Y506083D01*
X1558158Y505000D01*
X1555992D01*
X1554909Y506083D01*
Y510415D01*
X1561407Y505000D02*
X1563573D01*
X1562490D01*
Y511498D01*
X1561407Y510415D01*
X1530000Y495000D02*
Y499332D01*
X1532166Y501498D01*
X1534332Y499332D01*
Y495000D01*
Y498249D01*
X1530000D01*
X1542996Y495000D02*
X1545162D01*
X1544079D01*
Y501498D01*
X1542996Y500415D01*
X1548411D02*
X1549494Y501498D01*
X1551660D01*
X1552743Y500415D01*
Y496083D01*
X1551660Y495000D01*
X1549494D01*
X1548411Y496083D01*
Y500415D01*
X1554909Y495000D02*
X1557075D01*
X1555992D01*
Y501498D01*
X1554909Y500415D01*
X1560324D02*
X1561407Y501498D01*
X1563573D01*
X1564655Y500415D01*
Y496083D01*
X1563573Y495000D01*
X1561407D01*
X1560324Y496083D01*
Y500415D01*
X1530000Y491498D02*
Y485000D01*
X1533249D01*
X1534332Y486083D01*
Y487166D01*
X1533249Y488249D01*
X1530000D01*
X1533249D01*
X1534332Y489332D01*
Y490415D01*
X1533249Y491498D01*
X1530000D01*
X1542996Y485000D02*
X1545162D01*
X1544079D01*
Y491498D01*
X1542996Y490415D01*
X1548411D02*
X1549494Y491498D01*
X1551660D01*
X1552743Y490415D01*
Y486083D01*
X1551660Y485000D01*
X1549494D01*
X1548411Y486083D01*
Y490415D01*
X1554909Y485000D02*
X1557075D01*
X1555992D01*
Y491498D01*
X1554909Y490415D01*
X1560324Y485000D02*
X1562490D01*
X1561407D01*
Y491498D01*
X1560324Y490415D01*
X1534332Y480415D02*
X1533249Y481498D01*
X1531083D01*
X1530000Y480415D01*
Y476083D01*
X1531083Y475000D01*
X1533249D01*
X1534332Y476083D01*
X1542996Y475000D02*
X1545162D01*
X1544079D01*
Y481498D01*
X1542996Y480415D01*
X1548411Y475000D02*
X1550577D01*
X1549494D01*
Y481498D01*
X1548411Y480415D01*
X1553826D02*
X1554909Y481498D01*
X1557075D01*
X1558158Y480415D01*
Y476083D01*
X1557075Y475000D01*
X1554909D01*
X1553826Y476083D01*
Y480415D01*
X1560324D02*
X1561407Y481498D01*
X1563573D01*
X1564655Y480415D01*
Y476083D01*
X1563573Y475000D01*
X1561407D01*
X1560324Y476083D01*
Y480415D01*
X1530000Y471498D02*
Y465000D01*
X1533249D01*
X1534332Y466083D01*
Y470415D01*
X1533249Y471498D01*
X1530000D01*
X1542996Y465000D02*
X1545162D01*
X1544079D01*
Y471498D01*
X1542996Y470415D01*
X1548411Y465000D02*
X1550577D01*
X1549494D01*
Y471498D01*
X1548411Y470415D01*
X1553826D02*
X1554909Y471498D01*
X1557075D01*
X1558158Y470415D01*
Y466083D01*
X1557075Y465000D01*
X1554909D01*
X1553826Y466083D01*
Y470415D01*
X1560324Y465000D02*
X1562490D01*
X1561407D01*
Y471498D01*
X1560324Y470415D01*
X1534332Y461498D02*
X1530000D01*
Y455000D01*
X1534332D01*
X1530000Y458249D02*
X1532166D01*
X1542996Y455000D02*
X1545162D01*
X1544079D01*
Y461498D01*
X1542996Y460415D01*
X1548411Y455000D02*
X1550577D01*
X1549494D01*
Y461498D01*
X1548411Y460415D01*
X1553826Y455000D02*
X1555992D01*
X1554909D01*
Y461498D01*
X1553826Y460415D01*
X1559241D02*
X1560324Y461498D01*
X1562490D01*
X1563573Y460415D01*
Y456083D01*
X1562490Y455000D01*
X1560324D01*
X1559241Y456083D01*
Y460415D01*
X1534332Y451498D02*
X1530000D01*
Y448249D01*
X1532166D01*
X1530000D01*
Y445000D01*
X1542996D02*
X1545162D01*
X1544079D01*
Y451498D01*
X1542996Y450415D01*
X1548411Y445000D02*
X1550577D01*
X1549494D01*
Y451498D01*
X1548411Y450415D01*
X1553826Y445000D02*
X1555992D01*
X1554909D01*
Y451498D01*
X1553826Y450415D01*
X1559241Y445000D02*
X1561407D01*
X1560324D01*
Y451498D01*
X1559241Y450415D01*
X1521999Y686998D02*
X1520999Y687998D01*
X1519000D01*
X1518000Y686998D01*
Y683000D01*
X1519000Y682000D01*
X1520999D01*
X1521999Y683000D01*
Y684999D01*
X1519999D01*
X1523998Y682000D02*
Y687998D01*
X1527997Y682000D01*
Y687998D01*
X1529996D02*
Y682000D01*
X1532995D01*
X1533995Y683000D01*
Y686998D01*
X1532995Y687998D01*
X1529996D01*
X1518000Y637998D02*
Y632000D01*
X1520999D01*
X1521999Y633000D01*
Y636998D01*
X1520999Y637998D01*
X1518000D01*
X1523998D02*
X1527997D01*
X1525997D01*
Y632000D01*
X1529996D02*
Y637998D01*
X1532995D01*
X1533995Y636998D01*
Y634999D01*
X1532995Y633999D01*
X1529996D01*
X1531995D02*
X1533995Y632000D01*
X617500Y832749D02*
X621832D01*
X619666Y834915D02*
Y830583D01*
X950500Y841499D02*
X954499D01*
X952499Y843498D02*
Y839500D01*
X960497Y844498D02*
X956498D01*
Y841499D01*
X958497Y842499D01*
X959497D01*
X960497Y841499D01*
Y839500D01*
X959497Y838500D01*
X957498D01*
X956498Y839500D01*
X962496Y844498D02*
Y840499D01*
X964495Y838500D01*
X966495Y840499D01*
Y844498D01*
X930499Y843998D02*
X929499Y844998D01*
X927500D01*
X926500Y843998D01*
Y840000D01*
X927500Y839000D01*
X929499D01*
X930499Y840000D01*
Y841999D01*
X928499D01*
X932498Y839000D02*
Y844998D01*
X936497Y839000D01*
Y844998D01*
X938496D02*
Y839000D01*
X941495D01*
X942495Y840000D01*
Y843998D01*
X941495Y844998D01*
X938496D01*
X1324000Y579165D02*
X1325333Y580497D01*
X1327999D01*
X1329332Y579165D01*
Y573833D01*
X1327999Y572500D01*
X1325333D01*
X1324000Y573833D01*
Y579165D01*
X1376000Y572500D02*
X1378666D01*
X1377333D01*
Y580497D01*
X1376000Y579165D01*
X1430332Y572500D02*
X1425000D01*
X1430332Y577832D01*
Y579165D01*
X1428999Y580497D01*
X1426333D01*
X1425000Y579165D01*
X1475000D02*
X1476333Y580497D01*
X1478999D01*
X1480332Y579165D01*
Y577832D01*
X1478999Y576499D01*
X1477666D01*
X1478999D01*
X1480332Y575166D01*
Y573833D01*
X1478999Y572500D01*
X1476333D01*
X1475000Y573833D01*
D47*
X964000Y490000D02*
X964096Y489024D01*
X964381Y488087D01*
X964843Y487222D01*
X965464Y486465D01*
X966222Y485843D01*
X967087Y485381D01*
X968025Y485096D01*
X969000Y485000D01*
X969975Y485096D01*
X970913Y485381D01*
X971778Y485843D01*
X972536Y486465D01*
X973157Y487222D01*
X973619Y488087D01*
X973904Y489024D01*
X974000Y490000D01*
X672500Y715000D02*
X672454Y716000D01*
X672318Y716992D01*
X672092Y717968D01*
X671778Y718919D01*
X671379Y719837D01*
X670899Y720715D01*
X670340Y721546D01*
X669708Y722323D01*
X669008Y723039D01*
X668246Y723689D01*
X667428Y724266D01*
X666561Y724767D01*
X665652Y725186D01*
X664708Y725522D01*
X663738Y725770D01*
X662749Y725929D01*
X661750Y725997D01*
X660749Y725974D01*
X659755Y725861D01*
X658774Y725657D01*
X657816Y725365D01*
X656889Y724987D01*
X656000Y724526D01*
X655157Y723987D01*
X654366Y723373D01*
X653634Y722689D01*
X652967Y721942D01*
X652371Y721137D01*
X651851Y720282D01*
X651411Y719382D01*
X651054Y718447D01*
X650784Y717483D01*
X650602Y716498D01*
X650511Y715501D01*
Y714499D01*
X650602Y713502D01*
X650784Y712517D01*
X651054Y711553D01*
X651411Y710618D01*
X651851Y709718D01*
X652371Y708863D01*
X652967Y708058D01*
X653634Y707311D01*
X654366Y706627D01*
X655157Y706013D01*
X656000Y705474D01*
X656889Y705013D01*
X657816Y704635D01*
X658774Y704343D01*
X659755Y704139D01*
X660749Y704026D01*
X661750Y704003D01*
X662749Y704071D01*
X663738Y704230D01*
X664708Y704478D01*
X665652Y704813D01*
X666561Y705233D01*
X667428Y705734D01*
X668246Y706311D01*
X669008Y706961D01*
X669708Y707677D01*
X670340Y708454D01*
X670899Y709285D01*
X671379Y710163D01*
X671778Y711081D01*
X672092Y712032D01*
X672318Y713008D01*
X672454Y714000D01*
X672500Y715000D01*
X1152500Y862000D02*
X1152454Y863000D01*
X1152318Y863992D01*
X1152092Y864968D01*
X1151778Y865919D01*
X1151379Y866837D01*
X1150899Y867715D01*
X1150340Y868546D01*
X1149708Y869323D01*
X1149008Y870039D01*
X1148246Y870689D01*
X1147428Y871266D01*
X1146561Y871767D01*
X1145652Y872186D01*
X1144708Y872522D01*
X1143738Y872770D01*
X1142749Y872929D01*
X1141750Y872997D01*
X1140749Y872974D01*
X1139754Y872861D01*
X1138774Y872657D01*
X1137816Y872365D01*
X1136889Y871987D01*
X1136000Y871526D01*
X1135157Y870987D01*
X1134366Y870373D01*
X1133634Y869689D01*
X1132967Y868942D01*
X1132371Y868137D01*
X1131851Y867282D01*
X1131411Y866382D01*
X1131054Y865447D01*
X1130784Y864483D01*
X1130602Y863498D01*
X1130511Y862501D01*
Y861499D01*
X1130602Y860502D01*
X1130784Y859517D01*
X1131054Y858553D01*
X1131411Y857618D01*
X1131851Y856718D01*
X1132371Y855863D01*
X1132967Y855058D01*
X1133634Y854311D01*
X1134366Y853627D01*
X1135157Y853013D01*
X1136000Y852474D01*
X1136889Y852013D01*
X1137816Y851635D01*
X1138774Y851343D01*
X1139754Y851139D01*
X1140749Y851026D01*
X1141750Y851003D01*
X1142749Y851071D01*
X1143738Y851230D01*
X1144708Y851478D01*
X1145652Y851814D01*
X1146561Y852233D01*
X1147428Y852734D01*
X1148246Y853311D01*
X1149008Y853961D01*
X1149708Y854677D01*
X1150340Y855454D01*
X1150899Y856285D01*
X1151379Y857163D01*
X1151778Y858081D01*
X1152092Y859032D01*
X1152318Y860008D01*
X1152454Y861000D01*
X1152500Y862000D01*
X1127500Y425000D02*
X1127454Y426000D01*
X1127318Y426992D01*
X1127092Y427968D01*
X1126778Y428919D01*
X1126379Y429837D01*
X1125899Y430715D01*
X1125340Y431546D01*
X1124708Y432323D01*
X1124008Y433039D01*
X1123246Y433689D01*
X1122428Y434266D01*
X1121561Y434767D01*
X1120652Y435186D01*
X1119708Y435522D01*
X1118738Y435770D01*
X1117749Y435929D01*
X1116750Y435997D01*
X1115749Y435974D01*
X1114754Y435861D01*
X1113774Y435657D01*
X1112816Y435365D01*
X1111889Y434987D01*
X1111000Y434526D01*
X1110157Y433987D01*
X1109366Y433373D01*
X1108634Y432689D01*
X1107967Y431942D01*
X1107371Y431137D01*
X1106851Y430282D01*
X1106411Y429382D01*
X1106054Y428447D01*
X1105784Y427483D01*
X1105602Y426498D01*
X1105511Y425501D01*
Y424499D01*
X1105602Y423502D01*
X1105784Y422517D01*
X1106054Y421553D01*
X1106411Y420618D01*
X1106851Y419718D01*
X1107371Y418863D01*
X1107967Y418058D01*
X1108634Y417311D01*
X1109366Y416627D01*
X1110157Y416013D01*
X1111000Y415474D01*
X1111889Y415013D01*
X1112816Y414635D01*
X1113774Y414343D01*
X1114754Y414139D01*
X1115749Y414026D01*
X1116750Y414003D01*
X1117749Y414071D01*
X1118738Y414230D01*
X1119708Y414478D01*
X1120652Y414814D01*
X1121561Y415233D01*
X1122428Y415734D01*
X1123246Y416311D01*
X1124008Y416961D01*
X1124708Y417677D01*
X1125340Y418454D01*
X1125899Y419285D01*
X1126379Y420163D01*
X1126778Y421081D01*
X1127092Y422032D01*
X1127318Y423008D01*
X1127454Y424000D01*
X1127500Y425000D01*
X1257500Y495000D02*
X1257454Y496000D01*
X1257318Y496992D01*
X1257092Y497968D01*
X1256778Y498919D01*
X1256379Y499837D01*
X1255899Y500715D01*
X1255340Y501546D01*
X1254708Y502323D01*
X1254008Y503039D01*
X1253246Y503689D01*
X1252428Y504266D01*
X1251561Y504767D01*
X1250652Y505187D01*
X1249708Y505522D01*
X1248738Y505770D01*
X1247749Y505929D01*
X1246750Y505997D01*
X1245749Y505974D01*
X1244755Y505861D01*
X1243774Y505657D01*
X1242816Y505365D01*
X1241889Y504987D01*
X1241000Y504526D01*
X1240156Y503987D01*
X1239366Y503373D01*
X1238634Y502689D01*
X1237967Y501942D01*
X1237371Y501137D01*
X1236851Y500282D01*
X1236411Y499382D01*
X1236054Y498447D01*
X1235784Y497483D01*
X1235602Y496498D01*
X1235511Y495501D01*
Y494499D01*
X1235602Y493502D01*
X1235784Y492517D01*
X1236054Y491553D01*
X1236411Y490618D01*
X1236851Y489718D01*
X1237371Y488863D01*
X1237967Y488058D01*
X1238634Y487311D01*
X1239366Y486627D01*
X1240156Y486013D01*
X1241000Y485474D01*
X1241889Y485013D01*
X1242816Y484635D01*
X1243774Y484343D01*
X1244755Y484139D01*
X1245749Y484026D01*
X1246750Y484003D01*
X1247749Y484071D01*
X1248738Y484230D01*
X1249708Y484478D01*
X1250652Y484813D01*
X1251561Y485233D01*
X1252428Y485734D01*
X1253246Y486311D01*
X1254008Y486961D01*
X1254708Y487677D01*
X1255340Y488454D01*
X1255899Y489285D01*
X1256379Y490163D01*
X1256778Y491081D01*
X1257092Y492032D01*
X1257318Y493008D01*
X1257454Y494000D01*
X1257500Y495000D01*
X986500Y828500D02*
X986454Y829500D01*
X986318Y830492D01*
X986092Y831468D01*
X985778Y832419D01*
X985379Y833337D01*
X984899Y834215D01*
X984340Y835046D01*
X983708Y835823D01*
X983008Y836539D01*
X982246Y837189D01*
X981428Y837766D01*
X980561Y838267D01*
X979652Y838686D01*
X978708Y839022D01*
X977738Y839270D01*
X976749Y839429D01*
X975750Y839497D01*
X974749Y839474D01*
X973755Y839361D01*
X972774Y839157D01*
X971816Y838865D01*
X970889Y838487D01*
X970000Y838026D01*
X969156Y837487D01*
X968366Y836873D01*
X967634Y836189D01*
X966967Y835442D01*
X966371Y834637D01*
X965851Y833782D01*
X965411Y832882D01*
X965054Y831947D01*
X964784Y830983D01*
X964602Y829998D01*
X964511Y829001D01*
Y827999D01*
X964602Y827002D01*
X964784Y826017D01*
X965054Y825053D01*
X965411Y824118D01*
X965851Y823218D01*
X966371Y822363D01*
X966967Y821558D01*
X967634Y820811D01*
X968366Y820127D01*
X969156Y819513D01*
X970000Y818974D01*
X970889Y818513D01*
X971816Y818135D01*
X972774Y817843D01*
X973755Y817639D01*
X974749Y817526D01*
X975750Y817503D01*
X976749Y817571D01*
X977738Y817730D01*
X978708Y817978D01*
X979652Y818314D01*
X980561Y818733D01*
X981428Y819234D01*
X982246Y819811D01*
X983008Y820461D01*
X983708Y821177D01*
X984340Y821954D01*
X984899Y822785D01*
X985379Y823663D01*
X985778Y824581D01*
X986092Y825532D01*
X986318Y826508D01*
X986454Y827500D01*
X986500Y828500D01*
X1027500Y722000D02*
X1055500D01*
X1198000Y475000D02*
Y575000D01*
Y475000D02*
X1215000D01*
Y575000D01*
X1211500D02*
X1215000D01*
X1198000D02*
X1201500D01*
X693000Y480000D02*
Y680000D01*
Y480000D02*
X740000D01*
Y680000D01*
X721500D02*
X740000D01*
X693000D02*
X711500D01*
X960500Y790000D02*
X964000D01*
X974000D02*
X977500D01*
Y710000D02*
Y790000D01*
X960500Y710000D02*
X977500D01*
X960500D02*
Y790000D01*
X930500Y530000D02*
Y670000D01*
Y530000D02*
X977500D01*
Y670000D01*
X959000D02*
X977500D01*
X930500D02*
X949000D01*
X825500D02*
X844000D01*
X854000D02*
X872500D01*
Y530000D02*
Y670000D01*
X825500Y530000D02*
X872500D01*
X825500D02*
Y670000D01*
X1118000Y475000D02*
Y575000D01*
Y475000D02*
X1135000D01*
Y575000D01*
X1131500D02*
X1135000D01*
X1118000D02*
X1121500D01*
X1118000Y615000D02*
Y715000D01*
Y615000D02*
X1135000D01*
Y715000D01*
X1131500D02*
X1135000D01*
X1118000D02*
X1121500D01*
X1118000Y745000D02*
Y845000D01*
Y745000D02*
X1135000D01*
Y845000D01*
X1131500D02*
X1135000D01*
X1118000D02*
X1121500D01*
X985500Y849500D02*
X1097000D01*
X985500Y884500D02*
X1097000D01*
X1031500Y849500D02*
Y853000D01*
X1051500D01*
Y849500D02*
Y853000D01*
X985500Y849500D02*
Y884500D01*
X1097000Y849500D02*
Y884500D01*
X1006500Y846500D02*
X1011500Y841500D01*
X1001500D02*
X1011500D01*
X1001500D02*
X1006500Y846500D01*
X960500Y490000D02*
X964000D01*
X974000D02*
X977500D01*
Y420000D02*
Y490000D01*
X960500Y420000D02*
X977500D01*
X960500D02*
Y490000D01*
X890500Y790000D02*
X894000D01*
X904000D02*
X907500D01*
Y710000D02*
Y790000D01*
X890500Y710000D02*
X907500D01*
X890500D02*
Y790000D01*
X613000Y665000D02*
X618000Y670000D01*
X613000Y665000D02*
Y675000D01*
X618000Y670000D01*
X769000Y500000D02*
Y525000D01*
X780500Y500500D02*
Y523500D01*
X793000Y500000D02*
Y516000D01*
X806500Y500500D02*
Y529500D01*
X819000Y501000D02*
Y517500D01*
X627000Y802500D02*
Y842500D01*
X658000D01*
Y802500D02*
Y842500D01*
X627000Y802500D02*
X658000D01*
X624500Y837500D02*
X627000D01*
X624500Y827500D02*
Y837500D01*
Y827500D02*
X627000D01*
X624500Y817500D02*
X627000D01*
X624500Y807500D02*
Y817500D01*
Y807500D02*
X627000D01*
D48*
X1459500Y636500D02*
Y644500D01*
X1483500D01*
Y636500D02*
Y644500D01*
X1459500Y636500D02*
X1483500D01*
Y651000D02*
Y659000D01*
X1459500Y651000D02*
X1483500D01*
X1459500D02*
Y659000D01*
X1483500D01*
X1483000Y690000D02*
Y698000D01*
X1459000Y690000D02*
X1483000D01*
X1459000D02*
Y698000D01*
X1483000D01*
X1011000Y467000D02*
X1019000D01*
Y443000D02*
Y467000D01*
X1011000Y443000D02*
X1019000D01*
X1011000D02*
Y467000D01*
X998500D02*
X1006500D01*
Y443000D02*
Y467000D01*
X998500Y443000D02*
X1006500D01*
X998500D02*
Y467000D01*
X937500Y477000D02*
X945500D01*
Y453000D02*
Y477000D01*
X937500Y453000D02*
X945500D01*
X937500D02*
Y477000D01*
X925000D02*
X933000D01*
Y453000D02*
Y477000D01*
X925000Y453000D02*
X933000D01*
X925000D02*
Y477000D01*
X1099500Y453500D02*
Y461500D01*
X1123500D01*
Y453500D02*
Y461500D01*
X1099500Y453500D02*
X1123500D01*
X903500Y815500D02*
X911500D01*
X903500D02*
Y839500D01*
X911500D01*
Y815500D02*
Y839500D01*
X1483500Y626000D02*
Y634000D01*
X1459500Y626000D02*
X1483500D01*
X1459500D02*
Y634000D01*
X1483500D01*
X770000Y487000D02*
X778000D01*
Y463000D02*
Y487000D01*
X770000Y463000D02*
X778000D01*
X770000D02*
Y487000D01*
X782500D02*
X790500D01*
Y463000D02*
Y487000D01*
X782500Y463000D02*
X790500D01*
X782500D02*
Y487000D01*
X795000D02*
X803000D01*
Y463000D02*
Y487000D01*
X795000Y463000D02*
X803000D01*
X795000D02*
Y487000D01*
X807500D02*
X815500D01*
Y463000D02*
Y487000D01*
X807500Y463000D02*
X815500D01*
X807500D02*
Y487000D01*
X820000D02*
X828000D01*
Y463000D02*
Y487000D01*
X820000Y463000D02*
X828000D01*
X820000D02*
Y487000D01*
X1548500Y737000D02*
X1556500D01*
Y713000D02*
Y737000D01*
X1548500Y713000D02*
X1556500D01*
X1548500D02*
Y737000D01*
X1488500Y713000D02*
X1496500D01*
X1488500D02*
Y737000D01*
X1496500D01*
Y713000D02*
Y737000D01*
X1418500Y713000D02*
X1426500D01*
X1418500D02*
Y737000D01*
X1426500D01*
Y713000D02*
Y737000D01*
X1358500Y713000D02*
X1366500D01*
X1358500D02*
Y737000D01*
X1366500D01*
Y713000D02*
Y737000D01*
X1298500Y713000D02*
X1306500D01*
X1298500D02*
Y737000D01*
X1306500D01*
Y713000D02*
Y737000D01*
X1238500Y713000D02*
X1246500D01*
X1238500D02*
Y737000D01*
X1246500D01*
Y713000D02*
Y737000D01*
X705000Y770000D02*
Y780000D01*
X690000D02*
X710000D01*
Y770000D02*
Y780000D01*
X690000Y770000D02*
X710000D01*
X690000D02*
Y780000D01*
X1459500Y671500D02*
Y679500D01*
X1483500D01*
Y671500D02*
Y679500D01*
X1459500Y671500D02*
X1483500D01*
X695000Y732500D02*
Y742500D01*
X690000Y732500D02*
X710000D01*
X690000D02*
Y742500D01*
X710000D01*
Y732500D02*
Y742500D01*
X695000Y757500D02*
Y767500D01*
X690000Y757500D02*
X710000D01*
X690000D02*
Y767500D01*
X710000D01*
Y757500D02*
Y767500D01*
X705000Y745000D02*
Y755000D01*
X690000D02*
X710000D01*
Y745000D02*
Y755000D01*
X690000Y745000D02*
X710000D01*
X690000D02*
Y755000D01*
D49*
X1253500Y661500D02*
X1256500Y669000D01*
X1253500Y661500D02*
X1261000Y664500D01*
X1253500Y667500D02*
X1261000Y664500D01*
X1253500Y667500D02*
X1256500Y660000D01*
X1259500Y667500D01*
X1252000Y664500D02*
X1259500Y667500D01*
X1252000Y664500D02*
X1259500Y661500D01*
X1256500Y669000D02*
X1259500Y661500D01*
X1253500D02*
X1259500Y667500D01*
X1253500D02*
X1259500Y661500D01*
X1252000Y664500D02*
X1261000D01*
X1256500Y660000D02*
Y669000D01*
X1259000Y636500D02*
X1262000Y644000D01*
X1259000Y636500D02*
X1266500Y639500D01*
X1259000Y642500D02*
X1266500Y639500D01*
X1259000Y642500D02*
X1262000Y635000D01*
X1265000Y642500D01*
X1257500Y639500D02*
X1265000Y642500D01*
X1257500Y639500D02*
X1265000Y636500D01*
X1262000Y644000D02*
X1265000Y636500D01*
X1259000D02*
X1265000Y642500D01*
X1259000D02*
X1265000Y636500D01*
X1257500Y639500D02*
X1266500D01*
X1262000Y635000D02*
Y644000D01*
X1243000Y630500D02*
X1247000Y632000D01*
X1244000Y629000D02*
X1245500Y633000D01*
X1243000Y630500D02*
X1248000D01*
X1243000D02*
X1247000Y629000D01*
X1245500Y633000D02*
X1247000Y629000D01*
X1244000Y632000D02*
X1248000Y630500D01*
X1244000Y629000D02*
X1248000Y630500D01*
X1244000Y632000D02*
X1245500Y628000D01*
X1247000Y632000D01*
X1244000Y629000D02*
X1247000Y632000D01*
X1244000D02*
X1247000Y629000D01*
X1245500Y628000D02*
Y633000D01*
X1224000Y654500D02*
X1227000Y662000D01*
X1224000Y654500D02*
X1231500Y657500D01*
X1224000Y660500D02*
X1231500Y657500D01*
X1224000Y660500D02*
X1227000Y653000D01*
X1230000Y660500D01*
X1222500Y657500D02*
X1230000Y660500D01*
X1222500Y657500D02*
X1230000Y654500D01*
X1227000Y662000D02*
X1230000Y654500D01*
X1224000D02*
X1230000Y660500D01*
X1224000D02*
X1230000Y654500D01*
X1222500Y657500D02*
X1231500D01*
X1227000Y653000D02*
Y662000D01*
X1218000Y617000D02*
X1221000Y624500D01*
X1218000Y617000D02*
X1225500Y620000D01*
X1218000Y623000D02*
X1225500Y620000D01*
X1218000Y623000D02*
X1221000Y615500D01*
X1224000Y623000D01*
X1216500Y620000D02*
X1224000Y623000D01*
X1216500Y620000D02*
X1224000Y617000D01*
X1221000Y624500D02*
X1224000Y617000D01*
X1218000D02*
X1224000Y623000D01*
X1218000D02*
X1224000Y617000D01*
X1216500Y620000D02*
X1225500D01*
X1221000Y615500D02*
Y624500D01*
D50*
X633499Y851998D02*
X631833D01*
X631000Y851165D01*
Y847833D01*
X631833Y847000D01*
X633499D01*
X634332Y847833D01*
Y851165D01*
X633499Y851998D01*
X635998D02*
Y847833D01*
X636831Y847000D01*
X638498D01*
X639331Y847833D01*
Y851998D01*
X640997D02*
X644329D01*
X642663D01*
Y847000D01*
X645995D02*
Y851998D01*
X648494D01*
X649327Y851165D01*
Y849499D01*
X648494Y848666D01*
X645995D01*
X650993Y851998D02*
Y847833D01*
X651827Y847000D01*
X653493D01*
X654326Y847833D01*
Y851998D01*
X655992D02*
X659324D01*
X657658D01*
Y847000D01*
X631000Y859498D02*
Y855333D01*
X631833Y854500D01*
X633499D01*
X634332Y855333D01*
Y859498D01*
X635998Y854500D02*
Y859498D01*
X639331Y854500D01*
Y859498D01*
X640997Y854500D02*
Y859498D01*
X643496D01*
X644329Y858665D01*
Y856999D01*
X643496Y856166D01*
X640997D01*
X642663D02*
X644329Y854500D01*
X649327Y859498D02*
X645995D01*
Y854500D01*
X649327D01*
X645995Y856999D02*
X647661D01*
X654326Y858665D02*
X653493Y859498D01*
X651827D01*
X650993Y858665D01*
Y855333D01*
X651827Y854500D01*
X653493D01*
X654326Y855333D01*
Y856999D01*
X652660D01*
X655992Y859498D02*
Y855333D01*
X656825Y854500D01*
X658491D01*
X659324Y855333D01*
Y859498D01*
X660990D02*
Y854500D01*
X664323D01*
X665989D02*
Y857832D01*
X667655Y859498D01*
X669321Y857832D01*
Y854500D01*
Y856999D01*
X665989D01*
X670987Y859498D02*
X674319D01*
X672653D01*
Y854500D01*
X679318Y859498D02*
X675985D01*
Y854500D01*
X679318D01*
X675985Y856999D02*
X677652D01*
X680984Y859498D02*
Y854500D01*
X683483D01*
X684316Y855333D01*
Y858665D01*
X683483Y859498D01*
X680984D01*
D51*
X1237500Y787500D02*
D03*
X1297500D02*
D03*
X1357500D02*
D03*
X1417500D02*
D03*
X1487500D02*
D03*
X1547500D02*
D03*
D52*
X1221000Y620000D02*
D03*
X1227000Y657500D02*
D03*
X1262000Y639500D02*
D03*
X1256500Y664500D02*
D03*
D53*
X1221000Y617250D02*
D03*
X1227000Y654750D02*
D03*
X1262000Y636750D02*
D03*
X1256500Y661750D02*
D03*
D54*
X1218500Y620000D02*
D03*
X1221000Y623000D02*
D03*
X1224500Y657500D02*
D03*
X1227000Y660500D02*
D03*
X1259500Y639500D02*
D03*
X1262000Y642500D02*
D03*
X1254000Y664500D02*
D03*
X1256500Y667500D02*
D03*
D55*
X1223000Y620000D02*
D03*
X1229000Y657500D02*
D03*
X1264000Y639500D02*
D03*
X1258500Y664500D02*
D03*
M02*
