M48
;Layer_Color=9474304
;FILE_FORMAT=2:5
INCH,TZ
;TYPE=PLATED
T1F00S00C0.02800
T2F00S00C0.03100
T3F00S00C0.03900
T4F00S00C0.04500
T6F00S00C0.05500
T7F00S00C0.12500
%
T01
X674000Y460000
X1179000Y505000
Y531500
X1154000Y532500
X1164000Y545000
Y595000
X1161500Y610000
X1154000Y585000
X1099000Y607500
X1091500Y597500
X1084000Y587500
X1076500Y577500
X1069000Y567500
X1061500Y557500
X1054000Y547500
X1046500Y537500
X1031500Y540000
Y559000
X1024000Y552500
X1014000Y562500
Y582500
X1006500Y575000
Y595000
X1024000Y572500
X1039000Y515000
X996500Y514000
X940500Y522000
X912500Y515000
X905000Y590000
X894500
X801500Y621000
X789000Y609500
Y528500
X779000Y530000
X771500Y536000
X764000Y547500
X756500Y560000
Y580000
X764000Y600000
X779000Y600500
Y589000
Y569000
Y560000
X771500Y622500
X659000Y560000
X666500Y495000
X674000Y625000
X659000Y690000
X666500Y700000
X764000Y715000
X756500Y722500
X771500Y707500
X779000Y675000
X756500Y660000
X764000Y650000
X771500Y640000
X794000Y641500
Y655000
X786500Y662500
X801500Y672500
X809000Y690000
X784000
X831500Y680000
Y755000
X784000
X786500Y627500
X912500Y652500
X905000Y704500
X894500Y698500
X954000Y705000
Y680000
X1001500Y727500
X1046500Y747500
X1054000Y740000
X1069000
X1084000
X1076500Y747500
X1061500
X1091500
Y690000
X1084000Y680000
X1076500Y670000
X1069000Y660000
X1061500Y650000
X1054000Y640000
X1046500Y632500
X1039000Y642500
X996500Y625000
X1046500Y777500
X1099000Y740000
Y700000
X1151500Y710000
X1161500
X1547500Y762500
X1562500Y830000
X1166500Y826000
X1151500Y840000
X1166500Y856000
X1099000Y827500
X1091500Y822500
X1084000Y815000
X1076500Y807500
X1069000Y800000
X1061500Y792500
X1054000Y785000
X1001500Y784500
X994500Y850000
X1091500
T02
X774000Y455000
X786500
X799000
X811500
X824000
X886500
X896500
X914000
X929000Y445000
X941500
X954000
Y435000
Y425000
X984000
Y435000
Y445000
Y455000
Y465000
X954000
Y455000
X1002500Y435000
X1015000
X1012500Y420000
X1002500
X1091500
Y430000
Y457500
X1131500
X1116500Y430000
Y420000
X1251500Y495000
Y515000
X1241500
Y495000
X1221500Y490000
Y480000
Y500000
Y510000
Y520000
Y530000
Y540000
Y550000
Y560000
Y570000
X1191500
Y560000
Y550000
Y540000
Y530000
Y520000
Y510000
Y500000
Y490000
Y480000
X1141500
Y490000
Y500000
Y510000
Y520000
Y530000
Y540000
Y550000
Y560000
Y570000
Y595000
X1131500
X1141500Y620000
X1111500
Y570000
Y560000
Y550000
Y540000
Y530000
Y520000
Y510000
Y500000
Y490000
Y480000
X1015000Y475000
X1002500
X984000
Y485000
X954000
Y475000
X941500Y485000
X984000Y535000
Y545000
Y555000
Y565000
Y575000
Y585000
Y595000
Y605000
Y615000
X924000
Y605000
Y595000
Y585000
Y575000
Y565000
Y555000
Y545000
Y535000
X879000
Y545000
Y555000
Y565000
Y575000
Y585000
Y595000
Y605000
Y615000
X819000
Y605000
Y595000
Y585000
Y575000
Y565000
Y555000
Y545000
Y535000
X824000Y495000
X811500
X799000
X786500
X886500Y475000
X896500
X914000
X929000Y485000
X774000Y495000
X746500
Y485000
Y505000
Y515000
Y525000
Y535000
Y545000
Y555000
Y565000
Y575000
Y585000
Y595000
Y605000
Y615000
X686500
Y605000
Y595000
Y585000
Y575000
Y565000
Y555000
Y545000
Y535000
Y525000
Y515000
Y505000
Y495000
Y485000
Y625000
Y635000
Y645000
Y655000
Y665000
Y675000
X746500
Y665000
Y655000
Y645000
Y635000
Y625000
X661500Y710000
Y720000
X815000Y750000
Y760000
X884000Y755000
Y745000
Y735000
Y725000
Y715000
Y690000
Y680000
X879000Y665000
Y655000
Y645000
Y635000
Y625000
X924000
Y635000
Y645000
Y655000
Y665000
X914000Y715000
Y725000
Y735000
Y745000
Y755000
Y765000
Y775000
X884000
Y765000
X819000Y665000
Y655000
Y645000
Y635000
Y625000
X984000
Y635000
Y645000
Y655000
Y665000
Y715000
Y725000
Y735000
Y745000
Y755000
Y765000
Y775000
X954000
Y765000
Y755000
Y745000
Y735000
Y725000
Y715000
X1111500Y710000
Y700000
Y690000
Y680000
Y670000
Y660000
Y650000
Y640000
Y630000
X1141500
Y640000
Y650000
Y660000
Y670000
Y680000
Y690000
Y700000
Y710000
Y725000
X1131500
X1141500Y750000
Y760000
Y770000
Y780000
X1111500
Y770000
Y760000
Y750000
X1177500Y745000
Y735000
Y725000
Y755000
Y765000
Y775000
X1197500
X1207500
X1217500
X1227500
X1237500
X1242500Y745000
X1224500Y748000
X1217500Y755000
Y741000
X1242500Y705000
X1302500
Y745000
X1284500Y748000
X1277500Y741000
Y755000
Y775000
X1267500
X1257500
X1287500
X1297500
X1317500
X1327500
X1337500
X1347500
X1357500
X1377500
X1387500
X1397500
Y755000
X1404500Y748000
X1397500Y741000
X1362500Y745000
X1344500Y748000
X1337500Y755000
Y741000
X1362500Y705000
X1396500Y680000
Y655000
X1451500
Y640500
Y630000
X1491500
Y640500
Y655000
X1506500
Y665000
X1491000Y685000
X1492500Y705000
Y745000
X1474500Y748000
X1467500Y755000
Y741000
Y775000
X1477500
X1487500
X1507500
X1517500
X1527500
X1537500
X1547500
X1552500Y745000
X1534500Y748000
X1527500Y741000
Y755000
X1552500Y705000
X1451000Y685000
X1439000
X1432000Y692000
Y678000
X1422500Y705000
Y745000
X1417500Y775000
X1407500
X1447500
X1457500
Y835000
X1447500
X1467500
X1477500
X1487500
X1507500
X1517500
X1527500
X1537500
X1547500
X1417500
X1407500
X1397500
X1387500
X1377500
X1357500
X1347500
X1337500
X1327500
X1317500
X1297500
X1287500
X1277500
X1267500
X1257500
X1237500
X1227500
X1217500
X1207500
X1197500
X1177500Y836000
Y826000
Y816000
Y806000
Y795000
Y785000
X1141500Y790000
Y800000
Y810000
Y820000
Y830000
Y840000
X1146500Y862000
X1136500
X1177500Y866000
Y876000
Y856000
Y846000
X1111500Y840000
Y830000
Y820000
Y810000
Y800000
Y790000
X984000Y785000
X954000
X975500Y835000
X985500
X884000Y847500
Y807500
Y785000
X914000
T03
X834000Y430000
X844000
X854000
X1046000Y435000
X1056000Y455000
X1036000
X1156500Y457500
X1176500
Y437500
Y427500
X1156500
Y437500
X1289000
Y427500
X1309000
Y437500
Y457500
X1289000
X1339000
Y437500
Y427500
X1359000
Y437500
Y457500
X1389000
Y437500
Y427500
X1409000
Y437500
Y457500
X1439000
Y437500
Y427500
X1459000
Y437500
Y457500
X1489000
X1509000
Y437500
Y427500
X1489000
Y437500
Y477500
Y487500
X1509000
Y477500
Y507500
Y527500
Y537500
Y557500
Y577500
Y587500
X1489000
Y577500
Y557500
Y537500
Y527500
Y507500
X1459000
Y527500
Y537500
X1439000
Y527500
Y507500
Y487500
Y477500
X1459000
Y487500
X1409000
Y477500
Y507500
Y527500
Y537500
Y557500
Y577500
Y587500
Y607500
X1439000
X1459000
Y587500
Y577500
X1439000
Y587500
Y557500
X1459000
X1489000Y607500
X1509000
X1389000
Y587500
Y577500
Y557500
Y537500
Y527500
Y507500
Y487500
Y477500
X1359000
Y487500
Y507500
Y527500
Y537500
X1339000
Y527500
Y507500
Y487500
Y477500
X1309000
Y487500
X1289000
Y477500
Y507500
Y527500
Y537500
Y557500
Y577500
Y587500
X1309000
Y577500
Y557500
Y537500
Y527500
Y507500
X1339000Y557500
Y577500
Y587500
Y607500
X1359000
Y587500
Y577500
Y557500
X1309000Y607500
X1289000
X642000Y610000
Y620000
X632000
Y610000
Y600000
X642000
Y590000
X632000
Y580000
X642000
Y570000
X632000
Y560000
X642000
Y550000
X632000
Y540000
X642000
Y530000
X632000
Y520000
X642000
Y510000
X632000
Y500000
X642000
Y490000
X632000
Y480000
X642000
Y630000
Y640000
Y650000
Y660000
Y670000
X632000
Y660000
Y650000
Y640000
Y630000
X680000Y737500
Y750000
Y762500
Y775000
X720000
Y762500
Y750000
Y737500
X1560000Y685000
Y675000
Y665000
Y655000
Y645000
Y635000
X1076500Y862000
Y872000
X1066500
Y862000
X1056500
Y872000
X1046500
Y862000
X1036500
Y872000
X1026500
Y862000
X1016500
X1006500
Y872000
X1016500
X917500Y850000
Y840000
X884000Y860500
Y870500
X700000Y827500
X682000
T04
X774000Y765000
X784000
X794000
T06
X640000Y812500
Y832500
T07
X629000Y402500
X1564000
Y875000
X784000Y835000
X629000Y875000
M30
