M48
;Layer_Color=9474304
;FILE_FORMAT=2:5
INCH,TZ
;TYPE=PLATED
T1F00S00C0.02756
T2F00S00C0.03150
T3F00S00C0.03937
T5F00S00C0.04724
T6F00S00C0.05512
T7F00S00C0.12598
%
T01
X637000Y440000
X674000Y460000
X872500Y455000
X892500
X1002500Y417500
X1022500
X1091500Y410000
Y430000
X1175500Y477500
Y497500
X1164000Y545000
Y585000
X1161500Y610000
X1141500Y595000
X1121500
X1099000Y607500
X1091500Y597500
X1084000Y587500
X1076500Y577500
X1069000Y567500
X1061500Y557500
X1054000Y547500
X1046500Y537500
X1031500Y540000
Y559000
X1024000Y552500
X1014000Y562500
Y582500
X1006500Y575000
Y595000
X1024000Y572500
X1039000Y515000
X996500Y514000
X910000Y515000
X892500Y475000
X872500
X789000Y528500
Y609500
X800000
X801500Y621000
X894500Y590000
X902500
X779000Y589000
Y600500
X764000Y600000
X756500Y580000
Y560000
X764000Y547500
X771500Y536000
X779000Y530000
Y560000
Y569000
X771500Y622500
X659000Y560000
X666500Y495000
X674000Y625000
X659000Y690000
X666500Y699000
X637000Y710000
X732500Y700000
X756500Y725000
X764000Y718500
X771500Y711000
X779000Y675000
X756500Y660000
X764000Y650000
X771500Y640000
X794000Y641500
Y655000
X786500Y662500
X801500Y672500
X809000Y690000
X792500
Y737500
Y755000
X812500Y737500
X831500Y755000
X857500Y707500
X894500Y698500
X902500Y704500
X910000Y698000
Y678000
Y652500
X831500Y680000
X786500Y627500
X996500Y625000
X1046500Y632500
X1054000Y640000
X1039000Y642500
X1061500Y650000
X1069000Y660000
X1076500Y670000
X1084000Y680000
X1091500Y690000
X1084000Y740000
X1069000
X1054000
X1046500Y747500
X1061500
X1076500
X1091500
X1046500Y777500
X1001500Y727500
X954000Y705000
X1099000Y700000
Y740000
X1121500Y725000
X1141500
X1151500Y710000
X1161500
X1410000Y662500
X1430000
X1547500Y762500
X1562500Y830000
X1166500Y826000
X1151500Y840000
X1166500Y856000
X1099000Y827500
X1091500Y822500
X1084000Y815000
X1076500Y807500
X1069000Y800000
X1061500Y792500
X1054000Y785000
X1001500Y784500
X994000Y844500
X1091500Y845000
X832500Y840500
Y850500
Y860500
Y870500
Y880500
X822500
X812500
X802500
X792500
X782500
Y870500
X792500
X802500
X812500
X822500
Y860500
X812500
X802500
X792500
X782500
Y850500
X792500
X802500
X804500Y842500
X812500Y840500
X822500
Y850500
X812500
Y830500
X822500
X832500
Y820500
Y810500
Y800500
Y790500
X822500
Y800500
Y810500
Y820500
X812500
Y810500
Y800500
Y790500
X802500
X792500
X782500
Y800500
X792500
X802500
Y810500
Y820500
X804500Y827500
X792500Y820500
Y810500
X782500
Y820500
X857500Y797500
X772500Y800500
X762500
X752500
Y810500
Y820500
Y830500
Y840500
Y850500
Y860500
Y870500
Y880500
X762500
X772500
Y870500
X762500
Y860500
Y850500
Y840500
Y830500
Y820500
Y810500
X772500
Y820500
Y830500
Y840500
Y850500
Y860500
X781000Y842500
X780500Y827500
X772500Y790500
X762500
X752500
T02
X774000Y450000
X786500
X799000
X811500
X824000
X911500Y455000
X929000Y445000
X941500
X954000
Y435000
Y425000
X984000
Y435000
Y445000
Y455000
Y465000
X954000
Y455000
X1002500Y435000
X1015000
X1091500Y457500
X1131500
X1116500Y430000
Y420000
X1251500Y495000
X1241500
X1221500Y490000
Y480000
Y500000
Y510000
Y520000
Y530000
X1231500
Y540000
Y550000
Y560000
Y570000
X1221500
Y560000
Y550000
Y540000
X1191500
Y550000
Y560000
Y570000
Y605000
X1231500
X1141500Y620000
X1111500
Y570000
Y560000
Y550000
Y540000
Y530000
Y520000
Y510000
Y500000
Y490000
Y480000
X1141500
Y490000
Y500000
Y510000
Y520000
Y530000
Y540000
Y550000
Y560000
Y570000
X1191500Y530000
Y520000
Y510000
Y500000
Y490000
Y480000
X1015000Y475000
X1002500
X984000
Y485000
X954000
Y475000
X941500Y485000
X984000Y535000
Y545000
Y555000
Y565000
Y575000
Y585000
Y595000
Y605000
Y615000
X924000
Y605000
Y595000
Y585000
Y575000
Y565000
Y555000
Y545000
Y535000
X879000
Y545000
Y555000
Y565000
Y575000
Y585000
Y595000
Y605000
Y615000
X819000
Y605000
Y595000
Y585000
Y575000
Y565000
Y555000
Y545000
Y535000
X824000Y490000
X811500
X799000
X786500
X911500Y475000
X929000Y485000
X774000Y490000
X746500Y485000
Y495000
Y505000
Y515000
Y525000
Y535000
Y545000
Y555000
Y565000
Y575000
Y585000
Y595000
Y605000
Y615000
X686500
Y605000
Y595000
Y585000
Y575000
Y565000
Y555000
Y545000
Y535000
Y525000
Y515000
Y505000
Y495000
Y485000
Y625000
Y635000
Y645000
Y655000
Y665000
Y675000
X674000Y710000
Y720000
X746500Y675000
Y665000
Y655000
Y645000
Y635000
Y625000
X819000
Y635000
Y645000
Y655000
Y665000
X879000
Y655000
Y645000
Y635000
Y625000
X924000
Y635000
Y645000
Y655000
Y665000
X927500Y715000
X914000
Y725000
Y735000
Y745000
Y755000
Y765000
Y775000
X927500
Y755000
X884000
Y745000
Y735000
Y725000
Y715000
Y765000
Y775000
X954000
Y765000
Y755000
Y745000
Y735000
Y725000
Y715000
X984000
Y725000
Y735000
Y745000
Y755000
Y765000
Y775000
X940000Y760000
X984000Y665000
Y655000
Y645000
Y635000
Y625000
X1111500Y630000
Y640000
Y650000
Y660000
Y670000
Y680000
Y690000
Y700000
Y710000
X1141500
Y700000
Y690000
Y680000
Y670000
Y660000
Y650000
Y640000
Y630000
Y750000
Y760000
Y770000
Y780000
X1111500
Y770000
Y760000
Y750000
X1177500Y745000
Y735000
Y725000
Y755000
Y765000
Y775000
X1197500
X1207500
X1217500
X1227500
X1237500
X1242500Y747500
X1224500
X1217500Y754500
Y740500
X1242500Y707500
X1302500
Y747500
X1284500
X1277500Y740500
Y754500
Y775000
X1267500
X1257500
X1287500
X1297500
X1317500
X1327500
X1337500
X1347500
X1357500
X1377500
X1387500
X1397500
Y754500
X1404500Y747500
X1397500Y740500
X1362500Y747500
X1344500
X1337500Y754500
Y740500
X1362500Y707500
X1372500Y683000
Y658000
X1395000Y640000
X1435000
X1447500
Y665000
Y690000
X1427500Y683000
X1413500
X1420500Y690000
X1422500Y707500
Y747500
X1417500Y775000
X1407500
X1447500
X1457500
X1467500
X1477500
X1487500
X1507500
X1517500
X1527500
X1537500
X1547500
X1552500Y747500
X1534500
X1527500Y740500
Y754500
X1492500Y747500
X1474500
X1467500Y754500
Y740500
X1492500Y707500
X1487500Y690000
Y665000
Y640000
X1552500Y707500
X1547500Y835000
X1537500
X1527500
X1517500
X1507500
X1487500
X1477500
X1467500
X1457500
X1447500
X1417500
X1407500
X1397500
X1387500
X1377500
X1357500
X1347500
X1337500
X1327500
X1317500
X1297500
X1287500
X1277500
X1267500
X1257500
X1237500
X1227500
X1217500
X1207500
X1197500
X1177500Y836000
Y826000
Y816000
Y806000
Y795000
Y785000
X1141500Y790000
Y800000
Y810000
Y820000
Y830000
Y840000
X1146500Y862000
X1136500
X1177500Y866000
Y876000
Y856000
Y846000
X1111500Y840000
Y830000
Y820000
Y810000
Y800000
Y790000
X984000Y785000
X954000
X940000Y800000
X975500Y823500
Y833500
X927500Y815000
X914000Y785000
X884000
Y807500
Y847500
T03
X755000Y440000
Y450000
X880000Y432500
Y422500
Y412500
X1051000Y435000
X1061000Y455000
X1041000
X642000Y480000
Y490000
Y500000
Y510000
Y520000
Y530000
Y540000
Y550000
Y560000
Y570000
Y580000
Y590000
Y600000
Y610000
Y620000
X632000
Y610000
Y600000
Y590000
Y580000
Y570000
Y560000
Y550000
Y540000
Y530000
Y520000
Y510000
Y500000
Y490000
Y480000
Y630000
Y640000
Y650000
Y660000
Y670000
X642000
Y660000
Y650000
Y640000
Y630000
X647500Y765000
X635000
X660000
X672500
X1020000Y720000
X1525000Y685000
Y675000
Y665000
Y655000
Y645000
Y635000
X1562500
Y645000
Y655000
Y665000
Y675000
Y685000
X1076500Y862000
Y872000
X1066500
Y862000
X1056500
Y872000
X1046500
Y862000
X1036500
Y872000
X1026500
Y862000
X1016500
X1006500
Y872000
X1016500
X950500Y860500
X940500
X884000Y861000
Y871000
X719500Y787500
X701500
X672500Y805000
X660000
X647500
X635000
T05
X1157500Y429400
X1175200
Y455000
X1157500
X1290150Y455300
X1307850
Y429700
X1290150
X1340150
X1357850
Y455300
X1340150
X1390150
Y429700
X1407850
Y455300
X1440150
X1457850
Y429700
X1440150
X1490150
X1507850
Y455300
X1490150
Y479700
X1507850
Y505300
X1490150
Y529700
X1507850
Y555300
X1490150
Y579700
X1507850
Y605300
X1490150
X1457850
X1440150
Y579700
X1457850
Y555300
X1440150
Y529700
X1457850
Y505300
X1440150
Y479700
X1457850
X1407850
Y505300
Y529700
Y555300
Y579700
Y605300
X1390150
Y579700
Y555300
Y529700
Y505300
Y479700
X1357850
X1340150
Y505300
X1357850
Y529700
X1340150
Y555300
X1357850
Y579700
X1340150
Y605300
X1357850
X1307850
X1290150
Y579700
X1307850
Y555300
X1290150
Y529700
X1307850
Y505300
X1290150
Y479700
X1307850
X802500Y765000
X792500
X782500
T06
X706500Y860000
X726500
T07
X629000Y402500
X1564000
Y875000
X792500Y835000
X629000Y875000
M30
