G04 Layer_Color=255*
%FSLAX25Y25*%
%MOIN*%
G70*
G01*
G75*
%ADD16O,0.19700X0.09800*%
%ADD17O,0.09800X0.19700*%
%ADD18C,0.08000*%
%ADD19R,0.08000X0.08000*%
%ADD20C,0.06500*%
%ADD21C,0.17716*%
%ADD22R,0.07000X0.09000*%
%ADD23C,0.25000*%
%ADD24C,0.07600*%
%ADD25O,0.08000X0.07600*%
%ADD26R,0.08000X0.08500*%
%ADD27C,0.09000*%
%ADD28C,0.07500*%
%ADD29C,0.12000*%
%ADD30R,0.06000X0.07500*%
%ADD31O,0.06000X0.08500*%
%ADD32R,0.10000X0.05000*%
%ADD33O,0.10000X0.05000*%
%ADD34R,0.08000X0.06500*%
%ADD35O,0.10000X0.06000*%
%ADD36R,0.10000X0.07000*%
%ADD37C,0.10000*%
%ADD38C,0.12500*%
%ADD39O,0.05000X0.12000*%
%ADD40O,0.06000X0.12000*%
%ADD41C,0.11000*%
%ADD42R,0.07000X0.06000*%
%ADD43O,0.08500X0.06000*%
%ADD44C,0.06693*%
D16*
X672500Y869500D02*
D03*
Y844900D02*
D03*
D17*
X651300Y854700D02*
D03*
D18*
X1562500Y635000D02*
D03*
Y645000D02*
D03*
Y655000D02*
D03*
Y675000D02*
D03*
Y665000D02*
D03*
X1525000D02*
D03*
Y675000D02*
D03*
Y655000D02*
D03*
Y645000D02*
D03*
Y635000D02*
D03*
X755000Y440000D02*
D03*
Y450000D02*
D03*
X884000Y871000D02*
D03*
Y861000D02*
D03*
X1020000Y720000D02*
D03*
D19*
X1562500Y685000D02*
D03*
X1525000D02*
D03*
D20*
X1231500Y570000D02*
D03*
Y530000D02*
D03*
Y540000D02*
D03*
Y550000D02*
D03*
Y560000D02*
D03*
X1410000Y662500D02*
D03*
X1430000D02*
D03*
X1002500Y417500D02*
D03*
X1022500D02*
D03*
X892500Y455000D02*
D03*
X872500D02*
D03*
X892500Y475000D02*
D03*
X872500D02*
D03*
X1091500Y430000D02*
D03*
Y410000D02*
D03*
X1175500Y497500D02*
D03*
Y477500D02*
D03*
X1141500Y595000D02*
D03*
X1121500D02*
D03*
X910000Y678000D02*
D03*
Y698000D02*
D03*
X1141500Y725000D02*
D03*
X1121500D02*
D03*
X812500Y737500D02*
D03*
X792500D02*
D03*
D21*
Y835000D02*
D03*
D22*
X802500Y765000D02*
D03*
X792500D02*
D03*
X782500D02*
D03*
D23*
X629000Y402500D02*
D03*
Y875000D02*
D03*
X1564000D02*
D03*
Y402500D02*
D03*
D24*
X635000Y765000D02*
D03*
Y805000D02*
D03*
X660000Y765000D02*
D03*
Y805000D02*
D03*
X647500D02*
D03*
Y765000D02*
D03*
X672500Y805000D02*
D03*
Y765000D02*
D03*
X880000Y412500D02*
D03*
Y422500D02*
D03*
Y432500D02*
D03*
D25*
X940500Y860500D02*
D03*
D26*
X950500D02*
D03*
D27*
X1061000Y455000D02*
D03*
X1041000D02*
D03*
X1051000Y435000D02*
D03*
D28*
X1177500Y795000D02*
D03*
Y785000D02*
D03*
Y775000D02*
D03*
Y725000D02*
D03*
Y735000D02*
D03*
Y745000D02*
D03*
Y755000D02*
D03*
Y765000D02*
D03*
Y876000D02*
D03*
Y866000D02*
D03*
Y856000D02*
D03*
Y806000D02*
D03*
Y816000D02*
D03*
Y826000D02*
D03*
Y836000D02*
D03*
Y846000D02*
D03*
X1191500Y605000D02*
D03*
X1231500D02*
D03*
X1076500Y872000D02*
D03*
X1066500D02*
D03*
X1056500D02*
D03*
X1046500D02*
D03*
X1036500D02*
D03*
X1026500D02*
D03*
X1016500D02*
D03*
X1006500D02*
D03*
X1395000Y640000D02*
D03*
X1435000D02*
D03*
X1447500Y690000D02*
D03*
X1487500D02*
D03*
X1015000Y435000D02*
D03*
Y475000D02*
D03*
X1002500Y435000D02*
D03*
Y475000D02*
D03*
X941500Y445000D02*
D03*
Y485000D02*
D03*
X929000Y445000D02*
D03*
Y485000D02*
D03*
X1131500Y457500D02*
D03*
X1091500D02*
D03*
X884000Y847500D02*
D03*
Y807500D02*
D03*
X1447500Y640000D02*
D03*
X1487500D02*
D03*
X674000Y720000D02*
D03*
Y710000D02*
D03*
X975500Y833500D02*
D03*
Y823500D02*
D03*
X1146500Y862000D02*
D03*
X1136500D02*
D03*
X1116500Y420000D02*
D03*
Y430000D02*
D03*
X1241500Y495000D02*
D03*
X1251500D02*
D03*
X774000Y450000D02*
D03*
Y490000D02*
D03*
X786500Y450000D02*
D03*
Y490000D02*
D03*
X799000Y450000D02*
D03*
Y490000D02*
D03*
X811500Y450000D02*
D03*
Y490000D02*
D03*
X824000Y450000D02*
D03*
Y490000D02*
D03*
X1552500Y707500D02*
D03*
Y747500D02*
D03*
X1534500D02*
D03*
X1527500Y740500D02*
D03*
Y754500D02*
D03*
X1492500Y747500D02*
D03*
Y707500D02*
D03*
X1467500Y754500D02*
D03*
Y740500D02*
D03*
X1474500Y747500D02*
D03*
X1422500D02*
D03*
Y707500D02*
D03*
X1404500Y747500D02*
D03*
X1397500Y740500D02*
D03*
Y754500D02*
D03*
X1362500Y747500D02*
D03*
Y707500D02*
D03*
X1337500Y754500D02*
D03*
Y740500D02*
D03*
X1344500Y747500D02*
D03*
X1302500D02*
D03*
Y707500D02*
D03*
X1284500Y747500D02*
D03*
X1277500Y740500D02*
D03*
Y754500D02*
D03*
X1242500Y747500D02*
D03*
Y707500D02*
D03*
X1217500Y754500D02*
D03*
Y740500D02*
D03*
X1224500Y747500D02*
D03*
X1487500Y665000D02*
D03*
X1447500D02*
D03*
X632000Y660000D02*
D03*
Y650000D02*
D03*
Y640000D02*
D03*
Y630000D02*
D03*
Y620000D02*
D03*
Y610000D02*
D03*
Y600000D02*
D03*
Y590000D02*
D03*
Y580000D02*
D03*
Y570000D02*
D03*
Y560000D02*
D03*
Y550000D02*
D03*
Y540000D02*
D03*
Y530000D02*
D03*
Y520000D02*
D03*
Y510000D02*
D03*
Y500000D02*
D03*
Y490000D02*
D03*
Y480000D02*
D03*
X1413500Y683000D02*
D03*
X1427500D02*
D03*
X1420500Y690000D02*
D03*
X940000Y760000D02*
D03*
Y800000D02*
D03*
X927500Y775000D02*
D03*
Y815000D02*
D03*
Y755000D02*
D03*
Y715000D02*
D03*
D29*
X701500Y787500D02*
D03*
X719500D02*
D03*
D30*
X1006500Y862000D02*
D03*
D31*
X1076500D02*
D03*
X1066500D02*
D03*
X1056500D02*
D03*
X1046500D02*
D03*
X1036500D02*
D03*
X1026500D02*
D03*
X1016500D02*
D03*
D32*
X686500Y675000D02*
D03*
X1111500Y840000D02*
D03*
Y710000D02*
D03*
Y570000D02*
D03*
X1191500D02*
D03*
D33*
X686500Y665000D02*
D03*
Y655000D02*
D03*
Y645000D02*
D03*
Y635000D02*
D03*
Y625000D02*
D03*
Y615000D02*
D03*
Y605000D02*
D03*
Y595000D02*
D03*
Y585000D02*
D03*
Y575000D02*
D03*
Y565000D02*
D03*
Y555000D02*
D03*
Y545000D02*
D03*
Y535000D02*
D03*
Y525000D02*
D03*
Y515000D02*
D03*
Y505000D02*
D03*
Y495000D02*
D03*
Y485000D02*
D03*
X746500D02*
D03*
Y495000D02*
D03*
Y505000D02*
D03*
Y515000D02*
D03*
Y525000D02*
D03*
Y535000D02*
D03*
Y545000D02*
D03*
Y555000D02*
D03*
Y565000D02*
D03*
Y575000D02*
D03*
Y585000D02*
D03*
Y595000D02*
D03*
Y605000D02*
D03*
Y615000D02*
D03*
Y625000D02*
D03*
Y635000D02*
D03*
Y645000D02*
D03*
Y655000D02*
D03*
Y665000D02*
D03*
Y675000D02*
D03*
X879000Y665000D02*
D03*
Y655000D02*
D03*
Y645000D02*
D03*
Y635000D02*
D03*
Y625000D02*
D03*
Y615000D02*
D03*
Y605000D02*
D03*
Y595000D02*
D03*
Y585000D02*
D03*
Y575000D02*
D03*
Y565000D02*
D03*
Y555000D02*
D03*
Y545000D02*
D03*
Y535000D02*
D03*
X819000D02*
D03*
Y545000D02*
D03*
Y555000D02*
D03*
Y565000D02*
D03*
Y575000D02*
D03*
Y585000D02*
D03*
Y595000D02*
D03*
Y605000D02*
D03*
Y615000D02*
D03*
Y625000D02*
D03*
Y635000D02*
D03*
Y645000D02*
D03*
Y655000D02*
D03*
X924000D02*
D03*
Y645000D02*
D03*
Y635000D02*
D03*
Y625000D02*
D03*
Y615000D02*
D03*
Y605000D02*
D03*
Y595000D02*
D03*
Y585000D02*
D03*
Y575000D02*
D03*
Y565000D02*
D03*
Y555000D02*
D03*
Y545000D02*
D03*
Y535000D02*
D03*
X984000D02*
D03*
Y545000D02*
D03*
Y555000D02*
D03*
Y565000D02*
D03*
Y575000D02*
D03*
Y585000D02*
D03*
Y595000D02*
D03*
Y605000D02*
D03*
Y615000D02*
D03*
Y625000D02*
D03*
Y635000D02*
D03*
Y645000D02*
D03*
Y655000D02*
D03*
Y665000D02*
D03*
Y465000D02*
D03*
Y455000D02*
D03*
X884000Y755000D02*
D03*
Y765000D02*
D03*
X954000Y755000D02*
D03*
Y765000D02*
D03*
X1111500Y830000D02*
D03*
Y820000D02*
D03*
Y810000D02*
D03*
Y800000D02*
D03*
Y790000D02*
D03*
Y780000D02*
D03*
Y770000D02*
D03*
Y760000D02*
D03*
Y750000D02*
D03*
X1141500D02*
D03*
Y760000D02*
D03*
Y770000D02*
D03*
Y780000D02*
D03*
Y790000D02*
D03*
Y800000D02*
D03*
Y810000D02*
D03*
Y820000D02*
D03*
Y830000D02*
D03*
Y840000D02*
D03*
X1111500Y700000D02*
D03*
Y690000D02*
D03*
Y680000D02*
D03*
Y670000D02*
D03*
Y660000D02*
D03*
Y650000D02*
D03*
Y640000D02*
D03*
Y630000D02*
D03*
Y620000D02*
D03*
X1141500D02*
D03*
Y630000D02*
D03*
Y640000D02*
D03*
Y650000D02*
D03*
Y660000D02*
D03*
Y670000D02*
D03*
Y680000D02*
D03*
Y690000D02*
D03*
Y700000D02*
D03*
Y710000D02*
D03*
X1111500Y560000D02*
D03*
Y550000D02*
D03*
Y540000D02*
D03*
Y530000D02*
D03*
Y520000D02*
D03*
Y510000D02*
D03*
Y500000D02*
D03*
Y490000D02*
D03*
Y480000D02*
D03*
X1141500D02*
D03*
Y490000D02*
D03*
Y500000D02*
D03*
Y510000D02*
D03*
Y520000D02*
D03*
Y530000D02*
D03*
Y540000D02*
D03*
Y550000D02*
D03*
Y560000D02*
D03*
Y570000D02*
D03*
X1191500Y560000D02*
D03*
Y550000D02*
D03*
Y540000D02*
D03*
Y530000D02*
D03*
Y520000D02*
D03*
Y510000D02*
D03*
Y500000D02*
D03*
Y490000D02*
D03*
Y480000D02*
D03*
X1221500D02*
D03*
Y490000D02*
D03*
Y500000D02*
D03*
Y510000D02*
D03*
Y520000D02*
D03*
Y530000D02*
D03*
Y540000D02*
D03*
Y550000D02*
D03*
Y560000D02*
D03*
Y570000D02*
D03*
D34*
X819000Y665000D02*
D03*
X924000D02*
D03*
D35*
X984000Y485000D02*
D03*
Y475000D02*
D03*
Y445000D02*
D03*
Y435000D02*
D03*
Y425000D02*
D03*
X954000D02*
D03*
Y435000D02*
D03*
Y445000D02*
D03*
Y455000D02*
D03*
Y465000D02*
D03*
Y475000D02*
D03*
X914000Y785000D02*
D03*
Y775000D02*
D03*
Y765000D02*
D03*
Y755000D02*
D03*
Y745000D02*
D03*
Y735000D02*
D03*
Y725000D02*
D03*
Y715000D02*
D03*
X884000D02*
D03*
Y725000D02*
D03*
Y735000D02*
D03*
Y745000D02*
D03*
Y775000D02*
D03*
X984000Y785000D02*
D03*
Y775000D02*
D03*
Y765000D02*
D03*
Y755000D02*
D03*
Y745000D02*
D03*
Y735000D02*
D03*
Y725000D02*
D03*
Y715000D02*
D03*
X954000D02*
D03*
Y725000D02*
D03*
Y735000D02*
D03*
Y745000D02*
D03*
Y775000D02*
D03*
D36*
Y485000D02*
D03*
X884000Y785000D02*
D03*
X954000D02*
D03*
D37*
X1372500Y683000D02*
D03*
Y658000D02*
D03*
D38*
X706500Y860000D02*
D03*
X726500D02*
D03*
D39*
X1197500Y835000D02*
D03*
X1217500Y775000D02*
D03*
X1207500D02*
D03*
X1197500D02*
D03*
X1257500D02*
D03*
X1267500D02*
D03*
X1277500D02*
D03*
X1257500Y835000D02*
D03*
X1317500D02*
D03*
X1337500Y775000D02*
D03*
X1327500D02*
D03*
X1317500D02*
D03*
X1377500D02*
D03*
X1387500D02*
D03*
X1397500D02*
D03*
X1377500Y835000D02*
D03*
X1447500D02*
D03*
X1467500Y775000D02*
D03*
X1457500D02*
D03*
X1447500D02*
D03*
X1507500D02*
D03*
X1517500D02*
D03*
X1527500D02*
D03*
X1507500Y835000D02*
D03*
D40*
X1207500D02*
D03*
X1217500D02*
D03*
X1227500D02*
D03*
X1237500D02*
D03*
Y775000D02*
D03*
X1227500D02*
D03*
X1287500D02*
D03*
X1297500D02*
D03*
Y835000D02*
D03*
X1287500D02*
D03*
X1277500D02*
D03*
X1267500D02*
D03*
X1327500D02*
D03*
X1337500D02*
D03*
X1347500D02*
D03*
X1357500D02*
D03*
Y775000D02*
D03*
X1347500D02*
D03*
X1407500D02*
D03*
X1417500D02*
D03*
Y835000D02*
D03*
X1407500D02*
D03*
X1397500D02*
D03*
X1387500D02*
D03*
X1457500D02*
D03*
X1467500D02*
D03*
X1477500D02*
D03*
X1487500D02*
D03*
Y775000D02*
D03*
X1477500D02*
D03*
X1537500D02*
D03*
X1547500D02*
D03*
Y835000D02*
D03*
X1537500D02*
D03*
X1527500D02*
D03*
X1517500D02*
D03*
D41*
X1340150Y579700D02*
D03*
X1357850Y605300D02*
D03*
X1340150D02*
D03*
X1357850Y579700D02*
D03*
X1407850D02*
D03*
X1390150Y605300D02*
D03*
X1407850D02*
D03*
X1390150Y579700D02*
D03*
X1440150D02*
D03*
X1457850Y605300D02*
D03*
X1440150D02*
D03*
X1457850Y579700D02*
D03*
X1507850D02*
D03*
X1490150Y605300D02*
D03*
X1507850D02*
D03*
X1490150Y579700D02*
D03*
X1340150Y529700D02*
D03*
X1357850Y555300D02*
D03*
X1340150D02*
D03*
X1357850Y529700D02*
D03*
X1407850D02*
D03*
X1390150Y555300D02*
D03*
X1407850D02*
D03*
X1390150Y529700D02*
D03*
X1440150D02*
D03*
X1457850Y555300D02*
D03*
X1440150D02*
D03*
X1457850Y529700D02*
D03*
X1507850D02*
D03*
X1490150Y555300D02*
D03*
X1507850D02*
D03*
X1490150Y529700D02*
D03*
X1340150Y479700D02*
D03*
X1357850Y505300D02*
D03*
X1340150D02*
D03*
X1357850Y479700D02*
D03*
X1407850D02*
D03*
X1390150Y505300D02*
D03*
X1407850D02*
D03*
X1390150Y479700D02*
D03*
X1440150D02*
D03*
X1457850Y505300D02*
D03*
X1440150D02*
D03*
X1457850Y479700D02*
D03*
X1507850D02*
D03*
X1490150Y505300D02*
D03*
X1507850D02*
D03*
X1490150Y479700D02*
D03*
X1340150Y429700D02*
D03*
X1357850Y455300D02*
D03*
X1340150D02*
D03*
X1357850Y429700D02*
D03*
X1407850D02*
D03*
X1390150Y455300D02*
D03*
X1407850D02*
D03*
X1390150Y429700D02*
D03*
X1440150D02*
D03*
X1457850Y455300D02*
D03*
X1440150D02*
D03*
X1457850Y429700D02*
D03*
X1507850D02*
D03*
X1490150Y455300D02*
D03*
X1507850D02*
D03*
X1490150Y429700D02*
D03*
X1290150Y579700D02*
D03*
X1307850Y605300D02*
D03*
X1290150D02*
D03*
X1307850Y579700D02*
D03*
Y529700D02*
D03*
X1290150Y555300D02*
D03*
X1307850D02*
D03*
X1290150Y529700D02*
D03*
Y479700D02*
D03*
X1307850Y505300D02*
D03*
X1290150D02*
D03*
X1307850Y479700D02*
D03*
Y429700D02*
D03*
X1290150Y455300D02*
D03*
X1307850D02*
D03*
X1290150Y429700D02*
D03*
X1157500Y429400D02*
D03*
X1175200Y455000D02*
D03*
X1157500D02*
D03*
X1175200Y429400D02*
D03*
D42*
X632000Y670000D02*
D03*
D43*
X642000D02*
D03*
Y660000D02*
D03*
Y650000D02*
D03*
Y640000D02*
D03*
Y630000D02*
D03*
Y620000D02*
D03*
Y610000D02*
D03*
Y600000D02*
D03*
Y590000D02*
D03*
Y580000D02*
D03*
Y570000D02*
D03*
Y560000D02*
D03*
Y550000D02*
D03*
Y540000D02*
D03*
Y530000D02*
D03*
Y520000D02*
D03*
Y510000D02*
D03*
Y500000D02*
D03*
Y490000D02*
D03*
Y480000D02*
D03*
D44*
X911500Y455000D02*
D03*
Y475000D02*
D03*
M02*
