M48
;Layer_Color=9474304
;FILE_FORMAT=2:5
INCH,TZ
;TYPE=PLATED
T1F00S00C0.02362
T2F00S00C0.03150
T3F00S00C0.03937
T4F00S00C0.12598
%
T01
X320000Y301000
X360000Y311000
X366500Y281000
X392500Y286000
X402500Y276000
X310000Y321000
X339000Y330000
X364500Y321000
X436500
X432500Y352500
X427500Y358500
X392500Y366000
X342500Y387500
T02
X470000Y235000
X480000
X447500Y236000
Y246000
Y256000
Y266000
Y276000
Y286000
Y296000
Y306000
X417500
Y296000
Y286000
Y276000
Y266000
Y256000
Y246000
Y236000
X377500
Y246000
Y256000
Y266000
Y276000
Y286000
Y296000
Y306000
X347500
Y296000
Y286000
Y276000
Y266000
Y256000
Y246000
Y236000
X330000Y246000
Y256000
Y266000
Y276000
Y286000
Y296000
Y306000
X300000
Y296000
Y286000
Y276000
Y266000
Y256000
Y246000
X290000
Y256000
Y266000
Y276000
Y286000
Y296000
Y306000
Y316000
X300000
Y326000
X330000
Y316000
X347500
Y326000
Y347500
X337500
X357500
X367500
X377500
X387500
X397500
X407500
X417500
Y326000
Y316000
X447500
Y326000
X377500
Y316000
Y377500
X387500
X397500
X407500
X417500
X367500
X357500
X347500
X337500
T03
X475000Y271000
X485000
Y281000
X475000
Y291000
X485000
Y301000
X475000
Y311000
X485000
X417500Y216000
X407500
X397500
X387500
X377500
X367500
X357500
X347500
X305000Y362500
X295000
X285000
X312500Y407500
X322500
X347500Y396000
X357500
X367500
X377500
X387500
X397500
X407500
X417500
X437500Y392500
Y402500
Y412500
X455000
Y402500
Y392500
Y382500
Y372500
X437500
Y382500
X475000Y341000
Y331000
Y321000
X485000
Y331000
Y341000
T04
X480925Y207575
X284075
Y404425
X480925
M30
