G04 Layer_Color=65535*
%FSLAX25Y25*%
%MOIN*%
G70*
G01*
G75*
%ADD12C,0.01500*%
%ADD27C,0.01000*%
%ADD28C,0.00800*%
%ADD29C,0.00600*%
%ADD30C,0.00500*%
D12*
X380000Y420000D02*
G03*
X385000Y420000I2500J0D01*
G01*
X341500Y192000D02*
X424000D01*
X385000Y420000D02*
X422500D01*
Y417875D02*
Y420000D01*
X341500Y192000D02*
Y195000D01*
X424000Y192000D02*
Y193500D01*
Y195000D01*
X342500Y420000D02*
X380000D01*
X342500Y417500D02*
Y420000D01*
D27*
X486000Y235000D02*
G03*
X486000Y235000I-11000J0D01*
G01*
X320000Y241000D02*
G03*
X310000Y241000I-5000J0D01*
G01*
X422500Y367500D02*
G03*
X422500Y357500I0J-5000D01*
G01*
X367500Y231000D02*
G03*
X357500Y231000I-5000J0D01*
G01*
X437500D02*
G03*
X427500Y231000I-5000J0D01*
G01*
X277500Y355000D02*
Y370000D01*
Y355000D02*
X312500D01*
Y370000D01*
X277500D02*
X312500D01*
X417500Y222500D02*
X422500Y227500D01*
X412500D02*
X422500D01*
X412500D02*
X417500Y222500D01*
X448500Y419000D02*
X461500D01*
X448500Y366000D02*
Y419000D01*
Y366000D02*
X461500D01*
Y419000D01*
X444000Y366000D02*
Y419000D01*
X431000Y366000D02*
X444000D01*
X431000D02*
Y419000D01*
X444000D01*
X322500Y396000D02*
Y401000D01*
X312500Y396000D02*
Y401000D01*
X302500Y396000D02*
Y418500D01*
X332500Y396000D02*
Y418500D01*
X312500Y401000D02*
X322500D01*
X302500Y396000D02*
X332500D01*
X302500Y418500D02*
X332500D01*
X477999Y369998D02*
X476999Y370998D01*
X475000D01*
X474000Y369998D01*
Y366000D01*
X475000Y365000D01*
X476999D01*
X477999Y366000D01*
X479998Y365000D02*
Y370998D01*
X483997Y365000D01*
Y370998D01*
X485996Y365000D02*
X487995D01*
X486996D01*
Y370998D01*
X485996Y369998D01*
X446000Y212500D02*
X447999D01*
X447000D01*
Y218498D01*
X446000Y217498D01*
X450998D02*
X451998Y218498D01*
X453997D01*
X454997Y217498D01*
Y213500D01*
X453997Y212500D01*
X451998D01*
X450998Y213500D01*
Y217498D01*
X456996Y216499D02*
Y213500D01*
X457996Y212500D01*
X460995D01*
Y216499D01*
X466993Y218498D02*
X462994D01*
Y215499D01*
X464994D01*
X462994D01*
Y212500D01*
X459999Y226998D02*
X458999Y227998D01*
X457000D01*
X456000Y226998D01*
Y223000D01*
X457000Y222000D01*
X458999D01*
X459999Y223000D01*
X461998Y222000D02*
X463997D01*
X462998D01*
Y227998D01*
X461998Y226998D01*
X390998Y273000D02*
Y269001D01*
X389998D01*
X386000Y273000D01*
X385000D01*
Y264003D02*
X390998D01*
X387999Y267002D01*
Y263003D01*
X390998Y261004D02*
X385000D01*
X387999D01*
Y257005D01*
X390998D01*
X385000D01*
X389998Y251007D02*
X390998Y252007D01*
Y254006D01*
X389998Y255006D01*
X386000D01*
X385000Y254006D01*
Y252007D01*
X386000Y251007D01*
X385000Y245009D02*
Y249008D01*
X388999Y245009D01*
X389998D01*
X390998Y246009D01*
Y248008D01*
X389998Y249008D01*
X390998Y243010D02*
Y239011D01*
X389998D01*
X386000Y243010D01*
X385000D01*
X389998Y237012D02*
X390998Y236012D01*
Y234013D01*
X389998Y233013D01*
X388999D01*
X387999Y234013D01*
Y235012D01*
Y234013D01*
X386999Y233013D01*
X386000D01*
X385000Y234013D01*
Y236012D01*
X386000Y237012D01*
X398998Y273000D02*
Y271001D01*
Y272000D01*
X393000D01*
Y273000D01*
Y271001D01*
X397998Y264003D02*
X398998Y265003D01*
Y267002D01*
X397998Y268002D01*
X394000D01*
X393000Y267002D01*
Y265003D01*
X394000Y264003D01*
X393000Y262004D02*
Y260004D01*
Y261004D01*
X398998D01*
X397998Y262004D01*
X402498Y327500D02*
Y323501D01*
X401498D01*
X397500Y327500D01*
X396500D01*
Y318503D02*
X402498D01*
X399499Y321502D01*
Y317503D01*
X402498Y315504D02*
X396500D01*
X399499D01*
Y311505D01*
X402498D01*
X396500D01*
X401498Y305507D02*
X402498Y306507D01*
Y308506D01*
X401498Y309506D01*
X397500D01*
X396500Y308506D01*
Y306507D01*
X397500Y305507D01*
X396500Y299509D02*
Y303508D01*
X400499Y299509D01*
X401498D01*
X402498Y300509D01*
Y302508D01*
X401498Y303508D01*
X402498Y297510D02*
Y293511D01*
X401498D01*
X397500Y297510D01*
X396500D01*
X401498Y291512D02*
X402498Y290512D01*
Y288513D01*
X401498Y287513D01*
X400499D01*
X399499Y288513D01*
Y289512D01*
Y288513D01*
X398499Y287513D01*
X397500D01*
X396500Y288513D01*
Y290512D01*
X397500Y291512D01*
X410998Y327000D02*
Y325001D01*
Y326000D01*
X405000D01*
Y327000D01*
Y325001D01*
X409998Y318003D02*
X410998Y319003D01*
Y321002D01*
X409998Y322002D01*
X406000D01*
X405000Y321002D01*
Y319003D01*
X406000Y318003D01*
X405000Y312005D02*
Y316004D01*
X408999Y312005D01*
X409998D01*
X410998Y313004D01*
Y315004D01*
X409998Y316004D01*
X357000Y340498D02*
Y335500D01*
X358000Y334500D01*
X359999D01*
X360999Y335500D01*
Y340498D01*
X362998D02*
Y334500D01*
X366997D01*
X368996D02*
Y340498D01*
X372995Y334500D01*
Y340498D01*
X378993Y334500D02*
X374994D01*
X378993Y338499D01*
Y339498D01*
X377993Y340498D01*
X375994D01*
X374994Y339498D01*
X380992D02*
X381992Y340498D01*
X383991D01*
X384991Y339498D01*
Y338499D01*
X383991Y337499D01*
X384991Y336499D01*
Y335500D01*
X383991Y334500D01*
X381992D01*
X380992Y335500D01*
Y336499D01*
X381992Y337499D01*
X380992Y338499D01*
Y339498D01*
X381992Y337499D02*
X383991D01*
X386990Y339498D02*
X387990Y340498D01*
X389989D01*
X390989Y339498D01*
Y335500D01*
X389989Y334500D01*
X387990D01*
X386990Y335500D01*
Y339498D01*
X392988D02*
X393988Y340498D01*
X395987D01*
X396987Y339498D01*
Y338499D01*
X395987Y337499D01*
X394988D01*
X395987D01*
X396987Y336499D01*
Y335500D01*
X395987Y334500D01*
X393988D01*
X392988Y335500D01*
X398986Y334500D02*
Y338499D01*
X400986Y340498D01*
X402985Y338499D01*
Y334500D01*
Y337499D01*
X398986D01*
X336000Y340498D02*
X337999D01*
X337000D01*
Y334500D01*
X336000D01*
X337999D01*
X344997Y339498D02*
X343997Y340498D01*
X341998D01*
X340998Y339498D01*
Y335500D01*
X341998Y334500D01*
X343997D01*
X344997Y335500D01*
X346996Y339498D02*
X347996Y340498D01*
X349995D01*
X350995Y339498D01*
Y338499D01*
X349995Y337499D01*
X348996D01*
X349995D01*
X350995Y336499D01*
Y335500D01*
X349995Y334500D01*
X347996D01*
X346996Y335500D01*
X281498Y303500D02*
X276500D01*
X275500Y302500D01*
Y300501D01*
X276500Y299501D01*
X281498D01*
Y297502D02*
X275500D01*
Y294503D01*
X276500Y293503D01*
X280498D01*
X281498Y294503D01*
Y297502D01*
X275500Y291504D02*
X281498D01*
X275500Y287505D01*
X281498D01*
X275500Y281507D02*
Y285506D01*
X279499Y281507D01*
X280498D01*
X281498Y282507D01*
Y284506D01*
X280498Y285506D01*
X276500Y279508D02*
X275500Y278508D01*
Y276509D01*
X276500Y275509D01*
X280498D01*
X281498Y276509D01*
Y278508D01*
X280498Y279508D01*
X279499D01*
X278499Y278508D01*
Y275509D01*
X280498Y273510D02*
X281498Y272510D01*
Y270511D01*
X280498Y269511D01*
X279499D01*
X278499Y270511D01*
X277499Y269511D01*
X276500D01*
X275500Y270511D01*
Y272510D01*
X276500Y273510D01*
X277499D01*
X278499Y272510D01*
X279499Y273510D01*
X280498D01*
X278499Y272510D02*
Y270511D01*
X275500Y267512D02*
Y265512D01*
Y266512D01*
X281498D01*
X280498Y267512D01*
X275500Y262513D02*
X279499D01*
X281498Y260514D01*
X279499Y258515D01*
X275500D01*
X278499D01*
Y262513D01*
X281498Y324500D02*
Y322501D01*
Y323500D01*
X275500D01*
Y324500D01*
Y322501D01*
X280498Y315503D02*
X281498Y316503D01*
Y318502D01*
X280498Y319502D01*
X276500D01*
X275500Y318502D01*
Y316503D01*
X276500Y315503D01*
X275500Y310505D02*
X281498D01*
X278499Y313504D01*
Y309505D01*
X299000Y220000D02*
Y225998D01*
X301999D01*
X302999Y224998D01*
Y222999D01*
X301999Y221999D01*
X299000D01*
X300999D02*
X302999Y220000D01*
X308997Y225998D02*
X304998D01*
Y220000D01*
X308997D01*
X304998Y222999D02*
X306997D01*
X310996Y225998D02*
Y221999D01*
X312996Y220000D01*
X314995Y221999D01*
Y225998D01*
X325991Y220000D02*
Y225998D01*
X322992Y222999D01*
X326991D01*
X310500Y390999D02*
X314499D01*
X320500D02*
X324499D01*
X322499Y392998D02*
Y389000D01*
X294000Y377998D02*
Y373999D01*
X295999Y372000D01*
X297999Y373999D01*
Y377998D01*
X299998D02*
X301997D01*
X300998D01*
Y372000D01*
X299998D01*
X301997D01*
X304996D02*
Y377998D01*
X308995Y372000D01*
Y377998D01*
X310995D02*
X314993D01*
X312994D01*
Y372000D01*
X275000Y352498D02*
Y348499D01*
X276999Y346500D01*
X278999Y348499D01*
Y352498D01*
X284997D02*
X280998D01*
Y346500D01*
X284997D01*
X280998Y349499D02*
X282997D01*
X286996Y352498D02*
X290995Y346500D01*
Y352498D02*
X286996Y346500D01*
X292994Y352498D02*
X296993D01*
X294993D01*
Y346500D01*
X420998Y415500D02*
X415000Y411501D01*
X420998D02*
X415000Y415500D01*
X419998Y409502D02*
X420998Y408502D01*
Y406503D01*
X419998Y405503D01*
X416000D01*
X415000Y406503D01*
Y408502D01*
X416000Y409502D01*
X419998D01*
X410998Y415500D02*
X405000Y411501D01*
X410998D02*
X405000Y415500D01*
Y409502D02*
Y407503D01*
Y408502D01*
X410998D01*
X409998Y409502D01*
X370998Y415500D02*
X365000Y411501D01*
X370998D02*
X365000Y415500D01*
Y405503D02*
Y409502D01*
X368999Y405503D01*
X369998D01*
X370998Y406503D01*
Y408502D01*
X369998Y409502D01*
X360998Y415500D02*
X355000Y411501D01*
X360998D02*
X355000Y415500D01*
Y406503D02*
X360998D01*
X357999Y409502D01*
Y405503D01*
X390998Y415000D02*
X385000Y411001D01*
X390998D02*
X385000Y415000D01*
X390998Y409002D02*
Y405003D01*
X389998D01*
X386000Y409002D01*
X385000D01*
X380998Y415000D02*
X379998D01*
X377999Y413001D01*
X379998Y411001D01*
X380998D01*
X377999Y413001D02*
X375000D01*
Y406003D02*
X380998D01*
X377999Y409002D01*
Y405003D01*
X350998Y415500D02*
X349998D01*
X347999Y413501D01*
X349998Y411501D01*
X350998D01*
X347999Y413501D02*
X345000D01*
X350998Y409502D02*
Y405503D01*
X349998D01*
X346000Y409502D01*
X345000D01*
X400998Y415500D02*
X399998D01*
X397999Y413501D01*
X399998Y411501D01*
X400998D01*
X397999Y413501D02*
X395000D01*
X400998Y405503D02*
X399998Y407503D01*
X397999Y409502D01*
X396000D01*
X395000Y408502D01*
Y406503D01*
X396000Y405503D01*
X396999D01*
X397999Y406503D01*
Y409502D01*
X370998Y204500D02*
X365000Y200501D01*
X370998D02*
X365000Y204500D01*
X369998Y198502D02*
X370998Y197502D01*
Y195503D01*
X369998Y194503D01*
X368999D01*
X367999Y195503D01*
Y196503D01*
Y195503D01*
X366999Y194503D01*
X366000D01*
X365000Y195503D01*
Y197502D01*
X366000Y198502D01*
X390998Y204500D02*
X385000Y200501D01*
X390998D02*
X385000Y204500D01*
X390998Y194503D02*
Y198502D01*
X387999D01*
X388999Y196503D01*
Y195503D01*
X387999Y194503D01*
X386000D01*
X385000Y195503D01*
Y197502D01*
X386000Y198502D01*
X400998Y204500D02*
X395000Y200501D01*
X400998D02*
X395000Y204500D01*
X400998Y194503D02*
X399998Y196503D01*
X397999Y198502D01*
X396000D01*
X395000Y197502D01*
Y195503D01*
X396000Y194503D01*
X396999D01*
X397999Y195503D01*
Y198502D01*
X380998Y204500D02*
X379998D01*
X377999Y202501D01*
X379998Y200501D01*
X380998D01*
X377999Y202501D02*
X375000D01*
X379998Y198502D02*
X380998Y197502D01*
Y195503D01*
X379998Y194503D01*
X376000D01*
X375000Y195503D01*
Y197502D01*
X376000Y198502D01*
X379998D01*
X410998Y204500D02*
X409998D01*
X407999Y202501D01*
X409998Y200501D01*
X410998D01*
X407999Y202501D02*
X405000D01*
Y198502D02*
Y196503D01*
Y197502D01*
X410998D01*
X409998Y198502D01*
X360998Y204500D02*
X359998D01*
X357999Y202501D01*
X359998Y200501D01*
X360998D01*
X357999Y202501D02*
X355000D01*
Y194503D02*
Y198502D01*
X358999Y194503D01*
X359998D01*
X360998Y195503D01*
Y197502D01*
X359998Y198502D01*
X420498Y204500D02*
X419498D01*
X417499Y202501D01*
X419498Y200501D01*
X420498D01*
X417499Y202501D02*
X414500D01*
X419498Y198502D02*
X420498Y197502D01*
Y195503D01*
X419498Y194503D01*
X418499D01*
X417499Y195503D01*
Y196503D01*
Y195503D01*
X416499Y194503D01*
X415500D01*
X414500Y195503D01*
Y197502D01*
X415500Y198502D01*
X350498Y204500D02*
X349498D01*
X347499Y202501D01*
X349498Y200501D01*
X350498D01*
X347499Y202501D02*
X344500D01*
X350498Y194503D02*
Y198502D01*
X347499D01*
X348499Y196503D01*
Y195503D01*
X347499Y194503D01*
X345500D01*
X344500Y195503D01*
Y197502D01*
X345500Y198502D01*
X300499Y233998D02*
X299499Y234998D01*
X297500D01*
X296500Y233998D01*
Y232999D01*
X297500Y231999D01*
X299499D01*
X300499Y230999D01*
Y230000D01*
X299499Y229000D01*
X297500D01*
X296500Y230000D01*
X306497Y233998D02*
X305497Y234998D01*
X303498D01*
X302498Y233998D01*
Y230000D01*
X303498Y229000D01*
X305497D01*
X306497Y230000D01*
X308496Y231999D02*
X312495D01*
X314494Y233998D02*
X315494Y234998D01*
X317493D01*
X318493Y233998D01*
Y232999D01*
X317493Y231999D01*
X318493Y230999D01*
Y230000D01*
X317493Y229000D01*
X315494D01*
X314494Y230000D01*
Y230999D01*
X315494Y231999D01*
X314494Y232999D01*
Y233998D01*
X315494Y231999D02*
X317493D01*
X320492Y234998D02*
X324491Y229000D01*
Y234998D02*
X320492Y229000D01*
X326490Y233998D02*
X327490Y234998D01*
X329489D01*
X330489Y233998D01*
Y232999D01*
X329489Y231999D01*
X330489Y230999D01*
Y230000D01*
X329489Y229000D01*
X327490D01*
X326490Y230000D01*
Y230999D01*
X327490Y231999D01*
X326490Y232999D01*
Y233998D01*
X327490Y231999D02*
X329489D01*
X424000Y404998D02*
X425000Y405998D01*
X426999D01*
X427999Y404998D01*
Y403999D01*
X426999Y402999D01*
X425999D01*
X426999D01*
X427999Y401999D01*
Y401000D01*
X426999Y400000D01*
X425000D01*
X424000Y401000D01*
X427999Y379500D02*
X424000D01*
X427999Y383499D01*
Y384498D01*
X426999Y385498D01*
X425000D01*
X424000Y384498D01*
X464500Y399500D02*
X466499D01*
X465500D01*
Y405498D01*
X464500Y404498D01*
Y383998D02*
X465500Y384998D01*
X467499D01*
X468499Y383998D01*
Y380000D01*
X467499Y379000D01*
X465500D01*
X464500Y380000D01*
Y383998D01*
X424500Y375498D02*
X428499Y369500D01*
Y375498D02*
X424500Y369500D01*
X464500Y374498D02*
Y373498D01*
X466499Y371499D01*
X468499Y373498D01*
Y374498D01*
X466499Y371499D02*
Y368500D01*
X464500Y395498D02*
X468499Y389500D01*
Y395498D02*
X464500Y389500D01*
X424000Y395998D02*
Y394998D01*
X425999Y392999D01*
X427999Y394998D01*
Y395998D01*
X425999Y392999D02*
Y390000D01*
X464000Y415498D02*
Y414498D01*
X465999Y412499D01*
X467999Y414498D01*
Y415498D01*
X465999Y412499D02*
Y409500D01*
X424000Y415998D02*
X427999Y410000D01*
Y415998D02*
X424000Y410000D01*
X442499Y361498D02*
X441499Y362498D01*
X439500D01*
X438500Y361498D01*
Y360499D01*
X439500Y359499D01*
X441499D01*
X442499Y358499D01*
Y357500D01*
X441499Y356500D01*
X439500D01*
X438500Y357500D01*
X448497Y362498D02*
X444498D01*
Y356500D01*
X448497D01*
X444498Y359499D02*
X446497D01*
X450496Y362498D02*
Y356500D01*
X454495D01*
X306500Y386998D02*
Y382999D01*
X308499Y381000D01*
X310499Y382999D01*
Y386998D01*
X316497D02*
X312498D01*
Y381000D01*
X316497D01*
X312498Y383999D02*
X314497D01*
X318496Y386998D02*
X322495Y381000D01*
Y386998D02*
X318496Y381000D01*
X324494Y386998D02*
X328493D01*
X326494D01*
Y381000D01*
D28*
X323500Y241000D02*
Y331000D01*
X306500D02*
X323500D01*
X306500Y241000D02*
Y331000D01*
Y241000D02*
X310000D01*
X320000D02*
X323500D01*
X422500Y367500D02*
Y371000D01*
Y354000D02*
Y357500D01*
X332500Y354000D02*
X422500D01*
X332500D02*
Y371000D01*
X422500D01*
X367500Y231000D02*
X371000D01*
X354000D02*
X357500D01*
X354000D02*
Y331000D01*
X371000D01*
Y231000D02*
Y331000D01*
X441000Y231000D02*
Y331000D01*
X424000D02*
X441000D01*
X424000Y231000D02*
Y331000D01*
Y231000D02*
X427500D01*
X437500D02*
X441000D01*
X454500Y346000D02*
X459500Y341000D01*
X454500Y336000D02*
Y346000D01*
Y336000D02*
X459500Y341000D01*
X462500Y250500D02*
X497500D01*
X462500Y362000D02*
X497500D01*
X462500Y296000D02*
X466000D01*
Y316000D01*
X462500D02*
X466000D01*
X497500Y250500D02*
Y362000D01*
X462500Y250500D02*
Y362000D01*
X458000Y234999D02*
X461999D01*
X459999Y236998D02*
Y233000D01*
D29*
X319900Y197100D02*
X320500Y196500D01*
X321200Y195800D01*
X320500Y196500D02*
X320600D01*
X319800Y195800D02*
X320500Y196500D01*
Y195500D02*
Y197500D01*
X319500Y196500D02*
X321500D01*
X320600D02*
X321200Y197100D01*
D30*
X308100Y194800D02*
X312100Y196300D01*
X309100Y193300D02*
X310600Y197300D01*
X308100Y194800D02*
X313100D01*
X308100D02*
X312100Y193300D01*
X310600Y197300D02*
X312100Y193300D01*
X309100Y196300D02*
X313100Y194800D01*
X309100Y193300D02*
X313100Y194800D01*
X309100Y196300D02*
X310600Y192300D01*
X312100Y196300D01*
X309100Y193300D02*
X312100Y196300D01*
X309100D02*
X312100Y193300D01*
X310600Y192300D02*
Y197300D01*
X325850Y213550D02*
X329850Y215050D01*
X326850Y212050D02*
X328350Y216050D01*
X325850Y213550D02*
X330850D01*
X325850D02*
X329850Y212050D01*
X328350Y216050D02*
X329850Y212050D01*
X326850Y215050D02*
X330850Y213550D01*
X326850Y212050D02*
X330850Y213550D01*
X326850Y215050D02*
X328350Y211050D01*
X329850Y215050D01*
X326850Y212050D02*
X329850Y215050D01*
X326850D02*
X329850Y212050D01*
X328350Y211050D02*
Y216050D01*
X325100Y199800D02*
X329100Y201300D01*
X326100Y198300D02*
X327600Y202300D01*
X325100Y199800D02*
X330100D01*
X325100D02*
X329100Y198300D01*
X327600Y202300D02*
X329100Y198300D01*
X326100Y201300D02*
X330100Y199800D01*
X326100Y198300D02*
X330100Y199800D01*
X326100Y201300D02*
X327600Y197300D01*
X329100Y201300D01*
X326100Y198300D02*
X329100Y201300D01*
X327600Y197300D02*
Y202300D01*
X312600Y212300D02*
X316600Y213800D01*
X313600Y210800D02*
X315100Y214800D01*
X312600Y212300D02*
X317600D01*
X312600D02*
X316600Y210800D01*
X315100Y214800D02*
X316600Y210800D01*
X313600Y213800D02*
X317600Y212300D01*
X313600Y210800D02*
X317600Y212300D01*
X313600Y213800D02*
X315100Y209800D01*
X316600Y213800D01*
X313600Y210800D02*
X316600Y213800D01*
X313600D02*
X316600Y210800D01*
X315100Y209800D02*
Y214800D01*
X326100Y201300D02*
X329100Y198300D01*
M02*
