G04 Layer_Physical_Order=2*
G04 Layer_Color=16711680*
%FSLAX25Y25*%
%MOIN*%
G70*
G01*
G75*
%ADD10C,0.02000*%
%ADD11C,0.03000*%
%ADD12C,0.01500*%
%ADD13C,0.07500*%
%ADD14C,0.08000*%
%ADD15O,0.10000X0.05000*%
%ADD16R,0.08000X0.07000*%
%ADD17R,0.07000X0.08000*%
%ADD18O,0.05000X0.10000*%
%ADD19R,0.07500X0.06000*%
%ADD20O,0.08500X0.06000*%
%ADD21R,0.07600X0.07600*%
%ADD22C,0.07600*%
%ADD23C,0.25000*%
%ADD24O,0.08000X0.07600*%
%ADD25R,0.08000X0.08500*%
%ADD26C,0.05000*%
D10*
X310000Y277500D02*
Y321000D01*
X314500Y251500D02*
Y295500D01*
X320000Y301000D01*
X300000Y276000D02*
X308500D01*
X310000Y277500D01*
X392500Y360000D02*
Y366000D01*
X309000Y246000D02*
X314500Y251500D01*
X300000Y246000D02*
X309000D01*
X290000D02*
X300000D01*
X290000Y256000D02*
X300000D01*
X290000Y266000D02*
X300000D01*
X290000Y276000D02*
X300000D01*
X290000Y286000D02*
X300000D01*
X290000Y296000D02*
X300000D01*
X290000Y316000D02*
X300000D01*
X417500Y347500D02*
Y354000D01*
X392500Y360000D02*
X397000Y355500D01*
X416000D01*
X417500Y354000D01*
D11*
X272500Y248500D02*
X317500Y203500D01*
Y350500D02*
Y377500D01*
Y350500D02*
X329500Y338500D01*
X356500D01*
X335500Y333500D02*
X339000Y330000D01*
X324500Y333500D02*
X335500D01*
X305000Y353000D02*
X324500Y333500D01*
X356500Y338500D02*
X369000Y326000D01*
X377500D01*
X305000Y353000D02*
Y362500D01*
X295000Y353500D02*
Y362500D01*
Y353500D02*
X322500Y326000D01*
X272500Y372500D02*
X277500Y377500D01*
X307500D01*
X312500Y382500D01*
X317500Y377500D02*
X337500D01*
X312500Y382500D02*
X317500Y377500D01*
X312500Y382500D02*
Y407500D01*
X322500Y326000D02*
X330000D01*
X317500Y203500D02*
X453500D01*
X480000Y230000D01*
Y235000D01*
X485000Y311000D02*
X489500D01*
X475000D02*
X485000D01*
X468000D02*
X475000D01*
X440000Y326000D02*
X447500D01*
X433500Y332500D02*
X440000Y326000D01*
X408000Y332500D02*
X433500D01*
X347500Y236000D02*
X377500D01*
X417500D01*
X428000D01*
X436500Y227500D01*
X462500D01*
X470000Y235000D01*
X447500Y326000D02*
X453000D01*
X468000Y311000D01*
X480000Y235000D02*
X492500Y247500D01*
Y308000D01*
X489500Y311000D02*
X492500Y308000D01*
X377500Y326000D02*
X400500D01*
X401000Y325500D01*
X408000Y332500D01*
X272500Y332000D02*
Y372500D01*
Y248500D02*
Y320500D01*
X278250Y326250D01*
X278500Y326000D02*
X300000D01*
X278250Y326250D02*
X278500Y326000D01*
X272500Y332000D02*
X278250Y326250D01*
D12*
X290000Y306000D02*
X300000D01*
X434750Y322750D02*
X436500Y321000D01*
X434654Y322750D02*
X434750D01*
X431404Y326000D02*
X434654Y322750D01*
X417500Y326000D02*
X431404D01*
X434000Y301000D02*
X475000D01*
X429000Y306000D02*
X434000Y301000D01*
X417500Y306000D02*
X429000D01*
X356500Y316000D02*
X377500D01*
X351500Y311000D02*
X356500Y316000D01*
X364500Y321000D02*
X428500D01*
X366500Y281000D02*
X428000D01*
X402500Y276000D02*
X417500D01*
X400000Y306000D02*
X417500D01*
X347500D02*
X361500D01*
X480000D02*
X485000Y301000D01*
X447500Y306000D02*
X480000D01*
X439500D02*
X447500D01*
X434500Y311000D02*
X439500Y306000D01*
X361500D02*
X366500Y301000D01*
X395000D01*
X400000Y306000D01*
X377500D02*
X392500D01*
X397500Y311000D01*
X434500D01*
X480000Y296000D02*
X485000Y291000D01*
X447500Y296000D02*
X480000D01*
X432000D02*
X447500D01*
X427000Y301000D02*
X432000Y296000D01*
X402000Y301000D02*
X427000D01*
X397000Y296000D02*
X402000Y301000D01*
X377500Y296000D02*
X397000D01*
X430000Y291000D02*
X475000D01*
X425000Y296000D02*
X430000Y291000D01*
X417500Y296000D02*
X425000D01*
X404000D02*
X417500D01*
X399000Y291000D02*
X404000Y296000D01*
X360000D02*
X365000Y291000D01*
X347500Y296000D02*
X360000D01*
X480000Y276000D02*
X485000Y281000D01*
X469500Y276000D02*
X480000D01*
X459500Y266000D02*
X469500Y276000D01*
X447500Y266000D02*
X459500D01*
X436500D02*
X447500D01*
X431500Y261000D02*
X436500Y266000D01*
X465500Y281000D02*
X475000D01*
X455500Y271000D02*
X465500Y281000D01*
X435000Y271000D02*
X455500D01*
X430000Y266000D02*
X435000Y271000D01*
X417500Y266000D02*
X430000D01*
X469500Y271000D02*
X475000D01*
X459500Y261000D02*
X469500Y271000D01*
X438000Y261000D02*
X459500D01*
X433000Y256000D02*
X438000Y261000D01*
X417500Y256000D02*
X433000D01*
X447500D02*
X460500D01*
X469500Y265000D01*
X479000D01*
X485000Y271000D01*
X437500Y256000D02*
X447500D01*
X432500Y251000D02*
X437500Y256000D01*
X399000Y251000D02*
X432500D01*
X394000Y256000D02*
X399000Y251000D01*
X377500Y256000D02*
X394000D01*
X403500D02*
X417500D01*
X377500Y266000D02*
X402000D01*
X407000Y261000D01*
X431500D01*
X398500D02*
X403500Y256000D01*
X371000Y261000D02*
X398500D01*
X366000Y256000D02*
X371000Y261000D01*
X347500Y256000D02*
X366000D01*
X410000Y266000D02*
X417500D01*
X405000Y271000D02*
X410000Y266000D01*
X363500Y271000D02*
X405000D01*
X358500Y266000D02*
X363500Y271000D01*
X347500Y266000D02*
X358500D01*
X330000Y246000D02*
X347500D01*
X366500D02*
X377500D01*
X361500Y251000D02*
X366500Y246000D01*
X342000Y251000D02*
X361500D01*
X337000Y256000D02*
X342000Y251000D01*
X330000Y256000D02*
X337000D01*
X330000Y266000D02*
X337000D01*
X342000Y271000D01*
X365000Y291000D02*
X399000D01*
X342000Y271000D02*
X357500D01*
X362500Y276000D01*
X377500D01*
X330000D02*
X347500D01*
X330000Y286000D02*
X347500D01*
X330000Y296000D02*
X337500D01*
X342500Y291000D01*
X358000D01*
X363000Y286000D01*
X377500D01*
X330000Y306000D02*
X337500D01*
X330000Y316000D02*
X347500D01*
X394000D02*
X417500D01*
X337500Y306000D02*
X342500Y311000D01*
X433500Y316000D02*
X447500D01*
X428500Y321000D02*
X433500Y316000D01*
X342500Y311000D02*
X351500D01*
X389000D02*
X394000Y316000D01*
X360000Y311000D02*
X389000D01*
X428000Y281000D02*
X433000Y286000D01*
X447500D01*
X392500D02*
X417500D01*
X397500Y368500D02*
Y377500D01*
X407500Y367500D02*
Y377500D01*
Y367500D02*
X412500Y362500D01*
X467000Y321000D02*
X475000D01*
X465000Y332000D02*
X466000Y331000D01*
X475000D01*
X437500Y350500D02*
X467000Y321000D01*
X432500Y387500D02*
X437500Y392500D01*
X342500Y387500D02*
X432500D01*
X397500Y368500D02*
X407750Y358250D01*
X417500D02*
X423250Y352500D01*
X407750Y358250D02*
X417500D01*
X423500Y362500D02*
X427500Y358500D01*
X412500Y362500D02*
X423500D01*
X423250Y352500D02*
X432500D01*
X437500Y350500D02*
Y355500D01*
X427500Y365500D02*
X437500Y355500D01*
X427500Y365500D02*
Y377500D01*
X432500Y382500D01*
X437500D01*
Y392500D02*
X442500D01*
X447500Y387500D01*
Y375000D02*
Y387500D01*
Y375000D02*
X450000Y372500D01*
X455000D01*
X442500Y392500D02*
X447500Y397500D01*
Y410000D01*
X450000Y412500D01*
X455000D01*
X465000Y332000D02*
Y380000D01*
X462500Y382500D02*
X465000Y380000D01*
X455000Y382500D02*
X462500D01*
D13*
X305000Y362500D02*
D03*
X295000D02*
D03*
X285000D02*
D03*
X290000Y246000D02*
D03*
Y276000D02*
D03*
Y286000D02*
D03*
Y316000D02*
D03*
Y306000D02*
D03*
Y296000D02*
D03*
Y266000D02*
D03*
Y256000D02*
D03*
X485000Y271000D02*
D03*
Y281000D02*
D03*
Y291000D02*
D03*
Y301000D02*
D03*
Y311000D02*
D03*
Y321000D02*
D03*
Y331000D02*
D03*
Y341000D02*
D03*
X455000Y372500D02*
D03*
Y382500D02*
D03*
Y392500D02*
D03*
Y402500D02*
D03*
Y412500D02*
D03*
X437500D02*
D03*
Y402500D02*
D03*
Y392500D02*
D03*
Y382500D02*
D03*
Y372500D02*
D03*
D14*
X480000Y235000D02*
D03*
X470000D02*
D03*
D15*
X300000Y246000D02*
D03*
Y256000D02*
D03*
Y266000D02*
D03*
Y276000D02*
D03*
Y286000D02*
D03*
Y296000D02*
D03*
Y306000D02*
D03*
Y316000D02*
D03*
Y326000D02*
D03*
X330000D02*
D03*
Y316000D02*
D03*
Y306000D02*
D03*
Y296000D02*
D03*
Y286000D02*
D03*
Y276000D02*
D03*
Y266000D02*
D03*
Y256000D02*
D03*
X377500Y246000D02*
D03*
Y256000D02*
D03*
Y266000D02*
D03*
Y276000D02*
D03*
Y286000D02*
D03*
Y296000D02*
D03*
Y306000D02*
D03*
Y316000D02*
D03*
Y326000D02*
D03*
X347500D02*
D03*
Y316000D02*
D03*
Y306000D02*
D03*
Y296000D02*
D03*
Y286000D02*
D03*
Y276000D02*
D03*
Y266000D02*
D03*
Y256000D02*
D03*
Y246000D02*
D03*
Y236000D02*
D03*
X417500D02*
D03*
Y246000D02*
D03*
Y256000D02*
D03*
Y266000D02*
D03*
Y276000D02*
D03*
Y286000D02*
D03*
Y296000D02*
D03*
Y306000D02*
D03*
Y316000D02*
D03*
Y326000D02*
D03*
X447500D02*
D03*
Y316000D02*
D03*
Y306000D02*
D03*
Y296000D02*
D03*
Y286000D02*
D03*
Y276000D02*
D03*
Y266000D02*
D03*
Y256000D02*
D03*
Y246000D02*
D03*
D16*
X330000D02*
D03*
X377500Y236000D02*
D03*
X447500D02*
D03*
D17*
X417500Y377500D02*
D03*
D18*
X407500D02*
D03*
X397500D02*
D03*
X387500D02*
D03*
X377500D02*
D03*
X367500D02*
D03*
X357500D02*
D03*
X347500D02*
D03*
X337500D02*
D03*
Y347500D02*
D03*
X347500D02*
D03*
X357500D02*
D03*
X367500D02*
D03*
X377500D02*
D03*
X387500D02*
D03*
X397500D02*
D03*
X407500D02*
D03*
X417500D02*
D03*
D19*
X475000Y341000D02*
D03*
D20*
Y271000D02*
D03*
Y281000D02*
D03*
Y291000D02*
D03*
Y301000D02*
D03*
Y311000D02*
D03*
Y321000D02*
D03*
Y331000D02*
D03*
D21*
X417500Y216000D02*
D03*
D22*
X407500D02*
D03*
X397500D02*
D03*
X347500D02*
D03*
X357500D02*
D03*
X367500D02*
D03*
X377500D02*
D03*
X387500D02*
D03*
X347500Y396000D02*
D03*
X357500D02*
D03*
X367500D02*
D03*
X377500D02*
D03*
X387500D02*
D03*
X397500D02*
D03*
X407500D02*
D03*
X417500D02*
D03*
D23*
X284075Y404425D02*
D03*
X480925D02*
D03*
X284075Y207575D02*
D03*
X480925D02*
D03*
D24*
X312500Y407500D02*
D03*
D25*
X322500D02*
D03*
D26*
X310000Y321000D02*
D03*
X339000Y330000D02*
D03*
X342500Y387500D02*
D03*
X320000Y301000D02*
D03*
X436500Y321000D02*
D03*
X364500D02*
D03*
X366500Y281000D02*
D03*
X392500Y366000D02*
D03*
X402500Y276000D02*
D03*
X360000Y311000D02*
D03*
X392500Y286000D02*
D03*
X427500Y358500D02*
D03*
X432500Y352500D02*
D03*
M02*
