G04 Layer_Physical_Order=1*
G04 Layer_Color=255*
%FSLAX25Y25*%
%MOIN*%
G70*
G01*
G75*
%ADD10C,0.02000*%
%ADD11C,0.03000*%
%ADD12C,0.01500*%
%ADD13C,0.07500*%
%ADD14C,0.08000*%
%ADD15O,0.10000X0.05000*%
%ADD16R,0.08000X0.07000*%
%ADD17R,0.07000X0.08000*%
%ADD18O,0.05000X0.10000*%
%ADD19R,0.07500X0.06000*%
%ADD20O,0.08500X0.06000*%
%ADD21R,0.07600X0.07600*%
%ADD22C,0.07600*%
%ADD23C,0.25000*%
%ADD24O,0.08000X0.07600*%
%ADD25R,0.08000X0.08500*%
%ADD26C,0.05000*%
D10*
X310000Y321000D02*
Y331500D01*
X343500Y412000D02*
X387500D01*
X321000Y389500D02*
X343500Y412000D01*
X321000Y342500D02*
Y389500D01*
X344000Y406000D02*
X374000D01*
X325000Y387000D02*
X344000Y406000D01*
X325000Y339000D02*
Y387000D01*
X310000Y331500D02*
X321000Y342500D01*
X315500Y329500D02*
X325000Y339000D01*
X315500Y319500D02*
Y329500D01*
X341000Y396000D02*
X347500D01*
X329000Y384000D02*
X341000Y396000D01*
X329000Y337000D02*
Y384000D01*
X320000Y328000D02*
X329000Y337000D01*
X320000Y301000D02*
Y328000D01*
X312000Y316000D02*
X315500Y319500D01*
X300000Y316000D02*
X312000D01*
X374000Y406000D02*
X377500Y402500D01*
X311500Y296000D02*
X320000Y287500D01*
X300000Y296000D02*
X311500D01*
X277500Y301000D02*
X282500Y306000D01*
X277500Y240000D02*
Y301000D01*
Y240000D02*
X320000Y197500D01*
X282500Y306000D02*
X290000D01*
X405000Y196000D02*
X417500Y208500D01*
X320000Y197500D02*
X405000D01*
X417500Y208500D02*
Y216000D01*
X282500Y263500D02*
X285000Y266000D01*
X282500Y243000D02*
Y263500D01*
Y243000D02*
X323000Y202500D01*
X285000Y266000D02*
X290000D01*
X323000Y202500D02*
X400000D01*
Y201000D02*
X407500Y208500D01*
Y216000D01*
X375000Y207500D02*
X377500Y210000D01*
X328500Y207500D02*
X375000D01*
X311000Y225000D02*
X328500Y207500D01*
X377500Y210000D02*
Y216000D01*
X326000Y224500D02*
X354500D01*
X320000Y230500D02*
X326000Y224500D01*
X320000Y230500D02*
Y287500D01*
X357500Y216000D02*
Y221500D01*
X354500Y224500D02*
X357500Y221500D01*
X311000Y225000D02*
Y251000D01*
X387500Y412000D02*
X397500Y402000D01*
Y396000D02*
Y402000D01*
X377500Y396000D02*
Y402500D01*
X306000Y256000D02*
X311000Y251000D01*
X327500Y216000D02*
X347500D01*
X315500Y228000D02*
X327500Y216000D01*
X315500Y228000D02*
Y278000D01*
X307500Y286000D02*
X315500Y278000D01*
X358500Y319500D02*
X365000Y313000D01*
Y301500D02*
Y313000D01*
X360000Y296500D02*
X365000Y301500D01*
X358500Y319500D02*
Y338000D01*
X357500Y339000D02*
X358500Y338000D01*
X360000Y245000D02*
Y296500D01*
Y245000D02*
X367500Y237500D01*
X352500Y382300D02*
Y383500D01*
Y360500D02*
Y371700D01*
X362500Y365500D02*
Y372000D01*
Y382500D02*
Y384500D01*
X402500Y365000D02*
Y373000D01*
Y382500D02*
Y385000D01*
X412000Y365000D02*
Y372000D01*
Y383000D02*
Y384500D01*
X392500Y382500D02*
Y385000D01*
Y366000D02*
Y373000D01*
X387500Y390000D02*
X392500Y385000D01*
X397500Y360000D02*
X402500Y365000D01*
X397500Y347500D02*
Y360000D01*
X300000Y286000D02*
X307500D01*
X300000Y256000D02*
X306000D01*
X377500Y340000D02*
Y347500D01*
Y340000D02*
X387500Y330000D01*
Y216000D02*
Y330000D01*
Y341000D02*
Y347500D01*
Y341000D02*
X397500Y331000D01*
X402500Y385000D02*
X407500Y390000D01*
Y396000D01*
X417500Y390000D02*
Y396000D01*
X412000Y384500D02*
X417500Y390000D01*
X407500Y360500D02*
X412000Y365000D01*
X407500Y347500D02*
Y360500D01*
X397500Y216000D02*
Y331000D01*
X357500Y339000D02*
Y347500D01*
X367500Y216000D02*
Y237500D01*
X387500Y390000D02*
Y396000D01*
X367500Y389500D02*
Y396000D01*
X362500Y384500D02*
X367500Y389500D01*
X362500Y365500D02*
X367500Y360500D01*
Y347500D02*
Y360500D01*
X357500Y388500D02*
Y396000D01*
X352500Y383500D02*
X357500Y388500D01*
X347500Y347500D02*
Y355500D01*
X352500Y360500D01*
D11*
X285000Y362500D02*
Y377500D01*
X290000Y382500D01*
X303500D01*
X322500Y401500D01*
Y407500D01*
X339000Y238500D02*
Y330000D01*
Y238500D02*
X341500Y236000D01*
X347500D01*
X465000Y240000D02*
X470000Y235000D01*
X465000Y240000D02*
Y339500D01*
X466500Y341000D01*
X475000D01*
D12*
X342500Y335000D02*
X347500Y330000D01*
X337500Y335000D02*
X342500D01*
X332500Y340000D02*
X337500Y335000D01*
X342500Y367500D02*
Y387500D01*
X332500Y357500D02*
X342500Y367500D01*
X332500Y340000D02*
Y357500D01*
X342500Y341500D02*
X355500Y328500D01*
X342500Y341500D02*
Y360000D01*
X355500Y315500D02*
Y328500D01*
X436500Y321000D02*
Y346500D01*
X430500Y283000D02*
X437500Y276000D01*
X369000Y337000D02*
X372500Y340500D01*
X369000Y299000D02*
Y337000D01*
X366500Y296500D02*
X369000Y299000D01*
X362500Y334000D02*
X364500Y332000D01*
X362500Y334000D02*
Y360000D01*
X364500Y321000D02*
Y332000D01*
X355500Y315500D02*
X360000Y311000D01*
X366500Y281000D02*
Y296500D01*
X352500Y371700D02*
Y382300D01*
X362500Y372000D02*
Y382500D01*
X402500Y373000D02*
Y382500D01*
X412000Y372000D02*
Y383000D01*
X392500Y373000D02*
Y382500D01*
Y340500D02*
Y355500D01*
X387500Y360500D02*
X392500Y355500D01*
X387500Y360500D02*
Y377500D01*
X372500Y340500D02*
Y360000D01*
X402500Y276000D02*
Y330500D01*
X347500Y365000D02*
Y377500D01*
X357500Y365000D02*
Y377500D01*
Y365000D02*
X362500Y360000D01*
X367500Y365000D02*
Y377500D01*
Y365000D02*
X372500Y360000D01*
X377500Y367500D02*
Y377500D01*
Y367500D02*
X382500Y362500D01*
Y340000D02*
Y362500D01*
Y340000D02*
X392500Y330000D01*
Y286000D02*
Y330000D01*
Y340500D02*
X402500Y330500D01*
X447500Y236000D02*
X454000D01*
X460000Y242000D01*
Y340500D01*
X467000Y347500D01*
X482500D01*
X485000Y345000D01*
Y341000D02*
Y345000D01*
Y331000D02*
X490500D01*
X492000Y332500D01*
Y350000D01*
X488500Y353500D02*
X492000Y350000D01*
X485000Y321000D02*
X492000D01*
X495000Y324000D01*
Y352500D01*
X490000Y357500D02*
X495000Y352500D01*
X417500Y365500D02*
Y377500D01*
X412500Y360500D02*
X417500Y365500D01*
X412000Y246000D02*
X417500D01*
X412500Y335500D02*
Y360500D01*
X435000Y246000D02*
X447500D01*
X409500Y332500D02*
X412500Y335500D01*
X409500Y248500D02*
X412000Y246000D01*
X409500Y248500D02*
Y332500D01*
X437500Y276000D02*
X447500D01*
X347500Y326000D02*
Y330000D01*
X342500Y360000D02*
X347500Y365000D01*
X465000D02*
X472500Y357500D01*
X490000D01*
X471000Y353500D02*
X488500D01*
X461500Y363000D02*
X471000Y353500D01*
X450000Y392500D02*
X455000D01*
X445000Y387500D02*
X450000Y392500D01*
X430500Y283000D02*
Y335500D01*
X432500Y337500D01*
X437500Y372500D02*
X442500D01*
X445000Y375000D01*
Y387500D01*
X427500Y253500D02*
X435000Y246000D01*
X427500Y253500D02*
Y358500D01*
X432500Y337500D02*
Y352500D01*
X445000Y397500D02*
X450000Y392500D01*
X445000Y397500D02*
Y410000D01*
X442500Y412500D02*
X445000Y410000D01*
X437500Y412500D02*
X442500D01*
X432500Y402500D02*
X437500D01*
X430000Y405000D02*
X432500Y402500D01*
X430000Y405000D02*
Y415500D01*
X433500Y419000D01*
X461000D01*
X465000Y415000D01*
Y365000D02*
Y415000D01*
X455000Y402500D02*
X460000D01*
X461500Y401000D01*
Y363000D02*
Y401000D01*
X436500Y346500D02*
X437500Y347500D01*
Y372500D01*
D13*
X305000Y362500D02*
D03*
X295000D02*
D03*
X285000D02*
D03*
X290000Y246000D02*
D03*
Y276000D02*
D03*
Y286000D02*
D03*
Y316000D02*
D03*
Y306000D02*
D03*
Y296000D02*
D03*
Y266000D02*
D03*
Y256000D02*
D03*
X485000Y271000D02*
D03*
Y281000D02*
D03*
Y291000D02*
D03*
Y301000D02*
D03*
Y311000D02*
D03*
Y321000D02*
D03*
Y331000D02*
D03*
Y341000D02*
D03*
X455000Y372500D02*
D03*
Y382500D02*
D03*
Y392500D02*
D03*
Y402500D02*
D03*
Y412500D02*
D03*
X437500D02*
D03*
Y402500D02*
D03*
Y392500D02*
D03*
Y382500D02*
D03*
Y372500D02*
D03*
D14*
X480000Y235000D02*
D03*
X470000D02*
D03*
D15*
X300000Y246000D02*
D03*
Y256000D02*
D03*
Y266000D02*
D03*
Y276000D02*
D03*
Y286000D02*
D03*
Y296000D02*
D03*
Y306000D02*
D03*
Y316000D02*
D03*
Y326000D02*
D03*
X330000D02*
D03*
Y316000D02*
D03*
Y306000D02*
D03*
Y296000D02*
D03*
Y286000D02*
D03*
Y276000D02*
D03*
Y266000D02*
D03*
Y256000D02*
D03*
X377500Y246000D02*
D03*
Y256000D02*
D03*
Y266000D02*
D03*
Y276000D02*
D03*
Y286000D02*
D03*
Y296000D02*
D03*
Y306000D02*
D03*
Y316000D02*
D03*
Y326000D02*
D03*
X347500D02*
D03*
Y316000D02*
D03*
Y306000D02*
D03*
Y296000D02*
D03*
Y286000D02*
D03*
Y276000D02*
D03*
Y266000D02*
D03*
Y256000D02*
D03*
Y246000D02*
D03*
Y236000D02*
D03*
X417500D02*
D03*
Y246000D02*
D03*
Y256000D02*
D03*
Y266000D02*
D03*
Y276000D02*
D03*
Y286000D02*
D03*
Y296000D02*
D03*
Y306000D02*
D03*
Y316000D02*
D03*
Y326000D02*
D03*
X447500D02*
D03*
Y316000D02*
D03*
Y306000D02*
D03*
Y296000D02*
D03*
Y286000D02*
D03*
Y276000D02*
D03*
Y266000D02*
D03*
Y256000D02*
D03*
Y246000D02*
D03*
D16*
X330000D02*
D03*
X377500Y236000D02*
D03*
X447500D02*
D03*
D17*
X417500Y377500D02*
D03*
D18*
X407500D02*
D03*
X397500D02*
D03*
X387500D02*
D03*
X377500D02*
D03*
X367500D02*
D03*
X357500D02*
D03*
X347500D02*
D03*
X337500D02*
D03*
Y347500D02*
D03*
X347500D02*
D03*
X357500D02*
D03*
X367500D02*
D03*
X377500D02*
D03*
X387500D02*
D03*
X397500D02*
D03*
X407500D02*
D03*
X417500D02*
D03*
D19*
X475000Y341000D02*
D03*
D20*
Y271000D02*
D03*
Y281000D02*
D03*
Y291000D02*
D03*
Y301000D02*
D03*
Y311000D02*
D03*
Y321000D02*
D03*
Y331000D02*
D03*
D21*
X417500Y216000D02*
D03*
D22*
X407500D02*
D03*
X397500D02*
D03*
X347500D02*
D03*
X357500D02*
D03*
X367500D02*
D03*
X377500D02*
D03*
X387500D02*
D03*
X347500Y396000D02*
D03*
X357500D02*
D03*
X367500D02*
D03*
X377500D02*
D03*
X387500D02*
D03*
X397500D02*
D03*
X407500D02*
D03*
X417500D02*
D03*
D23*
X284075Y404425D02*
D03*
X480925D02*
D03*
X284075Y207575D02*
D03*
X480925D02*
D03*
D24*
X312500Y407500D02*
D03*
D25*
X322500D02*
D03*
D26*
X310000Y321000D02*
D03*
X339000Y330000D02*
D03*
X342500Y387500D02*
D03*
X320000Y301000D02*
D03*
X436500Y321000D02*
D03*
X364500D02*
D03*
X366500Y281000D02*
D03*
X392500Y366000D02*
D03*
X402500Y276000D02*
D03*
X360000Y311000D02*
D03*
X392500Y286000D02*
D03*
X427500Y358500D02*
D03*
X432500Y352500D02*
D03*
M02*
