G04 Layer_Color=255*
%FSLAX25Y25*%
%MOIN*%
G70*
G01*
G75*
%ADD13C,0.07500*%
%ADD14C,0.08000*%
%ADD15O,0.10000X0.05000*%
%ADD16R,0.08000X0.07000*%
%ADD17R,0.07000X0.08000*%
%ADD18O,0.05000X0.10000*%
%ADD19R,0.07500X0.06000*%
%ADD20O,0.08500X0.06000*%
%ADD21R,0.07600X0.07600*%
%ADD22C,0.07600*%
%ADD23C,0.25000*%
%ADD24O,0.08000X0.07600*%
%ADD25R,0.08000X0.08500*%
D13*
X305000Y362500D02*
D03*
X295000D02*
D03*
X285000D02*
D03*
X290000Y246000D02*
D03*
Y276000D02*
D03*
Y286000D02*
D03*
Y316000D02*
D03*
Y306000D02*
D03*
Y296000D02*
D03*
Y266000D02*
D03*
Y256000D02*
D03*
X485000Y271000D02*
D03*
Y281000D02*
D03*
Y291000D02*
D03*
Y301000D02*
D03*
Y311000D02*
D03*
Y321000D02*
D03*
Y331000D02*
D03*
Y341000D02*
D03*
X455000Y372500D02*
D03*
Y382500D02*
D03*
Y392500D02*
D03*
Y402500D02*
D03*
Y412500D02*
D03*
X437500D02*
D03*
Y402500D02*
D03*
Y392500D02*
D03*
Y382500D02*
D03*
Y372500D02*
D03*
D14*
X480000Y235000D02*
D03*
X470000D02*
D03*
D15*
X300000Y246000D02*
D03*
Y256000D02*
D03*
Y266000D02*
D03*
Y276000D02*
D03*
Y286000D02*
D03*
Y296000D02*
D03*
Y306000D02*
D03*
Y316000D02*
D03*
Y326000D02*
D03*
X330000D02*
D03*
Y316000D02*
D03*
Y306000D02*
D03*
Y296000D02*
D03*
Y286000D02*
D03*
Y276000D02*
D03*
Y266000D02*
D03*
Y256000D02*
D03*
X377500Y246000D02*
D03*
Y256000D02*
D03*
Y266000D02*
D03*
Y276000D02*
D03*
Y286000D02*
D03*
Y296000D02*
D03*
Y306000D02*
D03*
Y316000D02*
D03*
Y326000D02*
D03*
X347500D02*
D03*
Y316000D02*
D03*
Y306000D02*
D03*
Y296000D02*
D03*
Y286000D02*
D03*
Y276000D02*
D03*
Y266000D02*
D03*
Y256000D02*
D03*
Y246000D02*
D03*
Y236000D02*
D03*
X417500D02*
D03*
Y246000D02*
D03*
Y256000D02*
D03*
Y266000D02*
D03*
Y276000D02*
D03*
Y286000D02*
D03*
Y296000D02*
D03*
Y306000D02*
D03*
Y316000D02*
D03*
Y326000D02*
D03*
X447500D02*
D03*
Y316000D02*
D03*
Y306000D02*
D03*
Y296000D02*
D03*
Y286000D02*
D03*
Y276000D02*
D03*
Y266000D02*
D03*
Y256000D02*
D03*
Y246000D02*
D03*
D16*
X330000D02*
D03*
X377500Y236000D02*
D03*
X447500D02*
D03*
D17*
X417500Y377500D02*
D03*
D18*
X407500D02*
D03*
X397500D02*
D03*
X387500D02*
D03*
X377500D02*
D03*
X367500D02*
D03*
X357500D02*
D03*
X347500D02*
D03*
X337500D02*
D03*
Y347500D02*
D03*
X347500D02*
D03*
X357500D02*
D03*
X367500D02*
D03*
X377500D02*
D03*
X387500D02*
D03*
X397500D02*
D03*
X407500D02*
D03*
X417500D02*
D03*
D19*
X475000Y341000D02*
D03*
D20*
Y271000D02*
D03*
Y281000D02*
D03*
Y291000D02*
D03*
Y301000D02*
D03*
Y311000D02*
D03*
Y321000D02*
D03*
Y331000D02*
D03*
D21*
X417500Y216000D02*
D03*
D22*
X407500D02*
D03*
X397500D02*
D03*
X347500D02*
D03*
X357500D02*
D03*
X367500D02*
D03*
X377500D02*
D03*
X387500D02*
D03*
X347500Y396000D02*
D03*
X357500D02*
D03*
X367500D02*
D03*
X377500D02*
D03*
X387500D02*
D03*
X397500D02*
D03*
X407500D02*
D03*
X417500D02*
D03*
D23*
X284075Y404425D02*
D03*
X480925D02*
D03*
X284075Y207575D02*
D03*
X480925D02*
D03*
D24*
X312500Y407500D02*
D03*
D25*
X322500D02*
D03*
M02*
