G04 Layer_Physical_Order=2*
G04 Layer_Color=16711680*
%FSLAX25Y25*%
%MOIN*%
G70*
G01*
G75*
%ADD10R,0.07874X0.05000*%
%ADD13C,0.01000*%
%ADD15C,0.01500*%
%ADD16R,0.60000X0.62500*%
%ADD18R,1.35000X0.22500*%
%ADD19R,0.07000X0.07000*%
%ADD20C,0.07000*%
%ADD21C,0.17500*%
%ADD22C,0.07874*%
%ADD23C,0.03900*%
%ADD24R,0.52500X1.32000*%
D10*
X303500Y150000D02*
D03*
Y160000D02*
D03*
Y170000D02*
D03*
Y180000D02*
D03*
Y190000D02*
D03*
Y200000D02*
D03*
Y210000D02*
D03*
Y220000D02*
D03*
Y230000D02*
D03*
Y240000D02*
D03*
Y250000D02*
D03*
Y260000D02*
D03*
Y270000D02*
D03*
Y280000D02*
D03*
Y290000D02*
D03*
Y300000D02*
D03*
Y310000D02*
D03*
Y320000D02*
D03*
Y330000D02*
D03*
Y340000D02*
D03*
D13*
X250400Y245400D02*
X260000Y255000D01*
X223550Y304550D02*
X237950D01*
X215100Y296100D02*
X223550Y304550D01*
X192500Y296100D02*
X215100D01*
X240800Y286500D02*
X248700Y278600D01*
X240800Y286500D02*
Y290600D01*
X192508Y302008D02*
X215200D01*
X189050Y298550D02*
X192508Y302008D01*
X189050Y294000D02*
Y298550D01*
X212000Y270200D02*
X220000Y278200D01*
X212000Y245972D02*
Y270200D01*
Y245972D02*
X215586Y242386D01*
X215000Y267500D02*
X219900Y272400D01*
X215000Y250063D02*
Y267500D01*
Y250063D02*
X222663Y242400D01*
X212291Y284291D02*
X213100D01*
X209000Y281000D02*
X212291Y284291D01*
X209000Y242500D02*
Y281000D01*
Y242500D02*
X213564Y237936D01*
X247064D01*
X233300Y221700D02*
X260000Y195000D01*
X216900Y221700D02*
X233300D01*
X225500Y269964D02*
Y282000D01*
X218750Y288750D02*
X225500Y282000D01*
X213471Y288750D02*
X218750D01*
X218662Y263126D02*
X225500Y269964D01*
X213421Y288800D02*
X213471Y288750D01*
X194250Y288800D02*
X213421D01*
X192500Y251636D02*
Y272500D01*
X260000Y215000D02*
X272500D01*
X239700Y235300D02*
X260000Y215000D01*
X211836Y235300D02*
X239700D01*
X277500Y340000D02*
X303500D01*
X272500Y335000D02*
X277500Y340000D01*
Y330000D02*
X303500D01*
X272500Y325000D02*
X277500Y330000D01*
Y320000D02*
X303500D01*
X272500Y315000D02*
X277500Y320000D01*
Y310000D02*
X303500D01*
X272500Y305000D02*
X277500Y310000D01*
Y300000D02*
X303500D01*
X272500Y295000D02*
X277500Y300000D01*
Y290000D02*
X303500D01*
X272500Y285000D02*
X277500Y290000D01*
Y280000D02*
X303500D01*
X272500Y275000D02*
X277500Y280000D01*
Y270000D02*
X303500D01*
X272500Y265000D02*
X277500Y270000D01*
Y260000D02*
X303500D01*
X272500Y255000D02*
X277500Y260000D01*
Y250000D02*
X303500D01*
X277500Y240000D02*
X303500D01*
X272500Y235000D02*
X277500Y240000D01*
Y230000D02*
X303500D01*
X272500Y225000D02*
X277500Y230000D01*
Y220000D02*
X303500D01*
X272500Y215000D02*
X277500Y220000D01*
Y210000D02*
X303500D01*
X272500Y205000D02*
X277500Y210000D01*
Y200000D02*
X303500D01*
X272500Y195000D02*
X277500Y200000D01*
Y190000D02*
X303500D01*
X272500Y185000D02*
X277500Y190000D01*
Y180000D02*
X303500D01*
X272500Y175000D02*
X277500Y180000D01*
Y170000D02*
X303500D01*
X272500Y165000D02*
X277500Y170000D01*
Y160000D02*
X303500D01*
X272500Y155000D02*
X277500Y160000D01*
Y150000D02*
X303500D01*
X272500Y145000D02*
X277500Y150000D01*
X240500Y323500D02*
X246000Y318000D01*
X189500Y330000D02*
X227000D01*
X185000Y325500D02*
X189500Y330000D01*
X188495Y323500D02*
X240500D01*
X181439Y316443D02*
X188495Y323500D01*
X181439Y236297D02*
X192500Y225236D01*
X181439Y236297D02*
Y316443D01*
X226500Y248900D02*
X234500Y256900D01*
Y297100D01*
X232500Y299100D02*
X234500Y297100D01*
X256500Y289600D02*
Y324700D01*
X254800Y326400D02*
X256500Y324700D01*
X223036Y256600D02*
X231000Y264564D01*
Y292315D01*
X189050Y274936D02*
X192500Y278386D01*
X189050Y249550D02*
Y274936D01*
Y249550D02*
X216900Y221700D01*
X214900Y292200D02*
X225250Y302550D01*
X234400D01*
X237272Y299678D01*
Y281018D02*
Y299678D01*
Y281018D02*
X253290Y265000D01*
X222663Y242400D02*
X257400D01*
X260000Y245000D01*
X201500Y245636D02*
X211836Y235300D01*
X201500Y245636D02*
Y275200D01*
X186180Y290520D02*
X201500Y275200D01*
X186180Y290520D02*
Y308000D01*
X191999Y313819D01*
X247064Y237936D02*
X260000Y225000D01*
X234500Y230500D02*
X260000Y205000D01*
X213636Y230500D02*
X234500D01*
X192500Y251636D02*
X213636Y230500D01*
X189050Y294000D02*
X194250Y288800D01*
X218662Y250863D02*
Y263126D01*
Y250863D02*
X224125Y245400D01*
X250400D01*
X191700Y306900D02*
X248700D01*
X250600Y305000D01*
X187050Y246150D02*
X251600Y181600D01*
X187050Y246150D02*
Y283445D01*
X184180Y286314D02*
X187050Y283445D01*
X184180Y286314D02*
Y311380D01*
X192524Y319724D01*
X244929Y290071D02*
X260000Y275000D01*
X244929Y290071D02*
Y297571D01*
X237950Y304550D02*
X244929Y297571D01*
X272500Y245000D02*
X277500Y250000D01*
X260000Y275000D02*
X272500D01*
X253290Y265000D02*
X272500D01*
X260000Y255000D02*
X272500D01*
X260000Y245000D02*
X272500D01*
X260000Y225000D02*
X272500D01*
X260000Y205000D02*
X272500D01*
X260000Y195000D02*
X272500D01*
D15*
X213178Y148465D02*
X230000Y165286D01*
Y192500D01*
D16*
X142500Y336250D02*
D03*
Y143750D02*
D03*
D18*
X240000Y356250D02*
D03*
Y123750D02*
D03*
D19*
X272500Y335000D02*
D03*
D20*
X282500D02*
D03*
X272500Y325000D02*
D03*
X282500D02*
D03*
X272500Y315000D02*
D03*
X282500D02*
D03*
X272500Y305000D02*
D03*
X282500D02*
D03*
X272500Y295000D02*
D03*
X282500D02*
D03*
X272500Y285000D02*
D03*
X282500D02*
D03*
X272500Y275000D02*
D03*
X282500D02*
D03*
X272500Y265000D02*
D03*
X282500D02*
D03*
X272500Y255000D02*
D03*
X282500D02*
D03*
X272500Y245000D02*
D03*
X282500D02*
D03*
X272500Y235000D02*
D03*
X282500D02*
D03*
X272500Y225000D02*
D03*
X282500D02*
D03*
X272500Y215000D02*
D03*
X282500D02*
D03*
X272500Y205000D02*
D03*
X282500D02*
D03*
X272500Y195000D02*
D03*
X282500D02*
D03*
X272500Y185000D02*
D03*
X282500D02*
D03*
X272500Y175000D02*
D03*
X282500D02*
D03*
X272500Y165000D02*
D03*
X282500D02*
D03*
X272500Y155000D02*
D03*
X282500D02*
D03*
X272500Y145000D02*
D03*
X282500D02*
D03*
D21*
X230000Y126000D02*
D03*
Y356000D02*
D03*
D22*
X172343Y188819D02*
D03*
Y291181D02*
D03*
D23*
X147500Y157000D02*
D03*
X137500Y136500D02*
D03*
X145000Y117500D02*
D03*
X117500Y167500D02*
D03*
X167500D02*
D03*
X117500Y312500D02*
D03*
X167500D02*
D03*
X206000Y130000D02*
D03*
Y117500D02*
D03*
X252000D02*
D03*
Y130000D02*
D03*
X277500D02*
D03*
Y117500D02*
D03*
X147500Y322500D02*
D03*
X137500Y343500D02*
D03*
Y259000D02*
D03*
Y237000D02*
D03*
Y219000D02*
D03*
X157500Y237000D02*
D03*
Y219000D02*
D03*
Y200500D02*
D03*
X137500D02*
D03*
X157500Y259000D02*
D03*
X137500Y280000D02*
D03*
X145000Y362500D02*
D03*
X117500Y337500D02*
D03*
X174000Y362500D02*
D03*
Y350000D02*
D03*
X206000Y362500D02*
D03*
Y350000D02*
D03*
X252000Y362500D02*
D03*
Y350000D02*
D03*
X277500Y362500D02*
D03*
Y350000D02*
D03*
X157500Y305000D02*
D03*
X302500Y350000D02*
D03*
Y362500D02*
D03*
X137500Y305000D02*
D03*
X167500Y337500D02*
D03*
X157500Y280000D02*
D03*
X137500Y175000D02*
D03*
X157500D02*
D03*
X167500Y142500D02*
D03*
X302500Y117500D02*
D03*
Y130000D02*
D03*
X167500D02*
D03*
Y117500D02*
D03*
X117500D02*
D03*
Y142500D02*
D03*
Y362500D02*
D03*
X192500Y272500D02*
D03*
X230000Y192500D02*
D03*
X185000Y325500D02*
D03*
X248700Y278600D02*
D03*
X240800Y290600D02*
D03*
X192500Y225236D02*
D03*
X246000Y318000D02*
D03*
X226500Y248900D02*
D03*
X232500Y299100D02*
D03*
X227000Y330000D02*
D03*
X256500Y289600D02*
D03*
X254800Y326400D02*
D03*
X223036Y256600D02*
D03*
X231000Y292315D02*
D03*
X192500Y278386D02*
D03*
X214900Y292200D02*
D03*
X219900Y272400D02*
D03*
X191999Y313819D02*
D03*
X213178Y148465D02*
D03*
X213100Y284291D02*
D03*
X220000Y278200D02*
D03*
X215586Y242386D02*
D03*
X215200Y302008D02*
D03*
X191700Y306900D02*
D03*
X250600Y305000D02*
D03*
X251600Y181600D02*
D03*
X192524Y319724D02*
D03*
X192500Y296100D02*
D03*
D24*
X138750Y239000D02*
D03*
M02*
