G04 Layer_Color=8388736*
%FSLAX25Y25*%
%MOIN*%
G70*
G01*
G75*
%ADD28R,0.08674X0.05800*%
%ADD29R,0.16548X0.04737*%
%ADD30R,0.12611X0.24422*%
%ADD31R,0.07800X0.07800*%
%ADD32C,0.07800*%
%ADD33C,0.18300*%
%ADD34C,0.08674*%
D28*
X303500Y335000D02*
D03*
Y325000D02*
D03*
Y315000D02*
D03*
Y305000D02*
D03*
Y295000D02*
D03*
Y285000D02*
D03*
Y275000D02*
D03*
Y265000D02*
D03*
Y255000D02*
D03*
Y245000D02*
D03*
Y235000D02*
D03*
Y225000D02*
D03*
Y215000D02*
D03*
Y205000D02*
D03*
Y195000D02*
D03*
Y185000D02*
D03*
Y175000D02*
D03*
Y165000D02*
D03*
Y155000D02*
D03*
Y145000D02*
D03*
D29*
X202854Y331535D02*
D03*
Y325630D02*
D03*
Y319724D02*
D03*
Y313819D02*
D03*
Y307913D02*
D03*
Y302008D02*
D03*
Y296102D02*
D03*
Y290197D02*
D03*
Y284291D02*
D03*
Y278386D02*
D03*
Y272480D02*
D03*
Y266575D02*
D03*
Y260669D02*
D03*
Y254764D02*
D03*
Y248858D02*
D03*
Y242953D02*
D03*
Y237047D02*
D03*
Y231142D02*
D03*
Y225236D02*
D03*
Y219331D02*
D03*
Y213425D02*
D03*
Y207520D02*
D03*
Y201614D02*
D03*
Y195709D02*
D03*
Y189803D02*
D03*
Y183898D02*
D03*
Y177992D02*
D03*
Y172087D02*
D03*
Y166181D02*
D03*
Y160276D02*
D03*
Y154370D02*
D03*
Y148465D02*
D03*
D30*
X123327Y188819D02*
D03*
Y291181D02*
D03*
D31*
X272500Y335000D02*
D03*
D32*
X282500D02*
D03*
X272500Y325000D02*
D03*
X282500D02*
D03*
X272500Y315000D02*
D03*
X282500D02*
D03*
X272500Y305000D02*
D03*
X282500D02*
D03*
X272500Y295000D02*
D03*
X282500D02*
D03*
X272500Y285000D02*
D03*
X282500D02*
D03*
X272500Y275000D02*
D03*
X282500D02*
D03*
X272500Y265000D02*
D03*
X282500D02*
D03*
X272500Y255000D02*
D03*
X282500D02*
D03*
X272500Y245000D02*
D03*
X282500D02*
D03*
X272500Y235000D02*
D03*
X282500D02*
D03*
X272500Y225000D02*
D03*
X282500D02*
D03*
X272500Y215000D02*
D03*
X282500D02*
D03*
X272500Y205000D02*
D03*
X282500D02*
D03*
X272500Y195000D02*
D03*
X282500D02*
D03*
X272500Y185000D02*
D03*
X282500D02*
D03*
X272500Y175000D02*
D03*
X282500D02*
D03*
X272500Y165000D02*
D03*
X282500D02*
D03*
X272500Y155000D02*
D03*
X282500D02*
D03*
X272500Y145000D02*
D03*
X282500D02*
D03*
D33*
X230000Y126000D02*
D03*
Y356000D02*
D03*
D34*
X172343Y188819D02*
D03*
Y291181D02*
D03*
M02*
