G04 Layer_Color=16711935*
%FSLAX25Y25*%
%MOIN*%
G70*
G01*
G75*
%ADD28R,0.08674X0.05800*%
%ADD31R,0.07800X0.07800*%
%ADD32C,0.07800*%
%ADD33C,0.18300*%
%ADD34C,0.08674*%
D28*
X303500Y150000D02*
D03*
Y160000D02*
D03*
Y170000D02*
D03*
Y180000D02*
D03*
Y190000D02*
D03*
Y200000D02*
D03*
Y210000D02*
D03*
Y220000D02*
D03*
Y230000D02*
D03*
Y240000D02*
D03*
Y250000D02*
D03*
Y260000D02*
D03*
Y270000D02*
D03*
Y280000D02*
D03*
Y290000D02*
D03*
Y300000D02*
D03*
Y310000D02*
D03*
Y320000D02*
D03*
Y330000D02*
D03*
Y340000D02*
D03*
D31*
X272500Y335000D02*
D03*
D32*
X282500D02*
D03*
X272500Y325000D02*
D03*
X282500D02*
D03*
X272500Y315000D02*
D03*
X282500D02*
D03*
X272500Y305000D02*
D03*
X282500D02*
D03*
X272500Y295000D02*
D03*
X282500D02*
D03*
X272500Y285000D02*
D03*
X282500D02*
D03*
X272500Y275000D02*
D03*
X282500D02*
D03*
X272500Y265000D02*
D03*
X282500D02*
D03*
X272500Y255000D02*
D03*
X282500D02*
D03*
X272500Y245000D02*
D03*
X282500D02*
D03*
X272500Y235000D02*
D03*
X282500D02*
D03*
X272500Y225000D02*
D03*
X282500D02*
D03*
X272500Y215000D02*
D03*
X282500D02*
D03*
X272500Y205000D02*
D03*
X282500D02*
D03*
X272500Y195000D02*
D03*
X282500D02*
D03*
X272500Y185000D02*
D03*
X282500D02*
D03*
X272500Y175000D02*
D03*
X282500D02*
D03*
X272500Y165000D02*
D03*
X282500D02*
D03*
X272500Y155000D02*
D03*
X282500D02*
D03*
X272500Y145000D02*
D03*
X282500D02*
D03*
D33*
X230000Y126000D02*
D03*
Y356000D02*
D03*
D34*
X172343Y188819D02*
D03*
Y291181D02*
D03*
M02*
