G04 Layer_Color=8388736*
%FSLAX25Y25*%
%MOIN*%
G70*
G01*
G75*
%ADD33R,0.09300X0.08800*%
%ADD34O,0.08400X0.08800*%
%ADD35R,0.05800X0.10800*%
%ADD36O,0.05800X0.10800*%
%ADD37O,0.06312X0.12800*%
%ADD38R,0.06312X0.10800*%
%ADD39C,0.07300*%
%ADD40C,0.08300*%
%ADD41C,0.08800*%
%ADD42O,0.10800X0.05800*%
%ADD43R,0.10800X0.05800*%
%ADD44C,0.25800*%
%ADD45C,0.07800*%
%ADD46R,0.07800X0.07800*%
%ADD47C,0.06312*%
D33*
X487500Y385000D02*
D03*
D34*
Y375000D02*
D03*
D35*
X537500Y392500D02*
D03*
D36*
X547500D02*
D03*
X557500D02*
D03*
X567500D02*
D03*
X577500D02*
D03*
X587500D02*
D03*
X597500D02*
D03*
X607500D02*
D03*
X617500D02*
D03*
X627500D02*
D03*
Y422500D02*
D03*
X617500D02*
D03*
X607500D02*
D03*
X597500D02*
D03*
X587500D02*
D03*
X577500D02*
D03*
X567500D02*
D03*
X557500D02*
D03*
X547500D02*
D03*
X537500D02*
D03*
D37*
X508000Y342500D02*
D03*
X518000D02*
D03*
X528000D02*
D03*
X538000D02*
D03*
X548000D02*
D03*
X558000D02*
D03*
X568000D02*
D03*
X578000D02*
D03*
X588000D02*
D03*
X598000D02*
D03*
X608000D02*
D03*
X618000D02*
D03*
Y282500D02*
D03*
X608000D02*
D03*
X598000D02*
D03*
X588000D02*
D03*
X578000D02*
D03*
X568000D02*
D03*
X558000D02*
D03*
X548000D02*
D03*
X538000D02*
D03*
X528000D02*
D03*
X518000D02*
D03*
D38*
X508000D02*
D03*
D39*
X520000Y402814D02*
D03*
Y422500D02*
D03*
X477500Y245000D02*
D03*
X497186D02*
D03*
X607500Y255000D02*
D03*
X587814D02*
D03*
D40*
X532500Y249000D02*
D03*
X572500D02*
D03*
X550000Y155000D02*
D03*
X590000D02*
D03*
X572500Y260000D02*
D03*
X532500D02*
D03*
X515000Y375000D02*
D03*
Y385000D02*
D03*
X630000Y255000D02*
D03*
X640000D02*
D03*
D41*
X487500Y195000D02*
D03*
X477500D02*
D03*
X487500Y210000D02*
D03*
X477500D02*
D03*
X487500Y225000D02*
D03*
X477500D02*
D03*
X508000Y260000D02*
D03*
X518000D02*
D03*
X613000Y155000D02*
D03*
X603000D02*
D03*
X545000Y372500D02*
D03*
X535000D02*
D03*
X612500Y437500D02*
D03*
X602500D02*
D03*
X622500D02*
D03*
X557500D02*
D03*
X547500D02*
D03*
X567500D02*
D03*
D42*
X642500Y235000D02*
D03*
Y225000D02*
D03*
Y215000D02*
D03*
Y205000D02*
D03*
Y195000D02*
D03*
Y185000D02*
D03*
Y175000D02*
D03*
X612500D02*
D03*
Y185000D02*
D03*
Y195000D02*
D03*
Y205000D02*
D03*
Y215000D02*
D03*
Y225000D02*
D03*
X592500Y235000D02*
D03*
Y225000D02*
D03*
Y215000D02*
D03*
Y205000D02*
D03*
Y195000D02*
D03*
Y185000D02*
D03*
Y175000D02*
D03*
X562500D02*
D03*
Y185000D02*
D03*
Y195000D02*
D03*
Y205000D02*
D03*
Y215000D02*
D03*
Y225000D02*
D03*
X542500Y235000D02*
D03*
Y225000D02*
D03*
Y215000D02*
D03*
Y205000D02*
D03*
Y195000D02*
D03*
Y185000D02*
D03*
Y175000D02*
D03*
X512500D02*
D03*
Y185000D02*
D03*
Y195000D02*
D03*
Y205000D02*
D03*
Y215000D02*
D03*
Y225000D02*
D03*
D43*
X612500Y235000D02*
D03*
X562500D02*
D03*
X512500D02*
D03*
D44*
X669500Y157500D02*
D03*
Y432500D02*
D03*
X494500D02*
D03*
Y157500D02*
D03*
D45*
X674500Y200000D02*
D03*
X664500D02*
D03*
X674500Y210000D02*
D03*
X664500D02*
D03*
X674500Y220000D02*
D03*
X664500D02*
D03*
X674500Y230000D02*
D03*
X664500D02*
D03*
X674500Y240000D02*
D03*
X664500D02*
D03*
X674500Y250000D02*
D03*
X664500D02*
D03*
X674500Y260000D02*
D03*
X664500D02*
D03*
X674500Y270000D02*
D03*
X664500D02*
D03*
X674500Y280000D02*
D03*
X664500D02*
D03*
X674500Y290000D02*
D03*
X664500D02*
D03*
X674500Y300000D02*
D03*
X664500D02*
D03*
X674500Y310000D02*
D03*
X664500D02*
D03*
X674500Y320000D02*
D03*
X664500D02*
D03*
X674500Y330000D02*
D03*
X664500D02*
D03*
X674500Y340000D02*
D03*
X664500D02*
D03*
X674500Y350000D02*
D03*
X664500D02*
D03*
X674500Y360000D02*
D03*
X664500D02*
D03*
X674500Y370000D02*
D03*
X664500D02*
D03*
X674500Y380000D02*
D03*
X664500D02*
D03*
X674500Y390000D02*
D03*
X597500Y365000D02*
D03*
X557500D02*
D03*
Y375000D02*
D03*
X597500D02*
D03*
D46*
X664500Y390000D02*
D03*
D47*
X627000Y207500D02*
D03*
X531500Y220000D02*
D03*
X538000Y307000D02*
D03*
X557500Y260000D02*
D03*
X547500Y249000D02*
D03*
X650000Y245000D02*
D03*
X572900Y272000D02*
D03*
X555000Y270000D02*
D03*
X689500Y280000D02*
D03*
X630000Y290000D02*
D03*
X627500Y280000D02*
D03*
X650000Y299500D02*
D03*
X505000Y360000D02*
D03*
X627500Y330000D02*
D03*
X630000Y320000D02*
D03*
X645000Y413500D02*
D03*
X650000Y403500D02*
D03*
X640000Y420000D02*
D03*
M02*
