G04 Layer_Physical_Order=1*
G04 Layer_Color=255*
%FSLAX25Y25*%
%MOIN*%
G70*
G01*
G75*
%ADD10C,0.03000*%
%ADD11C,0.01500*%
%ADD12C,0.01000*%
%ADD13R,0.08500X0.08000*%
%ADD14O,0.07600X0.08000*%
%ADD15R,0.05000X0.10000*%
%ADD16O,0.05000X0.10000*%
%ADD17O,0.05512X0.12000*%
%ADD18R,0.05512X0.10000*%
%ADD19C,0.06500*%
%ADD20C,0.07500*%
%ADD21C,0.08000*%
%ADD22O,0.10000X0.05000*%
%ADD23R,0.10000X0.05000*%
%ADD24C,0.25000*%
%ADD25C,0.07000*%
%ADD26R,0.07000X0.07000*%
%ADD27C,0.05512*%
D10*
X527500Y382500D02*
X543500D01*
X524000Y379000D02*
X527500Y382500D01*
X543500D02*
X547500Y386500D01*
Y392500D01*
X541000Y402500D02*
X625000D01*
X622500Y437500D02*
X623000D01*
X522500Y235000D02*
X525000Y232500D01*
Y205000D02*
Y232500D01*
X585000Y330000D02*
X588000Y333000D01*
X500000Y330000D02*
X585000D01*
X520000Y360000D02*
X524000Y364000D01*
X529500Y235000D02*
X542500D01*
X526000Y231500D02*
X529500Y235000D01*
X512500D02*
X522500D01*
X631000Y300000D02*
X651000Y280000D01*
X511500Y300000D02*
X631000D01*
X508000Y296500D02*
X511500Y300000D01*
X625500Y294500D02*
X630000Y290000D01*
X521500Y294500D02*
X625500D01*
X518000Y291000D02*
X521500Y294500D01*
X689500Y280000D02*
Y388500D01*
X680500Y397500D02*
X689500Y388500D01*
Y190000D02*
Y280000D01*
X679500Y180000D02*
X689500Y190000D01*
X512500Y205000D02*
X525000D01*
X526000Y204000D02*
X535000Y195000D01*
X542500D01*
X530000Y167500D02*
X548000D01*
X555500Y175000D01*
X522500D02*
X530000Y167500D01*
X612500Y215000D02*
X613000Y214500D01*
X621500D01*
X624000Y217000D01*
Y222000D01*
X621000Y225000D02*
X624000Y222000D01*
X620000Y225000D02*
X621000D01*
X626500Y245500D02*
X638000D01*
X614500D02*
X626500D01*
X626000Y245000D02*
X626500Y245500D01*
X626000Y231000D02*
Y245000D01*
X620000Y225000D02*
X626000Y231000D01*
X612500Y225000D02*
X620000D01*
X607500Y252500D02*
Y255000D01*
Y252500D02*
X614500Y245500D01*
X638000D02*
X640000Y247500D01*
Y255000D01*
X635125Y273125D02*
Y284875D01*
X630000Y268000D02*
X635125Y273125D01*
X630000Y290000D02*
X635125Y284875D01*
X667000Y180000D02*
X679500D01*
X654500Y167500D02*
X667000Y180000D01*
X629500Y167500D02*
X654500D01*
X622000Y175000D02*
X629500Y167500D01*
X612500Y175000D02*
X622000D01*
X607500D02*
X612500D01*
X600000Y167500D02*
X607500Y175000D01*
X576500Y167500D02*
X600000D01*
X569000Y175000D02*
X576500Y167500D01*
X562500Y175000D02*
X569000D01*
X555500D02*
X562500D01*
X512500D02*
X522500D01*
X518000Y248000D02*
Y260000D01*
X512500Y242500D02*
X518000Y248000D01*
X512500Y235000D02*
Y242500D01*
X510000Y245000D02*
X512500Y242500D01*
X497500Y245000D02*
X510000D01*
X518000Y260000D02*
Y282500D01*
X508000Y260000D02*
Y282500D01*
X518000D02*
Y291000D01*
X652000Y280000D02*
X655000D01*
X651000D02*
X652000D01*
X640000Y268000D02*
X652000Y280000D01*
X508000Y282500D02*
Y296500D01*
X630000Y255000D02*
Y268000D01*
X640000Y255000D02*
Y268000D01*
X588000Y333000D02*
Y342500D01*
X496000Y334000D02*
X500000Y330000D01*
X496000Y381500D02*
X499500Y385000D01*
X496000Y334000D02*
Y381500D01*
Y385000D01*
X499500D01*
X515000D01*
X492500D02*
X496000Y381500D01*
X487500Y385000D02*
X492500D01*
X496000D01*
X505000Y360000D02*
X520000D01*
X627500Y392500D02*
X635000D01*
X640000Y397500D01*
X627500Y392500D02*
Y400000D01*
X625000Y402500D02*
X627500Y400000D01*
X537500Y392500D02*
Y399000D01*
X541000Y402500D01*
X640000Y397500D02*
X680500D01*
X547500Y386500D02*
X551500Y382500D01*
X567500D01*
Y392500D01*
Y382500D02*
X587500D01*
Y392500D01*
X607500Y386500D02*
Y392500D01*
X603500Y382500D02*
X607500Y386500D01*
X587500Y382500D02*
X603500D01*
X622500Y437500D02*
Y443000D01*
X619500Y446000D02*
X622500Y443000D01*
X567500Y446000D02*
X619500D01*
X567500Y437500D02*
Y446000D01*
X537000D02*
X567500D01*
X530000Y439000D02*
X537000Y446000D01*
X513500Y416000D02*
X520000Y422500D01*
X513500Y398500D02*
Y416000D01*
Y398500D02*
X524000Y388000D01*
X520000Y402814D02*
X530000Y412814D01*
Y439000D01*
X524000Y386000D02*
X527500Y382500D01*
X524000D02*
Y386000D01*
Y388000D01*
Y382500D02*
X527500D01*
X524000Y364000D02*
Y379000D01*
Y382500D01*
D11*
X646000Y407500D02*
X650000Y403500D01*
X565000Y407500D02*
X646000D01*
X557500Y415000D02*
X565000Y407500D01*
X642000Y410500D02*
X645000Y413500D01*
X582500Y410500D02*
X642000D01*
X577500Y415500D02*
X582500Y410500D01*
X623500Y207500D02*
X627000D01*
X621000Y210000D02*
X623500Y207500D01*
X531500Y220000D02*
X549000D01*
X593000Y328500D02*
Y350000D01*
X528000Y264500D02*
X532500Y260000D01*
X557500Y253500D02*
X576000Y235000D01*
X557500Y253500D02*
Y260000D01*
X550000Y253450D02*
Y280500D01*
Y253450D02*
X550550D01*
X548000Y282500D02*
X550000Y280500D01*
X562500Y235000D02*
Y241500D01*
X550550Y253450D02*
X562500Y241500D01*
X547500Y242500D02*
Y249000D01*
X650000Y232000D02*
Y245000D01*
X648000Y230000D02*
X650000Y232000D01*
X637500Y230000D02*
X648000D01*
X632500Y225000D02*
X637500Y230000D01*
X588000Y242500D02*
X592500D01*
X582500Y237000D02*
X588000Y242500D01*
X582500Y217500D02*
Y237000D01*
X572900Y272000D02*
X589000D01*
X576000Y198000D02*
Y235000D01*
X585000Y215000D02*
X592500D01*
X582500Y217500D02*
X585000Y215000D01*
X592500Y242500D02*
X595000Y245000D01*
Y260000D01*
X588500Y266500D02*
X595000Y260000D01*
X568500Y266500D02*
X588500D01*
X565000Y270000D02*
X568500Y266500D01*
X555000Y270000D02*
X565000D01*
X601000Y215000D02*
Y260000D01*
Y215000D02*
X606000Y210000D01*
X589000Y272000D02*
X601000Y260000D01*
X538000Y267000D02*
X540000Y265000D01*
Y251000D02*
Y265000D01*
X537500Y248500D02*
X540000Y251000D01*
X538000Y267000D02*
Y282500D01*
X556000Y230000D02*
X568000D01*
X552500Y233500D02*
X556000Y230000D01*
X552500Y233500D02*
Y237500D01*
X572500Y186000D02*
Y225500D01*
X568000Y230000D02*
X572500Y225500D01*
X547500Y242500D02*
X552500Y237500D01*
X601000Y185000D02*
X606000Y190000D01*
X592500Y185000D02*
X601000D01*
X606000Y190000D02*
X628500D01*
X632500Y194000D02*
Y225000D01*
X628500Y190000D02*
X632500Y194000D01*
X554500Y187000D02*
Y214500D01*
X549000Y220000D02*
X554500Y214500D01*
X550500Y177500D02*
Y213000D01*
X548000Y175000D02*
X550500Y177500D01*
X542500Y175000D02*
X548000D01*
X548500Y215000D02*
X550500Y213000D01*
X542500Y215000D02*
X548500D01*
X527500Y185000D02*
X542500D01*
X522500Y190000D02*
X527500Y185000D01*
X507000Y190000D02*
X522500D01*
X502500Y211500D02*
X506000Y215000D01*
X502500Y194500D02*
Y211500D01*
Y194500D02*
X507000Y190000D01*
X506000Y215000D02*
X512500D01*
X504500Y225000D02*
X512500D01*
X498500Y219000D02*
X504500Y225000D01*
X498500Y191500D02*
Y219000D01*
Y191500D02*
X505000Y185000D01*
X684500Y234000D02*
Y369000D01*
X680500Y230000D02*
X684500Y234000D01*
X678500Y365000D02*
X681000Y362500D01*
Y247000D02*
Y362500D01*
X679000Y245000D02*
X681000Y247000D01*
X606000Y210000D02*
X621000D01*
X674500Y230000D02*
X680500D01*
X677500Y245000D02*
X679000D01*
X669500D02*
X671722D01*
X664500Y240000D02*
X669500Y245000D01*
X576000Y198000D02*
X579000Y195000D01*
X592500D01*
X554500Y187000D02*
X556500Y185000D01*
X562500D01*
X572500Y186000D02*
X583500Y175000D01*
X592500D01*
X487500Y297500D02*
X511500Y321500D01*
X487500Y225000D02*
Y297500D01*
X642500Y205000D02*
X650000D01*
X652500Y202500D01*
Y187500D02*
Y202500D01*
X650000Y185000D02*
X652500Y187500D01*
X642500Y185000D02*
X650000D01*
X528000Y264500D02*
Y282500D01*
X505000Y185000D02*
X512500D01*
X511500Y321500D02*
X586000D01*
X593000Y328500D01*
X655000Y280000D02*
X660000Y285000D01*
X655000Y280000D02*
X660000Y275000D01*
X627500Y276000D02*
Y280000D01*
X622500Y271000D02*
X627500Y276000D01*
X602000Y271000D02*
X622500D01*
X598000Y275000D02*
X602000Y271000D01*
X598000Y275000D02*
Y282500D01*
X659000Y305500D02*
X664500Y300000D01*
X652500Y340000D02*
X664500D01*
X669500Y285000D02*
X674500Y280000D01*
X667278Y285000D02*
X669500D01*
Y275000D02*
X674500Y280000D01*
X667278Y275000D02*
X669500D01*
X660000Y285000D02*
X661722D01*
X660000Y275000D02*
X661722D01*
X597500Y365000D02*
X662000D01*
X678500Y375000D02*
X684500Y369000D01*
X597500Y375000D02*
X662000D01*
X578000Y342500D02*
Y363000D01*
X566000Y375000D02*
X578000Y363000D01*
X557500Y375000D02*
X566000D01*
X627500Y330000D02*
X664500D01*
X630000Y320000D02*
X664500D01*
X608000Y327000D02*
Y342500D01*
Y327000D02*
X623500Y311500D01*
X593000Y350000D02*
X595500Y352500D01*
X640000D01*
X652500Y340000D01*
X532500Y248500D02*
X537500D01*
X645000Y412500D02*
Y413500D01*
X597500Y416500D02*
Y422500D01*
Y416500D02*
X600500Y413500D01*
X633500D01*
X577500Y415500D02*
Y422500D01*
X557500Y415000D02*
Y422500D01*
X633500Y413500D02*
X640000Y420000D01*
X618000Y323000D02*
Y342500D01*
Y323000D02*
X626000Y315000D01*
X623500Y311500D02*
X644000D01*
X650000Y305500D01*
X659000D01*
X626000Y315000D02*
X646500D01*
X651500Y310000D01*
X664500D01*
X538000Y307000D02*
X635000D01*
X642500Y299500D01*
X650000D01*
D12*
X662000Y365000D02*
X678500D01*
X671722Y245000D02*
X677500D01*
X661722Y275000D02*
X667278D01*
X661722Y285000D02*
X667278D01*
X662000Y375000D02*
X678500D01*
D13*
X487500Y385000D02*
D03*
D14*
Y375000D02*
D03*
D15*
X537500Y392500D02*
D03*
D16*
X547500D02*
D03*
X557500D02*
D03*
X567500D02*
D03*
X577500D02*
D03*
X587500D02*
D03*
X597500D02*
D03*
X607500D02*
D03*
X617500D02*
D03*
X627500D02*
D03*
Y422500D02*
D03*
X617500D02*
D03*
X607500D02*
D03*
X597500D02*
D03*
X587500D02*
D03*
X577500D02*
D03*
X567500D02*
D03*
X557500D02*
D03*
X547500D02*
D03*
X537500D02*
D03*
D17*
X508000Y342500D02*
D03*
X518000D02*
D03*
X528000D02*
D03*
X538000D02*
D03*
X548000D02*
D03*
X558000D02*
D03*
X568000D02*
D03*
X578000D02*
D03*
X588000D02*
D03*
X598000D02*
D03*
X608000D02*
D03*
X618000D02*
D03*
Y282500D02*
D03*
X608000D02*
D03*
X598000D02*
D03*
X588000D02*
D03*
X578000D02*
D03*
X568000D02*
D03*
X558000D02*
D03*
X548000D02*
D03*
X538000D02*
D03*
X528000D02*
D03*
X518000D02*
D03*
D18*
X508000D02*
D03*
D19*
X520000Y402814D02*
D03*
Y422500D02*
D03*
X477500Y245000D02*
D03*
X497186D02*
D03*
X607500Y255000D02*
D03*
X587814D02*
D03*
D20*
X532500Y249000D02*
D03*
X572500D02*
D03*
X550000Y155000D02*
D03*
X590000D02*
D03*
X572500Y260000D02*
D03*
X532500D02*
D03*
X515000Y375000D02*
D03*
Y385000D02*
D03*
X630000Y255000D02*
D03*
X640000D02*
D03*
D21*
X487500Y195000D02*
D03*
X477500D02*
D03*
X487500Y210000D02*
D03*
X477500D02*
D03*
X487500Y225000D02*
D03*
X477500D02*
D03*
X508000Y260000D02*
D03*
X518000D02*
D03*
X613000Y155000D02*
D03*
X603000D02*
D03*
X545000Y372500D02*
D03*
X535000D02*
D03*
X612500Y437500D02*
D03*
X602500D02*
D03*
X622500D02*
D03*
X557500D02*
D03*
X547500D02*
D03*
X567500D02*
D03*
D22*
X642500Y235000D02*
D03*
Y225000D02*
D03*
Y215000D02*
D03*
Y205000D02*
D03*
Y195000D02*
D03*
Y185000D02*
D03*
Y175000D02*
D03*
X612500D02*
D03*
Y185000D02*
D03*
Y195000D02*
D03*
Y205000D02*
D03*
Y215000D02*
D03*
Y225000D02*
D03*
X592500Y235000D02*
D03*
Y225000D02*
D03*
Y215000D02*
D03*
Y205000D02*
D03*
Y195000D02*
D03*
Y185000D02*
D03*
Y175000D02*
D03*
X562500D02*
D03*
Y185000D02*
D03*
Y195000D02*
D03*
Y205000D02*
D03*
Y215000D02*
D03*
Y225000D02*
D03*
X542500Y235000D02*
D03*
Y225000D02*
D03*
Y215000D02*
D03*
Y205000D02*
D03*
Y195000D02*
D03*
Y185000D02*
D03*
Y175000D02*
D03*
X512500D02*
D03*
Y185000D02*
D03*
Y195000D02*
D03*
Y205000D02*
D03*
Y215000D02*
D03*
Y225000D02*
D03*
D23*
X612500Y235000D02*
D03*
X562500D02*
D03*
X512500D02*
D03*
D24*
X669500Y157500D02*
D03*
Y432500D02*
D03*
X494500D02*
D03*
Y157500D02*
D03*
D25*
X674500Y200000D02*
D03*
X664500D02*
D03*
X674500Y210000D02*
D03*
X664500D02*
D03*
X674500Y220000D02*
D03*
X664500D02*
D03*
X674500Y230000D02*
D03*
X664500D02*
D03*
X674500Y240000D02*
D03*
X664500D02*
D03*
X674500Y250000D02*
D03*
X664500D02*
D03*
X674500Y260000D02*
D03*
X664500D02*
D03*
X674500Y270000D02*
D03*
X664500D02*
D03*
X674500Y280000D02*
D03*
X664500D02*
D03*
X674500Y290000D02*
D03*
X664500D02*
D03*
X674500Y300000D02*
D03*
X664500D02*
D03*
X674500Y310000D02*
D03*
X664500D02*
D03*
X674500Y320000D02*
D03*
X664500D02*
D03*
X674500Y330000D02*
D03*
X664500D02*
D03*
X674500Y340000D02*
D03*
X664500D02*
D03*
X674500Y350000D02*
D03*
X664500D02*
D03*
X674500Y360000D02*
D03*
X664500D02*
D03*
X674500Y370000D02*
D03*
X664500D02*
D03*
X674500Y380000D02*
D03*
X664500D02*
D03*
X674500Y390000D02*
D03*
X597500Y365000D02*
D03*
X557500D02*
D03*
Y375000D02*
D03*
X597500D02*
D03*
D26*
X664500Y390000D02*
D03*
D27*
X627000Y207500D02*
D03*
X531500Y220000D02*
D03*
X538000Y307000D02*
D03*
X557500Y260000D02*
D03*
X547500Y249000D02*
D03*
X650000Y245000D02*
D03*
X572900Y272000D02*
D03*
X555000Y270000D02*
D03*
X689500Y280000D02*
D03*
X630000Y290000D02*
D03*
X627500Y280000D02*
D03*
X650000Y299500D02*
D03*
X505000Y360000D02*
D03*
X627500Y330000D02*
D03*
X630000Y320000D02*
D03*
X645000Y413500D02*
D03*
X650000Y403500D02*
D03*
X640000Y420000D02*
D03*
M02*
