M48
;Layer_Color=9474304
;FILE_FORMAT=2:5
INCH,TZ
;TYPE=PLATED
T1F00S00C0.02362
T2F00S00C0.02756
T3F00S00C0.03150
T4F00S00C0.03543
T5F00S00C0.03937
T6F00S00C0.12598
%
T01
X627000Y207500
X650000Y245000
Y299500
X630000Y290000
X627500Y280000
X689500
X572900Y272000
X555000Y270000
X557500Y260000
X547500Y249000
X531500Y220000
X538000Y307000
X505000Y360000
X627500Y330000
X630000Y320000
X650000Y403500
X645000Y413500
X640000Y420000
T02
X477500Y245000
X497186
X587814Y255000
X607500
X520000Y402814
Y422500
T03
X550000Y155000
X590000
X642500Y175000
Y185000
Y195000
Y205000
Y215000
Y225000
Y235000
X640000Y255000
X630000
X612500Y235000
Y225000
Y215000
Y205000
Y195000
Y185000
Y175000
X592500
Y185000
Y195000
Y205000
Y215000
Y225000
Y235000
X562500
Y225000
Y215000
Y205000
Y195000
Y185000
Y175000
X542500
Y185000
Y195000
Y205000
Y215000
Y225000
Y235000
X532500Y249000
Y260000
X572500
Y249000
X512500Y235000
Y225000
Y215000
Y205000
Y195000
Y185000
Y175000
X515000Y375000
Y385000
X537500Y392500
X547500
X557500
X567500
X577500
X587500
X597500
X607500
X617500
Y422500
X607500
X597500
X587500
X577500
X567500
X557500
X547500
X537500
X557500Y375000
Y365000
X597500
Y375000
X627500Y392500
Y422500
T04
X603000Y155000
X613000
T05
X664500Y200000
X674500
Y210000
X664500
Y220000
X674500
Y230000
X664500
Y240000
X674500
Y250000
X664500
Y260000
X674500
Y270000
X664500
Y280000
X674500
Y290000
X664500
Y300000
X674500
Y310000
X664500
X618000Y282500
X608000
X598000
X588000
X578000
X568000
X558000
X548000
X538000
X528000
X518000
X508000
Y260000
X518000
X487500Y225000
X477500
Y210000
X487500
Y195000
X477500
X508000Y342500
X518000
X528000
X538000
X548000
X558000
X568000
X578000
X588000
X598000
X608000
X618000
X622500Y437500
X612500
X602500
X567500
X557500
X547500
X545000Y372500
X535000
X487500Y375000
Y385000
X664500Y380000
Y370000
Y360000
Y350000
Y340000
Y330000
Y320000
X674500
Y330000
Y340000
Y350000
Y360000
Y370000
Y380000
Y390000
X664500
T06
X669500Y157500
X494500
Y432500
X669500
M30
