G04 Layer_Physical_Order=2*
G04 Layer_Color=16711680*
%FSLAX25Y25*%
%MOIN*%
G70*
G01*
G75*
%ADD10C,0.03000*%
%ADD11C,0.01500*%
%ADD12C,0.01000*%
%ADD13R,0.08500X0.08000*%
%ADD14O,0.07600X0.08000*%
%ADD15R,0.05000X0.10000*%
%ADD16O,0.05000X0.10000*%
%ADD17O,0.05512X0.12000*%
%ADD18R,0.05512X0.10000*%
%ADD19C,0.06500*%
%ADD20C,0.07500*%
%ADD21C,0.08000*%
%ADD22O,0.10000X0.05000*%
%ADD23R,0.10000X0.05000*%
%ADD24C,0.25000*%
%ADD25C,0.07000*%
%ADD26R,0.07000X0.07000*%
%ADD27C,0.05512*%
%ADD28C,0.02000*%
D10*
X545000Y372500D02*
Y378500D01*
X541500Y382000D02*
X545000Y378500D01*
X525500Y382000D02*
X541500D01*
X522500Y385000D02*
X525500Y382000D01*
X515000Y385000D02*
X522500D01*
X524500Y372500D02*
X535000D01*
X522000Y375000D02*
X524500Y372500D01*
X515000Y375000D02*
X522000D01*
X607500Y392500D02*
Y422500D01*
X627500D02*
Y430000D01*
X630000Y432500D01*
Y441000D01*
X625000Y446000D02*
X630000Y441000D01*
X604500Y446000D02*
X625000D01*
X602500Y444000D02*
X604500Y446000D01*
X602500Y437500D02*
Y444000D01*
X600500Y446000D02*
X602500Y444000D01*
X551000Y446000D02*
X600500D01*
X586500Y235000D02*
X592500D01*
X572500Y249000D02*
X586500Y235000D01*
X564000Y249000D02*
X572500D01*
X551500Y236500D02*
X564000Y249000D01*
X587500Y255000D02*
X587814D01*
X582500Y260000D02*
X587500Y255000D01*
X497000Y312500D02*
Y354500D01*
Y312500D02*
X518000Y291500D01*
Y282500D02*
Y291500D01*
X508000Y282500D02*
Y291500D01*
X674500Y280000D02*
X689500D01*
X550000Y235000D02*
X551500Y236500D01*
Y226500D02*
Y236500D01*
X550000Y225000D02*
X551500Y226500D01*
X542500Y225000D02*
X550000D01*
X492500Y260000D02*
X508000D01*
X477500Y245000D02*
X492500Y260000D01*
X569000Y215000D02*
X572500Y211500D01*
Y177500D02*
Y211500D01*
X570000Y175000D02*
X572500Y177500D01*
X562500Y215000D02*
X569000D01*
X590000Y155000D02*
X603000D01*
X538000D02*
X550000D01*
X533000Y160000D02*
X538000Y155000D01*
X533000Y160000D02*
Y193500D01*
X534500Y195000D01*
X542500D01*
X562500Y175000D02*
X570000D01*
X572500Y249000D02*
Y260000D01*
X582500D01*
X542500Y235000D02*
X550000D01*
X592500D02*
X599000D01*
X605500Y241500D01*
X623000D01*
X629500Y235000D01*
X642500D01*
Y238500D01*
X630000Y251000D02*
X642500Y238500D01*
X630000Y251000D02*
Y255000D01*
X612500Y175000D02*
X622500D01*
X625000Y177500D01*
Y185000D01*
X612500D02*
X625000D01*
Y192500D01*
X622500Y195000D02*
X625000Y192500D01*
X612500Y195000D02*
X622500D01*
X630000Y290000D02*
X664500D01*
X487500Y312000D02*
X508000Y291500D01*
X487500Y312000D02*
Y375000D01*
X515000D01*
X487500Y385000D02*
X515000D01*
X497000Y354500D02*
X502500Y360000D01*
X505000D01*
X530000Y392500D02*
X537500D01*
X520000Y402500D02*
X530000Y392500D01*
X520000Y422500D02*
X537500D01*
Y433000D01*
X542000Y437500D01*
X547500D01*
Y442500D01*
X551000Y446000D01*
D11*
X543000Y253500D02*
X547500Y249000D01*
X543000Y253500D02*
Y287010D01*
X555000Y270000D02*
Y275000D01*
X553000Y277000D02*
X555000Y275000D01*
X553000Y277000D02*
Y293000D01*
X590000Y292500D02*
X593200Y289300D01*
X580000Y292500D02*
X590000D01*
X578000Y290500D02*
X580000Y292500D01*
X593200Y274800D02*
Y289300D01*
X578000Y282500D02*
Y290500D01*
X627000Y207500D02*
X629500Y210000D01*
X664500D01*
X540000Y245000D02*
Y265000D01*
X531500Y236500D02*
X540000Y245000D01*
X531500Y220000D02*
Y236500D01*
X533000Y272000D02*
X540000Y265000D01*
X533000Y272000D02*
Y292000D01*
X543000Y287010D02*
X544000Y288010D01*
Y289000D01*
X528000Y305000D02*
X544000Y289000D01*
X538000Y307000D02*
Y342500D01*
X528000Y305000D02*
Y342500D01*
X518000Y307000D02*
Y342500D01*
Y307000D02*
X533000Y292000D01*
X563000Y265500D02*
Y294000D01*
X557500Y260000D02*
X563000Y265500D01*
X650000Y245000D02*
X661722D01*
X527500Y208300D02*
Y215200D01*
X522700Y220000D02*
X527500Y215200D01*
X502500Y220000D02*
X522700D01*
X530800Y205000D02*
X542500D01*
X527500Y208300D02*
X530800Y205000D01*
X598000Y270000D02*
X645500D01*
X593200Y274800D02*
X598000Y270000D01*
X609000Y165000D02*
X613000Y161000D01*
X585500Y165000D02*
X609000D01*
X598000Y305000D02*
X603000Y300000D01*
Y277000D02*
Y300000D01*
Y277000D02*
X606500Y273500D01*
X548000Y298000D02*
X553000Y293000D01*
X548000Y298000D02*
Y342500D01*
X588000Y270500D02*
Y282500D01*
Y270500D02*
X592000Y266500D01*
X606500Y273500D02*
X649000D01*
X598000Y305000D02*
Y342500D01*
X582000Y202500D02*
X584500Y200000D01*
X627500D01*
X558000Y299000D02*
X563000Y294000D01*
X558000Y299000D02*
Y342500D01*
X592000Y266500D02*
X642500D01*
X573500Y225000D02*
X578500Y220000D01*
Y172000D02*
Y220000D01*
X582000Y222500D02*
X584500Y225000D01*
X582000Y202500D02*
Y222500D01*
X562500Y225000D02*
X573500D01*
X578500Y172000D02*
X585500Y165000D01*
X613000Y155000D02*
Y161000D01*
X505500Y190500D02*
X520000D01*
X529000Y199500D01*
X552000D01*
X500000Y185000D02*
X505500Y190500D01*
X552000Y199500D02*
X556500Y195000D01*
X487500Y225000D02*
X497500D01*
X502500Y220000D01*
X503000Y215000D02*
X512500D01*
X498000Y210000D02*
X503000Y215000D01*
X487500Y210000D02*
X498000D01*
X487500Y195000D02*
X512500D01*
X477500Y188000D02*
Y195000D01*
Y188000D02*
X480500Y185000D01*
X500000D01*
X556500Y195000D02*
X562500D01*
X477500Y210000D02*
Y225000D01*
Y195000D02*
Y210000D01*
X584500Y225000D02*
X592500D01*
X627500Y200000D02*
X632500Y195000D01*
X642500D01*
X629000Y225000D02*
X642500D01*
X624000Y220000D02*
X629000Y225000D01*
X606500Y220000D02*
X624000D01*
X603000Y216500D02*
X606500Y220000D01*
X603000Y207500D02*
Y216500D01*
X600500Y205000D02*
X603000Y207500D01*
X592500Y205000D02*
X600500D01*
X674500Y194000D02*
Y200000D01*
X655500Y175000D02*
X674500Y194000D01*
X642500Y175000D02*
X655500D01*
X642500Y205000D02*
X659500D01*
X664500Y200000D01*
X547500Y414500D02*
X552500Y409500D01*
X666925Y315000D02*
X669500D01*
X660000D02*
X662000D01*
X627500Y280000D02*
X664500D01*
X652500Y270000D02*
X664500D01*
X649000Y273500D02*
X652500Y270000D01*
X650000Y299500D02*
X654500Y295000D01*
X661722D01*
X642500Y266500D02*
X659000Y250000D01*
X645500Y270000D02*
X655500Y260000D01*
X659000Y250000D02*
X664500D01*
X669500Y335000D02*
X674500Y330000D01*
X666925Y335000D02*
X669500D01*
X666925Y345000D02*
X669500D01*
X660000D02*
X662075D01*
X666925Y325000D02*
X669500D01*
X666925Y355000D02*
X669500D01*
X657500D02*
X662075D01*
X655500Y260000D02*
X664500D01*
X669500Y295000D02*
X674500Y290000D01*
X667278Y295000D02*
X669500D01*
Y365000D02*
X674500Y360000D01*
X666925Y365000D02*
X669500D01*
Y305000D02*
X674500Y300000D01*
X667278Y305000D02*
X669500D01*
Y315000D02*
X674500Y310000D01*
X669500Y215000D02*
X674500Y210000D01*
X666925Y215000D02*
X669500D01*
X642500D02*
X662075D01*
X664500Y210000D02*
X665000D01*
X669500Y245000D02*
X674500Y250000D01*
X666925Y245000D02*
X669500D01*
Y355000D02*
X674500Y350000D01*
X669500Y345000D02*
X674500Y340000D01*
X669500Y325000D02*
X674500Y320000D01*
X660000Y305000D02*
X662000D01*
X552000Y365000D02*
X557500D01*
X508000Y342500D02*
Y349000D01*
X513000Y354000D01*
X541000D01*
X552000Y365000D01*
X650000Y375000D02*
X660000Y365000D01*
X662000D01*
X557500Y389500D02*
X572900Y374100D01*
Y272000D02*
Y374100D01*
X547500Y414500D02*
Y422500D01*
X577500Y362500D02*
Y392500D01*
X557500Y389500D02*
Y392500D01*
X617500Y407500D02*
Y422500D01*
X636000Y339000D02*
X660000Y315000D01*
X632000Y333000D02*
X660000Y305000D01*
X618000Y282500D02*
Y295500D01*
X635500Y313000D01*
X627500Y330000D02*
X635500Y322000D01*
Y313000D02*
Y322000D01*
X577500Y362500D02*
X587500Y352500D01*
X622500D01*
X632000Y343000D01*
Y333000D02*
Y343000D01*
X552500Y388500D02*
Y409500D01*
Y388500D02*
X568000Y373000D01*
Y342500D02*
Y373000D01*
X597500Y385000D02*
Y392500D01*
X590000Y377500D02*
X597500Y385000D01*
X622500Y357500D02*
X636000Y344000D01*
Y339000D02*
Y344000D01*
X590000Y363000D02*
Y377500D01*
Y363000D02*
X595500Y357500D01*
X622500D01*
X617500Y407500D02*
X622500Y402500D01*
Y370000D02*
Y402500D01*
Y370000D02*
X657500Y335000D01*
X662075D01*
X645000Y367500D02*
X657500Y355000D01*
X645000Y367500D02*
Y413500D01*
X650000Y375000D02*
Y403500D01*
X640000Y365000D02*
X660000Y345000D01*
X640000Y365000D02*
Y420000D01*
X567500Y422500D02*
Y428500D01*
X565500Y430500D02*
X567500Y428500D01*
X559000Y430500D02*
X565500D01*
X557500Y432000D02*
X559000Y430500D01*
X557500Y432000D02*
Y437500D01*
X612500Y432500D02*
Y437500D01*
X610500Y430500D02*
X612500Y432500D01*
X589000Y430500D02*
X610500D01*
X587500Y429000D02*
X589000Y430500D01*
X587500Y422500D02*
Y429000D01*
X617500Y367500D02*
Y392500D01*
Y367500D02*
X660000Y325000D01*
X662075D01*
D12*
X662000Y315000D02*
X666925D01*
X662075Y335000D02*
X666925D01*
X662075Y345000D02*
X666925D01*
X662075Y355000D02*
X666925D01*
X662075Y215000D02*
X666925D01*
X662000Y305000D02*
X667278D01*
X661722Y245000D02*
X666925D01*
X662000Y365000D02*
X666925D01*
X661722Y295000D02*
X667278D01*
X662075Y325000D02*
X666925D01*
D13*
X487500Y385000D02*
D03*
D14*
Y375000D02*
D03*
D15*
X537500Y392500D02*
D03*
D16*
X547500D02*
D03*
X557500D02*
D03*
X567500D02*
D03*
X577500D02*
D03*
X587500D02*
D03*
X597500D02*
D03*
X607500D02*
D03*
X617500D02*
D03*
X627500D02*
D03*
Y422500D02*
D03*
X617500D02*
D03*
X607500D02*
D03*
X597500D02*
D03*
X587500D02*
D03*
X577500D02*
D03*
X567500D02*
D03*
X557500D02*
D03*
X547500D02*
D03*
X537500D02*
D03*
D17*
X508000Y342500D02*
D03*
X518000D02*
D03*
X528000D02*
D03*
X538000D02*
D03*
X548000D02*
D03*
X558000D02*
D03*
X568000D02*
D03*
X578000D02*
D03*
X588000D02*
D03*
X598000D02*
D03*
X608000D02*
D03*
X618000D02*
D03*
Y282500D02*
D03*
X608000D02*
D03*
X598000D02*
D03*
X588000D02*
D03*
X578000D02*
D03*
X568000D02*
D03*
X558000D02*
D03*
X548000D02*
D03*
X538000D02*
D03*
X528000D02*
D03*
X518000D02*
D03*
D18*
X508000D02*
D03*
D19*
X520000Y402814D02*
D03*
Y422500D02*
D03*
X477500Y245000D02*
D03*
X497186D02*
D03*
X607500Y255000D02*
D03*
X587814D02*
D03*
D20*
X532500Y249000D02*
D03*
X572500D02*
D03*
X550000Y155000D02*
D03*
X590000D02*
D03*
X572500Y260000D02*
D03*
X532500D02*
D03*
X515000Y375000D02*
D03*
Y385000D02*
D03*
X630000Y255000D02*
D03*
X640000D02*
D03*
D21*
X487500Y195000D02*
D03*
X477500D02*
D03*
X487500Y210000D02*
D03*
X477500D02*
D03*
X487500Y225000D02*
D03*
X477500D02*
D03*
X508000Y260000D02*
D03*
X518000D02*
D03*
X613000Y155000D02*
D03*
X603000D02*
D03*
X545000Y372500D02*
D03*
X535000D02*
D03*
X612500Y437500D02*
D03*
X602500D02*
D03*
X622500D02*
D03*
X557500D02*
D03*
X547500D02*
D03*
X567500D02*
D03*
D22*
X642500Y235000D02*
D03*
Y225000D02*
D03*
Y215000D02*
D03*
Y205000D02*
D03*
Y195000D02*
D03*
Y185000D02*
D03*
Y175000D02*
D03*
X612500D02*
D03*
Y185000D02*
D03*
Y195000D02*
D03*
Y205000D02*
D03*
Y215000D02*
D03*
Y225000D02*
D03*
X592500Y235000D02*
D03*
Y225000D02*
D03*
Y215000D02*
D03*
Y205000D02*
D03*
Y195000D02*
D03*
Y185000D02*
D03*
Y175000D02*
D03*
X562500D02*
D03*
Y185000D02*
D03*
Y195000D02*
D03*
Y205000D02*
D03*
Y215000D02*
D03*
Y225000D02*
D03*
X542500Y235000D02*
D03*
Y225000D02*
D03*
Y215000D02*
D03*
Y205000D02*
D03*
Y195000D02*
D03*
Y185000D02*
D03*
Y175000D02*
D03*
X512500D02*
D03*
Y185000D02*
D03*
Y195000D02*
D03*
Y205000D02*
D03*
Y215000D02*
D03*
Y225000D02*
D03*
D23*
X612500Y235000D02*
D03*
X562500D02*
D03*
X512500D02*
D03*
D24*
X669500Y157500D02*
D03*
Y432500D02*
D03*
X494500D02*
D03*
Y157500D02*
D03*
D25*
X674500Y200000D02*
D03*
X664500D02*
D03*
X674500Y210000D02*
D03*
X664500D02*
D03*
X674500Y220000D02*
D03*
X664500D02*
D03*
X674500Y230000D02*
D03*
X664500D02*
D03*
X674500Y240000D02*
D03*
X664500D02*
D03*
X674500Y250000D02*
D03*
X664500D02*
D03*
X674500Y260000D02*
D03*
X664500D02*
D03*
X674500Y270000D02*
D03*
X664500D02*
D03*
X674500Y280000D02*
D03*
X664500D02*
D03*
X674500Y290000D02*
D03*
X664500D02*
D03*
X674500Y300000D02*
D03*
X664500D02*
D03*
X674500Y310000D02*
D03*
X664500D02*
D03*
X674500Y320000D02*
D03*
X664500D02*
D03*
X674500Y330000D02*
D03*
X664500D02*
D03*
X674500Y340000D02*
D03*
X664500D02*
D03*
X674500Y350000D02*
D03*
X664500D02*
D03*
X674500Y360000D02*
D03*
X664500D02*
D03*
X674500Y370000D02*
D03*
X664500D02*
D03*
X674500Y380000D02*
D03*
X664500D02*
D03*
X674500Y390000D02*
D03*
X597500Y365000D02*
D03*
X557500D02*
D03*
Y375000D02*
D03*
X597500D02*
D03*
D26*
X664500Y390000D02*
D03*
D27*
X627000Y207500D02*
D03*
X531500Y220000D02*
D03*
X538000Y307000D02*
D03*
X557500Y260000D02*
D03*
X547500Y249000D02*
D03*
X650000Y245000D02*
D03*
X572900Y272000D02*
D03*
X555000Y270000D02*
D03*
X689500Y280000D02*
D03*
X630000Y290000D02*
D03*
X627500Y280000D02*
D03*
X650000Y299500D02*
D03*
X505000Y360000D02*
D03*
X627500Y330000D02*
D03*
X630000Y320000D02*
D03*
X645000Y413500D02*
D03*
X650000Y403500D02*
D03*
X640000Y420000D02*
D03*
D28*
X608000Y282500D02*
Y298000D01*
X630000Y320000D01*
M02*
