G04 Layer_Color=65535*
%FSLAX25Y25*%
%MOIN*%
G70*
G01*
G75*
%ADD12C,0.01000*%
%ADD29C,0.00800*%
%ADD30C,0.01200*%
%ADD31C,0.00600*%
%ADD32C,0.00500*%
D12*
X532500Y402500D02*
X533475Y402596D01*
X534413Y402881D01*
X535278Y403343D01*
X536035Y403965D01*
X536657Y404722D01*
X537119Y405587D01*
X537404Y406525D01*
X537500Y407500D01*
X537404Y408475D01*
X537119Y409413D01*
X536657Y410278D01*
X536035Y411035D01*
X535278Y411657D01*
X534413Y412119D01*
X533475Y412404D01*
X532500Y412500D01*
X603840Y148760D02*
X604701Y148264D01*
X605621Y147887D01*
X606582Y147635D01*
X607569Y147512D01*
X608563Y147521D01*
X609547Y147661D01*
X610503Y147930D01*
X611416Y148323D01*
X612269Y148834D01*
X612160Y161240D02*
X611299Y161736D01*
X610379Y162113D01*
X609418Y162365D01*
X608431Y162488D01*
X607437Y162479D01*
X606454Y162339D01*
X605497Y162070D01*
X604584Y161677D01*
X603731Y161166D01*
X476500Y365000D02*
Y395000D01*
X499000Y365000D02*
Y395000D01*
X494000Y375000D02*
Y385000D01*
X476500Y395000D02*
X499000D01*
X476500Y365000D02*
X499000D01*
X494000Y375000D02*
X499000D01*
X494000Y385000D02*
X499000D01*
X517500Y417157D02*
X522500D01*
X517500Y408157D02*
Y417157D01*
Y408157D02*
X522500D01*
Y417157D01*
X491843Y242500D02*
Y247500D01*
X482843D02*
X491843D01*
X482843Y242500D02*
Y247500D01*
Y242500D02*
X491843D01*
X593157Y252500D02*
Y257500D01*
Y252500D02*
X602157D01*
Y257500D01*
X593157D02*
X602157D01*
X655400Y285200D02*
X658400D01*
Y305200D01*
X655400D02*
X658400D01*
X612160Y160660D02*
Y161240D01*
X612269Y148834D02*
Y149231D01*
X520000Y167498D02*
X521999D01*
X521000D01*
Y161500D01*
X520000D01*
X521999D01*
X528997Y166498D02*
X527997Y167498D01*
X525998D01*
X524998Y166498D01*
Y162500D01*
X525998Y161500D01*
X527997D01*
X528997Y162500D01*
X530996Y166498D02*
X531996Y167498D01*
X533995D01*
X534995Y166498D01*
Y165499D01*
X533995Y164499D01*
X532996D01*
X533995D01*
X534995Y163499D01*
Y162500D01*
X533995Y161500D01*
X531996D01*
X530996Y162500D01*
X570000Y167498D02*
X571999D01*
X571000D01*
Y161500D01*
X570000D01*
X571999D01*
X578997Y166498D02*
X577997Y167498D01*
X575998D01*
X574998Y166498D01*
Y162500D01*
X575998Y161500D01*
X577997D01*
X578997Y162500D01*
X584995Y167498D02*
X580996D01*
Y164499D01*
X582996Y165499D01*
X583995D01*
X584995Y164499D01*
Y162500D01*
X583995Y161500D01*
X581996D01*
X580996Y162500D01*
X654499Y417498D02*
X653499Y418498D01*
X651500D01*
X650500Y417498D01*
Y413500D01*
X651500Y412500D01*
X653499D01*
X654499Y413500D01*
X656498Y412500D02*
Y418498D01*
X660497Y412500D01*
Y418498D01*
X662496Y412500D02*
X664496D01*
X663496D01*
Y418498D01*
X662496Y417498D01*
X476499Y255498D02*
X475499Y256498D01*
X473500D01*
X472500Y255498D01*
Y251500D01*
X473500Y250500D01*
X475499D01*
X476499Y251500D01*
X482497Y250500D02*
X478498D01*
X482497Y254499D01*
Y255498D01*
X481497Y256498D01*
X479498D01*
X478498Y255498D01*
X507999Y415498D02*
X506999Y416498D01*
X505000D01*
X504000Y415498D01*
Y411500D01*
X505000Y410500D01*
X506999D01*
X507999Y411500D01*
X509998Y415498D02*
X510998Y416498D01*
X512997D01*
X513997Y415498D01*
Y414499D01*
X512997Y413499D01*
X511997D01*
X512997D01*
X513997Y412499D01*
Y411500D01*
X512997Y410500D01*
X510998D01*
X509998Y411500D01*
X616499Y265498D02*
X615499Y266498D01*
X613500D01*
X612500Y265498D01*
Y261500D01*
X613500Y260500D01*
X615499D01*
X616499Y261500D01*
X621497Y260500D02*
Y266498D01*
X618498Y263499D01*
X622497D01*
X513999Y365498D02*
X512999Y366498D01*
X511000D01*
X510000Y365498D01*
Y361500D01*
X511000Y360500D01*
X512999D01*
X513999Y361500D01*
X519997Y366498D02*
X517997Y365498D01*
X515998Y363499D01*
Y361500D01*
X516998Y360500D01*
X518997D01*
X519997Y361500D01*
Y362499D01*
X518997Y363499D01*
X515998D01*
X488000Y285498D02*
X489999D01*
X489000D01*
Y279500D01*
X488000D01*
X489999D01*
X496997Y284498D02*
X495997Y285498D01*
X493998D01*
X492998Y284498D01*
Y280500D01*
X493998Y279500D01*
X495997D01*
X496997Y280500D01*
X498996Y279500D02*
X500996D01*
X499996D01*
Y285498D01*
X498996Y284498D01*
X620500Y167498D02*
X622499D01*
X621500D01*
Y161500D01*
X620500D01*
X622499D01*
X629497Y166498D02*
X628497Y167498D01*
X626498D01*
X625498Y166498D01*
Y162500D01*
X626498Y161500D01*
X628497D01*
X629497Y162500D01*
X634495Y161500D02*
Y167498D01*
X631496Y164499D01*
X635495D01*
X579000Y260000D02*
Y265998D01*
X581999D01*
X582999Y264998D01*
Y262999D01*
X581999Y261999D01*
X579000D01*
X580999D02*
X582999Y260000D01*
X584998D02*
X586997D01*
X585998D01*
Y265998D01*
X584998Y264998D01*
X579000Y244000D02*
Y249998D01*
X581999D01*
X582999Y248998D01*
Y246999D01*
X581999Y245999D01*
X579000D01*
X580999D02*
X582999Y244000D01*
X588997D02*
X584998D01*
X588997Y247999D01*
Y248998D01*
X587997Y249998D01*
X585998D01*
X584998Y248998D01*
X513500Y433998D02*
X515499D01*
X514500D01*
Y428000D01*
X513500D01*
X515499D01*
X522497Y432998D02*
X521497Y433998D01*
X519498D01*
X518498Y432998D01*
Y429000D01*
X519498Y428000D01*
X521497D01*
X522497Y429000D01*
X528495Y428000D02*
X524496D01*
X528495Y431999D01*
Y432998D01*
X527495Y433998D01*
X525496D01*
X524496Y432998D01*
X605000Y378498D02*
Y372500D01*
X607999D01*
X608999Y373500D01*
Y377498D01*
X607999Y378498D01*
X605000D01*
X610998Y372500D02*
X612997D01*
X611998D01*
Y378498D01*
X610998Y377498D01*
X605000Y367998D02*
Y362000D01*
X607999D01*
X608999Y363000D01*
Y366998D01*
X607999Y367998D01*
X605000D01*
X614997Y362000D02*
X610998D01*
X614997Y365999D01*
Y366998D01*
X613997Y367998D01*
X611998D01*
X610998Y366998D01*
X596999Y265498D02*
X595999Y266498D01*
X594000D01*
X593000Y265498D01*
Y261500D01*
X594000Y260500D01*
X595999D01*
X596999Y261500D01*
X598998Y260500D02*
X600997D01*
X599998D01*
Y266498D01*
X598998Y265498D01*
X549500Y162000D02*
Y167998D01*
X552499D01*
X553499Y166998D01*
Y164999D01*
X552499Y163999D01*
X549500D01*
X551499D02*
X553499Y162000D01*
X555498Y166998D02*
X556498Y167998D01*
X558497D01*
X559497Y166998D01*
Y165999D01*
X558497Y164999D01*
X557497D01*
X558497D01*
X559497Y163999D01*
Y163000D01*
X558497Y162000D01*
X556498D01*
X555498Y163000D01*
X518999Y147498D02*
X517999Y148498D01*
X516000D01*
X515000Y147498D01*
Y146499D01*
X516000Y145499D01*
X517999D01*
X518999Y144499D01*
Y143500D01*
X517999Y142500D01*
X516000D01*
X515000Y143500D01*
X524997Y147498D02*
X523997Y148498D01*
X521998D01*
X520998Y147498D01*
Y143500D01*
X521998Y142500D01*
X523997D01*
X524997Y143500D01*
X526996Y145499D02*
X530995D01*
X532994Y142500D02*
Y146499D01*
X534994Y148498D01*
X536993Y146499D01*
Y142500D01*
Y145499D01*
X532994D01*
X538992Y142500D02*
Y148498D01*
X541991D01*
X542991Y147498D01*
Y145499D01*
X541991Y144499D01*
X538992D01*
X544990Y148498D02*
Y143500D01*
X545990Y142500D01*
X547989D01*
X548989Y143500D01*
Y148498D01*
X556986Y142500D02*
Y148498D01*
X559985D01*
X560985Y147498D01*
Y145499D01*
X559985Y144499D01*
X556986D01*
X558986D02*
X560985Y142500D01*
X566983Y148498D02*
X562985D01*
Y142500D01*
X566983D01*
X562985Y145499D02*
X564984D01*
X568983Y148498D02*
Y144499D01*
X570982Y142500D01*
X572981Y144499D01*
Y148498D01*
X584977Y142500D02*
X580979D01*
X584977Y146499D01*
Y147498D01*
X583978Y148498D01*
X581978D01*
X580979Y147498D01*
X470000Y374999D02*
X473999D01*
X470000Y384999D02*
X473999D01*
X471999Y386998D02*
Y383000D01*
X532500Y359000D02*
X534499D01*
X533500D01*
Y364998D01*
X532500Y363998D01*
X541497Y359000D02*
X537498D01*
X541497Y362999D01*
Y363998D01*
X540497Y364998D01*
X538498D01*
X537498Y363998D01*
X543496Y364998D02*
Y360999D01*
X545496Y359000D01*
X547495Y360999D01*
Y364998D01*
X493499Y262498D02*
X489500D01*
Y259499D01*
X491499Y260499D01*
X492499D01*
X493499Y259499D01*
Y257500D01*
X492499Y256500D01*
X490500D01*
X489500Y257500D01*
X495498Y262498D02*
Y258499D01*
X497497Y256500D01*
X499497Y258499D01*
Y262498D01*
X516000Y249999D02*
X519999D01*
X517999Y251998D02*
Y248000D01*
X506000Y249999D02*
X509999D01*
X532500Y382499D02*
X536499D01*
X543000Y381999D02*
X546999D01*
X544999Y383998D02*
Y380000D01*
X477000Y408499D02*
X480999D01*
X478999Y410498D02*
Y406500D01*
X482998Y405500D02*
X484997D01*
X483998D01*
Y411498D01*
X482998Y410498D01*
X491995Y405500D02*
X487996D01*
X491995Y409499D01*
Y410498D01*
X490996Y411498D01*
X488996D01*
X487996Y410498D01*
X493995Y411498D02*
Y407499D01*
X495994Y405500D01*
X497993Y407499D01*
Y411498D01*
X478499Y237998D02*
X477499Y238998D01*
X475500D01*
X474500Y237998D01*
Y234000D01*
X475500Y233000D01*
X477499D01*
X478499Y234000D01*
X480498Y238998D02*
Y233000D01*
X484497D01*
X486496Y238998D02*
Y233000D01*
Y234999D01*
X490495Y238998D01*
X487496Y235999D01*
X490495Y233000D01*
X476498Y180500D02*
Y186498D01*
X478497Y184499D01*
X480497Y186498D01*
Y180500D01*
X482496Y186498D02*
Y180500D01*
Y183499D01*
X486495D01*
Y186498D01*
Y180500D01*
X488494Y184499D02*
X492493D01*
X488494Y180500D01*
X492493D01*
X498499Y222500D02*
Y228498D01*
X495500Y225499D01*
X499499D01*
X500499Y207000D02*
X496500D01*
X500499Y210999D01*
Y211998D01*
X499499Y212998D01*
X497500D01*
X496500Y211998D01*
X498000Y192000D02*
X499999D01*
X499000D01*
Y197998D01*
X498000Y196998D01*
X620999Y148998D02*
X619999Y149998D01*
X618000D01*
X617000Y148998D01*
Y147999D01*
X618000Y146999D01*
X619999D01*
X620999Y145999D01*
Y145000D01*
X619999Y144000D01*
X618000D01*
X617000Y145000D01*
X622998Y149998D02*
Y145999D01*
X624997Y144000D01*
X626997Y145999D01*
Y149998D01*
X628996Y144000D02*
Y149998D01*
X631995D01*
X632995Y148998D01*
Y146999D01*
X631995Y145999D01*
X628996D01*
X630996D02*
X632995Y144000D01*
X638993Y149998D02*
X634994D01*
Y144000D01*
X638993D01*
X634994Y146999D02*
X636994D01*
X644991Y148998D02*
X643991Y149998D01*
X641992D01*
X640992Y148998D01*
Y145000D01*
X641992Y144000D01*
X643991D01*
X644991Y145000D01*
Y146999D01*
X642992D01*
X514999Y397000D02*
Y393001D01*
X516998Y395001D02*
X513000D01*
X618000Y254999D02*
X621999D01*
X619999Y256998D02*
Y253000D01*
D29*
X503000Y310000D02*
X503957Y310190D01*
X504768Y310732D01*
X505310Y311543D01*
X505500Y312500D01*
X505310Y313457D01*
X504768Y314268D01*
X503957Y314810D01*
X503000Y315000D01*
X622500Y240000D02*
X622596Y239024D01*
X622881Y238087D01*
X623343Y237222D01*
X623965Y236465D01*
X624722Y235843D01*
X625587Y235381D01*
X626524Y235096D01*
X627500Y235000D01*
X628476Y235096D01*
X629413Y235381D01*
X630278Y235843D01*
X631036Y236465D01*
X631657Y237222D01*
X632119Y238087D01*
X632404Y239024D01*
X632500Y240000D01*
X572500D02*
X572596Y239024D01*
X572881Y238087D01*
X573343Y237222D01*
X573965Y236465D01*
X574722Y235843D01*
X575587Y235381D01*
X576524Y235096D01*
X577500Y235000D01*
X578476Y235096D01*
X579413Y235381D01*
X580278Y235843D01*
X581036Y236465D01*
X581657Y237222D01*
X582119Y238087D01*
X582404Y239024D01*
X582500Y240000D01*
X522500D02*
X522596Y239024D01*
X522881Y238087D01*
X523343Y237222D01*
X523965Y236465D01*
X524722Y235843D01*
X525587Y235381D01*
X526524Y235096D01*
X527500Y235000D01*
X528476Y235096D01*
X529413Y235381D01*
X530278Y235843D01*
X531036Y236465D01*
X531657Y237222D01*
X532119Y238087D01*
X532404Y239024D01*
X532500Y240000D01*
X526000Y380000D02*
X525954Y381000D01*
X525818Y381992D01*
X525592Y382968D01*
X525278Y383919D01*
X524879Y384837D01*
X524399Y385715D01*
X523840Y386546D01*
X523208Y387323D01*
X522508Y388039D01*
X521746Y388689D01*
X520928Y389266D01*
X520061Y389767D01*
X519152Y390187D01*
X518208Y390522D01*
X517238Y390770D01*
X516249Y390929D01*
X515250Y390997D01*
X514249Y390974D01*
X513254Y390861D01*
X512274Y390657D01*
X511316Y390365D01*
X510389Y389987D01*
X509500Y389526D01*
X508657Y388987D01*
X507866Y388373D01*
X507134Y387689D01*
X506467Y386942D01*
X505871Y386137D01*
X505351Y385282D01*
X504911Y384382D01*
X504554Y383447D01*
X504284Y382483D01*
X504103Y381498D01*
X504011Y380501D01*
Y379499D01*
X504103Y378502D01*
X504284Y377517D01*
X504554Y376553D01*
X504911Y375618D01*
X505351Y374718D01*
X505871Y373863D01*
X506467Y373058D01*
X507134Y372311D01*
X507866Y371627D01*
X508657Y371013D01*
X509500Y370474D01*
X510389Y370013D01*
X511316Y369635D01*
X512274Y369343D01*
X513254Y369139D01*
X514249Y369026D01*
X515250Y369003D01*
X516249Y369071D01*
X517238Y369230D01*
X518208Y369478D01*
X519152Y369813D01*
X520061Y370233D01*
X520928Y370734D01*
X521746Y371311D01*
X522508Y371961D01*
X523208Y372677D01*
X523840Y373454D01*
X524399Y374285D01*
X524879Y375163D01*
X525278Y376081D01*
X525592Y377032D01*
X525818Y378008D01*
X525954Y379000D01*
X526000Y380000D01*
X646000Y255000D02*
X645954Y256000D01*
X645818Y256992D01*
X645592Y257968D01*
X645278Y258919D01*
X644879Y259837D01*
X644399Y260715D01*
X643840Y261546D01*
X643208Y262323D01*
X642508Y263039D01*
X641746Y263689D01*
X640928Y264266D01*
X640061Y264767D01*
X639152Y265187D01*
X638208Y265522D01*
X637238Y265770D01*
X636249Y265929D01*
X635250Y265997D01*
X634249Y265974D01*
X633254Y265861D01*
X632274Y265657D01*
X631316Y265365D01*
X630389Y264987D01*
X629500Y264526D01*
X628656Y263987D01*
X627866Y263373D01*
X627134Y262689D01*
X626467Y261942D01*
X625871Y261137D01*
X625351Y260282D01*
X624911Y259382D01*
X624554Y258447D01*
X624284Y257483D01*
X624102Y256498D01*
X624011Y255501D01*
Y254499D01*
X624102Y253502D01*
X624284Y252517D01*
X624554Y251553D01*
X624911Y250618D01*
X625351Y249718D01*
X625871Y248863D01*
X626467Y248058D01*
X627134Y247311D01*
X627866Y246627D01*
X628656Y246013D01*
X629500Y245474D01*
X630389Y245013D01*
X631316Y244635D01*
X632274Y244343D01*
X633254Y244139D01*
X634249Y244026D01*
X635250Y244003D01*
X636249Y244071D01*
X637238Y244230D01*
X638208Y244478D01*
X639152Y244813D01*
X640061Y245233D01*
X640928Y245734D01*
X641746Y246311D01*
X642508Y246961D01*
X643208Y247677D01*
X643840Y248454D01*
X644399Y249285D01*
X644879Y250163D01*
X645278Y251081D01*
X645592Y252032D01*
X645818Y253008D01*
X645954Y254000D01*
X646000Y255000D01*
X532500Y399000D02*
Y402500D01*
Y412500D02*
Y416000D01*
X632500D01*
Y399000D02*
Y416000D01*
X532500Y399000D02*
X632500D01*
X503000Y290000D02*
X623000D01*
Y335000D01*
X503000D02*
X623000D01*
X503000Y315000D02*
Y335000D01*
Y290000D02*
Y310000D01*
X493000Y189500D02*
Y200500D01*
X472000Y189500D02*
X493000D01*
X472000D02*
Y200500D01*
X493000D01*
Y204500D02*
Y215500D01*
X472000Y204500D02*
X493000D01*
X472000D02*
Y215500D01*
X493000D01*
Y219500D02*
Y230500D01*
X472000Y219500D02*
X493000D01*
X472000D02*
Y230500D01*
X493000D01*
X619000Y170000D02*
Y240000D01*
Y170000D02*
X636000D01*
Y240000D01*
X632500D02*
X636000D01*
X619000D02*
X622500D01*
X569000Y170000D02*
Y240000D01*
Y170000D02*
X586000D01*
Y240000D01*
X582500D02*
X586000D01*
X569000D02*
X572500D01*
X519000Y170000D02*
Y240000D01*
Y170000D02*
X536000D01*
Y240000D01*
X532500D02*
X536000D01*
X519000D02*
X522500D01*
X502500Y254500D02*
Y265500D01*
X523500D01*
Y254500D02*
Y265500D01*
X502500Y254500D02*
X523500D01*
X648100Y395000D02*
X653100Y390000D01*
X648100Y385000D02*
Y395000D01*
Y385000D02*
X653100Y390000D01*
X550500Y367000D02*
Y378000D01*
X529500Y367000D02*
X550500D01*
X529500D02*
Y378000D01*
X550500D01*
X618500Y380000D02*
X637500D01*
X619500Y369000D02*
X634500D01*
X597000Y431500D02*
Y443000D01*
X628000D01*
Y431500D02*
Y443000D01*
X597000Y431500D02*
X628000D01*
X542000D02*
Y443000D01*
X573000D01*
Y431500D02*
Y443000D01*
X542000Y431500D02*
X573000D01*
X619500Y377498D02*
Y372500D01*
X621166Y374166D01*
X622832Y372500D01*
Y377498D01*
X624498Y372500D02*
Y375832D01*
X626164Y377498D01*
X627831Y375832D01*
Y372500D01*
Y374999D01*
X624498D01*
X629497Y377498D02*
X631163D01*
X630330D01*
Y372500D01*
X629497D01*
X631163D01*
X633662Y377498D02*
X636994D01*
X635328D01*
Y372500D01*
X621000Y366998D02*
X622666D01*
X621833D01*
Y362000D01*
X621000D01*
X622666D01*
X625165D02*
Y366998D01*
X628498Y362000D01*
Y366998D01*
X630164D02*
X633496D01*
X631830D01*
Y362000D01*
X535500Y439998D02*
Y435000D01*
Y437499D01*
X538832D01*
Y439998D01*
Y435000D01*
X591000Y439998D02*
Y435000D01*
Y437499D01*
X594332D01*
Y439998D01*
Y435000D01*
X576000Y439998D02*
Y435000D01*
X579332D01*
X531000Y442000D02*
Y445332D01*
X532666Y446998D01*
X534332Y445332D01*
Y442000D01*
Y444499D01*
X531000D01*
X535998Y446998D02*
X539331D01*
Y446165D01*
X535998Y442833D01*
Y442000D01*
X586000Y442500D02*
Y445832D01*
X587666Y447498D01*
X589332Y445832D01*
Y442500D01*
Y444999D01*
X586000D01*
X594331Y447498D02*
X592664Y446665D01*
X590998Y444999D01*
Y443333D01*
X591831Y442500D01*
X593498D01*
X594331Y443333D01*
Y444166D01*
X593498Y444999D01*
X590998D01*
X484500Y402998D02*
X486166D01*
X485333D01*
Y398000D01*
X484500D01*
X486166D01*
X488665D02*
Y402998D01*
X491998Y398000D01*
Y402998D01*
D30*
X540500Y245000D02*
Y253000D01*
X564500D01*
Y245000D02*
Y253000D01*
X540500Y245000D02*
X564500D01*
X558000Y159000D02*
X582000D01*
X558000Y151000D02*
Y159000D01*
Y151000D02*
X582000D01*
Y159000D01*
X564500Y256000D02*
Y264000D01*
X540500Y256000D02*
X564500D01*
X540500D02*
Y264000D01*
X564500D01*
X655500Y180000D02*
X683500D01*
X655500Y410000D02*
X683500D01*
X655500Y180000D02*
Y410000D01*
X683500Y180000D02*
Y410000D01*
X586000Y361500D02*
Y368500D01*
X569000D02*
X586000D01*
X569000Y361500D02*
Y368500D01*
Y361500D02*
X586000D01*
X572500D02*
Y368500D01*
Y371500D02*
Y378500D01*
X569000Y371500D02*
X586000D01*
X569000D02*
Y378500D01*
X586000D01*
Y371500D02*
Y378500D01*
D31*
X485400Y303100D02*
X486000Y302500D01*
X486700Y301800D01*
X486000Y302500D02*
X486100D01*
X485300Y301800D02*
X486000Y302500D01*
Y301500D02*
Y303500D01*
X485000Y302500D02*
X487000D01*
X486100D02*
X486700Y303100D01*
D32*
X473600Y300800D02*
X477600Y302300D01*
X474600Y299300D02*
X476100Y303300D01*
X473600Y300800D02*
X478600D01*
X473600D02*
X477600Y299300D01*
X476100Y303300D02*
X477600Y299300D01*
X474600Y302300D02*
X478600Y300800D01*
X474600Y299300D02*
X478600Y300800D01*
X474600Y302300D02*
X476100Y298300D01*
X477600Y302300D01*
X474600Y299300D02*
X477600Y302300D01*
X474600D02*
X477600Y299300D01*
X476100Y298300D02*
Y303300D01*
X491350Y319550D02*
X495350Y321050D01*
X492350Y318050D02*
X493850Y322050D01*
X491350Y319550D02*
X496350D01*
X491350D02*
X495350Y318050D01*
X493850Y322050D02*
X495350Y318050D01*
X492350Y321050D02*
X496350Y319550D01*
X492350Y318050D02*
X496350Y319550D01*
X492350Y321050D02*
X493850Y317050D01*
X495350Y321050D01*
X492350Y318050D02*
X495350Y321050D01*
X492350D02*
X495350Y318050D01*
X493850Y317050D02*
Y322050D01*
X490600Y305800D02*
X494600Y307300D01*
X491600Y304300D02*
X493100Y308300D01*
X490600Y305800D02*
X495600D01*
X490600D02*
X494600Y304300D01*
X493100Y308300D02*
X494600Y304300D01*
X491600Y307300D02*
X495600Y305800D01*
X491600Y304300D02*
X495600Y305800D01*
X491600Y307300D02*
X493100Y303300D01*
X494600Y307300D01*
X491600Y304300D02*
X494600Y307300D01*
X493100Y303300D02*
Y308300D01*
X478100Y318300D02*
X482100Y319800D01*
X479100Y316800D02*
X480600Y320800D01*
X478100Y318300D02*
X483100D01*
X478100D02*
X482100Y316800D01*
X480600Y320800D02*
X482100Y316800D01*
X479100Y319800D02*
X483100Y318300D01*
X479100Y316800D02*
X483100Y318300D01*
X479100Y319800D02*
X480600Y315800D01*
X482100Y319800D01*
X479100Y316800D02*
X482100Y319800D01*
X479100D02*
X482100Y316800D01*
X480600Y315800D02*
Y320800D01*
X491600Y307300D02*
X494600Y304300D01*
M02*
