G04 Layer_Physical_Order=2*
G04 Layer_Color=16711680*
%FSLAX25Y25*%
%MOIN*%
G70*
G01*
G75*
%ADD10C,0.02000*%
%ADD11C,0.04000*%
%ADD12O,0.09800X0.19700*%
%ADD13O,0.19700X0.09800*%
%ADD14C,0.12000*%
%ADD15C,0.07600*%
%ADD16C,0.08000*%
%ADD17R,0.08000X0.08000*%
%ADD18C,0.09000*%
%ADD19O,0.07600X0.08000*%
%ADD20R,0.08500X0.08000*%
%ADD21C,0.12500*%
%ADD22C,0.07500*%
%ADD23C,0.10000*%
%ADD24R,0.10000X0.05000*%
%ADD25O,0.10000X0.05000*%
%ADD26R,0.08000X0.06500*%
%ADD27C,0.25000*%
%ADD28O,0.10000X0.06000*%
%ADD29R,0.10000X0.07000*%
%ADD30R,0.07000X0.09000*%
%ADD31C,0.24000*%
%ADD32R,0.06000X0.07500*%
%ADD33O,0.06000X0.08500*%
%ADD34O,0.08500X0.06000*%
%ADD35R,0.08000X0.06000*%
%ADD36O,0.05000X0.12000*%
%ADD37O,0.06000X0.12000*%
%ADD38C,0.11000*%
%ADD39C,0.06200*%
%ADD40C,0.05000*%
%ADD41C,0.02500*%
%ADD42C,0.03000*%
%ADD43C,0.01500*%
%ADD44C,0.00800*%
%ADD45R,1.04500X1.07000*%
D10*
X1446500Y640000D02*
X1466500D01*
X1301000Y413000D02*
X1309000Y421000D01*
X1264000Y425000D02*
X1276000Y413000D01*
X1264000Y425000D02*
Y480000D01*
X1259000Y423500D02*
X1273500Y409000D01*
X1259000Y423500D02*
Y475000D01*
X1254000Y422500D02*
X1271500Y405000D01*
X1254000Y422500D02*
Y470000D01*
X1269000Y399500D02*
X1444000D01*
X1249000Y419500D02*
X1269000Y399500D01*
X1249000Y419500D02*
Y465000D01*
X1349500Y409000D02*
X1359000Y418500D01*
X1279500Y630000D02*
X1451500D01*
X1234500Y585000D02*
X1279500Y630000D01*
X1154000Y585000D02*
X1234500D01*
X1280000Y637500D02*
X1444000D01*
X1237500Y595000D02*
X1280000Y637500D01*
X1164000Y595000D02*
X1237500D01*
X1444000Y637500D02*
X1446500Y640000D01*
X1529000Y645000D02*
X1560000D01*
X1529000Y635000D02*
X1560000D01*
X1141500Y801000D02*
X1142500Y800000D01*
X779000Y600000D02*
X782500D01*
X1210500Y715000D02*
X1437500D01*
X1165500Y670000D02*
X1210500Y715000D01*
X1437500D02*
X1477500Y675000D01*
X1444500Y722000D02*
X1461500Y705000D01*
X1210500Y722000D02*
X1444500D01*
X1163500Y675000D02*
X1210500Y722000D01*
X1547000Y729500D02*
X1562500Y714000D01*
X1202500Y815000D02*
X1237500D01*
X1216500Y810000D02*
X1537500D01*
X1212500Y805000D02*
X1537500D01*
X1194000Y846000D02*
X1197500Y842500D01*
X1177500Y846000D02*
X1194000D01*
X1487500Y815000D02*
X1535000D01*
X1417500D02*
X1487500D01*
X1177500Y866000D02*
X1216500D01*
X1222500Y860000D01*
X1557000Y761500D02*
Y785500D01*
X1550500Y755000D02*
X1557000Y761500D01*
X1545000Y755000D02*
X1550500D01*
X1537500Y762500D02*
X1545000Y755000D01*
X1537500Y805000D02*
X1557000Y785500D01*
X858750Y469750D02*
X881500Y492500D01*
X1176500Y846000D02*
X1177500D01*
X1164500Y534500D02*
X1175000Y545000D01*
X1506500Y622500D02*
X1529000Y645000D01*
X1466500Y640000D02*
X1484000Y622500D01*
X1156500Y516000D02*
X1169500Y529000D01*
X789000Y528500D02*
X800500Y540000D01*
X1161500Y514000D02*
X1179000Y531500D01*
X1496500Y725000D02*
X1516500Y705000D01*
X1150500Y630000D02*
X1218500Y698000D01*
X1153000Y625000D02*
X1221500Y693500D01*
X845500Y465000D02*
X877500Y497000D01*
X838000Y477500D02*
X868500Y508000D01*
X752500Y510000D02*
X767500Y495000D01*
X1016500Y555000D02*
X1029000Y567500D01*
X1006500Y565000D02*
X1029000Y587500D01*
X1014000Y582500D02*
X1029000Y597500D01*
X996500Y575000D02*
X1029000Y607500D01*
X1014000Y727500D02*
X1044000Y757500D01*
X1071500Y842500D02*
X1091500Y822500D01*
X1076500Y850000D02*
X1099000Y827500D01*
X1069000Y800000D02*
X1084000Y785000D01*
X1061500Y792500D02*
X1074000Y780000D01*
X1006500Y605000D02*
X1021500Y620000D01*
X1026500Y629500D02*
X1041000Y615000D01*
X984000Y680000D02*
X997000Y667000D01*
X986500Y685000D02*
X1001500Y670000D01*
X1066500Y832500D02*
X1084000Y815000D01*
X1056500Y812500D02*
X1069000Y800000D01*
X1006500Y745000D02*
X1031500Y770000D01*
X1011500Y735000D02*
X1041500Y765000D01*
X1006500Y755000D02*
X1026500Y775000D01*
X986500Y692500D02*
X1006500Y672500D01*
X994000Y707500D02*
X1021500Y680000D01*
X991500Y702500D02*
X1016500Y677500D01*
X989000Y697500D02*
X1011500Y675000D01*
X994000Y715000D02*
X1026500Y682500D01*
X991500Y725000D02*
X1031500Y685000D01*
X754500Y490000D02*
X767000Y477500D01*
X835000Y482500D02*
X867500Y515000D01*
X757500Y495000D02*
X770000Y482500D01*
X1236500Y565000D02*
X1270500Y599000D01*
X1084000Y547500D02*
X1101500Y530000D01*
X1054000Y537500D02*
X1101500Y490000D01*
X1069000Y542500D02*
X1101500Y510000D01*
X1076500Y545000D02*
X1096500Y525000D01*
X1061500Y540000D02*
X1096500Y505000D01*
X1166500Y512500D02*
X1179000Y525000D01*
X1046500Y533000D02*
X1094000Y485000D01*
X791500Y670000D02*
X806500Y655000D01*
X1254000Y545000D02*
X1279000Y520000D01*
X1269000Y452500D02*
X1284000Y437500D01*
X1256500Y535000D02*
X1274000Y517500D01*
X1061500Y822500D02*
X1076500Y807500D01*
X937500Y704000D02*
X949000Y692500D01*
X756500Y520000D02*
X769000Y507500D01*
X763500Y535000D02*
X776500Y522000D01*
X759000Y525000D02*
X771500Y512500D01*
X754500Y515000D02*
X767000Y502500D01*
X999000Y607500D02*
X1016500Y625000D01*
X994000Y610000D02*
X1011500Y627500D01*
X1006500Y765000D02*
X1021500Y780000D01*
X1091500Y757500D02*
X1111500Y737500D01*
X1174500Y700000D02*
X1204000Y729500D01*
X1176500Y695000D02*
X1206500Y725000D01*
X1168500Y665000D02*
X1215000Y711500D01*
X1171500Y660000D02*
X1216500Y705000D01*
X1320000Y693500D02*
X1331500Y705000D01*
X1151500Y755000D02*
X1171500Y735000D01*
Y492500D02*
X1184000Y480000D01*
X1154000D02*
X1166500Y492500D01*
X1149000Y515000D02*
X1164500Y530500D01*
X1466500Y630000D02*
X1479000Y617500D01*
X1511500D02*
X1529000Y635000D01*
X932000Y748000D02*
X944000Y760000D01*
X932000Y700500D02*
X945000Y687500D01*
X783000Y554000D02*
X794000Y565000D01*
X886500Y650000D02*
X897500Y661000D01*
X1317000Y445500D02*
X1501000D01*
X929000Y445000D02*
X941500D01*
X976500Y460000D02*
X990500D01*
X767000Y477500D02*
X838000D01*
X1231500Y475000D02*
X1249000D01*
X1216500Y470000D02*
X1244000D01*
X954000Y455000D02*
X959000D01*
X1283000Y448500D02*
X1313000D01*
X1314500Y450000D02*
X1339000D01*
X1439000D02*
X1481500D01*
X1389000D02*
X1439000D01*
X1339000D02*
X1389000D01*
X1285000Y498500D02*
X1313000D01*
X877500Y497000D02*
X964500D01*
X881500Y492500D02*
X961500D01*
X746500Y495000D02*
X757500D01*
X716500D02*
X746500D01*
X674000Y490000D02*
X711500D01*
X716500D02*
X754500D01*
X1317000Y495500D02*
X1451000D01*
X1211500Y495000D02*
X1229000D01*
X636500D02*
X650000D01*
X660000Y501000D02*
X673000D01*
X868500Y508000D02*
X922000D01*
X1184500Y505000D02*
X1206500D01*
X1211500Y500000D02*
X1221500D01*
X1191500Y510000D02*
X1206500D01*
X1211500Y505000D02*
X1231500D01*
X1314500Y500000D02*
X1339000D01*
X1439000D02*
X1481500D01*
X1389000D02*
X1439000D01*
X1339000D02*
X1389000D01*
X1191500D02*
X1206500D01*
X716500Y505000D02*
X746500D01*
X716500Y510000D02*
X752500D01*
X686500Y505000D02*
X711500D01*
X674000Y500000D02*
X711500D01*
X1129000Y505000D02*
X1151500D01*
X1096500D02*
X1121500D01*
X1126500Y510000D02*
X1141500D01*
X636500Y505000D02*
X650000D01*
X660000Y489000D02*
X673000D01*
X770000Y482500D02*
X835000D01*
X1221500Y480000D02*
X1226500D01*
X717500Y485000D02*
X746500D01*
X686500D02*
X711500D01*
X1094000D02*
X1121500D01*
X1239000D02*
X1259000D01*
X1236500Y480000D02*
X1254000D01*
X636500Y485000D02*
X650000D01*
X1026000Y533000D02*
X1046500D01*
X716500Y525000D02*
X746500D01*
X686500D02*
X711500D01*
X1211500D02*
X1259000D01*
X1096500D02*
X1121500D01*
X746500D02*
X759000D01*
X636500D02*
X650000D01*
X1179000D02*
X1206500D01*
X1111500Y540000D02*
X1126500D01*
X785000Y536000D02*
X790000D01*
X775500Y540000D02*
X788500D01*
X984000Y535000D02*
X1024000D01*
X1211500D02*
X1256500D01*
X1186500D02*
X1206500D01*
X1211500Y530000D02*
X1221500D01*
X1211500Y540000D02*
X1221500D01*
X1191500Y530000D02*
X1206500D01*
X1191500Y540000D02*
X1206500D01*
X686500Y535000D02*
X711500D01*
X854000D02*
X879000D01*
X890000D01*
X959000D02*
X984000D01*
X716500D02*
X746500D01*
X800500Y540000D02*
X849000D01*
X716500D02*
X765500D01*
X854000D02*
X890000D01*
X895000D02*
X954000D01*
X716500Y530000D02*
X761500D01*
X746500Y535000D02*
X763500D01*
X959000Y540000D02*
X1031500D01*
X1175500Y539000D02*
X1182500D01*
X636500Y535000D02*
X650000D01*
X1191500Y520000D02*
X1206500D01*
X1211500D02*
X1221500D01*
X716500D02*
X756500D01*
X1126500Y515000D02*
X1149000D01*
X1176500D02*
X1206500D01*
X716500D02*
X746500D01*
X686500D02*
X711500D01*
X928000Y514000D02*
X996500D01*
X746500Y515000D02*
X754500D01*
X867500D02*
X912500D01*
X1211500D02*
X1229000D01*
X636500D02*
X650000D01*
X652500Y554000D02*
X668500D01*
X636500Y555000D02*
X651500D01*
X769000Y560000D02*
X779000D01*
X1161500Y555000D02*
X1206500D01*
X761000Y554000D02*
X783000D01*
X959000Y560000D02*
X1011500D01*
X1033000Y557500D02*
X1061500D01*
X984000Y555000D02*
X1016500D01*
X686500D02*
X711500D01*
X797000D02*
X819000D01*
X854000D02*
X879000D01*
X819000D02*
X849000D01*
X895000D02*
X924000D01*
X879000D02*
X890000D01*
X959000D02*
X984000D01*
X924000D02*
X954000D01*
X716500D02*
X746500D01*
X1211500D02*
X1266500D01*
X1211500Y560000D02*
X1221500D01*
X1191500D02*
X1206500D01*
X1126500Y555000D02*
X1151500D01*
X716500Y560000D02*
X756500D01*
X854000D02*
X890000D01*
X895000D02*
X954000D01*
X795500D02*
X849000D01*
X659000D02*
X711500D01*
X752500Y574000D02*
X764000D01*
X746500Y575000D02*
X751500D01*
X652500Y566000D02*
X668500D01*
X636500Y565000D02*
X651500D01*
X1161500D02*
X1206500D01*
X1029000Y567500D02*
X1069000D01*
X716500Y570000D02*
X759000D01*
X959000D02*
X1001500D01*
X984000Y565000D02*
X1006500D01*
X984000Y575000D02*
X996500D01*
X1211500Y565000D02*
X1236500D01*
X1191500Y570000D02*
X1206500D01*
X716500Y575000D02*
X746500D01*
X765000D02*
X819000D01*
X780500Y570000D02*
X849000D01*
X854000Y575000D02*
X879000D01*
X819000D02*
X849000D01*
X854000Y570000D02*
X890000D01*
X895000Y575000D02*
X924000D01*
X895000Y570000D02*
X954000D01*
X879000Y575000D02*
X890000D01*
X959000D02*
X984000D01*
X854000Y565000D02*
X879000D01*
X686500D02*
X711500D01*
X794000D02*
X819000D01*
X849000D01*
X895000D02*
X924000D01*
X879000D02*
X890000D01*
X959000D02*
X984000D01*
X924000D02*
X954000D01*
X716500D02*
X746500D01*
X924000Y575000D02*
X954000D01*
X636500D02*
X650000D01*
X766500Y550000D02*
X785500D01*
X959000D02*
X1021500D01*
X798500D02*
X849000D01*
X854000D02*
X890000D01*
X895000D02*
X954000D01*
X716500D02*
X757000D01*
X1314500D02*
X1339000D01*
X1439000D02*
X1481500D01*
X1389000D02*
X1439000D01*
X1339000D02*
X1389000D01*
X1211500D02*
X1221500D01*
X1191500D02*
X1206500D01*
X1273000Y548500D02*
X1313000D01*
X1131500Y545000D02*
X1151500D01*
X770500D02*
X787000D01*
X984000D02*
X1026500D01*
X1211500D02*
X1254000D01*
X1317000Y545500D02*
X1401000D01*
X1175000Y545000D02*
X1206500D01*
X686500D02*
X711500D01*
X854000D02*
X879000D01*
X799000D02*
X819000D01*
X849000D01*
X895000D02*
X924000D01*
X879000D02*
X890000D01*
X959000D02*
X984000D01*
X924000D02*
X954000D01*
X716500D02*
X746500D01*
X1029000Y547500D02*
X1054000D01*
X1096500Y545000D02*
X1121500D01*
X636500D02*
X650000D01*
X783500Y599000D02*
X812500D01*
X1270500D02*
X1313500D01*
X714000Y590000D02*
X766500D01*
X752500Y586000D02*
X764000D01*
X767500Y589000D02*
X779000D01*
X1029000Y587500D02*
X1084000D01*
X854000Y590000D02*
X886000D01*
X959000D02*
X991500D01*
X905000D02*
X954000D01*
X892000Y596000D02*
X911500D01*
X757500Y594000D02*
X770000D01*
X746500Y595000D02*
X756500D01*
X785000Y603500D02*
X810500D01*
X757500Y606000D02*
X782500D01*
X746500Y605000D02*
X756500D01*
X854000Y595000D02*
X879000D01*
X854000Y600000D02*
X886000D01*
X879000Y605000D02*
X886000D01*
X1029000Y607500D02*
X1099000D01*
X1029000Y597500D02*
X1091500D01*
X1314500Y600000D02*
X1339000D01*
X1439000D02*
X1481500D01*
X1389000D02*
X1439000D01*
X1339000D02*
X1389000D01*
X1317000Y595500D02*
X1351000D01*
X813500Y600000D02*
X849000D01*
X714000D02*
X764000D01*
X891000D02*
X954000D01*
X686500Y605000D02*
X709000D01*
X714000D02*
X746500D01*
X812000D02*
X819000D01*
X849000D01*
X891000D02*
X924000D01*
X879000Y595000D02*
X886000D01*
X686500D02*
X709000D01*
X714000D02*
X746500D01*
X771000D02*
X819000D01*
X849000D01*
X912500D02*
X924000D01*
X959000D02*
X984000D01*
X924000D02*
X954000D01*
X636500D02*
X650000D01*
X636500Y605000D02*
X650000D01*
X894000Y584000D02*
X912500D01*
X767000Y583000D02*
X793000D01*
X746500Y585000D02*
X751500D01*
X686500D02*
X709000D01*
X714000D02*
X746500D01*
X795000D02*
X819000D01*
X849000D01*
X913500D02*
X924000D01*
X954000D01*
X959000D02*
X984000D01*
X879000D02*
X889500D01*
X636500D02*
X650000D01*
X764500Y579000D02*
X810000D01*
X756500Y580000D02*
X763500D01*
X1029000Y577500D02*
X1076500D01*
X811000Y580000D02*
X849000D01*
X854000D02*
X890000D01*
X895000D02*
X954000D01*
X959000D02*
X991500D01*
X1484000Y622500D02*
X1506500D01*
X667500Y619000D02*
X679500D01*
X854000Y620000D02*
X886000D01*
X879000Y625000D02*
X886000D01*
X1131500D02*
X1153000D01*
X1129000Y620000D02*
X1141500D01*
X1041500Y625000D02*
X1124000D01*
X714000Y620000D02*
X759000D01*
X746500Y625000D02*
X754000D01*
X784000Y620000D02*
X789500D01*
X802500D02*
X849000D01*
X680500D02*
X709000D01*
X761500Y622500D02*
X771500D01*
X891000Y620000D02*
X954000D01*
X854000Y625000D02*
X879000D01*
X714000D02*
X746500D01*
X810000D02*
X819000D01*
X849000D01*
X891000D02*
X924000D01*
X959000D02*
X984000D01*
X1479000Y617500D02*
X1511500D01*
X636500Y625000D02*
X650000D01*
X790000Y631000D02*
X810500D01*
X796500Y627000D02*
X808000D01*
X765000Y634000D02*
X779000D01*
X746500Y635000D02*
X764000D01*
X667500Y631000D02*
X679500D01*
X854000Y630000D02*
X886000D01*
X879000Y635000D02*
X886000D01*
X759000Y630000D02*
X774000D01*
X780000Y635000D02*
X819000D01*
X1046500Y632500D02*
X1099000D01*
X1111500Y630000D02*
X1126500D01*
X811500D02*
X849000D01*
X680500D02*
X709000D01*
X891000D02*
X954000D01*
X686500Y635000D02*
X709000D01*
X714000D02*
X746500D01*
X854000D02*
X879000D01*
X819000D02*
X849000D01*
X891000D02*
X924000D01*
X959000D02*
X984000D01*
X924000D02*
X954000D01*
X959000Y630000D02*
X991500D01*
X1141500D02*
X1150500D01*
X1451500D02*
X1466500D01*
X636500Y635000D02*
X650000D01*
X879000Y615000D02*
X886000D01*
X1041000D02*
X1102000D01*
X686500D02*
X709000D01*
X714000D02*
X746500D01*
X819000D01*
X854000D02*
X879000D01*
X819000D02*
X849000D01*
X891000D02*
X924000D01*
X959000D02*
X984000D01*
X636500D02*
X650000D01*
X714000Y610000D02*
X788000D01*
X854000D02*
X886000D01*
X891000D02*
X954000D01*
X746500Y655000D02*
X751500D01*
X1126500Y650000D02*
X1141500D01*
X1061500D02*
X1111500D01*
X1104000Y655000D02*
X1121500D01*
X762500Y657500D02*
X771500D01*
X752500Y654000D02*
X759000D01*
X806500Y655000D02*
X819000D01*
X849000D01*
X686500D02*
X709000D01*
X714000D02*
X746500D01*
X714000Y650000D02*
X764000D01*
X774000Y655000D02*
X794000D01*
X854000Y650000D02*
X886500D01*
X920500Y655000D02*
X924000D01*
X959000D02*
X984000D01*
X914000Y650000D02*
X954000D01*
X636500Y655000D02*
X650000D01*
X1141500Y670000D02*
X1165500D01*
X746500Y665000D02*
X751500D01*
X897500Y661000D02*
X914500D01*
X766500Y667500D02*
X781500D01*
X714000Y670000D02*
X764000D01*
X752500Y666000D02*
X761500D01*
X784000Y670000D02*
X791500D01*
X765000Y662500D02*
X786500D01*
X1069000Y660000D02*
X1099000D01*
X1076500Y670000D02*
X1096500D01*
X1111500Y660000D02*
X1126500D01*
X686500Y665000D02*
X709000D01*
X714000D02*
X746500D01*
X714000Y660000D02*
X756500D01*
X1111500Y670000D02*
X1126500D01*
X1131500Y665000D02*
X1168500D01*
X1141500Y660000D02*
X1171500D01*
X636500Y665000D02*
X650000D01*
X770500Y648000D02*
X803500D01*
X746500Y645000D02*
X751500D01*
X854000Y640000D02*
X886000D01*
X752500Y644000D02*
X766500D01*
X1054000Y640000D02*
X1099000D01*
X714000D02*
X771500D01*
X799000D02*
X849000D01*
X891000D02*
X954000D01*
X959000D02*
X991500D01*
X686500Y645000D02*
X709000D01*
X714000D02*
X746500D01*
X806500D02*
X819000D01*
X849000D01*
X891000D02*
X924000D01*
X1104000D02*
X1124000D01*
X1129000Y640000D02*
X1141500D01*
X1106500D02*
X1111500D01*
X924000Y645000D02*
X954000D01*
X794000Y641500D02*
X797500D01*
X636500Y645000D02*
X650000D01*
X659000Y490000D02*
X660000Y489000D01*
X659000Y500000D02*
X660000Y501000D01*
X666500Y630000D02*
X667500Y631000D01*
X666500Y620000D02*
X667500Y619000D01*
X668500Y554000D02*
X669500Y555000D01*
X668500Y566000D02*
X669500Y565000D01*
X651500Y555000D02*
X652500Y554000D01*
X651500Y565000D02*
X652500Y566000D01*
X1104000Y685000D02*
X1121500D01*
X774000Y682500D02*
X791500D01*
X945000Y687500D02*
X959000D01*
X969000Y685000D02*
X986500D01*
X976500Y702500D02*
X991500D01*
X951500Y697500D02*
X966500D01*
X949000Y692500D02*
X961500D01*
X1126500Y690000D02*
X1141500D01*
X1091500D02*
X1111500D01*
X1104000Y695000D02*
X1121500D01*
X1141500Y700000D02*
X1174500D01*
X971500Y692500D02*
X986500D01*
X974000Y697500D02*
X989000D01*
X1111500Y700000D02*
X1126500D01*
X1131500Y695000D02*
X1176500D01*
X1218500Y698000D02*
X1269500D01*
X1221500Y693500D02*
X1320000D01*
X1084000Y680000D02*
X1099000D01*
X1126500D02*
X1141500D01*
X1106500D02*
X1111500D01*
X714000D02*
X771500D01*
X966500D02*
X984000D01*
X746500Y675000D02*
X779000D01*
X1131500D02*
X1163500D01*
X687000D02*
X709000D01*
X714000D02*
X746500D01*
X679500Y631000D02*
X680500Y630000D01*
X679500Y619000D02*
X680500Y620000D01*
X673000Y489000D02*
X674000Y490000D01*
X673000Y501000D02*
X674000Y500000D01*
X1204000Y729500D02*
X1547000D01*
X1206500Y725000D02*
X1496500D01*
X1215000Y711500D02*
X1380000D01*
X979000Y707500D02*
X994000D01*
X711500Y570000D02*
X716500Y575000D01*
X711500Y540000D02*
X716500Y545000D01*
X711500Y550000D02*
X716500Y555000D01*
X711500Y560000D02*
X716500Y565000D01*
X711500Y545000D02*
X716500Y550000D01*
X711500Y535000D02*
X716500Y540000D01*
X711500Y555000D02*
X716500Y560000D01*
X711500Y565000D02*
X716500Y570000D01*
X711500Y505000D02*
X716500Y510000D01*
X711500Y515000D02*
X716500Y520000D01*
X711500Y525000D02*
X716500Y530000D01*
X711500Y520000D02*
X716500Y525000D01*
X711500Y510000D02*
X716500Y515000D01*
X711500Y530000D02*
X716500Y535000D01*
X711500Y485000D02*
X716500Y490000D01*
X711500D02*
X716500Y495000D01*
X711500Y479000D02*
X717500Y485000D01*
X711500Y500000D02*
X716500Y505000D01*
X709000Y675000D02*
X714000Y680000D01*
X709000Y670000D02*
X714000Y675000D01*
X709000Y665000D02*
X714000Y670000D01*
X709000Y660000D02*
X714000Y665000D01*
X709000Y655000D02*
X714000Y660000D01*
X709000Y650000D02*
X714000Y655000D01*
X709000Y645000D02*
X714000Y650000D01*
X709000Y640000D02*
X714000Y645000D01*
X709000Y635000D02*
X714000Y640000D01*
X709000Y630000D02*
X714000Y635000D01*
X709000Y620000D02*
X714000Y625000D01*
X709000Y615000D02*
X714000Y620000D01*
X709000Y610000D02*
X714000Y615000D01*
X709000Y605000D02*
X714000Y610000D01*
X709000Y600000D02*
X714000Y605000D01*
X709000Y595000D02*
X714000Y600000D01*
X709000Y590000D02*
X714000Y595000D01*
X709000Y585000D02*
X714000Y590000D01*
X709000Y580000D02*
X714000Y585000D01*
X1131000Y750000D02*
X1141500D01*
X1044000Y757500D02*
X1091500D01*
X1041500Y765000D02*
X1094000D01*
X1104000Y755000D02*
X1126000D01*
X1111500Y760000D02*
X1129000D01*
X1134000Y755000D02*
X1151500D01*
X944000Y760000D02*
X959500D01*
X766500Y590000D02*
X767500Y589000D01*
X763500Y580000D02*
X764500Y579000D01*
X764000Y574000D02*
X765000Y575000D01*
X751500D02*
X752500Y574000D01*
X764000Y586000D02*
X767000Y583000D01*
X751500Y585000D02*
X752500Y586000D01*
X756500Y595000D02*
X757500Y594000D01*
X756500Y605000D02*
X757500Y606000D01*
X751500Y645000D02*
X752500Y644000D01*
X764000Y635000D02*
X765000Y634000D01*
X751500Y655000D02*
X752500Y654000D01*
X751500Y665000D02*
X752500Y666000D01*
X764000Y547500D02*
X766500Y550000D01*
X757000D02*
X761000Y554000D01*
X765500Y540000D02*
X770500Y545000D01*
X759000Y620000D02*
X761500Y622500D01*
X754000Y625000D02*
X759000Y630000D01*
X766500Y644000D02*
X770500Y648000D01*
X764000Y670000D02*
X766500Y667500D01*
X761500Y666000D02*
X765000Y662500D01*
X759000Y654000D02*
X762500Y657500D01*
X759000Y570000D02*
X769000Y560000D01*
X1131000Y785000D02*
X1156500D01*
X1084000D02*
X1122500D01*
X1074000Y780000D02*
X1111500D01*
X1127500D02*
X1141500D01*
X1111500Y790000D02*
X1126000D01*
X1064000Y775000D02*
X1122500D01*
X1127500Y770000D02*
X1141500D01*
X1054000D02*
X1111500D01*
X782500Y600000D02*
X783500Y599000D01*
X788000Y610000D02*
X789000Y609500D01*
X782500Y606000D02*
X785000Y603500D01*
X789500Y620000D02*
X796500Y627000D01*
X781500Y667500D02*
X784000Y670000D01*
X785500Y550000D02*
X795500Y560000D01*
X787000Y545000D02*
X797000Y555000D01*
X788500Y540000D02*
X798500Y550000D01*
X791500Y682500D02*
X801500Y672500D01*
X797500Y641500D02*
X799000Y640000D01*
X790000Y536000D02*
X799000Y545000D01*
X786500Y627500D02*
X790000Y631000D01*
X793000Y583000D02*
X795000Y585000D01*
X779000Y634000D02*
X780000Y635000D01*
X774000Y630000D02*
X784000Y620000D01*
X779000Y569000D02*
X780500Y570000D01*
X779000Y530000D02*
X785000Y536000D01*
X770000Y594000D02*
X771000Y595000D01*
X771500Y657500D02*
X774000Y655000D01*
X771500Y680000D02*
X774000Y682500D01*
X771500Y536000D02*
X775500Y540000D01*
X1084000Y815000D02*
X1122500D01*
X1127500Y810000D02*
X1141500D01*
X1101500D02*
X1111500D01*
Y830000D02*
X1126500D01*
X1101500Y825000D02*
X1122500D01*
X1094000Y820000D02*
X1111500D01*
X1127500D02*
X1141500D01*
X1131500Y825000D02*
X1155500D01*
X1076500Y807500D02*
X1099000D01*
X1111500Y800000D02*
X1122500D01*
X812500Y599000D02*
X813500Y600000D01*
X810500Y603500D02*
X812000Y605000D01*
X810500Y631000D02*
X811500Y630000D01*
X810000Y579000D02*
X811000Y580000D01*
X808000Y627000D02*
X810000Y625000D01*
X801500Y621000D02*
X802500Y620000D01*
X803500Y648000D02*
X806500Y645000D01*
X849000Y655000D02*
X854000Y650000D01*
X849000Y645000D02*
X854000Y640000D01*
X849000D02*
X854000Y635000D01*
X849000D02*
X854000Y630000D01*
X849000D02*
X854000Y625000D01*
X849000Y620000D02*
X854000Y615000D01*
X849000Y625000D02*
X854000Y620000D01*
X849000Y615000D02*
X854000Y610000D01*
X849000Y605000D02*
X854000Y600000D01*
X849000D02*
X854000Y595000D01*
X849000Y580000D02*
X854000Y575000D01*
X849000Y595000D02*
X854000Y590000D01*
X849000Y585000D02*
X854000Y580000D01*
X849000Y575000D02*
X854000Y570000D01*
X849000Y560000D02*
X854000Y555000D01*
X849000Y550000D02*
X854000Y545000D01*
X849000Y540000D02*
X854000Y535000D01*
X849000Y570000D02*
X854000Y565000D01*
X849000D02*
X854000Y560000D01*
X849000Y555000D02*
X854000Y550000D01*
X849000Y545000D02*
X854000Y540000D01*
X886000Y595000D02*
X891000Y600000D01*
X886000D02*
X891000Y605000D01*
X886000D02*
X891000Y610000D01*
X886000D02*
X891000Y615000D01*
X886000D02*
X891000Y620000D01*
X886000D02*
X891000Y625000D01*
X886000D02*
X891000Y630000D01*
X886000D02*
X891000Y635000D01*
X886000D02*
X891000Y640000D01*
X886000D02*
X891000Y645000D01*
X886000Y590000D02*
X892000Y596000D01*
X890000Y580000D02*
X894000Y584000D01*
X890000Y570000D02*
X895000Y575000D01*
X890000D02*
X895000Y580000D01*
X890000Y560000D02*
X895000Y565000D01*
X890000Y550000D02*
X895000Y555000D01*
X890000Y540000D02*
X895000Y545000D01*
X890000Y535000D02*
X895000Y540000D01*
X890000Y545000D02*
X895000Y550000D01*
X890000Y555000D02*
X895000Y560000D01*
X890000Y565000D02*
X895000Y570000D01*
X889500Y585000D02*
X894500Y590000D01*
X922000Y508000D02*
X928000Y514000D01*
X912500Y584000D02*
X913500Y585000D01*
X911500Y596000D02*
X912500Y595000D01*
X914500Y661000D02*
X920500Y655000D01*
X912500Y652500D02*
X914000Y650000D01*
X943500Y705500D02*
Y738000D01*
X937500Y704000D02*
Y745500D01*
X932000Y700500D02*
Y748000D01*
X943500Y705500D02*
X951500Y697500D01*
X959000Y687500D02*
X966500Y680000D01*
X954000Y595000D02*
X959000Y590000D01*
X954000Y575000D02*
X959000Y570000D01*
X954000Y585000D02*
X959000Y580000D01*
X954000Y640000D02*
X959000Y635000D01*
X954000Y620000D02*
X959000Y615000D01*
X954000Y630000D02*
X959000Y625000D01*
X954000Y580000D02*
X959000Y575000D01*
X954000Y600000D02*
X959000Y595000D01*
X954000Y545000D02*
X959000Y540000D01*
X954000Y555000D02*
X959000Y550000D01*
X954000Y565000D02*
X959000Y560000D01*
X954000Y540000D02*
X959000Y535000D01*
X954000Y550000D02*
X959000Y545000D01*
X954000Y560000D02*
X959000Y555000D01*
X954000Y570000D02*
X959000Y565000D01*
X954000Y610000D02*
X959000Y605000D01*
X954000Y590000D02*
X959000Y585000D01*
X954000Y650000D02*
X959000Y655000D01*
X954000Y635000D02*
X959000Y630000D01*
X954000Y645000D02*
X959000Y640000D01*
X959500Y760000D02*
X963000Y756500D01*
X937500Y745500D02*
X947000Y755000D01*
X975500Y711000D02*
Y776000D01*
X973500Y428000D02*
Y457000D01*
X969000Y472500D02*
Y492500D01*
X967500Y704000D02*
Y762000D01*
X971500Y707500D02*
Y770000D01*
X964000Y460000D02*
Y490000D01*
X963000Y738500D02*
Y756500D01*
X991500Y580000D02*
X999000Y587500D01*
X991500Y630000D02*
X1001500Y640000D01*
X973500Y428000D02*
X976500Y425000D01*
X975500Y711000D02*
X979000Y707500D01*
X991500Y640000D02*
X997000Y645500D01*
X991500Y590000D02*
X994000Y592500D01*
X973500Y457000D02*
X976500Y460000D01*
X990500D02*
X993000Y462500D01*
X990500Y475000D02*
X993000Y472500D01*
X969000D02*
X976500Y465000D01*
X971500Y707500D02*
X976500Y702500D01*
X967500Y704000D02*
X974000Y697500D01*
X966500D02*
X971500Y692500D01*
X966500Y775000D02*
X971500Y770000D01*
X966500Y785000D02*
X975500Y776000D01*
X961500Y492500D02*
X964000Y490000D01*
X961500Y692500D02*
X969000Y685000D01*
X964500Y765000D02*
X967500Y762000D01*
X964500Y497000D02*
X969000Y492500D01*
X1011500Y794500D02*
Y856000D01*
X1006500Y595000D02*
Y605000D01*
X1021500Y780000D02*
Y856000D01*
X1016500Y625000D02*
Y677500D01*
X1021500Y620000D02*
Y680000D01*
X1006500Y635000D02*
Y672500D01*
X1011500Y627500D02*
Y675000D01*
X999000Y587500D02*
Y607500D01*
X1001500Y640000D02*
Y670000D01*
X994000Y592500D02*
Y610000D01*
X993000Y462500D02*
Y472500D01*
X997000Y645500D02*
Y667000D01*
X1011500Y560000D02*
X1014000Y562500D01*
X1021500Y550000D02*
X1024000Y552500D01*
X1006500Y775000D02*
X1016500Y785000D01*
X1001500Y570000D02*
X1006500Y575000D01*
X996500Y625000D02*
X1006500Y635000D01*
X1015500Y522000D02*
X1022500Y515000D01*
X1046500Y533000D02*
Y537500D01*
X1051500Y802500D02*
Y856000D01*
X1046500Y632500D02*
Y747500D01*
X1054000Y537500D02*
Y547500D01*
Y640000D02*
Y740000D01*
X1041500Y782500D02*
Y856000D01*
X1031500Y770000D02*
Y856000D01*
Y635000D02*
Y685000D01*
X1026500Y629500D02*
Y682500D01*
X1054000Y785000D02*
X1064000Y775000D01*
X1046500Y777500D02*
X1054000Y770000D01*
X1046500Y792500D02*
X1054000Y785000D01*
X1051500Y802500D02*
X1061500Y792500D01*
X1041500Y782500D02*
X1046500Y777500D01*
X1031500Y559000D02*
X1033000Y557500D01*
X1031500Y635000D02*
X1041500Y625000D01*
X1024000Y572500D02*
X1029000Y577500D01*
X1024000Y535000D02*
X1026000Y533000D01*
X1026500Y545000D02*
X1029000Y547500D01*
X1084000D02*
Y587500D01*
Y680000D02*
Y740000D01*
X1071500Y842500D02*
Y856000D01*
X1069000Y542500D02*
Y567500D01*
Y660000D02*
Y740000D01*
X1076500Y545000D02*
Y577500D01*
Y670000D02*
Y747500D01*
X1061500Y822500D02*
Y856000D01*
Y540000D02*
Y557500D01*
Y650000D02*
Y747500D01*
X1099000Y552500D02*
Y607500D01*
Y700000D02*
Y740000D01*
X1091500Y550000D02*
Y597500D01*
Y690000D02*
Y747500D01*
X1102000Y615000D02*
X1111500Y605500D01*
X1099000Y632500D02*
X1106500Y640000D01*
X1099000D02*
X1104000Y645000D01*
X1099000Y660000D02*
X1104000Y655000D01*
X1096500Y670000D02*
X1106500Y680000D01*
X1099000D02*
X1104000Y685000D01*
X1099000Y700000D02*
X1104000Y695000D01*
X1099000Y827500D02*
X1101500Y825000D01*
X1099000Y807500D02*
X1101500Y810000D01*
X1094000Y765000D02*
X1104000Y755000D01*
X1099000Y552500D02*
X1101500Y550000D01*
X1091500Y822500D02*
X1094000Y820000D01*
X1091500Y550000D02*
X1096500Y545000D01*
X1151500Y505000D02*
X1156500Y510000D01*
X1151500Y555000D02*
X1161500Y565000D01*
X1151500Y545000D02*
X1161500Y555000D01*
X1126500Y540000D02*
X1131500Y545000D01*
X1126000Y755000D02*
X1131000Y750000D01*
X1126500Y630000D02*
X1131500Y625000D01*
X1126500Y660000D02*
X1131500Y665000D01*
X1126500Y670000D02*
X1131500Y675000D01*
X1126500Y830000D02*
X1131500Y825000D01*
X1126000Y790000D02*
X1131000Y785000D01*
X1129000Y760000D02*
X1134000Y755000D01*
X1126500Y700000D02*
X1131500Y695000D01*
X1121500Y520000D02*
X1126500Y515000D01*
X1121500Y685000D02*
X1126500Y680000D01*
X1121500Y655000D02*
X1126500Y650000D01*
X1121500Y560000D02*
X1126500Y555000D01*
X1121500Y695000D02*
X1126500Y690000D01*
X1121500Y525000D02*
X1126500Y530000D01*
X1121500Y505000D02*
X1126500Y510000D01*
X1121500Y485000D02*
X1126500Y490000D01*
X1121500Y545000D02*
X1126500Y550000D01*
X1122500Y800000D02*
X1127500Y795000D01*
X1122500Y785000D02*
X1127500Y780000D01*
X1122500Y815000D02*
X1127500Y810000D01*
X1122500Y825000D02*
X1127500Y820000D01*
X1124000Y500000D02*
X1129000Y505000D01*
X1124000Y645000D02*
X1129000Y640000D01*
X1124000Y625000D02*
X1129000Y620000D01*
X1122500Y775000D02*
X1127500Y770000D01*
X1164500Y530500D02*
Y534500D01*
X1169500Y529000D02*
Y533000D01*
X1166500Y492500D02*
Y512500D01*
X1171500Y492500D02*
Y510000D01*
X1161500Y506500D02*
Y514000D01*
X1156500Y510000D02*
Y516000D01*
X1169500Y533000D02*
X1175500Y539000D01*
X1171500Y510000D02*
X1176500Y515000D01*
X1182500Y539000D02*
X1186500Y535000D01*
X1155000Y500000D02*
X1161500Y506500D01*
X1156500Y785000D02*
X1166500Y775000D01*
X1206500Y480000D02*
Y485000D01*
Y500000D02*
X1211500Y495000D01*
X1201500Y490000D02*
X1206500Y485000D01*
Y505000D02*
X1211500Y500000D01*
X1206500Y515000D02*
X1211500Y510000D01*
X1206500Y540000D02*
X1211500Y535000D01*
X1206500Y570000D02*
X1211500Y565000D01*
X1206500Y525000D02*
X1211500Y520000D01*
X1206500Y535000D02*
X1211500Y530000D01*
X1206500Y545000D02*
X1211500Y540000D01*
X1206500Y555000D02*
X1211500Y550000D01*
X1206500Y565000D02*
X1211500Y560000D01*
X1206500Y550000D02*
X1211500Y545000D01*
X1206500Y530000D02*
X1211500Y525000D01*
X1206500Y560000D02*
X1211500Y555000D01*
X1206500Y520000D02*
X1211500Y515000D01*
X1206500Y510000D02*
X1211500Y505000D01*
X1206500Y480000D02*
X1216500Y470000D01*
X1234000Y510000D02*
X1239000Y505000D01*
X1229000Y495000D02*
X1239000Y485000D01*
X1244000Y470000D02*
X1249000Y465000D01*
X1279000Y504500D02*
Y520000D01*
X1274000Y457500D02*
Y517500D01*
X1279000Y504500D02*
X1285000Y498500D01*
X1266500Y555000D02*
X1273000Y548500D01*
X1269500Y698000D02*
X1276500Y705000D01*
X1274000Y457500D02*
X1283000Y448500D01*
X1259000Y485000D02*
X1264000Y480000D01*
X1254000D02*
X1259000Y475000D01*
X1249000D02*
X1254000Y470000D01*
X1313000Y448500D02*
X1314500Y450000D01*
X1313000Y498500D02*
X1314500Y500000D01*
X1313000Y548500D02*
X1314500Y550000D01*
X1313500Y599000D02*
X1314500Y600000D01*
X1380000Y711500D02*
X1386500Y705000D01*
X641500Y550000D02*
X642000D01*
X711500D01*
X641500Y620000D02*
X642000D01*
X666500D01*
X641500Y630000D02*
X642000D01*
X666500D01*
X1046500Y792500D02*
Y862000D01*
Y862500D01*
X641500Y580000D02*
X642000D01*
X709000D01*
X641500Y600000D02*
X642000D01*
X709000D01*
X641500Y610000D02*
X642000D01*
X709000D01*
X641500Y640000D02*
X642000D01*
X709000D01*
X1076500Y850000D02*
Y862000D01*
Y862500D01*
X641500Y590000D02*
X642000D01*
X709000D01*
X641500Y540000D02*
X642000D01*
X711500D01*
X641500Y490000D02*
X642000D01*
X659000D01*
X641500Y650000D02*
X642000D01*
X709000D01*
X641500Y660000D02*
X642000D01*
X709000D01*
X641500Y670000D02*
X642000D01*
X709000D01*
X1066500Y832500D02*
Y862000D01*
Y862500D01*
X641500Y570000D02*
X642000D01*
X711500D01*
X641500Y500000D02*
X642000D01*
X659000D01*
X1056500Y812500D02*
Y862000D01*
Y862500D01*
X1016500Y785000D02*
Y862000D01*
Y862500D01*
X1026500Y775000D02*
Y862000D01*
Y862500D01*
X641500Y510000D02*
X642000D01*
X711500D01*
X641500Y530000D02*
X642000D01*
X711500D01*
X776500Y522000D02*
X940500D01*
X1015500D01*
X641500Y560000D02*
X642000D01*
X659000D01*
X1211500Y510000D02*
X1221500D01*
X1234000D01*
X1239000Y505000D02*
X1251500D01*
X641500Y520000D02*
X642000D01*
X711500D01*
X761500Y530000D02*
X774000Y517500D01*
X806500D02*
X824000Y500000D01*
X799000Y512500D02*
X811500Y500000D01*
X791500Y507500D02*
X799000Y500000D01*
X784000Y502500D02*
X786500Y500000D01*
X774000Y517500D02*
X806500D01*
X771500Y512500D02*
X799000D01*
X769000Y507500D02*
X791500D01*
X767000Y502500D02*
X784000D01*
X1156500Y806000D02*
Y816000D01*
X1166500Y826000D01*
X1150500Y800000D02*
X1156500Y806000D01*
X1142500Y800000D02*
X1150500D01*
X1127500Y795000D02*
X1159500D01*
X1165000Y800500D01*
Y813500D01*
X1167500Y816000D01*
X1166500Y856000D02*
X1176500D01*
X1155500Y825000D02*
X1166500Y836000D01*
X1395000Y850000D02*
X1437500D01*
X1222500Y860000D02*
X1542500D01*
X1562500Y840000D01*
X1550000Y845000D02*
X1555000Y840000D01*
Y827500D02*
Y840000D01*
X1517500Y842500D02*
X1520000Y845000D01*
X1517500Y835000D02*
Y842500D01*
X1520000Y845000D02*
X1550000D01*
X1537500Y810000D02*
X1555000Y827500D01*
X1477500Y842500D02*
X1480000Y845000D01*
X1457500Y842500D02*
X1465000Y850000D01*
X1497500D01*
X1480000Y845000D02*
X1495000D01*
X1407500Y842500D02*
X1410000Y845000D01*
X1387500Y842500D02*
X1395000Y850000D01*
X1410000Y845000D02*
X1435000D01*
X1347500Y842500D02*
X1350000Y845000D01*
X1327500Y842500D02*
X1335000Y850000D01*
X1367500D01*
X1350000Y845000D02*
X1365000D01*
X1287500Y842500D02*
X1290000Y845000D01*
X1267500Y842500D02*
X1275000Y850000D01*
X1307500D01*
X1290000Y845000D02*
X1305000D01*
X1227500Y842500D02*
X1230000Y845000D01*
X1207500Y842500D02*
X1215000Y850000D01*
X1247500D01*
X1230000Y845000D02*
X1245000D01*
X1502000Y828000D02*
X1505000Y825000D01*
X1515000D02*
X1517500Y827500D01*
X1530000Y820000D02*
X1537500Y827500D01*
X1502000Y828000D02*
Y845500D01*
X1498000Y824500D02*
X1502500Y820000D01*
X1495000Y845000D02*
X1498000Y842000D01*
X1497500Y850000D02*
X1502000Y845500D01*
X1498000Y824500D02*
Y842000D01*
X1502500Y820000D02*
X1530000D01*
X1505000Y825000D02*
X1515000D01*
X1442000Y828000D02*
X1445000Y825000D01*
X1455000D02*
X1457500Y827500D01*
X1470000Y820000D02*
X1477500Y827500D01*
X1442000Y828000D02*
Y845500D01*
X1438000Y824500D02*
X1442500Y820000D01*
X1435000Y845000D02*
X1438000Y842000D01*
X1437500Y850000D02*
X1442000Y845500D01*
X1438000Y824500D02*
Y842000D01*
X1442500Y820000D02*
X1470000D01*
X1445000Y825000D02*
X1455000D01*
X1372000Y828000D02*
X1375000Y825000D01*
X1385000D02*
X1387500Y827500D01*
X1400000Y820000D02*
X1407500Y827500D01*
X1372000Y828000D02*
Y845500D01*
X1368000Y824500D02*
X1372500Y820000D01*
X1365000Y845000D02*
X1368000Y842000D01*
X1367500Y850000D02*
X1372000Y845500D01*
X1368000Y824500D02*
Y842000D01*
X1372500Y820000D02*
X1400000D01*
X1375000Y825000D02*
X1385000D01*
X1312000Y828000D02*
X1315000Y825000D01*
X1325000D02*
X1327500Y827500D01*
X1340000Y820000D02*
X1347500Y827500D01*
X1312000Y828000D02*
Y845500D01*
X1308000Y824500D02*
X1312500Y820000D01*
X1305000Y845000D02*
X1308000Y842000D01*
X1307500Y850000D02*
X1312000Y845500D01*
X1308000Y824500D02*
Y842000D01*
X1312500Y820000D02*
X1340000D01*
X1315000Y825000D02*
X1325000D01*
X1252000Y828000D02*
X1255000Y825000D01*
X1265000D02*
X1267500Y827500D01*
X1280000Y820000D02*
X1287500Y827500D01*
X1252000Y828000D02*
Y845500D01*
X1248000Y824500D02*
X1252500Y820000D01*
X1245000Y845000D02*
X1248000Y842000D01*
X1247500Y850000D02*
X1252000Y845500D01*
X1248000Y824500D02*
Y842000D01*
X1252500Y820000D02*
X1280000D01*
X1255000Y825000D02*
X1265000D01*
X1499000Y855000D02*
X1507500Y846500D01*
X1210000Y855000D02*
X1499000D01*
X1197500Y842500D02*
X1210000Y855000D01*
X1535000Y815000D02*
X1547500Y827500D01*
X1357500Y815000D02*
X1417500D01*
X1297500D02*
X1357500D01*
X1237500D02*
X1297500D01*
X1515000Y755000D02*
X1522500Y762500D01*
Y782500D02*
X1525000Y785000D01*
X1535000D02*
X1537500Y782500D01*
X1540000Y790000D02*
X1547500Y782500D01*
X1522500Y762500D02*
Y782500D01*
X1512500Y760000D02*
X1517500Y765000D01*
X1510000D02*
X1512500Y767500D01*
Y782500D02*
X1520000Y790000D01*
X1512500Y767500D02*
Y782500D01*
X1520000Y790000D02*
X1540000D01*
X1525000Y785000D02*
X1535000D01*
X1485000Y755000D02*
X1515000D01*
X1487500Y760000D02*
X1512500D01*
X1490000Y765000D02*
X1510000D01*
X1415000Y755000D02*
X1455000D01*
X1417500Y760000D02*
X1452500D01*
X1420000Y765000D02*
X1450000D01*
X1355000Y755000D02*
X1385000D01*
X1357500Y760000D02*
X1382500D01*
X1360000Y765000D02*
X1380000D01*
X1295000Y755000D02*
X1325000D01*
X1297500Y760000D02*
X1322500D01*
X1300000Y765000D02*
X1320000D01*
X1227500Y762500D02*
X1235000Y755000D01*
X1232500Y765000D02*
X1237500Y760000D01*
Y767500D02*
X1240000Y765000D01*
X1230000Y785000D02*
X1232500Y782500D01*
Y765000D02*
Y782500D01*
X1207500D02*
X1210000Y785000D01*
X1230000D01*
X1235000Y755000D02*
X1265000D01*
X1237500Y760000D02*
X1262500D01*
X1240000Y765000D02*
X1260000D01*
X1475000Y785000D02*
X1477500Y782500D01*
Y762500D02*
X1485000Y755000D01*
X1480000Y795000D02*
X1487500Y787500D01*
X1477500Y790000D02*
X1482500Y785000D01*
Y765000D02*
X1487500Y760000D01*
Y767500D02*
X1490000Y765000D01*
X1482500D02*
Y785000D01*
X1450000Y765000D02*
X1452500Y767500D01*
X1455000Y755000D02*
X1462500Y762500D01*
X1457500Y785000D02*
X1462500Y790000D01*
X1452500Y760000D02*
X1457500Y765000D01*
X1452500Y787500D02*
X1460000Y795000D01*
X1462500Y782500D02*
X1465000Y785000D01*
X1452500Y767500D02*
Y787500D01*
X1462500Y762500D02*
Y782500D01*
Y790000D02*
X1477500D01*
X1460000Y795000D02*
X1480000D01*
X1465000Y785000D02*
X1475000D01*
X1405000D02*
X1407500Y782500D01*
Y762500D02*
X1415000Y755000D01*
X1410000Y795000D02*
X1417500Y787500D01*
X1407500Y790000D02*
X1412500Y785000D01*
Y765000D02*
X1417500Y760000D01*
Y767500D02*
X1420000Y765000D01*
X1412500D02*
Y785000D01*
X1380000Y765000D02*
X1382500Y767500D01*
X1385000Y755000D02*
X1392500Y762500D01*
X1387500Y785000D02*
X1392500Y790000D01*
X1382500Y760000D02*
X1387500Y765000D01*
X1382500Y787500D02*
X1390000Y795000D01*
X1392500Y782500D02*
X1395000Y785000D01*
X1382500Y767500D02*
Y787500D01*
X1392500Y762500D02*
Y782500D01*
Y790000D02*
X1407500D01*
X1390000Y795000D02*
X1410000D01*
X1395000Y785000D02*
X1405000D01*
X1345000D02*
X1347500Y782500D01*
Y762500D02*
X1355000Y755000D01*
X1350000Y795000D02*
X1357500Y787500D01*
X1347500Y790000D02*
X1352500Y785000D01*
Y765000D02*
X1357500Y760000D01*
Y767500D02*
X1360000Y765000D01*
X1352500D02*
Y785000D01*
X1320000Y765000D02*
X1322500Y767500D01*
X1325000Y755000D02*
X1332500Y762500D01*
X1327500Y785000D02*
X1332500Y790000D01*
X1322500Y760000D02*
X1327500Y765000D01*
X1322500Y787500D02*
X1330000Y795000D01*
X1332500Y782500D02*
X1335000Y785000D01*
X1322500Y767500D02*
Y787500D01*
X1332500Y762500D02*
Y782500D01*
Y790000D02*
X1347500D01*
X1330000Y795000D02*
X1350000D01*
X1335000Y785000D02*
X1345000D01*
X1285000D02*
X1287500Y782500D01*
Y762500D02*
X1295000Y755000D01*
X1290000Y795000D02*
X1297500Y787500D01*
X1287500Y790000D02*
X1292500Y785000D01*
Y765000D02*
X1297500Y760000D01*
Y767500D02*
X1300000Y765000D01*
X1292500D02*
Y785000D01*
X1260000Y765000D02*
X1262500Y767500D01*
X1265000Y755000D02*
X1272500Y762500D01*
X1267500Y785000D02*
X1272500Y790000D01*
X1262500Y760000D02*
X1267500Y765000D01*
X1262500Y787500D02*
X1270000Y795000D01*
X1272500Y782500D02*
X1275000Y785000D01*
X1262500Y767500D02*
Y787500D01*
X1272500Y762500D02*
Y782500D01*
Y790000D02*
X1287500D01*
X1270000Y795000D02*
X1290000D01*
X1275000Y785000D02*
X1285000D01*
X1495000Y800000D02*
X1507500Y787500D01*
X1215000Y800000D02*
X1495000D01*
X1197500Y782500D02*
X1215000Y800000D01*
X1273500Y409000D02*
X1349500D01*
X1271500Y405000D02*
X1395500D01*
X1276000Y413000D02*
X1301000D01*
X1269000Y452500D02*
Y515000D01*
X1259000Y525000D02*
X1269000Y515000D01*
D11*
X1146500Y840000D02*
Y862000D01*
X1565000Y665000D02*
Y665500D01*
X1138000Y862000D02*
Y878500D01*
X1176500Y405000D02*
X1189000Y392500D01*
X1501500D01*
X1571500Y462500D01*
X1491000Y685000D02*
X1560000D01*
X1571000Y665000D02*
X1571500Y665500D01*
X1506500Y665000D02*
X1560000D01*
X1571500Y735000D02*
Y842000D01*
X1527500Y735000D02*
X1571500D01*
X1144500Y885000D02*
X1528500D01*
X1571500Y842000D01*
X1181000Y715000D02*
X1201000Y735000D01*
X1170000Y715000D02*
X1181000D01*
X1201000Y735000D02*
X1217500D01*
X1145000Y740000D02*
X1170000Y715000D01*
X1131500Y740000D02*
X1145000D01*
X815000Y780000D02*
Y788000D01*
X1176500Y457500D02*
Y472500D01*
Y437500D02*
Y457500D01*
X975500Y835000D02*
Y878500D01*
X659000Y709000D02*
X661000D01*
X654000Y704000D02*
X659000Y709000D01*
X971500Y502500D02*
X984000Y490000D01*
X819000Y665000D02*
X831500Y677500D01*
X1152500Y570000D02*
X1160000Y577500D01*
X1119000Y480000D02*
X1126500Y472500D01*
X1176500D02*
X1184000Y480000D01*
X1041500Y527500D02*
X1089000Y480000D01*
X942500Y535000D02*
X950000Y527500D01*
X1214000Y577500D02*
X1221500Y570000D01*
X824000Y535000D02*
X830500Y528500D01*
X899000D02*
X905500Y535000D01*
X884000Y680000D02*
X891500Y672500D01*
X947500D02*
X955000Y665000D01*
X1151500Y612500D02*
X1225000Y686000D01*
X1116500Y620000D02*
X1124000Y612500D01*
X1121500Y750000D02*
X1131500Y740000D01*
X1146500Y595000D02*
X1161500Y610000D01*
X889000Y690000D02*
X899000Y680000D01*
X884000Y665000D02*
X891500Y672500D01*
X1365500Y686000D02*
X1386500Y665000D01*
X1091500Y850000D02*
X1101500Y840000D01*
X654000Y695000D02*
X659000Y690000D01*
X1126500Y472500D02*
X1176500D01*
X873000Y502500D02*
X971500D01*
X1111500Y480000D02*
X1119000D01*
X1184000D02*
X1191500D01*
X1089000D02*
X1111500D01*
X830500Y528500D02*
X899000D01*
X950000Y527500D02*
X1041500D01*
X924000Y535000D02*
X942500D01*
X819000D02*
X824000D01*
X905500D02*
X924000D01*
X1141500Y570000D02*
X1152500D01*
X1141500Y595000D02*
X1146500D01*
X1160000Y577500D02*
X1214000D01*
X1111500Y620000D02*
X1116500D01*
X1386500Y665000D02*
X1432000D01*
X879000D02*
X884000D01*
X955000D02*
X984000D01*
X1432000D02*
X1506500D01*
X654000Y695000D02*
Y704000D01*
X1225000Y686000D02*
X1365500D01*
X884000Y690000D02*
X889000D01*
X899000Y680000D02*
X954000D01*
X831500D02*
X884000D01*
X891500Y672500D02*
X947500D01*
X1151500Y710000D02*
X1161500D01*
X1141500D02*
X1151500D01*
X1111500Y750000D02*
X1121500D01*
X831500Y677500D02*
Y680000D01*
X1111500Y840000D02*
X1141500D01*
X1101500D02*
X1111500D01*
X879000Y655000D02*
Y665000D01*
X884000Y690000D02*
Y715000D01*
X954000Y705000D02*
Y715000D01*
X984000Y485000D02*
Y490000D01*
X1141500Y710000D02*
Y725000D01*
Y570000D02*
Y595000D01*
X1131500Y725000D02*
Y740000D01*
Y595000D02*
Y612500D01*
X1116500Y430000D02*
Y447500D01*
X621000Y570000D02*
X627500D01*
X631500D01*
X1141500Y840000D02*
X1146500D01*
X1151500D01*
X1124000Y612500D02*
X1131500D01*
X1151500D01*
X1121500Y405000D02*
X1176500D01*
X975500Y878500D02*
Y885000D01*
X1036500Y862500D02*
Y872000D01*
Y872500D01*
X1138000Y878500D02*
Y885000D01*
X1144500D01*
X825500Y455000D02*
X873000Y502500D01*
X1091500Y430000D02*
Y456500D01*
X984000Y485000D02*
X1057500D01*
X1085000Y457500D01*
X1091500D01*
X1131500D02*
X1156500D01*
X1527500Y735000D02*
Y741000D01*
X1467500Y735000D02*
Y741000D01*
X1337500Y735000D02*
X1397500D01*
Y741000D01*
X1277500Y735000D02*
X1337500D01*
Y741000D01*
X1217500Y735000D02*
X1277500D01*
Y741000D01*
X1217500Y735000D02*
Y741000D01*
X1397500Y735000D02*
X1467500D01*
X1527500D01*
X1091500Y405000D02*
X1097000D01*
X1116500D02*
X1121500D01*
X981500D02*
X1086500D01*
X1091500D01*
X1097000D02*
X1113000D01*
X1116500D01*
X1565000Y665500D02*
X1571500Y672000D01*
X1560000Y665000D02*
X1565000D01*
X1571000D01*
X1571500Y665500D02*
Y672000D01*
Y735000D01*
X1565000Y665000D02*
X1571500Y658500D01*
Y462500D02*
Y658500D01*
Y665500D01*
X1176500Y405000D02*
Y427500D01*
Y437500D01*
X1156500D02*
Y457500D01*
X1116500Y447500D02*
X1126500Y457500D01*
X1131500D01*
D12*
X634500Y770000D02*
D03*
X659100D02*
D03*
D13*
X649300Y748800D02*
D03*
D14*
X682000Y827500D02*
D03*
X700000D02*
D03*
D15*
X680000Y750000D02*
D03*
X720000D02*
D03*
Y762500D02*
D03*
X680000D02*
D03*
Y775000D02*
D03*
X720000D02*
D03*
X854000Y430000D02*
D03*
X844000D02*
D03*
X834000D02*
D03*
X720000Y737500D02*
D03*
X680000D02*
D03*
D16*
X1560000Y675000D02*
D03*
Y655000D02*
D03*
Y645000D02*
D03*
Y665000D02*
D03*
Y685000D02*
D03*
X884000Y870500D02*
D03*
Y860500D02*
D03*
D17*
X1560000Y635000D02*
D03*
D18*
X1056000Y455000D02*
D03*
X1036000D02*
D03*
X1046000Y435000D02*
D03*
X914000Y455000D02*
D03*
Y475000D02*
D03*
D19*
X917500Y840000D02*
D03*
D20*
Y850000D02*
D03*
D21*
X640000Y812500D02*
D03*
Y832500D02*
D03*
D22*
X824000Y455000D02*
D03*
Y495000D02*
D03*
X811500Y455000D02*
D03*
Y495000D02*
D03*
X799000Y455000D02*
D03*
Y495000D02*
D03*
X786500Y455000D02*
D03*
Y495000D02*
D03*
X774000Y455000D02*
D03*
Y495000D02*
D03*
X1451500Y630000D02*
D03*
X1491500D02*
D03*
X1002500Y435000D02*
D03*
Y475000D02*
D03*
X1491500Y640500D02*
D03*
X1451500D02*
D03*
X929000Y445000D02*
D03*
Y485000D02*
D03*
X941500Y445000D02*
D03*
Y485000D02*
D03*
X1015000Y435000D02*
D03*
Y475000D02*
D03*
X1131500Y457500D02*
D03*
X1091500D02*
D03*
X1432000Y692000D02*
D03*
Y678000D02*
D03*
X1439000Y685000D02*
D03*
X1451000D02*
D03*
X1491000D02*
D03*
X884000Y847500D02*
D03*
Y807500D02*
D03*
X1177500Y876000D02*
D03*
Y866000D02*
D03*
Y856000D02*
D03*
Y806000D02*
D03*
Y816000D02*
D03*
Y826000D02*
D03*
Y836000D02*
D03*
Y846000D02*
D03*
Y795000D02*
D03*
Y785000D02*
D03*
Y775000D02*
D03*
Y725000D02*
D03*
Y735000D02*
D03*
Y745000D02*
D03*
Y755000D02*
D03*
Y765000D02*
D03*
X1506500Y665000D02*
D03*
Y655000D02*
D03*
X1141500Y725000D02*
D03*
X1131500D02*
D03*
X815000Y760000D02*
D03*
Y750000D02*
D03*
X896500Y455000D02*
D03*
X886500D02*
D03*
Y475000D02*
D03*
X896500D02*
D03*
X1002500Y420000D02*
D03*
X1012500D02*
D03*
X1251500Y515000D02*
D03*
X1241500D02*
D03*
X1141500Y595000D02*
D03*
X1131500D02*
D03*
X884000Y690000D02*
D03*
Y680000D02*
D03*
X1091500Y430000D02*
D03*
Y420000D02*
D03*
X1076500Y872000D02*
D03*
X1066500D02*
D03*
X1056500D02*
D03*
X1046500D02*
D03*
X1036500D02*
D03*
X1026500D02*
D03*
X1016500D02*
D03*
X1006500D02*
D03*
X1241500Y495000D02*
D03*
X1251500D02*
D03*
X1116500Y420000D02*
D03*
Y430000D02*
D03*
X1146500Y862000D02*
D03*
X1136500D02*
D03*
X975500Y835000D02*
D03*
X985500D02*
D03*
X661500Y720000D02*
D03*
Y710000D02*
D03*
X632000Y670000D02*
D03*
Y660000D02*
D03*
Y650000D02*
D03*
Y640000D02*
D03*
Y630000D02*
D03*
Y620000D02*
D03*
Y610000D02*
D03*
Y600000D02*
D03*
Y590000D02*
D03*
Y580000D02*
D03*
Y570000D02*
D03*
Y560000D02*
D03*
Y550000D02*
D03*
Y540000D02*
D03*
Y530000D02*
D03*
Y520000D02*
D03*
Y510000D02*
D03*
Y500000D02*
D03*
Y490000D02*
D03*
Y480000D02*
D03*
X1451500Y655000D02*
D03*
X1491500D02*
D03*
X1552500Y705000D02*
D03*
Y745000D02*
D03*
X1534500Y748000D02*
D03*
X1527500Y741000D02*
D03*
Y755000D02*
D03*
X1492500Y745000D02*
D03*
Y705000D02*
D03*
X1467500Y755000D02*
D03*
Y741000D02*
D03*
X1474500Y748000D02*
D03*
X1422500Y745000D02*
D03*
Y705000D02*
D03*
X1404500Y748000D02*
D03*
X1397500Y741000D02*
D03*
Y755000D02*
D03*
X1362500Y745000D02*
D03*
Y705000D02*
D03*
X1337500Y755000D02*
D03*
Y741000D02*
D03*
X1344500Y748000D02*
D03*
X1302500Y745000D02*
D03*
Y705000D02*
D03*
X1284500Y748000D02*
D03*
X1277500Y741000D02*
D03*
Y755000D02*
D03*
X1242500Y745000D02*
D03*
Y705000D02*
D03*
X1217500Y755000D02*
D03*
Y741000D02*
D03*
X1224500Y748000D02*
D03*
D23*
X1396500Y680000D02*
D03*
Y655000D02*
D03*
D24*
X686500Y675000D02*
D03*
X1191500Y570000D02*
D03*
X1111500D02*
D03*
Y710000D02*
D03*
Y840000D02*
D03*
D25*
X686500Y665000D02*
D03*
Y655000D02*
D03*
Y645000D02*
D03*
Y635000D02*
D03*
Y625000D02*
D03*
Y615000D02*
D03*
Y605000D02*
D03*
Y595000D02*
D03*
Y585000D02*
D03*
Y575000D02*
D03*
Y565000D02*
D03*
Y555000D02*
D03*
Y545000D02*
D03*
Y535000D02*
D03*
Y525000D02*
D03*
Y515000D02*
D03*
Y505000D02*
D03*
Y495000D02*
D03*
Y485000D02*
D03*
X746500D02*
D03*
Y495000D02*
D03*
Y505000D02*
D03*
Y515000D02*
D03*
Y525000D02*
D03*
Y535000D02*
D03*
Y545000D02*
D03*
Y555000D02*
D03*
Y565000D02*
D03*
Y575000D02*
D03*
Y585000D02*
D03*
Y595000D02*
D03*
Y605000D02*
D03*
Y615000D02*
D03*
Y625000D02*
D03*
Y635000D02*
D03*
Y645000D02*
D03*
Y655000D02*
D03*
Y665000D02*
D03*
Y675000D02*
D03*
X924000Y655000D02*
D03*
Y645000D02*
D03*
Y635000D02*
D03*
Y625000D02*
D03*
Y615000D02*
D03*
Y605000D02*
D03*
Y595000D02*
D03*
Y585000D02*
D03*
Y575000D02*
D03*
Y565000D02*
D03*
Y555000D02*
D03*
Y545000D02*
D03*
Y535000D02*
D03*
X984000D02*
D03*
Y545000D02*
D03*
Y555000D02*
D03*
Y565000D02*
D03*
Y575000D02*
D03*
Y585000D02*
D03*
Y595000D02*
D03*
Y605000D02*
D03*
Y615000D02*
D03*
Y625000D02*
D03*
Y635000D02*
D03*
Y645000D02*
D03*
Y655000D02*
D03*
Y665000D02*
D03*
X879000D02*
D03*
Y655000D02*
D03*
Y645000D02*
D03*
Y635000D02*
D03*
Y625000D02*
D03*
Y615000D02*
D03*
Y605000D02*
D03*
Y595000D02*
D03*
Y585000D02*
D03*
Y575000D02*
D03*
Y565000D02*
D03*
Y555000D02*
D03*
Y545000D02*
D03*
Y535000D02*
D03*
X819000D02*
D03*
Y545000D02*
D03*
Y555000D02*
D03*
Y565000D02*
D03*
Y575000D02*
D03*
Y585000D02*
D03*
Y595000D02*
D03*
Y605000D02*
D03*
Y615000D02*
D03*
Y625000D02*
D03*
Y635000D02*
D03*
Y645000D02*
D03*
Y655000D02*
D03*
X1191500Y560000D02*
D03*
Y550000D02*
D03*
Y540000D02*
D03*
Y530000D02*
D03*
Y520000D02*
D03*
Y510000D02*
D03*
Y500000D02*
D03*
Y490000D02*
D03*
Y480000D02*
D03*
X1221500D02*
D03*
Y490000D02*
D03*
Y500000D02*
D03*
Y510000D02*
D03*
Y520000D02*
D03*
Y530000D02*
D03*
Y540000D02*
D03*
Y550000D02*
D03*
Y560000D02*
D03*
Y570000D02*
D03*
X1111500Y560000D02*
D03*
Y550000D02*
D03*
Y540000D02*
D03*
Y530000D02*
D03*
Y520000D02*
D03*
Y510000D02*
D03*
Y500000D02*
D03*
Y490000D02*
D03*
Y480000D02*
D03*
X1141500D02*
D03*
Y490000D02*
D03*
Y500000D02*
D03*
Y510000D02*
D03*
Y520000D02*
D03*
Y530000D02*
D03*
Y540000D02*
D03*
Y550000D02*
D03*
Y560000D02*
D03*
Y570000D02*
D03*
X1111500Y700000D02*
D03*
Y690000D02*
D03*
Y680000D02*
D03*
Y670000D02*
D03*
Y660000D02*
D03*
Y650000D02*
D03*
Y640000D02*
D03*
Y630000D02*
D03*
Y620000D02*
D03*
X1141500D02*
D03*
Y630000D02*
D03*
Y640000D02*
D03*
Y650000D02*
D03*
Y660000D02*
D03*
Y670000D02*
D03*
Y680000D02*
D03*
Y690000D02*
D03*
Y700000D02*
D03*
Y710000D02*
D03*
X1111500Y830000D02*
D03*
Y820000D02*
D03*
Y810000D02*
D03*
Y800000D02*
D03*
Y790000D02*
D03*
Y780000D02*
D03*
Y770000D02*
D03*
Y760000D02*
D03*
Y750000D02*
D03*
X1141500D02*
D03*
Y760000D02*
D03*
Y770000D02*
D03*
Y780000D02*
D03*
Y790000D02*
D03*
Y800000D02*
D03*
Y810000D02*
D03*
Y820000D02*
D03*
Y830000D02*
D03*
Y840000D02*
D03*
X984000Y465000D02*
D03*
Y455000D02*
D03*
X884000Y755000D02*
D03*
Y765000D02*
D03*
X954000Y755000D02*
D03*
Y765000D02*
D03*
D26*
X924000Y665000D02*
D03*
X819000D02*
D03*
D27*
X629000Y402500D02*
D03*
Y875000D02*
D03*
X1564000D02*
D03*
Y402500D02*
D03*
D28*
X984000Y485000D02*
D03*
Y475000D02*
D03*
Y445000D02*
D03*
Y435000D02*
D03*
Y425000D02*
D03*
X954000D02*
D03*
Y435000D02*
D03*
Y445000D02*
D03*
Y455000D02*
D03*
Y465000D02*
D03*
Y475000D02*
D03*
X914000Y785000D02*
D03*
Y775000D02*
D03*
Y765000D02*
D03*
Y755000D02*
D03*
Y745000D02*
D03*
Y735000D02*
D03*
Y725000D02*
D03*
Y715000D02*
D03*
X884000D02*
D03*
Y725000D02*
D03*
Y735000D02*
D03*
Y745000D02*
D03*
Y775000D02*
D03*
X984000Y785000D02*
D03*
Y775000D02*
D03*
Y765000D02*
D03*
Y755000D02*
D03*
Y745000D02*
D03*
Y735000D02*
D03*
Y725000D02*
D03*
Y715000D02*
D03*
X954000D02*
D03*
Y725000D02*
D03*
Y735000D02*
D03*
Y745000D02*
D03*
Y775000D02*
D03*
D29*
Y485000D02*
D03*
X884000Y785000D02*
D03*
X954000D02*
D03*
D30*
X774000Y765000D02*
D03*
X784000D02*
D03*
X794000D02*
D03*
D31*
X784000Y835000D02*
D03*
D32*
X1006500Y862000D02*
D03*
D33*
X1076500D02*
D03*
X1066500D02*
D03*
X1056500D02*
D03*
X1046500D02*
D03*
X1036500D02*
D03*
X1026500D02*
D03*
X1016500D02*
D03*
D34*
X642000Y670000D02*
D03*
Y660000D02*
D03*
Y650000D02*
D03*
Y640000D02*
D03*
Y630000D02*
D03*
Y620000D02*
D03*
Y610000D02*
D03*
Y600000D02*
D03*
Y590000D02*
D03*
Y580000D02*
D03*
Y570000D02*
D03*
Y560000D02*
D03*
Y550000D02*
D03*
Y540000D02*
D03*
Y530000D02*
D03*
Y520000D02*
D03*
Y510000D02*
D03*
Y500000D02*
D03*
Y490000D02*
D03*
D35*
Y480000D02*
D03*
D36*
X1197500Y835000D02*
D03*
X1217500Y775000D02*
D03*
X1207500D02*
D03*
X1197500D02*
D03*
X1257500D02*
D03*
X1267500D02*
D03*
X1277500D02*
D03*
X1257500Y835000D02*
D03*
X1317500D02*
D03*
X1337500Y775000D02*
D03*
X1327500D02*
D03*
X1317500D02*
D03*
X1377500D02*
D03*
X1387500D02*
D03*
X1397500D02*
D03*
X1377500Y835000D02*
D03*
X1447500D02*
D03*
X1467500Y775000D02*
D03*
X1457500D02*
D03*
X1447500D02*
D03*
X1507500D02*
D03*
X1517500D02*
D03*
X1527500D02*
D03*
X1507500Y835000D02*
D03*
D37*
X1207500D02*
D03*
X1217500D02*
D03*
X1227500D02*
D03*
X1237500D02*
D03*
Y775000D02*
D03*
X1227500D02*
D03*
X1287500D02*
D03*
X1297500D02*
D03*
Y835000D02*
D03*
X1287500D02*
D03*
X1277500D02*
D03*
X1267500D02*
D03*
X1327500D02*
D03*
X1337500D02*
D03*
X1347500D02*
D03*
X1357500D02*
D03*
Y775000D02*
D03*
X1347500D02*
D03*
X1407500D02*
D03*
X1417500D02*
D03*
Y835000D02*
D03*
X1407500D02*
D03*
X1397500D02*
D03*
X1387500D02*
D03*
X1457500D02*
D03*
X1467500D02*
D03*
X1477500D02*
D03*
X1487500D02*
D03*
Y775000D02*
D03*
X1477500D02*
D03*
X1537500D02*
D03*
X1547500D02*
D03*
Y835000D02*
D03*
X1537500D02*
D03*
X1527500D02*
D03*
X1517500D02*
D03*
D38*
X1289000Y587500D02*
D03*
X1309000D02*
D03*
Y607500D02*
D03*
X1289000D02*
D03*
Y577500D02*
D03*
X1309000D02*
D03*
X1359000D02*
D03*
X1339000D02*
D03*
Y607500D02*
D03*
X1359000D02*
D03*
Y587500D02*
D03*
X1339000D02*
D03*
X1389000D02*
D03*
X1409000D02*
D03*
Y607500D02*
D03*
X1389000D02*
D03*
Y577500D02*
D03*
X1409000D02*
D03*
X1459000D02*
D03*
X1439000D02*
D03*
Y607500D02*
D03*
X1459000D02*
D03*
Y587500D02*
D03*
X1439000D02*
D03*
X1489000D02*
D03*
X1509000D02*
D03*
Y607500D02*
D03*
X1489000D02*
D03*
Y577500D02*
D03*
X1509000D02*
D03*
X1309000Y527500D02*
D03*
X1289000D02*
D03*
Y557500D02*
D03*
X1309000D02*
D03*
Y537500D02*
D03*
X1289000D02*
D03*
X1339000D02*
D03*
X1359000D02*
D03*
Y557500D02*
D03*
X1339000D02*
D03*
Y527500D02*
D03*
X1359000D02*
D03*
X1409000D02*
D03*
X1389000D02*
D03*
Y557500D02*
D03*
X1409000D02*
D03*
Y537500D02*
D03*
X1389000D02*
D03*
X1439000D02*
D03*
X1459000D02*
D03*
Y557500D02*
D03*
X1439000D02*
D03*
Y527500D02*
D03*
X1459000D02*
D03*
X1509000D02*
D03*
X1489000D02*
D03*
Y557500D02*
D03*
X1509000D02*
D03*
Y537500D02*
D03*
X1489000D02*
D03*
X1289000Y487500D02*
D03*
X1309000D02*
D03*
Y507500D02*
D03*
X1289000D02*
D03*
Y477500D02*
D03*
X1309000D02*
D03*
X1359000D02*
D03*
X1339000D02*
D03*
Y507500D02*
D03*
X1359000D02*
D03*
Y487500D02*
D03*
X1339000D02*
D03*
X1389000D02*
D03*
X1409000D02*
D03*
Y507500D02*
D03*
X1389000D02*
D03*
Y477500D02*
D03*
X1409000D02*
D03*
X1459000D02*
D03*
X1439000D02*
D03*
Y507500D02*
D03*
X1459000D02*
D03*
Y487500D02*
D03*
X1439000D02*
D03*
X1489000D02*
D03*
X1509000D02*
D03*
Y507500D02*
D03*
X1489000D02*
D03*
Y477500D02*
D03*
X1509000D02*
D03*
X1309000Y427500D02*
D03*
X1289000D02*
D03*
Y457500D02*
D03*
X1309000D02*
D03*
Y437500D02*
D03*
X1289000D02*
D03*
X1339000D02*
D03*
X1359000D02*
D03*
Y457500D02*
D03*
X1339000D02*
D03*
Y427500D02*
D03*
X1359000D02*
D03*
X1409000D02*
D03*
X1389000D02*
D03*
Y457500D02*
D03*
X1409000D02*
D03*
Y437500D02*
D03*
X1389000D02*
D03*
X1439000D02*
D03*
X1459000D02*
D03*
Y457500D02*
D03*
X1439000D02*
D03*
Y427500D02*
D03*
X1459000D02*
D03*
X1509000D02*
D03*
X1489000D02*
D03*
Y457500D02*
D03*
X1509000D02*
D03*
Y437500D02*
D03*
X1489000D02*
D03*
X1176500Y427500D02*
D03*
X1156500D02*
D03*
Y457500D02*
D03*
X1176500D02*
D03*
Y437500D02*
D03*
X1156500D02*
D03*
D39*
X1547500Y762500D02*
D03*
X666500Y700000D02*
D03*
Y495000D02*
D03*
X659000Y560000D02*
D03*
Y690000D02*
D03*
X674000Y625000D02*
D03*
Y460000D02*
D03*
X764000Y715000D02*
D03*
Y650000D02*
D03*
Y600000D02*
D03*
Y547500D02*
D03*
X756500Y722500D02*
D03*
Y660000D02*
D03*
Y580000D02*
D03*
Y560000D02*
D03*
X789000Y609500D02*
D03*
Y528500D02*
D03*
X794000Y641500D02*
D03*
Y655000D02*
D03*
X786500Y662500D02*
D03*
Y627500D02*
D03*
X784000Y690000D02*
D03*
Y755000D02*
D03*
X779000Y675000D02*
D03*
Y600500D02*
D03*
Y560000D02*
D03*
Y530000D02*
D03*
Y589000D02*
D03*
Y569000D02*
D03*
X771500Y707500D02*
D03*
Y640000D02*
D03*
Y622500D02*
D03*
Y536000D02*
D03*
X831500Y755000D02*
D03*
Y680000D02*
D03*
X809000Y690000D02*
D03*
X801500Y672500D02*
D03*
Y621000D02*
D03*
X894500Y590000D02*
D03*
Y698500D02*
D03*
X912500Y515000D02*
D03*
Y652500D02*
D03*
X905000Y590000D02*
D03*
Y704500D02*
D03*
X940500Y522000D02*
D03*
X954000Y680000D02*
D03*
Y705000D02*
D03*
X1014000Y582500D02*
D03*
Y562500D02*
D03*
X1006500Y575000D02*
D03*
Y595000D02*
D03*
X1001500Y727500D02*
D03*
Y784500D02*
D03*
X996500Y625000D02*
D03*
Y514000D02*
D03*
X1039000Y515000D02*
D03*
Y642500D02*
D03*
X1046500Y537500D02*
D03*
Y632500D02*
D03*
Y777500D02*
D03*
Y747500D02*
D03*
X1054000Y785000D02*
D03*
Y740000D02*
D03*
Y547500D02*
D03*
Y640000D02*
D03*
X1031500Y540000D02*
D03*
Y559000D02*
D03*
X1024000Y572500D02*
D03*
Y552500D02*
D03*
X1084000Y815000D02*
D03*
Y587500D02*
D03*
Y680000D02*
D03*
Y740000D02*
D03*
X1069000Y567500D02*
D03*
Y660000D02*
D03*
Y740000D02*
D03*
Y800000D02*
D03*
X1076500Y807500D02*
D03*
Y577500D02*
D03*
Y670000D02*
D03*
Y747500D02*
D03*
X1061500Y557500D02*
D03*
Y650000D02*
D03*
Y747500D02*
D03*
Y792500D02*
D03*
X1099000Y607500D02*
D03*
Y700000D02*
D03*
Y740000D02*
D03*
Y827500D02*
D03*
X1091500Y850000D02*
D03*
Y597500D02*
D03*
Y690000D02*
D03*
Y747500D02*
D03*
Y822500D02*
D03*
X1151500Y710000D02*
D03*
Y840000D02*
D03*
X1164000Y595000D02*
D03*
Y545000D02*
D03*
X1179000Y505000D02*
D03*
Y531500D02*
D03*
X1161500Y710000D02*
D03*
Y610000D02*
D03*
X1154000Y585000D02*
D03*
Y532500D02*
D03*
X1166500Y826000D02*
D03*
Y856000D02*
D03*
X994500Y850000D02*
D03*
X1562500Y830000D02*
D03*
D40*
X659100Y770000D02*
X680000D01*
X994500Y850500D02*
X1006500Y862500D01*
X631500Y813500D02*
X666000D01*
X700500Y762000D02*
X720000D01*
X727500Y750000D02*
X733000Y755500D01*
X720000Y750000D02*
X727500D01*
X733000Y755500D02*
Y764500D01*
X740500Y720000D02*
X763000Y742500D01*
X661500Y720000D02*
X740500D01*
X634000Y732500D02*
X675000D01*
X621500Y745000D02*
X634000Y732500D01*
X675000D02*
X680000Y737500D01*
X727500Y775000D02*
X733000Y769500D01*
X720000Y775000D02*
X727500D01*
X700000Y761500D02*
Y792500D01*
Y746500D02*
Y761500D01*
X700500Y762000D01*
X709000Y737500D02*
X720000D01*
X700000Y746500D02*
X709000Y737500D01*
X680000Y770000D02*
Y775000D01*
Y762500D02*
Y770000D01*
Y737500D02*
Y750000D01*
X720000Y775000D02*
Y779500D01*
X712750Y786750D02*
Y808250D01*
Y786750D02*
X720000Y779500D01*
X733000Y764500D02*
Y769500D01*
Y764500D02*
X733500Y765000D01*
X763000Y742500D02*
X786500D01*
X733500Y765000D02*
X774000D01*
X704000Y817000D02*
X712750Y808250D01*
X704000Y817000D02*
Y823500D01*
X626500Y770000D02*
X634500D01*
X682000Y810500D02*
Y827500D01*
Y810500D02*
X700000Y792500D01*
Y827500D02*
X704000Y823500D01*
X815000Y760000D02*
Y780000D01*
X826500Y750000D02*
X831500Y755000D01*
X815000Y750000D02*
X826500D01*
X794000D02*
X815000D01*
X914000Y797500D02*
X925000D01*
X938000Y810500D01*
Y844500D01*
Y810500D02*
X946000Y802500D01*
X979000D01*
X984000Y797500D01*
X932500Y850000D02*
X938000Y844500D01*
X984000Y797500D02*
X990000Y803500D01*
Y830500D01*
X985500Y835000D02*
X990000Y830500D01*
X985500Y835000D02*
X994500Y844000D01*
Y850000D01*
X897500Y845000D02*
X902500Y840000D01*
X917500D01*
Y850000D02*
X932500D01*
X650000Y842500D02*
X692500D01*
X640000Y832500D02*
X650000Y842500D01*
X824000Y455000D02*
X825500D01*
X786500D02*
X799000D01*
X774000D02*
X786500D01*
X719500D02*
X774000D01*
X644000Y720000D02*
X661500D01*
X705500Y469000D02*
X719500Y455000D01*
X786500Y742500D02*
X794000Y750000D01*
X831500Y755000D02*
X874000Y797500D01*
X621000Y472500D02*
X624500Y469000D01*
X624000Y821000D02*
X631500Y813500D01*
X624000Y847500D02*
X631500Y855000D01*
X692500Y842500D02*
X700000Y835000D01*
X666000Y813500D02*
X680000Y827500D01*
X624500Y469000D02*
X705500D01*
X621500Y745000D02*
Y765000D01*
X624000Y821000D02*
Y847500D01*
X809000Y690000D02*
X884000D01*
X659000D02*
X784000D01*
X809000D01*
X794000Y750000D02*
Y765000D01*
X784000Y755000D02*
Y765000D01*
X631500Y855000D02*
X734000D01*
X700000Y827500D02*
Y835000D01*
X621000Y472500D02*
Y563500D01*
X914000Y785000D02*
Y797500D01*
X984000Y786000D02*
Y797500D01*
X784000Y765000D02*
Y778500D01*
Y785000D01*
X680000Y827500D02*
X682000D01*
X975500Y885000D02*
X982000D01*
X1036500Y872500D02*
Y878500D01*
Y885000D02*
X1043000D01*
X1138000D01*
X621500Y765000D02*
X626500Y770000D01*
X621000Y697000D02*
X644000Y720000D01*
X799000Y455000D02*
X811500D01*
X824000D01*
X994500Y850000D02*
Y850500D01*
X1036500Y878500D02*
Y885000D01*
X982000D02*
X1036500D01*
X884000Y797500D02*
Y807500D01*
X874000Y797500D02*
X884000D01*
X914000D01*
X884000Y847500D02*
Y860500D01*
X621000Y563500D02*
Y570000D01*
Y576000D01*
Y697000D01*
X897500Y845000D02*
Y880000D01*
Y885000D01*
X902500D01*
X975500D01*
X892500D02*
X897500D01*
X884000Y880500D02*
X888500Y885000D01*
X884000Y870500D02*
Y880500D01*
Y885000D01*
X888500D01*
X892000D01*
X879500D02*
X884000Y880500D01*
X834000Y885000D02*
X879500D01*
X884000D01*
D41*
X631500Y620000D02*
X636500Y625000D01*
X631500Y570000D02*
X636500Y575000D01*
X1250000Y495000D02*
X1251500Y496500D01*
X1395500Y405000D02*
X1409000Y418500D01*
X1444000Y399500D02*
X1459000Y414500D01*
X1560000Y685000D02*
Y692500D01*
X1562500Y695000D01*
X1051500Y867500D02*
X1056500Y872500D01*
X631500Y560000D02*
X636500Y565000D01*
X631500Y590000D02*
X636500Y595000D01*
X631500Y580000D02*
X636500Y585000D01*
X631500Y550000D02*
X636500Y555000D01*
X1061500Y867500D02*
X1066500Y872500D01*
X631500Y530000D02*
X636500Y535000D01*
X631500Y610000D02*
X636500Y615000D01*
X1071500Y867500D02*
X1076500Y872500D01*
X631500Y540000D02*
X636500Y545000D01*
X1041500Y867500D02*
X1046500Y872500D01*
X631500Y600000D02*
X636500Y605000D01*
X641500Y479000D02*
X711500D01*
X631500Y660000D02*
X636500Y665000D01*
X630500Y670000D02*
X637500Y677000D01*
X631500Y520000D02*
X636500Y525000D01*
X631500Y510000D02*
X636500Y515000D01*
X976500Y425000D02*
X983967Y425498D01*
X631500Y630000D02*
X636500Y635000D01*
X631500Y640000D02*
X636500Y645000D01*
X631500Y490000D02*
X636500Y495000D01*
X1026500Y872500D02*
X1031500Y867500D01*
X631500Y650000D02*
X636500Y655000D01*
X631500Y500000D02*
X636500Y505000D01*
X1016500Y872500D02*
X1021500Y867500D01*
X631500Y480000D02*
X636500Y485000D01*
X1562500Y695000D02*
Y714000D01*
X1177500Y725000D02*
X1182500D01*
X1207500Y750000D01*
X1185000Y745000D02*
X1197500Y757500D01*
X1177500Y745000D02*
X1185000D01*
X1198500Y815000D02*
X1202500D01*
X1189500Y806000D02*
X1198500Y815000D01*
X1177500Y806000D02*
X1189500D01*
X1210000Y810000D02*
X1216500D01*
X1185000Y785000D02*
X1210000Y810000D01*
X1191000Y783500D02*
X1212500Y805000D01*
X1191000Y773000D02*
Y783500D01*
X1183000Y765000D02*
X1191000Y773000D01*
X1177500Y765000D02*
X1183000D01*
X1227500Y826500D02*
Y835000D01*
X1223000Y822000D02*
X1227500Y826500D01*
X1191000Y822000D02*
X1223000D01*
X1187000Y826000D02*
X1191000Y822000D01*
X1177500Y826000D02*
X1187000D01*
X1547500Y762500D02*
Y775000D01*
X1537500Y762500D02*
Y775000D01*
X1547500D02*
Y782500D01*
X854000Y465000D02*
X858750Y469750D01*
X854000Y430000D02*
Y465000D01*
X834000Y453500D02*
X845500Y465000D01*
X834000Y430000D02*
Y453500D01*
X1014000Y455000D02*
X1036000D01*
X1036500D01*
X1176500Y725000D02*
X1177500D01*
X1176500Y745000D02*
X1177500D01*
Y785000D02*
X1185000D01*
X1176500D02*
X1177500D01*
X1176500Y765000D02*
X1177500D01*
X1176500Y866000D02*
X1177500D01*
X1176500Y826000D02*
X1177500D01*
X983967Y425498D02*
X984000Y425500D01*
X983967Y425498D02*
X983967D01*
X1132000Y734500D02*
X1137000Y739500D01*
X1001500Y784500D02*
X1011500Y794500D01*
X682000Y677000D02*
X684000Y675000D01*
X1481500Y600000D02*
X1489000Y607500D01*
X1481500Y550000D02*
X1489000Y557500D01*
X1481500Y500000D02*
X1489000Y507500D01*
X871500Y720000D02*
X876500Y715000D01*
X959000Y445000D02*
X964000Y440000D01*
X959000Y455000D02*
X964000Y460000D01*
X1501000Y445500D02*
X1509000Y437500D01*
X1309000D02*
X1317000Y445500D01*
X941500Y460000D02*
X946500Y465000D01*
X924000Y475000D02*
X929000Y480000D01*
X1099000Y465000D02*
X1116500Y447500D01*
X821500Y700000D02*
X876500Y755000D01*
X921500Y455000D02*
X941500Y475000D01*
X814000Y722500D02*
X876500Y785000D01*
X816500Y715000D02*
X876500Y775000D01*
X819000Y707500D02*
X876500Y765000D01*
X894000Y772500D02*
X906500Y785000D01*
X1014000Y727500D02*
X1039000Y702500D01*
Y515000D02*
X1089000Y465000D01*
X1121500Y570000D02*
X1131500Y560000D01*
X1146000Y520000D02*
X1154000Y528000D01*
X1231500Y505000D02*
X1241500Y495000D01*
X1226500Y490000D02*
X1236500Y480000D01*
X1226500D02*
X1231500Y475000D01*
X1396500Y680000D02*
X1408500Y692000D01*
X891500Y735000D02*
X894000Y737500D01*
X871500Y740000D02*
X876500Y745000D01*
X894500Y718000D02*
X899000Y722500D01*
Y767500D02*
X906500Y775000D01*
X905000Y763500D02*
X906500Y765000D01*
X1351000Y595500D02*
X1359000Y587500D01*
X1401000Y545500D02*
X1409000Y537500D01*
X1451000Y495500D02*
X1459000Y487500D01*
X1159000Y540000D02*
X1164000Y545000D01*
X1481500Y450000D02*
X1489000Y457500D01*
X1309000Y587500D02*
X1317000Y595500D01*
X1309000Y487500D02*
X1317000Y495500D01*
X1309000Y537500D02*
X1317000Y545500D01*
X943500Y738000D02*
X950500Y745000D01*
X959500Y735000D02*
X963000Y738500D01*
X989000Y665000D02*
X992500Y661500D01*
X989000Y645000D02*
X992500Y648500D01*
X961500Y425000D02*
X964000Y427500D01*
X1152000Y830000D02*
X1159000Y837000D01*
X1161500Y790000D02*
X1166500Y795000D01*
X1161500Y760000D02*
X1166500Y755000D01*
X1159000Y867500D02*
X1167500Y876000D01*
X975500Y878500D02*
X982000Y885000D01*
X969500Y884500D02*
X975500Y878500D01*
X1036500D02*
X1043000Y885000D01*
X1031000Y884000D02*
X1036500Y878500D01*
X1432500Y669500D02*
X1436500Y665500D01*
X954000Y445000D02*
X959000D01*
X984000D02*
X994000D01*
X1284000Y437500D02*
X1289000D01*
X976500Y465000D02*
X984000D01*
X946500D02*
X954000D01*
X1089000D02*
X1099000D01*
X896500Y475000D02*
X914000D01*
X924000D01*
X984000D02*
X990500D01*
X984000Y455000D02*
X994000D01*
X896500D02*
X914000D01*
X921500D01*
X1191500Y490000D02*
X1201500D01*
X666500Y495000D02*
X686500D01*
X1101500Y490000D02*
X1111500D01*
X1221500D02*
X1226500D01*
X1126500D02*
X1141500D01*
X650000Y495000D02*
X666500D01*
X1179000Y505000D02*
X1184500D01*
X650000D02*
X686500D01*
X1111500Y500000D02*
X1124000D01*
X1101500Y510000D02*
X1111500D01*
X1141500Y500000D02*
X1155000D01*
X941500Y485000D02*
X954000D01*
X1141500Y480000D02*
X1154000D01*
X650000Y485000D02*
X686500D01*
X650000Y525000D02*
X686500D01*
X1141500Y540000D02*
X1159000D01*
X650000Y535000D02*
X686500D01*
X1126500Y530000D02*
X1141500D01*
X1101500D02*
X1111500D01*
X1141500Y520000D02*
X1146000D01*
X1111500D02*
X1121500D01*
X1022500Y515000D02*
X1039000D01*
X1229000D02*
X1241500D01*
X650000D02*
X686500D01*
X669500Y555000D02*
X686500D01*
X1111500Y560000D02*
X1121500D01*
X1131500D02*
X1141500D01*
X650000Y575000D02*
X686500D01*
X669500Y565000D02*
X686500D01*
X1111500Y570000D02*
X1121500D01*
X1101500Y550000D02*
X1111500D01*
X1126500D02*
X1141500D01*
X650000Y545000D02*
X686500D01*
X650000Y605000D02*
X686500D01*
X650000Y595000D02*
X686500D01*
X650000Y585000D02*
X686500D01*
X959000Y605000D02*
X984000D01*
X650000Y635000D02*
X686500D01*
X650000Y615000D02*
X686500D01*
X1396500Y655000D02*
X1451500D01*
X650000D02*
X686500D01*
X650000Y665000D02*
X686500D01*
X984000D02*
X989000D01*
X650000Y645000D02*
X686500D01*
X984000D02*
X989000D01*
X1439500Y685000D02*
X1451000D01*
X1408500Y692000D02*
X1432000D01*
X666500Y700000D02*
X821500D01*
X1477500Y675000D02*
X1557500D01*
X637500Y677000D02*
X682000D01*
X984000Y715000D02*
X994000D01*
X764000D02*
X816500D01*
X876500D02*
X884000D01*
X756500Y722500D02*
X814000D01*
X1001500Y727500D02*
X1014000D01*
X984000Y735000D02*
X1011500D01*
X884000D02*
X891500D01*
X984000Y725000D02*
X991500D01*
X1171500Y735000D02*
X1176000D01*
X956500D02*
X959500D01*
X1516500Y705000D02*
X1552500D01*
X1461500D02*
X1492500D01*
X771500Y707500D02*
X819000D01*
X1331500Y705000D02*
X1362500D01*
X1386500D02*
X1422500D01*
X906500Y765000D02*
X914000D01*
X876500D02*
X884000D01*
X876500Y755000D02*
X884000D01*
X947000D02*
X954000D01*
Y765000D02*
X964500D01*
X984000D02*
X1006500D01*
X984000Y755000D02*
X1006500D01*
X1141500Y760000D02*
X1161500D01*
X1166500Y755000D02*
X1176000D01*
X876500Y745000D02*
X884000D01*
X950500D02*
X954000D01*
X984000D02*
X1006500D01*
X876500Y785000D02*
X884000D01*
X954000D02*
X966500D01*
X906500D02*
X914000D01*
X1166500Y795000D02*
X1176500D01*
X1141500Y790000D02*
X1161500D01*
X906500Y775000D02*
X914000D01*
X876500D02*
X884000D01*
X954000D02*
X966500D01*
X984000D02*
X1006500D01*
X1166500D02*
X1176500D01*
X1141500Y830000D02*
X1152000D01*
X1167500Y876000D02*
X1176500D01*
X894500Y698500D02*
Y718000D01*
X894000Y737500D02*
Y772500D01*
X871500Y720000D02*
Y740000D01*
X905000Y704500D02*
Y763500D01*
X899000Y722500D02*
Y767500D01*
X941500Y475000D02*
Y485000D01*
Y445000D02*
Y460000D01*
X929000Y480000D02*
Y485000D01*
X964000Y427500D02*
Y440000D01*
X1016500Y725500D02*
Y729500D01*
X992500Y648500D02*
Y661500D01*
X1039000Y642500D02*
Y702500D01*
X1111500Y710000D02*
Y737500D01*
Y570000D02*
Y605500D01*
X1180500Y478000D02*
Y483000D01*
X1154000Y528000D02*
Y532500D01*
X1339000Y550000D02*
Y557500D01*
Y600000D02*
Y607500D01*
Y500000D02*
Y507500D01*
Y450000D02*
Y457500D01*
X1389000Y600000D02*
Y607500D01*
Y550000D02*
Y557500D01*
Y500000D02*
Y507500D01*
Y450000D02*
Y457500D01*
X1439000Y600000D02*
Y607500D01*
Y550000D02*
Y557500D01*
Y500000D02*
Y507500D01*
Y450000D02*
Y457500D01*
X1251500Y496500D02*
Y505000D01*
Y515000D01*
X650000Y625000D02*
X674000D01*
X686500D01*
X786500Y495000D02*
Y500000D01*
X811500Y495000D02*
Y500000D01*
X799000Y495000D02*
Y500000D01*
X824000Y495000D02*
Y500000D01*
X767500Y495000D02*
X774000D01*
X1167500Y816000D02*
X1176500D01*
X1159000Y837000D02*
Y867500D01*
X1166500Y836000D02*
X1176500D01*
X1015000Y466000D02*
Y475000D01*
X994000Y445000D02*
X1015000Y466000D01*
X1002500Y463500D02*
Y475000D01*
X994000Y455000D02*
X1002500Y463500D01*
Y435000D02*
Y443500D01*
X1014000Y455000D01*
X1002500Y435000D02*
X1012500Y425000D01*
Y420000D02*
Y425000D01*
X1000000Y420000D02*
X1002500D01*
X995000Y425000D02*
X1000000Y420000D01*
X984000Y425000D02*
X995000D01*
X1276500Y705000D02*
X1301500D01*
X1447500Y835000D02*
Y851000D01*
X1451000Y854500D01*
X1562500Y830000D02*
Y840000D01*
X1537500Y745000D02*
X1552500D01*
X1534500Y748000D02*
X1537500Y745000D01*
X1477500D02*
X1492500D01*
X1474500Y748000D02*
X1477500Y745000D01*
X1407500D02*
X1422500D01*
X1404500Y748000D02*
X1407500Y745000D01*
X1347500D02*
X1362500D01*
X1344500Y748000D02*
X1347500Y745000D01*
X1287500D02*
X1302500D01*
X1284500Y748000D02*
X1287500Y745000D01*
X1227500D02*
X1242500D01*
X1224500Y748000D02*
X1227500Y745000D01*
X1477500Y835000D02*
Y842500D01*
X1457500Y835000D02*
Y842500D01*
X1407500Y835000D02*
Y842500D01*
X1387500Y835000D02*
Y842500D01*
X1347500Y835000D02*
Y842500D01*
X1327500Y835000D02*
Y842500D01*
X1287500Y835000D02*
Y842500D01*
X1267500Y835000D02*
Y842500D01*
X1227500Y835000D02*
Y842500D01*
X1207500Y835000D02*
Y842500D01*
X1537500Y827500D02*
Y835000D01*
X1517500Y827500D02*
Y835000D01*
X1477500Y827500D02*
Y835000D01*
X1457500Y827500D02*
Y835000D01*
X1407500Y827500D02*
Y835000D01*
X1387500Y827500D02*
Y835000D01*
X1347500Y827500D02*
Y835000D01*
X1327500Y827500D02*
Y835000D01*
X1287500Y827500D02*
Y835000D01*
X1267500Y827500D02*
Y835000D01*
X1507500D02*
Y846500D01*
X1257500Y851000D02*
Y854500D01*
Y835000D02*
Y851000D01*
X1254000Y854500D02*
X1257500Y851000D01*
X1261000Y854500D01*
X1317500Y851000D02*
Y854500D01*
Y835000D02*
Y851000D01*
X1314000Y854500D02*
X1317500Y851000D01*
X1321000Y854500D01*
X1377500Y851000D02*
Y854500D01*
Y835000D02*
Y851000D01*
X1374000Y854500D02*
X1377500Y851000D01*
X1381000Y854500D01*
X1447500Y851000D02*
Y854500D01*
X1444000D02*
X1447500Y851000D01*
X1197500Y835000D02*
Y842500D01*
X1547500Y827500D02*
Y835000D01*
X1487500Y819000D02*
Y835000D01*
Y815000D02*
Y819000D01*
X1484000Y815500D02*
X1487500Y819000D01*
X1491000Y815500D01*
X1417500Y819000D02*
Y835000D01*
Y815000D02*
Y819000D01*
X1414000Y815500D02*
X1417500Y819000D01*
X1421000Y815500D01*
X1357500Y819000D02*
Y835000D01*
Y815000D02*
Y819000D01*
X1354000Y815500D02*
X1357500Y819000D01*
X1361000Y815500D01*
X1297500Y819000D02*
Y835000D01*
Y815000D02*
Y819000D01*
X1294000Y815500D02*
X1297500Y819000D01*
X1301000Y815500D01*
X1237500Y819000D02*
Y835000D01*
Y815000D02*
Y819000D01*
X1234000Y815500D02*
X1237500Y819000D01*
X1241000Y815500D01*
X1517500Y765000D02*
Y775000D01*
X1527500Y755000D02*
Y775000D01*
X1537500D02*
Y782500D01*
X1217500Y755000D02*
Y775000D01*
X1237500Y767500D02*
Y775000D01*
X1227500Y762500D02*
Y775000D01*
X1207500Y750000D02*
Y775000D01*
Y782500D01*
X1477500Y762500D02*
Y775000D01*
Y782500D01*
X1487500Y767500D02*
Y775000D01*
Y787500D01*
X1457500Y775000D02*
Y785000D01*
Y765000D02*
Y775000D01*
X1467500Y755000D02*
Y775000D01*
X1407500Y762500D02*
Y775000D01*
Y782500D01*
X1417500Y767500D02*
Y775000D01*
Y787500D01*
X1387500Y775000D02*
Y785000D01*
Y765000D02*
Y775000D01*
X1397500Y755000D02*
Y775000D01*
X1347500Y762500D02*
Y775000D01*
Y782500D01*
X1357500Y767500D02*
Y775000D01*
Y787500D01*
X1327500Y775000D02*
Y785000D01*
Y765000D02*
Y775000D01*
X1337500Y755000D02*
Y775000D01*
X1287500Y762500D02*
Y775000D01*
Y782500D01*
X1297500Y767500D02*
Y775000D01*
Y787500D01*
X1267500Y775000D02*
Y785000D01*
Y765000D02*
Y775000D01*
X1277500Y755000D02*
Y775000D01*
X1507500D02*
Y787500D01*
X1447500Y796000D02*
Y799500D01*
Y775000D02*
Y796000D01*
X1444000Y799500D02*
X1447500Y796000D01*
X1451000Y799500D01*
X1377500Y796000D02*
Y799500D01*
Y775000D02*
Y796000D01*
X1374000Y799500D02*
X1377500Y796000D01*
X1381000Y799500D01*
X1317500Y796000D02*
Y799500D01*
Y775000D02*
Y796000D01*
X1314000Y799500D02*
X1317500Y796000D01*
X1321000Y799500D01*
X1257500Y796000D02*
Y799500D01*
Y775000D02*
Y796000D01*
X1197500Y775000D02*
Y782500D01*
Y757500D02*
Y775000D01*
X1254000Y799500D02*
X1257500Y796000D01*
X1261000Y799500D01*
X1216500Y705000D02*
X1242500D01*
X1289000Y457500D02*
Y477500D01*
Y487500D01*
Y507500D02*
Y527500D01*
Y557500D02*
Y577500D01*
X1309000Y421000D02*
Y427500D01*
Y437500D01*
X1509000Y457500D02*
Y477500D01*
Y487500D01*
Y507500D02*
Y527500D01*
Y537500D01*
Y557500D02*
Y577500D01*
Y587500D01*
X1459000Y414500D02*
Y427500D01*
Y437500D01*
Y457500D02*
Y477500D01*
Y487500D01*
Y507500D02*
Y527500D01*
Y537500D01*
Y557500D02*
Y577500D01*
Y587500D01*
X1409000Y457500D02*
Y477500D01*
Y487500D01*
Y507500D02*
Y527500D01*
Y537500D01*
Y418500D02*
Y427500D01*
Y437500D01*
Y557500D02*
Y577500D01*
Y587500D01*
X1359000Y457500D02*
Y477500D01*
Y487500D01*
Y507500D02*
Y527500D01*
Y537500D01*
Y418500D02*
Y427500D01*
Y437500D01*
Y557500D02*
Y577500D01*
Y587500D01*
X1309000Y577500D02*
Y587500D01*
X1289000Y577500D02*
Y587500D01*
Y527500D02*
Y537500D01*
X1309000Y527500D02*
Y537500D01*
X1086500Y405000D02*
Y405500D01*
X1006500Y872500D02*
X1011500Y867500D01*
D42*
X1506500Y655000D02*
X1560000D01*
X1046500Y445000D02*
X1056500Y455000D01*
X1046500Y435000D02*
Y445000D01*
X809500Y785500D02*
X815000Y780000D01*
X820500Y785500D01*
X1019000Y435000D02*
X1046000D01*
X1046500D01*
X886500Y455000D02*
Y475000D01*
Y445000D02*
Y455000D01*
X954000Y425000D02*
X961500D01*
X906500D02*
X954000D01*
X1116500Y410000D02*
Y420000D01*
X778000Y784500D02*
X784000Y778500D01*
X789500Y784000D01*
X728500Y856500D02*
X734000Y862000D01*
X728000Y854000D02*
X733500Y848500D01*
X834000Y878000D02*
X840500Y884500D01*
X1416500Y645000D02*
X1419000Y647500D01*
X1459000D02*
X1466500Y655000D01*
X841500Y417500D02*
X844000Y420000D01*
X1339500Y677000D02*
X1371500Y645000D01*
X961500Y425000D02*
X981500Y405000D01*
X886500Y445000D02*
X906500Y425000D01*
X1161500Y610000D02*
X1228500Y677000D01*
X1116500Y410000D02*
X1121500Y405000D01*
X621000Y563500D02*
X627500Y570000D01*
X1138000Y878500D02*
X1144500Y885000D01*
X1132500Y884000D02*
X1138000Y878500D01*
X786000Y417500D02*
X841500D01*
X1491500Y655000D02*
X1506500D01*
X1466500D02*
X1491500D01*
X1419000Y647500D02*
X1459000D01*
X1371500Y645000D02*
X1416500D01*
X1228500Y677000D02*
X1339500D01*
X844000Y420000D02*
Y430000D01*
X887500Y669500D02*
Y676000D01*
X954000Y465000D02*
Y475000D01*
X984000Y435000D02*
Y445000D01*
X761000Y442500D02*
X786000Y417500D01*
X674000Y460000D02*
X691500Y442500D01*
X761000D01*
X1116500Y405000D02*
Y410000D01*
X1432000Y665000D02*
Y678000D01*
X1491500Y630000D02*
Y640500D01*
Y655000D01*
X1091500Y410500D02*
Y420000D01*
Y405000D02*
Y410500D01*
X1097000Y405000D01*
X1086500Y405500D02*
X1091500Y410500D01*
X1113000Y406500D02*
X1116500Y410000D01*
X1113000Y405000D02*
Y406500D01*
X621500Y576000D02*
X627500Y570000D01*
X621000Y576000D02*
X621500D01*
X897500Y880000D02*
X902500Y885000D01*
X892500D02*
X897500Y880000D01*
X892000Y885000D02*
X892500D01*
D43*
X1011500Y856000D02*
Y867500D01*
X1021500Y856000D02*
Y867500D01*
X1051500Y856000D02*
Y867500D01*
X1041500Y856000D02*
Y867500D01*
X1031500Y856000D02*
Y867500D01*
X1071500Y856000D02*
Y867500D01*
X1061500Y856000D02*
Y867500D01*
D44*
X733500Y420998D02*
Y415999D01*
X731001Y413500D01*
X728502Y415999D01*
Y420998D01*
X721004D02*
X726002D01*
Y413500D01*
X721004D01*
X726002Y417249D02*
X723503D01*
X718505Y413500D02*
Y420998D01*
X714756D01*
X713507Y419748D01*
Y417249D01*
X714756Y415999D01*
X718505D01*
X716006D02*
X713507Y413500D01*
X706009Y419748D02*
X707259Y420998D01*
X709758D01*
X711007Y419748D01*
Y418498D01*
X709758Y417249D01*
X707259D01*
X706009Y415999D01*
Y414750D01*
X707259Y413500D01*
X709758D01*
X711007Y414750D01*
X703510Y420998D02*
X701011D01*
X702260D01*
Y413500D01*
X703510D01*
X701011D01*
X693513Y420998D02*
X696012D01*
X697262Y419748D01*
Y414750D01*
X696012Y413500D01*
X693513D01*
X692263Y414750D01*
Y419748D01*
X693513Y420998D01*
X689764Y413500D02*
Y420998D01*
X684766Y413500D01*
Y420998D01*
X674769Y419748D02*
X673519Y420998D01*
X671020D01*
X669771Y419748D01*
Y418498D01*
X671020Y417249D01*
X672270D01*
X671020D01*
X669771Y415999D01*
Y414750D01*
X671020Y413500D01*
X673519D01*
X674769Y414750D01*
X667271Y413500D02*
Y414750D01*
X666022D01*
Y413500D01*
X667271D01*
X661023Y419748D02*
X659774Y420998D01*
X657275D01*
X656025Y419748D01*
Y414750D01*
X657275Y413500D01*
X659774D01*
X661023Y414750D01*
Y419748D01*
X716500Y406248D02*
X715250Y407498D01*
X712751D01*
X711502Y406248D01*
Y404998D01*
X712751Y403749D01*
X714001D01*
X712751D01*
X711502Y402499D01*
Y401250D01*
X712751Y400000D01*
X715250D01*
X716500Y401250D01*
X709002Y400000D02*
X704004Y404998D01*
X696507Y400000D02*
X701505D01*
X696507Y404998D01*
Y406248D01*
X697756Y407498D01*
X700255D01*
X701505Y406248D01*
X694007D02*
X692758Y407498D01*
X690259D01*
X689009Y406248D01*
Y401250D01*
X690259Y400000D01*
X692758D01*
X694007Y401250D01*
Y406248D01*
X681511Y400000D02*
X686510D01*
X681511Y404998D01*
Y406248D01*
X682761Y407498D01*
X685260D01*
X686510Y406248D01*
X679012Y400000D02*
X676513D01*
X677763D01*
Y407498D01*
X679012Y406248D01*
D45*
X784250Y836000D02*
D03*
M02*
