G04 Layer_Color=65535*
%FSLAX25Y25*%
%MOIN*%
G70*
G01*
G75*
%ADD10C,0.02000*%
%ADD11C,0.04000*%
%ADD43C,0.01500*%
%ADD44C,0.00800*%
%ADD46C,0.01000*%
%ADD47C,0.01200*%
%ADD48C,0.00500*%
%ADD49C,0.01400*%
%ADD50C,0.00733*%
%ADD51R,0.02000X0.01000*%
%ADD52R,0.01000X0.01000*%
%ADD53R,0.01000X0.01500*%
%ADD54R,0.05000X0.05000*%
%ADD55R,0.04000X0.04000*%
D10*
X614000Y387500D02*
Y890000D01*
X1579000D01*
X614000Y387500D02*
X1579000D01*
Y890000D01*
D11*
X1200000Y790000D02*
X1202500Y802500D01*
X1227500Y790000D02*
X1230000Y802500D01*
X1202500Y807500D02*
X1205000Y820000D01*
X1230000Y807500D02*
X1232500Y820000D01*
X1205000Y787500D02*
X1222500D01*
X1207500Y805000D02*
X1225000D01*
X1210000Y822500D02*
X1227500D01*
X1270000D02*
X1287500D01*
X1267500Y805000D02*
X1285000D01*
X1265000Y787500D02*
X1282500D01*
X1290000Y807500D02*
X1292500Y820000D01*
X1262500Y807500D02*
X1265000Y820000D01*
X1287500Y790000D02*
X1290000Y802500D01*
X1260000Y790000D02*
X1262500Y802500D01*
X1320000Y790000D02*
X1322500Y802500D01*
X1347500Y790000D02*
X1350000Y802500D01*
X1322500Y807500D02*
X1325000Y820000D01*
X1350000Y807500D02*
X1352500Y820000D01*
X1325000Y787500D02*
X1342500D01*
X1327500Y805000D02*
X1345000D01*
X1330000Y822500D02*
X1347500D01*
X1390000D02*
X1407500D01*
X1387500Y805000D02*
X1405000D01*
X1385000Y787500D02*
X1402500D01*
X1410000Y807500D02*
X1412500Y820000D01*
X1382500Y807500D02*
X1385000Y820000D01*
X1407500Y790000D02*
X1410000Y802500D01*
X1380000Y790000D02*
X1382500Y802500D01*
X1450000Y790000D02*
X1452500Y802500D01*
X1477500Y790000D02*
X1480000Y802500D01*
X1452500Y807500D02*
X1455000Y820000D01*
X1480000Y807500D02*
X1482500Y820000D01*
X1455000Y787500D02*
X1472500D01*
X1457500Y805000D02*
X1475000D01*
X1460000Y822500D02*
X1477500D01*
X1520000D02*
X1537500D01*
X1517500Y805000D02*
X1535000D01*
X1515000Y787500D02*
X1532500D01*
X1540000Y807500D02*
X1542500Y820000D01*
X1512500Y807500D02*
X1515000Y820000D01*
X1537500Y790000D02*
X1540000Y802500D01*
X1510000Y790000D02*
X1512500Y802500D01*
D43*
X1067000Y445000D02*
G03*
X1067000Y445000I-21000J0D01*
G01*
D44*
X964000Y490000D02*
G03*
X974000Y490000I5000J0D01*
G01*
X1257500Y495000D02*
G03*
X1257500Y495000I-11000J0D01*
G01*
X1127500Y425000D02*
G03*
X1127500Y425000I-11000J0D01*
G01*
X1152500Y862000D02*
G03*
X1152500Y862000I-11000J0D01*
G01*
X991500Y835000D02*
G03*
X991500Y835000I-11000J0D01*
G01*
X672500Y715000D02*
G03*
X672500Y715000I-11000J0D01*
G01*
X624500Y807500D02*
X627000D01*
X624500D02*
Y817500D01*
X627000D01*
X624500Y827500D02*
X627000D01*
X624500D02*
Y837500D01*
X627000D01*
Y802500D02*
X658000D01*
Y842500D01*
X627000D02*
X658000D01*
X627000Y802500D02*
Y842500D01*
X693000Y680000D02*
X711500D01*
X721500D02*
X740000D01*
Y480000D02*
Y680000D01*
X693000Y480000D02*
X740000D01*
X693000D02*
Y680000D01*
X930500Y670000D02*
X949000D01*
X959000D02*
X977500D01*
Y530000D02*
Y670000D01*
X930500Y530000D02*
X977500D01*
X930500D02*
Y670000D01*
X825500Y530000D02*
Y670000D01*
Y530000D02*
X872500D01*
Y670000D01*
X854000D02*
X872500D01*
X825500D02*
X844000D01*
X1198000Y575000D02*
X1201500D01*
X1211500D02*
X1215000D01*
Y475000D02*
Y575000D01*
X1198000Y475000D02*
X1215000D01*
X1198000D02*
Y575000D01*
X1118000D02*
X1121500D01*
X1131500D02*
X1135000D01*
Y475000D02*
Y575000D01*
X1118000Y475000D02*
X1135000D01*
X1118000D02*
Y575000D01*
Y715000D02*
X1121500D01*
X1131500D02*
X1135000D01*
Y615000D02*
Y715000D01*
X1118000Y615000D02*
X1135000D01*
X1118000D02*
Y715000D01*
Y845000D02*
X1121500D01*
X1131500D02*
X1135000D01*
Y745000D02*
Y845000D01*
X1118000Y745000D02*
X1135000D01*
X1118000D02*
Y845000D01*
X960500Y420000D02*
Y490000D01*
Y420000D02*
X977500D01*
Y490000D01*
X974000D02*
X977500D01*
X960500D02*
X964000D01*
X1001500Y848000D02*
X1006500Y853000D01*
X1001500Y848000D02*
X1011500D01*
X1006500Y853000D02*
X1011500Y848000D01*
X985500Y855500D02*
X1097000D01*
X985500Y881500D02*
X1097000D01*
X1051500Y879500D02*
Y881500D01*
X1031500Y879500D02*
X1051500D01*
X1031500D02*
Y881500D01*
X1097000Y855500D02*
Y881500D01*
X985500Y855500D02*
Y881500D01*
X890500Y710000D02*
Y790000D01*
Y710000D02*
X907500D01*
Y790000D01*
X904000D02*
X907500D01*
X890500D02*
X894000D01*
X960500Y710000D02*
Y790000D01*
Y710000D02*
X977500D01*
Y790000D01*
X974000D02*
X977500D01*
X960500D02*
X964000D01*
X652000Y480000D02*
X657000Y475000D01*
Y485000D01*
X652000Y480000D02*
X657000Y485000D01*
X682500Y793500D02*
X684499D01*
X683500D01*
Y799498D01*
X682500Y798498D01*
X687498D02*
X688498Y799498D01*
X690497D01*
X691497Y798498D01*
Y794500D01*
X690497Y793500D01*
X688498D01*
X687498Y794500D01*
Y798498D01*
X693496D02*
X694496Y799498D01*
X696495D01*
X697495Y798498D01*
Y794500D01*
X696495Y793500D01*
X694496D01*
X693496Y794500D01*
Y798498D01*
X699495D02*
X700494Y799498D01*
X702493D01*
X703493Y798498D01*
Y794500D01*
X702493Y793500D01*
X700494D01*
X699495Y794500D01*
Y798498D01*
X705493Y797499D02*
Y794500D01*
X706492Y793500D01*
X709491D01*
Y797499D01*
X715489Y799498D02*
X711491D01*
Y796499D01*
X713490D01*
X711491D01*
Y793500D01*
X668999Y798498D02*
X667999Y799498D01*
X666000D01*
X665000Y798498D01*
Y794500D01*
X666000Y793500D01*
X667999D01*
X668999Y794500D01*
X670998Y798498D02*
X671998Y799498D01*
X673997D01*
X674997Y798498D01*
Y797499D01*
X673997Y796499D01*
X672997D01*
X673997D01*
X674997Y795499D01*
Y794500D01*
X673997Y793500D01*
X671998D01*
X670998Y794500D01*
X1423000Y637500D02*
X1424999D01*
X1424000D01*
Y643498D01*
X1423000Y642498D01*
X1427998D02*
X1428998Y643498D01*
X1430997D01*
X1431997Y642498D01*
Y638500D01*
X1430997Y637500D01*
X1428998D01*
X1427998Y638500D01*
Y642498D01*
X1433996D02*
X1434996Y643498D01*
X1436996D01*
X1437995Y642498D01*
Y638500D01*
X1436996Y637500D01*
X1434996D01*
X1433996Y638500D01*
Y642498D01*
X1439995Y643498D02*
Y637500D01*
Y639499D01*
X1443993Y643498D01*
X1440994Y640499D01*
X1443993Y637500D01*
X1498000D02*
Y643498D01*
X1500999D01*
X1501999Y642498D01*
Y640499D01*
X1500999Y639499D01*
X1498000D01*
X1499999D02*
X1501999Y637500D01*
X1507997D02*
X1503998D01*
X1507997Y641499D01*
Y642498D01*
X1506997Y643498D01*
X1504998D01*
X1503998Y642498D01*
X1509996Y637500D02*
X1511996D01*
X1510996D01*
Y643498D01*
X1509996Y642498D01*
X969999Y874498D02*
X968999Y875498D01*
X967000D01*
X966000Y874498D01*
Y870500D01*
X967000Y869500D01*
X968999D01*
X969999Y870500D01*
X971998Y869500D02*
Y875498D01*
X975997Y869500D01*
Y875498D01*
X977996Y869500D02*
X979996D01*
X978996D01*
Y875498D01*
X977996Y874498D01*
X1430000Y708498D02*
Y702500D01*
X1432999D01*
X1433999Y703500D01*
Y704499D01*
X1432999Y705499D01*
X1430000D01*
X1432999D01*
X1433999Y706499D01*
Y707498D01*
X1432999Y708498D01*
X1430000D01*
X1439997Y707498D02*
X1438997Y708498D01*
X1436998D01*
X1435998Y707498D01*
Y703500D01*
X1436998Y702500D01*
X1438997D01*
X1439997Y703500D01*
X1445995Y708498D02*
X1441996D01*
Y705499D01*
X1443995Y706499D01*
X1444995D01*
X1445995Y705499D01*
Y703500D01*
X1444995Y702500D01*
X1442996D01*
X1441996Y703500D01*
X1450993Y702500D02*
Y708498D01*
X1447994Y705499D01*
X1451993D01*
X1453992Y708498D02*
X1457991D01*
Y707498D01*
X1453992Y703500D01*
Y702500D01*
X1438500Y717498D02*
X1442499D01*
X1440499D01*
Y711500D01*
X1444498Y717498D02*
X1448497D01*
Y716498D01*
X1444498Y712500D01*
Y711500D01*
X1076000Y438000D02*
X1077999D01*
X1077000D01*
Y443998D01*
X1076000Y442998D01*
X1080998D02*
X1081998Y443998D01*
X1083997D01*
X1084997Y442998D01*
Y439000D01*
X1083997Y438000D01*
X1081998D01*
X1080998Y439000D01*
Y442998D01*
X1086996D02*
X1087996Y443998D01*
X1089995D01*
X1090995Y442998D01*
Y439000D01*
X1089995Y438000D01*
X1087996D01*
X1086996Y439000D01*
Y442998D01*
X1092994Y438000D02*
Y441999D01*
X1095994D01*
X1096993Y440999D01*
Y438000D01*
X1078999Y451498D02*
X1077999Y452498D01*
X1076000D01*
X1075000Y451498D01*
Y447500D01*
X1076000Y446500D01*
X1077999D01*
X1078999Y447500D01*
X1080998Y446500D02*
X1082997D01*
X1081998D01*
Y452498D01*
X1080998Y451498D01*
X1085996D02*
X1086996Y452498D01*
X1088995D01*
X1089995Y451498D01*
Y447500D01*
X1088995Y446500D01*
X1086996D01*
X1085996Y447500D01*
Y451498D01*
X850000Y868998D02*
Y863000D01*
X853999D01*
X859997Y868998D02*
X855998D01*
Y863000D01*
X859997D01*
X855998Y865999D02*
X857997D01*
X861996Y868998D02*
Y863000D01*
X864995D01*
X865995Y864000D01*
Y867998D01*
X864995Y868998D01*
X861996D01*
X867994Y863000D02*
X869993D01*
X868994D01*
Y868998D01*
X867994Y867998D01*
X866500Y700000D02*
X868499D01*
X867500D01*
Y705998D01*
X866500Y704998D01*
X871498D02*
X872498Y705998D01*
X874497D01*
X875497Y704998D01*
Y701000D01*
X874497Y700000D01*
X872498D01*
X871498Y701000D01*
Y704998D01*
X877496D02*
X878496Y705998D01*
X880495D01*
X881495Y704998D01*
Y701000D01*
X880495Y700000D01*
X878496D01*
X877496Y701000D01*
Y704998D01*
X883494Y700000D02*
Y703999D01*
X886493D01*
X887493Y702999D01*
Y700000D01*
X855999Y704498D02*
X854999Y705498D01*
X853000D01*
X852000Y704498D01*
Y700500D01*
X853000Y699500D01*
X854999D01*
X855999Y700500D01*
X857998Y705498D02*
X861997D01*
Y704498D01*
X857998Y700500D01*
Y699500D01*
X698400Y693398D02*
X702399D01*
Y692398D01*
X698400Y688400D01*
Y687400D01*
X702399D01*
X704398Y692398D02*
X705398Y693398D01*
X707397D01*
X708397Y692398D01*
Y691399D01*
X707397Y690399D01*
X708397Y689399D01*
Y688400D01*
X707397Y687400D01*
X705398D01*
X704398Y688400D01*
Y689399D01*
X705398Y690399D01*
X704398Y691399D01*
Y692398D01*
X705398Y690399D02*
X707397D01*
X710396Y692398D02*
X711396Y693398D01*
X713395D01*
X714395Y692398D01*
Y688400D01*
X713395Y687400D01*
X711396D01*
X710396Y688400D01*
Y692398D01*
X720393D02*
X719393Y693398D01*
X717394D01*
X716394Y692398D01*
Y688400D01*
X717394Y687400D01*
X719393D01*
X720393Y688400D01*
X722392Y687400D02*
Y693398D01*
X725391D01*
X726391Y692398D01*
Y690399D01*
X725391Y689399D01*
X722392D01*
X728390Y693398D02*
Y688400D01*
X729390Y687400D01*
X731389D01*
X732389Y688400D01*
Y693398D01*
X708400Y705398D02*
X710399D01*
X709400D01*
Y699400D01*
X708400D01*
X710399D01*
X717397Y704398D02*
X716397Y705398D01*
X714398D01*
X713398Y704398D01*
Y700400D01*
X714398Y699400D01*
X716397D01*
X717397Y700400D01*
X723395Y705398D02*
X719396D01*
Y702399D01*
X721396Y703399D01*
X722396D01*
X723395Y702399D01*
Y700400D01*
X722396Y699400D01*
X720396D01*
X719396Y700400D01*
X849899Y673900D02*
X845900D01*
X849899Y677899D01*
Y678898D01*
X848899Y679898D01*
X846900D01*
X845900Y678898D01*
X851898Y679898D02*
X855897D01*
Y678898D01*
X851898Y674900D01*
Y673900D01*
X861895Y678898D02*
X860895Y679898D01*
X858896D01*
X857896Y678898D01*
Y674900D01*
X858896Y673900D01*
X860895D01*
X861895Y674900D01*
X867893Y679898D02*
X865893Y678898D01*
X863894Y676899D01*
Y674900D01*
X864894Y673900D01*
X866893D01*
X867893Y674900D01*
Y675899D01*
X866893Y676899D01*
X863894D01*
X872891Y673900D02*
Y679898D01*
X869892Y676899D01*
X873891D01*
X846400Y689898D02*
X848399D01*
X847400D01*
Y683900D01*
X846400D01*
X848399D01*
X855397Y688898D02*
X854397Y689898D01*
X852398D01*
X851398Y688898D01*
Y684900D01*
X852398Y683900D01*
X854397D01*
X855397Y684900D01*
X861395Y689898D02*
X859396Y688898D01*
X857396Y686899D01*
Y684900D01*
X858396Y683900D01*
X860396D01*
X861395Y684900D01*
Y685899D01*
X860396Y686899D01*
X857396D01*
X974399Y679898D02*
X972399Y678898D01*
X970400Y676899D01*
Y674900D01*
X971400Y673900D01*
X973399D01*
X974399Y674900D01*
Y675899D01*
X973399Y676899D01*
X970400D01*
X980397Y673900D02*
X976398D01*
X980397Y677899D01*
Y678898D01*
X979397Y679898D01*
X977398D01*
X976398Y678898D01*
X986395Y679898D02*
X984396Y678898D01*
X982396Y676899D01*
Y674900D01*
X983396Y673900D01*
X985395D01*
X986395Y674900D01*
Y675899D01*
X985395Y676899D01*
X982396D01*
X991393Y673900D02*
Y679898D01*
X988394Y676899D01*
X992393D01*
X972900Y689898D02*
X974899D01*
X973900D01*
Y683900D01*
X972900D01*
X974899D01*
X981897Y688898D02*
X980897Y689898D01*
X978898D01*
X977898Y688898D01*
Y684900D01*
X978898Y683900D01*
X980897D01*
X981897Y684900D01*
X983896Y689898D02*
X987895D01*
Y688898D01*
X983896Y684900D01*
Y683900D01*
X949400Y416798D02*
X953399D01*
Y415798D01*
X949400Y411800D01*
Y410800D01*
X958397D02*
Y416798D01*
X955398Y413799D01*
X959397D01*
X961396Y416798D02*
Y410800D01*
Y413799D01*
X965395D01*
Y416798D01*
Y410800D01*
X971393Y415798D02*
X970393Y416798D01*
X968394D01*
X967394Y415798D01*
Y411800D01*
X968394Y410800D01*
X970393D01*
X971393Y411800D01*
X973392Y416798D02*
Y411800D01*
X974392Y410800D01*
X976391D01*
X977391Y411800D01*
Y416798D01*
X979390Y415798D02*
X980390Y416798D01*
X982389D01*
X983389Y415798D01*
Y411800D01*
X982389Y410800D01*
X980390D01*
X979390Y411800D01*
Y415798D01*
X988387Y410800D02*
Y416798D01*
X985388Y413799D01*
X989387D01*
X960000Y499498D02*
X961999D01*
X961000D01*
Y493500D01*
X960000D01*
X961999D01*
X968997Y498498D02*
X967997Y499498D01*
X965998D01*
X964998Y498498D01*
Y494500D01*
X965998Y493500D01*
X967997D01*
X968997Y494500D01*
X970996Y493500D02*
X972996D01*
X971996D01*
Y499498D01*
X970996Y498498D01*
X975995D02*
X976995Y499498D01*
X978994D01*
X979994Y498498D01*
Y494500D01*
X978994Y493500D01*
X976995D01*
X975995Y494500D01*
Y498498D01*
X833000Y770998D02*
X836999D01*
Y769998D01*
X833000Y766000D01*
Y765000D01*
X841997D02*
Y770998D01*
X838998Y767999D01*
X842997D01*
X844996Y770998D02*
Y765000D01*
Y767999D01*
X848995D01*
Y770998D01*
Y765000D01*
X854993Y769998D02*
X853993Y770998D01*
X851994D01*
X850994Y769998D01*
Y766000D01*
X851994Y765000D01*
X853993D01*
X854993Y766000D01*
X856992Y765000D02*
X858992D01*
X857992D01*
Y770998D01*
X856992Y769998D01*
X861991D02*
X862990Y770998D01*
X864990D01*
X865989Y769998D01*
Y768999D01*
X864990Y767999D01*
X863990D01*
X864990D01*
X865989Y766999D01*
Y766000D01*
X864990Y765000D01*
X862990D01*
X861991Y766000D01*
X867989Y769998D02*
X868988Y770998D01*
X870988D01*
X871987Y769998D01*
Y768999D01*
X870988Y767999D01*
X871987Y766999D01*
Y766000D01*
X870988Y765000D01*
X868988D01*
X867989Y766000D01*
Y766999D01*
X868988Y767999D01*
X867989Y768999D01*
Y769998D01*
X868988Y767999D02*
X870988D01*
X857500Y779498D02*
X859499D01*
X858500D01*
Y773500D01*
X857500D01*
X859499D01*
X866497Y778498D02*
X865497Y779498D01*
X863498D01*
X862498Y778498D01*
Y774500D01*
X863498Y773500D01*
X865497D01*
X866497Y774500D01*
X872495Y773500D02*
X868496D01*
X872495Y777499D01*
Y778498D01*
X871496Y779498D01*
X869496D01*
X868496Y778498D01*
X962500Y704998D02*
X966499D01*
Y703998D01*
X962500Y700000D01*
Y699000D01*
X971497D02*
Y704998D01*
X968498Y701999D01*
X972497D01*
X974496Y704998D02*
Y699000D01*
Y701999D01*
X978495D01*
Y704998D01*
Y699000D01*
X984493Y703998D02*
X983493Y704998D01*
X981494D01*
X980494Y703998D01*
Y700000D01*
X981494Y699000D01*
X983493D01*
X984493Y700000D01*
X986492Y699000D02*
X988492D01*
X987492D01*
Y704998D01*
X986492Y703998D01*
X991491D02*
X992490Y704998D01*
X994490D01*
X995489Y703998D01*
Y702999D01*
X994490Y701999D01*
X993490D01*
X994490D01*
X995489Y700999D01*
Y700000D01*
X994490Y699000D01*
X992490D01*
X991491Y700000D01*
X997489Y703998D02*
X998488Y704998D01*
X1000488D01*
X1001487Y703998D01*
Y702999D01*
X1000488Y701999D01*
X1001487Y700999D01*
Y700000D01*
X1000488Y699000D01*
X998488D01*
X997489Y700000D01*
Y700999D01*
X998488Y701999D01*
X997489Y702999D01*
Y703998D01*
X998488Y701999D02*
X1000488D01*
X931900Y780898D02*
X933899D01*
X932900D01*
Y774900D01*
X931900D01*
X933899D01*
X940897Y779898D02*
X939897Y780898D01*
X937898D01*
X936898Y779898D01*
Y775900D01*
X937898Y774900D01*
X939897D01*
X940897Y775900D01*
X942896Y779898D02*
X943896Y780898D01*
X945895D01*
X946895Y779898D01*
Y778899D01*
X945895Y777899D01*
X944896D01*
X945895D01*
X946895Y776899D01*
Y775900D01*
X945895Y774900D01*
X943896D01*
X942896Y775900D01*
X1045400Y830898D02*
X1049399D01*
Y829898D01*
X1045400Y825900D01*
Y824900D01*
X1054397D02*
Y830898D01*
X1051398Y827899D01*
X1055397D01*
X1057396Y830898D02*
Y824900D01*
Y827899D01*
X1061395D01*
Y830898D01*
Y824900D01*
X1067393Y829898D02*
X1066393Y830898D01*
X1064394D01*
X1063394Y829898D01*
Y825900D01*
X1064394Y824900D01*
X1066393D01*
X1067393Y825900D01*
X1073391Y824900D02*
X1069392D01*
X1073391Y828899D01*
Y829898D01*
X1072391Y830898D01*
X1070392D01*
X1069392Y829898D01*
X1075390Y830898D02*
X1079389D01*
Y829898D01*
X1075390Y825900D01*
Y824900D01*
X1081388Y829898D02*
X1082388Y830898D01*
X1084387D01*
X1085387Y829898D01*
Y828899D01*
X1084387Y827899D01*
X1083388D01*
X1084387D01*
X1085387Y826899D01*
Y825900D01*
X1084387Y824900D01*
X1082388D01*
X1081388Y825900D01*
X1089900Y840898D02*
X1091899D01*
X1090900D01*
Y834900D01*
X1089900D01*
X1091899D01*
X1098897Y839898D02*
X1097897Y840898D01*
X1095898D01*
X1094898Y839898D01*
Y835900D01*
X1095898Y834900D01*
X1097897D01*
X1098897Y835900D01*
X1100896Y834900D02*
X1102896D01*
X1101896D01*
Y840898D01*
X1100896Y839898D01*
X1053400Y704898D02*
X1057399D01*
Y703898D01*
X1053400Y699900D01*
Y698900D01*
X1062397D02*
Y704898D01*
X1059398Y701899D01*
X1063397D01*
X1065396Y704898D02*
Y698900D01*
Y701899D01*
X1069395D01*
Y704898D01*
Y698900D01*
X1075393Y703898D02*
X1074393Y704898D01*
X1072394D01*
X1071394Y703898D01*
Y699900D01*
X1072394Y698900D01*
X1074393D01*
X1075393Y699900D01*
X1081391Y698900D02*
X1077392D01*
X1081391Y702899D01*
Y703898D01*
X1080391Y704898D01*
X1078392D01*
X1077392Y703898D01*
X1083390Y704898D02*
X1087389D01*
Y703898D01*
X1083390Y699900D01*
Y698900D01*
X1089388Y703898D02*
X1090388Y704898D01*
X1092387D01*
X1093387Y703898D01*
Y702899D01*
X1092387Y701899D01*
X1091388D01*
X1092387D01*
X1093387Y700899D01*
Y699900D01*
X1092387Y698900D01*
X1090388D01*
X1089388Y699900D01*
X1087900Y714898D02*
X1089899D01*
X1088900D01*
Y708900D01*
X1087900D01*
X1089899D01*
X1096897Y713898D02*
X1095897Y714898D01*
X1093898D01*
X1092898Y713898D01*
Y709900D01*
X1093898Y708900D01*
X1095897D01*
X1096897Y709900D01*
X1101896Y708900D02*
Y714898D01*
X1098896Y711899D01*
X1102895D01*
X1064400Y547398D02*
X1068399D01*
Y546398D01*
X1064400Y542400D01*
Y541400D01*
X1073397D02*
Y547398D01*
X1070398Y544399D01*
X1074397D01*
X1076396Y547398D02*
Y541400D01*
Y544399D01*
X1080395D01*
Y547398D01*
Y541400D01*
X1086393Y546398D02*
X1085393Y547398D01*
X1083394D01*
X1082394Y546398D01*
Y542400D01*
X1083394Y541400D01*
X1085393D01*
X1086393Y542400D01*
X1092391Y541400D02*
X1088392D01*
X1092391Y545399D01*
Y546398D01*
X1091391Y547398D01*
X1089392D01*
X1088392Y546398D01*
X1097389Y541400D02*
Y547398D01*
X1094390Y544399D01*
X1098389D01*
X1103387Y541400D02*
Y547398D01*
X1100388Y544399D01*
X1104387D01*
X1086400Y557398D02*
X1088399D01*
X1087400D01*
Y551400D01*
X1086400D01*
X1088399D01*
X1095397Y556398D02*
X1094397Y557398D01*
X1092398D01*
X1091398Y556398D01*
Y552400D01*
X1092398Y551400D01*
X1094397D01*
X1095397Y552400D01*
X1097396Y556398D02*
X1098396Y557398D01*
X1100395D01*
X1101395Y556398D01*
Y555399D01*
X1100395Y554399D01*
X1101395Y553399D01*
Y552400D01*
X1100395Y551400D01*
X1098396D01*
X1097396Y552400D01*
Y553399D01*
X1098396Y554399D01*
X1097396Y555399D01*
Y556398D01*
X1098396Y554399D02*
X1100395D01*
X1228900Y553398D02*
X1232899D01*
Y552398D01*
X1228900Y548400D01*
Y547400D01*
X1237897D02*
Y553398D01*
X1234898Y550399D01*
X1238897D01*
X1244895Y552398D02*
X1243895Y553398D01*
X1241896D01*
X1240896Y552398D01*
Y548400D01*
X1241896Y547400D01*
X1243895D01*
X1244895Y548400D01*
X1246894D02*
X1247894Y547400D01*
X1249893D01*
X1250893Y548400D01*
Y552398D01*
X1249893Y553398D01*
X1247894D01*
X1246894Y552398D01*
Y551399D01*
X1247894Y550399D01*
X1250893D01*
X1256891Y547400D02*
X1252892D01*
X1256891Y551399D01*
Y552398D01*
X1255891Y553398D01*
X1253892D01*
X1252892Y552398D01*
X1258890D02*
X1259890Y553398D01*
X1261889D01*
X1262889Y552398D01*
Y551399D01*
X1261889Y550399D01*
X1260890D01*
X1261889D01*
X1262889Y549399D01*
Y548400D01*
X1261889Y547400D01*
X1259890D01*
X1258890Y548400D01*
X1229400Y563898D02*
X1231399D01*
X1230400D01*
Y557900D01*
X1229400D01*
X1231399D01*
X1238397Y562898D02*
X1237397Y563898D01*
X1235398D01*
X1234398Y562898D01*
Y558900D01*
X1235398Y557900D01*
X1237397D01*
X1238397Y558900D01*
X1240396D02*
X1241396Y557900D01*
X1243396D01*
X1244395Y558900D01*
Y562898D01*
X1243396Y563898D01*
X1241396D01*
X1240396Y562898D01*
Y561899D01*
X1241396Y560899D01*
X1244395D01*
X1403500Y671498D02*
Y665500D01*
X1406499D01*
X1407499Y666500D01*
Y667499D01*
X1406499Y668499D01*
X1403500D01*
X1406499D01*
X1407499Y669499D01*
Y670498D01*
X1406499Y671498D01*
X1403500D01*
X1409498Y665500D02*
X1411497D01*
X1410498D01*
Y671498D01*
X1409498Y670498D01*
X1424000Y652000D02*
X1425999D01*
X1425000D01*
Y657998D01*
X1424000Y656998D01*
X1428998D02*
X1429998Y657998D01*
X1431997D01*
X1432997Y656998D01*
Y653000D01*
X1431997Y652000D01*
X1429998D01*
X1428998Y653000D01*
Y656998D01*
X1434996D02*
X1435996Y657998D01*
X1437996D01*
X1438995Y656998D01*
Y653000D01*
X1437996Y652000D01*
X1435996D01*
X1434996Y653000D01*
Y656998D01*
X1440994Y652000D02*
Y657998D01*
X1443993D01*
X1444993Y656998D01*
Y654999D01*
X1443993Y653999D01*
X1440994D01*
X1442994D02*
X1444993Y652000D01*
X1431500Y661500D02*
Y667498D01*
X1434499D01*
X1435499Y666498D01*
Y664499D01*
X1434499Y663499D01*
X1431500D01*
X1433499D02*
X1435499Y661500D01*
X1437498Y662500D02*
X1438498Y661500D01*
X1440497D01*
X1441497Y662500D01*
Y666498D01*
X1440497Y667498D01*
X1438498D01*
X1437498Y666498D01*
Y665499D01*
X1438498Y664499D01*
X1441497D01*
X1473500Y692000D02*
X1475499D01*
X1474500D01*
Y697998D01*
X1473500Y696998D01*
X1478498Y697998D02*
Y692000D01*
Y693999D01*
X1482497Y697998D01*
X1479498Y694999D01*
X1482497Y692000D01*
X1458600Y691900D02*
Y697898D01*
X1461599D01*
X1462599Y696898D01*
Y694899D01*
X1461599Y693899D01*
X1458600D01*
X1460599D02*
X1462599Y691900D01*
X1464598Y696898D02*
X1465598Y697898D01*
X1467597D01*
X1468597Y696898D01*
Y695899D01*
X1467597Y694899D01*
X1468597Y693899D01*
Y692900D01*
X1467597Y691900D01*
X1465598D01*
X1464598Y692900D01*
Y693899D01*
X1465598Y694899D01*
X1464598Y695899D01*
Y696898D01*
X1465598Y694899D02*
X1467597D01*
X1126500Y604500D02*
X1128499D01*
X1127500D01*
Y610498D01*
X1126500Y609498D01*
X1131498D02*
X1132498Y610498D01*
X1134497D01*
X1135497Y609498D01*
Y605500D01*
X1134497Y604500D01*
X1132498D01*
X1131498Y605500D01*
Y609498D01*
X1137496D02*
X1138496Y610498D01*
X1140495D01*
X1141495Y609498D01*
Y605500D01*
X1140495Y604500D01*
X1138496D01*
X1137496Y605500D01*
Y609498D01*
X1143495Y604500D02*
Y608499D01*
X1146494D01*
X1147493Y607499D01*
Y604500D01*
X1114999Y609498D02*
X1113999Y610498D01*
X1112000D01*
X1111000Y609498D01*
Y605500D01*
X1112000Y604500D01*
X1113999D01*
X1114999Y605500D01*
X1116998Y609498D02*
X1117998Y610498D01*
X1119997D01*
X1120997Y609498D01*
Y608499D01*
X1119997Y607499D01*
X1120997Y606499D01*
Y605500D01*
X1119997Y604500D01*
X1117998D01*
X1116998Y605500D01*
Y606499D01*
X1117998Y607499D01*
X1116998Y608499D01*
Y609498D01*
X1117998Y607499D02*
X1119997D01*
X1236500Y523500D02*
X1238499D01*
X1237500D01*
Y529498D01*
X1236500Y528498D01*
X1241498D02*
X1242498Y529498D01*
X1244497D01*
X1245497Y528498D01*
Y524500D01*
X1244497Y523500D01*
X1242498D01*
X1241498Y524500D01*
Y528498D01*
X1247496D02*
X1248496Y529498D01*
X1250496D01*
X1251495Y528498D01*
Y524500D01*
X1250496Y523500D01*
X1248496D01*
X1247496Y524500D01*
Y528498D01*
X1253494Y523500D02*
Y527499D01*
X1256493D01*
X1257493Y526499D01*
Y523500D01*
X1240499Y536998D02*
X1239499Y537998D01*
X1237500D01*
X1236500Y536998D01*
Y533000D01*
X1237500Y532000D01*
X1239499D01*
X1240499Y533000D01*
X1242498D02*
X1243498Y532000D01*
X1245497D01*
X1246497Y533000D01*
Y536998D01*
X1245497Y537998D01*
X1243498D01*
X1242498Y536998D01*
Y535999D01*
X1243498Y534999D01*
X1246497D01*
X1018499Y481500D02*
X1014500D01*
X1018499Y485499D01*
Y486498D01*
X1017499Y487498D01*
X1015500D01*
X1014500Y486498D01*
X1020498Y487498D02*
Y481500D01*
Y483499D01*
X1024497Y487498D01*
X1021498Y484499D01*
X1024497Y481500D01*
X1030495D02*
X1026496D01*
X1030495Y485499D01*
Y486498D01*
X1029495Y487498D01*
X1027496D01*
X1026496Y486498D01*
X1015000Y490500D02*
Y496498D01*
X1017999D01*
X1018999Y495498D01*
Y493499D01*
X1017999Y492499D01*
X1015000D01*
X1016999D02*
X1018999Y490500D01*
X1020998D02*
X1022997D01*
X1021998D01*
Y496498D01*
X1020998Y495498D01*
X1025996D02*
X1026996Y496498D01*
X1028996D01*
X1029995Y495498D01*
Y494499D01*
X1028996Y493499D01*
X1029995Y492499D01*
Y491500D01*
X1028996Y490500D01*
X1026996D01*
X1025996Y491500D01*
Y492499D01*
X1026996Y493499D01*
X1025996Y494499D01*
Y495498D01*
X1026996Y493499D02*
X1028996D01*
X991500Y481500D02*
X993499D01*
X992500D01*
Y487498D01*
X991500Y486498D01*
X996498D02*
X997498Y487498D01*
X999497D01*
X1000497Y486498D01*
Y482500D01*
X999497Y481500D01*
X997498D01*
X996498Y482500D01*
Y486498D01*
X1002496Y487498D02*
Y481500D01*
Y483499D01*
X1006495Y487498D01*
X1003496Y484499D01*
X1006495Y481500D01*
X991500Y490500D02*
Y496498D01*
X994499D01*
X995499Y495498D01*
Y493499D01*
X994499Y492499D01*
X991500D01*
X993499D02*
X995499Y490500D01*
X997498D02*
X999497D01*
X998498D01*
Y496498D01*
X997498Y495498D01*
X1002496Y496498D02*
X1006495D01*
Y495498D01*
X1002496Y491500D01*
Y490500D01*
X994500Y397000D02*
X996499D01*
X995500D01*
Y402998D01*
X994500Y401998D01*
X999498D02*
X1000498Y402998D01*
X1002497D01*
X1003497Y401998D01*
Y398000D01*
X1002497Y397000D01*
X1000498D01*
X999498Y398000D01*
Y401998D01*
X1005496D02*
X1006496Y402998D01*
X1008496D01*
X1009495Y401998D01*
Y398000D01*
X1008496Y397000D01*
X1006496D01*
X1005496Y398000D01*
Y401998D01*
X1011495Y395001D02*
Y400999D01*
X1014493D01*
X1015493Y399999D01*
Y398000D01*
X1014493Y397000D01*
X1011495D01*
X1021491Y402998D02*
X1017493D01*
Y399999D01*
X1019492D01*
X1017493D01*
Y397000D01*
X1004499Y410498D02*
X1003499Y411498D01*
X1001500D01*
X1000500Y410498D01*
Y406500D01*
X1001500Y405500D01*
X1003499D01*
X1004499Y406500D01*
X1006498Y405500D02*
X1008497D01*
X1007498D01*
Y411498D01*
X1006498Y410498D01*
X1014495Y405500D02*
Y411498D01*
X1011496Y408499D01*
X1015495D01*
X936000Y491500D02*
X937999D01*
X937000D01*
Y497498D01*
X936000Y496498D01*
X940998D02*
X941998Y497498D01*
X943997D01*
X944997Y496498D01*
Y492500D01*
X943997Y491500D01*
X941998D01*
X940998Y492500D01*
Y496498D01*
X946996Y491500D02*
Y497498D01*
X948996Y495499D01*
X950995Y497498D01*
Y491500D01*
X936000Y501000D02*
Y506998D01*
X938999D01*
X939999Y505998D01*
Y503999D01*
X938999Y502999D01*
X936000D01*
X937999D02*
X939999Y501000D01*
X941998D02*
X943997D01*
X942998D01*
Y506998D01*
X941998Y505998D01*
X950995Y506998D02*
X948996Y505998D01*
X946996Y503999D01*
Y502000D01*
X947996Y501000D01*
X949996D01*
X950995Y502000D01*
Y502999D01*
X949996Y503999D01*
X946996D01*
X913499Y497498D02*
X909500D01*
Y494499D01*
X911499Y495499D01*
X912499D01*
X913499Y494499D01*
Y492500D01*
X912499Y491500D01*
X910500D01*
X909500Y492500D01*
X919497Y497498D02*
X917497Y496498D01*
X915498Y494499D01*
Y492500D01*
X916498Y491500D01*
X918497D01*
X919497Y492500D01*
Y493499D01*
X918497Y494499D01*
X915498D01*
X921496Y496498D02*
X922496Y497498D01*
X924495D01*
X925495Y496498D01*
Y492500D01*
X924495Y491500D01*
X922496D01*
X921496Y492500D01*
Y496498D01*
X927494Y491500D02*
Y497498D01*
X930493D01*
X931493Y496498D01*
Y494499D01*
X930493Y493499D01*
X927494D01*
X929494D02*
X931493Y491500D01*
X910000Y501000D02*
Y506998D01*
X912999D01*
X913999Y505998D01*
Y503999D01*
X912999Y502999D01*
X910000D01*
X911999D02*
X913999Y501000D01*
X915998D02*
X917997D01*
X916998D01*
Y506998D01*
X915998Y505998D01*
X924995Y506998D02*
X920996D01*
Y503999D01*
X922996Y504999D01*
X923995D01*
X924995Y503999D01*
Y502000D01*
X923995Y501000D01*
X921996D01*
X920996Y502000D01*
X857000Y476498D02*
X858000Y477498D01*
X859999D01*
X860999Y476498D01*
Y475499D01*
X859999Y474499D01*
X858999D01*
X859999D01*
X860999Y473499D01*
Y472500D01*
X859999Y471500D01*
X858000D01*
X857000Y472500D01*
X862998Y476498D02*
X863998Y477498D01*
X865997D01*
X866997Y476498D01*
Y475499D01*
X865997Y474499D01*
X864997D01*
X865997D01*
X866997Y473499D01*
Y472500D01*
X865997Y471500D01*
X863998D01*
X862998Y472500D01*
X868996Y469501D02*
Y475499D01*
X871995D01*
X872995Y474499D01*
Y472500D01*
X871995Y471500D01*
X868996D01*
X878993Y477498D02*
X874994D01*
Y474499D01*
X876993D01*
X874994D01*
Y471500D01*
X863999Y484998D02*
X862999Y485998D01*
X861000D01*
X860000Y484998D01*
Y481000D01*
X861000Y480000D01*
X862999D01*
X863999Y481000D01*
X865998Y480000D02*
X867997D01*
X866998D01*
Y485998D01*
X865998Y484998D01*
X874995Y480000D02*
X870996D01*
X874995Y483999D01*
Y484998D01*
X873995Y485998D01*
X871996D01*
X870996Y484998D01*
X857000Y453998D02*
X858000Y454998D01*
X859999D01*
X860999Y453998D01*
Y452999D01*
X859999Y451999D01*
X858999D01*
X859999D01*
X860999Y450999D01*
Y450000D01*
X859999Y449000D01*
X858000D01*
X857000Y450000D01*
X862998Y453998D02*
X863998Y454998D01*
X865997D01*
X866997Y453998D01*
Y452999D01*
X865997Y451999D01*
X864997D01*
X865997D01*
X866997Y450999D01*
Y450000D01*
X865997Y449000D01*
X863998D01*
X862998Y450000D01*
X868996Y447001D02*
Y452999D01*
X871995D01*
X872995Y451999D01*
Y450000D01*
X871995Y449000D01*
X868996D01*
X878993Y454998D02*
X874994D01*
Y451999D01*
X876993D01*
X874994D01*
Y449000D01*
X863999Y462498D02*
X862999Y463498D01*
X861000D01*
X860000Y462498D01*
Y458500D01*
X861000Y457500D01*
X862999D01*
X863999Y458500D01*
X865998Y457500D02*
X867997D01*
X866998D01*
Y463498D01*
X865998Y462498D01*
X870996D02*
X871996Y463498D01*
X873995D01*
X874995Y462498D01*
Y461499D01*
X873995Y460499D01*
X872996D01*
X873995D01*
X874995Y459499D01*
Y458500D01*
X873995Y457500D01*
X871996D01*
X870996Y458500D01*
X900599Y423100D02*
Y429098D01*
X897600Y426099D01*
X901599D01*
X903598Y423100D02*
Y424100D01*
X904598D01*
Y423100D01*
X903598D01*
X908596Y428098D02*
X909596Y429098D01*
X911596D01*
X912595Y428098D01*
Y424100D01*
X911596Y423100D01*
X909596D01*
X908596Y424100D01*
Y428098D01*
X914594D02*
X915594Y429098D01*
X917593D01*
X918593Y428098D01*
Y424100D01*
X917593Y423100D01*
X915594D01*
X914594Y424100D01*
Y428098D01*
X920593D02*
X921592Y429098D01*
X923592D01*
X924591Y428098D01*
Y424100D01*
X923592Y423100D01*
X921592D01*
X920593Y424100D01*
Y428098D01*
X926591Y423100D02*
Y429098D01*
X928590Y427099D01*
X930589Y429098D01*
Y423100D01*
X932589Y429098D02*
Y423100D01*
Y426099D01*
X936587D01*
Y429098D01*
Y423100D01*
X938587Y427099D02*
X942585D01*
X938587Y423100D01*
X942585D01*
X903100Y439098D02*
X907099Y433100D01*
Y439098D02*
X903100Y433100D01*
X909098Y439098D02*
X913097D01*
X911097D01*
Y433100D01*
X915096Y439098D02*
Y433100D01*
X919095D01*
X921094D02*
X923094D01*
X922094D01*
Y439098D01*
X921094Y438098D01*
X1112499Y465000D02*
X1108500D01*
X1112499Y468999D01*
Y469998D01*
X1111499Y470998D01*
X1109500D01*
X1108500Y469998D01*
X1118497Y465000D02*
X1114498D01*
X1118497Y468999D01*
Y469998D01*
X1117497Y470998D01*
X1115498D01*
X1114498Y469998D01*
X1120496Y470998D02*
Y465000D01*
Y466999D01*
X1124495Y470998D01*
X1121496Y467999D01*
X1124495Y465000D01*
X1089000D02*
Y470998D01*
X1091999D01*
X1092999Y469998D01*
Y467999D01*
X1091999Y466999D01*
X1089000D01*
X1090999D02*
X1092999Y465000D01*
X1094998D02*
X1096997D01*
X1095998D01*
Y470998D01*
X1094998Y469998D01*
X1099996Y466000D02*
X1100996Y465000D01*
X1102995D01*
X1103995Y466000D01*
Y469998D01*
X1102995Y470998D01*
X1100996D01*
X1099996Y469998D01*
Y468999D01*
X1100996Y467999D01*
X1103995D01*
X809800Y735200D02*
X811799D01*
X810800D01*
Y741198D01*
X809800Y740198D01*
X814798D02*
X815798Y741198D01*
X817797D01*
X818797Y740198D01*
Y736200D01*
X817797Y735200D01*
X815798D01*
X814798Y736200D01*
Y740198D01*
X820796D02*
X821796Y741198D01*
X823796D01*
X824795Y740198D01*
Y736200D01*
X823796Y735200D01*
X821796D01*
X820796Y736200D01*
Y740198D01*
X826795Y735200D02*
Y739199D01*
X829793D01*
X830793Y738199D01*
Y735200D01*
X813799Y773798D02*
X812799Y774798D01*
X810800D01*
X809800Y773798D01*
Y769800D01*
X810800Y768800D01*
X812799D01*
X813799Y769800D01*
X818797Y768800D02*
Y774798D01*
X815798Y771799D01*
X819797D01*
X853000Y823498D02*
X854000Y824498D01*
X855999D01*
X856999Y823498D01*
Y822499D01*
X855999Y821499D01*
X854999D01*
X855999D01*
X856999Y820499D01*
Y819500D01*
X855999Y818500D01*
X854000D01*
X853000Y819500D01*
X858998Y823498D02*
X859998Y824498D01*
X861997D01*
X862997Y823498D01*
Y822499D01*
X861997Y821499D01*
X860997D01*
X861997D01*
X862997Y820499D01*
Y819500D01*
X861997Y818500D01*
X859998D01*
X858998Y819500D01*
X864996Y823498D02*
X865996Y824498D01*
X867995D01*
X868995Y823498D01*
Y819500D01*
X867995Y818500D01*
X865996D01*
X864996Y819500D01*
Y823498D01*
X870994Y818500D02*
Y824498D01*
X873993D01*
X874993Y823498D01*
Y821499D01*
X873993Y820499D01*
X870994D01*
X872993D02*
X874993Y818500D01*
X854500Y829500D02*
Y835498D01*
X857499D01*
X858499Y834498D01*
Y832499D01*
X857499Y831499D01*
X854500D01*
X856499D02*
X858499Y829500D01*
X860498D02*
X862497D01*
X861498D01*
Y835498D01*
X860498Y834498D01*
X1134000Y733500D02*
X1135999D01*
X1135000D01*
Y739498D01*
X1134000Y738498D01*
X1138998D02*
X1139998Y739498D01*
X1141997D01*
X1142997Y738498D01*
Y734500D01*
X1141997Y733500D01*
X1139998D01*
X1138998Y734500D01*
Y738498D01*
X1144996D02*
X1145996Y739498D01*
X1147995D01*
X1148995Y738498D01*
Y734500D01*
X1147995Y733500D01*
X1145996D01*
X1144996Y734500D01*
Y738498D01*
X1150994Y733500D02*
Y737499D01*
X1153994D01*
X1154993Y736499D01*
Y733500D01*
X1121999Y738498D02*
X1120999Y739498D01*
X1119000D01*
X1118000Y738498D01*
Y734500D01*
X1119000Y733500D01*
X1120999D01*
X1121999Y734500D01*
X1127997Y739498D02*
X1125997Y738498D01*
X1123998Y736499D01*
Y734500D01*
X1124998Y733500D01*
X1126997D01*
X1127997Y734500D01*
Y735499D01*
X1126997Y736499D01*
X1123998D01*
X1423000Y627000D02*
X1424999D01*
X1424000D01*
Y632998D01*
X1423000Y631998D01*
X1427998D02*
X1428998Y632998D01*
X1430997D01*
X1431997Y631998D01*
Y628000D01*
X1430997Y627000D01*
X1428998D01*
X1427998Y628000D01*
Y631998D01*
X1433996D02*
X1434996Y632998D01*
X1436996D01*
X1437995Y631998D01*
Y628000D01*
X1436996Y627000D01*
X1434996D01*
X1433996Y628000D01*
Y631998D01*
X1439995Y632998D02*
Y627000D01*
Y628999D01*
X1443993Y632998D01*
X1440994Y629999D01*
X1443993Y627000D01*
X1498000D02*
Y632998D01*
X1500999D01*
X1501999Y631998D01*
Y629999D01*
X1500999Y628999D01*
X1498000D01*
X1499999D02*
X1501999Y627000D01*
X1507997D02*
X1503998D01*
X1507997Y630999D01*
Y631998D01*
X1506997Y632998D01*
X1504998D01*
X1503998Y631998D01*
X1509996D02*
X1510996Y632998D01*
X1512995D01*
X1513995Y631998D01*
Y628000D01*
X1512995Y627000D01*
X1510996D01*
X1509996Y628000D01*
Y631998D01*
X1476500Y661500D02*
X1478499D01*
X1477500D01*
Y667498D01*
X1476500Y666498D01*
X1481498D02*
X1482498Y667498D01*
X1484497D01*
X1485497Y666498D01*
Y662500D01*
X1484497Y661500D01*
X1482498D01*
X1481498Y662500D01*
Y666498D01*
X1487496D02*
X1488496Y667498D01*
X1490495D01*
X1491495Y666498D01*
Y662500D01*
X1490495Y661500D01*
X1488496D01*
X1487496Y662500D01*
Y666498D01*
X1493495Y661500D02*
Y665499D01*
X1496494D01*
X1497493Y664499D01*
Y661500D01*
X1485399Y674898D02*
X1484399Y675898D01*
X1482400D01*
X1481400Y674898D01*
Y670900D01*
X1482400Y669900D01*
X1484399D01*
X1485399Y670900D01*
X1487398Y669900D02*
X1489397D01*
X1488398D01*
Y675898D01*
X1487398Y674898D01*
X1496395Y675898D02*
X1494396Y674898D01*
X1492396Y672899D01*
Y670900D01*
X1493396Y669900D01*
X1495395D01*
X1496395Y670900D01*
Y671899D01*
X1495395Y672899D01*
X1492396D01*
X627999Y455498D02*
X626999Y456498D01*
X625000D01*
X624000Y455498D01*
Y451500D01*
X625000Y450500D01*
X626999D01*
X627999Y451500D01*
X629998Y450500D02*
Y456498D01*
X633997Y450500D01*
Y456498D01*
X635996Y455498D02*
X636996Y456498D01*
X638995D01*
X639995Y455498D01*
Y454499D01*
X638995Y453499D01*
X637995D01*
X638995D01*
X639995Y452499D01*
Y451500D01*
X638995Y450500D01*
X636996D01*
X635996Y451500D01*
X675500Y704000D02*
X677499D01*
X676500D01*
Y709998D01*
X675500Y708998D01*
X680498D02*
X681498Y709998D01*
X683497D01*
X684497Y708998D01*
Y705000D01*
X683497Y704000D01*
X681498D01*
X680498Y705000D01*
Y708998D01*
X686496Y707999D02*
Y705000D01*
X687496Y704000D01*
X690495D01*
Y707999D01*
X696493Y709998D02*
X692494D01*
Y706999D01*
X694494D01*
X692494D01*
Y704000D01*
X679499Y717498D02*
X678499Y718498D01*
X676500D01*
X675500Y717498D01*
Y713500D01*
X676500Y712500D01*
X678499D01*
X679499Y713500D01*
X685497Y718498D02*
X681498D01*
Y715499D01*
X683497Y716499D01*
X684497D01*
X685497Y715499D01*
Y713500D01*
X684497Y712500D01*
X682498D01*
X681498Y713500D01*
X970800Y815700D02*
X972799D01*
X971800D01*
Y821698D01*
X970800Y820698D01*
X975798D02*
X976798Y821698D01*
X978797D01*
X979797Y820698D01*
Y816700D01*
X978797Y815700D01*
X976798D01*
X975798Y816700D01*
Y820698D01*
X981796Y819699D02*
Y816700D01*
X982796Y815700D01*
X985795D01*
Y819699D01*
X991793Y821698D02*
X987794D01*
Y818699D01*
X989794D01*
X987794D01*
Y815700D01*
X974799Y853298D02*
X973799Y854298D01*
X971800D01*
X970800Y853298D01*
Y849300D01*
X971800Y848300D01*
X973799D01*
X974799Y849300D01*
X980797Y848300D02*
X976798D01*
X980797Y852299D01*
Y853298D01*
X979797Y854298D01*
X977798D01*
X976798Y853298D01*
X1146000Y877000D02*
X1147999D01*
X1147000D01*
Y882998D01*
X1146000Y881998D01*
X1150998Y880999D02*
Y878000D01*
X1151998Y877000D01*
X1154997D01*
Y880999D01*
X1160995Y882998D02*
X1156996D01*
Y879999D01*
X1158996D01*
X1156996D01*
Y877000D01*
X1134999Y881998D02*
X1133999Y882998D01*
X1132000D01*
X1131000Y881998D01*
Y878000D01*
X1132000Y877000D01*
X1133999D01*
X1134999Y878000D01*
X1136998Y877000D02*
X1138997D01*
X1137998D01*
Y882998D01*
X1136998Y881998D01*
X1131500Y418000D02*
X1133499D01*
X1132500D01*
Y423998D01*
X1131500Y422998D01*
X1136498Y421999D02*
Y419000D01*
X1137498Y418000D01*
X1140497D01*
Y421999D01*
X1146495Y423998D02*
X1142496D01*
Y420999D01*
X1144496D01*
X1142496D01*
Y418000D01*
X1134999Y432998D02*
X1133999Y433998D01*
X1132000D01*
X1131000Y432998D01*
Y429000D01*
X1132000Y428000D01*
X1133999D01*
X1134999Y429000D01*
X1136998Y428000D02*
X1138997D01*
X1137998D01*
Y433998D01*
X1136998Y432998D01*
X1145995Y433998D02*
X1141996D01*
Y430999D01*
X1143996Y431999D01*
X1144995D01*
X1145995Y430999D01*
Y429000D01*
X1144995Y428000D01*
X1142996D01*
X1141996Y429000D01*
X1232500Y471998D02*
X1233500Y472998D01*
X1235499D01*
X1236499Y471998D01*
Y470999D01*
X1235499Y469999D01*
X1234499D01*
X1235499D01*
X1236499Y468999D01*
Y468000D01*
X1235499Y467000D01*
X1233500D01*
X1232500Y468000D01*
X1238498Y467000D02*
Y468000D01*
X1239498D01*
Y467000D01*
X1238498D01*
X1243496Y471998D02*
X1244496Y472998D01*
X1246496D01*
X1247495Y471998D01*
Y470999D01*
X1246496Y469999D01*
X1245496D01*
X1246496D01*
X1247495Y468999D01*
Y468000D01*
X1246496Y467000D01*
X1244496D01*
X1243496Y468000D01*
X1249494Y470999D02*
Y468000D01*
X1250494Y467000D01*
X1253493D01*
Y470999D01*
X1259491Y472998D02*
X1255493D01*
Y469999D01*
X1257492D01*
X1255493D01*
Y467000D01*
X1243999Y480998D02*
X1242999Y481998D01*
X1241000D01*
X1240000Y480998D01*
Y477000D01*
X1241000Y476000D01*
X1242999D01*
X1243999Y477000D01*
X1245998Y476000D02*
X1247997D01*
X1246998D01*
Y481998D01*
X1245998Y480998D01*
X1250996Y476000D02*
X1252996D01*
X1251996D01*
Y481998D01*
X1250996Y480998D01*
X793999Y442500D02*
X790000D01*
X793999Y446499D01*
Y447498D01*
X792999Y448498D01*
X791000D01*
X790000Y447498D01*
X799997Y442500D02*
X795998D01*
X799997Y446499D01*
Y447498D01*
X798997Y448498D01*
X796998D01*
X795998Y447498D01*
X801996Y448498D02*
Y442500D01*
Y444499D01*
X805995Y448498D01*
X802996Y445499D01*
X805995Y442500D01*
X777500Y501500D02*
X771502D01*
Y504499D01*
X772502Y505499D01*
X774501D01*
X775501Y504499D01*
Y501500D01*
Y503499D02*
X777500Y505499D01*
Y507498D02*
Y509497D01*
Y508498D01*
X771502D01*
X772502Y507498D01*
Y512496D02*
X771502Y513496D01*
Y515495D01*
X772502Y516495D01*
X776500D01*
X777500Y515495D01*
Y513496D01*
X776500Y512496D01*
X772502D01*
X789500Y502000D02*
X783502D01*
Y504999D01*
X784502Y505999D01*
X786501D01*
X787501Y504999D01*
Y502000D01*
Y503999D02*
X789500Y505999D01*
Y507998D02*
Y509997D01*
Y508998D01*
X783502D01*
X784502Y507998D01*
X789500Y512996D02*
Y514996D01*
Y513996D01*
X783502D01*
X784502Y512996D01*
X801500Y501500D02*
X795502D01*
Y504499D01*
X796502Y505499D01*
X798501D01*
X799501Y504499D01*
Y501500D01*
Y503499D02*
X801500Y505499D01*
Y507498D02*
Y509497D01*
Y508498D01*
X795502D01*
X796502Y507498D01*
X801500Y516495D02*
Y512496D01*
X797501Y516495D01*
X796502D01*
X795502Y515495D01*
Y513496D01*
X796502Y512496D01*
X814500Y502000D02*
X808502D01*
Y504999D01*
X809502Y505999D01*
X811501D01*
X812501Y504999D01*
Y502000D01*
Y503999D02*
X814500Y505999D01*
Y507998D02*
Y509997D01*
Y508998D01*
X808502D01*
X809502Y507998D01*
Y512996D02*
X808502Y513996D01*
Y515996D01*
X809502Y516995D01*
X810501D01*
X811501Y515996D01*
Y514996D01*
Y515996D01*
X812501Y516995D01*
X813500D01*
X814500Y515996D01*
Y513996D01*
X813500Y512996D01*
X827500Y502000D02*
X821502D01*
Y504999D01*
X822502Y505999D01*
X824501D01*
X825501Y504999D01*
Y502000D01*
Y503999D02*
X827500Y505999D01*
Y507998D02*
Y509997D01*
Y508998D01*
X821502D01*
X822502Y507998D01*
X827500Y515996D02*
X821502D01*
X824501Y512996D01*
Y516995D01*
X1533000Y703000D02*
X1534999D01*
X1534000D01*
Y708998D01*
X1533000Y707998D01*
X1537998Y708998D02*
Y703000D01*
Y704999D01*
X1541997Y708998D01*
X1538998Y705999D01*
X1541997Y703000D01*
X1533500Y712500D02*
Y718498D01*
X1536499D01*
X1537499Y717498D01*
Y715499D01*
X1536499Y714499D01*
X1533500D01*
X1535499D02*
X1537499Y712500D01*
X1539498Y718498D02*
X1543497D01*
Y717498D01*
X1539498Y713500D01*
Y712500D01*
X1517000Y729998D02*
Y724000D01*
X1519999D01*
X1520999Y725000D01*
Y725999D01*
X1519999Y726999D01*
X1517000D01*
X1519999D01*
X1520999Y727999D01*
Y728998D01*
X1519999Y729998D01*
X1517000D01*
X1526997Y728998D02*
X1525997Y729998D01*
X1523998D01*
X1522998Y728998D01*
Y725000D01*
X1523998Y724000D01*
X1525997D01*
X1526997Y725000D01*
X1532995Y729998D02*
X1528996D01*
Y726999D01*
X1530995Y727999D01*
X1531995D01*
X1532995Y726999D01*
Y725000D01*
X1531995Y724000D01*
X1529996D01*
X1528996Y725000D01*
X1537993Y724000D02*
Y729998D01*
X1534994Y726999D01*
X1538993D01*
X1540992Y729998D02*
X1544991D01*
Y728998D01*
X1540992Y725000D01*
Y724000D01*
X1507500Y760498D02*
X1511499D01*
X1509499D01*
Y754500D01*
X1517497Y760498D02*
X1515497Y759498D01*
X1513498Y757499D01*
Y755500D01*
X1514498Y754500D01*
X1516497D01*
X1517497Y755500D01*
Y756499D01*
X1516497Y757499D01*
X1513498D01*
X1474000Y704000D02*
X1475999D01*
X1475000D01*
Y709998D01*
X1474000Y708998D01*
X1478998Y709998D02*
Y704000D01*
Y705999D01*
X1482997Y709998D01*
X1479998Y706999D01*
X1482997Y704000D01*
X1474000Y712500D02*
Y718498D01*
X1476999D01*
X1477999Y717498D01*
Y715499D01*
X1476999Y714499D01*
X1474000D01*
X1475999D02*
X1477999Y712500D01*
X1483997Y718498D02*
X1481997Y717498D01*
X1479998Y715499D01*
Y713500D01*
X1480998Y712500D01*
X1482997D01*
X1483997Y713500D01*
Y714499D01*
X1482997Y715499D01*
X1479998D01*
X1452500Y730498D02*
Y724500D01*
X1455499D01*
X1456499Y725500D01*
Y726499D01*
X1455499Y727499D01*
X1452500D01*
X1455499D01*
X1456499Y728499D01*
Y729498D01*
X1455499Y730498D01*
X1452500D01*
X1462497Y729498D02*
X1461497Y730498D01*
X1459498D01*
X1458498Y729498D01*
Y725500D01*
X1459498Y724500D01*
X1461497D01*
X1462497Y725500D01*
X1468495Y730498D02*
X1464496D01*
Y727499D01*
X1466496Y728499D01*
X1467495D01*
X1468495Y727499D01*
Y725500D01*
X1467495Y724500D01*
X1465496D01*
X1464496Y725500D01*
X1473493Y724500D02*
Y730498D01*
X1470494Y727499D01*
X1474493D01*
X1476492Y730498D02*
X1480491D01*
Y729498D01*
X1476492Y725500D01*
Y724500D01*
X1448000Y760998D02*
X1451999D01*
X1449999D01*
Y755000D01*
X1457997Y760998D02*
X1453998D01*
Y757999D01*
X1455997Y758999D01*
X1456997D01*
X1457997Y757999D01*
Y756000D01*
X1456997Y755000D01*
X1454998D01*
X1453998Y756000D01*
X1405000Y704500D02*
X1406999D01*
X1406000D01*
Y710498D01*
X1405000Y709498D01*
X1409998Y710498D02*
Y704500D01*
Y706499D01*
X1413997Y710498D01*
X1410998Y707499D01*
X1413997Y704500D01*
X1404500Y714000D02*
Y719998D01*
X1407499D01*
X1408499Y718998D01*
Y716999D01*
X1407499Y715999D01*
X1404500D01*
X1406499D02*
X1408499Y714000D01*
X1414497Y719998D02*
X1410498D01*
Y716999D01*
X1412497Y717999D01*
X1413497D01*
X1414497Y716999D01*
Y715000D01*
X1413497Y714000D01*
X1411498D01*
X1410498Y715000D01*
X1383000Y730498D02*
Y724500D01*
X1385999D01*
X1386999Y725500D01*
Y726499D01*
X1385999Y727499D01*
X1383000D01*
X1385999D01*
X1386999Y728499D01*
Y729498D01*
X1385999Y730498D01*
X1383000D01*
X1392997Y729498D02*
X1391997Y730498D01*
X1389998D01*
X1388998Y729498D01*
Y725500D01*
X1389998Y724500D01*
X1391997D01*
X1392997Y725500D01*
X1398995Y730498D02*
X1394996D01*
Y727499D01*
X1396996Y728499D01*
X1397995D01*
X1398995Y727499D01*
Y725500D01*
X1397995Y724500D01*
X1395996D01*
X1394996Y725500D01*
X1403993Y724500D02*
Y730498D01*
X1400994Y727499D01*
X1404993D01*
X1406992Y730498D02*
X1410991D01*
Y729498D01*
X1406992Y725500D01*
Y724500D01*
X1378500Y760998D02*
X1382499D01*
X1380499D01*
Y755000D01*
X1387497D02*
Y760998D01*
X1384498Y757999D01*
X1388497D01*
X1344500Y703500D02*
X1346499D01*
X1345500D01*
Y709498D01*
X1344500Y708498D01*
X1349498Y709498D02*
Y703500D01*
Y705499D01*
X1353497Y709498D01*
X1350498Y706499D01*
X1353497Y703500D01*
X1344500Y713000D02*
Y718998D01*
X1347499D01*
X1348499Y717998D01*
Y715999D01*
X1347499Y714999D01*
X1344500D01*
X1346499D02*
X1348499Y713000D01*
X1353497D02*
Y718998D01*
X1350498Y715999D01*
X1354497D01*
X1322500Y729998D02*
Y724000D01*
X1325499D01*
X1326499Y725000D01*
Y725999D01*
X1325499Y726999D01*
X1322500D01*
X1325499D01*
X1326499Y727999D01*
Y728998D01*
X1325499Y729998D01*
X1322500D01*
X1332497Y728998D02*
X1331497Y729998D01*
X1329498D01*
X1328498Y728998D01*
Y725000D01*
X1329498Y724000D01*
X1331497D01*
X1332497Y725000D01*
X1338495Y729998D02*
X1334496D01*
Y726999D01*
X1336495Y727999D01*
X1337495D01*
X1338495Y726999D01*
Y725000D01*
X1337495Y724000D01*
X1335496D01*
X1334496Y725000D01*
X1343493Y724000D02*
Y729998D01*
X1340494Y726999D01*
X1344493D01*
X1346492Y729998D02*
X1350491D01*
Y728998D01*
X1346492Y725000D01*
Y724000D01*
X1318000Y760998D02*
X1321999D01*
X1319999D01*
Y755000D01*
X1323998Y759998D02*
X1324998Y760998D01*
X1326997D01*
X1327997Y759998D01*
Y758999D01*
X1326997Y757999D01*
X1325997D01*
X1326997D01*
X1327997Y756999D01*
Y756000D01*
X1326997Y755000D01*
X1324998D01*
X1323998Y756000D01*
X1284000Y704500D02*
X1285999D01*
X1285000D01*
Y710498D01*
X1284000Y709498D01*
X1288998Y710498D02*
Y704500D01*
Y706499D01*
X1292997Y710498D01*
X1289998Y707499D01*
X1292997Y704500D01*
X1284000Y713500D02*
Y719498D01*
X1286999D01*
X1287999Y718498D01*
Y716499D01*
X1286999Y715499D01*
X1284000D01*
X1285999D02*
X1287999Y713500D01*
X1289998Y718498D02*
X1290998Y719498D01*
X1292997D01*
X1293997Y718498D01*
Y717499D01*
X1292997Y716499D01*
X1291997D01*
X1292997D01*
X1293997Y715499D01*
Y714500D01*
X1292997Y713500D01*
X1290998D01*
X1289998Y714500D01*
X1263500Y730498D02*
Y724500D01*
X1266499D01*
X1267499Y725500D01*
Y726499D01*
X1266499Y727499D01*
X1263500D01*
X1266499D01*
X1267499Y728499D01*
Y729498D01*
X1266499Y730498D01*
X1263500D01*
X1273497Y729498D02*
X1272497Y730498D01*
X1270498D01*
X1269498Y729498D01*
Y725500D01*
X1270498Y724500D01*
X1272497D01*
X1273497Y725500D01*
X1279495Y730498D02*
X1275496D01*
Y727499D01*
X1277495Y728499D01*
X1278495D01*
X1279495Y727499D01*
Y725500D01*
X1278495Y724500D01*
X1276496D01*
X1275496Y725500D01*
X1284493Y724500D02*
Y730498D01*
X1281494Y727499D01*
X1285493D01*
X1287492Y730498D02*
X1291491D01*
Y729498D01*
X1287492Y725500D01*
Y724500D01*
X1258000Y760998D02*
X1261999D01*
X1259999D01*
Y755000D01*
X1267997D02*
X1263998D01*
X1267997Y758999D01*
Y759998D01*
X1266997Y760998D01*
X1264998D01*
X1263998Y759998D01*
X1224000Y704000D02*
X1225999D01*
X1225000D01*
Y709998D01*
X1224000Y708998D01*
X1228998Y709998D02*
Y704000D01*
Y705999D01*
X1232997Y709998D01*
X1229998Y706999D01*
X1232997Y704000D01*
X1224500Y713500D02*
Y719498D01*
X1227499D01*
X1228499Y718498D01*
Y716499D01*
X1227499Y715499D01*
X1224500D01*
X1226499D02*
X1228499Y713500D01*
X1234497D02*
X1230498D01*
X1234497Y717499D01*
Y718498D01*
X1233497Y719498D01*
X1231498D01*
X1230498Y718498D01*
X1202000Y730498D02*
Y724500D01*
X1204999D01*
X1205999Y725500D01*
Y726499D01*
X1204999Y727499D01*
X1202000D01*
X1204999D01*
X1205999Y728499D01*
Y729498D01*
X1204999Y730498D01*
X1202000D01*
X1211997Y729498D02*
X1210997Y730498D01*
X1208998D01*
X1207998Y729498D01*
Y725500D01*
X1208998Y724500D01*
X1210997D01*
X1211997Y725500D01*
X1217995Y730498D02*
X1213996D01*
Y727499D01*
X1215996Y728499D01*
X1216995D01*
X1217995Y727499D01*
Y725500D01*
X1216995Y724500D01*
X1214996D01*
X1213996Y725500D01*
X1222993Y724500D02*
Y730498D01*
X1219994Y727499D01*
X1223993D01*
X1225992Y730498D02*
X1229991D01*
Y729498D01*
X1225992Y725500D01*
Y724500D01*
X1198500Y760998D02*
X1202499D01*
X1200499D01*
Y755000D01*
X1204498D02*
X1206497D01*
X1205498D01*
Y760998D01*
X1204498Y759998D01*
X721999Y829500D02*
Y825501D01*
X723998Y827501D02*
X720000D01*
X711999Y829500D02*
Y825501D01*
X713998Y827501D02*
X710000D01*
X662500Y420998D02*
Y415999D01*
X664999Y413500D01*
X667498Y415999D01*
Y420998D01*
X674996D02*
X669998D01*
Y413500D01*
X674996D01*
X669998Y417249D02*
X672497D01*
X677495Y413500D02*
Y420998D01*
X681244D01*
X682493Y419748D01*
Y417249D01*
X681244Y415999D01*
X677495D01*
X679994D02*
X682493Y413500D01*
X689991Y419748D02*
X688741Y420998D01*
X686242D01*
X684993Y419748D01*
Y418498D01*
X686242Y417249D01*
X688741D01*
X689991Y415999D01*
Y414750D01*
X688741Y413500D01*
X686242D01*
X684993Y414750D01*
X692490Y420998D02*
X694989D01*
X693740D01*
Y413500D01*
X692490D01*
X694989D01*
X702487Y420998D02*
X699988D01*
X698738Y419748D01*
Y414750D01*
X699988Y413500D01*
X702487D01*
X703737Y414750D01*
Y419748D01*
X702487Y420998D01*
X706236Y413500D02*
Y420998D01*
X711234Y413500D01*
Y420998D01*
X721231Y419748D02*
X722481Y420998D01*
X724980D01*
X726229Y419748D01*
Y418498D01*
X724980Y417249D01*
X723730D01*
X724980D01*
X726229Y415999D01*
Y414750D01*
X724980Y413500D01*
X722481D01*
X721231Y414750D01*
X728729Y413500D02*
Y414750D01*
X729978D01*
Y413500D01*
X728729D01*
X734977Y419748D02*
X736226Y420998D01*
X738725D01*
X739975Y419748D01*
Y414750D01*
X738725Y413500D01*
X736226D01*
X734977Y414750D01*
Y419748D01*
X617500Y832749D02*
X621832D01*
X619666Y834915D02*
Y830583D01*
X1518000Y639498D02*
Y633500D01*
X1520999D01*
X1521999Y634500D01*
Y638498D01*
X1520999Y639498D01*
X1518000D01*
X1523998D02*
X1525997D01*
X1524998D01*
Y633500D01*
X1523998D01*
X1525997D01*
X1528996D02*
Y639498D01*
X1532995Y633500D01*
Y639498D01*
X1534995Y633500D02*
X1536994D01*
X1535994D01*
Y639498D01*
X1534995Y638498D01*
X1520499Y688498D02*
X1519499Y689498D01*
X1517500D01*
X1516500Y688498D01*
Y687499D01*
X1517500Y686499D01*
X1519499D01*
X1520499Y685499D01*
Y684500D01*
X1519499Y683500D01*
X1517500D01*
X1516500Y684500D01*
X1522498Y683500D02*
Y689498D01*
X1525497D01*
X1526497Y688498D01*
Y686499D01*
X1525497Y685499D01*
X1522498D01*
X1528496Y689498D02*
Y683500D01*
Y685499D01*
X1532495Y689498D01*
X1529496Y686499D01*
X1532495Y683500D01*
X1534494D02*
Y689498D01*
X1537493D01*
X1538493Y688498D01*
Y686499D01*
X1537493Y685499D01*
X1534494D01*
X1536493D02*
X1538493Y683500D01*
X1534332Y451498D02*
X1530000D01*
Y448249D01*
X1532166D01*
X1530000D01*
Y445000D01*
X1542996D02*
X1545162D01*
X1544079D01*
Y451498D01*
X1542996Y450415D01*
X1548411Y445000D02*
X1550577D01*
X1549494D01*
Y451498D01*
X1548411Y450415D01*
X1553826Y445000D02*
X1555992D01*
X1554909D01*
Y451498D01*
X1553826Y450415D01*
X1559241Y445000D02*
X1561407D01*
X1560324D01*
Y451498D01*
X1559241Y450415D01*
X1534332Y461498D02*
X1530000D01*
Y455000D01*
X1534332D01*
X1530000Y458249D02*
X1532166D01*
X1542996Y455000D02*
X1545162D01*
X1544079D01*
Y461498D01*
X1542996Y460415D01*
X1548411Y455000D02*
X1550577D01*
X1549494D01*
Y461498D01*
X1548411Y460415D01*
X1553826Y455000D02*
X1555992D01*
X1554909D01*
Y461498D01*
X1553826Y460415D01*
X1559241D02*
X1560324Y461498D01*
X1562490D01*
X1563573Y460415D01*
Y456083D01*
X1562490Y455000D01*
X1560324D01*
X1559241Y456083D01*
Y460415D01*
X1530000Y471498D02*
Y465000D01*
X1533249D01*
X1534332Y466083D01*
Y470415D01*
X1533249Y471498D01*
X1530000D01*
X1542996Y465000D02*
X1545162D01*
X1544079D01*
Y471498D01*
X1542996Y470415D01*
X1548411Y465000D02*
X1550577D01*
X1549494D01*
Y471498D01*
X1548411Y470415D01*
X1553826D02*
X1554909Y471498D01*
X1557075D01*
X1558158Y470415D01*
Y466083D01*
X1557075Y465000D01*
X1554909D01*
X1553826Y466083D01*
Y470415D01*
X1560324Y465000D02*
X1562490D01*
X1561407D01*
Y471498D01*
X1560324Y470415D01*
X1534332Y480415D02*
X1533249Y481498D01*
X1531083D01*
X1530000Y480415D01*
Y476083D01*
X1531083Y475000D01*
X1533249D01*
X1534332Y476083D01*
X1542996Y475000D02*
X1545162D01*
X1544079D01*
Y481498D01*
X1542996Y480415D01*
X1548411Y475000D02*
X1550577D01*
X1549494D01*
Y481498D01*
X1548411Y480415D01*
X1553826D02*
X1554909Y481498D01*
X1557075D01*
X1558158Y480415D01*
Y476083D01*
X1557075Y475000D01*
X1554909D01*
X1553826Y476083D01*
Y480415D01*
X1560324D02*
X1561407Y481498D01*
X1563573D01*
X1564655Y480415D01*
Y476083D01*
X1563573Y475000D01*
X1561407D01*
X1560324Y476083D01*
Y480415D01*
X1530000Y491498D02*
Y485000D01*
X1533249D01*
X1534332Y486083D01*
Y487166D01*
X1533249Y488249D01*
X1530000D01*
X1533249D01*
X1534332Y489332D01*
Y490415D01*
X1533249Y491498D01*
X1530000D01*
X1542996Y485000D02*
X1545162D01*
X1544079D01*
Y491498D01*
X1542996Y490415D01*
X1548411D02*
X1549494Y491498D01*
X1551660D01*
X1552743Y490415D01*
Y486083D01*
X1551660Y485000D01*
X1549494D01*
X1548411Y486083D01*
Y490415D01*
X1554909Y485000D02*
X1557075D01*
X1555992D01*
Y491498D01*
X1554909Y490415D01*
X1560324Y485000D02*
X1562490D01*
X1561407D01*
Y491498D01*
X1560324Y490415D01*
X1530000Y495000D02*
Y499332D01*
X1532166Y501498D01*
X1534332Y499332D01*
Y495000D01*
Y498249D01*
X1530000D01*
X1542996Y495000D02*
X1545162D01*
X1544079D01*
Y501498D01*
X1542996Y500415D01*
X1548411D02*
X1549494Y501498D01*
X1551660D01*
X1552743Y500415D01*
Y496083D01*
X1551660Y495000D01*
X1549494D01*
X1548411Y496083D01*
Y500415D01*
X1554909Y495000D02*
X1557075D01*
X1555992D01*
Y501498D01*
X1554909Y500415D01*
X1560324D02*
X1561407Y501498D01*
X1563573D01*
X1564655Y500415D01*
Y496083D01*
X1563573Y495000D01*
X1561407D01*
X1560324Y496083D01*
Y500415D01*
X1530000Y506083D02*
X1531083Y505000D01*
X1533249D01*
X1534332Y506083D01*
Y510415D01*
X1533249Y511498D01*
X1531083D01*
X1530000Y510415D01*
Y509332D01*
X1531083Y508249D01*
X1534332D01*
X1542996Y505000D02*
X1545162D01*
X1544079D01*
Y511498D01*
X1542996Y510415D01*
X1548411D02*
X1549494Y511498D01*
X1551660D01*
X1552743Y510415D01*
Y506083D01*
X1551660Y505000D01*
X1549494D01*
X1548411Y506083D01*
Y510415D01*
X1554909D02*
X1555992Y511498D01*
X1558158D01*
X1559241Y510415D01*
Y506083D01*
X1558158Y505000D01*
X1555992D01*
X1554909Y506083D01*
Y510415D01*
X1561407Y505000D02*
X1563573D01*
X1562490D01*
Y511498D01*
X1561407Y510415D01*
X1530000Y520415D02*
X1531083Y521498D01*
X1533249D01*
X1534332Y520415D01*
Y519332D01*
X1533249Y518249D01*
X1534332Y517166D01*
Y516083D01*
X1533249Y515000D01*
X1531083D01*
X1530000Y516083D01*
Y517166D01*
X1531083Y518249D01*
X1530000Y519332D01*
Y520415D01*
X1531083Y518249D02*
X1533249D01*
X1542996Y515000D02*
X1545162D01*
X1544079D01*
Y521498D01*
X1542996Y520415D01*
X1548411D02*
X1549494Y521498D01*
X1551660D01*
X1552743Y520415D01*
Y516083D01*
X1551660Y515000D01*
X1549494D01*
X1548411Y516083D01*
Y520415D01*
X1554909D02*
X1555992Y521498D01*
X1558158D01*
X1559241Y520415D01*
Y516083D01*
X1558158Y515000D01*
X1555992D01*
X1554909Y516083D01*
Y520415D01*
X1561407D02*
X1562490Y521498D01*
X1564655D01*
X1565738Y520415D01*
Y516083D01*
X1564655Y515000D01*
X1562490D01*
X1561407Y516083D01*
Y520415D01*
X1530000Y531498D02*
X1534332D01*
Y530415D01*
X1530000Y526083D01*
Y525000D01*
X1542996Y530415D02*
X1544079Y531498D01*
X1546245D01*
X1547328Y530415D01*
Y526083D01*
X1546245Y525000D01*
X1544079D01*
X1542996Y526083D01*
Y530415D01*
X1549494Y525000D02*
X1551660D01*
X1550577D01*
Y531498D01*
X1549494Y530415D01*
X1554909Y525000D02*
X1557075D01*
X1555992D01*
Y531498D01*
X1554909Y530415D01*
X1560324Y525000D02*
X1562490D01*
X1561407D01*
Y531498D01*
X1560324Y530415D01*
X1534332Y541498D02*
X1532166Y540415D01*
X1530000Y538249D01*
Y536083D01*
X1531083Y535000D01*
X1533249D01*
X1534332Y536083D01*
Y537166D01*
X1533249Y538249D01*
X1530000D01*
X1542996Y540415D02*
X1544079Y541498D01*
X1546245D01*
X1547328Y540415D01*
Y536083D01*
X1546245Y535000D01*
X1544079D01*
X1542996Y536083D01*
Y540415D01*
X1549494Y535000D02*
X1551660D01*
X1550577D01*
Y541498D01*
X1549494Y540415D01*
X1554909Y535000D02*
X1557075D01*
X1555992D01*
Y541498D01*
X1554909Y540415D01*
X1560324D02*
X1561407Y541498D01*
X1563573D01*
X1564655Y540415D01*
Y536083D01*
X1563573Y535000D01*
X1561407D01*
X1560324Y536083D01*
Y540415D01*
X1534332Y551498D02*
X1530000D01*
Y548249D01*
X1532166Y549332D01*
X1533249D01*
X1534332Y548249D01*
Y546083D01*
X1533249Y545000D01*
X1531083D01*
X1530000Y546083D01*
X1542996Y550415D02*
X1544079Y551498D01*
X1546245D01*
X1547328Y550415D01*
Y546083D01*
X1546245Y545000D01*
X1544079D01*
X1542996Y546083D01*
Y550415D01*
X1549494Y545000D02*
X1551660D01*
X1550577D01*
Y551498D01*
X1549494Y550415D01*
X1554909D02*
X1555992Y551498D01*
X1558158D01*
X1559241Y550415D01*
Y546083D01*
X1558158Y545000D01*
X1555992D01*
X1554909Y546083D01*
Y550415D01*
X1561407Y545000D02*
X1563573D01*
X1562490D01*
Y551498D01*
X1561407Y550415D01*
X1533249Y555000D02*
Y561498D01*
X1530000Y558249D01*
X1534332D01*
X1542996Y560415D02*
X1544079Y561498D01*
X1546245D01*
X1547328Y560415D01*
Y556083D01*
X1546245Y555000D01*
X1544079D01*
X1542996Y556083D01*
Y560415D01*
X1549494Y555000D02*
X1551660D01*
X1550577D01*
Y561498D01*
X1549494Y560415D01*
X1554909D02*
X1555992Y561498D01*
X1558158D01*
X1559241Y560415D01*
Y556083D01*
X1558158Y555000D01*
X1555992D01*
X1554909Y556083D01*
Y560415D01*
X1561407D02*
X1562490Y561498D01*
X1564655D01*
X1565738Y560415D01*
Y556083D01*
X1564655Y555000D01*
X1562490D01*
X1561407Y556083D01*
Y560415D01*
X1530000Y570415D02*
X1531083Y571498D01*
X1533249D01*
X1534332Y570415D01*
Y569332D01*
X1533249Y568249D01*
X1532166D01*
X1533249D01*
X1534332Y567166D01*
Y566083D01*
X1533249Y565000D01*
X1531083D01*
X1530000Y566083D01*
X1542996Y570415D02*
X1544079Y571498D01*
X1546245D01*
X1547328Y570415D01*
Y566083D01*
X1546245Y565000D01*
X1544079D01*
X1542996Y566083D01*
Y570415D01*
X1549494D02*
X1550577Y571498D01*
X1552743D01*
X1553826Y570415D01*
Y566083D01*
X1552743Y565000D01*
X1550577D01*
X1549494Y566083D01*
Y570415D01*
X1555992Y565000D02*
X1558158D01*
X1557075D01*
Y571498D01*
X1555992Y570415D01*
X1561407Y565000D02*
X1563573D01*
X1562490D01*
Y571498D01*
X1561407Y570415D01*
X1534332Y575000D02*
X1530000D01*
X1534332Y579332D01*
Y580415D01*
X1533249Y581498D01*
X1531083D01*
X1530000Y580415D01*
X1542996D02*
X1544079Y581498D01*
X1546245D01*
X1547328Y580415D01*
Y576083D01*
X1546245Y575000D01*
X1544079D01*
X1542996Y576083D01*
Y580415D01*
X1549494D02*
X1550577Y581498D01*
X1552743D01*
X1553826Y580415D01*
Y576083D01*
X1552743Y575000D01*
X1550577D01*
X1549494Y576083D01*
Y580415D01*
X1555992Y575000D02*
X1558158D01*
X1557075D01*
Y581498D01*
X1555992Y580415D01*
X1561407D02*
X1562490Y581498D01*
X1564655D01*
X1565738Y580415D01*
Y576083D01*
X1564655Y575000D01*
X1562490D01*
X1561407Y576083D01*
Y580415D01*
X1532000Y585000D02*
X1534166D01*
X1533083D01*
Y591498D01*
X1532000Y590415D01*
X1543913D02*
X1544996Y591498D01*
X1547162D01*
X1548245Y590415D01*
Y586083D01*
X1547162Y585000D01*
X1544996D01*
X1543913Y586083D01*
Y590415D01*
X1550411D02*
X1551494Y591498D01*
X1553660D01*
X1554743Y590415D01*
Y586083D01*
X1553660Y585000D01*
X1551494D01*
X1550411Y586083D01*
Y590415D01*
X1556909D02*
X1557992Y591498D01*
X1560158D01*
X1561241Y590415D01*
Y586083D01*
X1560158Y585000D01*
X1557992D01*
X1556909Y586083D01*
Y590415D01*
X1563406Y585000D02*
X1565572D01*
X1564489D01*
Y591498D01*
X1563406Y590415D01*
X1530000Y600415D02*
X1531083Y601498D01*
X1533249D01*
X1534332Y600415D01*
Y596083D01*
X1533249Y595000D01*
X1531083D01*
X1530000Y596083D01*
Y600415D01*
X1542996D02*
X1544079Y601498D01*
X1546245D01*
X1547328Y600415D01*
Y596083D01*
X1546245Y595000D01*
X1544079D01*
X1542996Y596083D01*
Y600415D01*
X1549494D02*
X1550577Y601498D01*
X1552743D01*
X1553826Y600415D01*
Y596083D01*
X1552743Y595000D01*
X1550577D01*
X1549494Y596083D01*
Y600415D01*
X1555992D02*
X1557075Y601498D01*
X1559241D01*
X1560324Y600415D01*
Y596083D01*
X1559241Y595000D01*
X1557075D01*
X1555992Y596083D01*
Y600415D01*
X1562490D02*
X1563573Y601498D01*
X1565738D01*
X1566821Y600415D01*
Y596083D01*
X1565738Y595000D01*
X1563573D01*
X1562490Y596083D01*
Y600415D01*
X1064000Y527498D02*
Y521500D01*
X1066999D01*
X1067999Y522500D01*
Y523499D01*
X1066999Y524499D01*
X1064000D01*
X1066999D01*
X1067999Y525499D01*
Y526498D01*
X1066999Y527498D01*
X1064000D01*
X1069998D02*
Y522500D01*
X1070998Y521500D01*
X1072997D01*
X1073997Y522500D01*
Y527498D01*
X1079995D02*
X1075996D01*
Y524499D01*
X1077995D01*
X1075996D01*
Y521500D01*
X1085993Y527498D02*
X1081994D01*
Y524499D01*
X1083994D01*
X1081994D01*
Y521500D01*
X1091991Y527498D02*
X1087992D01*
Y521500D01*
X1091991D01*
X1087992Y524499D02*
X1089992D01*
X1093990Y521500D02*
Y527498D01*
X1096989D01*
X1097989Y526498D01*
Y524499D01*
X1096989Y523499D01*
X1093990D01*
X1095990D02*
X1097989Y521500D01*
X1058500Y537498D02*
Y531500D01*
Y533499D01*
X1062499Y537498D01*
X1059500Y534499D01*
X1062499Y531500D01*
X1068497Y537498D02*
X1064498D01*
Y531500D01*
X1068497D01*
X1064498Y534499D02*
X1066497D01*
X1070496Y537498D02*
Y536498D01*
X1072495Y534499D01*
X1074495Y536498D01*
Y537498D01*
X1072495Y534499D02*
Y531500D01*
X1076494Y537498D02*
Y531500D01*
X1079493D01*
X1080493Y532500D01*
Y533499D01*
X1079493Y534499D01*
X1076494D01*
X1079493D01*
X1080493Y535499D01*
Y536498D01*
X1079493Y537498D01*
X1076494D01*
X1085491D02*
X1083492D01*
X1082492Y536498D01*
Y532500D01*
X1083492Y531500D01*
X1085491D01*
X1086491Y532500D01*
Y536498D01*
X1085491Y537498D01*
X1088490Y531500D02*
Y535499D01*
X1090490Y537498D01*
X1092489Y535499D01*
Y531500D01*
Y534499D01*
X1088490D01*
X1094488Y531500D02*
Y537498D01*
X1097487D01*
X1098487Y536498D01*
Y534499D01*
X1097487Y533499D01*
X1094488D01*
X1096488D02*
X1098487Y531500D01*
X1100486Y537498D02*
Y531500D01*
X1103485D01*
X1104485Y532500D01*
Y536498D01*
X1103485Y537498D01*
X1100486D01*
X855332Y419998D02*
X851000D01*
Y416749D01*
X853166D01*
X851000D01*
Y413500D01*
X857498D02*
Y417832D01*
X859664Y419998D01*
X861830Y417832D01*
Y413500D01*
Y416749D01*
X857498D01*
X868328Y418915D02*
X867245Y419998D01*
X865079D01*
X863996Y418915D01*
Y417832D01*
X865079Y416749D01*
X867245D01*
X868328Y415666D01*
Y414583D01*
X867245Y413500D01*
X865079D01*
X863996Y414583D01*
X870494Y419998D02*
X874826D01*
X872660D01*
Y413500D01*
X815332Y418915D02*
X814249Y419998D01*
X812083D01*
X811000Y418915D01*
Y417832D01*
X812083Y416749D01*
X814249D01*
X815332Y415666D01*
Y414583D01*
X814249Y413500D01*
X812083D01*
X811000Y414583D01*
X817498Y419998D02*
Y413500D01*
X821830D01*
X827245Y419998D02*
X825079D01*
X823996Y418915D01*
Y414583D01*
X825079Y413500D01*
X827245D01*
X828328Y414583D01*
Y418915D01*
X827245Y419998D01*
X830494D02*
Y413500D01*
X832660Y415666D01*
X834826Y413500D01*
Y419998D01*
X1195000Y462998D02*
Y456500D01*
Y458666D01*
X1199332Y462998D01*
X1196083Y459749D01*
X1199332Y456500D01*
X1205830Y462998D02*
X1201498D01*
Y456500D01*
X1205830D01*
X1201498Y459749D02*
X1203664D01*
X1207996Y462998D02*
Y461915D01*
X1210162Y459749D01*
X1212328Y461915D01*
Y462998D01*
X1210162Y459749D02*
Y456500D01*
X1214494Y462998D02*
Y456500D01*
X1217743D01*
X1218826Y457583D01*
Y458666D01*
X1217743Y459749D01*
X1214494D01*
X1217743D01*
X1218826Y460832D01*
Y461915D01*
X1217743Y462998D01*
X1214494D01*
X1224241D02*
X1222075D01*
X1220992Y461915D01*
Y457583D01*
X1222075Y456500D01*
X1224241D01*
X1225323Y457583D01*
Y461915D01*
X1224241Y462998D01*
X1227489Y456500D02*
Y460832D01*
X1229655Y462998D01*
X1231821Y460832D01*
Y456500D01*
Y459749D01*
X1227489D01*
X1233987Y456500D02*
Y462998D01*
X1237236D01*
X1238319Y461915D01*
Y459749D01*
X1237236Y458666D01*
X1233987D01*
X1236153D02*
X1238319Y456500D01*
X1240485Y462998D02*
Y456500D01*
X1243734D01*
X1244817Y457583D01*
Y461915D01*
X1243734Y462998D01*
X1240485D01*
X1202332Y453498D02*
X1198000D01*
Y447000D01*
X1202332D01*
X1198000Y450249D02*
X1200166D01*
X1204498Y447000D02*
Y453498D01*
X1208830Y447000D01*
Y453498D01*
X1215328Y452415D02*
X1214245Y453498D01*
X1212079D01*
X1210996Y452415D01*
Y448083D01*
X1212079Y447000D01*
X1214245D01*
X1215328Y448083D01*
X1220743Y453498D02*
X1218577D01*
X1217494Y452415D01*
Y448083D01*
X1218577Y447000D01*
X1220743D01*
X1221826Y448083D01*
Y452415D01*
X1220743Y453498D01*
X1223992D02*
Y447000D01*
X1227241D01*
X1228323Y448083D01*
Y452415D01*
X1227241Y453498D01*
X1223992D01*
X1234821D02*
X1230490D01*
Y447000D01*
X1234821D01*
X1230490Y450249D02*
X1232656D01*
X1236987Y447000D02*
Y453498D01*
X1240236D01*
X1241319Y452415D01*
Y450249D01*
X1240236Y449166D01*
X1236987D01*
X1239153D02*
X1241319Y447000D01*
X895999Y405498D02*
X893666D01*
X892500Y404331D01*
Y399666D01*
X893666Y398500D01*
X895999D01*
X897165Y399666D01*
Y404331D01*
X895999Y405498D01*
X904163Y404331D02*
X902997Y405498D01*
X900664D01*
X899498Y404331D01*
Y403165D01*
X900664Y401999D01*
X902997D01*
X904163Y400833D01*
Y399666D01*
X902997Y398500D01*
X900664D01*
X899498Y399666D01*
X911161Y404331D02*
X909994Y405498D01*
X907662D01*
X906495Y404331D01*
Y399666D01*
X907662Y398500D01*
X909994D01*
X911161Y399666D01*
X913493Y405498D02*
X915826D01*
X914660D01*
Y398500D01*
X913493D01*
X915826D01*
X919325Y405498D02*
Y398500D01*
X923990D01*
X926322Y405498D02*
Y398500D01*
X930988D01*
X933320D02*
Y403165D01*
X935653Y405498D01*
X937985Y403165D01*
Y398500D01*
Y401999D01*
X933320D01*
X940318Y405498D02*
X944983D01*
X942651D01*
Y398500D01*
X950815Y405498D02*
X948482D01*
X947316Y404331D01*
Y399666D01*
X948482Y398500D01*
X950815D01*
X951981Y399666D01*
Y404331D01*
X950815Y405498D01*
X954313Y398500D02*
Y405498D01*
X957812D01*
X958978Y404331D01*
Y401999D01*
X957812Y400833D01*
X954313D01*
X956646D02*
X958978Y398500D01*
X965976Y404331D02*
X964810Y405498D01*
X962477D01*
X961311Y404331D01*
Y403165D01*
X962477Y401999D01*
X964810D01*
X965976Y400833D01*
Y399666D01*
X964810Y398500D01*
X962477D01*
X961311Y399666D01*
X679000Y462000D02*
Y468498D01*
X681166Y466332D01*
X683332Y468498D01*
Y462000D01*
X685498Y468498D02*
X687664D01*
X686581D01*
Y462000D01*
X685498D01*
X687664D01*
X695245Y467415D02*
X694162Y468498D01*
X691996D01*
X690913Y467415D01*
Y463083D01*
X691996Y462000D01*
X694162D01*
X695245Y463083D01*
X697411Y462000D02*
Y468498D01*
X700660D01*
X701743Y467415D01*
Y465249D01*
X700660Y464166D01*
X697411D01*
X699577D02*
X701743Y462000D01*
X707158Y468498D02*
X704992D01*
X703909Y467415D01*
Y463083D01*
X704992Y462000D01*
X707158D01*
X708241Y463083D01*
Y467415D01*
X707158Y468498D01*
X710406Y462000D02*
Y468498D01*
X713656D01*
X714739Y467415D01*
Y465249D01*
X713656Y464166D01*
X710406D01*
X716904Y462000D02*
Y468498D01*
X720153D01*
X721236Y467415D01*
Y465249D01*
X720153Y464166D01*
X716904D01*
X719070D02*
X721236Y462000D01*
X726651Y468498D02*
X724485D01*
X723402Y467415D01*
Y463083D01*
X724485Y462000D01*
X726651D01*
X727734Y463083D01*
Y467415D01*
X726651Y468498D01*
X734232Y467415D02*
X733149Y468498D01*
X730983D01*
X729900Y467415D01*
Y463083D01*
X730983Y462000D01*
X733149D01*
X734232Y463083D01*
X740730Y468498D02*
X736398D01*
Y462000D01*
X740730D01*
X736398Y465249D02*
X738564D01*
X747228Y467415D02*
X746145Y468498D01*
X743979D01*
X742896Y467415D01*
Y466332D01*
X743979Y465249D01*
X746145D01*
X747228Y464166D01*
Y463083D01*
X746145Y462000D01*
X743979D01*
X742896Y463083D01*
X753726Y467415D02*
X752643Y468498D01*
X750477D01*
X749394Y467415D01*
Y466332D01*
X750477Y465249D01*
X752643D01*
X753726Y464166D01*
Y463083D01*
X752643Y462000D01*
X750477D01*
X749394Y463083D01*
X759141Y468498D02*
X756975D01*
X755892Y467415D01*
Y463083D01*
X756975Y462000D01*
X759141D01*
X760224Y463083D01*
Y467415D01*
X759141Y468498D01*
X762390Y462000D02*
Y468498D01*
X765639D01*
X766722Y467415D01*
Y465249D01*
X765639Y464166D01*
X762390D01*
X764556D02*
X766722Y462000D01*
X767000Y741000D02*
Y747498D01*
X770249D01*
X771332Y746415D01*
Y744249D01*
X770249Y743166D01*
X767000D01*
X776747Y747498D02*
X774581D01*
X773498Y746415D01*
Y742083D01*
X774581Y741000D01*
X776747D01*
X777830Y742083D01*
Y746415D01*
X776747Y747498D01*
X779996D02*
Y741000D01*
X782162Y743166D01*
X784328Y741000D01*
Y747498D01*
X790826D02*
X786494D01*
Y741000D01*
X790826D01*
X786494Y744249D02*
X788660D01*
X792992Y741000D02*
Y747498D01*
X796241D01*
X797324Y746415D01*
Y744249D01*
X796241Y743166D01*
X792992D01*
X795158D02*
X797324Y741000D01*
X767832Y735915D02*
X766749Y736998D01*
X764583D01*
X763500Y735915D01*
Y734832D01*
X764583Y733749D01*
X766749D01*
X767832Y732666D01*
Y731583D01*
X766749Y730500D01*
X764583D01*
X763500Y731583D01*
X769998Y736998D02*
Y731583D01*
X771081Y730500D01*
X773247D01*
X774330Y731583D01*
Y736998D01*
X776496Y730500D02*
Y736998D01*
X779745D01*
X780828Y735915D01*
Y733749D01*
X779745Y732666D01*
X776496D01*
X782994Y730500D02*
Y736998D01*
X786243D01*
X787326Y735915D01*
Y733749D01*
X786243Y732666D01*
X782994D01*
X789492Y736998D02*
Y730500D01*
X793823D01*
X795990Y736998D02*
Y735915D01*
X798155Y733749D01*
X800321Y735915D01*
Y736998D01*
X798155Y733749D02*
Y730500D01*
X837332Y523998D02*
X833000D01*
Y517500D01*
X837332D01*
X833000Y520749D02*
X835166D01*
X839498Y517500D02*
Y523998D01*
X842747D01*
X843830Y522915D01*
Y520749D01*
X842747Y519666D01*
X839498D01*
X845996Y517500D02*
Y523998D01*
X849245D01*
X850328Y522915D01*
Y520749D01*
X849245Y519666D01*
X845996D01*
X848162D02*
X850328Y517500D01*
X855743Y523998D02*
X853577D01*
X852494Y522915D01*
Y518583D01*
X853577Y517500D01*
X855743D01*
X856826Y518583D01*
Y522915D01*
X855743Y523998D01*
X858992Y517500D02*
Y523998D01*
X861158Y521832D01*
X863323Y523998D01*
Y517500D01*
X946000D02*
Y523998D01*
X949249D01*
X950332Y522915D01*
Y520749D01*
X949249Y519666D01*
X946000D01*
X948166D02*
X950332Y517500D01*
X952498D02*
Y521832D01*
X954664Y523998D01*
X956830Y521832D01*
Y517500D01*
Y520749D01*
X952498D01*
X958996Y517500D02*
Y523998D01*
X961162Y521832D01*
X963328Y523998D01*
Y517500D01*
X955500Y812998D02*
X957666D01*
X956583D01*
Y806500D01*
X955500D01*
X957666D01*
X960915D02*
X965247Y810832D01*
X970662Y812998D02*
X968496D01*
X967413Y811915D01*
Y807583D01*
X968496Y806500D01*
X970662D01*
X971745Y807583D01*
Y811915D01*
X970662Y812998D01*
X955500Y801498D02*
Y795000D01*
X958749D01*
X959832Y796083D01*
Y800415D01*
X958749Y801498D01*
X955500D01*
X966330D02*
X961998D01*
Y795000D01*
X966330D01*
X961998Y798249D02*
X964164D01*
X972828Y800415D02*
X971745Y801498D01*
X969579D01*
X968496Y800415D01*
Y796083D01*
X969579Y795000D01*
X971745D01*
X972828Y796083D01*
X978243Y801498D02*
X976077D01*
X974994Y800415D01*
Y796083D01*
X976077Y795000D01*
X978243D01*
X979326Y796083D01*
Y800415D01*
X978243Y801498D01*
X981492D02*
Y795000D01*
X984741D01*
X985824Y796083D01*
Y800415D01*
X984741Y801498D01*
X981492D01*
X992321D02*
X987990D01*
Y795000D01*
X992321D01*
X987990Y798249D02*
X990156D01*
X994487Y795000D02*
Y801498D01*
X997736D01*
X998819Y800415D01*
Y798249D01*
X997736Y797166D01*
X994487D01*
X996653D02*
X998819Y795000D01*
X830000Y721500D02*
Y727998D01*
X832166Y725832D01*
X834332Y727998D01*
Y721500D01*
X840830Y727998D02*
X836498D01*
Y721500D01*
X840830D01*
X836498Y724749D02*
X838664D01*
X842996Y721500D02*
Y727998D01*
X845162Y725832D01*
X847328Y727998D01*
Y721500D01*
X852743Y727998D02*
X850577D01*
X849494Y726915D01*
Y722583D01*
X850577Y721500D01*
X852743D01*
X853826Y722583D01*
Y726915D01*
X852743Y727998D01*
X855992Y721500D02*
Y727998D01*
X859241D01*
X860324Y726915D01*
Y724749D01*
X859241Y723666D01*
X855992D01*
X858158D02*
X860324Y721500D01*
X862490Y727998D02*
Y726915D01*
X864655Y724749D01*
X866821Y726915D01*
Y727998D01*
X864655Y724749D02*
Y721500D01*
X830000Y718998D02*
Y712500D01*
X833249D01*
X834332Y713583D01*
Y717915D01*
X833249Y718998D01*
X830000D01*
X840830D02*
X836498D01*
Y712500D01*
X840830D01*
X836498Y715749D02*
X838664D01*
X847328Y717915D02*
X846245Y718998D01*
X844079D01*
X842996Y717915D01*
Y713583D01*
X844079Y712500D01*
X846245D01*
X847328Y713583D01*
X852743Y718998D02*
X850577D01*
X849494Y717915D01*
Y713583D01*
X850577Y712500D01*
X852743D01*
X853826Y713583D01*
Y717915D01*
X852743Y718998D01*
X855992D02*
Y712500D01*
X859241D01*
X860324Y713583D01*
Y717915D01*
X859241Y718998D01*
X855992D01*
X866821D02*
X862490D01*
Y712500D01*
X866821D01*
X862490Y715749D02*
X864655D01*
X868987Y712500D02*
Y718998D01*
X872236D01*
X873319Y717915D01*
Y715749D01*
X872236Y714666D01*
X868987D01*
X871153D02*
X873319Y712500D01*
X1036000Y820998D02*
Y815000D01*
X1038999D01*
X1039999Y816000D01*
Y819998D01*
X1038999Y820998D01*
X1036000D01*
X1041998D02*
X1043997D01*
X1042998D01*
Y815000D01*
X1041998D01*
X1043997D01*
X1050995Y819998D02*
X1049996Y820998D01*
X1047996D01*
X1046996Y819998D01*
Y818999D01*
X1047996Y817999D01*
X1049996D01*
X1050995Y816999D01*
Y816000D01*
X1049996Y815000D01*
X1047996D01*
X1046996Y816000D01*
X1052995Y815000D02*
Y820998D01*
X1055993D01*
X1056993Y819998D01*
Y817999D01*
X1055993Y816999D01*
X1052995D01*
X1058993Y820998D02*
Y815000D01*
X1062991D01*
X1064991D02*
Y818999D01*
X1066990Y820998D01*
X1068989Y818999D01*
Y815000D01*
Y817999D01*
X1064991D01*
X1070989Y820998D02*
Y819998D01*
X1072988Y817999D01*
X1074987Y819998D01*
Y820998D01*
X1072988Y817999D02*
Y815000D01*
X1024500Y800998D02*
Y795000D01*
X1028499D01*
X1030498D02*
Y798999D01*
X1032497Y800998D01*
X1034497Y798999D01*
Y795000D01*
Y797999D01*
X1030498D01*
X1036496Y800998D02*
X1040495D01*
X1038496D01*
Y795000D01*
X1046493Y799998D02*
X1045493Y800998D01*
X1043494D01*
X1042494Y799998D01*
Y796000D01*
X1043494Y795000D01*
X1045493D01*
X1046493Y796000D01*
X1048492Y800998D02*
Y795000D01*
Y797999D01*
X1052491D01*
Y800998D01*
Y795000D01*
X1044500Y694998D02*
Y689000D01*
X1047499D01*
X1048499Y690000D01*
Y693998D01*
X1047499Y694998D01*
X1044500D01*
X1050498D02*
X1052497D01*
X1051498D01*
Y689000D01*
X1050498D01*
X1052497D01*
X1059495Y693998D02*
X1058496Y694998D01*
X1056496D01*
X1055496Y693998D01*
Y692999D01*
X1056496Y691999D01*
X1058496D01*
X1059495Y690999D01*
Y690000D01*
X1058496Y689000D01*
X1056496D01*
X1055496Y690000D01*
X1061495Y689000D02*
Y694998D01*
X1064493D01*
X1065493Y693998D01*
Y691999D01*
X1064493Y690999D01*
X1061495D01*
X1067493Y694998D02*
Y689000D01*
X1071491D01*
X1073491D02*
Y692999D01*
X1075490Y694998D01*
X1077489Y692999D01*
Y689000D01*
Y691999D01*
X1073491D01*
X1079489Y694998D02*
Y693998D01*
X1081488Y691999D01*
X1083487Y693998D01*
Y694998D01*
X1081488Y691999D02*
Y689000D01*
X1048999Y683998D02*
X1047999Y684998D01*
X1046000D01*
X1045000Y683998D01*
Y682999D01*
X1046000Y681999D01*
X1047999D01*
X1048999Y680999D01*
Y680000D01*
X1047999Y679000D01*
X1046000D01*
X1045000Y680000D01*
X1054997Y683998D02*
X1053997Y684998D01*
X1051998D01*
X1050998Y683998D01*
Y680000D01*
X1051998Y679000D01*
X1053997D01*
X1054997Y680000D01*
X1056996Y679000D02*
Y682999D01*
X1058996Y684998D01*
X1060995Y682999D01*
Y679000D01*
Y681999D01*
X1056996D01*
X1062994Y679000D02*
Y684998D01*
X1066993Y679000D01*
Y684998D01*
X1039000Y674998D02*
Y669000D01*
X1042999D01*
X1044998D02*
Y672999D01*
X1046997Y674998D01*
X1048997Y672999D01*
Y669000D01*
Y671999D01*
X1044998D01*
X1050996Y674998D02*
X1054995D01*
X1052995D01*
Y669000D01*
X1060993Y673998D02*
X1059993Y674998D01*
X1057994D01*
X1056994Y673998D01*
Y670000D01*
X1057994Y669000D01*
X1059993D01*
X1060993Y670000D01*
X1062992Y674998D02*
Y669000D01*
Y671999D01*
X1066991D01*
Y674998D01*
Y669000D01*
X1027999Y809998D02*
X1026999Y810998D01*
X1025000D01*
X1024000Y809998D01*
Y808999D01*
X1025000Y807999D01*
X1026999D01*
X1027999Y806999D01*
Y806000D01*
X1026999Y805000D01*
X1025000D01*
X1024000Y806000D01*
X1033997Y810998D02*
X1029998D01*
Y805000D01*
X1033997D01*
X1029998Y807999D02*
X1031997D01*
X1039995Y809998D02*
X1038995Y810998D01*
X1036996D01*
X1035996Y809998D01*
Y806000D01*
X1036996Y805000D01*
X1038995D01*
X1039995Y806000D01*
Y807999D01*
X1037996D01*
X1041994Y805000D02*
Y810998D01*
X1043993Y808999D01*
X1045993Y810998D01*
Y805000D01*
X1051991Y810998D02*
X1047992D01*
Y805000D01*
X1051991D01*
X1047992Y807999D02*
X1049992D01*
X1053990Y805000D02*
Y810998D01*
X1057989Y805000D01*
Y810998D01*
X1059988D02*
X1063987D01*
X1061988D01*
Y805000D01*
X1199000Y860000D02*
Y864332D01*
X1201166Y866498D01*
X1203332Y864332D01*
Y860000D01*
Y863249D01*
X1199000D01*
X1205498Y860000D02*
X1207664D01*
X1206581D01*
Y866498D01*
X1205498Y865415D01*
X1215245Y866498D02*
X1210913D01*
Y863249D01*
X1213079Y864332D01*
X1214162D01*
X1215245Y863249D01*
Y861083D01*
X1214162Y860000D01*
X1211996D01*
X1210913Y861083D01*
X1217411Y863249D02*
X1221743D01*
X1223909Y860000D02*
Y864332D01*
X1226075Y866498D01*
X1228241Y864332D01*
Y860000D01*
Y863249D01*
X1223909D01*
X1230406Y860000D02*
X1232572D01*
X1231489D01*
Y866498D01*
X1230406Y865415D01*
X1240153Y860000D02*
X1235821D01*
X1240153Y864332D01*
Y865415D01*
X1239070Y866498D01*
X1236904D01*
X1235821Y865415D01*
X1374000Y859500D02*
Y863832D01*
X1376166Y865998D01*
X1378332Y863832D01*
Y859500D01*
Y862749D01*
X1374000D01*
X1380498Y864915D02*
X1381581Y865998D01*
X1383747D01*
X1384830Y864915D01*
Y863832D01*
X1383747Y862749D01*
X1382664D01*
X1383747D01*
X1384830Y861666D01*
Y860583D01*
X1383747Y859500D01*
X1381581D01*
X1380498Y860583D01*
X1386996Y862749D02*
X1391328D01*
X1393494Y859500D02*
Y863832D01*
X1395660Y865998D01*
X1397826Y863832D01*
Y859500D01*
Y862749D01*
X1393494D01*
X1399992Y864915D02*
X1401075Y865998D01*
X1403241D01*
X1404323Y864915D01*
Y860583D01*
X1403241Y859500D01*
X1401075D01*
X1399992Y860583D01*
Y864915D01*
X1319000Y860000D02*
Y864332D01*
X1321166Y866498D01*
X1323332Y864332D01*
Y860000D01*
Y863249D01*
X1319000D01*
X1325498Y866498D02*
X1329830D01*
Y865415D01*
X1325498Y861083D01*
Y860000D01*
X1331996Y863249D02*
X1336328D01*
X1338494Y860000D02*
Y864332D01*
X1340660Y866498D01*
X1342826Y864332D01*
Y860000D01*
Y863249D01*
X1338494D01*
X1348241Y860000D02*
Y866498D01*
X1344992Y863249D01*
X1349323D01*
X1261500Y860000D02*
Y864332D01*
X1263666Y866498D01*
X1265832Y864332D01*
Y860000D01*
Y863249D01*
X1261500D01*
X1267998Y860000D02*
X1270164D01*
X1269081D01*
Y866498D01*
X1267998Y865415D01*
X1273413Y860000D02*
X1275579D01*
X1274496D01*
Y866498D01*
X1273413Y865415D01*
X1278828Y863249D02*
X1283160D01*
X1285326Y860000D02*
Y864332D01*
X1287492Y866498D01*
X1289658Y864332D01*
Y860000D01*
Y863249D01*
X1285326D01*
X1291823Y865415D02*
X1292906Y866498D01*
X1295072D01*
X1296155Y865415D01*
Y864332D01*
X1295072Y863249D01*
X1296155Y862166D01*
Y861083D01*
X1295072Y860000D01*
X1292906D01*
X1291823Y861083D01*
Y862166D01*
X1292906Y863249D01*
X1291823Y864332D01*
Y865415D01*
X1292906Y863249D02*
X1295072D01*
X1499000Y866498D02*
Y860000D01*
X1502249D01*
X1503332Y861083D01*
Y865415D01*
X1502249Y866498D01*
X1499000D01*
X1505498Y865415D02*
X1506581Y866498D01*
X1508747D01*
X1509830Y865415D01*
Y864332D01*
X1508747Y863249D01*
X1507664D01*
X1508747D01*
X1509830Y862166D01*
Y861083D01*
X1508747Y860000D01*
X1506581D01*
X1505498Y861083D01*
X1511996Y863249D02*
X1516328D01*
X1518494Y866498D02*
Y860000D01*
X1521743D01*
X1522826Y861083D01*
Y865415D01*
X1521743Y866498D01*
X1518494D01*
X1524992Y865415D02*
X1526075Y866498D01*
X1528241D01*
X1529323Y865415D01*
Y861083D01*
X1528241Y860000D01*
X1526075D01*
X1524992Y861083D01*
Y865415D01*
X1441500Y866498D02*
Y860000D01*
X1444749D01*
X1445832Y861083D01*
Y865415D01*
X1444749Y866498D01*
X1441500D01*
X1447998D02*
X1452330D01*
Y865415D01*
X1447998Y861083D01*
Y860000D01*
X1454496Y863249D02*
X1458828D01*
X1460994Y866498D02*
Y860000D01*
X1464243D01*
X1465326Y861083D01*
Y865415D01*
X1464243Y866498D01*
X1460994D01*
X1470741Y860000D02*
Y866498D01*
X1467492Y863249D01*
X1471824D01*
X620500Y734000D02*
Y738332D01*
X622666Y740498D01*
X624832Y738332D01*
Y734000D01*
Y737249D01*
X620500D01*
X631330Y739415D02*
X630247Y740498D01*
X628081D01*
X626998Y739415D01*
Y735083D01*
X628081Y734000D01*
X630247D01*
X631330Y735083D01*
X633496Y734000D02*
X637828Y738332D01*
X639994Y740498D02*
Y734000D01*
X643243D01*
X644326Y735083D01*
Y739415D01*
X643243Y740498D01*
X639994D01*
X650823Y739415D02*
X649741Y740498D01*
X647575D01*
X646492Y739415D01*
Y735083D01*
X647575Y734000D01*
X649741D01*
X650823Y735083D01*
X1500000Y726498D02*
Y720000D01*
X1503249D01*
X1504332Y721083D01*
Y725415D01*
X1503249Y726498D01*
X1500000D01*
X1506498Y720000D02*
X1508664D01*
X1507581D01*
Y726498D01*
X1506498Y725415D01*
X1560500Y727998D02*
Y721500D01*
X1563749D01*
X1564832Y722583D01*
Y726915D01*
X1563749Y727998D01*
X1560500D01*
X1566998Y726915D02*
X1568081Y727998D01*
X1570247D01*
X1571330Y726915D01*
Y722583D01*
X1570247Y721500D01*
X1568081D01*
X1566998Y722583D01*
Y726915D01*
X1429500Y729998D02*
Y723500D01*
X1432749D01*
X1433832Y724583D01*
Y728915D01*
X1432749Y729998D01*
X1429500D01*
X1440330Y723500D02*
X1435998D01*
X1440330Y727832D01*
Y728915D01*
X1439247Y729998D01*
X1437081D01*
X1435998Y728915D01*
X1370000Y720998D02*
Y714500D01*
X1373249D01*
X1374332Y715583D01*
Y719915D01*
X1373249Y720998D01*
X1370000D01*
X1376498Y719915D02*
X1377581Y720998D01*
X1379747D01*
X1380830Y719915D01*
Y718832D01*
X1379747Y717749D01*
X1378664D01*
X1379747D01*
X1380830Y716666D01*
Y715583D01*
X1379747Y714500D01*
X1377581D01*
X1376498Y715583D01*
X1310500Y719498D02*
Y713000D01*
X1313749D01*
X1314832Y714083D01*
Y718415D01*
X1313749Y719498D01*
X1310500D01*
X1320247Y713000D02*
Y719498D01*
X1316998Y716249D01*
X1321330D01*
X1251000Y719498D02*
Y713000D01*
X1254249D01*
X1255332Y714083D01*
Y718415D01*
X1254249Y719498D01*
X1251000D01*
X1261830D02*
X1257498D01*
Y716249D01*
X1259664Y717332D01*
X1260747D01*
X1261830Y716249D01*
Y714083D01*
X1260747Y713000D01*
X1258581D01*
X1257498Y714083D01*
X1087500Y571915D02*
X1088583Y572998D01*
X1090749D01*
X1091832Y571915D01*
Y570832D01*
X1090749Y569749D01*
X1091832Y568666D01*
Y567583D01*
X1090749Y566500D01*
X1088583D01*
X1087500Y567583D01*
Y568666D01*
X1088583Y569749D01*
X1087500Y570832D01*
Y571915D01*
X1088583Y569749D02*
X1090749D01*
X1098330Y572998D02*
X1096164Y571915D01*
X1093998Y569749D01*
Y567583D01*
X1095081Y566500D01*
X1097247D01*
X1098330Y567583D01*
Y568666D01*
X1097247Y569749D01*
X1093998D01*
X1100496Y572998D02*
Y566500D01*
Y569749D01*
X1101579Y570832D01*
X1103745D01*
X1104828Y569749D01*
Y566500D01*
X1104500Y724415D02*
X1105583Y725498D01*
X1107749D01*
X1108832Y724415D01*
Y723332D01*
X1107749Y722249D01*
X1108832Y721166D01*
Y720083D01*
X1107749Y719000D01*
X1105583D01*
X1104500Y720083D01*
Y721166D01*
X1105583Y722249D01*
X1104500Y723332D01*
Y724415D01*
X1105583Y722249D02*
X1107749D01*
X1115330Y725498D02*
X1110998D01*
Y722249D01*
X1113164Y723332D01*
X1114247D01*
X1115330Y722249D01*
Y720083D01*
X1114247Y719000D01*
X1112081D01*
X1110998Y720083D01*
X1117496Y725498D02*
Y719000D01*
Y722249D01*
X1118579Y723332D01*
X1120745D01*
X1121828Y722249D01*
Y719000D01*
X1104500Y853915D02*
X1105583Y854998D01*
X1107749D01*
X1108832Y853915D01*
Y852832D01*
X1107749Y851749D01*
X1108832Y850666D01*
Y849583D01*
X1107749Y848500D01*
X1105583D01*
X1104500Y849583D01*
Y850666D01*
X1105583Y851749D01*
X1104500Y852832D01*
Y853915D01*
X1105583Y851749D02*
X1107749D01*
X1114247Y848500D02*
Y854998D01*
X1110998Y851749D01*
X1115330D01*
X1117496Y854998D02*
Y848500D01*
Y851749D01*
X1118579Y852832D01*
X1120745D01*
X1121828Y851749D01*
Y848500D01*
X1517000Y679498D02*
Y673500D01*
X1519999D01*
X1520999Y674500D01*
Y678498D01*
X1519999Y679498D01*
X1517000D01*
X1525997D02*
X1523998D01*
X1522998Y678498D01*
Y674500D01*
X1523998Y673500D01*
X1525997D01*
X1526997Y674500D01*
Y678498D01*
X1525997Y679498D01*
X1528996D02*
Y674500D01*
X1529996Y673500D01*
X1531995D01*
X1532995Y674500D01*
Y679498D01*
X1534994D02*
X1538993D01*
X1536994D01*
Y673500D01*
X1518000Y649498D02*
Y643500D01*
X1520999D01*
X1521999Y644500D01*
Y648498D01*
X1520999Y649498D01*
X1518000D01*
X1523998D02*
X1525997D01*
X1524998D01*
Y643500D01*
X1523998D01*
X1525997D01*
X1528996D02*
Y649498D01*
X1532995Y643500D01*
Y649498D01*
X1538993Y643500D02*
X1534995D01*
X1538993Y647499D01*
Y648498D01*
X1537994Y649498D01*
X1535994D01*
X1534995Y648498D01*
X1523499Y668498D02*
X1522499Y669498D01*
X1520500D01*
X1519500Y668498D01*
Y664500D01*
X1520500Y663500D01*
X1522499D01*
X1523499Y664500D01*
Y666499D01*
X1521499D01*
X1525498Y663500D02*
Y669498D01*
X1529497Y663500D01*
Y669498D01*
X1531496D02*
Y663500D01*
X1534495D01*
X1535495Y664500D01*
Y668498D01*
X1534495Y669498D01*
X1531496D01*
X1518500Y656499D02*
X1522499D01*
X1520499Y658498D02*
Y654500D01*
X1528497Y659498D02*
X1524498D01*
Y656499D01*
X1526497Y657499D01*
X1527497D01*
X1528497Y656499D01*
Y654500D01*
X1527497Y653500D01*
X1525498D01*
X1524498Y654500D01*
X1530496Y659498D02*
Y655499D01*
X1532495Y653500D01*
X1534495Y655499D01*
Y659498D01*
X618000Y812749D02*
X622332D01*
X1005500Y839000D02*
X1007499D01*
X1006500D01*
Y844998D01*
X1005500Y843998D01*
X1382500Y638499D02*
X1386499D01*
X1384499Y640498D02*
Y636500D01*
X628499Y446498D02*
X624500D01*
Y440500D01*
X628499D01*
X624500Y443499D02*
X626499D01*
X630498Y446498D02*
X634497Y440500D01*
Y446498D02*
X630498Y440500D01*
X636496D02*
Y446498D01*
X639495D01*
X640495Y445498D01*
Y443499D01*
X639495Y442499D01*
X636496D01*
X642494Y440500D02*
Y444499D01*
X644493Y446498D01*
X646493Y444499D01*
Y440500D01*
Y443499D01*
X642494D01*
X648492Y440500D02*
Y446498D01*
X652491Y440500D01*
Y446498D01*
X658489Y445498D02*
X657489Y446498D01*
X655490D01*
X654490Y445498D01*
Y444499D01*
X655490Y443499D01*
X657489D01*
X658489Y442499D01*
Y441500D01*
X657489Y440500D01*
X655490D01*
X654490Y441500D01*
X660488Y446498D02*
X662488D01*
X661488D01*
Y440500D01*
X660488D01*
X662488D01*
X668486Y446498D02*
X666486D01*
X665487Y445498D01*
Y441500D01*
X666486Y440500D01*
X668486D01*
X669486Y441500D01*
Y445498D01*
X668486Y446498D01*
X671485Y440500D02*
Y446498D01*
X675484Y440500D01*
Y446498D01*
X1448500Y677498D02*
Y671000D01*
X1451749D01*
X1452832Y672083D01*
Y676415D01*
X1451749Y677498D01*
X1448500D01*
X1454998D02*
X1459330D01*
Y676415D01*
X1454998Y672083D01*
Y671000D01*
X626499Y794498D02*
X625499Y795498D01*
X623500D01*
X622500Y794498D01*
Y790500D01*
X623500Y789500D01*
X625499D01*
X626499Y790500D01*
X628498Y789500D02*
Y795498D01*
X632497Y789500D01*
Y795498D01*
X638495Y789500D02*
X634496D01*
X638495Y793499D01*
Y794498D01*
X637495Y795498D01*
X635496D01*
X634496Y794498D01*
X621000Y730498D02*
X623166D01*
X622083D01*
Y724000D01*
X621000D01*
X623166D01*
X626415D02*
Y730498D01*
X630747Y724000D01*
Y730498D01*
X632913Y724000D02*
Y730498D01*
X636162D01*
X637245Y729415D01*
Y727249D01*
X636162Y726166D01*
X632913D01*
X639411Y730498D02*
Y725083D01*
X640494Y724000D01*
X642660D01*
X643743Y725083D01*
Y730498D01*
X645909D02*
X650241D01*
X648075D01*
Y724000D01*
X1229300Y494999D02*
X1233299D01*
X1231299Y496998D02*
Y493000D01*
X1116499Y442200D02*
Y438201D01*
X1118498Y440201D02*
X1114500D01*
X1158700Y862001D02*
X1154701D01*
X1156701Y860002D02*
Y864000D01*
X997700Y835001D02*
X993701D01*
X995701Y833002D02*
Y837000D01*
X661499Y732200D02*
Y728201D01*
X663498Y730201D02*
X659500D01*
D46*
X716000Y827500D02*
G03*
X716000Y827500I-25000J0D01*
G01*
X1421500Y667500D02*
G03*
X1421500Y667500I-25000J0D01*
G01*
X711500Y680000D02*
G03*
X721500Y680000I5000J0D01*
G01*
X949000Y670000D02*
G03*
X959000Y670000I5000J0D01*
G01*
X844000D02*
G03*
X854000Y670000I5000J0D01*
G01*
X1201500Y575000D02*
G03*
X1211500Y575000I5000J0D01*
G01*
X1121500D02*
G03*
X1131500Y575000I5000J0D01*
G01*
X1121500Y715000D02*
G03*
X1131500Y715000I5000J0D01*
G01*
X1121500Y845000D02*
G03*
X1131500Y845000I5000J0D01*
G01*
X1430500Y671000D02*
G03*
X1430500Y699000I0J14000D01*
G01*
X894000Y790000D02*
G03*
X904000Y790000I5000J0D01*
G01*
X964000D02*
G03*
X974000Y790000I5000J0D01*
G01*
X895000Y865500D02*
G03*
X895000Y865500I-11000J0D01*
G01*
X1526000Y734000D02*
G03*
X1526000Y762000I0J14000D01*
G01*
X1466000Y734000D02*
G03*
X1466000Y762000I0J14000D01*
G01*
X1396000Y734000D02*
G03*
X1396000Y762000I0J14000D01*
G01*
X1336000Y734000D02*
G03*
X1336000Y762000I0J14000D01*
G01*
X1276000Y734000D02*
G03*
X1276000Y762000I0J14000D01*
G01*
X1216000Y734000D02*
G03*
X1216000Y762000I0J14000D01*
G01*
X1240000Y787500D02*
G03*
X1240000Y787500I-2500J0D01*
G01*
X1300000D02*
G03*
X1300000Y787500I-2500J0D01*
G01*
X1360000D02*
G03*
X1360000Y787500I-2500J0D01*
G01*
X1420000D02*
G03*
X1420000Y787500I-2500J0D01*
G01*
X1490000D02*
G03*
X1490000Y787500I-2500J0D01*
G01*
X1550000D02*
G03*
X1550000Y787500I-2500J0D01*
G01*
X1317070Y584951D02*
G03*
X1280856Y585058I-18070J12549D01*
G01*
X1367070Y584951D02*
G03*
X1330856Y585058I-18070J12549D01*
G01*
X1417070Y584951D02*
G03*
X1380856Y585058I-18070J12549D01*
G01*
X1467070Y584951D02*
G03*
X1430856Y585058I-18070J12549D01*
G01*
X1517070Y584951D02*
G03*
X1480856Y585058I-18070J12549D01*
G01*
X1317070Y534951D02*
G03*
X1280856Y535058I-18070J12549D01*
G01*
X1367070Y534951D02*
G03*
X1330856Y535058I-18070J12549D01*
G01*
X1417070Y534951D02*
G03*
X1380856Y535058I-18070J12549D01*
G01*
X1467070Y534951D02*
G03*
X1430856Y535058I-18070J12549D01*
G01*
X1517070Y534951D02*
G03*
X1480856Y535058I-18070J12549D01*
G01*
X1317070Y484951D02*
G03*
X1280856Y485058I-18070J12549D01*
G01*
X1367070Y484951D02*
G03*
X1330856Y485058I-18070J12549D01*
G01*
X1417070Y484951D02*
G03*
X1380856Y485058I-18070J12549D01*
G01*
X1467070Y484951D02*
G03*
X1430856Y485058I-18070J12549D01*
G01*
X1517070Y484951D02*
G03*
X1480856Y485058I-18070J12549D01*
G01*
X1317070Y434951D02*
G03*
X1280856Y435058I-18070J12549D01*
G01*
X1367070Y434951D02*
G03*
X1330856Y435058I-18070J12549D01*
G01*
X1417070Y434951D02*
G03*
X1380856Y435058I-18070J12549D01*
G01*
X1467070Y434951D02*
G03*
X1430856Y435058I-18070J12549D01*
G01*
X1517070Y434951D02*
G03*
X1480856Y435058I-18070J12549D01*
G01*
X1184570Y434951D02*
G03*
X1148356Y435058I-18070J12549D01*
G01*
X619700Y750800D02*
X634500D01*
X661200D02*
X663500D01*
Y759000D01*
Y780000D02*
Y787200D01*
X619800D02*
X663500D01*
X619700Y787100D02*
X619800Y787200D01*
X619700Y750800D02*
Y787100D01*
X1553500Y665000D02*
Y685000D01*
Y635000D02*
Y655000D01*
X1548500Y625000D02*
Y695000D01*
X1571000Y625000D02*
Y695000D01*
X1548500Y665000D02*
X1553500D01*
X1548500Y685000D02*
X1553500D01*
X1548500Y635000D02*
X1553500D01*
X1548500Y655000D02*
X1553500D01*
X1548500Y695000D02*
X1571000D01*
X1548500Y625000D02*
X1571000D01*
X826500Y422500D02*
X861500D01*
X826500D02*
Y437500D01*
X861500D01*
Y422500D02*
Y437500D01*
X924000Y850000D02*
X929000D01*
X924000Y840000D02*
X929000D01*
X906500Y830000D02*
X929000D01*
X906500Y860000D02*
X929000D01*
X924000Y840000D02*
Y850000D01*
X929000Y830000D02*
Y860000D01*
X906500Y830000D02*
Y860000D01*
X1524000Y440000D02*
X1569000D01*
Y607500D01*
X1524000D02*
X1569000D01*
X1524000Y440000D02*
Y607500D01*
X1426500Y671000D02*
Y699000D01*
X1430500D01*
X1426500Y671000D02*
X1430500D01*
X1172000Y800500D02*
X1183000D01*
Y881500D01*
X1172000D02*
X1183000D01*
X1172000Y800500D02*
Y881500D01*
Y719500D02*
X1183000D01*
Y800500D01*
X1172000D02*
X1183000D01*
X1172000Y719500D02*
Y800500D01*
X1501000Y649500D02*
X1512000D01*
X1501000Y670500D02*
X1512000D01*
X1501000Y649500D02*
Y670500D01*
X1512000Y649500D02*
Y670500D01*
X1126000Y730500D02*
X1147000D01*
X1126000Y719500D02*
X1147000D01*
X1126000D02*
Y730500D01*
X1147000Y719500D02*
Y730500D01*
X809500Y744500D02*
X820500D01*
X809500Y765500D02*
X820500D01*
X809500Y744500D02*
Y765500D01*
X820500Y744500D02*
Y765500D01*
X881000Y460500D02*
X902000D01*
X881000Y449500D02*
X902000D01*
X881000D02*
Y460500D01*
X902000Y449500D02*
Y460500D01*
Y469500D02*
Y480500D01*
X881000Y469500D02*
Y480500D01*
Y469500D02*
X902000D01*
X881000Y480500D02*
X902000D01*
X997000Y414500D02*
X1018000D01*
X997000Y425500D02*
X1018000D01*
Y414500D02*
Y425500D01*
X997000Y414500D02*
Y425500D01*
X1236000Y509500D02*
Y520500D01*
X1257000Y509500D02*
Y520500D01*
X1236000D02*
X1257000D01*
X1236000Y509500D02*
X1257000D01*
X1126000Y600500D02*
X1147000D01*
X1126000Y589500D02*
X1147000D01*
X1126000D02*
Y600500D01*
X1147000Y589500D02*
Y600500D01*
X878500Y674500D02*
X889500D01*
X878500Y695500D02*
X889500D01*
X878500Y674500D02*
Y695500D01*
X889500Y674500D02*
Y695500D01*
X1086000Y414500D02*
Y435500D01*
X1097000Y414500D02*
Y435500D01*
X1086000Y414500D02*
X1097000D01*
X1086000Y435500D02*
X1097000D01*
X907700Y445000D02*
X920300D01*
X907700Y485000D02*
X920300D01*
X907700Y445000D02*
Y485000D01*
X920300Y445000D02*
Y485000D01*
X621500Y690000D02*
X649500D01*
X621500Y460000D02*
X649500D01*
X621500Y585000D02*
X624500D01*
Y565000D02*
Y585000D01*
X621500Y565000D02*
X624500D01*
X1522000Y734000D02*
X1526000D01*
X1522000Y762000D02*
X1526000D01*
X1522000Y734000D02*
Y762000D01*
X1462000Y734000D02*
Y762000D01*
X1466000D01*
X1462000Y734000D02*
X1466000D01*
X1392000D02*
X1396000D01*
X1392000Y762000D02*
X1396000D01*
X1392000Y734000D02*
Y762000D01*
X1332000Y734000D02*
Y762000D01*
X1336000D01*
X1332000Y734000D02*
X1336000D01*
X1272000D02*
X1276000D01*
X1272000Y762000D02*
X1276000D01*
X1272000Y734000D02*
Y762000D01*
X1212000Y734000D02*
Y762000D01*
X1216000D01*
X1212000Y734000D02*
X1216000D01*
X1244000Y767000D02*
Y843000D01*
X1191000Y767000D02*
Y843000D01*
X1244000D01*
X1191000Y767000D02*
X1244000D01*
X1251000D02*
X1304000D01*
X1251000Y843000D02*
X1304000D01*
X1251000Y767000D02*
Y843000D01*
X1304000Y767000D02*
Y843000D01*
X1364000Y767000D02*
Y843000D01*
X1311000Y767000D02*
Y843000D01*
X1364000D01*
X1311000Y767000D02*
X1364000D01*
X1371000D02*
X1424000D01*
X1371000Y843000D02*
X1424000D01*
X1371000Y767000D02*
Y843000D01*
X1424000Y767000D02*
Y843000D01*
X1494000Y767000D02*
Y843000D01*
X1441000Y767000D02*
Y843000D01*
X1494000D01*
X1441000Y767000D02*
X1494000D01*
X1501000D02*
X1554000D01*
X1501000Y843000D02*
X1554000D01*
X1501000Y767000D02*
Y843000D01*
X1554000Y767000D02*
Y843000D01*
X1296000Y580000D02*
X1302000D01*
X1346000D02*
X1352000D01*
X1396000D02*
X1402000D01*
X1446000D02*
X1452000D01*
X1496000D02*
X1502000D01*
X1296000Y530000D02*
X1302000D01*
X1346000D02*
X1352000D01*
X1396000D02*
X1402000D01*
X1446000D02*
X1452000D01*
X1496000D02*
X1502000D01*
X1296000Y480000D02*
X1302000D01*
X1346000D02*
X1352000D01*
X1396000D02*
X1402000D01*
X1446000D02*
X1452000D01*
X1496000D02*
X1502000D01*
X1296000Y430000D02*
X1302000D01*
X1346000D02*
X1352000D01*
X1396000D02*
X1402000D01*
X1446000D02*
X1452000D01*
X1496000D02*
X1502000D01*
X1163500D02*
X1169500D01*
X684500Y721500D02*
X686499D01*
X685500D01*
Y727498D01*
X684500Y726498D01*
X689498Y721500D02*
Y727498D01*
X693497Y721500D01*
Y727498D01*
X698495Y721500D02*
Y727498D01*
X695496Y724499D01*
X699495D01*
X701495Y726498D02*
X702494Y727498D01*
X704494D01*
X705493Y726498D01*
Y722500D01*
X704494Y721500D01*
X702494D01*
X701495Y722500D01*
Y726498D01*
X707493D02*
X708492Y727498D01*
X710492D01*
X711491Y726498D01*
Y722500D01*
X710492Y721500D01*
X708492D01*
X707493Y722500D01*
Y726498D01*
X713491Y727498D02*
X717489D01*
Y726498D01*
X713491Y722500D01*
Y721500D01*
X727500Y740498D02*
Y734500D01*
X730499D01*
X731499Y735500D01*
Y739498D01*
X730499Y740498D01*
X727500D01*
X736497Y734500D02*
Y740498D01*
X733498Y737499D01*
X737497D01*
X727500Y765998D02*
Y760000D01*
X730499D01*
X731499Y761000D01*
Y764998D01*
X730499Y765998D01*
X727500D01*
X733498Y764998D02*
X734498Y765998D01*
X736497D01*
X737497Y764998D01*
Y763999D01*
X736497Y762999D01*
X735497D01*
X736497D01*
X737497Y761999D01*
Y761000D01*
X736497Y760000D01*
X734498D01*
X733498Y761000D01*
X727500Y752498D02*
Y746500D01*
X730499D01*
X731499Y747500D01*
Y751498D01*
X730499Y752498D01*
X727500D01*
X737497Y746500D02*
X733498D01*
X737497Y750499D01*
Y751498D01*
X736497Y752498D01*
X734498D01*
X733498Y751498D01*
X727500Y777998D02*
Y772000D01*
X730499D01*
X731499Y773000D01*
Y776998D01*
X730499Y777998D01*
X727500D01*
X733498Y772000D02*
X735497D01*
X734498D01*
Y777998D01*
X733498Y776998D01*
X1556499Y620998D02*
X1555499Y621998D01*
X1553500D01*
X1552500Y620998D01*
Y617000D01*
X1553500Y616000D01*
X1555499D01*
X1556499Y617000D01*
X1558498Y616000D02*
Y621998D01*
X1562497Y616000D01*
Y621998D01*
X1567495Y616000D02*
Y621998D01*
X1564496Y618999D01*
X1568495D01*
X830999Y445998D02*
X829999Y446998D01*
X828000D01*
X827000Y445998D01*
Y444999D01*
X828000Y443999D01*
X829999D01*
X830999Y442999D01*
Y442000D01*
X829999Y441000D01*
X828000D01*
X827000Y442000D01*
X832998Y446998D02*
Y441000D01*
X834997Y442999D01*
X836997Y441000D01*
Y446998D01*
X838996Y441000D02*
X840996D01*
X839996D01*
Y446998D01*
X838996Y445998D01*
X910999Y868498D02*
X909999Y869498D01*
X908000D01*
X907000Y868498D01*
Y864500D01*
X908000Y863500D01*
X909999D01*
X910999Y864500D01*
X912998Y863500D02*
Y869498D01*
X916997Y863500D01*
Y869498D01*
X922995D02*
X920996Y868498D01*
X918996Y866499D01*
Y864500D01*
X919996Y863500D01*
X921995D01*
X922995Y864500D01*
Y865499D01*
X921995Y866499D01*
X918996D01*
X1162499Y479998D02*
X1161499Y480998D01*
X1159500D01*
X1158500Y479998D01*
Y478999D01*
X1159500Y477999D01*
X1161499D01*
X1162499Y476999D01*
Y476000D01*
X1161499Y475000D01*
X1159500D01*
X1158500Y476000D01*
X1168497Y475000D02*
X1164498D01*
X1168497Y478999D01*
Y479998D01*
X1167497Y480998D01*
X1165498D01*
X1164498Y479998D01*
X1170496Y475000D02*
X1172495D01*
X1171496D01*
Y480998D01*
X1170496Y479998D01*
X1051499Y470000D02*
X1047500D01*
X1051499Y473999D01*
Y474998D01*
X1050499Y475998D01*
X1048500D01*
X1047500Y474998D01*
X1053498D02*
X1054498Y475998D01*
X1056497D01*
X1057497Y474998D01*
Y471000D01*
X1056497Y470000D01*
X1054498D01*
X1053498Y471000D01*
Y474998D01*
X1059496Y475998D02*
Y470000D01*
Y471999D01*
X1063495Y475998D01*
X1060496Y472999D01*
X1063495Y470000D01*
X1033000D02*
Y475998D01*
X1035999D01*
X1036999Y474998D01*
Y472999D01*
X1035999Y471999D01*
X1033000D01*
X1038998Y470000D02*
X1040997D01*
X1039998D01*
Y475998D01*
X1038998Y474998D01*
X1180999Y713498D02*
X1179999Y714498D01*
X1178000D01*
X1177000Y713498D01*
Y712499D01*
X1178000Y711499D01*
X1179999D01*
X1180999Y710499D01*
Y709500D01*
X1179999Y708500D01*
X1178000D01*
X1177000Y709500D01*
X1182998Y714498D02*
X1184997D01*
X1183998D01*
Y708500D01*
X1182998D01*
X1184997D01*
X1187996Y714498D02*
Y708500D01*
X1191995D01*
X1197993D02*
X1193995D01*
X1197993Y712499D01*
Y713498D01*
X1196994Y714498D01*
X1194994D01*
X1193995Y713498D01*
X1196999Y878998D02*
X1195999Y879998D01*
X1194000D01*
X1193000Y878998D01*
Y877999D01*
X1194000Y876999D01*
X1195999D01*
X1196999Y875999D01*
Y875000D01*
X1195999Y874000D01*
X1194000D01*
X1193000Y875000D01*
X1198998Y879998D02*
X1200997D01*
X1199998D01*
Y874000D01*
X1198998D01*
X1200997D01*
X1203996Y879998D02*
Y874000D01*
X1207995D01*
X1209995D02*
X1211994D01*
X1210994D01*
Y879998D01*
X1209995Y878998D01*
X1475000Y579165D02*
X1476333Y580497D01*
X1478999D01*
X1480332Y579165D01*
Y577832D01*
X1478999Y576499D01*
X1477666D01*
X1478999D01*
X1480332Y575166D01*
Y573833D01*
X1478999Y572500D01*
X1476333D01*
X1475000Y573833D01*
X1430332Y572500D02*
X1425000D01*
X1430332Y577832D01*
Y579165D01*
X1428999Y580497D01*
X1426333D01*
X1425000Y579165D01*
X1376000Y572500D02*
X1378666D01*
X1377333D01*
Y580497D01*
X1376000Y579165D01*
X1324000D02*
X1325333Y580497D01*
X1327999D01*
X1329332Y579165D01*
Y573833D01*
X1327999Y572500D01*
X1325333D01*
X1324000Y573833D01*
Y579165D01*
X936832Y841165D02*
X935999Y841998D01*
X934333D01*
X933500Y841165D01*
Y837833D01*
X934333Y837000D01*
X935999D01*
X936832Y837833D01*
Y839499D01*
X935166D01*
X938498Y837000D02*
Y841998D01*
X941831Y837000D01*
Y841998D01*
X943497D02*
Y837000D01*
X945996D01*
X946829Y837833D01*
Y841165D01*
X945996Y841998D01*
X943497D01*
X933000Y850999D02*
X936332D01*
X934666Y852665D02*
Y849333D01*
X941331Y853498D02*
X937998D01*
Y850999D01*
X939664Y851832D01*
X940498D01*
X941331Y850999D01*
Y849333D01*
X940498Y848500D01*
X938831D01*
X937998Y849333D01*
X942997Y853498D02*
Y850166D01*
X944663Y848500D01*
X946329Y850166D01*
Y853498D01*
X1386498Y657500D02*
Y650836D01*
X1389831Y654168D02*
X1383166D01*
X1386498Y682500D02*
Y675836D01*
X829165Y407831D02*
X827498Y409497D01*
X824166D01*
X822500Y407831D01*
Y406165D01*
X824166Y404498D01*
X827498D01*
X829165Y402832D01*
Y401166D01*
X827498Y399500D01*
X824166D01*
X822500Y401166D01*
X832497Y399500D02*
Y409497D01*
X837495D01*
X839161Y407831D01*
Y404498D01*
X837495Y402832D01*
X832497D01*
X849158Y409497D02*
X842494D01*
Y399500D01*
X849158D01*
X842494Y404498D02*
X845826D01*
X859155Y409497D02*
X852490D01*
Y399500D01*
X859155D01*
X852490Y404498D02*
X855823D01*
X862487Y409497D02*
Y399500D01*
X867486D01*
X869152Y401166D01*
Y407831D01*
X867486Y409497D01*
X862487D01*
X1030165Y418831D02*
X1028498Y420497D01*
X1025166D01*
X1023500Y418831D01*
Y417165D01*
X1025166Y415498D01*
X1028498D01*
X1030165Y413832D01*
Y412166D01*
X1028498Y410500D01*
X1025166D01*
X1023500Y412166D01*
X1033497Y410500D02*
Y420497D01*
X1038495D01*
X1040161Y418831D01*
Y415498D01*
X1038495Y413832D01*
X1033497D01*
X1050158Y420497D02*
X1043493D01*
Y410500D01*
X1050158D01*
X1043493Y415498D02*
X1046826D01*
X1060155Y420497D02*
X1053490D01*
Y410500D01*
X1060155D01*
X1053490Y415498D02*
X1056823D01*
X1063487Y420497D02*
Y410500D01*
X1068486D01*
X1070152Y412166D01*
Y418831D01*
X1068486Y420497D01*
X1063487D01*
X1249000Y872500D02*
Y879165D01*
X1252332Y882497D01*
X1255665Y879165D01*
Y872500D01*
Y877498D01*
X1249000D01*
X1258997Y882497D02*
Y872500D01*
X1263995D01*
X1265661Y874166D01*
Y880831D01*
X1263995Y882497D01*
X1258997D01*
X1268993D02*
Y872500D01*
X1273992D01*
X1275658Y874166D01*
Y880831D01*
X1273992Y882497D01*
X1268993D01*
X1278990Y872500D02*
Y882497D01*
X1283989D01*
X1285655Y880831D01*
Y877498D01*
X1283989Y875832D01*
X1278990D01*
X1282323D02*
X1285655Y872500D01*
X1295652Y882497D02*
X1288987D01*
Y872500D01*
X1295652D01*
X1288987Y877498D02*
X1292319D01*
X1305648Y880831D02*
X1303982Y882497D01*
X1300650D01*
X1298984Y880831D01*
Y879165D01*
X1300650Y877498D01*
X1303982D01*
X1305648Y875832D01*
Y874166D01*
X1303982Y872500D01*
X1300650D01*
X1298984Y874166D01*
X1315645Y880831D02*
X1313979Y882497D01*
X1310647D01*
X1308981Y880831D01*
Y879165D01*
X1310647Y877498D01*
X1313979D01*
X1315645Y875832D01*
Y874166D01*
X1313979Y872500D01*
X1310647D01*
X1308981Y874166D01*
X1461500Y882497D02*
Y872500D01*
X1466498D01*
X1468165Y874166D01*
Y880831D01*
X1466498Y882497D01*
X1461500D01*
X1471497Y872500D02*
Y879165D01*
X1474829Y882497D01*
X1478161Y879165D01*
Y872500D01*
Y877498D01*
X1471497D01*
X1481493Y882497D02*
X1488158D01*
X1484826D01*
Y872500D01*
X1491490D02*
Y879165D01*
X1494823Y882497D01*
X1498155Y879165D01*
Y872500D01*
Y877498D01*
X1491490D01*
X1144000Y399000D02*
Y408997D01*
X1148998D01*
X1150665Y407331D01*
Y403998D01*
X1148998Y402332D01*
X1144000D01*
X1147332D02*
X1150665Y399000D01*
X1160661Y408997D02*
X1153997D01*
Y399000D01*
X1160661D01*
X1153997Y403998D02*
X1157329D01*
X1170658Y407331D02*
X1168992Y408997D01*
X1165660D01*
X1163993Y407331D01*
Y405664D01*
X1165660Y403998D01*
X1168992D01*
X1170658Y402332D01*
Y400666D01*
X1168992Y399000D01*
X1165660D01*
X1163993Y400666D01*
X1180655Y408997D02*
X1173990D01*
Y399000D01*
X1180655D01*
X1173990Y403998D02*
X1177323D01*
X1183987Y408997D02*
X1190652D01*
X1187319D01*
Y399000D01*
X882800Y884498D02*
Y879500D01*
Y881166D01*
X886132Y884498D01*
X883633Y881999D01*
X886132Y879500D01*
X1328999Y523000D02*
Y530997D01*
X1325000Y526999D01*
X1330332D01*
X1378832Y530497D02*
X1373500D01*
Y526499D01*
X1376166Y527832D01*
X1377499D01*
X1378832Y526499D01*
Y523833D01*
X1377499Y522500D01*
X1374833D01*
X1373500Y523833D01*
X1427832Y530497D02*
X1425166Y529165D01*
X1422500Y526499D01*
Y523833D01*
X1423833Y522500D01*
X1426499D01*
X1427832Y523833D01*
Y525166D01*
X1426499Y526499D01*
X1422500D01*
X1474500Y530497D02*
X1479832D01*
Y529165D01*
X1474500Y523833D01*
Y522500D01*
X1324500Y476664D02*
X1325833Y477997D01*
X1328499D01*
X1329832Y476664D01*
Y475332D01*
X1328499Y473999D01*
X1329832Y472666D01*
Y471333D01*
X1328499Y470000D01*
X1325833D01*
X1324500Y471333D01*
Y472666D01*
X1325833Y473999D01*
X1324500Y475332D01*
Y476664D01*
X1325833Y473999D02*
X1328499D01*
X1375000Y470833D02*
X1376333Y469500D01*
X1378999D01*
X1380332Y470833D01*
Y476164D01*
X1378999Y477497D01*
X1376333D01*
X1375000Y476164D01*
Y474832D01*
X1376333Y473499D01*
X1380332D01*
X1425000Y471000D02*
Y476332D01*
X1427666Y478997D01*
X1430332Y476332D01*
Y471000D01*
Y474999D01*
X1425000D01*
X1475500Y480497D02*
Y472500D01*
X1479499D01*
X1480832Y473833D01*
Y475166D01*
X1479499Y476499D01*
X1475500D01*
X1479499D01*
X1480832Y477832D01*
Y479165D01*
X1479499Y480497D01*
X1475500D01*
X1329332Y431665D02*
X1327999Y432997D01*
X1325333D01*
X1324000Y431665D01*
Y426333D01*
X1325333Y425000D01*
X1327999D01*
X1329332Y426333D01*
X1373500Y432997D02*
Y425000D01*
X1377499D01*
X1378832Y426333D01*
Y431665D01*
X1377499Y432997D01*
X1373500D01*
X1429332Y433497D02*
X1424000D01*
Y425500D01*
X1429332D01*
X1424000Y429499D02*
X1426666D01*
X1479332Y432997D02*
X1474000D01*
Y428999D01*
X1476666D01*
X1474000D01*
Y425000D01*
X1266000Y520500D02*
Y525832D01*
X1268666Y528497D01*
X1271332Y525832D01*
Y520500D01*
Y524499D01*
X1266000D01*
X1273997Y528497D02*
Y520500D01*
X1277996D01*
X1279329Y521833D01*
Y527165D01*
X1277996Y528497D01*
X1273997D01*
X1273832Y578997D02*
X1268500D01*
Y574999D01*
X1271166D01*
X1268500D01*
Y571000D01*
X1276497D02*
Y576332D01*
X1280496D01*
X1281829Y574999D01*
Y571000D01*
X1273000Y476499D02*
X1278332D01*
X1275666Y479165D02*
Y473833D01*
X1271500Y428999D02*
X1276832D01*
D47*
X690000Y745000D02*
Y755000D01*
Y745000D02*
X710000D01*
Y755000D01*
X690000D02*
X710000D01*
X705000Y745000D02*
Y755000D01*
X710000Y757500D02*
Y767500D01*
X690000D02*
X710000D01*
X690000Y757500D02*
Y767500D01*
Y757500D02*
X710000D01*
X695000D02*
Y767500D01*
X690000Y770000D02*
Y780000D01*
Y770000D02*
X710000D01*
Y780000D01*
X690000D02*
X710000D01*
X705000Y770000D02*
Y780000D01*
X820000Y463000D02*
Y487000D01*
Y463000D02*
X828000D01*
Y487000D01*
X820000D02*
X828000D01*
X807500Y463000D02*
Y487000D01*
Y463000D02*
X815500D01*
Y487000D01*
X807500D02*
X815500D01*
X795000Y463000D02*
Y487000D01*
Y463000D02*
X803000D01*
Y487000D01*
X795000D02*
X803000D01*
X782500Y463000D02*
Y487000D01*
Y463000D02*
X790500D01*
Y487000D01*
X782500D02*
X790500D01*
X770000Y463000D02*
Y487000D01*
Y463000D02*
X778000D01*
Y487000D01*
X770000D02*
X778000D01*
X1459500Y634000D02*
X1483500D01*
X1459500Y626000D02*
Y634000D01*
Y626000D02*
X1483500D01*
Y634000D01*
X998500Y443000D02*
Y467000D01*
Y443000D02*
X1006500D01*
Y467000D01*
X998500D02*
X1006500D01*
X1459500Y636500D02*
X1483500D01*
Y644500D01*
X1459500D02*
X1483500D01*
X1459500Y636500D02*
Y644500D01*
X925000Y453000D02*
Y477000D01*
Y453000D02*
X933000D01*
Y477000D01*
X925000D02*
X933000D01*
X937500Y453000D02*
Y477000D01*
Y453000D02*
X945500D01*
Y477000D01*
X937500D02*
X945500D01*
X1011000Y443000D02*
Y467000D01*
Y443000D02*
X1019000D01*
Y467000D01*
X1011000D02*
X1019000D01*
X1099500Y453500D02*
X1123500D01*
Y461500D01*
X1099500D02*
X1123500D01*
X1099500Y453500D02*
Y461500D01*
X1459000Y689000D02*
X1483000D01*
X1459000Y681000D02*
Y689000D01*
Y681000D02*
X1483000D01*
Y689000D01*
X888000Y815500D02*
Y839500D01*
X880000D02*
X888000D01*
X880000Y815500D02*
Y839500D01*
Y815500D02*
X888000D01*
X764000Y840000D02*
Y845000D01*
Y840000D02*
X769000D01*
Y830000D02*
Y840000D01*
X764000Y830000D02*
X769000D01*
X764000Y785000D02*
Y830000D01*
Y785000D02*
X804000D01*
Y830000D01*
X799000D02*
X804000D01*
X799000D02*
Y840000D01*
X804000D01*
Y845000D01*
X764000D02*
X771500D01*
X796500D02*
X804000D01*
X649500Y460000D02*
Y690000D01*
X621500Y460000D02*
Y690000D01*
X1459500Y659000D02*
X1483500D01*
X1459500Y651000D02*
Y659000D01*
Y651000D02*
X1483500D01*
Y659000D01*
X1548500Y713000D02*
Y737000D01*
Y713000D02*
X1556500D01*
Y737000D01*
X1548500D02*
X1556500D01*
X1496500Y713000D02*
Y737000D01*
X1488500D02*
X1496500D01*
X1488500Y713000D02*
Y737000D01*
Y713000D02*
X1496500D01*
X1426500D02*
Y737000D01*
X1418500D02*
X1426500D01*
X1418500Y713000D02*
Y737000D01*
Y713000D02*
X1426500D01*
X1366500D02*
Y737000D01*
X1358500D02*
X1366500D01*
X1358500Y713000D02*
Y737000D01*
Y713000D02*
X1366500D01*
X1306500D02*
Y737000D01*
X1298500D02*
X1306500D01*
X1298500Y713000D02*
Y737000D01*
Y713000D02*
X1306500D01*
X1246500D02*
Y737000D01*
X1238500D02*
X1246500D01*
X1238500Y713000D02*
Y737000D01*
Y713000D02*
X1246500D01*
X710000Y732500D02*
Y742500D01*
X690000D02*
X710000D01*
X690000Y732500D02*
Y742500D01*
Y732500D02*
X710000D01*
X695000D02*
Y742500D01*
D48*
X1221000Y615500D02*
Y624500D01*
X1216500Y620000D02*
X1225500D01*
X1218000Y623000D02*
X1224000Y617000D01*
X1218000D02*
X1224000Y623000D01*
X1221000Y624500D02*
X1224000Y617000D01*
X1216500Y620000D02*
X1224000Y617000D01*
X1216500Y620000D02*
X1224000Y623000D01*
X1221000Y615500D02*
X1224000Y623000D01*
X1218000D02*
X1221000Y615500D01*
X1218000Y623000D02*
X1225500Y620000D01*
X1218000Y617000D02*
X1225500Y620000D01*
X1218000Y617000D02*
X1221000Y624500D01*
X1227000Y653000D02*
Y662000D01*
X1222500Y657500D02*
X1231500D01*
X1224000Y660500D02*
X1230000Y654500D01*
X1224000D02*
X1230000Y660500D01*
X1227000Y662000D02*
X1230000Y654500D01*
X1222500Y657500D02*
X1230000Y654500D01*
X1222500Y657500D02*
X1230000Y660500D01*
X1227000Y653000D02*
X1230000Y660500D01*
X1224000D02*
X1227000Y653000D01*
X1224000Y660500D02*
X1231500Y657500D01*
X1224000Y654500D02*
X1231500Y657500D01*
X1224000Y654500D02*
X1227000Y662000D01*
X1245500Y628000D02*
Y633000D01*
X1244000Y632000D02*
X1247000Y629000D01*
X1244000D02*
X1247000Y632000D01*
X1245500Y628000D02*
X1247000Y632000D01*
X1244000D02*
X1245500Y628000D01*
X1244000Y629000D02*
X1248000Y630500D01*
X1244000Y632000D02*
X1248000Y630500D01*
X1245500Y633000D02*
X1247000Y629000D01*
X1243000Y630500D02*
X1247000Y629000D01*
X1243000Y630500D02*
X1248000D01*
X1244000Y629000D02*
X1245500Y633000D01*
X1243000Y630500D02*
X1247000Y632000D01*
X1262000Y635000D02*
Y644000D01*
X1257500Y639500D02*
X1266500D01*
X1259000Y642500D02*
X1265000Y636500D01*
X1259000D02*
X1265000Y642500D01*
X1262000Y644000D02*
X1265000Y636500D01*
X1257500Y639500D02*
X1265000Y636500D01*
X1257500Y639500D02*
X1265000Y642500D01*
X1262000Y635000D02*
X1265000Y642500D01*
X1259000D02*
X1262000Y635000D01*
X1259000Y642500D02*
X1266500Y639500D01*
X1259000Y636500D02*
X1266500Y639500D01*
X1259000Y636500D02*
X1262000Y644000D01*
X1256500Y660000D02*
Y669000D01*
X1252000Y664500D02*
X1261000D01*
X1253500Y667500D02*
X1259500Y661500D01*
X1253500D02*
X1259500Y667500D01*
X1256500Y669000D02*
X1259500Y661500D01*
X1252000Y664500D02*
X1259500Y661500D01*
X1252000Y664500D02*
X1259500Y667500D01*
X1256500Y660000D02*
X1259500Y667500D01*
X1253500D02*
X1256500Y660000D01*
X1253500Y667500D02*
X1261000Y664500D01*
X1253500Y661500D02*
X1261000Y664500D01*
X1253500Y661500D02*
X1256500Y669000D01*
D49*
X1185830Y686163D02*
X1183498Y688495D01*
X1178833D01*
X1176500Y686163D01*
Y683830D01*
X1178833Y681498D01*
X1183498D01*
X1185830Y679165D01*
Y676833D01*
X1183498Y674500D01*
X1178833D01*
X1176500Y676833D01*
X1197493Y688495D02*
X1192828D01*
X1190495Y686163D01*
Y676833D01*
X1192828Y674500D01*
X1197493D01*
X1199826Y676833D01*
Y686163D01*
X1197493Y688495D01*
X1204491D02*
Y676833D01*
X1206824Y674500D01*
X1211489D01*
X1213821Y676833D01*
Y688495D01*
X1218486D02*
X1227817D01*
X1223152D01*
Y674500D01*
X1232482Y688495D02*
Y674500D01*
Y681498D01*
X1241812D01*
Y688495D01*
Y674500D01*
X1255808Y688495D02*
X1246477D01*
Y674500D01*
X1255808D01*
X1246477Y681498D02*
X1251143D01*
X1260473Y674500D02*
Y688495D01*
X1267471D01*
X1269803Y686163D01*
Y681498D01*
X1267471Y679165D01*
X1260473D01*
X1265138D02*
X1269803Y674500D01*
X1274468D02*
Y688495D01*
X1283799Y674500D01*
Y688495D01*
X1311790Y686163D02*
X1309457Y688495D01*
X1304792D01*
X1302459Y686163D01*
Y676833D01*
X1304792Y674500D01*
X1309457D01*
X1311790Y676833D01*
X1316455Y674500D02*
Y688495D01*
X1323452D01*
X1325785Y686163D01*
Y681498D01*
X1323452Y679165D01*
X1316455D01*
X1321120D02*
X1325785Y674500D01*
X1337448Y688495D02*
X1332783D01*
X1330450Y686163D01*
Y676833D01*
X1332783Y674500D01*
X1337448D01*
X1339781Y676833D01*
Y686163D01*
X1337448Y688495D01*
X1353776Y686163D02*
X1351443Y688495D01*
X1346778D01*
X1344446Y686163D01*
Y683830D01*
X1346778Y681498D01*
X1351443D01*
X1353776Y679165D01*
Y676833D01*
X1351443Y674500D01*
X1346778D01*
X1344446Y676833D01*
X1367771Y686163D02*
X1365439Y688495D01*
X1360774D01*
X1358441Y686163D01*
Y683830D01*
X1360774Y681498D01*
X1365439D01*
X1367771Y679165D01*
Y676833D01*
X1365439Y674500D01*
X1360774D01*
X1358441Y676833D01*
D50*
X660500Y477500D02*
X662166D01*
X661333D01*
Y482498D01*
X660500Y481665D01*
X631000Y859498D02*
Y855333D01*
X631833Y854500D01*
X633499D01*
X634332Y855333D01*
Y859498D01*
X635998Y854500D02*
Y859498D01*
X639331Y854500D01*
Y859498D01*
X640997Y854500D02*
Y859498D01*
X643496D01*
X644329Y858665D01*
Y856999D01*
X643496Y856166D01*
X640997D01*
X642663D02*
X644329Y854500D01*
X649327Y859498D02*
X645995D01*
Y854500D01*
X649327D01*
X645995Y856999D02*
X647661D01*
X654326Y858665D02*
X653493Y859498D01*
X651827D01*
X650993Y858665D01*
Y855333D01*
X651827Y854500D01*
X653493D01*
X654326Y855333D01*
Y856999D01*
X652660D01*
X655992Y859498D02*
Y855333D01*
X656825Y854500D01*
X658491D01*
X659324Y855333D01*
Y859498D01*
X660990D02*
Y854500D01*
X664323D01*
X665989D02*
Y857832D01*
X667655Y859498D01*
X669321Y857832D01*
Y854500D01*
Y856999D01*
X665989D01*
X670987Y859498D02*
X674319D01*
X672653D01*
Y854500D01*
X679318Y859498D02*
X675985D01*
Y854500D01*
X679318D01*
X675985Y856999D02*
X677652D01*
X680984Y859498D02*
Y854500D01*
X683483D01*
X684316Y855333D01*
Y858665D01*
X683483Y859498D01*
X680984D01*
X633499Y851998D02*
X631833D01*
X631000Y851165D01*
Y847833D01*
X631833Y847000D01*
X633499D01*
X634332Y847833D01*
Y851165D01*
X633499Y851998D01*
X635998D02*
Y847833D01*
X636831Y847000D01*
X638498D01*
X639331Y847833D01*
Y851998D01*
X640997D02*
X644329D01*
X642663D01*
Y847000D01*
X645995D02*
Y851998D01*
X648494D01*
X649327Y851165D01*
Y849499D01*
X648494Y848666D01*
X645995D01*
X650993Y851998D02*
Y847833D01*
X651827Y847000D01*
X653493D01*
X654326Y847833D01*
Y851998D01*
X655992D02*
X659324D01*
X657658D01*
Y847000D01*
D51*
X1258500Y664500D02*
D03*
X1264000Y639500D02*
D03*
X1229000Y657500D02*
D03*
X1223000Y620000D02*
D03*
D52*
X1256500Y667500D02*
D03*
X1254000Y664500D02*
D03*
X1262000Y642500D02*
D03*
X1259500Y639500D02*
D03*
X1227000Y660500D02*
D03*
X1224500Y657500D02*
D03*
X1221000Y623000D02*
D03*
X1218500Y620000D02*
D03*
D53*
X1256500Y661750D02*
D03*
X1262000Y636750D02*
D03*
X1227000Y654750D02*
D03*
X1221000Y617250D02*
D03*
D54*
X1256500Y664500D02*
D03*
X1262000Y639500D02*
D03*
X1227000Y657500D02*
D03*
X1221000Y620000D02*
D03*
D55*
X1237500Y787500D02*
D03*
X1297500D02*
D03*
X1357500D02*
D03*
X1417500D02*
D03*
X1487500D02*
D03*
X1547500D02*
D03*
M02*
