G04 Layer_Color=255*
%FSLAX25Y25*%
%MOIN*%
G70*
G01*
G75*
%ADD10R,0.07874X0.05000*%
%ADD11R,0.15748X0.03937*%
%ADD12R,0.11811X0.23622*%
%ADD19R,0.07000X0.07000*%
%ADD20C,0.07000*%
%ADD21C,0.17500*%
%ADD22C,0.07874*%
D10*
X303500Y335000D02*
D03*
Y325000D02*
D03*
Y315000D02*
D03*
Y305000D02*
D03*
Y295000D02*
D03*
Y285000D02*
D03*
Y275000D02*
D03*
Y265000D02*
D03*
Y255000D02*
D03*
Y245000D02*
D03*
Y235000D02*
D03*
Y225000D02*
D03*
Y215000D02*
D03*
Y205000D02*
D03*
Y195000D02*
D03*
Y185000D02*
D03*
Y175000D02*
D03*
Y165000D02*
D03*
Y155000D02*
D03*
Y145000D02*
D03*
D11*
X202854Y331535D02*
D03*
Y325630D02*
D03*
Y319724D02*
D03*
Y313819D02*
D03*
Y307913D02*
D03*
Y302008D02*
D03*
Y296102D02*
D03*
Y290197D02*
D03*
Y284291D02*
D03*
Y278386D02*
D03*
Y272480D02*
D03*
Y266575D02*
D03*
Y260669D02*
D03*
Y254764D02*
D03*
Y248858D02*
D03*
Y242953D02*
D03*
Y237047D02*
D03*
Y231142D02*
D03*
Y225236D02*
D03*
Y219331D02*
D03*
Y213425D02*
D03*
Y207520D02*
D03*
Y201614D02*
D03*
Y195709D02*
D03*
Y189803D02*
D03*
Y183898D02*
D03*
Y177992D02*
D03*
Y172087D02*
D03*
Y166181D02*
D03*
Y160276D02*
D03*
Y154370D02*
D03*
Y148465D02*
D03*
D12*
X123327Y188819D02*
D03*
Y291181D02*
D03*
D19*
X272500Y335000D02*
D03*
D20*
X282500D02*
D03*
X272500Y325000D02*
D03*
X282500D02*
D03*
X272500Y315000D02*
D03*
X282500D02*
D03*
X272500Y305000D02*
D03*
X282500D02*
D03*
X272500Y295000D02*
D03*
X282500D02*
D03*
X272500Y285000D02*
D03*
X282500D02*
D03*
X272500Y275000D02*
D03*
X282500D02*
D03*
X272500Y265000D02*
D03*
X282500D02*
D03*
X272500Y255000D02*
D03*
X282500D02*
D03*
X272500Y245000D02*
D03*
X282500D02*
D03*
X272500Y235000D02*
D03*
X282500D02*
D03*
X272500Y225000D02*
D03*
X282500D02*
D03*
X272500Y215000D02*
D03*
X282500D02*
D03*
X272500Y205000D02*
D03*
X282500D02*
D03*
X272500Y195000D02*
D03*
X282500D02*
D03*
X272500Y185000D02*
D03*
X282500D02*
D03*
X272500Y175000D02*
D03*
X282500D02*
D03*
X272500Y165000D02*
D03*
X282500D02*
D03*
X272500Y155000D02*
D03*
X282500D02*
D03*
X272500Y145000D02*
D03*
X282500D02*
D03*
D21*
X230000Y126000D02*
D03*
Y356000D02*
D03*
D22*
X172343Y188819D02*
D03*
Y291181D02*
D03*
M02*
