G04 Layer_Color=65535*
%FSLAX25Y25*%
%MOIN*%
G70*
G01*
G75*
%ADD13C,0.01000*%
%ADD25C,0.01200*%
%ADD26C,0.00800*%
%ADD27C,0.00500*%
D13*
X263400Y250200D02*
X266400D01*
Y230200D02*
Y250200D01*
X263400Y230200D02*
X266400D01*
X238002Y192499D02*
X237002Y191499D01*
Y189500D01*
X238002Y188500D01*
X239001D01*
X240001Y189500D01*
Y191499D01*
X241001Y192499D01*
X242000D01*
X243000Y191499D01*
Y189500D01*
X242000Y188500D01*
X238002Y198497D02*
X237002Y197497D01*
Y195498D01*
X238002Y194498D01*
X242000D01*
X243000Y195498D01*
Y197497D01*
X242000Y198497D01*
X240001Y200496D02*
Y204495D01*
X238002Y210493D02*
X237002Y209493D01*
Y207494D01*
X238002Y206494D01*
X242000D01*
X243000Y207494D01*
Y209493D01*
X242000Y210493D01*
X240001D01*
Y208493D01*
X237002Y212492D02*
X243000D01*
Y215491D01*
X242000Y216491D01*
X241001D01*
X240001Y215491D01*
Y212492D01*
Y215491D01*
X239001Y216491D01*
X238002D01*
X237002Y215491D01*
Y212492D01*
X238002Y222489D02*
X237002Y221489D01*
Y219490D01*
X238002Y218490D01*
X242000D01*
X243000Y219490D01*
Y221489D01*
X242000Y222489D01*
X243000Y224488D02*
X239001D01*
X237002Y226488D01*
X239001Y228487D01*
X243000D01*
X240001D01*
Y224488D01*
X243000Y230486D02*
X237002D01*
Y233485D01*
X238002Y234485D01*
X240001D01*
X241001Y233485D01*
Y230486D01*
Y232486D02*
X243000Y234485D01*
X237002Y236485D02*
Y240483D01*
Y238484D01*
X243000D01*
Y248481D02*
X237002D01*
Y251480D01*
X238002Y252479D01*
X240001D01*
X241001Y251480D01*
Y248481D01*
Y250480D02*
X243000Y252479D01*
X237002Y258477D02*
Y254479D01*
X243000D01*
Y258477D01*
X240001Y254479D02*
Y256478D01*
X237002Y260477D02*
X241001D01*
X243000Y262476D01*
X241001Y264475D01*
X237002D01*
X243000Y272473D02*
Y274472D01*
Y273472D01*
X237002D01*
X238002Y272473D01*
D25*
X291500Y125000D02*
Y355000D01*
X263500Y125000D02*
Y355000D01*
X291500D01*
X263500Y125000D02*
X291500D01*
D26*
X256100Y330000D02*
X261100Y335000D01*
X256100Y330000D02*
Y340000D01*
X261100Y335000D01*
D27*
X127264Y125827D02*
Y148465D01*
Y354173D02*
X198130D01*
X127264Y125827D02*
X198130D01*
Y144528D01*
Y335472D02*
Y354173D01*
X127264Y125827D02*
Y175039D01*
X131496D01*
Y202598D01*
X127264D02*
X131496D01*
X127264Y304961D02*
X131496D01*
Y277402D02*
Y304961D01*
X127264Y277402D02*
X131496D01*
X127264Y202598D02*
Y277402D01*
Y304961D02*
Y354173D01*
M02*
