M48
;Layer_Color=9474304
;FILE_FORMAT=2:5
INCH,TZ
;TYPE=PLATED
T1F00S00C0.02000
T2F00S00C0.03900
T3F00S00C0.12500
;TYPE=NON_PLATED
T4F00S00C0.07874
%
T01
X117500Y117500
Y142500
X137500Y136500
X145000Y117500
X167500
Y130000
Y142500
X206000Y130000
Y117500
X213178Y148465
X252000Y130000
Y117500
X277500
Y130000
X302500
Y117500
X251600Y181600
X230000Y192500
X226500Y248900
X223036Y256600
X219900Y272400
X220000Y278200
X213100Y284291
X214900Y292200
X215200Y302008
X232500Y299100
X231000Y292315
X240800Y290600
X256500Y289600
X248700Y278600
X250600Y305000
X191700Y306900
X192500Y296100
Y278386
Y272500
X157500Y280000
Y259000
Y237000
Y219000
Y200500
Y175000
X167500Y167500
X192500Y225236
X215586Y242386
X157500Y305000
X137500
Y280000
Y259000
Y237000
Y219000
Y200500
Y175000
X117500Y167500
X147500Y157000
Y322500
X137500Y343500
X117500Y337500
Y312500
Y362500
X145000
X174000
Y350000
X167500Y337500
Y312500
X191999Y313819
X192524Y319724
X185000Y325500
X206000Y350000
Y362500
X252000
Y350000
X277500
Y362500
X302500
Y350000
X254800Y326400
X246000Y318000
X227000Y330000
T02
X272500Y145000
Y155000
X282500
Y145000
Y165000
Y175000
Y185000
Y195000
Y205000
Y215000
Y225000
Y235000
Y245000
Y255000
Y265000
Y275000
Y285000
Y295000
Y305000
X272500
Y295000
Y285000
Y275000
Y265000
Y255000
Y245000
Y235000
Y225000
Y215000
Y205000
Y195000
Y185000
Y175000
Y165000
Y315000
Y325000
Y335000
X282500
Y325000
Y315000
T03
X230000Y126000
Y356000
T04
X172343Y188819
Y291181
M30
