M48
;Layer_Color=9474304
;FILE_FORMAT=2:5
INCH,TZ
;TYPE=PLATED
T1F00S00C0.02756
T2F00S00C0.03150
T3F00S00C0.03937
T4F00S00C0.12598
%
T01
X642500Y190000
X649500Y195000
X647000Y205000
X638000Y200000
X633500Y210000
X628000Y240000
X647000Y245000
X651500Y255000
X642500Y270000
X647000Y276500
X650000Y285000
Y295000
X643500Y290000
X638000Y300000
X645000Y305000
X633500Y310000
X593500
X589000Y302500
X584000Y296500
X564500Y294500
X557000Y289000
X572500Y275000
X567000Y265000
Y255000
Y210000
X578500Y195000
X584000Y185000
Y170000
X572500Y160000
X565000Y180000
X557000
X590000Y200000
X615000Y205000
X525000Y294500
X520000Y336000
X478500
X598000Y325000
X621500Y315000
X598000Y395000
X593500Y405000
X589000Y415000
X651000Y400000
X650500Y370000
X650000Y340000
X645000Y325000
X633000Y319500
T02
X527500Y170000
X542500
Y180000
Y190000
Y200000
Y210000
Y220000
Y230000
Y240000
Y250000
Y260000
Y270000
Y280000
X527500Y260000
X515000
X513500Y287500
Y307500
X493500
Y287500
X515000Y220000
X527500
Y190000
X602500
Y200000
Y210000
Y220000
Y230000
Y240000
Y250000
Y260000
Y270000
Y280000
Y180000
Y170000
X607500Y345000
Y355000
Y365000
Y375000
Y385000
Y395000
Y405000
Y415000
X622500Y420000
X577500Y415000
Y405000
Y395000
Y385000
Y375000
Y365000
Y355000
Y345000
X543500
Y355000
Y365000
Y375000
Y385000
Y395000
Y405000
Y420500
X523500
X513500Y405000
Y395000
Y385000
Y375000
Y365000
Y355000
Y345000
X500000
X487500
X493500Y325000
X513500
X542500
Y315000
X500000Y385000
X487500
X642500Y420000
T03
X627500Y220000
Y230000
X664500
Y240000
Y250000
Y260000
Y270000
Y280000
Y290000
Y300000
Y310000
X674500
Y300000
Y290000
Y280000
Y270000
Y260000
Y250000
Y240000
Y230000
Y220000
X664500
Y210000
X674500
Y200000
X664500
X622500Y270000
Y280000
X502500Y250000
Y240000
X487000
Y230000
Y220000
Y210000
Y200000
Y190000
X502500Y200000
Y210000
X562500Y312500
Y322500
X577500
Y312500
X560000Y350000
Y360000
Y370000
Y385000
Y395000
Y405000
X625000
X635000
Y395000
X625000
Y385000
X635000
Y375000
X625000
Y365000
X635000
Y355000
X625000
Y345000
X635000
Y335000
X625000
X664500Y340000
Y350000
Y360000
Y370000
Y380000
Y390000
X674500
Y380000
Y370000
Y360000
Y350000
Y340000
Y330000
X664500
Y320000
X674500
T04
X669500Y157500
X494500
Y432500
X669500
M30
