G04 Layer_Color=255*
%FSLAX25Y25*%
%MOIN*%
G70*
G01*
G75*
%ADD14C,0.07500*%
%ADD15R,0.07000X0.07000*%
%ADD16C,0.07000*%
%ADD17C,0.09000*%
%ADD18C,0.08000*%
%ADD19C,0.25000*%
%ADD20R,0.08000X0.08000*%
%ADD21R,0.10000X0.05000*%
%ADD22O,0.10000X0.05000*%
%ADD23O,0.12000X0.05000*%
D14*
X542500Y315000D02*
D03*
Y325000D02*
D03*
X527500Y170000D02*
D03*
Y190000D02*
D03*
X513500Y307500D02*
D03*
Y287500D02*
D03*
X493500Y307500D02*
D03*
Y287500D02*
D03*
X543500Y420500D02*
D03*
X523500D02*
D03*
X622500Y420000D02*
D03*
X642500D02*
D03*
X487500Y385000D02*
D03*
Y345000D02*
D03*
X515000Y220000D02*
D03*
Y260000D02*
D03*
X527500D02*
D03*
Y220000D02*
D03*
X500000Y345000D02*
D03*
Y385000D02*
D03*
D15*
X664500Y390000D02*
D03*
D16*
X674500D02*
D03*
X664500Y380000D02*
D03*
X674500D02*
D03*
X664500Y370000D02*
D03*
X674500D02*
D03*
X664500Y360000D02*
D03*
X674500D02*
D03*
X664500Y350000D02*
D03*
X674500D02*
D03*
X664500Y340000D02*
D03*
X674500D02*
D03*
X664500Y330000D02*
D03*
X674500D02*
D03*
X664500Y320000D02*
D03*
X674500D02*
D03*
X664500Y310000D02*
D03*
X674500D02*
D03*
X664500Y300000D02*
D03*
X674500D02*
D03*
X664500Y290000D02*
D03*
X674500D02*
D03*
X664500Y280000D02*
D03*
X674500D02*
D03*
X664500Y270000D02*
D03*
X674500D02*
D03*
X664500Y260000D02*
D03*
X674500D02*
D03*
X664500Y250000D02*
D03*
X674500D02*
D03*
X664500Y240000D02*
D03*
X674500D02*
D03*
X664500Y230000D02*
D03*
X674500D02*
D03*
X664500Y220000D02*
D03*
X674500D02*
D03*
X664500Y210000D02*
D03*
X674500D02*
D03*
X664500Y200000D02*
D03*
X674500D02*
D03*
X635000Y405000D02*
D03*
X625000D02*
D03*
Y395000D02*
D03*
X635000D02*
D03*
X625000Y385000D02*
D03*
X635000D02*
D03*
X625000Y375000D02*
D03*
X635000D02*
D03*
X625000Y365000D02*
D03*
X635000D02*
D03*
X625000Y355000D02*
D03*
X635000D02*
D03*
X625000Y345000D02*
D03*
X635000D02*
D03*
X625000Y335000D02*
D03*
X635000D02*
D03*
D17*
X493500Y325000D02*
D03*
X513500D02*
D03*
D18*
X502500Y250000D02*
D03*
Y240000D02*
D03*
Y200000D02*
D03*
Y210000D02*
D03*
X622500Y270000D02*
D03*
Y280000D02*
D03*
X562500Y322500D02*
D03*
Y312500D02*
D03*
X577500D02*
D03*
Y322500D02*
D03*
X627500Y220000D02*
D03*
Y230000D02*
D03*
X560000Y360000D02*
D03*
Y350000D02*
D03*
Y370000D02*
D03*
Y405000D02*
D03*
Y385000D02*
D03*
Y395000D02*
D03*
X487000Y240000D02*
D03*
Y230000D02*
D03*
Y220000D02*
D03*
Y200000D02*
D03*
Y210000D02*
D03*
D19*
X494500Y157500D02*
D03*
Y432500D02*
D03*
X669500D02*
D03*
Y157500D02*
D03*
D20*
X487000Y190000D02*
D03*
D21*
X513500Y405000D02*
D03*
X577500Y415000D02*
D03*
X542500Y280000D02*
D03*
D22*
X513500Y395000D02*
D03*
Y385000D02*
D03*
Y375000D02*
D03*
Y365000D02*
D03*
Y355000D02*
D03*
Y345000D02*
D03*
X543500D02*
D03*
Y355000D02*
D03*
Y365000D02*
D03*
Y375000D02*
D03*
Y385000D02*
D03*
Y395000D02*
D03*
Y405000D02*
D03*
X607500Y415000D02*
D03*
Y405000D02*
D03*
Y395000D02*
D03*
Y385000D02*
D03*
Y375000D02*
D03*
Y365000D02*
D03*
Y355000D02*
D03*
Y345000D02*
D03*
X577500D02*
D03*
Y355000D02*
D03*
Y365000D02*
D03*
Y375000D02*
D03*
Y385000D02*
D03*
Y395000D02*
D03*
Y405000D02*
D03*
D23*
X602500Y280000D02*
D03*
Y270000D02*
D03*
Y260000D02*
D03*
Y250000D02*
D03*
Y240000D02*
D03*
Y230000D02*
D03*
Y220000D02*
D03*
Y210000D02*
D03*
Y200000D02*
D03*
Y190000D02*
D03*
Y180000D02*
D03*
Y170000D02*
D03*
X542500D02*
D03*
Y180000D02*
D03*
Y190000D02*
D03*
Y200000D02*
D03*
Y210000D02*
D03*
Y220000D02*
D03*
Y230000D02*
D03*
Y240000D02*
D03*
Y250000D02*
D03*
Y260000D02*
D03*
Y270000D02*
D03*
M02*
